G04 #@! TF.GenerationSoftware,KiCad,Pcbnew,(5.0.0-3-g5ebb6b6)*
G04 #@! TF.CreationDate,2020-01-06T15:53:35-08:00*
G04 #@! TF.ProjectId,mouse_v2,6D6F7573655F76322E6B696361645F70,rev?*
G04 #@! TF.SameCoordinates,Original*
G04 #@! TF.FileFunction,Legend,Bot*
G04 #@! TF.FilePolarity,Positive*
%FSLAX46Y46*%
G04 Gerber Fmt 4.6, Leading zero omitted, Abs format (unit mm)*
G04 Created by KiCad (PCBNEW (5.0.0-3-g5ebb6b6)) date Monday, January 06, 2020 at 03:53:35 PM*
%MOMM*%
%LPD*%
G01*
G04 APERTURE LIST*
%ADD10C,0.300000*%
%ADD11C,0.150000*%
%ADD12C,0.120000*%
%ADD13C,0.010000*%
G04 APERTURE END LIST*
D10*
X178578142Y-56430028D02*
X178935285Y-55430028D01*
X179292428Y-56430028D01*
X179792428Y-56787171D02*
X179863857Y-56858600D01*
X180006714Y-56930028D01*
X180363857Y-56930028D01*
X180506714Y-56858600D01*
X180578142Y-56787171D01*
X180649571Y-56644314D01*
X180649571Y-56501457D01*
X180578142Y-56287171D01*
X179721000Y-55430028D01*
X180649571Y-55430028D01*
X181292428Y-55572885D02*
X181363857Y-55501457D01*
X181292428Y-55430028D01*
X181221000Y-55501457D01*
X181292428Y-55572885D01*
X181292428Y-55430028D01*
X182292428Y-56930028D02*
X182435285Y-56930028D01*
X182578142Y-56858600D01*
X182649571Y-56787171D01*
X182721000Y-56644314D01*
X182792428Y-56358600D01*
X182792428Y-56001457D01*
X182721000Y-55715742D01*
X182649571Y-55572885D01*
X182578142Y-55501457D01*
X182435285Y-55430028D01*
X182292428Y-55430028D01*
X182149571Y-55501457D01*
X182078142Y-55572885D01*
X182006714Y-55715742D01*
X181935285Y-56001457D01*
X181935285Y-56358600D01*
X182006714Y-56644314D01*
X182078142Y-56787171D01*
X182149571Y-56858600D01*
X182292428Y-56930028D01*
X161658314Y-56861828D02*
X162229742Y-56861828D01*
X161872600Y-55861828D02*
X161872600Y-57147542D01*
X161944028Y-57290400D01*
X162086885Y-57361828D01*
X162229742Y-57361828D01*
X162729742Y-55861828D02*
X162729742Y-56861828D01*
X162729742Y-57361828D02*
X162658314Y-57290400D01*
X162729742Y-57218971D01*
X162801171Y-57290400D01*
X162729742Y-57361828D01*
X162729742Y-57218971D01*
X163372600Y-55933257D02*
X163515457Y-55861828D01*
X163801171Y-55861828D01*
X163944028Y-55933257D01*
X164015457Y-56076114D01*
X164015457Y-56147542D01*
X163944028Y-56290400D01*
X163801171Y-56361828D01*
X163586885Y-56361828D01*
X163444028Y-56433257D01*
X163372600Y-56576114D01*
X163372600Y-56647542D01*
X163444028Y-56790400D01*
X163586885Y-56861828D01*
X163801171Y-56861828D01*
X163944028Y-56790400D01*
X164658314Y-55861828D02*
X164658314Y-57361828D01*
X165301171Y-55861828D02*
X165301171Y-56647542D01*
X165229742Y-56790400D01*
X165086885Y-56861828D01*
X164872600Y-56861828D01*
X164729742Y-56790400D01*
X164658314Y-56718971D01*
X166015457Y-56433257D02*
X167158314Y-56433257D01*
X167872600Y-55861828D02*
X167872600Y-56861828D01*
X167872600Y-56718971D02*
X167944028Y-56790400D01*
X168086885Y-56861828D01*
X168301171Y-56861828D01*
X168444028Y-56790400D01*
X168515457Y-56647542D01*
X168515457Y-55861828D01*
X168515457Y-56647542D02*
X168586885Y-56790400D01*
X168729742Y-56861828D01*
X168944028Y-56861828D01*
X169086885Y-56790400D01*
X169158314Y-56647542D01*
X169158314Y-55861828D01*
X170086885Y-55861828D02*
X169944028Y-55933257D01*
X169872600Y-56004685D01*
X169801171Y-56147542D01*
X169801171Y-56576114D01*
X169872600Y-56718971D01*
X169944028Y-56790400D01*
X170086885Y-56861828D01*
X170301171Y-56861828D01*
X170444028Y-56790400D01*
X170515457Y-56718971D01*
X170586885Y-56576114D01*
X170586885Y-56147542D01*
X170515457Y-56004685D01*
X170444028Y-55933257D01*
X170301171Y-55861828D01*
X170086885Y-55861828D01*
X171872600Y-56861828D02*
X171872600Y-55861828D01*
X171229742Y-56861828D02*
X171229742Y-56076114D01*
X171301171Y-55933257D01*
X171444028Y-55861828D01*
X171658314Y-55861828D01*
X171801171Y-55933257D01*
X171872600Y-56004685D01*
X172515457Y-55933257D02*
X172658314Y-55861828D01*
X172944028Y-55861828D01*
X173086885Y-55933257D01*
X173158314Y-56076114D01*
X173158314Y-56147542D01*
X173086885Y-56290400D01*
X172944028Y-56361828D01*
X172729742Y-56361828D01*
X172586885Y-56433257D01*
X172515457Y-56576114D01*
X172515457Y-56647542D01*
X172586885Y-56790400D01*
X172729742Y-56861828D01*
X172944028Y-56861828D01*
X173086885Y-56790400D01*
X174372600Y-55933257D02*
X174229742Y-55861828D01*
X173944028Y-55861828D01*
X173801171Y-55933257D01*
X173729742Y-56076114D01*
X173729742Y-56647542D01*
X173801171Y-56790400D01*
X173944028Y-56861828D01*
X174229742Y-56861828D01*
X174372600Y-56790400D01*
X174444028Y-56647542D01*
X174444028Y-56504685D01*
X173729742Y-56361828D01*
D11*
G04 #@! TO.C,M3*
X158559500Y-143827500D02*
X165309500Y-143827500D01*
X158559500Y-143827500D02*
X151809500Y-143827500D01*
X158559500Y-143827500D02*
X158559500Y-149927500D01*
X158559500Y-143827500D02*
X158559500Y-137727500D01*
X158559500Y-149927500D02*
X148959500Y-149927500D01*
X158559500Y-149927500D02*
X168159500Y-149927500D01*
X158559500Y-137727500D02*
X168159500Y-137727500D01*
X158559500Y-137727500D02*
X148959500Y-137727500D01*
X168159500Y-137727500D02*
X168159500Y-149927500D01*
X148959500Y-137727500D02*
X148959500Y-149927500D01*
G04 #@! TO.C,BZ1*
X163031416Y-68326000D02*
G75*
G03X163031416Y-68326000I-4535416J0D01*
G01*
G04 #@! TO.C,SW1*
X111999000Y-87294200D02*
X111999000Y-86294200D01*
X111999000Y-86294200D02*
X112999000Y-86294200D01*
X112999000Y-100294200D02*
X111999000Y-100294200D01*
X111999000Y-100294200D02*
X111999000Y-99294200D01*
X125999000Y-99294200D02*
X125999000Y-100294200D01*
X125999000Y-100294200D02*
X124999000Y-100294200D01*
X124999000Y-86294200D02*
X125999000Y-86294200D01*
X125999000Y-86294200D02*
X125999000Y-87294200D01*
D12*
G04 #@! TO.C,C2*
X185951400Y-83788067D02*
X185951400Y-83445533D01*
X186971400Y-83788067D02*
X186971400Y-83445533D01*
G04 #@! TO.C,CP1*
X160637136Y-62682800D02*
X161841264Y-62682800D01*
X160637136Y-60862800D02*
X161841264Y-60862800D01*
D13*
G04 #@! TO.C,G\002A\002A\002A*
G36*
X148164176Y-69865728D02*
X148301780Y-69699613D01*
X148417039Y-69497378D01*
X148468625Y-69320076D01*
X148468774Y-69309415D01*
X148383488Y-69033603D01*
X148148100Y-68805985D01*
X148074866Y-68763163D01*
X147901800Y-68685486D01*
X147761130Y-68685672D01*
X147573134Y-68768683D01*
X147518967Y-68797761D01*
X147337325Y-68955678D01*
X147286133Y-69103814D01*
X147343258Y-69245189D01*
X147486618Y-69444292D01*
X147674193Y-69655150D01*
X147863964Y-69831789D01*
X148013910Y-69928238D01*
X148045553Y-69934667D01*
X148164176Y-69865728D01*
X148164176Y-69865728D01*
G37*
X148164176Y-69865728D02*
X148301780Y-69699613D01*
X148417039Y-69497378D01*
X148468625Y-69320076D01*
X148468774Y-69309415D01*
X148383488Y-69033603D01*
X148148100Y-68805985D01*
X148074866Y-68763163D01*
X147901800Y-68685486D01*
X147761130Y-68685672D01*
X147573134Y-68768683D01*
X147518967Y-68797761D01*
X147337325Y-68955678D01*
X147286133Y-69103814D01*
X147343258Y-69245189D01*
X147486618Y-69444292D01*
X147674193Y-69655150D01*
X147863964Y-69831789D01*
X148013910Y-69928238D01*
X148045553Y-69934667D01*
X148164176Y-69865728D01*
G36*
X138256559Y-69855882D02*
X138324105Y-69790325D01*
X138474074Y-69544021D01*
X138492786Y-69276308D01*
X138403274Y-69024160D01*
X138228571Y-68824549D01*
X137991710Y-68714448D01*
X137715724Y-68730830D01*
X137673527Y-68746018D01*
X137478928Y-68864040D01*
X137393041Y-68945447D01*
X137344805Y-69123725D01*
X137423990Y-69347972D01*
X137610204Y-69581544D01*
X137851108Y-69768614D01*
X138046729Y-69883288D01*
X138161046Y-69911421D01*
X138256559Y-69855882D01*
X138256559Y-69855882D01*
G37*
X138256559Y-69855882D02*
X138324105Y-69790325D01*
X138474074Y-69544021D01*
X138492786Y-69276308D01*
X138403274Y-69024160D01*
X138228571Y-68824549D01*
X137991710Y-68714448D01*
X137715724Y-68730830D01*
X137673527Y-68746018D01*
X137478928Y-68864040D01*
X137393041Y-68945447D01*
X137344805Y-69123725D01*
X137423990Y-69347972D01*
X137610204Y-69581544D01*
X137851108Y-69768614D01*
X138046729Y-69883288D01*
X138161046Y-69911421D01*
X138256559Y-69855882D01*
G36*
X127575888Y-83678059D02*
X127786633Y-83595887D01*
X128099724Y-83439475D01*
X128719705Y-83105678D01*
X129437500Y-82701989D01*
X130235285Y-82239638D01*
X131095237Y-81729852D01*
X131999533Y-81183860D01*
X132930349Y-80612890D01*
X133869864Y-80028169D01*
X134800252Y-79440926D01*
X135703692Y-78862390D01*
X136562360Y-78303787D01*
X137358434Y-77776347D01*
X138074089Y-77291298D01*
X138691503Y-76859867D01*
X139192853Y-76493283D01*
X139474979Y-76273343D01*
X140088158Y-75775576D01*
X141210646Y-75900077D01*
X141998756Y-75975447D01*
X142917409Y-76042878D01*
X143927926Y-76100575D01*
X144991627Y-76146746D01*
X146069834Y-76179597D01*
X147123867Y-76197336D01*
X147680073Y-76200000D01*
X149490543Y-76200000D01*
X150314505Y-76612961D01*
X150923978Y-76913830D01*
X159246388Y-76913830D01*
X159253906Y-76827074D01*
X159318009Y-76854755D01*
X159445794Y-77002854D01*
X159644352Y-77277349D01*
X159920777Y-77684220D01*
X160198840Y-78103127D01*
X160462312Y-78513850D01*
X160735925Y-78960589D01*
X161004882Y-79416871D01*
X161254382Y-79856225D01*
X161469627Y-80252181D01*
X161635818Y-80578265D01*
X161738156Y-80808009D01*
X161764133Y-80903014D01*
X161690284Y-80905884D01*
X161488692Y-80856959D01*
X161189287Y-80766188D01*
X160822003Y-80643517D01*
X160416770Y-80498897D01*
X160003521Y-80342275D01*
X159659857Y-80203614D01*
X159478208Y-80119184D01*
X159432116Y-80049704D01*
X159499180Y-79949114D01*
X159523102Y-79922422D01*
X159601215Y-79736638D01*
X159638362Y-79421980D01*
X159636629Y-79013346D01*
X159598101Y-78545632D01*
X159524865Y-78053734D01*
X159419006Y-77572547D01*
X159372739Y-77406733D01*
X159288364Y-77109043D01*
X159246388Y-76913830D01*
X150923978Y-76913830D01*
X151126926Y-77014016D01*
X152011694Y-77439839D01*
X152950140Y-77882200D01*
X153923595Y-78332866D01*
X154913390Y-78783608D01*
X155900854Y-79226193D01*
X156867318Y-79652390D01*
X157794114Y-80053970D01*
X158662571Y-80422700D01*
X159454020Y-80750349D01*
X160149792Y-81028687D01*
X160731216Y-81249482D01*
X161179625Y-81404503D01*
X161189841Y-81407741D01*
X161703109Y-81552765D01*
X162076411Y-81613053D01*
X162319825Y-81582357D01*
X162443430Y-81454430D01*
X162457304Y-81223024D01*
X162371527Y-80881891D01*
X162311289Y-80712566D01*
X161908271Y-79792023D01*
X161374871Y-78810172D01*
X160728575Y-77788222D01*
X159986868Y-76747379D01*
X159167238Y-75708851D01*
X158287169Y-74693846D01*
X157364149Y-73723570D01*
X156415663Y-72819232D01*
X155459197Y-72002039D01*
X154588633Y-71346401D01*
X154315063Y-71148356D01*
X154104272Y-70983922D01*
X153987919Y-70878338D01*
X153974800Y-70857023D01*
X154003789Y-70759909D01*
X154082964Y-70537108D01*
X154200642Y-70220554D01*
X154345135Y-69842184D01*
X154363442Y-69794864D01*
X154982120Y-68076558D01*
X155564333Y-66215181D01*
X156104151Y-64234222D01*
X156595639Y-62157167D01*
X157032867Y-60007503D01*
X157409900Y-57808720D01*
X157439692Y-57615667D01*
X157553628Y-56856595D01*
X157639552Y-56248286D01*
X157698954Y-55774759D01*
X157733325Y-55420032D01*
X157744156Y-55168126D01*
X157732937Y-55003059D01*
X157701158Y-54908850D01*
X157693187Y-54897964D01*
X157659524Y-54880944D01*
X157582956Y-54865654D01*
X157455525Y-54852025D01*
X157269276Y-54839987D01*
X157016251Y-54829471D01*
X156688493Y-54820407D01*
X156278045Y-54812726D01*
X155776952Y-54806358D01*
X155177255Y-54801233D01*
X154470997Y-54797283D01*
X153650223Y-54794437D01*
X152706975Y-54792626D01*
X151633295Y-54791780D01*
X150421229Y-54791831D01*
X149062817Y-54792707D01*
X147550105Y-54794341D01*
X146069266Y-54796372D01*
X144673320Y-54798640D01*
X143316134Y-54801242D01*
X142008181Y-54804140D01*
X140759931Y-54807293D01*
X139581855Y-54810662D01*
X138484424Y-54814208D01*
X137478111Y-54817891D01*
X136573385Y-54821672D01*
X135780719Y-54825511D01*
X135110583Y-54829369D01*
X134573448Y-54833206D01*
X134179785Y-54836982D01*
X133940067Y-54840659D01*
X133883581Y-54842340D01*
X133517802Y-54868125D01*
X133294638Y-54910268D01*
X133187701Y-54974565D01*
X133174729Y-54998006D01*
X133161474Y-55178415D01*
X133197952Y-55486390D01*
X133276442Y-55890209D01*
X133389220Y-56358150D01*
X133528565Y-56858492D01*
X133686753Y-57359511D01*
X133856063Y-57829487D01*
X133877074Y-57883081D01*
X134083551Y-58404496D01*
X133860943Y-58729748D01*
X133644929Y-59080905D01*
X133394793Y-59543713D01*
X133133652Y-60070456D01*
X132884625Y-60613421D01*
X132670832Y-61124893D01*
X132570180Y-61393708D01*
X132351829Y-62138775D01*
X132252064Y-62833089D01*
X132265310Y-63541044D01*
X132338072Y-64074839D01*
X132397056Y-64385573D01*
X132894493Y-64385573D01*
X132911394Y-63889431D01*
X133046085Y-63447019D01*
X133053156Y-63432929D01*
X133357686Y-63006953D01*
X133764936Y-62684519D01*
X134239729Y-62479068D01*
X134746885Y-62404039D01*
X135251227Y-62472872D01*
X135414353Y-62530825D01*
X135889686Y-62813294D01*
X135944683Y-62874956D01*
X141041444Y-62874956D01*
X141042095Y-62432659D01*
X141200520Y-61980632D01*
X141518079Y-61534931D01*
X141745948Y-61311530D01*
X142218056Y-60977882D01*
X142738351Y-60749394D01*
X143268409Y-60635498D01*
X143769808Y-60645625D01*
X144092686Y-60735503D01*
X144530676Y-60993593D01*
X144888507Y-61349929D01*
X145147970Y-61770990D01*
X145290861Y-62223253D01*
X145298971Y-62673197D01*
X145252302Y-62870548D01*
X145129525Y-63127502D01*
X144942397Y-63404978D01*
X144862207Y-63500945D01*
X144439232Y-63849666D01*
X143921831Y-64089423D01*
X143350595Y-64213446D01*
X142766118Y-64214965D01*
X142208992Y-64087211D01*
X141972506Y-63982872D01*
X141508011Y-63666120D01*
X141197203Y-63291462D01*
X141041444Y-62874956D01*
X135944683Y-62874956D01*
X136239521Y-63205521D01*
X136456534Y-63695984D01*
X136532506Y-64266438D01*
X149572133Y-64266438D01*
X149637781Y-63844172D01*
X149815395Y-63414647D01*
X150075980Y-63020552D01*
X150390541Y-62704577D01*
X150730084Y-62509412D01*
X150775366Y-62494904D01*
X151209057Y-62419888D01*
X151669948Y-62420639D01*
X152079209Y-62495141D01*
X152178353Y-62530825D01*
X152635230Y-62810389D01*
X153007847Y-63221096D01*
X153144660Y-63450324D01*
X153272816Y-63858481D01*
X153296133Y-64332493D01*
X153218994Y-64808812D01*
X153045780Y-65223893D01*
X153019477Y-65265468D01*
X152654818Y-65678347D01*
X152214089Y-65957397D01*
X151726554Y-66099700D01*
X151221479Y-66102334D01*
X150728130Y-65962381D01*
X150275770Y-65676921D01*
X150142593Y-65552465D01*
X149872830Y-65195962D01*
X149674035Y-64777140D01*
X149576933Y-64365260D01*
X149572133Y-64266438D01*
X136532506Y-64266438D01*
X136533402Y-64273163D01*
X136533467Y-64291392D01*
X136520980Y-64623217D01*
X136468215Y-64866266D01*
X136352209Y-65100208D01*
X136258300Y-65246156D01*
X135892661Y-65656160D01*
X135454357Y-65931721D01*
X134972230Y-66072375D01*
X134475122Y-66077657D01*
X133991877Y-65947101D01*
X133551337Y-65680244D01*
X133195454Y-65295518D01*
X132990730Y-64874563D01*
X132894493Y-64385573D01*
X132397056Y-64385573D01*
X132403759Y-64420883D01*
X132502744Y-64904168D01*
X132628883Y-65497261D01*
X132776035Y-66172727D01*
X132893915Y-66704138D01*
X141401800Y-66704138D01*
X141733406Y-66414403D01*
X142093909Y-66185554D01*
X142461207Y-66125541D01*
X142840154Y-66233881D01*
X142946967Y-66293072D01*
X143159826Y-66467021D01*
X143204001Y-66626363D01*
X143079498Y-66770968D01*
X142928519Y-66848654D01*
X142444778Y-66962066D01*
X141946411Y-66915553D01*
X141716580Y-66837736D01*
X141401800Y-66704138D01*
X132893915Y-66704138D01*
X132938057Y-66903131D01*
X133108806Y-67661040D01*
X133282139Y-68419020D01*
X133382382Y-68850409D01*
X137079941Y-68850409D01*
X137096386Y-68392251D01*
X137257433Y-67965546D01*
X137408325Y-67756494D01*
X137793205Y-67432385D01*
X138235253Y-67254746D01*
X138705306Y-67231429D01*
X139046788Y-67315387D01*
X139438780Y-67548442D01*
X139749012Y-67898778D01*
X139947157Y-68322341D01*
X140004800Y-68707000D01*
X139984603Y-68831742D01*
X146993697Y-68831742D01*
X147021982Y-68375184D01*
X147199004Y-67934021D01*
X147347662Y-67725961D01*
X147700925Y-67430285D01*
X148132835Y-67261483D01*
X148600853Y-67228154D01*
X149062443Y-67338900D01*
X149124677Y-67366650D01*
X149360031Y-67525501D01*
X149595616Y-67755675D01*
X149666639Y-67845020D01*
X149820117Y-68094263D01*
X149892402Y-68339979D01*
X149909407Y-68656203D01*
X149836961Y-69150798D01*
X149639499Y-69566423D01*
X149342172Y-69887718D01*
X148970133Y-70099323D01*
X148548532Y-70185877D01*
X148102523Y-70132020D01*
X147745440Y-69977749D01*
X147361009Y-69664630D01*
X147108567Y-69272092D01*
X146993697Y-68831742D01*
X139984603Y-68831742D01*
X139931973Y-69156796D01*
X139732754Y-69538576D01*
X139436037Y-69840733D01*
X139070717Y-70051657D01*
X138665688Y-70159740D01*
X138249845Y-70153375D01*
X137852080Y-70020951D01*
X137501290Y-69750861D01*
X137476097Y-69722931D01*
X137206908Y-69305481D01*
X137079941Y-68850409D01*
X133382382Y-68850409D01*
X133451914Y-69149634D01*
X133611988Y-69825450D01*
X133756219Y-70419033D01*
X133780212Y-70515780D01*
X133894406Y-71000600D01*
X133974122Y-71394482D01*
X134015400Y-71674784D01*
X134014283Y-71818864D01*
X134009645Y-71828113D01*
X133548500Y-72447784D01*
X133022619Y-73178255D01*
X132453856Y-73987357D01*
X131864062Y-74842920D01*
X131275089Y-75712773D01*
X130708790Y-76564747D01*
X130187017Y-77366670D01*
X129731622Y-78086374D01*
X129484927Y-78489258D01*
X129081888Y-79176742D01*
X128692172Y-79875190D01*
X128325295Y-80564785D01*
X127990771Y-81225712D01*
X127698113Y-81838151D01*
X127456836Y-82382287D01*
X127349138Y-82654553D01*
X127999153Y-82654553D01*
X128052549Y-82488953D01*
X128169343Y-82228812D01*
X128277203Y-81997785D01*
X128456995Y-81623962D01*
X128675136Y-81191689D01*
X128919134Y-80723490D01*
X129176499Y-80241888D01*
X129434738Y-79769407D01*
X129681361Y-79328571D01*
X129903877Y-78941902D01*
X130089794Y-78631924D01*
X130226620Y-78421161D01*
X130301866Y-78332137D01*
X130310167Y-78332060D01*
X130295220Y-78418125D01*
X130234994Y-78629837D01*
X130139738Y-78932870D01*
X130049362Y-79205667D01*
X129857671Y-79868872D01*
X129760591Y-80437096D01*
X129758587Y-80898220D01*
X129852123Y-81240128D01*
X129965545Y-81393788D01*
X130170957Y-81584158D01*
X129182379Y-82146399D01*
X128704827Y-82418377D01*
X128361993Y-82607524D01*
X128139612Y-82711496D01*
X128023419Y-82727953D01*
X127999153Y-82654553D01*
X127349138Y-82654553D01*
X127276453Y-82838302D01*
X127166480Y-83186379D01*
X127135467Y-83383019D01*
X127204135Y-83558297D01*
X127316557Y-83656959D01*
X127432276Y-83694784D01*
X127575888Y-83678059D01*
X127575888Y-83678059D01*
G37*
X127575888Y-83678059D02*
X127786633Y-83595887D01*
X128099724Y-83439475D01*
X128719705Y-83105678D01*
X129437500Y-82701989D01*
X130235285Y-82239638D01*
X131095237Y-81729852D01*
X131999533Y-81183860D01*
X132930349Y-80612890D01*
X133869864Y-80028169D01*
X134800252Y-79440926D01*
X135703692Y-78862390D01*
X136562360Y-78303787D01*
X137358434Y-77776347D01*
X138074089Y-77291298D01*
X138691503Y-76859867D01*
X139192853Y-76493283D01*
X139474979Y-76273343D01*
X140088158Y-75775576D01*
X141210646Y-75900077D01*
X141998756Y-75975447D01*
X142917409Y-76042878D01*
X143927926Y-76100575D01*
X144991627Y-76146746D01*
X146069834Y-76179597D01*
X147123867Y-76197336D01*
X147680073Y-76200000D01*
X149490543Y-76200000D01*
X150314505Y-76612961D01*
X150923978Y-76913830D01*
X159246388Y-76913830D01*
X159253906Y-76827074D01*
X159318009Y-76854755D01*
X159445794Y-77002854D01*
X159644352Y-77277349D01*
X159920777Y-77684220D01*
X160198840Y-78103127D01*
X160462312Y-78513850D01*
X160735925Y-78960589D01*
X161004882Y-79416871D01*
X161254382Y-79856225D01*
X161469627Y-80252181D01*
X161635818Y-80578265D01*
X161738156Y-80808009D01*
X161764133Y-80903014D01*
X161690284Y-80905884D01*
X161488692Y-80856959D01*
X161189287Y-80766188D01*
X160822003Y-80643517D01*
X160416770Y-80498897D01*
X160003521Y-80342275D01*
X159659857Y-80203614D01*
X159478208Y-80119184D01*
X159432116Y-80049704D01*
X159499180Y-79949114D01*
X159523102Y-79922422D01*
X159601215Y-79736638D01*
X159638362Y-79421980D01*
X159636629Y-79013346D01*
X159598101Y-78545632D01*
X159524865Y-78053734D01*
X159419006Y-77572547D01*
X159372739Y-77406733D01*
X159288364Y-77109043D01*
X159246388Y-76913830D01*
X150923978Y-76913830D01*
X151126926Y-77014016D01*
X152011694Y-77439839D01*
X152950140Y-77882200D01*
X153923595Y-78332866D01*
X154913390Y-78783608D01*
X155900854Y-79226193D01*
X156867318Y-79652390D01*
X157794114Y-80053970D01*
X158662571Y-80422700D01*
X159454020Y-80750349D01*
X160149792Y-81028687D01*
X160731216Y-81249482D01*
X161179625Y-81404503D01*
X161189841Y-81407741D01*
X161703109Y-81552765D01*
X162076411Y-81613053D01*
X162319825Y-81582357D01*
X162443430Y-81454430D01*
X162457304Y-81223024D01*
X162371527Y-80881891D01*
X162311289Y-80712566D01*
X161908271Y-79792023D01*
X161374871Y-78810172D01*
X160728575Y-77788222D01*
X159986868Y-76747379D01*
X159167238Y-75708851D01*
X158287169Y-74693846D01*
X157364149Y-73723570D01*
X156415663Y-72819232D01*
X155459197Y-72002039D01*
X154588633Y-71346401D01*
X154315063Y-71148356D01*
X154104272Y-70983922D01*
X153987919Y-70878338D01*
X153974800Y-70857023D01*
X154003789Y-70759909D01*
X154082964Y-70537108D01*
X154200642Y-70220554D01*
X154345135Y-69842184D01*
X154363442Y-69794864D01*
X154982120Y-68076558D01*
X155564333Y-66215181D01*
X156104151Y-64234222D01*
X156595639Y-62157167D01*
X157032867Y-60007503D01*
X157409900Y-57808720D01*
X157439692Y-57615667D01*
X157553628Y-56856595D01*
X157639552Y-56248286D01*
X157698954Y-55774759D01*
X157733325Y-55420032D01*
X157744156Y-55168126D01*
X157732937Y-55003059D01*
X157701158Y-54908850D01*
X157693187Y-54897964D01*
X157659524Y-54880944D01*
X157582956Y-54865654D01*
X157455525Y-54852025D01*
X157269276Y-54839987D01*
X157016251Y-54829471D01*
X156688493Y-54820407D01*
X156278045Y-54812726D01*
X155776952Y-54806358D01*
X155177255Y-54801233D01*
X154470997Y-54797283D01*
X153650223Y-54794437D01*
X152706975Y-54792626D01*
X151633295Y-54791780D01*
X150421229Y-54791831D01*
X149062817Y-54792707D01*
X147550105Y-54794341D01*
X146069266Y-54796372D01*
X144673320Y-54798640D01*
X143316134Y-54801242D01*
X142008181Y-54804140D01*
X140759931Y-54807293D01*
X139581855Y-54810662D01*
X138484424Y-54814208D01*
X137478111Y-54817891D01*
X136573385Y-54821672D01*
X135780719Y-54825511D01*
X135110583Y-54829369D01*
X134573448Y-54833206D01*
X134179785Y-54836982D01*
X133940067Y-54840659D01*
X133883581Y-54842340D01*
X133517802Y-54868125D01*
X133294638Y-54910268D01*
X133187701Y-54974565D01*
X133174729Y-54998006D01*
X133161474Y-55178415D01*
X133197952Y-55486390D01*
X133276442Y-55890209D01*
X133389220Y-56358150D01*
X133528565Y-56858492D01*
X133686753Y-57359511D01*
X133856063Y-57829487D01*
X133877074Y-57883081D01*
X134083551Y-58404496D01*
X133860943Y-58729748D01*
X133644929Y-59080905D01*
X133394793Y-59543713D01*
X133133652Y-60070456D01*
X132884625Y-60613421D01*
X132670832Y-61124893D01*
X132570180Y-61393708D01*
X132351829Y-62138775D01*
X132252064Y-62833089D01*
X132265310Y-63541044D01*
X132338072Y-64074839D01*
X132397056Y-64385573D01*
X132894493Y-64385573D01*
X132911394Y-63889431D01*
X133046085Y-63447019D01*
X133053156Y-63432929D01*
X133357686Y-63006953D01*
X133764936Y-62684519D01*
X134239729Y-62479068D01*
X134746885Y-62404039D01*
X135251227Y-62472872D01*
X135414353Y-62530825D01*
X135889686Y-62813294D01*
X135944683Y-62874956D01*
X141041444Y-62874956D01*
X141042095Y-62432659D01*
X141200520Y-61980632D01*
X141518079Y-61534931D01*
X141745948Y-61311530D01*
X142218056Y-60977882D01*
X142738351Y-60749394D01*
X143268409Y-60635498D01*
X143769808Y-60645625D01*
X144092686Y-60735503D01*
X144530676Y-60993593D01*
X144888507Y-61349929D01*
X145147970Y-61770990D01*
X145290861Y-62223253D01*
X145298971Y-62673197D01*
X145252302Y-62870548D01*
X145129525Y-63127502D01*
X144942397Y-63404978D01*
X144862207Y-63500945D01*
X144439232Y-63849666D01*
X143921831Y-64089423D01*
X143350595Y-64213446D01*
X142766118Y-64214965D01*
X142208992Y-64087211D01*
X141972506Y-63982872D01*
X141508011Y-63666120D01*
X141197203Y-63291462D01*
X141041444Y-62874956D01*
X135944683Y-62874956D01*
X136239521Y-63205521D01*
X136456534Y-63695984D01*
X136532506Y-64266438D01*
X149572133Y-64266438D01*
X149637781Y-63844172D01*
X149815395Y-63414647D01*
X150075980Y-63020552D01*
X150390541Y-62704577D01*
X150730084Y-62509412D01*
X150775366Y-62494904D01*
X151209057Y-62419888D01*
X151669948Y-62420639D01*
X152079209Y-62495141D01*
X152178353Y-62530825D01*
X152635230Y-62810389D01*
X153007847Y-63221096D01*
X153144660Y-63450324D01*
X153272816Y-63858481D01*
X153296133Y-64332493D01*
X153218994Y-64808812D01*
X153045780Y-65223893D01*
X153019477Y-65265468D01*
X152654818Y-65678347D01*
X152214089Y-65957397D01*
X151726554Y-66099700D01*
X151221479Y-66102334D01*
X150728130Y-65962381D01*
X150275770Y-65676921D01*
X150142593Y-65552465D01*
X149872830Y-65195962D01*
X149674035Y-64777140D01*
X149576933Y-64365260D01*
X149572133Y-64266438D01*
X136532506Y-64266438D01*
X136533402Y-64273163D01*
X136533467Y-64291392D01*
X136520980Y-64623217D01*
X136468215Y-64866266D01*
X136352209Y-65100208D01*
X136258300Y-65246156D01*
X135892661Y-65656160D01*
X135454357Y-65931721D01*
X134972230Y-66072375D01*
X134475122Y-66077657D01*
X133991877Y-65947101D01*
X133551337Y-65680244D01*
X133195454Y-65295518D01*
X132990730Y-64874563D01*
X132894493Y-64385573D01*
X132397056Y-64385573D01*
X132403759Y-64420883D01*
X132502744Y-64904168D01*
X132628883Y-65497261D01*
X132776035Y-66172727D01*
X132893915Y-66704138D01*
X141401800Y-66704138D01*
X141733406Y-66414403D01*
X142093909Y-66185554D01*
X142461207Y-66125541D01*
X142840154Y-66233881D01*
X142946967Y-66293072D01*
X143159826Y-66467021D01*
X143204001Y-66626363D01*
X143079498Y-66770968D01*
X142928519Y-66848654D01*
X142444778Y-66962066D01*
X141946411Y-66915553D01*
X141716580Y-66837736D01*
X141401800Y-66704138D01*
X132893915Y-66704138D01*
X132938057Y-66903131D01*
X133108806Y-67661040D01*
X133282139Y-68419020D01*
X133382382Y-68850409D01*
X137079941Y-68850409D01*
X137096386Y-68392251D01*
X137257433Y-67965546D01*
X137408325Y-67756494D01*
X137793205Y-67432385D01*
X138235253Y-67254746D01*
X138705306Y-67231429D01*
X139046788Y-67315387D01*
X139438780Y-67548442D01*
X139749012Y-67898778D01*
X139947157Y-68322341D01*
X140004800Y-68707000D01*
X139984603Y-68831742D01*
X146993697Y-68831742D01*
X147021982Y-68375184D01*
X147199004Y-67934021D01*
X147347662Y-67725961D01*
X147700925Y-67430285D01*
X148132835Y-67261483D01*
X148600853Y-67228154D01*
X149062443Y-67338900D01*
X149124677Y-67366650D01*
X149360031Y-67525501D01*
X149595616Y-67755675D01*
X149666639Y-67845020D01*
X149820117Y-68094263D01*
X149892402Y-68339979D01*
X149909407Y-68656203D01*
X149836961Y-69150798D01*
X149639499Y-69566423D01*
X149342172Y-69887718D01*
X148970133Y-70099323D01*
X148548532Y-70185877D01*
X148102523Y-70132020D01*
X147745440Y-69977749D01*
X147361009Y-69664630D01*
X147108567Y-69272092D01*
X146993697Y-68831742D01*
X139984603Y-68831742D01*
X139931973Y-69156796D01*
X139732754Y-69538576D01*
X139436037Y-69840733D01*
X139070717Y-70051657D01*
X138665688Y-70159740D01*
X138249845Y-70153375D01*
X137852080Y-70020951D01*
X137501290Y-69750861D01*
X137476097Y-69722931D01*
X137206908Y-69305481D01*
X137079941Y-68850409D01*
X133382382Y-68850409D01*
X133451914Y-69149634D01*
X133611988Y-69825450D01*
X133756219Y-70419033D01*
X133780212Y-70515780D01*
X133894406Y-71000600D01*
X133974122Y-71394482D01*
X134015400Y-71674784D01*
X134014283Y-71818864D01*
X134009645Y-71828113D01*
X133548500Y-72447784D01*
X133022619Y-73178255D01*
X132453856Y-73987357D01*
X131864062Y-74842920D01*
X131275089Y-75712773D01*
X130708790Y-76564747D01*
X130187017Y-77366670D01*
X129731622Y-78086374D01*
X129484927Y-78489258D01*
X129081888Y-79176742D01*
X128692172Y-79875190D01*
X128325295Y-80564785D01*
X127990771Y-81225712D01*
X127698113Y-81838151D01*
X127456836Y-82382287D01*
X127349138Y-82654553D01*
X127999153Y-82654553D01*
X128052549Y-82488953D01*
X128169343Y-82228812D01*
X128277203Y-81997785D01*
X128456995Y-81623962D01*
X128675136Y-81191689D01*
X128919134Y-80723490D01*
X129176499Y-80241888D01*
X129434738Y-79769407D01*
X129681361Y-79328571D01*
X129903877Y-78941902D01*
X130089794Y-78631924D01*
X130226620Y-78421161D01*
X130301866Y-78332137D01*
X130310167Y-78332060D01*
X130295220Y-78418125D01*
X130234994Y-78629837D01*
X130139738Y-78932870D01*
X130049362Y-79205667D01*
X129857671Y-79868872D01*
X129760591Y-80437096D01*
X129758587Y-80898220D01*
X129852123Y-81240128D01*
X129965545Y-81393788D01*
X130170957Y-81584158D01*
X129182379Y-82146399D01*
X128704827Y-82418377D01*
X128361993Y-82607524D01*
X128139612Y-82711496D01*
X128023419Y-82727953D01*
X127999153Y-82654553D01*
X127349138Y-82654553D01*
X127276453Y-82838302D01*
X127166480Y-83186379D01*
X127135467Y-83383019D01*
X127204135Y-83558297D01*
X127316557Y-83656959D01*
X127432276Y-83694784D01*
X127575888Y-83678059D01*
G04 #@! TO.C,M3*
D11*
X163559619Y-148896342D02*
X163607238Y-148943961D01*
X163750095Y-148991580D01*
X163845333Y-148991580D01*
X163988190Y-148943961D01*
X164083428Y-148848723D01*
X164131047Y-148753485D01*
X164178666Y-148563009D01*
X164178666Y-148420152D01*
X164131047Y-148229676D01*
X164083428Y-148134438D01*
X163988190Y-148039200D01*
X163845333Y-147991580D01*
X163750095Y-147991580D01*
X163607238Y-148039200D01*
X163559619Y-148086819D01*
X163178666Y-148705866D02*
X162702476Y-148705866D01*
X163273904Y-148991580D02*
X162940571Y-147991580D01*
X162607238Y-148991580D01*
X162321523Y-148943961D02*
X162178666Y-148991580D01*
X161940571Y-148991580D01*
X161845333Y-148943961D01*
X161797714Y-148896342D01*
X161750095Y-148801104D01*
X161750095Y-148705866D01*
X161797714Y-148610628D01*
X161845333Y-148563009D01*
X161940571Y-148515390D01*
X162131047Y-148467771D01*
X162226285Y-148420152D01*
X162273904Y-148372533D01*
X162321523Y-148277295D01*
X162321523Y-148182057D01*
X162273904Y-148086819D01*
X162226285Y-148039200D01*
X162131047Y-147991580D01*
X161892952Y-147991580D01*
X161750095Y-148039200D01*
X161464380Y-147991580D02*
X160892952Y-147991580D01*
X161178666Y-148991580D02*
X161178666Y-147991580D01*
X160559619Y-148467771D02*
X160226285Y-148467771D01*
X160083428Y-148991580D02*
X160559619Y-148991580D01*
X160559619Y-147991580D01*
X160083428Y-147991580D01*
X159083428Y-148991580D02*
X159416761Y-148515390D01*
X159654857Y-148991580D02*
X159654857Y-147991580D01*
X159273904Y-147991580D01*
X159178666Y-148039200D01*
X159131047Y-148086819D01*
X159083428Y-148182057D01*
X159083428Y-148324914D01*
X159131047Y-148420152D01*
X159178666Y-148467771D01*
X159273904Y-148515390D01*
X159654857Y-148515390D01*
X158892952Y-149086819D02*
X158131047Y-149086819D01*
X157559619Y-148467771D02*
X157416761Y-148515390D01*
X157369142Y-148563009D01*
X157321523Y-148658247D01*
X157321523Y-148801104D01*
X157369142Y-148896342D01*
X157416761Y-148943961D01*
X157512000Y-148991580D01*
X157892952Y-148991580D01*
X157892952Y-147991580D01*
X157559619Y-147991580D01*
X157464380Y-148039200D01*
X157416761Y-148086819D01*
X157369142Y-148182057D01*
X157369142Y-148277295D01*
X157416761Y-148372533D01*
X157464380Y-148420152D01*
X157559619Y-148467771D01*
X157892952Y-148467771D01*
X156940571Y-148705866D02*
X156464380Y-148705866D01*
X157035809Y-148991580D02*
X156702476Y-147991580D01*
X156369142Y-148991580D01*
X155559619Y-148991580D02*
X156035809Y-148991580D01*
X156035809Y-147991580D01*
X154750095Y-148991580D02*
X155226285Y-148991580D01*
X155226285Y-147991580D01*
G04 #@! TO.C,BZ1*
X164114171Y-67064047D02*
X164161790Y-67206904D01*
X164209409Y-67254523D01*
X164304647Y-67302142D01*
X164447504Y-67302142D01*
X164542742Y-67254523D01*
X164590361Y-67206904D01*
X164637980Y-67111666D01*
X164637980Y-66730714D01*
X163637980Y-66730714D01*
X163637980Y-67064047D01*
X163685600Y-67159285D01*
X163733219Y-67206904D01*
X163828457Y-67254523D01*
X163923695Y-67254523D01*
X164018933Y-67206904D01*
X164066552Y-67159285D01*
X164114171Y-67064047D01*
X164114171Y-66730714D01*
X163637980Y-67635476D02*
X163637980Y-68302142D01*
X164637980Y-67635476D01*
X164637980Y-68302142D01*
X164637980Y-69206904D02*
X164637980Y-68635476D01*
X164637980Y-68921190D02*
X163637980Y-68921190D01*
X163780838Y-68825952D01*
X163876076Y-68730714D01*
X163923695Y-68635476D01*
X157217428Y-70495047D02*
X157217428Y-71256952D01*
X157267428Y-65445047D02*
X157267428Y-66206952D01*
X157648380Y-65826000D02*
X156886476Y-65826000D01*
G04 #@! TO.C,C2*
X188248542Y-83450133D02*
X188296161Y-83402514D01*
X188343780Y-83259657D01*
X188343780Y-83164419D01*
X188296161Y-83021561D01*
X188200923Y-82926323D01*
X188105685Y-82878704D01*
X187915209Y-82831085D01*
X187772352Y-82831085D01*
X187581876Y-82878704D01*
X187486638Y-82926323D01*
X187391400Y-83021561D01*
X187343780Y-83164419D01*
X187343780Y-83259657D01*
X187391400Y-83402514D01*
X187439019Y-83450133D01*
X187439019Y-83831085D02*
X187391400Y-83878704D01*
X187343780Y-83973942D01*
X187343780Y-84212038D01*
X187391400Y-84307276D01*
X187439019Y-84354895D01*
X187534257Y-84402514D01*
X187629495Y-84402514D01*
X187772352Y-84354895D01*
X188343780Y-83783466D01*
X188343780Y-84402514D01*
G04 #@! TO.C,CP1*
X161905866Y-63949942D02*
X161953485Y-63997561D01*
X162096342Y-64045180D01*
X162191580Y-64045180D01*
X162334438Y-63997561D01*
X162429676Y-63902323D01*
X162477295Y-63807085D01*
X162524914Y-63616609D01*
X162524914Y-63473752D01*
X162477295Y-63283276D01*
X162429676Y-63188038D01*
X162334438Y-63092800D01*
X162191580Y-63045180D01*
X162096342Y-63045180D01*
X161953485Y-63092800D01*
X161905866Y-63140419D01*
X161477295Y-64045180D02*
X161477295Y-63045180D01*
X161096342Y-63045180D01*
X161001104Y-63092800D01*
X160953485Y-63140419D01*
X160905866Y-63235657D01*
X160905866Y-63378514D01*
X160953485Y-63473752D01*
X161001104Y-63521371D01*
X161096342Y-63568990D01*
X161477295Y-63568990D01*
X159953485Y-64045180D02*
X160524914Y-64045180D01*
X160239200Y-64045180D02*
X160239200Y-63045180D01*
X160334438Y-63188038D01*
X160429676Y-63283276D01*
X160524914Y-63330895D01*
G04 #@! TD*
M02*
