M48
;DRILL file {KiCad (5.0.0-3-g5ebb6b6)} date Sunday, September 08, 2019 at 12:47:14 AM
;FORMAT={-:-/ absolute / inch / decimal}
FMAT,2
INCH,TZ
T1C0.0157
T2C0.0197
T3C0.0300
T4C0.0315
T5C0.0354
T6C0.0394
T7C0.0433
T8C0.0440
T9C0.0590
%
G90
G05
M72
T1
X6.07Y-3.205
X6.0725Y-5.2375
X6.11Y-2.975
X6.526Y-5.114
X6.72Y-3.2
X6.89Y-3.78
X7.23Y-3.75
X7.586Y-4.488
T2
X6.52Y-3.4
X6.67Y-3.4
T3
X6.238Y-2.5916
X6.24Y-2.7884
T4
X4.974Y-3.97
X5.02Y-3.08
X5.15Y-3.966
X5.362Y-3.966
X6.782Y-3.806
X7.01Y-3.11
X7.4975Y-4.0052
X7.5Y-3.55
X7.8125Y-3.98
X6.32Y-5.62
X6.32Y-5.72
X6.19Y-2.45
X6.29Y-2.45
X6.31Y-5.2675
X6.31Y-5.3675
X7.77Y-4.1025
X7.77Y-4.2025
X4.42Y-3.89
X4.52Y-3.89
X7.9475Y-4.205
X8.0475Y-4.205
X6.1725Y-5.2675
X6.1725Y-5.3675
X4.7075Y-4.1025
X4.7075Y-4.2025
X7.95Y-3.87
X8.05Y-3.87
X6.1625Y-5.6175
X6.1625Y-5.7175
X4.445Y-3.41
X4.445Y-3.51
X4.445Y-4.17
X4.545Y-4.17
T5
X5.9154Y-5.268
X5.96Y-5.3575
X4.66Y-4.3125
X4.76Y-4.3125
X6.005Y-5.445
X6.0496Y-5.5345
X7.9199Y-4.3156
X8.0199Y-4.3156
X6.5175Y-5.355
X6.5621Y-5.2655
X7.7225Y-4.315
X7.8225Y-4.315
X4.4625Y-4.3129
X4.5625Y-4.3129
X6.43Y-5.5325
X6.4746Y-5.443
T6
X5.08Y-3.47
X5.08Y-3.57
X5.38Y-2.32
X5.48Y-2.32
X5.58Y-2.32
X5.68Y-2.32
X5.78Y-2.32
X5.88Y-2.32
X6.22Y-3.945
X6.14Y-2.32
X6.24Y-2.32
X6.34Y-2.32
X5.22Y-3.47
X5.22Y-3.57
X6.61Y-2.32
X6.71Y-2.32
X6.81Y-2.32
X6.91Y-2.32
X7.01Y-2.32
X7.11Y-2.32
X6.125Y-3.945
T7
X5.62Y-3.1
X5.62Y-3.2
X5.62Y-3.3
X5.62Y-3.4
X5.62Y-3.5
X5.62Y-3.6
X5.62Y-3.7
X5.72Y-3.1
X5.72Y-3.4
X5.72Y-3.5
X5.72Y-3.7
X5.82Y-3.1
X5.82Y-3.4
X5.82Y-3.5
X5.82Y-3.7
X5.92Y-3.1
X5.92Y-3.4
X5.92Y-3.5
X5.92Y-3.7
X6.02Y-3.1
X6.02Y-3.4
X6.02Y-3.5
X6.02Y-3.7
X6.12Y-3.1
X6.12Y-3.4
X6.12Y-3.5
X6.12Y-3.7
X6.22Y-3.1
X6.22Y-3.4
X6.22Y-3.5
X6.22Y-3.7
X6.32Y-3.1
X6.32Y-3.4
X6.32Y-3.5
X6.32Y-3.7
X6.42Y-3.1
X6.42Y-3.6
X6.42Y-3.7
X6.52Y-3.1
X6.52Y-3.6
X6.52Y-3.7
X6.62Y-3.1
X6.62Y-3.6
X6.62Y-3.7
X6.72Y-3.1
X6.72Y-3.7
X6.82Y-3.1
X6.82Y-3.6
X6.82Y-3.7
X6.92Y-3.1
X6.92Y-3.7
T8
X7.3Y-3.44
X7.3Y-3.74
X7.4Y-3.44
X7.4Y-3.74
X7.5Y-3.44
X7.5Y-3.74
X7.6Y-3.44
X7.6Y-3.74
X7.7Y-3.44
X7.7Y-3.74
X7.8Y-3.44
X7.8Y-3.74
X7.9Y-3.44
X7.9Y-3.74
X8.Y-3.44
X8.Y-3.74
T9
X4.59Y-3.46
X4.84Y-3.56
T0
M30
