G04 #@! TF.GenerationSoftware,KiCad,Pcbnew,(5.0.0-3-g5ebb6b6)*
G04 #@! TF.CreationDate,2020-01-06T15:53:35-08:00*
G04 #@! TF.ProjectId,mouse_v2,6D6F7573655F76322E6B696361645F70,rev?*
G04 #@! TF.SameCoordinates,Original*
G04 #@! TF.FileFunction,Soldermask,Bot*
G04 #@! TF.FilePolarity,Negative*
%FSLAX46Y46*%
G04 Gerber Fmt 4.6, Leading zero omitted, Abs format (unit mm)*
G04 Created by KiCad (PCBNEW (5.0.0-3-g5ebb6b6)) date Monday, January 06, 2020 at 03:53:35 PM*
%MOMM*%
%LPD*%
G01*
G04 APERTURE LIST*
%ADD10O,2.000000X2.000000*%
%ADD11C,2.000000*%
%ADD12R,2.200000X2.200000*%
%ADD13C,2.200000*%
%ADD14C,2.584400*%
%ADD15C,0.100000*%
%ADD16R,2.100000X2.100000*%
%ADD17O,2.100000X2.100000*%
%ADD18R,2.000000X2.000000*%
%ADD19C,2.300000*%
%ADD20R,2.076400X2.076400*%
%ADD21C,2.076400*%
%ADD22C,1.924000*%
%ADD23C,2.686000*%
%ADD24C,4.387800*%
%ADD25C,2.101800*%
%ADD26R,1.700000X1.700000*%
%ADD27C,1.700000*%
%ADD28C,1.350000*%
%ADD29C,1.825000*%
G04 APERTURE END LIST*
D10*
G04 #@! TO.C,R20*
X176809400Y-102793800D03*
D11*
X192049400Y-102793800D03*
G04 #@! TD*
D12*
G04 #@! TO.C,Q2*
X113346989Y-109548045D03*
D13*
X115886989Y-109548045D03*
G04 #@! TD*
G04 #@! TO.C,D0*
X198691500Y-109601000D03*
D12*
X196151500Y-109601000D03*
G04 #@! TD*
D14*
G04 #@! TO.C,M3*
X165309500Y-143827500D03*
X151809500Y-143827500D03*
G04 #@! TD*
D13*
G04 #@! TO.C,Q1*
X173383442Y-134988467D03*
X172250100Y-137261600D03*
D15*
G36*
X172743710Y-138736845D02*
X170774855Y-137755210D01*
X171756490Y-135786355D01*
X173725345Y-136767990D01*
X172743710Y-138736845D01*
X172743710Y-138736845D01*
G37*
G04 #@! TD*
D16*
G04 #@! TO.C,BT1*
X131470400Y-88341200D03*
D17*
X131470400Y-90881200D03*
G04 #@! TD*
D13*
G04 #@! TO.C,D1*
X170027600Y-141770100D03*
D15*
G36*
X170521210Y-143245345D02*
X168552355Y-142263710D01*
X169533990Y-140294855D01*
X171502845Y-141276490D01*
X170521210Y-143245345D01*
X170521210Y-143245345D01*
G37*
D13*
X171160942Y-139496967D03*
G04 #@! TD*
G04 #@! TO.C,D2*
X120904000Y-109537500D03*
D12*
X118364000Y-109537500D03*
G04 #@! TD*
D13*
G04 #@! TO.C,D3*
X145973800Y-139547600D03*
D15*
G36*
X144498555Y-139053990D02*
X146467410Y-138072355D01*
X147449045Y-140041210D01*
X145480190Y-141022845D01*
X144498555Y-139053990D01*
X144498555Y-139053990D01*
G37*
D13*
X147107142Y-141820733D03*
G04 #@! TD*
D12*
G04 #@! TO.C,Q0*
X201164677Y-109616645D03*
D13*
X203704677Y-109616645D03*
G04 #@! TD*
G04 #@! TO.C,Q3*
X144830800Y-137325100D03*
X143697458Y-135051967D03*
D15*
G36*
X142222213Y-134558357D02*
X144191068Y-133576722D01*
X145172703Y-135545577D01*
X143203848Y-136527212D01*
X142222213Y-134558357D01*
X142222213Y-134558357D01*
G37*
G04 #@! TD*
D11*
G04 #@! TO.C,U1*
X142748000Y-86360000D03*
X142748000Y-88900000D03*
X142748000Y-91440000D03*
X142748000Y-93980000D03*
X142748000Y-83820000D03*
X142748000Y-81280000D03*
X142748000Y-78740000D03*
X145288000Y-93980000D03*
X147828000Y-93980000D03*
X150368000Y-93980000D03*
X152908000Y-93980000D03*
X155448000Y-93980000D03*
X157988000Y-93980000D03*
X160528000Y-93980000D03*
X163068000Y-93980000D03*
X165608000Y-93980000D03*
X168148000Y-93980000D03*
X170688000Y-93980000D03*
X173228000Y-93980000D03*
X175768000Y-93980000D03*
X173228000Y-91440000D03*
X168148000Y-91440000D03*
X165608000Y-91440000D03*
X163068000Y-91440000D03*
X145288000Y-78740000D03*
X147828000Y-78740000D03*
X150368000Y-78740000D03*
X152908000Y-78740000D03*
X155448000Y-78740000D03*
X157988000Y-78740000D03*
X160528000Y-78740000D03*
X163068000Y-78740000D03*
X165608000Y-78740000D03*
X168148000Y-78740000D03*
X170688000Y-78740000D03*
X173228000Y-78740000D03*
D18*
X175768000Y-78740000D03*
D11*
X160528000Y-86360000D03*
X157988000Y-86360000D03*
X155448000Y-86360000D03*
X152908000Y-86360000D03*
X150368000Y-86360000D03*
X147828000Y-86360000D03*
X145288000Y-86360000D03*
X145288000Y-88900000D03*
X147828000Y-88900000D03*
X150368000Y-88900000D03*
X152908000Y-88900000D03*
X155448000Y-88900000D03*
X157988000Y-88900000D03*
X160528000Y-88900000D03*
D19*
X165608000Y-86360000D03*
X169418000Y-86360000D03*
G04 #@! TD*
D20*
G04 #@! TO.C,U2*
X203200000Y-87376000D03*
D21*
X200660000Y-87376000D03*
X198120000Y-87376000D03*
X195580000Y-87376000D03*
X193040000Y-87376000D03*
X190500000Y-87376000D03*
X187960000Y-87376000D03*
X185420000Y-87376000D03*
X185420000Y-94996000D03*
X187960000Y-94996000D03*
X190500000Y-94996000D03*
X193040000Y-94996000D03*
X195580000Y-94996000D03*
X198120000Y-94996000D03*
X200660000Y-94996000D03*
X203200000Y-94996000D03*
G04 #@! TD*
D16*
G04 #@! TO.C,U3*
X161036000Y-58928000D03*
D17*
X158496000Y-58928000D03*
X155956000Y-58928000D03*
G04 #@! TD*
D14*
G04 #@! TO.C,M1*
X130349000Y-77707000D03*
X130349000Y-59707000D03*
G04 #@! TD*
G04 #@! TO.C,M2*
X186770000Y-59707000D03*
X186770000Y-77707000D03*
G04 #@! TD*
D22*
G04 #@! TO.C,BZ1*
X158496000Y-70826000D03*
X158446000Y-65826000D03*
G04 #@! TD*
D23*
G04 #@! TO.C,SW1*
X121539000Y-88214200D03*
D24*
X118999000Y-93294200D03*
D23*
X115189000Y-90754200D03*
D25*
X124079000Y-93294200D03*
X113919000Y-93294200D03*
G04 #@! TD*
D17*
G04 #@! TO.C,U4*
X180594000Y-58928000D03*
X178054000Y-58928000D03*
X175514000Y-58928000D03*
X172974000Y-58928000D03*
X170434000Y-58928000D03*
D16*
X167894000Y-58928000D03*
G04 #@! TD*
G04 #@! TO.C,U5*
X136652000Y-58928000D03*
D17*
X139192000Y-58928000D03*
X141732000Y-58928000D03*
X144272000Y-58928000D03*
X146812000Y-58928000D03*
X149352000Y-58928000D03*
G04 #@! TD*
D16*
G04 #@! TO.C,MH_SCL1*
X158013400Y-99009200D03*
G04 #@! TD*
G04 #@! TO.C,MH_SDA1*
X155498800Y-99009200D03*
G04 #@! TD*
D11*
G04 #@! TO.C,R1*
X191249300Y-124663200D03*
D10*
X191249300Y-109423200D03*
G04 #@! TD*
G04 #@! TO.C,R2*
X173469300Y-104228900D03*
D11*
X173469300Y-119468900D03*
G04 #@! TD*
G04 #@! TO.C,R3*
X125831600Y-124510800D03*
D10*
X125831600Y-109270800D03*
G04 #@! TD*
G04 #@! TO.C,R4*
X143687800Y-104190800D03*
D11*
X143687800Y-119430800D03*
G04 #@! TD*
D10*
G04 #@! TO.C,R5*
X187553600Y-111569500D03*
D11*
X187553600Y-126809500D03*
G04 #@! TD*
G04 #@! TO.C,R6*
X162293300Y-127838200D03*
D10*
X162293300Y-112598200D03*
G04 #@! TD*
D11*
G04 #@! TO.C,R7*
X136956800Y-132803900D03*
D10*
X136956800Y-117563900D03*
G04 #@! TD*
D11*
G04 #@! TO.C,R8*
X151066500Y-125679200D03*
D10*
X151066500Y-110439200D03*
G04 #@! TD*
D11*
G04 #@! TO.C,R9*
X183845200Y-131000500D03*
D10*
X183845200Y-115760500D03*
G04 #@! TD*
D11*
G04 #@! TO.C,R10*
X169748200Y-121564400D03*
D10*
X169748200Y-106324400D03*
G04 #@! TD*
D11*
G04 #@! TO.C,R11*
X129552700Y-126593600D03*
D10*
X129552700Y-111353600D03*
G04 #@! TD*
G04 #@! TO.C,R12*
X147383500Y-106286300D03*
D11*
X147383500Y-121526300D03*
G04 #@! TD*
G04 #@! TO.C,R13*
X180136800Y-133057900D03*
D10*
X180136800Y-117817900D03*
G04 #@! TD*
G04 #@! TO.C,R14*
X166027100Y-110540800D03*
D11*
X166027100Y-125780800D03*
G04 #@! TD*
D10*
G04 #@! TO.C,R15*
X133261100Y-115506500D03*
D11*
X133261100Y-130746500D03*
G04 #@! TD*
D10*
G04 #@! TO.C,R16*
X154838400Y-112560100D03*
D11*
X154838400Y-127800100D03*
G04 #@! TD*
G04 #@! TO.C,R17*
X125044200Y-102666800D03*
D10*
X140284200Y-102666800D03*
G04 #@! TD*
G04 #@! TO.C,R18*
X176809400Y-106514900D03*
D11*
X192049400Y-106514900D03*
G04 #@! TD*
D10*
G04 #@! TO.C,R19*
X140284200Y-106387900D03*
D11*
X125044200Y-106387900D03*
G04 #@! TD*
D26*
G04 #@! TO.C,T0*
X184264300Y-111950500D03*
D27*
X181724300Y-111950500D03*
X182994300Y-113220500D03*
G04 #@! TD*
G04 #@! TO.C,T1*
X165087300Y-108026200D03*
X163817300Y-106756200D03*
D26*
X166357300Y-106756200D03*
G04 #@! TD*
D27*
G04 #@! TO.C,T2*
X134162800Y-112953800D03*
X132892800Y-111683800D03*
D26*
X135432800Y-111683800D03*
G04 #@! TD*
G04 #@! TO.C,T3*
X153276300Y-106616500D03*
D27*
X150736300Y-106616500D03*
X152006300Y-107886500D03*
G04 #@! TD*
D15*
G04 #@! TO.C,C2*
G36*
X186831981Y-82018425D02*
X186864743Y-82023285D01*
X186896871Y-82031333D01*
X186928056Y-82042491D01*
X186957996Y-82056652D01*
X186986405Y-82073679D01*
X187013008Y-82093409D01*
X187037549Y-82115651D01*
X187059791Y-82140192D01*
X187079521Y-82166795D01*
X187096548Y-82195204D01*
X187110709Y-82225144D01*
X187121867Y-82256329D01*
X187129915Y-82288457D01*
X187134775Y-82321219D01*
X187136400Y-82354300D01*
X187136400Y-83129300D01*
X187134775Y-83162381D01*
X187129915Y-83195143D01*
X187121867Y-83227271D01*
X187110709Y-83258456D01*
X187096548Y-83288396D01*
X187079521Y-83316805D01*
X187059791Y-83343408D01*
X187037549Y-83367949D01*
X187013008Y-83390191D01*
X186986405Y-83409921D01*
X186957996Y-83426948D01*
X186928056Y-83441109D01*
X186896871Y-83452267D01*
X186864743Y-83460315D01*
X186831981Y-83465175D01*
X186798900Y-83466800D01*
X186123900Y-83466800D01*
X186090819Y-83465175D01*
X186058057Y-83460315D01*
X186025929Y-83452267D01*
X185994744Y-83441109D01*
X185964804Y-83426948D01*
X185936395Y-83409921D01*
X185909792Y-83390191D01*
X185885251Y-83367949D01*
X185863009Y-83343408D01*
X185843279Y-83316805D01*
X185826252Y-83288396D01*
X185812091Y-83258456D01*
X185800933Y-83227271D01*
X185792885Y-83195143D01*
X185788025Y-83162381D01*
X185786400Y-83129300D01*
X185786400Y-82354300D01*
X185788025Y-82321219D01*
X185792885Y-82288457D01*
X185800933Y-82256329D01*
X185812091Y-82225144D01*
X185826252Y-82195204D01*
X185843279Y-82166795D01*
X185863009Y-82140192D01*
X185885251Y-82115651D01*
X185909792Y-82093409D01*
X185936395Y-82073679D01*
X185964804Y-82056652D01*
X185994744Y-82042491D01*
X186025929Y-82031333D01*
X186058057Y-82023285D01*
X186090819Y-82018425D01*
X186123900Y-82016800D01*
X186798900Y-82016800D01*
X186831981Y-82018425D01*
X186831981Y-82018425D01*
G37*
D28*
X186461400Y-82741800D03*
D15*
G36*
X186831981Y-83768425D02*
X186864743Y-83773285D01*
X186896871Y-83781333D01*
X186928056Y-83792491D01*
X186957996Y-83806652D01*
X186986405Y-83823679D01*
X187013008Y-83843409D01*
X187037549Y-83865651D01*
X187059791Y-83890192D01*
X187079521Y-83916795D01*
X187096548Y-83945204D01*
X187110709Y-83975144D01*
X187121867Y-84006329D01*
X187129915Y-84038457D01*
X187134775Y-84071219D01*
X187136400Y-84104300D01*
X187136400Y-84879300D01*
X187134775Y-84912381D01*
X187129915Y-84945143D01*
X187121867Y-84977271D01*
X187110709Y-85008456D01*
X187096548Y-85038396D01*
X187079521Y-85066805D01*
X187059791Y-85093408D01*
X187037549Y-85117949D01*
X187013008Y-85140191D01*
X186986405Y-85159921D01*
X186957996Y-85176948D01*
X186928056Y-85191109D01*
X186896871Y-85202267D01*
X186864743Y-85210315D01*
X186831981Y-85215175D01*
X186798900Y-85216800D01*
X186123900Y-85216800D01*
X186090819Y-85215175D01*
X186058057Y-85210315D01*
X186025929Y-85202267D01*
X185994744Y-85191109D01*
X185964804Y-85176948D01*
X185936395Y-85159921D01*
X185909792Y-85140191D01*
X185885251Y-85117949D01*
X185863009Y-85093408D01*
X185843279Y-85066805D01*
X185826252Y-85038396D01*
X185812091Y-85008456D01*
X185800933Y-84977271D01*
X185792885Y-84945143D01*
X185788025Y-84912381D01*
X185786400Y-84879300D01*
X185786400Y-84104300D01*
X185788025Y-84071219D01*
X185792885Y-84038457D01*
X185800933Y-84006329D01*
X185812091Y-83975144D01*
X185826252Y-83945204D01*
X185843279Y-83916795D01*
X185863009Y-83890192D01*
X185885251Y-83865651D01*
X185909792Y-83843409D01*
X185936395Y-83823679D01*
X185964804Y-83806652D01*
X185994744Y-83792491D01*
X186025929Y-83781333D01*
X186058057Y-83773285D01*
X186090819Y-83768425D01*
X186123900Y-83766800D01*
X186798900Y-83766800D01*
X186831981Y-83768425D01*
X186831981Y-83768425D01*
G37*
D28*
X186461400Y-84491800D03*
G04 #@! TD*
D16*
G04 #@! TO.C,GND*
X135813800Y-90932000D03*
G04 #@! TD*
G04 #@! TO.C,BT*
X135813800Y-88290400D03*
G04 #@! TD*
D15*
G04 #@! TO.C,CP1*
G36*
X160375407Y-60699342D02*
X160406487Y-60703952D01*
X160436966Y-60711587D01*
X160466550Y-60722172D01*
X160494954Y-60735606D01*
X160521904Y-60751759D01*
X160547142Y-60770477D01*
X160570423Y-60791577D01*
X160591523Y-60814858D01*
X160610241Y-60840096D01*
X160626394Y-60867046D01*
X160639828Y-60895450D01*
X160650413Y-60925034D01*
X160658048Y-60955513D01*
X160662658Y-60986593D01*
X160664200Y-61017976D01*
X160664200Y-62527624D01*
X160662658Y-62559007D01*
X160658048Y-62590087D01*
X160650413Y-62620566D01*
X160639828Y-62650150D01*
X160626394Y-62678554D01*
X160610241Y-62705504D01*
X160591523Y-62730742D01*
X160570423Y-62754023D01*
X160547142Y-62775123D01*
X160521904Y-62793841D01*
X160494954Y-62809994D01*
X160466550Y-62823428D01*
X160436966Y-62834013D01*
X160406487Y-62841648D01*
X160375407Y-62846258D01*
X160344024Y-62847800D01*
X159159376Y-62847800D01*
X159127993Y-62846258D01*
X159096913Y-62841648D01*
X159066434Y-62834013D01*
X159036850Y-62823428D01*
X159008446Y-62809994D01*
X158981496Y-62793841D01*
X158956258Y-62775123D01*
X158932977Y-62754023D01*
X158911877Y-62730742D01*
X158893159Y-62705504D01*
X158877006Y-62678554D01*
X158863572Y-62650150D01*
X158852987Y-62620566D01*
X158845352Y-62590087D01*
X158840742Y-62559007D01*
X158839200Y-62527624D01*
X158839200Y-61017976D01*
X158840742Y-60986593D01*
X158845352Y-60955513D01*
X158852987Y-60925034D01*
X158863572Y-60895450D01*
X158877006Y-60867046D01*
X158893159Y-60840096D01*
X158911877Y-60814858D01*
X158932977Y-60791577D01*
X158956258Y-60770477D01*
X158981496Y-60751759D01*
X159008446Y-60735606D01*
X159036850Y-60722172D01*
X159066434Y-60711587D01*
X159096913Y-60703952D01*
X159127993Y-60699342D01*
X159159376Y-60697800D01*
X160344024Y-60697800D01*
X160375407Y-60699342D01*
X160375407Y-60699342D01*
G37*
D29*
X159751700Y-61772800D03*
D15*
G36*
X163350407Y-60699342D02*
X163381487Y-60703952D01*
X163411966Y-60711587D01*
X163441550Y-60722172D01*
X163469954Y-60735606D01*
X163496904Y-60751759D01*
X163522142Y-60770477D01*
X163545423Y-60791577D01*
X163566523Y-60814858D01*
X163585241Y-60840096D01*
X163601394Y-60867046D01*
X163614828Y-60895450D01*
X163625413Y-60925034D01*
X163633048Y-60955513D01*
X163637658Y-60986593D01*
X163639200Y-61017976D01*
X163639200Y-62527624D01*
X163637658Y-62559007D01*
X163633048Y-62590087D01*
X163625413Y-62620566D01*
X163614828Y-62650150D01*
X163601394Y-62678554D01*
X163585241Y-62705504D01*
X163566523Y-62730742D01*
X163545423Y-62754023D01*
X163522142Y-62775123D01*
X163496904Y-62793841D01*
X163469954Y-62809994D01*
X163441550Y-62823428D01*
X163411966Y-62834013D01*
X163381487Y-62841648D01*
X163350407Y-62846258D01*
X163319024Y-62847800D01*
X162134376Y-62847800D01*
X162102993Y-62846258D01*
X162071913Y-62841648D01*
X162041434Y-62834013D01*
X162011850Y-62823428D01*
X161983446Y-62809994D01*
X161956496Y-62793841D01*
X161931258Y-62775123D01*
X161907977Y-62754023D01*
X161886877Y-62730742D01*
X161868159Y-62705504D01*
X161852006Y-62678554D01*
X161838572Y-62650150D01*
X161827987Y-62620566D01*
X161820352Y-62590087D01*
X161815742Y-62559007D01*
X161814200Y-62527624D01*
X161814200Y-61017976D01*
X161815742Y-60986593D01*
X161820352Y-60955513D01*
X161827987Y-60925034D01*
X161838572Y-60895450D01*
X161852006Y-60867046D01*
X161868159Y-60840096D01*
X161886877Y-60814858D01*
X161907977Y-60791577D01*
X161931258Y-60770477D01*
X161956496Y-60751759D01*
X161983446Y-60735606D01*
X162011850Y-60722172D01*
X162041434Y-60711587D01*
X162071913Y-60703952D01*
X162102993Y-60699342D01*
X162134376Y-60697800D01*
X163319024Y-60697800D01*
X163350407Y-60699342D01*
X163350407Y-60699342D01*
G37*
D29*
X162726700Y-61772800D03*
G04 #@! TD*
M02*
