G04 #@! TF.GenerationSoftware,KiCad,Pcbnew,(5.0.0-3-g5ebb6b6)*
G04 #@! TF.CreationDate,2020-01-06T14:47:40-08:00*
G04 #@! TF.ProjectId,mouse_v2,6D6F7573655F76322E6B696361645F70,rev?*
G04 #@! TF.SameCoordinates,Original*
G04 #@! TF.FileFunction,Copper,L1,Top,Signal*
G04 #@! TF.FilePolarity,Positive*
%FSLAX46Y46*%
G04 Gerber Fmt 4.6, Leading zero omitted, Abs format (unit mm)*
G04 Created by KiCad (PCBNEW (5.0.0-3-g5ebb6b6)) date Monday, January 06, 2020 at 02:47:40 PM*
%MOMM*%
%LPD*%
G01*
G04 APERTURE LIST*
G04 #@! TA.AperFunction,ComponentPad*
%ADD10O,1.600000X1.600000*%
G04 #@! TD*
G04 #@! TA.AperFunction,ComponentPad*
%ADD11C,1.600000*%
G04 #@! TD*
G04 #@! TA.AperFunction,ComponentPad*
%ADD12R,1.800000X1.800000*%
G04 #@! TD*
G04 #@! TA.AperFunction,ComponentPad*
%ADD13C,1.800000*%
G04 #@! TD*
G04 #@! TA.AperFunction,Conductor*
%ADD14C,0.100000*%
G04 #@! TD*
G04 #@! TA.AperFunction,ComponentPad*
%ADD15R,1.700000X1.700000*%
G04 #@! TD*
G04 #@! TA.AperFunction,ComponentPad*
%ADD16O,1.700000X1.700000*%
G04 #@! TD*
G04 #@! TA.AperFunction,ComponentPad*
%ADD17R,1.600000X1.600000*%
G04 #@! TD*
G04 #@! TA.AperFunction,ComponentPad*
%ADD18C,1.900000*%
G04 #@! TD*
G04 #@! TA.AperFunction,ComponentPad*
%ADD19R,1.676400X1.676400*%
G04 #@! TD*
G04 #@! TA.AperFunction,ComponentPad*
%ADD20C,1.676400*%
G04 #@! TD*
G04 #@! TA.AperFunction,ComponentPad*
%ADD21C,1.524000*%
G04 #@! TD*
G04 #@! TA.AperFunction,SMDPad,CuDef*
%ADD22R,1.000000X2.400000*%
G04 #@! TD*
G04 #@! TA.AperFunction,ComponentPad*
%ADD23C,2.286000*%
G04 #@! TD*
G04 #@! TA.AperFunction,ComponentPad*
%ADD24R,1.300000X1.300000*%
G04 #@! TD*
G04 #@! TA.AperFunction,ComponentPad*
%ADD25C,1.300000*%
G04 #@! TD*
G04 #@! TA.AperFunction,SMDPad,CuDef*
%ADD26C,0.950000*%
G04 #@! TD*
G04 #@! TA.AperFunction,ViaPad*
%ADD27C,1.600000*%
G04 #@! TD*
G04 #@! TA.AperFunction,ViaPad*
%ADD28C,0.800000*%
G04 #@! TD*
G04 #@! TA.AperFunction,Conductor*
%ADD29C,0.750000*%
G04 #@! TD*
G04 #@! TA.AperFunction,Conductor*
%ADD30C,0.500000*%
G04 #@! TD*
G04 #@! TA.AperFunction,Conductor*
%ADD31C,0.250000*%
G04 #@! TD*
G04 #@! TA.AperFunction,Conductor*
%ADD32C,0.254000*%
G04 #@! TD*
G04 APERTURE END LIST*
D10*
G04 #@! TO.P,R20,2*
G04 #@! TO.N,/Buzzer*
X176809400Y-102793800D03*
D11*
G04 #@! TO.P,R20,1*
G04 #@! TO.N,Net-(BZ1-Pad1)*
X192049400Y-102793800D03*
G04 #@! TD*
D12*
G04 #@! TO.P,Q2,1*
G04 #@! TO.N,/3.3v*
X113346989Y-109548045D03*
D13*
G04 #@! TO.P,Q2,2*
G04 #@! TO.N,/Reciever_2*
X115886989Y-109548045D03*
G04 #@! TD*
G04 #@! TO.P,D0,2*
G04 #@! TO.N,/5v*
X198691500Y-109601000D03*
D12*
G04 #@! TO.P,D0,1*
G04 #@! TO.N,Net-(D0-Pad1)*
X196151500Y-109601000D03*
G04 #@! TD*
D13*
G04 #@! TO.P,Q1,2*
G04 #@! TO.N,/Reciever_1*
X173383442Y-134988467D03*
G04 #@! TO.P,Q1,1*
G04 #@! TO.N,/3.3v*
X172250100Y-137261600D03*
D14*
G04 #@! TD*
G04 #@! TO.N,/3.3v*
G04 #@! TO.C,Q1*
G36*
X172653963Y-138468619D02*
X171043081Y-137665463D01*
X171846237Y-136054581D01*
X173457119Y-136857737D01*
X172653963Y-138468619D01*
X172653963Y-138468619D01*
G37*
D15*
G04 #@! TO.P,BT1,1*
G04 #@! TO.N,/vBatt*
X131470400Y-88341200D03*
D16*
G04 #@! TO.P,BT1,2*
G04 #@! TO.N,/GND*
X131470400Y-90881200D03*
G04 #@! TD*
D13*
G04 #@! TO.P,D1,1*
G04 #@! TO.N,Net-(D1-Pad1)*
X170027600Y-141770100D03*
D14*
G04 #@! TD*
G04 #@! TO.N,Net-(D1-Pad1)*
G04 #@! TO.C,D1*
G36*
X170431463Y-142977119D02*
X168820581Y-142173963D01*
X169623737Y-140563081D01*
X171234619Y-141366237D01*
X170431463Y-142977119D01*
X170431463Y-142977119D01*
G37*
D13*
G04 #@! TO.P,D1,2*
G04 #@! TO.N,/5v*
X171160942Y-139496967D03*
G04 #@! TD*
G04 #@! TO.P,D2,2*
G04 #@! TO.N,/5v*
X120904000Y-109537500D03*
D12*
G04 #@! TO.P,D2,1*
G04 #@! TO.N,Net-(D2-Pad1)*
X118364000Y-109537500D03*
G04 #@! TD*
D13*
G04 #@! TO.P,D3,1*
G04 #@! TO.N,Net-(D3-Pad1)*
X145973800Y-139547600D03*
D14*
G04 #@! TD*
G04 #@! TO.N,Net-(D3-Pad1)*
G04 #@! TO.C,D3*
G36*
X144766781Y-139143737D02*
X146377663Y-138340581D01*
X147180819Y-139951463D01*
X145569937Y-140754619D01*
X144766781Y-139143737D01*
X144766781Y-139143737D01*
G37*
D13*
G04 #@! TO.P,D3,2*
G04 #@! TO.N,/5v*
X147107142Y-141820733D03*
G04 #@! TD*
D12*
G04 #@! TO.P,Q0,1*
G04 #@! TO.N,/3.3v*
X201164677Y-109616645D03*
D13*
G04 #@! TO.P,Q0,2*
G04 #@! TO.N,/Reciever_0*
X203704677Y-109616645D03*
G04 #@! TD*
G04 #@! TO.P,Q3,2*
G04 #@! TO.N,/Reciever_3*
X144830800Y-137325100D03*
G04 #@! TO.P,Q3,1*
G04 #@! TO.N,/3.3v*
X143697458Y-135051967D03*
D14*
G04 #@! TD*
G04 #@! TO.N,/3.3v*
G04 #@! TO.C,Q3*
G36*
X142490439Y-134648104D02*
X144101321Y-133844948D01*
X144904477Y-135455830D01*
X143293595Y-136258986D01*
X142490439Y-134648104D01*
X142490439Y-134648104D01*
G37*
D11*
G04 #@! TO.P,U1,17*
G04 #@! TO.N,/GND*
X142748000Y-86360000D03*
G04 #@! TO.P,U1,18*
G04 #@! TO.N,Net-(U1-Pad18)*
X142748000Y-88900000D03*
G04 #@! TO.P,U1,19*
G04 #@! TO.N,Net-(U1-Pad19)*
X142748000Y-91440000D03*
G04 #@! TO.P,U1,20*
G04 #@! TO.N,/Buzzer*
X142748000Y-93980000D03*
G04 #@! TO.P,U1,16*
G04 #@! TO.N,/3.3v*
X142748000Y-83820000D03*
G04 #@! TO.P,U1,15*
G04 #@! TO.N,Net-(U1-Pad15)*
X142748000Y-81280000D03*
G04 #@! TO.P,U1,14*
G04 #@! TO.N,/PUSH_SW*
X142748000Y-78740000D03*
G04 #@! TO.P,U1,21*
G04 #@! TO.N,/Reciever_2*
X145288000Y-93980000D03*
G04 #@! TO.P,U1,22*
G04 #@! TO.N,/Emitter_2*
X147828000Y-93980000D03*
G04 #@! TO.P,U1,23*
G04 #@! TO.N,/Reciever_3*
X150368000Y-93980000D03*
G04 #@! TO.P,U1,24*
G04 #@! TO.N,/Emitter_3*
X152908000Y-93980000D03*
G04 #@! TO.P,U1,25*
G04 #@! TO.N,/i2c_SDA*
X155448000Y-93980000D03*
G04 #@! TO.P,U1,26*
G04 #@! TO.N,/i2c_SCL*
X157988000Y-93980000D03*
G04 #@! TO.P,U1,27*
G04 #@! TO.N,/Emitter_1*
X160528000Y-93980000D03*
G04 #@! TO.P,U1,28*
G04 #@! TO.N,/Reciever_1*
X163068000Y-93980000D03*
G04 #@! TO.P,U1,29*
G04 #@! TO.N,/Emitter_0*
X165608000Y-93980000D03*
G04 #@! TO.P,U1,30*
G04 #@! TO.N,/Reciever_0*
X168148000Y-93980000D03*
G04 #@! TO.P,U1,31*
G04 #@! TO.N,Net-(U1-Pad31)*
X170688000Y-93980000D03*
G04 #@! TO.P,U1,32*
G04 #@! TO.N,Net-(U1-Pad32)*
X173228000Y-93980000D03*
G04 #@! TO.P,U1,33*
G04 #@! TO.N,/5v*
X175768000Y-93980000D03*
G04 #@! TO.P,U1,34*
G04 #@! TO.N,Net-(U1-Pad34)*
X173228000Y-91440000D03*
G04 #@! TO.P,U1,35*
G04 #@! TO.N,Net-(U1-Pad35)*
X168148000Y-91440000D03*
G04 #@! TO.P,U1,36*
G04 #@! TO.N,Net-(U1-Pad36)*
X165608000Y-91440000D03*
G04 #@! TO.P,U1,37*
G04 #@! TO.N,Net-(U1-Pad37)*
X163068000Y-91440000D03*
G04 #@! TO.P,U1,13*
G04 #@! TO.N,/STATUS_LED_1*
X145288000Y-78740000D03*
G04 #@! TO.P,U1,12*
G04 #@! TO.N,/STATUS_LED_0*
X147828000Y-78740000D03*
G04 #@! TO.P,U1,11*
G04 #@! TO.N,/M1_encoder_B*
X150368000Y-78740000D03*
G04 #@! TO.P,U1,10*
G04 #@! TO.N,/M1_encoder_A*
X152908000Y-78740000D03*
G04 #@! TO.P,U1,9*
G04 #@! TO.N,/M2_encoder_B*
X155448000Y-78740000D03*
G04 #@! TO.P,U1,8*
G04 #@! TO.N,/M2_encoder_A*
X157988000Y-78740000D03*
G04 #@! TO.P,U1,7*
G04 #@! TO.N,/M2_speed*
X160528000Y-78740000D03*
G04 #@! TO.P,U1,6*
G04 #@! TO.N,/M1_speed*
X163068000Y-78740000D03*
G04 #@! TO.P,U1,5*
G04 #@! TO.N,/M2_backward*
X165608000Y-78740000D03*
G04 #@! TO.P,U1,4*
G04 #@! TO.N,/M2_forward*
X168148000Y-78740000D03*
G04 #@! TO.P,U1,3*
G04 #@! TO.N,/M1_forward*
X170688000Y-78740000D03*
G04 #@! TO.P,U1,2*
G04 #@! TO.N,/M1_backward*
X173228000Y-78740000D03*
D17*
G04 #@! TO.P,U1,1*
G04 #@! TO.N,/GND*
X175768000Y-78740000D03*
D11*
G04 #@! TO.P,U1,38*
G04 #@! TO.N,Net-(U1-Pad38)*
X160528000Y-86360000D03*
G04 #@! TO.P,U1,39*
G04 #@! TO.N,Net-(U1-Pad39)*
X157988000Y-86360000D03*
G04 #@! TO.P,U1,40*
G04 #@! TO.N,Net-(U1-Pad40)*
X155448000Y-86360000D03*
G04 #@! TO.P,U1,41*
G04 #@! TO.N,Net-(U1-Pad41)*
X152908000Y-86360000D03*
G04 #@! TO.P,U1,42*
G04 #@! TO.N,Net-(U1-Pad42)*
X150368000Y-86360000D03*
G04 #@! TO.P,U1,43*
G04 #@! TO.N,Net-(U1-Pad43)*
X147828000Y-86360000D03*
G04 #@! TO.P,U1,44*
G04 #@! TO.N,Net-(U1-Pad44)*
X145288000Y-86360000D03*
G04 #@! TO.P,U1,45*
G04 #@! TO.N,Net-(U1-Pad45)*
X145288000Y-88900000D03*
G04 #@! TO.P,U1,46*
G04 #@! TO.N,Net-(U1-Pad46)*
X147828000Y-88900000D03*
G04 #@! TO.P,U1,47*
G04 #@! TO.N,Net-(U1-Pad47)*
X150368000Y-88900000D03*
G04 #@! TO.P,U1,48*
G04 #@! TO.N,Net-(U1-Pad48)*
X152908000Y-88900000D03*
G04 #@! TO.P,U1,49*
G04 #@! TO.N,Net-(U1-Pad49)*
X155448000Y-88900000D03*
G04 #@! TO.P,U1,50*
G04 #@! TO.N,Net-(U1-Pad50)*
X157988000Y-88900000D03*
G04 #@! TO.P,U1,51*
G04 #@! TO.N,Net-(U1-Pad51)*
X160528000Y-88900000D03*
D18*
G04 #@! TO.P,U1,52*
G04 #@! TO.N,Net-(U1-Pad52)*
X165608000Y-86360000D03*
X169418000Y-86360000D03*
G04 #@! TD*
D19*
G04 #@! TO.P,U2,1*
G04 #@! TO.N,/M1_speed*
X203200000Y-87376000D03*
D20*
G04 #@! TO.P,U2,2*
G04 #@! TO.N,/M1_forward*
X200660000Y-87376000D03*
G04 #@! TO.P,U2,3*
G04 #@! TO.N,/OUT1*
X198120000Y-87376000D03*
G04 #@! TO.P,U2,4*
G04 #@! TO.N,/GND*
X195580000Y-87376000D03*
G04 #@! TO.P,U2,5*
X193040000Y-87376000D03*
G04 #@! TO.P,U2,6*
G04 #@! TO.N,/OUT2*
X190500000Y-87376000D03*
G04 #@! TO.P,U2,7*
G04 #@! TO.N,/M1_backward*
X187960000Y-87376000D03*
G04 #@! TO.P,U2,8*
G04 #@! TO.N,/5v*
X185420000Y-87376000D03*
G04 #@! TO.P,U2,9*
G04 #@! TO.N,/M2_speed*
X185420000Y-94996000D03*
G04 #@! TO.P,U2,10*
G04 #@! TO.N,/M2_forward*
X187960000Y-94996000D03*
G04 #@! TO.P,U2,11*
G04 #@! TO.N,/OUT3*
X190500000Y-94996000D03*
G04 #@! TO.P,U2,12*
G04 #@! TO.N,/GND*
X193040000Y-94996000D03*
G04 #@! TO.P,U2,13*
X195580000Y-94996000D03*
G04 #@! TO.P,U2,14*
G04 #@! TO.N,/OUT4*
X198120000Y-94996000D03*
G04 #@! TO.P,U2,15*
G04 #@! TO.N,/M2_backward*
X200660000Y-94996000D03*
G04 #@! TO.P,U2,16*
G04 #@! TO.N,/5v*
X203200000Y-94996000D03*
G04 #@! TD*
D15*
G04 #@! TO.P,U3,1*
G04 #@! TO.N,/GND*
X161036000Y-58928000D03*
D16*
G04 #@! TO.P,U3,2*
G04 #@! TO.N,/5v*
X158496000Y-58928000D03*
G04 #@! TO.P,U3,3*
G04 #@! TO.N,/vBatt*
X155956000Y-58928000D03*
G04 #@! TD*
D21*
G04 #@! TO.P,BZ1,2*
G04 #@! TO.N,/GND*
X158496000Y-70826000D03*
G04 #@! TO.P,BZ1,1*
G04 #@! TO.N,Net-(BZ1-Pad1)*
X158446000Y-65826000D03*
G04 #@! TD*
D22*
G04 #@! TO.P,D4,2*
G04 #@! TO.N,Net-(D4-Pad2)*
X204528600Y-102768400D03*
G04 #@! TO.P,D4,1*
G04 #@! TO.N,/GND*
X202328600Y-102768400D03*
G04 #@! TD*
G04 #@! TO.P,D5,1*
G04 #@! TO.N,/GND*
X112565000Y-102743000D03*
G04 #@! TO.P,D5,2*
G04 #@! TO.N,Net-(D5-Pad2)*
X114765000Y-102743000D03*
G04 #@! TD*
D23*
G04 #@! TO.P,SW1,1*
G04 #@! TO.N,/GND*
X121539000Y-88214200D03*
G04 #@! TO.P,SW1,2*
G04 #@! TO.N,/PUSH_SW*
X115189000Y-90754200D03*
G04 #@! TD*
D16*
G04 #@! TO.P,U4,6*
G04 #@! TO.N,/OUT4*
X180594000Y-58928000D03*
G04 #@! TO.P,U4,5*
G04 #@! TO.N,/OUT3*
X178054000Y-58928000D03*
G04 #@! TO.P,U4,4*
G04 #@! TO.N,/5v*
X175514000Y-58928000D03*
G04 #@! TO.P,U4,3*
G04 #@! TO.N,/M2_encoder_A*
X172974000Y-58928000D03*
G04 #@! TO.P,U4,2*
G04 #@! TO.N,/M2_encoder_B*
X170434000Y-58928000D03*
D15*
G04 #@! TO.P,U4,1*
G04 #@! TO.N,/GND*
X167894000Y-58928000D03*
G04 #@! TD*
G04 #@! TO.P,U5,1*
G04 #@! TO.N,/GND*
X136652000Y-58928000D03*
D16*
G04 #@! TO.P,U5,2*
G04 #@! TO.N,/M1_encoder_B*
X139192000Y-58928000D03*
G04 #@! TO.P,U5,3*
G04 #@! TO.N,/M1_encoder_A*
X141732000Y-58928000D03*
G04 #@! TO.P,U5,4*
G04 #@! TO.N,/5v*
X144272000Y-58928000D03*
G04 #@! TO.P,U5,5*
G04 #@! TO.N,/OUT1*
X146812000Y-58928000D03*
G04 #@! TO.P,U5,6*
G04 #@! TO.N,/OUT2*
X149352000Y-58928000D03*
G04 #@! TD*
D15*
G04 #@! TO.P,MH_SCL1,1*
G04 #@! TO.N,/i2c_SCL*
X158013400Y-99009200D03*
G04 #@! TD*
G04 #@! TO.P,MH_SDA1,1*
G04 #@! TO.N,/i2c_SDA*
X155498800Y-99009200D03*
G04 #@! TD*
D11*
G04 #@! TO.P,R1,1*
G04 #@! TO.N,/GND*
X191249300Y-124663200D03*
D10*
G04 #@! TO.P,R1,2*
G04 #@! TO.N,/Reciever_0*
X191249300Y-109423200D03*
G04 #@! TD*
G04 #@! TO.P,R2,2*
G04 #@! TO.N,/Reciever_1*
X173469300Y-104228900D03*
D11*
G04 #@! TO.P,R2,1*
G04 #@! TO.N,/GND*
X173469300Y-119468900D03*
G04 #@! TD*
G04 #@! TO.P,R3,1*
G04 #@! TO.N,/GND*
X125831600Y-124510800D03*
D10*
G04 #@! TO.P,R3,2*
G04 #@! TO.N,/Reciever_2*
X125831600Y-109270800D03*
G04 #@! TD*
G04 #@! TO.P,R4,2*
G04 #@! TO.N,/Reciever_3*
X143687800Y-104190800D03*
D11*
G04 #@! TO.P,R4,1*
G04 #@! TO.N,/GND*
X143687800Y-119430800D03*
G04 #@! TD*
D10*
G04 #@! TO.P,R5,2*
G04 #@! TO.N,Net-(R5-Pad2)*
X187553600Y-111569500D03*
D11*
G04 #@! TO.P,R5,1*
G04 #@! TO.N,Net-(D0-Pad1)*
X187553600Y-126809500D03*
G04 #@! TD*
G04 #@! TO.P,R6,1*
G04 #@! TO.N,Net-(D1-Pad1)*
X162293300Y-127838200D03*
D10*
G04 #@! TO.P,R6,2*
G04 #@! TO.N,Net-(R6-Pad2)*
X162293300Y-112598200D03*
G04 #@! TD*
D11*
G04 #@! TO.P,R7,1*
G04 #@! TO.N,Net-(D2-Pad1)*
X136956800Y-132803900D03*
D10*
G04 #@! TO.P,R7,2*
G04 #@! TO.N,Net-(R7-Pad2)*
X136956800Y-117563900D03*
G04 #@! TD*
D11*
G04 #@! TO.P,R8,1*
G04 #@! TO.N,Net-(D3-Pad1)*
X151066500Y-125679200D03*
D10*
G04 #@! TO.P,R8,2*
G04 #@! TO.N,Net-(R8-Pad2)*
X151066500Y-110439200D03*
G04 #@! TD*
D11*
G04 #@! TO.P,R9,1*
G04 #@! TO.N,Net-(R13-Pad2)*
X183845200Y-131000500D03*
D10*
G04 #@! TO.P,R9,2*
G04 #@! TO.N,/Emitter_0*
X183845200Y-115760500D03*
G04 #@! TD*
D11*
G04 #@! TO.P,R10,1*
G04 #@! TO.N,Net-(R10-Pad1)*
X169748200Y-121564400D03*
D10*
G04 #@! TO.P,R10,2*
G04 #@! TO.N,/Emitter_1*
X169748200Y-106324400D03*
G04 #@! TD*
D11*
G04 #@! TO.P,R11,1*
G04 #@! TO.N,Net-(R11-Pad1)*
X129552700Y-126593600D03*
D10*
G04 #@! TO.P,R11,2*
G04 #@! TO.N,/Emitter_2*
X129552700Y-111353600D03*
G04 #@! TD*
G04 #@! TO.P,R12,2*
G04 #@! TO.N,/Emitter_3*
X147383500Y-106286300D03*
D11*
G04 #@! TO.P,R12,1*
G04 #@! TO.N,Net-(R12-Pad1)*
X147383500Y-121526300D03*
G04 #@! TD*
G04 #@! TO.P,R13,1*
G04 #@! TO.N,/GND*
X180136800Y-133057900D03*
D10*
G04 #@! TO.P,R13,2*
G04 #@! TO.N,Net-(R13-Pad2)*
X180136800Y-117817900D03*
G04 #@! TD*
G04 #@! TO.P,R14,2*
G04 #@! TO.N,Net-(R10-Pad1)*
X166027100Y-110540800D03*
D11*
G04 #@! TO.P,R14,1*
G04 #@! TO.N,/GND*
X166027100Y-125780800D03*
G04 #@! TD*
D10*
G04 #@! TO.P,R15,2*
G04 #@! TO.N,Net-(R11-Pad1)*
X133261100Y-115506500D03*
D11*
G04 #@! TO.P,R15,1*
G04 #@! TO.N,/GND*
X133261100Y-130746500D03*
G04 #@! TD*
D10*
G04 #@! TO.P,R16,2*
G04 #@! TO.N,Net-(R12-Pad1)*
X154838400Y-112560100D03*
D11*
G04 #@! TO.P,R16,1*
G04 #@! TO.N,/GND*
X154838400Y-127800100D03*
G04 #@! TD*
G04 #@! TO.P,R17,1*
G04 #@! TO.N,/PUSH_SW*
X125044200Y-102666800D03*
D10*
G04 #@! TO.P,R17,2*
G04 #@! TO.N,/3.3v*
X140284200Y-102666800D03*
G04 #@! TD*
G04 #@! TO.P,R18,2*
G04 #@! TO.N,/STATUS_LED_0*
X176809400Y-106514900D03*
D11*
G04 #@! TO.P,R18,1*
G04 #@! TO.N,Net-(D4-Pad2)*
X192049400Y-106514900D03*
G04 #@! TD*
D10*
G04 #@! TO.P,R19,2*
G04 #@! TO.N,/STATUS_LED_1*
X140284200Y-106387900D03*
D11*
G04 #@! TO.P,R19,1*
G04 #@! TO.N,Net-(D5-Pad2)*
X125044200Y-106387900D03*
G04 #@! TD*
D24*
G04 #@! TO.P,T0,3*
G04 #@! TO.N,/GND*
X184264300Y-111950500D03*
D25*
G04 #@! TO.P,T0,1*
G04 #@! TO.N,Net-(R5-Pad2)*
X181724300Y-111950500D03*
G04 #@! TO.P,T0,2*
G04 #@! TO.N,Net-(R13-Pad2)*
X182994300Y-113220500D03*
G04 #@! TD*
G04 #@! TO.P,T1,2*
G04 #@! TO.N,Net-(R10-Pad1)*
X165087300Y-108026200D03*
G04 #@! TO.P,T1,1*
G04 #@! TO.N,Net-(R6-Pad2)*
X163817300Y-106756200D03*
D24*
G04 #@! TO.P,T1,3*
G04 #@! TO.N,/GND*
X166357300Y-106756200D03*
G04 #@! TD*
D25*
G04 #@! TO.P,T2,2*
G04 #@! TO.N,Net-(R11-Pad1)*
X134162800Y-112953800D03*
G04 #@! TO.P,T2,1*
G04 #@! TO.N,Net-(R7-Pad2)*
X132892800Y-111683800D03*
D24*
G04 #@! TO.P,T2,3*
G04 #@! TO.N,/GND*
X135432800Y-111683800D03*
G04 #@! TD*
G04 #@! TO.P,T3,3*
G04 #@! TO.N,/GND*
X153276300Y-106616500D03*
D25*
G04 #@! TO.P,T3,1*
G04 #@! TO.N,Net-(R8-Pad2)*
X150736300Y-106616500D03*
G04 #@! TO.P,T3,2*
G04 #@! TO.N,Net-(R12-Pad1)*
X152006300Y-107886500D03*
G04 #@! TD*
D14*
G04 #@! TO.N,/5v*
G04 #@! TO.C,C3*
G36*
X204614379Y-98103544D02*
X204637434Y-98106963D01*
X204660043Y-98112627D01*
X204681987Y-98120479D01*
X204703057Y-98130444D01*
X204723048Y-98142426D01*
X204741768Y-98156310D01*
X204759038Y-98171962D01*
X204774690Y-98189232D01*
X204788574Y-98207952D01*
X204800556Y-98227943D01*
X204810521Y-98249013D01*
X204818373Y-98270957D01*
X204824037Y-98293566D01*
X204827456Y-98316621D01*
X204828600Y-98339900D01*
X204828600Y-98814900D01*
X204827456Y-98838179D01*
X204824037Y-98861234D01*
X204818373Y-98883843D01*
X204810521Y-98905787D01*
X204800556Y-98926857D01*
X204788574Y-98946848D01*
X204774690Y-98965568D01*
X204759038Y-98982838D01*
X204741768Y-98998490D01*
X204723048Y-99012374D01*
X204703057Y-99024356D01*
X204681987Y-99034321D01*
X204660043Y-99042173D01*
X204637434Y-99047837D01*
X204614379Y-99051256D01*
X204591100Y-99052400D01*
X204016100Y-99052400D01*
X203992821Y-99051256D01*
X203969766Y-99047837D01*
X203947157Y-99042173D01*
X203925213Y-99034321D01*
X203904143Y-99024356D01*
X203884152Y-99012374D01*
X203865432Y-98998490D01*
X203848162Y-98982838D01*
X203832510Y-98965568D01*
X203818626Y-98946848D01*
X203806644Y-98926857D01*
X203796679Y-98905787D01*
X203788827Y-98883843D01*
X203783163Y-98861234D01*
X203779744Y-98838179D01*
X203778600Y-98814900D01*
X203778600Y-98339900D01*
X203779744Y-98316621D01*
X203783163Y-98293566D01*
X203788827Y-98270957D01*
X203796679Y-98249013D01*
X203806644Y-98227943D01*
X203818626Y-98207952D01*
X203832510Y-98189232D01*
X203848162Y-98171962D01*
X203865432Y-98156310D01*
X203884152Y-98142426D01*
X203904143Y-98130444D01*
X203925213Y-98120479D01*
X203947157Y-98112627D01*
X203969766Y-98106963D01*
X203992821Y-98103544D01*
X204016100Y-98102400D01*
X204591100Y-98102400D01*
X204614379Y-98103544D01*
X204614379Y-98103544D01*
G37*
D26*
G04 #@! TD*
G04 #@! TO.P,C3,1*
G04 #@! TO.N,/5v*
X204303600Y-98577400D03*
D14*
G04 #@! TO.N,/GND*
G04 #@! TO.C,C3*
G36*
X202864379Y-98103544D02*
X202887434Y-98106963D01*
X202910043Y-98112627D01*
X202931987Y-98120479D01*
X202953057Y-98130444D01*
X202973048Y-98142426D01*
X202991768Y-98156310D01*
X203009038Y-98171962D01*
X203024690Y-98189232D01*
X203038574Y-98207952D01*
X203050556Y-98227943D01*
X203060521Y-98249013D01*
X203068373Y-98270957D01*
X203074037Y-98293566D01*
X203077456Y-98316621D01*
X203078600Y-98339900D01*
X203078600Y-98814900D01*
X203077456Y-98838179D01*
X203074037Y-98861234D01*
X203068373Y-98883843D01*
X203060521Y-98905787D01*
X203050556Y-98926857D01*
X203038574Y-98946848D01*
X203024690Y-98965568D01*
X203009038Y-98982838D01*
X202991768Y-98998490D01*
X202973048Y-99012374D01*
X202953057Y-99024356D01*
X202931987Y-99034321D01*
X202910043Y-99042173D01*
X202887434Y-99047837D01*
X202864379Y-99051256D01*
X202841100Y-99052400D01*
X202266100Y-99052400D01*
X202242821Y-99051256D01*
X202219766Y-99047837D01*
X202197157Y-99042173D01*
X202175213Y-99034321D01*
X202154143Y-99024356D01*
X202134152Y-99012374D01*
X202115432Y-98998490D01*
X202098162Y-98982838D01*
X202082510Y-98965568D01*
X202068626Y-98946848D01*
X202056644Y-98926857D01*
X202046679Y-98905787D01*
X202038827Y-98883843D01*
X202033163Y-98861234D01*
X202029744Y-98838179D01*
X202028600Y-98814900D01*
X202028600Y-98339900D01*
X202029744Y-98316621D01*
X202033163Y-98293566D01*
X202038827Y-98270957D01*
X202046679Y-98249013D01*
X202056644Y-98227943D01*
X202068626Y-98207952D01*
X202082510Y-98189232D01*
X202098162Y-98171962D01*
X202115432Y-98156310D01*
X202134152Y-98142426D01*
X202154143Y-98130444D01*
X202175213Y-98120479D01*
X202197157Y-98112627D01*
X202219766Y-98106963D01*
X202242821Y-98103544D01*
X202266100Y-98102400D01*
X202841100Y-98102400D01*
X202864379Y-98103544D01*
X202864379Y-98103544D01*
G37*
D26*
G04 #@! TD*
G04 #@! TO.P,C3,2*
G04 #@! TO.N,/GND*
X202553600Y-98577400D03*
D15*
G04 #@! TO.P,GND,1*
G04 #@! TO.N,/GND*
X135813800Y-90932000D03*
G04 #@! TD*
G04 #@! TO.P,BT,1*
G04 #@! TO.N,/vBatt*
X135813800Y-88290400D03*
G04 #@! TD*
D27*
G04 #@! TO.N,/vBatt*
X127508000Y-78232000D03*
D28*
G04 #@! TO.N,/GND*
X112572800Y-102616000D03*
X191795400Y-93370400D03*
X193040000Y-93294200D03*
X194310000Y-93370400D03*
X195630800Y-93294200D03*
X196951600Y-93243400D03*
X196951600Y-92075000D03*
X195580000Y-92049600D03*
X194386200Y-92100400D03*
X193116200Y-92100400D03*
X191795400Y-92125800D03*
X191820800Y-91033600D03*
X193167000Y-91033600D03*
X194487800Y-91033600D03*
X195529200Y-91033600D03*
X196672200Y-91059000D03*
X194310000Y-95859600D03*
X196875400Y-95910400D03*
X191770000Y-95885000D03*
X193065400Y-96672400D03*
X195605400Y-96621600D03*
X194233800Y-97155000D03*
X196926200Y-97104200D03*
X191668400Y-97155000D03*
X195605400Y-97561400D03*
X192989200Y-97586800D03*
D27*
X197002400Y-100558600D03*
X195300600Y-100533200D03*
X197078600Y-102158800D03*
X195249800Y-102311200D03*
X197104000Y-103911400D03*
X195326000Y-104013000D03*
X186461400Y-80772000D03*
G04 #@! TO.N,/3.3v*
X119176800Y-104876600D03*
G04 #@! TO.N,/5v*
X181102000Y-81813400D03*
D28*
G04 #@! TO.N,/M2_forward*
X170688000Y-81280000D03*
D27*
G04 #@! TO.N,/OUT4*
X190500000Y-90170000D03*
D28*
G04 #@! TO.N,Net-(BZ1-Pad1)*
X179628800Y-87071200D03*
X169519600Y-60909200D03*
G04 #@! TO.N,Net-(D5-Pad2)*
X114765000Y-102743000D03*
G04 #@! TD*
D29*
G04 #@! TO.N,/vBatt*
X155956000Y-57725919D02*
X153856081Y-55626000D01*
X155956000Y-58928000D02*
X155956000Y-57725919D01*
X153856081Y-55626000D02*
X128778000Y-55626000D01*
X127508000Y-56896000D02*
X128778000Y-55626000D01*
X127508000Y-78232000D02*
X127508000Y-56896000D01*
D30*
G04 #@! TO.N,/3.3v*
X140284200Y-86283800D02*
X140284200Y-102666800D01*
X142748000Y-83820000D02*
X140284200Y-86283800D01*
X139152830Y-102666800D02*
X137324030Y-104495600D01*
X140284200Y-102666800D02*
X139152830Y-102666800D01*
X119557800Y-104495600D02*
X119176800Y-104876600D01*
X137324030Y-104495600D02*
X119557800Y-104495600D01*
X142955674Y-135793751D02*
X142955674Y-142854074D01*
X143697458Y-135051967D02*
X142955674Y-135793751D01*
X142955674Y-142854074D02*
X146659600Y-146558000D01*
X146659600Y-146558000D02*
X168325800Y-146558000D01*
X172991884Y-141891916D02*
X172991884Y-138003384D01*
X172991884Y-138003384D02*
X172250100Y-137261600D01*
X168325800Y-146558000D02*
X172991884Y-141891916D01*
X127254000Y-128117986D02*
X134061367Y-134925353D01*
X113346989Y-110948045D02*
X116571944Y-114173000D01*
X127254000Y-121793000D02*
X127254000Y-128117986D01*
X119634000Y-114173000D02*
X127254000Y-121793000D01*
X116571944Y-114173000D02*
X119634000Y-114173000D01*
X134061367Y-135051967D02*
X143697458Y-135051967D01*
X134061367Y-134925353D02*
X134061367Y-135051967D01*
X113346989Y-109548045D02*
X113346989Y-110948045D01*
X201164677Y-111016645D02*
X194741800Y-117439522D01*
X201164677Y-109616645D02*
X201164677Y-111016645D01*
X181457600Y-137261600D02*
X172250100Y-137261600D01*
X194741800Y-117439522D02*
X192821478Y-117439522D01*
X192821478Y-117439522D02*
X189255400Y-121005600D01*
X189255400Y-129463800D02*
X181457600Y-137261600D01*
X189255400Y-121005600D02*
X189255400Y-129463800D01*
D31*
G04 #@! TO.N,/Reciever_0*
X203704677Y-108343853D02*
X203352400Y-107991576D01*
X203704677Y-109616645D02*
X203704677Y-108343853D01*
X192680924Y-107991576D02*
X191249300Y-109423200D01*
X203352400Y-107991576D02*
X192680924Y-107991576D01*
X177800000Y-109423200D02*
X191249300Y-109423200D01*
X175405209Y-107028409D02*
X177800000Y-109423200D01*
X165201600Y-101904800D02*
X173940610Y-101904800D01*
X164490400Y-101193600D02*
X165201600Y-101904800D01*
X173940610Y-101904800D02*
X175405209Y-103369399D01*
X164490400Y-98298000D02*
X164490400Y-101193600D01*
X175405209Y-103369399D02*
X175405209Y-107028409D01*
X167348001Y-95440399D02*
X164490400Y-98298000D01*
X167348001Y-94779999D02*
X167348001Y-95440399D01*
X168148000Y-93980000D02*
X167348001Y-94779999D01*
G04 #@! TO.N,/Reciever_1*
X163068000Y-95111370D02*
X162864800Y-95314570D01*
X163068000Y-93980000D02*
X163068000Y-95111370D01*
X162864800Y-95314570D02*
X162864800Y-101752400D01*
X162864800Y-101752400D02*
X164871400Y-103759000D01*
X164871400Y-103759000D02*
X167767000Y-103759000D01*
X167875790Y-103867790D02*
X168409190Y-103867790D01*
X167767000Y-103759000D02*
X167875790Y-103867790D01*
X168770300Y-104228900D02*
X173469300Y-104228900D01*
X168409190Y-103867790D02*
X168770300Y-104228900D01*
X171043600Y-132648625D02*
X173383442Y-134988467D01*
X171043600Y-120218200D02*
X171043600Y-132648625D01*
X169926000Y-119100600D02*
X171043600Y-120218200D01*
X169926000Y-108903570D02*
X169926000Y-119100600D01*
X173469300Y-105360270D02*
X169926000Y-108903570D01*
X173469300Y-104228900D02*
X173469300Y-105360270D01*
G04 #@! TO.N,/Reciever_2*
X115886989Y-109028989D02*
X115443000Y-108585000D01*
X115886989Y-109548045D02*
X115886989Y-109028989D01*
X125831600Y-109270800D02*
X124561600Y-109270800D01*
X124561600Y-109270800D02*
X123063000Y-107772200D01*
X117662834Y-107772200D02*
X115886989Y-109548045D01*
X123063000Y-107772200D02*
X117662834Y-107772200D01*
X140690600Y-108458000D02*
X126644400Y-108458000D01*
X141884400Y-107264200D02*
X140690600Y-108458000D01*
X126644400Y-108458000D02*
X125831600Y-109270800D01*
X140859210Y-100676410D02*
X141884400Y-101701600D01*
X140859210Y-97265790D02*
X140859210Y-100676410D01*
X142443200Y-95681800D02*
X140859210Y-97265790D01*
X141884400Y-101701600D02*
X141884400Y-107264200D01*
X143586200Y-95681800D02*
X142443200Y-95681800D01*
X145288000Y-93980000D02*
X143586200Y-95681800D01*
G04 #@! TO.N,/Reciever_3*
X152283999Y-135180501D02*
X152283999Y-132725999D01*
X151384000Y-136080500D02*
X152283999Y-135180501D01*
X152283999Y-132725999D02*
X141960600Y-122402600D01*
X141960600Y-122402600D02*
X141960600Y-112699800D01*
X143687800Y-110972600D02*
X143687800Y-104190800D01*
X141960600Y-112699800D02*
X143687800Y-110972600D01*
X150368000Y-93980000D02*
X147396200Y-96951800D01*
X147396200Y-96951800D02*
X145719800Y-96951800D01*
X143687800Y-98983800D02*
X143687800Y-104190800D01*
X145719800Y-96951800D02*
X143687800Y-98983800D01*
X146075400Y-136080500D02*
X144830800Y-137325100D01*
X151384000Y-136080500D02*
X146075400Y-136080500D01*
G04 #@! TO.N,/Emitter_0*
X186194700Y-115760500D02*
X183845200Y-115760500D01*
X189306200Y-112649000D02*
X186194700Y-115760500D01*
X189306200Y-110642400D02*
X189306200Y-112649000D01*
X188722000Y-110058200D02*
X189306200Y-110642400D01*
X174955200Y-103555800D02*
X174955200Y-107416600D01*
X174955200Y-107416600D02*
X177596800Y-110058200D01*
X164719000Y-102666800D02*
X174066200Y-102666800D01*
X174066200Y-102666800D02*
X174955200Y-103555800D01*
X163677600Y-101625400D02*
X164719000Y-102666800D01*
X163677600Y-97612200D02*
X163677600Y-101625400D01*
X164808001Y-96481799D02*
X163677600Y-97612200D01*
X177596800Y-110058200D02*
X188722000Y-110058200D01*
X164808001Y-94779999D02*
X164808001Y-96481799D01*
X165608000Y-93980000D02*
X164808001Y-94779999D01*
G04 #@! TO.N,/Emitter_1*
X160528000Y-95111370D02*
X162229800Y-96813170D01*
X160528000Y-93980000D02*
X160528000Y-95111370D01*
X162229800Y-96813170D02*
X162229800Y-102031800D01*
X162229800Y-102031800D02*
X164515800Y-104317800D01*
X167741600Y-104317800D02*
X169748200Y-106324400D01*
X164515800Y-104317800D02*
X167741600Y-104317800D01*
G04 #@! TO.N,/Emitter_3*
X152908000Y-93980000D02*
X148920200Y-97967800D01*
X148920200Y-97967800D02*
X148107400Y-97967800D01*
X147383500Y-98691700D02*
X147383500Y-106286300D01*
X148107400Y-97967800D02*
X147383500Y-98691700D01*
G04 #@! TO.N,/Emitter_2*
X147828000Y-93980000D02*
X145516600Y-96291400D01*
X145516600Y-96291400D02*
X144068800Y-96291400D01*
X142334409Y-107450601D02*
X140877000Y-108908010D01*
X142334410Y-98025790D02*
X142334409Y-107450601D01*
X144068800Y-96291400D02*
X142334410Y-98025790D01*
X131998290Y-108908010D02*
X129552700Y-111353600D01*
X140877000Y-108908010D02*
X131998290Y-108908010D01*
G04 #@! TO.N,/M2_speed*
X160528000Y-79871370D02*
X162952630Y-82296000D01*
X160528000Y-78740000D02*
X160528000Y-79871370D01*
X162952630Y-82296000D02*
X177292000Y-82296000D01*
X177292000Y-82296000D02*
X182880000Y-87884000D01*
X182880000Y-88912430D02*
X184391570Y-90424000D01*
X182880000Y-87884000D02*
X182880000Y-88912430D01*
X184391570Y-90424000D02*
X184404000Y-90424000D01*
X185420000Y-91440000D02*
X185420000Y-94996000D01*
X184404000Y-90424000D02*
X185420000Y-91440000D01*
G04 #@! TO.N,/M1_speed*
X163068000Y-78740000D02*
X165608000Y-76200000D01*
X178944410Y-76200000D02*
X188088410Y-85344000D01*
X165608000Y-76200000D02*
X178944410Y-76200000D01*
X203200000Y-86287800D02*
X203200000Y-87376000D01*
X202256200Y-85344000D02*
X203200000Y-86287800D01*
X188088410Y-85344000D02*
X202256200Y-85344000D01*
D30*
G04 #@! TO.N,/5v*
X158496000Y-58928000D02*
X156718000Y-60706000D01*
X146050000Y-60706000D02*
X144272000Y-58928000D01*
X156718000Y-60706000D02*
X146050000Y-60706000D01*
X185420000Y-86131400D02*
X181102000Y-81813400D01*
X185420000Y-87376000D02*
X185420000Y-86131400D01*
D31*
X204303600Y-96099600D02*
X203200000Y-94996000D01*
X204303600Y-98577400D02*
X204303600Y-96099600D01*
G04 #@! TO.N,/M1_forward*
X178873991Y-76765991D02*
X187960000Y-85852000D01*
X172662009Y-76765991D02*
X178873991Y-76765991D01*
X170688000Y-78740000D02*
X172662009Y-76765991D01*
X199136000Y-85852000D02*
X200660000Y-87376000D01*
X187960000Y-85852000D02*
X199136000Y-85852000D01*
G04 #@! TO.N,/M1_backward*
X187960000Y-86868000D02*
X187960000Y-87376000D01*
X178308000Y-77216000D02*
X187960000Y-86868000D01*
X174752000Y-77216000D02*
X178308000Y-77216000D01*
X173228000Y-78740000D02*
X174752000Y-77216000D01*
G04 #@! TO.N,/M2_forward*
X187960000Y-90932000D02*
X187960000Y-94996000D01*
X186436000Y-89408000D02*
X187960000Y-90932000D01*
X184011980Y-89408000D02*
X186436000Y-89408000D01*
X183445990Y-87433990D02*
X183445990Y-88842010D01*
X183445990Y-88842010D02*
X184011980Y-89408000D01*
X177292000Y-81280000D02*
X183445990Y-87433990D01*
X170688000Y-81280000D02*
X177292000Y-81280000D01*
D30*
G04 #@! TO.N,/OUT4*
X190500000Y-90170000D02*
X197104000Y-90170000D01*
X198120000Y-91186000D02*
X198120000Y-94996000D01*
X197104000Y-90170000D02*
X198120000Y-91186000D01*
D31*
G04 #@! TO.N,/M2_backward*
X200660000Y-91948000D02*
X200660000Y-94996000D01*
X197612000Y-88900000D02*
X200660000Y-91948000D01*
X165608000Y-78740000D02*
X167132000Y-80264000D01*
X183896000Y-86868000D02*
X183896000Y-88392000D01*
X183896000Y-88392000D02*
X184404000Y-88900000D01*
X177292000Y-80264000D02*
X183896000Y-86868000D01*
X184404000Y-88900000D02*
X197612000Y-88900000D01*
X167132000Y-80264000D02*
X177292000Y-80264000D01*
G04 #@! TO.N,/M2_encoder_B*
X164592000Y-65532000D02*
X167640000Y-65532000D01*
X167640000Y-65532000D02*
X170434000Y-62738000D01*
X170434000Y-62738000D02*
X170434000Y-58928000D01*
X155448000Y-78740000D02*
X155448000Y-77470000D01*
X155448000Y-77470000D02*
X160528000Y-72390000D01*
X160528000Y-69596000D02*
X164592000Y-65532000D01*
X160528000Y-72390000D02*
X160528000Y-69596000D01*
G04 #@! TO.N,/M2_encoder_A*
X172974000Y-60834410D02*
X172974000Y-58928000D01*
X167768410Y-66040000D02*
X172974000Y-60834410D01*
X164720410Y-66040000D02*
X167768410Y-66040000D01*
X161036000Y-74560630D02*
X161036000Y-69724410D01*
X161036000Y-69724410D02*
X164720410Y-66040000D01*
X157988000Y-77608630D02*
X161036000Y-74560630D01*
X157988000Y-78740000D02*
X157988000Y-77608630D01*
G04 #@! TO.N,/M1_encoder_A*
X150425990Y-76257990D02*
X142426400Y-76257990D01*
X152908000Y-78740000D02*
X150425990Y-76257990D01*
X142426400Y-76257990D02*
X139700000Y-73531590D01*
X139700000Y-60960000D02*
X141732000Y-58928000D01*
X139700000Y-73531590D02*
X139700000Y-60960000D01*
G04 #@! TO.N,/M1_encoder_B*
X150368000Y-78740000D02*
X148336000Y-76708000D01*
X148336000Y-76708000D02*
X142240000Y-76708000D01*
X139192000Y-73660000D02*
X139192000Y-58928000D01*
X142240000Y-76708000D02*
X139192000Y-73660000D01*
G04 #@! TO.N,Net-(BZ1-Pad1)*
X192049400Y-102793800D02*
X189382400Y-102793800D01*
X189382400Y-102793800D02*
X183032400Y-96443800D01*
X183032400Y-96443800D02*
X183032400Y-91617800D01*
X179628800Y-88214200D02*
X179628800Y-87071200D01*
X183032400Y-91617800D02*
X179628800Y-88214200D01*
X169119601Y-61309199D02*
X169119601Y-61334599D01*
X169519600Y-60909200D02*
X169119601Y-61309199D01*
X169119601Y-61334599D02*
X165658800Y-64795400D01*
X159476600Y-64795400D02*
X158446000Y-65826000D01*
X165658800Y-64795400D02*
X159476600Y-64795400D01*
G04 #@! TO.N,Net-(D4-Pad2)*
X192049400Y-106514900D02*
X202323700Y-106514900D01*
X204528600Y-104310000D02*
X204528600Y-102768400D01*
X202323700Y-106514900D02*
X204528600Y-104310000D01*
G04 #@! TO.N,Net-(D5-Pad2)*
X125044200Y-106387900D02*
X115455700Y-106387900D01*
X114765000Y-105697200D02*
X114765000Y-102743000D01*
X115455700Y-106387900D02*
X114765000Y-105697200D01*
G04 #@! TO.N,/i2c_SCL*
X158013400Y-94005400D02*
X157988000Y-93980000D01*
X158013400Y-99009200D02*
X158013400Y-94005400D01*
G04 #@! TO.N,/i2c_SDA*
X155498800Y-94030800D02*
X155448000Y-93980000D01*
X155498800Y-99009200D02*
X155498800Y-94030800D01*
G04 #@! TO.N,/STATUS_LED_0*
X179235100Y-108940600D02*
X176809400Y-106514900D01*
X189407800Y-107823000D02*
X188290200Y-108940600D01*
X191211200Y-105003600D02*
X189407800Y-106807000D01*
X192608200Y-105003600D02*
X191211200Y-105003600D01*
X188290200Y-108940600D02*
X179235100Y-108940600D01*
X193649600Y-103962200D02*
X192608200Y-105003600D01*
X192913000Y-101269800D02*
X193649600Y-102006400D01*
X188747400Y-101269800D02*
X192913000Y-101269800D01*
X183642000Y-96164400D02*
X188747400Y-101269800D01*
X183642000Y-91186000D02*
X183642000Y-96164400D01*
X193649600Y-102006400D02*
X193649600Y-103962200D01*
X159766000Y-80264000D02*
X162560000Y-83058000D01*
X147828000Y-78740000D02*
X149352000Y-80264000D01*
X182118000Y-88138000D02*
X182118000Y-89662000D01*
X189407800Y-106807000D02*
X189407800Y-107823000D01*
X182118000Y-89662000D02*
X183642000Y-91186000D01*
X177038000Y-83058000D02*
X182118000Y-88138000D01*
X162560000Y-83058000D02*
X177038000Y-83058000D01*
X149352000Y-80264000D02*
X159766000Y-80264000D01*
G04 #@! TO.N,/STATUS_LED_1*
X138849100Y-107823000D02*
X140284200Y-106387900D01*
X123013610Y-107086400D02*
X123750210Y-107823000D01*
X123750210Y-107823000D02*
X138849100Y-107823000D01*
X113588800Y-107086400D02*
X123013610Y-107086400D01*
X111525010Y-102356181D02*
X111604371Y-105088428D01*
X111605667Y-105103267D02*
X113588800Y-107086400D01*
X145288000Y-78740000D02*
X144018000Y-77470000D01*
X132588000Y-78994000D02*
X132588000Y-80518000D01*
X144018000Y-77470000D02*
X134112000Y-77470000D01*
X111604371Y-105088428D02*
X111605667Y-105103267D01*
X111525010Y-86086990D02*
X111525010Y-102356181D01*
X128016000Y-85090000D02*
X112522000Y-85090000D01*
X132588000Y-80518000D02*
X128016000Y-85090000D01*
X112522000Y-85090000D02*
X111525010Y-86086990D01*
X134112000Y-77470000D02*
X132588000Y-78994000D01*
G04 #@! TO.N,/PUSH_SW*
X142748000Y-78740000D02*
X133858000Y-78740000D01*
X133858000Y-78740000D02*
X133350000Y-79248000D01*
X133350000Y-79248000D02*
X133350000Y-80772000D01*
X133350000Y-80772000D02*
X128016000Y-86106000D01*
X128016000Y-86106000D02*
X124206000Y-86106000D01*
X124206000Y-86106000D02*
X112979200Y-86106000D01*
X112979200Y-86106000D02*
X112344200Y-86741000D01*
X112344200Y-89535000D02*
X112344200Y-87299800D01*
X113233200Y-90424000D02*
X112344200Y-89535000D01*
X112344200Y-87299800D02*
X112344200Y-87452200D01*
X112344200Y-86741000D02*
X112344200Y-87299800D01*
X123825000Y-101447600D02*
X125044200Y-102666800D01*
X113233200Y-90424000D02*
X112141000Y-91516200D01*
X123164600Y-100787200D02*
X123825000Y-101447600D01*
X112598200Y-100787200D02*
X123164600Y-100787200D01*
X112141000Y-100330000D02*
X112598200Y-100787200D01*
X112141000Y-91516200D02*
X112141000Y-100330000D01*
X113563400Y-90754200D02*
X115189000Y-90754200D01*
X113233200Y-90424000D02*
X113563400Y-90754200D01*
G04 #@! TO.N,Net-(D0-Pad1)*
X193116200Y-109601000D02*
X196151500Y-109601000D01*
X187553600Y-115163600D02*
X193116200Y-109601000D01*
X187553600Y-126809500D02*
X187553600Y-115163600D01*
G04 #@! TO.N,Net-(D1-Pad1)*
X162293300Y-139814300D02*
X164249100Y-141770100D01*
X164249100Y-141770100D02*
X170027600Y-141770100D01*
X162293300Y-127838200D02*
X162293300Y-139814300D01*
G04 #@! TO.N,Net-(D2-Pad1)*
X132905500Y-132803900D02*
X136956800Y-132803900D01*
X127914400Y-118719600D02*
X127914400Y-127812800D01*
X125806200Y-116611400D02*
X127914400Y-118719600D01*
X124287900Y-116611400D02*
X125806200Y-116611400D01*
X127914400Y-127812800D02*
X132905500Y-132803900D01*
X118364000Y-110687500D02*
X124287900Y-116611400D01*
X118364000Y-109537500D02*
X118364000Y-110687500D01*
G04 #@! TO.N,Net-(D3-Pad1)*
X153268784Y-137561216D02*
X153268784Y-132135984D01*
X152527000Y-138303000D02*
X153268784Y-137561216D01*
X151066500Y-129933700D02*
X151066500Y-125679200D01*
X153268784Y-132135984D02*
X151066500Y-129933700D01*
X147218400Y-138303000D02*
X145973800Y-139547600D01*
X152527000Y-138303000D02*
X147218400Y-138303000D01*
G04 #@! TO.N,Net-(R5-Pad2)*
X182374299Y-111300501D02*
X181724300Y-111950500D01*
X182905299Y-110769501D02*
X182374299Y-111300501D01*
X186753601Y-110769501D02*
X182905299Y-110769501D01*
X187553600Y-111569500D02*
X186753601Y-110769501D01*
G04 #@! TO.N,Net-(R6-Pad2)*
X162293300Y-108280200D02*
X163817300Y-106756200D01*
X162293300Y-112598200D02*
X162293300Y-108280200D01*
G04 #@! TO.N,Net-(R7-Pad2)*
X136956800Y-117563900D02*
X136956800Y-110744000D01*
X136956800Y-110744000D02*
X136296400Y-110083600D01*
X134493000Y-110083600D02*
X132892800Y-111683800D01*
X136296400Y-110083600D02*
X134493000Y-110083600D01*
G04 #@! TO.N,Net-(R8-Pad2)*
X150266501Y-109639201D02*
X151066500Y-110439200D01*
X150086301Y-109459001D02*
X150266501Y-109639201D01*
X150086301Y-107266499D02*
X150086301Y-109459001D01*
X150736300Y-106616500D02*
X150086301Y-107266499D01*
G04 #@! TO.N,Net-(R13-Pad2)*
X182994300Y-113220500D02*
X181419500Y-113220500D01*
X180136800Y-114503200D02*
X180136800Y-117817900D01*
X181419500Y-113220500D02*
X180136800Y-114503200D01*
X180136800Y-127292100D02*
X183845200Y-131000500D01*
X180136800Y-117817900D02*
X180136800Y-127292100D01*
G04 #@! TO.N,Net-(R10-Pad1)*
X165087300Y-109601000D02*
X166027100Y-110540800D01*
X165087300Y-108026200D02*
X165087300Y-109601000D01*
X166027100Y-117843300D02*
X169748200Y-121564400D01*
X166027100Y-110540800D02*
X166027100Y-117843300D01*
G04 #@! TO.N,Net-(R11-Pad1)*
X129552700Y-119214900D02*
X133261100Y-115506500D01*
X129552700Y-126593600D02*
X129552700Y-119214900D01*
X133261100Y-113855500D02*
X134162800Y-112953800D01*
X133261100Y-115506500D02*
X133261100Y-113855500D01*
G04 #@! TO.N,Net-(R12-Pad1)*
X152656299Y-108536499D02*
X153723099Y-108536499D01*
X152006300Y-107886500D02*
X152656299Y-108536499D01*
X154838400Y-109651800D02*
X154838400Y-112560100D01*
X153723099Y-108536499D02*
X154838400Y-109651800D01*
X154838400Y-115202770D02*
X154838400Y-113691470D01*
X148514870Y-121526300D02*
X154838400Y-115202770D01*
X154838400Y-113691470D02*
X154838400Y-112560100D01*
X147383500Y-121526300D02*
X148514870Y-121526300D01*
G04 #@! TD*
D32*
G04 #@! TO.N,/GND*
G36*
X202835170Y-110917955D02*
X203399347Y-111151645D01*
X204010007Y-111151645D01*
X204337306Y-111016073D01*
X203866094Y-113260440D01*
X203163502Y-115854060D01*
X202312781Y-118402919D01*
X201316741Y-120898601D01*
X200178702Y-123332782D01*
X198902412Y-125697450D01*
X197492138Y-127984697D01*
X195952529Y-130186987D01*
X194288699Y-132296997D01*
X192506169Y-134307733D01*
X190610858Y-136212515D01*
X188609020Y-138005055D01*
X186507341Y-139679372D01*
X184312753Y-141229939D01*
X182032536Y-142651613D01*
X179674279Y-143939661D01*
X177245791Y-145089822D01*
X174755111Y-146098286D01*
X172210522Y-146961701D01*
X169620436Y-147677211D01*
X166993461Y-148242438D01*
X164338303Y-148655508D01*
X161663784Y-148915051D01*
X158978747Y-149020209D01*
X156292117Y-148970629D01*
X153612788Y-148766479D01*
X150949649Y-148408433D01*
X148311558Y-147897685D01*
X146341048Y-147396974D01*
X146572435Y-147443000D01*
X146572439Y-147443000D01*
X146659599Y-147460337D01*
X146746759Y-147443000D01*
X168238639Y-147443000D01*
X168325800Y-147460337D01*
X168412961Y-147443000D01*
X168412965Y-147443000D01*
X168671110Y-147391652D01*
X168963849Y-147196049D01*
X169013225Y-147122153D01*
X173556040Y-142579339D01*
X173629933Y-142529965D01*
X173689351Y-142441041D01*
X173812088Y-142257352D01*
X173825536Y-142237226D01*
X173876884Y-141979081D01*
X173876884Y-141979077D01*
X173894221Y-141891917D01*
X173876884Y-141804757D01*
X173876884Y-138146600D01*
X181370439Y-138146600D01*
X181457600Y-138163937D01*
X181544761Y-138146600D01*
X181544765Y-138146600D01*
X181802910Y-138095252D01*
X182095649Y-137899649D01*
X182145025Y-137825753D01*
X189819556Y-130151223D01*
X189893449Y-130101849D01*
X189955789Y-130008552D01*
X190089052Y-129809110D01*
X190094053Y-129783966D01*
X190140400Y-129550965D01*
X190140400Y-129550961D01*
X190157737Y-129463800D01*
X190140400Y-129376639D01*
X190140400Y-125670945D01*
X190421161Y-125670945D01*
X190495295Y-125917064D01*
X191032523Y-126110165D01*
X191602754Y-126082978D01*
X192003305Y-125917064D01*
X192077439Y-125670945D01*
X191249300Y-124842805D01*
X190421161Y-125670945D01*
X190140400Y-125670945D01*
X190140400Y-125460870D01*
X190241555Y-125491339D01*
X191069695Y-124663200D01*
X191428905Y-124663200D01*
X192257045Y-125491339D01*
X192503164Y-125417205D01*
X192696265Y-124879977D01*
X192669078Y-124309746D01*
X192503164Y-123909195D01*
X192257045Y-123835061D01*
X191428905Y-124663200D01*
X191069695Y-124663200D01*
X190241555Y-123835061D01*
X190140400Y-123865530D01*
X190140400Y-123655455D01*
X190421161Y-123655455D01*
X191249300Y-124483595D01*
X192077439Y-123655455D01*
X192003305Y-123409336D01*
X191466077Y-123216235D01*
X190895846Y-123243422D01*
X190495295Y-123409336D01*
X190421161Y-123655455D01*
X190140400Y-123655455D01*
X190140400Y-121372178D01*
X193188057Y-118324522D01*
X194654639Y-118324522D01*
X194741800Y-118341859D01*
X194828961Y-118324522D01*
X194828965Y-118324522D01*
X195087110Y-118273174D01*
X195379849Y-118077571D01*
X195429225Y-118003675D01*
X201728833Y-111704068D01*
X201802726Y-111654694D01*
X201855725Y-111575377D01*
X201998329Y-111361955D01*
X202003824Y-111334329D01*
X202037688Y-111164085D01*
X202064677Y-111164085D01*
X202312442Y-111114802D01*
X202522486Y-110974454D01*
X202662834Y-110764410D01*
X202665952Y-110748737D01*
X202835170Y-110917955D01*
X202835170Y-110917955D01*
G37*
X202835170Y-110917955D02*
X203399347Y-111151645D01*
X204010007Y-111151645D01*
X204337306Y-111016073D01*
X203866094Y-113260440D01*
X203163502Y-115854060D01*
X202312781Y-118402919D01*
X201316741Y-120898601D01*
X200178702Y-123332782D01*
X198902412Y-125697450D01*
X197492138Y-127984697D01*
X195952529Y-130186987D01*
X194288699Y-132296997D01*
X192506169Y-134307733D01*
X190610858Y-136212515D01*
X188609020Y-138005055D01*
X186507341Y-139679372D01*
X184312753Y-141229939D01*
X182032536Y-142651613D01*
X179674279Y-143939661D01*
X177245791Y-145089822D01*
X174755111Y-146098286D01*
X172210522Y-146961701D01*
X169620436Y-147677211D01*
X166993461Y-148242438D01*
X164338303Y-148655508D01*
X161663784Y-148915051D01*
X158978747Y-149020209D01*
X156292117Y-148970629D01*
X153612788Y-148766479D01*
X150949649Y-148408433D01*
X148311558Y-147897685D01*
X146341048Y-147396974D01*
X146572435Y-147443000D01*
X146572439Y-147443000D01*
X146659599Y-147460337D01*
X146746759Y-147443000D01*
X168238639Y-147443000D01*
X168325800Y-147460337D01*
X168412961Y-147443000D01*
X168412965Y-147443000D01*
X168671110Y-147391652D01*
X168963849Y-147196049D01*
X169013225Y-147122153D01*
X173556040Y-142579339D01*
X173629933Y-142529965D01*
X173689351Y-142441041D01*
X173812088Y-142257352D01*
X173825536Y-142237226D01*
X173876884Y-141979081D01*
X173876884Y-141979077D01*
X173894221Y-141891917D01*
X173876884Y-141804757D01*
X173876884Y-138146600D01*
X181370439Y-138146600D01*
X181457600Y-138163937D01*
X181544761Y-138146600D01*
X181544765Y-138146600D01*
X181802910Y-138095252D01*
X182095649Y-137899649D01*
X182145025Y-137825753D01*
X189819556Y-130151223D01*
X189893449Y-130101849D01*
X189955789Y-130008552D01*
X190089052Y-129809110D01*
X190094053Y-129783966D01*
X190140400Y-129550965D01*
X190140400Y-129550961D01*
X190157737Y-129463800D01*
X190140400Y-129376639D01*
X190140400Y-125670945D01*
X190421161Y-125670945D01*
X190495295Y-125917064D01*
X191032523Y-126110165D01*
X191602754Y-126082978D01*
X192003305Y-125917064D01*
X192077439Y-125670945D01*
X191249300Y-124842805D01*
X190421161Y-125670945D01*
X190140400Y-125670945D01*
X190140400Y-125460870D01*
X190241555Y-125491339D01*
X191069695Y-124663200D01*
X191428905Y-124663200D01*
X192257045Y-125491339D01*
X192503164Y-125417205D01*
X192696265Y-124879977D01*
X192669078Y-124309746D01*
X192503164Y-123909195D01*
X192257045Y-123835061D01*
X191428905Y-124663200D01*
X191069695Y-124663200D01*
X190241555Y-123835061D01*
X190140400Y-123865530D01*
X190140400Y-123655455D01*
X190421161Y-123655455D01*
X191249300Y-124483595D01*
X192077439Y-123655455D01*
X192003305Y-123409336D01*
X191466077Y-123216235D01*
X190895846Y-123243422D01*
X190495295Y-123409336D01*
X190421161Y-123655455D01*
X190140400Y-123655455D01*
X190140400Y-121372178D01*
X193188057Y-118324522D01*
X194654639Y-118324522D01*
X194741800Y-118341859D01*
X194828961Y-118324522D01*
X194828965Y-118324522D01*
X195087110Y-118273174D01*
X195379849Y-118077571D01*
X195429225Y-118003675D01*
X201728833Y-111704068D01*
X201802726Y-111654694D01*
X201855725Y-111575377D01*
X201998329Y-111361955D01*
X202003824Y-111334329D01*
X202037688Y-111164085D01*
X202064677Y-111164085D01*
X202312442Y-111114802D01*
X202522486Y-110974454D01*
X202662834Y-110764410D01*
X202665952Y-110748737D01*
X202835170Y-110917955D01*
G36*
X112782834Y-111635468D02*
X115884521Y-114737156D01*
X115933895Y-114811049D01*
X116007788Y-114860423D01*
X116007789Y-114860424D01*
X116017725Y-114867063D01*
X116226634Y-115006652D01*
X116484779Y-115058000D01*
X116484783Y-115058000D01*
X116571943Y-115075337D01*
X116659103Y-115058000D01*
X119267422Y-115058000D01*
X126369000Y-122159579D01*
X126369000Y-123179080D01*
X126048377Y-123063835D01*
X125478146Y-123091022D01*
X125077595Y-123256936D01*
X125003461Y-123503055D01*
X125831600Y-124331195D01*
X125845742Y-124317052D01*
X126025348Y-124496658D01*
X126011205Y-124510800D01*
X126025348Y-124524943D01*
X125845743Y-124704548D01*
X125831600Y-124690405D01*
X125003461Y-125518545D01*
X125077595Y-125764664D01*
X125614823Y-125957765D01*
X126185054Y-125930578D01*
X126369001Y-125854385D01*
X126369001Y-128030821D01*
X126351663Y-128117986D01*
X126420348Y-128463295D01*
X126566576Y-128682140D01*
X126566578Y-128682142D01*
X126615952Y-128756035D01*
X126689845Y-128805409D01*
X133214307Y-135329872D01*
X133227715Y-135397277D01*
X133423318Y-135690016D01*
X133716057Y-135885619D01*
X133974202Y-135936967D01*
X133974203Y-135936967D01*
X134061367Y-135954305D01*
X134148532Y-135936967D01*
X142070674Y-135936967D01*
X142070675Y-142766909D01*
X142053337Y-142854074D01*
X142122022Y-143199383D01*
X142268250Y-143418228D01*
X142268252Y-143418230D01*
X142317626Y-143492123D01*
X142391519Y-143541497D01*
X145972177Y-147122156D01*
X146021551Y-147196049D01*
X146095444Y-147245423D01*
X146095445Y-147245424D01*
X146138950Y-147274493D01*
X146310724Y-147389269D01*
X145707225Y-147235919D01*
X143145297Y-146425334D01*
X140634290Y-145468621D01*
X138182520Y-144368952D01*
X135798124Y-143129975D01*
X133488978Y-141755786D01*
X131262783Y-140250960D01*
X129126904Y-138620483D01*
X127088412Y-136869750D01*
X125154089Y-135004586D01*
X123330333Y-133031158D01*
X121623214Y-130956040D01*
X120038363Y-128786072D01*
X118581061Y-126528486D01*
X117314658Y-124294023D01*
X124384635Y-124294023D01*
X124411822Y-124864254D01*
X124577736Y-125264805D01*
X124823855Y-125338939D01*
X125651995Y-124510800D01*
X124823855Y-123682661D01*
X124577736Y-123756795D01*
X124384635Y-124294023D01*
X117314658Y-124294023D01*
X117256125Y-124190748D01*
X116067958Y-121780617D01*
X115020500Y-119306094D01*
X114117217Y-116775364D01*
X113361112Y-114196836D01*
X112764998Y-111623550D01*
X112782834Y-111635468D01*
X112782834Y-111635468D01*
G37*
X112782834Y-111635468D02*
X115884521Y-114737156D01*
X115933895Y-114811049D01*
X116007788Y-114860423D01*
X116007789Y-114860424D01*
X116017725Y-114867063D01*
X116226634Y-115006652D01*
X116484779Y-115058000D01*
X116484783Y-115058000D01*
X116571943Y-115075337D01*
X116659103Y-115058000D01*
X119267422Y-115058000D01*
X126369000Y-122159579D01*
X126369000Y-123179080D01*
X126048377Y-123063835D01*
X125478146Y-123091022D01*
X125077595Y-123256936D01*
X125003461Y-123503055D01*
X125831600Y-124331195D01*
X125845742Y-124317052D01*
X126025348Y-124496658D01*
X126011205Y-124510800D01*
X126025348Y-124524943D01*
X125845743Y-124704548D01*
X125831600Y-124690405D01*
X125003461Y-125518545D01*
X125077595Y-125764664D01*
X125614823Y-125957765D01*
X126185054Y-125930578D01*
X126369001Y-125854385D01*
X126369001Y-128030821D01*
X126351663Y-128117986D01*
X126420348Y-128463295D01*
X126566576Y-128682140D01*
X126566578Y-128682142D01*
X126615952Y-128756035D01*
X126689845Y-128805409D01*
X133214307Y-135329872D01*
X133227715Y-135397277D01*
X133423318Y-135690016D01*
X133716057Y-135885619D01*
X133974202Y-135936967D01*
X133974203Y-135936967D01*
X134061367Y-135954305D01*
X134148532Y-135936967D01*
X142070674Y-135936967D01*
X142070675Y-142766909D01*
X142053337Y-142854074D01*
X142122022Y-143199383D01*
X142268250Y-143418228D01*
X142268252Y-143418230D01*
X142317626Y-143492123D01*
X142391519Y-143541497D01*
X145972177Y-147122156D01*
X146021551Y-147196049D01*
X146095444Y-147245423D01*
X146095445Y-147245424D01*
X146138950Y-147274493D01*
X146310724Y-147389269D01*
X145707225Y-147235919D01*
X143145297Y-146425334D01*
X140634290Y-145468621D01*
X138182520Y-144368952D01*
X135798124Y-143129975D01*
X133488978Y-141755786D01*
X131262783Y-140250960D01*
X129126904Y-138620483D01*
X127088412Y-136869750D01*
X125154089Y-135004586D01*
X123330333Y-133031158D01*
X121623214Y-130956040D01*
X120038363Y-128786072D01*
X118581061Y-126528486D01*
X117314658Y-124294023D01*
X124384635Y-124294023D01*
X124411822Y-124864254D01*
X124577736Y-125264805D01*
X124823855Y-125338939D01*
X125651995Y-124510800D01*
X124823855Y-123682661D01*
X124577736Y-123756795D01*
X124384635Y-124294023D01*
X117314658Y-124294023D01*
X117256125Y-124190748D01*
X116067958Y-121780617D01*
X115020500Y-119306094D01*
X114117217Y-116775364D01*
X113361112Y-114196836D01*
X112764998Y-111623550D01*
X112782834Y-111635468D01*
G36*
X159311466Y-94792862D02*
X159715138Y-95196534D01*
X159774983Y-95221323D01*
X159812097Y-95407907D01*
X159924077Y-95575496D01*
X159980072Y-95659299D01*
X160043528Y-95701699D01*
X161469800Y-97127972D01*
X161469801Y-101956948D01*
X161454912Y-102031800D01*
X161469801Y-102106652D01*
X161471027Y-102112814D01*
X161513897Y-102328337D01*
X161620814Y-102488349D01*
X161681872Y-102579729D01*
X161745328Y-102622129D01*
X163925470Y-104802272D01*
X163967871Y-104865729D01*
X164219263Y-105033704D01*
X164440948Y-105077800D01*
X164440952Y-105077800D01*
X164515799Y-105092688D01*
X164590646Y-105077800D01*
X167426799Y-105077800D01*
X168349512Y-106000514D01*
X168285087Y-106324400D01*
X168396460Y-106884309D01*
X168713623Y-107358977D01*
X169188291Y-107676140D01*
X169606867Y-107759400D01*
X169889533Y-107759400D01*
X170021648Y-107733121D01*
X169441530Y-108313239D01*
X169378071Y-108355641D01*
X169210096Y-108607034D01*
X169166000Y-108828719D01*
X169166000Y-108828723D01*
X169151112Y-108903570D01*
X169166000Y-108978417D01*
X169166001Y-119025748D01*
X169151112Y-119100600D01*
X169210097Y-119397137D01*
X169332721Y-119580656D01*
X169378072Y-119648529D01*
X169441528Y-119690929D01*
X169879999Y-120129400D01*
X169462761Y-120129400D01*
X169409898Y-120151296D01*
X166787100Y-117528499D01*
X166787100Y-111758843D01*
X167061677Y-111575377D01*
X167378840Y-111100709D01*
X167490213Y-110540800D01*
X167378840Y-109980891D01*
X167061677Y-109506223D01*
X166587009Y-109189060D01*
X166168433Y-109105800D01*
X165885767Y-109105800D01*
X165847300Y-109113452D01*
X165847300Y-109083465D01*
X166176671Y-108754094D01*
X166372300Y-108281802D01*
X166372300Y-108041200D01*
X166484302Y-108041200D01*
X166484302Y-107882452D01*
X166643050Y-108041200D01*
X167133610Y-108041200D01*
X167366999Y-107944527D01*
X167545627Y-107765898D01*
X167642300Y-107532509D01*
X167642300Y-107041950D01*
X167483550Y-106883200D01*
X166484300Y-106883200D01*
X166484300Y-106903200D01*
X166230300Y-106903200D01*
X166230300Y-106883200D01*
X166210300Y-106883200D01*
X166210300Y-106629200D01*
X166230300Y-106629200D01*
X166230300Y-105629950D01*
X166484300Y-105629950D01*
X166484300Y-106629200D01*
X167483550Y-106629200D01*
X167642300Y-106470450D01*
X167642300Y-105979891D01*
X167545627Y-105746502D01*
X167366999Y-105567873D01*
X167133610Y-105471200D01*
X166643050Y-105471200D01*
X166484300Y-105629950D01*
X166230300Y-105629950D01*
X166071550Y-105471200D01*
X165580990Y-105471200D01*
X165347601Y-105567873D01*
X165168973Y-105746502D01*
X165072300Y-105979891D01*
X165072300Y-106428171D01*
X164906671Y-106028306D01*
X164545194Y-105666829D01*
X164072902Y-105471200D01*
X163561698Y-105471200D01*
X163089406Y-105666829D01*
X162727929Y-106028306D01*
X162532300Y-106500598D01*
X162532300Y-106966398D01*
X161808828Y-107689871D01*
X161745372Y-107732271D01*
X161702972Y-107795727D01*
X161702971Y-107795728D01*
X161597701Y-107953276D01*
X161577397Y-107983663D01*
X161550996Y-108116392D01*
X161518412Y-108280200D01*
X161533301Y-108355052D01*
X161533300Y-111380156D01*
X161258723Y-111563623D01*
X160941560Y-112038291D01*
X160830187Y-112598200D01*
X160941560Y-113158109D01*
X161258723Y-113632777D01*
X161733391Y-113949940D01*
X162151967Y-114033200D01*
X162434633Y-114033200D01*
X162853209Y-113949940D01*
X163327877Y-113632777D01*
X163645040Y-113158109D01*
X163756413Y-112598200D01*
X163645040Y-112038291D01*
X163327877Y-111563623D01*
X163053300Y-111380157D01*
X163053300Y-108595001D01*
X163607102Y-108041200D01*
X163802300Y-108041200D01*
X163802300Y-108281802D01*
X163997929Y-108754094D01*
X164327301Y-109083466D01*
X164327301Y-109526149D01*
X164312412Y-109601000D01*
X164371397Y-109897537D01*
X164491556Y-110077367D01*
X164539372Y-110148929D01*
X164602828Y-110191329D01*
X164628412Y-110216913D01*
X164563987Y-110540800D01*
X164675360Y-111100709D01*
X164992523Y-111575377D01*
X165267100Y-111758844D01*
X165267101Y-117768448D01*
X165252212Y-117843300D01*
X165267101Y-117918152D01*
X165278854Y-117977239D01*
X165311197Y-118139837D01*
X165434600Y-118324522D01*
X165479172Y-118391229D01*
X165542628Y-118433629D01*
X168335096Y-121226098D01*
X168313200Y-121278961D01*
X168313200Y-121849839D01*
X168531666Y-122377262D01*
X168935338Y-122780934D01*
X169462761Y-122999400D01*
X170033639Y-122999400D01*
X170283600Y-122895863D01*
X170283601Y-132573773D01*
X170268712Y-132648625D01*
X170283601Y-132723477D01*
X170305696Y-132834555D01*
X170327697Y-132945162D01*
X170448126Y-133125396D01*
X170495672Y-133196554D01*
X170559128Y-133238954D01*
X171893802Y-134573629D01*
X171848442Y-134683137D01*
X171848442Y-135293797D01*
X171896635Y-135410145D01*
X171891400Y-135408718D01*
X171640801Y-135440598D01*
X171421478Y-135565952D01*
X171266821Y-135765695D01*
X170463665Y-137376577D01*
X170397218Y-137620300D01*
X170429098Y-137870899D01*
X170552830Y-138087384D01*
X170291435Y-138195657D01*
X169859632Y-138627460D01*
X169625942Y-139191637D01*
X169625942Y-139802297D01*
X169674135Y-139918645D01*
X169668900Y-139917218D01*
X169418301Y-139949098D01*
X169198978Y-140074452D01*
X169044321Y-140274195D01*
X168677412Y-141010100D01*
X164563902Y-141010100D01*
X163053300Y-139499499D01*
X163053300Y-129076630D01*
X163106162Y-129054734D01*
X163509834Y-128651062D01*
X163728300Y-128123639D01*
X163728300Y-127552761D01*
X163509834Y-127025338D01*
X163273041Y-126788545D01*
X165198961Y-126788545D01*
X165273095Y-127034664D01*
X165810323Y-127227765D01*
X166380554Y-127200578D01*
X166781105Y-127034664D01*
X166855239Y-126788545D01*
X166027100Y-125960405D01*
X165198961Y-126788545D01*
X163273041Y-126788545D01*
X163106162Y-126621666D01*
X162578739Y-126403200D01*
X162007861Y-126403200D01*
X161480438Y-126621666D01*
X161076766Y-127025338D01*
X160858300Y-127552761D01*
X160858300Y-128123639D01*
X161076766Y-128651062D01*
X161480438Y-129054734D01*
X161533300Y-129076630D01*
X161533301Y-139739448D01*
X161518412Y-139814300D01*
X161533301Y-139889152D01*
X161559857Y-140022659D01*
X161577397Y-140110837D01*
X161688547Y-140277184D01*
X161745372Y-140362229D01*
X161808828Y-140404629D01*
X163658771Y-142254573D01*
X163701171Y-142318029D01*
X163952563Y-142486004D01*
X164165925Y-142528445D01*
X163845250Y-142849120D01*
X163582300Y-143483939D01*
X163582300Y-144171061D01*
X163845250Y-144805880D01*
X164331120Y-145291750D01*
X164965939Y-145554700D01*
X165653061Y-145554700D01*
X166287880Y-145291750D01*
X166773750Y-144805880D01*
X167036700Y-144171061D01*
X167036700Y-143483939D01*
X166773750Y-142849120D01*
X166454730Y-142530100D01*
X168292731Y-142530100D01*
X168331952Y-142598722D01*
X168531695Y-142753379D01*
X170097941Y-143534280D01*
X167959222Y-145673000D01*
X147026179Y-145673000D01*
X144837118Y-143483939D01*
X150082300Y-143483939D01*
X150082300Y-144171061D01*
X150345250Y-144805880D01*
X150831120Y-145291750D01*
X151465939Y-145554700D01*
X152153061Y-145554700D01*
X152787880Y-145291750D01*
X153273750Y-144805880D01*
X153536700Y-144171061D01*
X153536700Y-143483939D01*
X153273750Y-142849120D01*
X152787880Y-142363250D01*
X152153061Y-142100300D01*
X151465939Y-142100300D01*
X150831120Y-142363250D01*
X150345250Y-142849120D01*
X150082300Y-143483939D01*
X144837118Y-143483939D01*
X143840674Y-142487496D01*
X143840674Y-138505791D01*
X143961293Y-138626410D01*
X144260277Y-138750253D01*
X144152798Y-138938301D01*
X144120918Y-139188900D01*
X144187365Y-139432623D01*
X144990521Y-141043505D01*
X145145178Y-141243248D01*
X145364501Y-141368602D01*
X145615100Y-141400482D01*
X145620335Y-141399055D01*
X145572142Y-141515403D01*
X145572142Y-142126063D01*
X145805832Y-142690240D01*
X146237635Y-143122043D01*
X146801812Y-143355733D01*
X147412472Y-143355733D01*
X147976649Y-143122043D01*
X148408452Y-142690240D01*
X148642142Y-142126063D01*
X148642142Y-141515403D01*
X148408452Y-140951226D01*
X147976649Y-140519423D01*
X147656024Y-140386616D01*
X147669448Y-140376222D01*
X147794802Y-140156899D01*
X147826682Y-139906300D01*
X147760235Y-139662577D01*
X147485220Y-139110982D01*
X147533202Y-139063000D01*
X152452153Y-139063000D01*
X152527000Y-139077888D01*
X152601847Y-139063000D01*
X152601852Y-139063000D01*
X152823537Y-139018904D01*
X153074929Y-138850929D01*
X153117331Y-138787470D01*
X153753257Y-138151545D01*
X153816713Y-138109145D01*
X153984688Y-137857753D01*
X154028784Y-137636068D01*
X154028784Y-137636063D01*
X154043672Y-137561216D01*
X154028784Y-137486369D01*
X154028784Y-132210831D01*
X154043672Y-132135984D01*
X154028784Y-132061137D01*
X154028784Y-132061132D01*
X153984688Y-131839447D01*
X153816713Y-131588055D01*
X153753257Y-131545655D01*
X151826500Y-129618899D01*
X151826500Y-128807845D01*
X154010261Y-128807845D01*
X154084395Y-129053964D01*
X154621623Y-129247065D01*
X155191854Y-129219878D01*
X155592405Y-129053964D01*
X155666539Y-128807845D01*
X154838400Y-127979705D01*
X154010261Y-128807845D01*
X151826500Y-128807845D01*
X151826500Y-127583323D01*
X153391435Y-127583323D01*
X153418622Y-128153554D01*
X153584536Y-128554105D01*
X153830655Y-128628239D01*
X154658795Y-127800100D01*
X155018005Y-127800100D01*
X155846145Y-128628239D01*
X156092264Y-128554105D01*
X156285365Y-128016877D01*
X156258178Y-127446646D01*
X156092264Y-127046095D01*
X155846145Y-126971961D01*
X155018005Y-127800100D01*
X154658795Y-127800100D01*
X153830655Y-126971961D01*
X153584536Y-127046095D01*
X153391435Y-127583323D01*
X151826500Y-127583323D01*
X151826500Y-126917630D01*
X151879362Y-126895734D01*
X151982741Y-126792355D01*
X154010261Y-126792355D01*
X154838400Y-127620495D01*
X155666539Y-126792355D01*
X155592405Y-126546236D01*
X155055177Y-126353135D01*
X154484946Y-126380322D01*
X154084395Y-126546236D01*
X154010261Y-126792355D01*
X151982741Y-126792355D01*
X152283034Y-126492062D01*
X152501500Y-125964639D01*
X152501500Y-125564023D01*
X164580135Y-125564023D01*
X164607322Y-126134254D01*
X164773236Y-126534805D01*
X165019355Y-126608939D01*
X165847495Y-125780800D01*
X166206705Y-125780800D01*
X167034845Y-126608939D01*
X167280964Y-126534805D01*
X167474065Y-125997577D01*
X167446878Y-125427346D01*
X167280964Y-125026795D01*
X167034845Y-124952661D01*
X166206705Y-125780800D01*
X165847495Y-125780800D01*
X165019355Y-124952661D01*
X164773236Y-125026795D01*
X164580135Y-125564023D01*
X152501500Y-125564023D01*
X152501500Y-125393761D01*
X152283034Y-124866338D01*
X152189751Y-124773055D01*
X165198961Y-124773055D01*
X166027100Y-125601195D01*
X166855239Y-124773055D01*
X166781105Y-124526936D01*
X166243877Y-124333835D01*
X165673646Y-124361022D01*
X165273095Y-124526936D01*
X165198961Y-124773055D01*
X152189751Y-124773055D01*
X151879362Y-124462666D01*
X151351939Y-124244200D01*
X150781061Y-124244200D01*
X150253638Y-124462666D01*
X149849966Y-124866338D01*
X149631500Y-125393761D01*
X149631500Y-125964639D01*
X149849966Y-126492062D01*
X150253638Y-126895734D01*
X150306501Y-126917630D01*
X150306500Y-129673698D01*
X142720600Y-122087799D01*
X142720600Y-121240861D01*
X145948500Y-121240861D01*
X145948500Y-121811739D01*
X146166966Y-122339162D01*
X146570638Y-122742834D01*
X147098061Y-122961300D01*
X147668939Y-122961300D01*
X148196362Y-122742834D01*
X148600034Y-122339162D01*
X148624822Y-122279318D01*
X148811407Y-122242204D01*
X149062799Y-122074229D01*
X149105201Y-122010770D01*
X155322873Y-115793099D01*
X155386329Y-115750699D01*
X155554304Y-115499307D01*
X155598400Y-115277622D01*
X155598400Y-115277617D01*
X155613288Y-115202770D01*
X155598400Y-115127923D01*
X155598400Y-113778143D01*
X155872977Y-113594677D01*
X156190140Y-113120009D01*
X156301513Y-112560100D01*
X156190140Y-112000191D01*
X155872977Y-111525523D01*
X155598400Y-111342057D01*
X155598400Y-109726648D01*
X155613288Y-109651800D01*
X155598400Y-109576952D01*
X155598400Y-109576948D01*
X155554304Y-109355263D01*
X155554304Y-109355262D01*
X155428729Y-109167327D01*
X155386329Y-109103871D01*
X155322873Y-109061471D01*
X154313430Y-108052029D01*
X154271028Y-107988570D01*
X154107001Y-107878970D01*
X154285999Y-107804827D01*
X154464627Y-107626198D01*
X154561300Y-107392809D01*
X154561300Y-106902250D01*
X154402550Y-106743500D01*
X153403300Y-106743500D01*
X153403300Y-106763500D01*
X153149300Y-106763500D01*
X153149300Y-106743500D01*
X153129300Y-106743500D01*
X153129300Y-106489500D01*
X153149300Y-106489500D01*
X153149300Y-105490250D01*
X153403300Y-105490250D01*
X153403300Y-106489500D01*
X154402550Y-106489500D01*
X154561300Y-106330750D01*
X154561300Y-105840191D01*
X154464627Y-105606802D01*
X154285999Y-105428173D01*
X154052610Y-105331500D01*
X153562050Y-105331500D01*
X153403300Y-105490250D01*
X153149300Y-105490250D01*
X152990550Y-105331500D01*
X152499990Y-105331500D01*
X152266601Y-105428173D01*
X152087973Y-105606802D01*
X151991300Y-105840191D01*
X151991300Y-106288471D01*
X151825671Y-105888606D01*
X151464194Y-105527129D01*
X150991902Y-105331500D01*
X150480698Y-105331500D01*
X150008406Y-105527129D01*
X149646929Y-105888606D01*
X149451300Y-106360898D01*
X149451300Y-106848883D01*
X149370397Y-106969963D01*
X149326301Y-107191648D01*
X149326301Y-107191652D01*
X149311413Y-107266499D01*
X149326301Y-107341346D01*
X149326302Y-109384149D01*
X149311413Y-109459001D01*
X149326302Y-109533853D01*
X149343302Y-109619318D01*
X149370398Y-109755538D01*
X149484629Y-109926496D01*
X149538373Y-110006930D01*
X149601829Y-110049330D01*
X149667812Y-110115313D01*
X149603387Y-110439200D01*
X149714760Y-110999109D01*
X150031923Y-111473777D01*
X150506591Y-111790940D01*
X150925167Y-111874200D01*
X151207833Y-111874200D01*
X151626409Y-111790940D01*
X152101077Y-111473777D01*
X152418240Y-110999109D01*
X152529613Y-110439200D01*
X152418240Y-109879291D01*
X152101077Y-109404623D01*
X151752184Y-109171500D01*
X152238682Y-109171500D01*
X152297201Y-109210601D01*
X152359762Y-109252403D01*
X152581447Y-109296499D01*
X152581451Y-109296499D01*
X152656298Y-109311387D01*
X152731145Y-109296499D01*
X153408298Y-109296499D01*
X154078400Y-109966602D01*
X154078401Y-111342056D01*
X153803823Y-111525523D01*
X153486660Y-112000191D01*
X153375287Y-112560100D01*
X153486660Y-113120009D01*
X153803823Y-113594677D01*
X154078401Y-113778144D01*
X154078400Y-114887968D01*
X148426482Y-120539886D01*
X148196362Y-120309766D01*
X147668939Y-120091300D01*
X147098061Y-120091300D01*
X146570638Y-120309766D01*
X146166966Y-120713438D01*
X145948500Y-121240861D01*
X142720600Y-121240861D01*
X142720600Y-120529236D01*
X142744786Y-120553422D01*
X142859661Y-120438547D01*
X142933795Y-120684664D01*
X143471023Y-120877765D01*
X144041254Y-120850578D01*
X144441805Y-120684664D01*
X144515939Y-120438545D01*
X143687800Y-119610405D01*
X143673658Y-119624548D01*
X143494052Y-119444942D01*
X143508195Y-119430800D01*
X143867405Y-119430800D01*
X144695545Y-120258939D01*
X144941664Y-120184805D01*
X145134765Y-119647577D01*
X145107578Y-119077346D01*
X144941664Y-118676795D01*
X144695545Y-118602661D01*
X143867405Y-119430800D01*
X143508195Y-119430800D01*
X143494052Y-119416658D01*
X143673658Y-119237052D01*
X143687800Y-119251195D01*
X144515939Y-118423055D01*
X144441805Y-118176936D01*
X143904577Y-117983835D01*
X143334346Y-118011022D01*
X142933795Y-118176936D01*
X142859661Y-118423053D01*
X142744786Y-118308178D01*
X142720600Y-118332364D01*
X142720600Y-113014601D01*
X144172273Y-111562929D01*
X144235729Y-111520529D01*
X144308409Y-111411756D01*
X144403704Y-111269138D01*
X144419411Y-111190173D01*
X144447800Y-111047452D01*
X144447800Y-111047448D01*
X144462688Y-110972600D01*
X144447800Y-110897752D01*
X144447800Y-105408843D01*
X144722377Y-105225377D01*
X145039540Y-104750709D01*
X145150913Y-104190800D01*
X145039540Y-103630891D01*
X144722377Y-103156223D01*
X144447800Y-102972757D01*
X144447800Y-99298601D01*
X146034602Y-97711800D01*
X147288598Y-97711800D01*
X146899030Y-98101369D01*
X146835571Y-98143771D01*
X146667596Y-98395164D01*
X146623500Y-98616849D01*
X146623500Y-98616853D01*
X146608612Y-98691700D01*
X146623500Y-98766547D01*
X146623501Y-105068256D01*
X146348923Y-105251723D01*
X146031760Y-105726391D01*
X145920387Y-106286300D01*
X146031760Y-106846209D01*
X146348923Y-107320877D01*
X146823591Y-107638040D01*
X147242167Y-107721300D01*
X147524833Y-107721300D01*
X147943409Y-107638040D01*
X148418077Y-107320877D01*
X148735240Y-106846209D01*
X148846613Y-106286300D01*
X148735240Y-105726391D01*
X148418077Y-105251723D01*
X148143500Y-105068257D01*
X148143500Y-99006501D01*
X148422202Y-98727800D01*
X148845353Y-98727800D01*
X148920200Y-98742688D01*
X148995047Y-98727800D01*
X148995052Y-98727800D01*
X149216737Y-98683704D01*
X149468129Y-98515729D01*
X149510531Y-98452270D01*
X152569698Y-95393104D01*
X152622561Y-95415000D01*
X153193439Y-95415000D01*
X153720862Y-95196534D01*
X154124534Y-94792862D01*
X154178000Y-94663784D01*
X154231466Y-94792862D01*
X154635138Y-95196534D01*
X154738801Y-95239473D01*
X154738800Y-97511760D01*
X154648800Y-97511760D01*
X154401035Y-97561043D01*
X154190991Y-97701391D01*
X154050643Y-97911435D01*
X154001360Y-98159200D01*
X154001360Y-99859200D01*
X154050643Y-100106965D01*
X154190991Y-100317009D01*
X154401035Y-100457357D01*
X154648800Y-100506640D01*
X156348800Y-100506640D01*
X156596565Y-100457357D01*
X156756100Y-100350758D01*
X156915635Y-100457357D01*
X157163400Y-100506640D01*
X158863400Y-100506640D01*
X159111165Y-100457357D01*
X159321209Y-100317009D01*
X159461557Y-100106965D01*
X159510840Y-99859200D01*
X159510840Y-98159200D01*
X159461557Y-97911435D01*
X159321209Y-97701391D01*
X159111165Y-97561043D01*
X158863400Y-97511760D01*
X158773400Y-97511760D01*
X158773400Y-95207909D01*
X158800862Y-95196534D01*
X159204534Y-94792862D01*
X159258000Y-94663784D01*
X159311466Y-94792862D01*
X159311466Y-94792862D01*
G37*
X159311466Y-94792862D02*
X159715138Y-95196534D01*
X159774983Y-95221323D01*
X159812097Y-95407907D01*
X159924077Y-95575496D01*
X159980072Y-95659299D01*
X160043528Y-95701699D01*
X161469800Y-97127972D01*
X161469801Y-101956948D01*
X161454912Y-102031800D01*
X161469801Y-102106652D01*
X161471027Y-102112814D01*
X161513897Y-102328337D01*
X161620814Y-102488349D01*
X161681872Y-102579729D01*
X161745328Y-102622129D01*
X163925470Y-104802272D01*
X163967871Y-104865729D01*
X164219263Y-105033704D01*
X164440948Y-105077800D01*
X164440952Y-105077800D01*
X164515799Y-105092688D01*
X164590646Y-105077800D01*
X167426799Y-105077800D01*
X168349512Y-106000514D01*
X168285087Y-106324400D01*
X168396460Y-106884309D01*
X168713623Y-107358977D01*
X169188291Y-107676140D01*
X169606867Y-107759400D01*
X169889533Y-107759400D01*
X170021648Y-107733121D01*
X169441530Y-108313239D01*
X169378071Y-108355641D01*
X169210096Y-108607034D01*
X169166000Y-108828719D01*
X169166000Y-108828723D01*
X169151112Y-108903570D01*
X169166000Y-108978417D01*
X169166001Y-119025748D01*
X169151112Y-119100600D01*
X169210097Y-119397137D01*
X169332721Y-119580656D01*
X169378072Y-119648529D01*
X169441528Y-119690929D01*
X169879999Y-120129400D01*
X169462761Y-120129400D01*
X169409898Y-120151296D01*
X166787100Y-117528499D01*
X166787100Y-111758843D01*
X167061677Y-111575377D01*
X167378840Y-111100709D01*
X167490213Y-110540800D01*
X167378840Y-109980891D01*
X167061677Y-109506223D01*
X166587009Y-109189060D01*
X166168433Y-109105800D01*
X165885767Y-109105800D01*
X165847300Y-109113452D01*
X165847300Y-109083465D01*
X166176671Y-108754094D01*
X166372300Y-108281802D01*
X166372300Y-108041200D01*
X166484302Y-108041200D01*
X166484302Y-107882452D01*
X166643050Y-108041200D01*
X167133610Y-108041200D01*
X167366999Y-107944527D01*
X167545627Y-107765898D01*
X167642300Y-107532509D01*
X167642300Y-107041950D01*
X167483550Y-106883200D01*
X166484300Y-106883200D01*
X166484300Y-106903200D01*
X166230300Y-106903200D01*
X166230300Y-106883200D01*
X166210300Y-106883200D01*
X166210300Y-106629200D01*
X166230300Y-106629200D01*
X166230300Y-105629950D01*
X166484300Y-105629950D01*
X166484300Y-106629200D01*
X167483550Y-106629200D01*
X167642300Y-106470450D01*
X167642300Y-105979891D01*
X167545627Y-105746502D01*
X167366999Y-105567873D01*
X167133610Y-105471200D01*
X166643050Y-105471200D01*
X166484300Y-105629950D01*
X166230300Y-105629950D01*
X166071550Y-105471200D01*
X165580990Y-105471200D01*
X165347601Y-105567873D01*
X165168973Y-105746502D01*
X165072300Y-105979891D01*
X165072300Y-106428171D01*
X164906671Y-106028306D01*
X164545194Y-105666829D01*
X164072902Y-105471200D01*
X163561698Y-105471200D01*
X163089406Y-105666829D01*
X162727929Y-106028306D01*
X162532300Y-106500598D01*
X162532300Y-106966398D01*
X161808828Y-107689871D01*
X161745372Y-107732271D01*
X161702972Y-107795727D01*
X161702971Y-107795728D01*
X161597701Y-107953276D01*
X161577397Y-107983663D01*
X161550996Y-108116392D01*
X161518412Y-108280200D01*
X161533301Y-108355052D01*
X161533300Y-111380156D01*
X161258723Y-111563623D01*
X160941560Y-112038291D01*
X160830187Y-112598200D01*
X160941560Y-113158109D01*
X161258723Y-113632777D01*
X161733391Y-113949940D01*
X162151967Y-114033200D01*
X162434633Y-114033200D01*
X162853209Y-113949940D01*
X163327877Y-113632777D01*
X163645040Y-113158109D01*
X163756413Y-112598200D01*
X163645040Y-112038291D01*
X163327877Y-111563623D01*
X163053300Y-111380157D01*
X163053300Y-108595001D01*
X163607102Y-108041200D01*
X163802300Y-108041200D01*
X163802300Y-108281802D01*
X163997929Y-108754094D01*
X164327301Y-109083466D01*
X164327301Y-109526149D01*
X164312412Y-109601000D01*
X164371397Y-109897537D01*
X164491556Y-110077367D01*
X164539372Y-110148929D01*
X164602828Y-110191329D01*
X164628412Y-110216913D01*
X164563987Y-110540800D01*
X164675360Y-111100709D01*
X164992523Y-111575377D01*
X165267100Y-111758844D01*
X165267101Y-117768448D01*
X165252212Y-117843300D01*
X165267101Y-117918152D01*
X165278854Y-117977239D01*
X165311197Y-118139837D01*
X165434600Y-118324522D01*
X165479172Y-118391229D01*
X165542628Y-118433629D01*
X168335096Y-121226098D01*
X168313200Y-121278961D01*
X168313200Y-121849839D01*
X168531666Y-122377262D01*
X168935338Y-122780934D01*
X169462761Y-122999400D01*
X170033639Y-122999400D01*
X170283600Y-122895863D01*
X170283601Y-132573773D01*
X170268712Y-132648625D01*
X170283601Y-132723477D01*
X170305696Y-132834555D01*
X170327697Y-132945162D01*
X170448126Y-133125396D01*
X170495672Y-133196554D01*
X170559128Y-133238954D01*
X171893802Y-134573629D01*
X171848442Y-134683137D01*
X171848442Y-135293797D01*
X171896635Y-135410145D01*
X171891400Y-135408718D01*
X171640801Y-135440598D01*
X171421478Y-135565952D01*
X171266821Y-135765695D01*
X170463665Y-137376577D01*
X170397218Y-137620300D01*
X170429098Y-137870899D01*
X170552830Y-138087384D01*
X170291435Y-138195657D01*
X169859632Y-138627460D01*
X169625942Y-139191637D01*
X169625942Y-139802297D01*
X169674135Y-139918645D01*
X169668900Y-139917218D01*
X169418301Y-139949098D01*
X169198978Y-140074452D01*
X169044321Y-140274195D01*
X168677412Y-141010100D01*
X164563902Y-141010100D01*
X163053300Y-139499499D01*
X163053300Y-129076630D01*
X163106162Y-129054734D01*
X163509834Y-128651062D01*
X163728300Y-128123639D01*
X163728300Y-127552761D01*
X163509834Y-127025338D01*
X163273041Y-126788545D01*
X165198961Y-126788545D01*
X165273095Y-127034664D01*
X165810323Y-127227765D01*
X166380554Y-127200578D01*
X166781105Y-127034664D01*
X166855239Y-126788545D01*
X166027100Y-125960405D01*
X165198961Y-126788545D01*
X163273041Y-126788545D01*
X163106162Y-126621666D01*
X162578739Y-126403200D01*
X162007861Y-126403200D01*
X161480438Y-126621666D01*
X161076766Y-127025338D01*
X160858300Y-127552761D01*
X160858300Y-128123639D01*
X161076766Y-128651062D01*
X161480438Y-129054734D01*
X161533300Y-129076630D01*
X161533301Y-139739448D01*
X161518412Y-139814300D01*
X161533301Y-139889152D01*
X161559857Y-140022659D01*
X161577397Y-140110837D01*
X161688547Y-140277184D01*
X161745372Y-140362229D01*
X161808828Y-140404629D01*
X163658771Y-142254573D01*
X163701171Y-142318029D01*
X163952563Y-142486004D01*
X164165925Y-142528445D01*
X163845250Y-142849120D01*
X163582300Y-143483939D01*
X163582300Y-144171061D01*
X163845250Y-144805880D01*
X164331120Y-145291750D01*
X164965939Y-145554700D01*
X165653061Y-145554700D01*
X166287880Y-145291750D01*
X166773750Y-144805880D01*
X167036700Y-144171061D01*
X167036700Y-143483939D01*
X166773750Y-142849120D01*
X166454730Y-142530100D01*
X168292731Y-142530100D01*
X168331952Y-142598722D01*
X168531695Y-142753379D01*
X170097941Y-143534280D01*
X167959222Y-145673000D01*
X147026179Y-145673000D01*
X144837118Y-143483939D01*
X150082300Y-143483939D01*
X150082300Y-144171061D01*
X150345250Y-144805880D01*
X150831120Y-145291750D01*
X151465939Y-145554700D01*
X152153061Y-145554700D01*
X152787880Y-145291750D01*
X153273750Y-144805880D01*
X153536700Y-144171061D01*
X153536700Y-143483939D01*
X153273750Y-142849120D01*
X152787880Y-142363250D01*
X152153061Y-142100300D01*
X151465939Y-142100300D01*
X150831120Y-142363250D01*
X150345250Y-142849120D01*
X150082300Y-143483939D01*
X144837118Y-143483939D01*
X143840674Y-142487496D01*
X143840674Y-138505791D01*
X143961293Y-138626410D01*
X144260277Y-138750253D01*
X144152798Y-138938301D01*
X144120918Y-139188900D01*
X144187365Y-139432623D01*
X144990521Y-141043505D01*
X145145178Y-141243248D01*
X145364501Y-141368602D01*
X145615100Y-141400482D01*
X145620335Y-141399055D01*
X145572142Y-141515403D01*
X145572142Y-142126063D01*
X145805832Y-142690240D01*
X146237635Y-143122043D01*
X146801812Y-143355733D01*
X147412472Y-143355733D01*
X147976649Y-143122043D01*
X148408452Y-142690240D01*
X148642142Y-142126063D01*
X148642142Y-141515403D01*
X148408452Y-140951226D01*
X147976649Y-140519423D01*
X147656024Y-140386616D01*
X147669448Y-140376222D01*
X147794802Y-140156899D01*
X147826682Y-139906300D01*
X147760235Y-139662577D01*
X147485220Y-139110982D01*
X147533202Y-139063000D01*
X152452153Y-139063000D01*
X152527000Y-139077888D01*
X152601847Y-139063000D01*
X152601852Y-139063000D01*
X152823537Y-139018904D01*
X153074929Y-138850929D01*
X153117331Y-138787470D01*
X153753257Y-138151545D01*
X153816713Y-138109145D01*
X153984688Y-137857753D01*
X154028784Y-137636068D01*
X154028784Y-137636063D01*
X154043672Y-137561216D01*
X154028784Y-137486369D01*
X154028784Y-132210831D01*
X154043672Y-132135984D01*
X154028784Y-132061137D01*
X154028784Y-132061132D01*
X153984688Y-131839447D01*
X153816713Y-131588055D01*
X153753257Y-131545655D01*
X151826500Y-129618899D01*
X151826500Y-128807845D01*
X154010261Y-128807845D01*
X154084395Y-129053964D01*
X154621623Y-129247065D01*
X155191854Y-129219878D01*
X155592405Y-129053964D01*
X155666539Y-128807845D01*
X154838400Y-127979705D01*
X154010261Y-128807845D01*
X151826500Y-128807845D01*
X151826500Y-127583323D01*
X153391435Y-127583323D01*
X153418622Y-128153554D01*
X153584536Y-128554105D01*
X153830655Y-128628239D01*
X154658795Y-127800100D01*
X155018005Y-127800100D01*
X155846145Y-128628239D01*
X156092264Y-128554105D01*
X156285365Y-128016877D01*
X156258178Y-127446646D01*
X156092264Y-127046095D01*
X155846145Y-126971961D01*
X155018005Y-127800100D01*
X154658795Y-127800100D01*
X153830655Y-126971961D01*
X153584536Y-127046095D01*
X153391435Y-127583323D01*
X151826500Y-127583323D01*
X151826500Y-126917630D01*
X151879362Y-126895734D01*
X151982741Y-126792355D01*
X154010261Y-126792355D01*
X154838400Y-127620495D01*
X155666539Y-126792355D01*
X155592405Y-126546236D01*
X155055177Y-126353135D01*
X154484946Y-126380322D01*
X154084395Y-126546236D01*
X154010261Y-126792355D01*
X151982741Y-126792355D01*
X152283034Y-126492062D01*
X152501500Y-125964639D01*
X152501500Y-125564023D01*
X164580135Y-125564023D01*
X164607322Y-126134254D01*
X164773236Y-126534805D01*
X165019355Y-126608939D01*
X165847495Y-125780800D01*
X166206705Y-125780800D01*
X167034845Y-126608939D01*
X167280964Y-126534805D01*
X167474065Y-125997577D01*
X167446878Y-125427346D01*
X167280964Y-125026795D01*
X167034845Y-124952661D01*
X166206705Y-125780800D01*
X165847495Y-125780800D01*
X165019355Y-124952661D01*
X164773236Y-125026795D01*
X164580135Y-125564023D01*
X152501500Y-125564023D01*
X152501500Y-125393761D01*
X152283034Y-124866338D01*
X152189751Y-124773055D01*
X165198961Y-124773055D01*
X166027100Y-125601195D01*
X166855239Y-124773055D01*
X166781105Y-124526936D01*
X166243877Y-124333835D01*
X165673646Y-124361022D01*
X165273095Y-124526936D01*
X165198961Y-124773055D01*
X152189751Y-124773055D01*
X151879362Y-124462666D01*
X151351939Y-124244200D01*
X150781061Y-124244200D01*
X150253638Y-124462666D01*
X149849966Y-124866338D01*
X149631500Y-125393761D01*
X149631500Y-125964639D01*
X149849966Y-126492062D01*
X150253638Y-126895734D01*
X150306501Y-126917630D01*
X150306500Y-129673698D01*
X142720600Y-122087799D01*
X142720600Y-121240861D01*
X145948500Y-121240861D01*
X145948500Y-121811739D01*
X146166966Y-122339162D01*
X146570638Y-122742834D01*
X147098061Y-122961300D01*
X147668939Y-122961300D01*
X148196362Y-122742834D01*
X148600034Y-122339162D01*
X148624822Y-122279318D01*
X148811407Y-122242204D01*
X149062799Y-122074229D01*
X149105201Y-122010770D01*
X155322873Y-115793099D01*
X155386329Y-115750699D01*
X155554304Y-115499307D01*
X155598400Y-115277622D01*
X155598400Y-115277617D01*
X155613288Y-115202770D01*
X155598400Y-115127923D01*
X155598400Y-113778143D01*
X155872977Y-113594677D01*
X156190140Y-113120009D01*
X156301513Y-112560100D01*
X156190140Y-112000191D01*
X155872977Y-111525523D01*
X155598400Y-111342057D01*
X155598400Y-109726648D01*
X155613288Y-109651800D01*
X155598400Y-109576952D01*
X155598400Y-109576948D01*
X155554304Y-109355263D01*
X155554304Y-109355262D01*
X155428729Y-109167327D01*
X155386329Y-109103871D01*
X155322873Y-109061471D01*
X154313430Y-108052029D01*
X154271028Y-107988570D01*
X154107001Y-107878970D01*
X154285999Y-107804827D01*
X154464627Y-107626198D01*
X154561300Y-107392809D01*
X154561300Y-106902250D01*
X154402550Y-106743500D01*
X153403300Y-106743500D01*
X153403300Y-106763500D01*
X153149300Y-106763500D01*
X153149300Y-106743500D01*
X153129300Y-106743500D01*
X153129300Y-106489500D01*
X153149300Y-106489500D01*
X153149300Y-105490250D01*
X153403300Y-105490250D01*
X153403300Y-106489500D01*
X154402550Y-106489500D01*
X154561300Y-106330750D01*
X154561300Y-105840191D01*
X154464627Y-105606802D01*
X154285999Y-105428173D01*
X154052610Y-105331500D01*
X153562050Y-105331500D01*
X153403300Y-105490250D01*
X153149300Y-105490250D01*
X152990550Y-105331500D01*
X152499990Y-105331500D01*
X152266601Y-105428173D01*
X152087973Y-105606802D01*
X151991300Y-105840191D01*
X151991300Y-106288471D01*
X151825671Y-105888606D01*
X151464194Y-105527129D01*
X150991902Y-105331500D01*
X150480698Y-105331500D01*
X150008406Y-105527129D01*
X149646929Y-105888606D01*
X149451300Y-106360898D01*
X149451300Y-106848883D01*
X149370397Y-106969963D01*
X149326301Y-107191648D01*
X149326301Y-107191652D01*
X149311413Y-107266499D01*
X149326301Y-107341346D01*
X149326302Y-109384149D01*
X149311413Y-109459001D01*
X149326302Y-109533853D01*
X149343302Y-109619318D01*
X149370398Y-109755538D01*
X149484629Y-109926496D01*
X149538373Y-110006930D01*
X149601829Y-110049330D01*
X149667812Y-110115313D01*
X149603387Y-110439200D01*
X149714760Y-110999109D01*
X150031923Y-111473777D01*
X150506591Y-111790940D01*
X150925167Y-111874200D01*
X151207833Y-111874200D01*
X151626409Y-111790940D01*
X152101077Y-111473777D01*
X152418240Y-110999109D01*
X152529613Y-110439200D01*
X152418240Y-109879291D01*
X152101077Y-109404623D01*
X151752184Y-109171500D01*
X152238682Y-109171500D01*
X152297201Y-109210601D01*
X152359762Y-109252403D01*
X152581447Y-109296499D01*
X152581451Y-109296499D01*
X152656298Y-109311387D01*
X152731145Y-109296499D01*
X153408298Y-109296499D01*
X154078400Y-109966602D01*
X154078401Y-111342056D01*
X153803823Y-111525523D01*
X153486660Y-112000191D01*
X153375287Y-112560100D01*
X153486660Y-113120009D01*
X153803823Y-113594677D01*
X154078401Y-113778144D01*
X154078400Y-114887968D01*
X148426482Y-120539886D01*
X148196362Y-120309766D01*
X147668939Y-120091300D01*
X147098061Y-120091300D01*
X146570638Y-120309766D01*
X146166966Y-120713438D01*
X145948500Y-121240861D01*
X142720600Y-121240861D01*
X142720600Y-120529236D01*
X142744786Y-120553422D01*
X142859661Y-120438547D01*
X142933795Y-120684664D01*
X143471023Y-120877765D01*
X144041254Y-120850578D01*
X144441805Y-120684664D01*
X144515939Y-120438545D01*
X143687800Y-119610405D01*
X143673658Y-119624548D01*
X143494052Y-119444942D01*
X143508195Y-119430800D01*
X143867405Y-119430800D01*
X144695545Y-120258939D01*
X144941664Y-120184805D01*
X145134765Y-119647577D01*
X145107578Y-119077346D01*
X144941664Y-118676795D01*
X144695545Y-118602661D01*
X143867405Y-119430800D01*
X143508195Y-119430800D01*
X143494052Y-119416658D01*
X143673658Y-119237052D01*
X143687800Y-119251195D01*
X144515939Y-118423055D01*
X144441805Y-118176936D01*
X143904577Y-117983835D01*
X143334346Y-118011022D01*
X142933795Y-118176936D01*
X142859661Y-118423053D01*
X142744786Y-118308178D01*
X142720600Y-118332364D01*
X142720600Y-113014601D01*
X144172273Y-111562929D01*
X144235729Y-111520529D01*
X144308409Y-111411756D01*
X144403704Y-111269138D01*
X144419411Y-111190173D01*
X144447800Y-111047452D01*
X144447800Y-111047448D01*
X144462688Y-110972600D01*
X144447800Y-110897752D01*
X144447800Y-105408843D01*
X144722377Y-105225377D01*
X145039540Y-104750709D01*
X145150913Y-104190800D01*
X145039540Y-103630891D01*
X144722377Y-103156223D01*
X144447800Y-102972757D01*
X144447800Y-99298601D01*
X146034602Y-97711800D01*
X147288598Y-97711800D01*
X146899030Y-98101369D01*
X146835571Y-98143771D01*
X146667596Y-98395164D01*
X146623500Y-98616849D01*
X146623500Y-98616853D01*
X146608612Y-98691700D01*
X146623500Y-98766547D01*
X146623501Y-105068256D01*
X146348923Y-105251723D01*
X146031760Y-105726391D01*
X145920387Y-106286300D01*
X146031760Y-106846209D01*
X146348923Y-107320877D01*
X146823591Y-107638040D01*
X147242167Y-107721300D01*
X147524833Y-107721300D01*
X147943409Y-107638040D01*
X148418077Y-107320877D01*
X148735240Y-106846209D01*
X148846613Y-106286300D01*
X148735240Y-105726391D01*
X148418077Y-105251723D01*
X148143500Y-105068257D01*
X148143500Y-99006501D01*
X148422202Y-98727800D01*
X148845353Y-98727800D01*
X148920200Y-98742688D01*
X148995047Y-98727800D01*
X148995052Y-98727800D01*
X149216737Y-98683704D01*
X149468129Y-98515729D01*
X149510531Y-98452270D01*
X152569698Y-95393104D01*
X152622561Y-95415000D01*
X153193439Y-95415000D01*
X153720862Y-95196534D01*
X154124534Y-94792862D01*
X154178000Y-94663784D01*
X154231466Y-94792862D01*
X154635138Y-95196534D01*
X154738801Y-95239473D01*
X154738800Y-97511760D01*
X154648800Y-97511760D01*
X154401035Y-97561043D01*
X154190991Y-97701391D01*
X154050643Y-97911435D01*
X154001360Y-98159200D01*
X154001360Y-99859200D01*
X154050643Y-100106965D01*
X154190991Y-100317009D01*
X154401035Y-100457357D01*
X154648800Y-100506640D01*
X156348800Y-100506640D01*
X156596565Y-100457357D01*
X156756100Y-100350758D01*
X156915635Y-100457357D01*
X157163400Y-100506640D01*
X158863400Y-100506640D01*
X159111165Y-100457357D01*
X159321209Y-100317009D01*
X159461557Y-100106965D01*
X159510840Y-99859200D01*
X159510840Y-98159200D01*
X159461557Y-97911435D01*
X159321209Y-97701391D01*
X159111165Y-97561043D01*
X158863400Y-97511760D01*
X158773400Y-97511760D01*
X158773400Y-95207909D01*
X158800862Y-95196534D01*
X159204534Y-94792862D01*
X159258000Y-94663784D01*
X159311466Y-94792862D01*
G36*
X174195201Y-107341748D02*
X174180312Y-107416600D01*
X174195201Y-107491452D01*
X174217190Y-107602000D01*
X174239297Y-107713137D01*
X174362720Y-107897852D01*
X174407272Y-107964529D01*
X174470728Y-108006929D01*
X177006470Y-110542672D01*
X177048871Y-110606129D01*
X177300263Y-110774104D01*
X177521948Y-110818200D01*
X177521952Y-110818200D01*
X177596800Y-110833088D01*
X177671648Y-110818200D01*
X181100046Y-110818200D01*
X180996406Y-110861129D01*
X180634929Y-111222606D01*
X180439300Y-111694898D01*
X180439300Y-112206102D01*
X180634929Y-112678394D01*
X180760867Y-112804332D01*
X179652330Y-113912869D01*
X179588871Y-113955271D01*
X179420896Y-114206664D01*
X179376800Y-114428349D01*
X179376800Y-114428353D01*
X179361912Y-114503200D01*
X179376800Y-114578047D01*
X179376801Y-116599856D01*
X179102223Y-116783323D01*
X178785060Y-117257991D01*
X178673687Y-117817900D01*
X178785060Y-118377809D01*
X179102223Y-118852477D01*
X179376800Y-119035944D01*
X179376801Y-127217248D01*
X179361912Y-127292100D01*
X179420897Y-127588637D01*
X179543869Y-127772677D01*
X179588872Y-127840029D01*
X179652328Y-127882429D01*
X182432096Y-130662198D01*
X182410200Y-130715061D01*
X182410200Y-131285939D01*
X182628666Y-131813362D01*
X183032338Y-132217034D01*
X183559761Y-132435500D01*
X184130639Y-132435500D01*
X184658062Y-132217034D01*
X185061734Y-131813362D01*
X185280200Y-131285939D01*
X185280200Y-130715061D01*
X185061734Y-130187638D01*
X184658062Y-129783966D01*
X184130639Y-129565500D01*
X183559761Y-129565500D01*
X183506898Y-129587396D01*
X180896800Y-126977299D01*
X180896800Y-119035943D01*
X181171377Y-118852477D01*
X181488540Y-118377809D01*
X181599913Y-117817900D01*
X181488540Y-117257991D01*
X181171377Y-116783323D01*
X180896800Y-116599857D01*
X180896800Y-114818001D01*
X181734302Y-113980500D01*
X181937035Y-113980500D01*
X182266406Y-114309871D01*
X182738698Y-114505500D01*
X183140509Y-114505500D01*
X182810623Y-114725923D01*
X182493460Y-115200591D01*
X182382087Y-115760500D01*
X182493460Y-116320409D01*
X182810623Y-116795077D01*
X183285291Y-117112240D01*
X183703867Y-117195500D01*
X183986533Y-117195500D01*
X184405109Y-117112240D01*
X184879777Y-116795077D01*
X185063243Y-116520500D01*
X186119853Y-116520500D01*
X186194700Y-116535388D01*
X186269547Y-116520500D01*
X186269552Y-116520500D01*
X186491237Y-116476404D01*
X186742629Y-116308429D01*
X186785031Y-116244970D01*
X186793601Y-116236400D01*
X186793600Y-125571070D01*
X186740738Y-125592966D01*
X186337066Y-125996638D01*
X186118600Y-126524061D01*
X186118600Y-127094939D01*
X186337066Y-127622362D01*
X186740738Y-128026034D01*
X187268161Y-128244500D01*
X187839039Y-128244500D01*
X188366462Y-128026034D01*
X188370401Y-128022095D01*
X188370401Y-129097220D01*
X181091022Y-136376600D01*
X174043340Y-136376600D01*
X174252949Y-136289777D01*
X174684752Y-135857974D01*
X174918442Y-135293797D01*
X174918442Y-134683137D01*
X174684752Y-134118960D01*
X174631437Y-134065645D01*
X179308661Y-134065645D01*
X179382795Y-134311764D01*
X179920023Y-134504865D01*
X180490254Y-134477678D01*
X180890805Y-134311764D01*
X180964939Y-134065645D01*
X180136800Y-133237505D01*
X179308661Y-134065645D01*
X174631437Y-134065645D01*
X174252949Y-133687157D01*
X173688772Y-133453467D01*
X173078112Y-133453467D01*
X172968604Y-133498827D01*
X172310900Y-132841123D01*
X178689835Y-132841123D01*
X178717022Y-133411354D01*
X178882936Y-133811905D01*
X179129055Y-133886039D01*
X179957195Y-133057900D01*
X180316405Y-133057900D01*
X181144545Y-133886039D01*
X181390664Y-133811905D01*
X181583765Y-133274677D01*
X181556578Y-132704446D01*
X181390664Y-132303895D01*
X181144545Y-132229761D01*
X180316405Y-133057900D01*
X179957195Y-133057900D01*
X179129055Y-132229761D01*
X178882936Y-132303895D01*
X178689835Y-132841123D01*
X172310900Y-132841123D01*
X171803600Y-132333824D01*
X171803600Y-132050155D01*
X179308661Y-132050155D01*
X180136800Y-132878295D01*
X180964939Y-132050155D01*
X180890805Y-131804036D01*
X180353577Y-131610935D01*
X179783346Y-131638122D01*
X179382795Y-131804036D01*
X179308661Y-132050155D01*
X171803600Y-132050155D01*
X171803600Y-120476645D01*
X172641161Y-120476645D01*
X172715295Y-120722764D01*
X173252523Y-120915865D01*
X173822754Y-120888678D01*
X174223305Y-120722764D01*
X174297439Y-120476645D01*
X173469300Y-119648505D01*
X172641161Y-120476645D01*
X171803600Y-120476645D01*
X171803600Y-120293046D01*
X171818488Y-120218199D01*
X171803600Y-120143352D01*
X171803600Y-120143348D01*
X171759504Y-119921663D01*
X171591529Y-119670271D01*
X171528073Y-119627871D01*
X171152325Y-119252123D01*
X172022335Y-119252123D01*
X172049522Y-119822354D01*
X172215436Y-120222905D01*
X172461555Y-120297039D01*
X173289695Y-119468900D01*
X173648905Y-119468900D01*
X174477045Y-120297039D01*
X174723164Y-120222905D01*
X174916265Y-119685677D01*
X174889078Y-119115446D01*
X174723164Y-118714895D01*
X174477045Y-118640761D01*
X173648905Y-119468900D01*
X173289695Y-119468900D01*
X172461555Y-118640761D01*
X172215436Y-118714895D01*
X172022335Y-119252123D01*
X171152325Y-119252123D01*
X170686000Y-118785799D01*
X170686000Y-118461155D01*
X172641161Y-118461155D01*
X173469300Y-119289295D01*
X174297439Y-118461155D01*
X174223305Y-118215036D01*
X173686077Y-118021935D01*
X173115846Y-118049122D01*
X172715295Y-118215036D01*
X172641161Y-118461155D01*
X170686000Y-118461155D01*
X170686000Y-109218371D01*
X173953773Y-105950599D01*
X174017229Y-105908199D01*
X174185204Y-105656807D01*
X174195201Y-105606551D01*
X174195201Y-107341748D01*
X174195201Y-107341748D01*
G37*
X174195201Y-107341748D02*
X174180312Y-107416600D01*
X174195201Y-107491452D01*
X174217190Y-107602000D01*
X174239297Y-107713137D01*
X174362720Y-107897852D01*
X174407272Y-107964529D01*
X174470728Y-108006929D01*
X177006470Y-110542672D01*
X177048871Y-110606129D01*
X177300263Y-110774104D01*
X177521948Y-110818200D01*
X177521952Y-110818200D01*
X177596800Y-110833088D01*
X177671648Y-110818200D01*
X181100046Y-110818200D01*
X180996406Y-110861129D01*
X180634929Y-111222606D01*
X180439300Y-111694898D01*
X180439300Y-112206102D01*
X180634929Y-112678394D01*
X180760867Y-112804332D01*
X179652330Y-113912869D01*
X179588871Y-113955271D01*
X179420896Y-114206664D01*
X179376800Y-114428349D01*
X179376800Y-114428353D01*
X179361912Y-114503200D01*
X179376800Y-114578047D01*
X179376801Y-116599856D01*
X179102223Y-116783323D01*
X178785060Y-117257991D01*
X178673687Y-117817900D01*
X178785060Y-118377809D01*
X179102223Y-118852477D01*
X179376800Y-119035944D01*
X179376801Y-127217248D01*
X179361912Y-127292100D01*
X179420897Y-127588637D01*
X179543869Y-127772677D01*
X179588872Y-127840029D01*
X179652328Y-127882429D01*
X182432096Y-130662198D01*
X182410200Y-130715061D01*
X182410200Y-131285939D01*
X182628666Y-131813362D01*
X183032338Y-132217034D01*
X183559761Y-132435500D01*
X184130639Y-132435500D01*
X184658062Y-132217034D01*
X185061734Y-131813362D01*
X185280200Y-131285939D01*
X185280200Y-130715061D01*
X185061734Y-130187638D01*
X184658062Y-129783966D01*
X184130639Y-129565500D01*
X183559761Y-129565500D01*
X183506898Y-129587396D01*
X180896800Y-126977299D01*
X180896800Y-119035943D01*
X181171377Y-118852477D01*
X181488540Y-118377809D01*
X181599913Y-117817900D01*
X181488540Y-117257991D01*
X181171377Y-116783323D01*
X180896800Y-116599857D01*
X180896800Y-114818001D01*
X181734302Y-113980500D01*
X181937035Y-113980500D01*
X182266406Y-114309871D01*
X182738698Y-114505500D01*
X183140509Y-114505500D01*
X182810623Y-114725923D01*
X182493460Y-115200591D01*
X182382087Y-115760500D01*
X182493460Y-116320409D01*
X182810623Y-116795077D01*
X183285291Y-117112240D01*
X183703867Y-117195500D01*
X183986533Y-117195500D01*
X184405109Y-117112240D01*
X184879777Y-116795077D01*
X185063243Y-116520500D01*
X186119853Y-116520500D01*
X186194700Y-116535388D01*
X186269547Y-116520500D01*
X186269552Y-116520500D01*
X186491237Y-116476404D01*
X186742629Y-116308429D01*
X186785031Y-116244970D01*
X186793601Y-116236400D01*
X186793600Y-125571070D01*
X186740738Y-125592966D01*
X186337066Y-125996638D01*
X186118600Y-126524061D01*
X186118600Y-127094939D01*
X186337066Y-127622362D01*
X186740738Y-128026034D01*
X187268161Y-128244500D01*
X187839039Y-128244500D01*
X188366462Y-128026034D01*
X188370401Y-128022095D01*
X188370401Y-129097220D01*
X181091022Y-136376600D01*
X174043340Y-136376600D01*
X174252949Y-136289777D01*
X174684752Y-135857974D01*
X174918442Y-135293797D01*
X174918442Y-134683137D01*
X174684752Y-134118960D01*
X174631437Y-134065645D01*
X179308661Y-134065645D01*
X179382795Y-134311764D01*
X179920023Y-134504865D01*
X180490254Y-134477678D01*
X180890805Y-134311764D01*
X180964939Y-134065645D01*
X180136800Y-133237505D01*
X179308661Y-134065645D01*
X174631437Y-134065645D01*
X174252949Y-133687157D01*
X173688772Y-133453467D01*
X173078112Y-133453467D01*
X172968604Y-133498827D01*
X172310900Y-132841123D01*
X178689835Y-132841123D01*
X178717022Y-133411354D01*
X178882936Y-133811905D01*
X179129055Y-133886039D01*
X179957195Y-133057900D01*
X180316405Y-133057900D01*
X181144545Y-133886039D01*
X181390664Y-133811905D01*
X181583765Y-133274677D01*
X181556578Y-132704446D01*
X181390664Y-132303895D01*
X181144545Y-132229761D01*
X180316405Y-133057900D01*
X179957195Y-133057900D01*
X179129055Y-132229761D01*
X178882936Y-132303895D01*
X178689835Y-132841123D01*
X172310900Y-132841123D01*
X171803600Y-132333824D01*
X171803600Y-132050155D01*
X179308661Y-132050155D01*
X180136800Y-132878295D01*
X180964939Y-132050155D01*
X180890805Y-131804036D01*
X180353577Y-131610935D01*
X179783346Y-131638122D01*
X179382795Y-131804036D01*
X179308661Y-132050155D01*
X171803600Y-132050155D01*
X171803600Y-120476645D01*
X172641161Y-120476645D01*
X172715295Y-120722764D01*
X173252523Y-120915865D01*
X173822754Y-120888678D01*
X174223305Y-120722764D01*
X174297439Y-120476645D01*
X173469300Y-119648505D01*
X172641161Y-120476645D01*
X171803600Y-120476645D01*
X171803600Y-120293046D01*
X171818488Y-120218199D01*
X171803600Y-120143352D01*
X171803600Y-120143348D01*
X171759504Y-119921663D01*
X171591529Y-119670271D01*
X171528073Y-119627871D01*
X171152325Y-119252123D01*
X172022335Y-119252123D01*
X172049522Y-119822354D01*
X172215436Y-120222905D01*
X172461555Y-120297039D01*
X173289695Y-119468900D01*
X173648905Y-119468900D01*
X174477045Y-120297039D01*
X174723164Y-120222905D01*
X174916265Y-119685677D01*
X174889078Y-119115446D01*
X174723164Y-118714895D01*
X174477045Y-118640761D01*
X173648905Y-119468900D01*
X173289695Y-119468900D01*
X172461555Y-118640761D01*
X172215436Y-118714895D01*
X172022335Y-119252123D01*
X171152325Y-119252123D01*
X170686000Y-118785799D01*
X170686000Y-118461155D01*
X172641161Y-118461155D01*
X173469300Y-119289295D01*
X174297439Y-118461155D01*
X174223305Y-118215036D01*
X173686077Y-118021935D01*
X173115846Y-118049122D01*
X172715295Y-118215036D01*
X172641161Y-118461155D01*
X170686000Y-118461155D01*
X170686000Y-109218371D01*
X173953773Y-105950599D01*
X174017229Y-105908199D01*
X174185204Y-105656807D01*
X174195201Y-105606551D01*
X174195201Y-107341748D01*
G36*
X142927800Y-110657798D02*
X141476128Y-112109471D01*
X141412672Y-112151871D01*
X141370272Y-112215327D01*
X141370271Y-112215328D01*
X141244697Y-112403263D01*
X141185712Y-112699800D01*
X141200601Y-112774652D01*
X141200600Y-122327753D01*
X141185712Y-122402600D01*
X141200600Y-122477447D01*
X141200600Y-122477451D01*
X141244696Y-122699136D01*
X141412671Y-122950529D01*
X141476130Y-122992931D01*
X151524000Y-133040802D01*
X151523999Y-134865699D01*
X151069199Y-135320500D01*
X146150246Y-135320500D01*
X146075399Y-135305612D01*
X146000552Y-135320500D01*
X146000548Y-135320500D01*
X145778863Y-135364596D01*
X145535516Y-135527196D01*
X145550340Y-135410667D01*
X145483893Y-135166944D01*
X144680737Y-133556062D01*
X144526080Y-133356319D01*
X144306757Y-133230965D01*
X144056158Y-133199085D01*
X143812435Y-133265532D01*
X142201553Y-134068688D01*
X142074623Y-134166967D01*
X137415900Y-134166967D01*
X137769662Y-134020434D01*
X138173334Y-133616762D01*
X138391800Y-133089339D01*
X138391800Y-132518461D01*
X138173334Y-131991038D01*
X137769662Y-131587366D01*
X137242239Y-131368900D01*
X136671361Y-131368900D01*
X136143938Y-131587366D01*
X135740266Y-131991038D01*
X135718370Y-132043900D01*
X133910000Y-132043900D01*
X134015105Y-132000364D01*
X134089239Y-131754245D01*
X133261100Y-130926105D01*
X133246958Y-130940248D01*
X133067352Y-130760642D01*
X133081495Y-130746500D01*
X133440705Y-130746500D01*
X134268845Y-131574639D01*
X134514964Y-131500505D01*
X134708065Y-130963277D01*
X134680878Y-130393046D01*
X134514964Y-129992495D01*
X134268845Y-129918361D01*
X133440705Y-130746500D01*
X133081495Y-130746500D01*
X132253355Y-129918361D01*
X132007236Y-129992495D01*
X131814135Y-130529723D01*
X131819542Y-130643140D01*
X130915157Y-129738755D01*
X132432961Y-129738755D01*
X133261100Y-130566895D01*
X134089239Y-129738755D01*
X134015105Y-129492636D01*
X133477877Y-129299535D01*
X132907646Y-129326722D01*
X132507095Y-129492636D01*
X132432961Y-129738755D01*
X130915157Y-129738755D01*
X129160977Y-127984576D01*
X129267261Y-128028600D01*
X129838139Y-128028600D01*
X130365562Y-127810134D01*
X130769234Y-127406462D01*
X130987700Y-126879039D01*
X130987700Y-126308161D01*
X130769234Y-125780738D01*
X130365562Y-125377066D01*
X130312700Y-125355170D01*
X130312700Y-119529701D01*
X132937214Y-116905188D01*
X133119767Y-116941500D01*
X133402433Y-116941500D01*
X133821009Y-116858240D01*
X134295677Y-116541077D01*
X134612840Y-116066409D01*
X134724213Y-115506500D01*
X134612840Y-114946591D01*
X134295677Y-114471923D01*
X134021100Y-114288457D01*
X134021100Y-114238800D01*
X134418402Y-114238800D01*
X134890694Y-114043171D01*
X135252171Y-113681694D01*
X135447800Y-113209402D01*
X135447800Y-112968800D01*
X135559802Y-112968800D01*
X135559802Y-112810052D01*
X135718550Y-112968800D01*
X136196801Y-112968800D01*
X136196800Y-116345856D01*
X135922223Y-116529323D01*
X135605060Y-117003991D01*
X135493687Y-117563900D01*
X135605060Y-118123809D01*
X135922223Y-118598477D01*
X136396891Y-118915640D01*
X136815467Y-118998900D01*
X137098133Y-118998900D01*
X137516709Y-118915640D01*
X137991377Y-118598477D01*
X138308540Y-118123809D01*
X138419913Y-117563900D01*
X138308540Y-117003991D01*
X137991377Y-116529323D01*
X137716800Y-116345857D01*
X137716800Y-110818848D01*
X137731688Y-110744000D01*
X137716800Y-110669152D01*
X137716800Y-110669148D01*
X137672704Y-110447463D01*
X137504729Y-110196071D01*
X137441273Y-110153671D01*
X136955611Y-109668010D01*
X140802153Y-109668010D01*
X140877000Y-109682898D01*
X140951847Y-109668010D01*
X140951852Y-109668010D01*
X141173537Y-109623914D01*
X141424929Y-109455939D01*
X141467331Y-109392480D01*
X142818884Y-108040928D01*
X142882337Y-107998530D01*
X142924735Y-107935077D01*
X142924738Y-107935074D01*
X142927800Y-107930491D01*
X142927800Y-110657798D01*
X142927800Y-110657798D01*
G37*
X142927800Y-110657798D02*
X141476128Y-112109471D01*
X141412672Y-112151871D01*
X141370272Y-112215327D01*
X141370271Y-112215328D01*
X141244697Y-112403263D01*
X141185712Y-112699800D01*
X141200601Y-112774652D01*
X141200600Y-122327753D01*
X141185712Y-122402600D01*
X141200600Y-122477447D01*
X141200600Y-122477451D01*
X141244696Y-122699136D01*
X141412671Y-122950529D01*
X141476130Y-122992931D01*
X151524000Y-133040802D01*
X151523999Y-134865699D01*
X151069199Y-135320500D01*
X146150246Y-135320500D01*
X146075399Y-135305612D01*
X146000552Y-135320500D01*
X146000548Y-135320500D01*
X145778863Y-135364596D01*
X145535516Y-135527196D01*
X145550340Y-135410667D01*
X145483893Y-135166944D01*
X144680737Y-133556062D01*
X144526080Y-133356319D01*
X144306757Y-133230965D01*
X144056158Y-133199085D01*
X143812435Y-133265532D01*
X142201553Y-134068688D01*
X142074623Y-134166967D01*
X137415900Y-134166967D01*
X137769662Y-134020434D01*
X138173334Y-133616762D01*
X138391800Y-133089339D01*
X138391800Y-132518461D01*
X138173334Y-131991038D01*
X137769662Y-131587366D01*
X137242239Y-131368900D01*
X136671361Y-131368900D01*
X136143938Y-131587366D01*
X135740266Y-131991038D01*
X135718370Y-132043900D01*
X133910000Y-132043900D01*
X134015105Y-132000364D01*
X134089239Y-131754245D01*
X133261100Y-130926105D01*
X133246958Y-130940248D01*
X133067352Y-130760642D01*
X133081495Y-130746500D01*
X133440705Y-130746500D01*
X134268845Y-131574639D01*
X134514964Y-131500505D01*
X134708065Y-130963277D01*
X134680878Y-130393046D01*
X134514964Y-129992495D01*
X134268845Y-129918361D01*
X133440705Y-130746500D01*
X133081495Y-130746500D01*
X132253355Y-129918361D01*
X132007236Y-129992495D01*
X131814135Y-130529723D01*
X131819542Y-130643140D01*
X130915157Y-129738755D01*
X132432961Y-129738755D01*
X133261100Y-130566895D01*
X134089239Y-129738755D01*
X134015105Y-129492636D01*
X133477877Y-129299535D01*
X132907646Y-129326722D01*
X132507095Y-129492636D01*
X132432961Y-129738755D01*
X130915157Y-129738755D01*
X129160977Y-127984576D01*
X129267261Y-128028600D01*
X129838139Y-128028600D01*
X130365562Y-127810134D01*
X130769234Y-127406462D01*
X130987700Y-126879039D01*
X130987700Y-126308161D01*
X130769234Y-125780738D01*
X130365562Y-125377066D01*
X130312700Y-125355170D01*
X130312700Y-119529701D01*
X132937214Y-116905188D01*
X133119767Y-116941500D01*
X133402433Y-116941500D01*
X133821009Y-116858240D01*
X134295677Y-116541077D01*
X134612840Y-116066409D01*
X134724213Y-115506500D01*
X134612840Y-114946591D01*
X134295677Y-114471923D01*
X134021100Y-114288457D01*
X134021100Y-114238800D01*
X134418402Y-114238800D01*
X134890694Y-114043171D01*
X135252171Y-113681694D01*
X135447800Y-113209402D01*
X135447800Y-112968800D01*
X135559802Y-112968800D01*
X135559802Y-112810052D01*
X135718550Y-112968800D01*
X136196801Y-112968800D01*
X136196800Y-116345856D01*
X135922223Y-116529323D01*
X135605060Y-117003991D01*
X135493687Y-117563900D01*
X135605060Y-118123809D01*
X135922223Y-118598477D01*
X136396891Y-118915640D01*
X136815467Y-118998900D01*
X137098133Y-118998900D01*
X137516709Y-118915640D01*
X137991377Y-118598477D01*
X138308540Y-118123809D01*
X138419913Y-117563900D01*
X138308540Y-117003991D01*
X137991377Y-116529323D01*
X137716800Y-116345857D01*
X137716800Y-110818848D01*
X137731688Y-110744000D01*
X137716800Y-110669152D01*
X137716800Y-110669148D01*
X137672704Y-110447463D01*
X137504729Y-110196071D01*
X137441273Y-110153671D01*
X136955611Y-109668010D01*
X140802153Y-109668010D01*
X140877000Y-109682898D01*
X140951847Y-109668010D01*
X140951852Y-109668010D01*
X141173537Y-109623914D01*
X141424929Y-109455939D01*
X141467331Y-109392480D01*
X142818884Y-108040928D01*
X142882337Y-107998530D01*
X142924735Y-107935077D01*
X142924738Y-107935074D01*
X142927800Y-107930491D01*
X142927800Y-110657798D01*
G36*
X186090487Y-111569500D02*
X186201860Y-112129409D01*
X186519023Y-112604077D01*
X186993691Y-112921240D01*
X187412267Y-113004500D01*
X187694933Y-113004500D01*
X187920832Y-112959566D01*
X185879899Y-115000500D01*
X185063243Y-115000500D01*
X184879777Y-114725923D01*
X184405109Y-114408760D01*
X183986533Y-114325500D01*
X183703867Y-114325500D01*
X183666534Y-114332926D01*
X183722194Y-114309871D01*
X184083671Y-113948394D01*
X184279300Y-113476102D01*
X184279300Y-113235500D01*
X184391302Y-113235500D01*
X184391302Y-113076752D01*
X184550050Y-113235500D01*
X185040610Y-113235500D01*
X185273999Y-113138827D01*
X185452627Y-112960198D01*
X185549300Y-112726809D01*
X185549300Y-112236250D01*
X185390550Y-112077500D01*
X184391300Y-112077500D01*
X184391300Y-112097500D01*
X184137300Y-112097500D01*
X184137300Y-112077500D01*
X184117300Y-112077500D01*
X184117300Y-111823500D01*
X184137300Y-111823500D01*
X184137300Y-111803500D01*
X184391300Y-111803500D01*
X184391300Y-111823500D01*
X185390550Y-111823500D01*
X185549300Y-111664750D01*
X185549300Y-111529501D01*
X186098443Y-111529501D01*
X186090487Y-111569500D01*
X186090487Y-111569500D01*
G37*
X186090487Y-111569500D02*
X186201860Y-112129409D01*
X186519023Y-112604077D01*
X186993691Y-112921240D01*
X187412267Y-113004500D01*
X187694933Y-113004500D01*
X187920832Y-112959566D01*
X185879899Y-115000500D01*
X185063243Y-115000500D01*
X184879777Y-114725923D01*
X184405109Y-114408760D01*
X183986533Y-114325500D01*
X183703867Y-114325500D01*
X183666534Y-114332926D01*
X183722194Y-114309871D01*
X184083671Y-113948394D01*
X184279300Y-113476102D01*
X184279300Y-113235500D01*
X184391302Y-113235500D01*
X184391302Y-113076752D01*
X184550050Y-113235500D01*
X185040610Y-113235500D01*
X185273999Y-113138827D01*
X185452627Y-112960198D01*
X185549300Y-112726809D01*
X185549300Y-112236250D01*
X185390550Y-112077500D01*
X184391300Y-112077500D01*
X184391300Y-112097500D01*
X184137300Y-112097500D01*
X184137300Y-112077500D01*
X184117300Y-112077500D01*
X184117300Y-111823500D01*
X184137300Y-111823500D01*
X184137300Y-111803500D01*
X184391300Y-111803500D01*
X184391300Y-111823500D01*
X185390550Y-111823500D01*
X185549300Y-111664750D01*
X185549300Y-111529501D01*
X186098443Y-111529501D01*
X186090487Y-111569500D01*
G36*
X135559800Y-111556800D02*
X135579800Y-111556800D01*
X135579800Y-111810800D01*
X135559800Y-111810800D01*
X135559800Y-111830800D01*
X135305800Y-111830800D01*
X135305800Y-111810800D01*
X135285800Y-111810800D01*
X135285800Y-111556800D01*
X135305800Y-111556800D01*
X135305800Y-111536800D01*
X135559800Y-111536800D01*
X135559800Y-111556800D01*
X135559800Y-111556800D01*
G37*
X135559800Y-111556800D02*
X135579800Y-111556800D01*
X135579800Y-111810800D01*
X135559800Y-111810800D01*
X135559800Y-111830800D01*
X135305800Y-111830800D01*
X135305800Y-111810800D01*
X135285800Y-111810800D01*
X135285800Y-111556800D01*
X135305800Y-111556800D01*
X135305800Y-111536800D01*
X135559800Y-111536800D01*
X135559800Y-111556800D01*
G36*
X146611466Y-79552862D02*
X147015138Y-79956534D01*
X147542561Y-80175000D01*
X148113439Y-80175000D01*
X148166301Y-80153104D01*
X148761673Y-80748476D01*
X148804071Y-80811929D01*
X148867524Y-80854327D01*
X148867526Y-80854329D01*
X148952435Y-80911063D01*
X149055463Y-80979904D01*
X149277148Y-81024000D01*
X149277152Y-81024000D01*
X149351999Y-81038888D01*
X149426846Y-81024000D01*
X159451199Y-81024000D01*
X161969670Y-83542472D01*
X162012071Y-83605929D01*
X162075527Y-83648329D01*
X162263462Y-83773904D01*
X162311605Y-83783480D01*
X162485148Y-83818000D01*
X162485152Y-83818000D01*
X162560000Y-83832888D01*
X162634848Y-83818000D01*
X176723199Y-83818000D01*
X179082434Y-86177236D01*
X179042520Y-86193769D01*
X178751369Y-86484920D01*
X178593800Y-86865326D01*
X178593800Y-87277074D01*
X178751369Y-87657480D01*
X178868800Y-87774911D01*
X178868800Y-88139353D01*
X178853912Y-88214200D01*
X178868800Y-88289047D01*
X178868800Y-88289051D01*
X178912896Y-88510736D01*
X179080871Y-88762129D01*
X179144330Y-88804531D01*
X182272401Y-91932603D01*
X182272400Y-96368953D01*
X182257512Y-96443800D01*
X182272400Y-96518647D01*
X182272400Y-96518651D01*
X182316496Y-96740336D01*
X182484471Y-96991729D01*
X182547930Y-97034131D01*
X188792071Y-103278273D01*
X188834471Y-103341729D01*
X189085863Y-103509704D01*
X189307548Y-103553800D01*
X189307552Y-103553800D01*
X189382399Y-103568688D01*
X189457246Y-103553800D01*
X190810970Y-103553800D01*
X190832866Y-103606662D01*
X191236538Y-104010334D01*
X191763961Y-104228800D01*
X192308199Y-104228800D01*
X192293399Y-104243600D01*
X191286048Y-104243600D01*
X191211200Y-104228712D01*
X191136352Y-104243600D01*
X191136348Y-104243600D01*
X190972020Y-104276287D01*
X190914662Y-104287696D01*
X190745378Y-104400809D01*
X190663271Y-104455671D01*
X190620871Y-104519127D01*
X188923330Y-106216669D01*
X188859871Y-106259071D01*
X188691896Y-106510464D01*
X188647800Y-106732149D01*
X188647800Y-106732153D01*
X188632912Y-106807000D01*
X188647800Y-106881848D01*
X188647801Y-107508198D01*
X187975399Y-108180600D01*
X179549902Y-108180600D01*
X178208088Y-106838787D01*
X178272513Y-106514900D01*
X178161140Y-105954991D01*
X177843977Y-105480323D01*
X177369309Y-105163160D01*
X176950733Y-105079900D01*
X176668067Y-105079900D01*
X176249491Y-105163160D01*
X176165209Y-105219475D01*
X176165209Y-104089225D01*
X176249491Y-104145540D01*
X176668067Y-104228800D01*
X176950733Y-104228800D01*
X177369309Y-104145540D01*
X177843977Y-103828377D01*
X178161140Y-103353709D01*
X178272513Y-102793800D01*
X178161140Y-102233891D01*
X177843977Y-101759223D01*
X177369309Y-101442060D01*
X176950733Y-101358800D01*
X176668067Y-101358800D01*
X176249491Y-101442060D01*
X175774823Y-101759223D01*
X175457660Y-102233891D01*
X175438886Y-102328274D01*
X174530941Y-101420330D01*
X174488539Y-101356871D01*
X174237147Y-101188896D01*
X174015462Y-101144800D01*
X174015457Y-101144800D01*
X173940610Y-101129912D01*
X173865763Y-101144800D01*
X165516402Y-101144800D01*
X165250400Y-100878799D01*
X165250400Y-98612801D01*
X167832474Y-96030728D01*
X167895930Y-95988328D01*
X168063905Y-95736936D01*
X168108001Y-95515251D01*
X168108001Y-95515247D01*
X168122889Y-95440400D01*
X168117837Y-95415000D01*
X168433439Y-95415000D01*
X168960862Y-95196534D01*
X169364534Y-94792862D01*
X169418000Y-94663784D01*
X169471466Y-94792862D01*
X169875138Y-95196534D01*
X170402561Y-95415000D01*
X170973439Y-95415000D01*
X171500862Y-95196534D01*
X171904534Y-94792862D01*
X171958000Y-94663784D01*
X172011466Y-94792862D01*
X172415138Y-95196534D01*
X172942561Y-95415000D01*
X173513439Y-95415000D01*
X174040862Y-95196534D01*
X174444534Y-94792862D01*
X174498000Y-94663784D01*
X174551466Y-94792862D01*
X174955138Y-95196534D01*
X175482561Y-95415000D01*
X176053439Y-95415000D01*
X176580862Y-95196534D01*
X176984534Y-94792862D01*
X177203000Y-94265439D01*
X177203000Y-93694561D01*
X176984534Y-93167138D01*
X176580862Y-92763466D01*
X176053439Y-92545000D01*
X175482561Y-92545000D01*
X174955138Y-92763466D01*
X174551466Y-93167138D01*
X174498000Y-93296216D01*
X174444534Y-93167138D01*
X174040862Y-92763466D01*
X173911784Y-92710000D01*
X174040862Y-92656534D01*
X174444534Y-92252862D01*
X174663000Y-91725439D01*
X174663000Y-91154561D01*
X174444534Y-90627138D01*
X174040862Y-90223466D01*
X173513439Y-90005000D01*
X172942561Y-90005000D01*
X172415138Y-90223466D01*
X172011466Y-90627138D01*
X171793000Y-91154561D01*
X171793000Y-91725439D01*
X172011466Y-92252862D01*
X172415138Y-92656534D01*
X172544216Y-92710000D01*
X172415138Y-92763466D01*
X172011466Y-93167138D01*
X171958000Y-93296216D01*
X171904534Y-93167138D01*
X171500862Y-92763466D01*
X170973439Y-92545000D01*
X170402561Y-92545000D01*
X169875138Y-92763466D01*
X169471466Y-93167138D01*
X169418000Y-93296216D01*
X169364534Y-93167138D01*
X168960862Y-92763466D01*
X168831784Y-92710000D01*
X168960862Y-92656534D01*
X169364534Y-92252862D01*
X169583000Y-91725439D01*
X169583000Y-91154561D01*
X169364534Y-90627138D01*
X168960862Y-90223466D01*
X168433439Y-90005000D01*
X167862561Y-90005000D01*
X167335138Y-90223466D01*
X166931466Y-90627138D01*
X166878000Y-90756216D01*
X166824534Y-90627138D01*
X166420862Y-90223466D01*
X165893439Y-90005000D01*
X165322561Y-90005000D01*
X164795138Y-90223466D01*
X164391466Y-90627138D01*
X164338000Y-90756216D01*
X164284534Y-90627138D01*
X163880862Y-90223466D01*
X163353439Y-90005000D01*
X162782561Y-90005000D01*
X162255138Y-90223466D01*
X161851466Y-90627138D01*
X161633000Y-91154561D01*
X161633000Y-91725439D01*
X161851466Y-92252862D01*
X162255138Y-92656534D01*
X162384216Y-92710000D01*
X162255138Y-92763466D01*
X161851466Y-93167138D01*
X161798000Y-93296216D01*
X161744534Y-93167138D01*
X161340862Y-92763466D01*
X160813439Y-92545000D01*
X160242561Y-92545000D01*
X159715138Y-92763466D01*
X159311466Y-93167138D01*
X159258000Y-93296216D01*
X159204534Y-93167138D01*
X158800862Y-92763466D01*
X158273439Y-92545000D01*
X157702561Y-92545000D01*
X157175138Y-92763466D01*
X156771466Y-93167138D01*
X156718000Y-93296216D01*
X156664534Y-93167138D01*
X156260862Y-92763466D01*
X155733439Y-92545000D01*
X155162561Y-92545000D01*
X154635138Y-92763466D01*
X154231466Y-93167138D01*
X154178000Y-93296216D01*
X154124534Y-93167138D01*
X153720862Y-92763466D01*
X153193439Y-92545000D01*
X152622561Y-92545000D01*
X152095138Y-92763466D01*
X151691466Y-93167138D01*
X151638000Y-93296216D01*
X151584534Y-93167138D01*
X151180862Y-92763466D01*
X150653439Y-92545000D01*
X150082561Y-92545000D01*
X149555138Y-92763466D01*
X149151466Y-93167138D01*
X149098000Y-93296216D01*
X149044534Y-93167138D01*
X148640862Y-92763466D01*
X148113439Y-92545000D01*
X147542561Y-92545000D01*
X147015138Y-92763466D01*
X146611466Y-93167138D01*
X146558000Y-93296216D01*
X146504534Y-93167138D01*
X146100862Y-92763466D01*
X145573439Y-92545000D01*
X145002561Y-92545000D01*
X144475138Y-92763466D01*
X144071466Y-93167138D01*
X144018000Y-93296216D01*
X143964534Y-93167138D01*
X143560862Y-92763466D01*
X143431784Y-92710000D01*
X143560862Y-92656534D01*
X143964534Y-92252862D01*
X144183000Y-91725439D01*
X144183000Y-91154561D01*
X143964534Y-90627138D01*
X143560862Y-90223466D01*
X143431784Y-90170000D01*
X143560862Y-90116534D01*
X143964534Y-89712862D01*
X144018000Y-89583784D01*
X144071466Y-89712862D01*
X144475138Y-90116534D01*
X145002561Y-90335000D01*
X145573439Y-90335000D01*
X146100862Y-90116534D01*
X146504534Y-89712862D01*
X146558000Y-89583784D01*
X146611466Y-89712862D01*
X147015138Y-90116534D01*
X147542561Y-90335000D01*
X148113439Y-90335000D01*
X148640862Y-90116534D01*
X149044534Y-89712862D01*
X149098000Y-89583784D01*
X149151466Y-89712862D01*
X149555138Y-90116534D01*
X150082561Y-90335000D01*
X150653439Y-90335000D01*
X151180862Y-90116534D01*
X151584534Y-89712862D01*
X151638000Y-89583784D01*
X151691466Y-89712862D01*
X152095138Y-90116534D01*
X152622561Y-90335000D01*
X153193439Y-90335000D01*
X153720862Y-90116534D01*
X154124534Y-89712862D01*
X154178000Y-89583784D01*
X154231466Y-89712862D01*
X154635138Y-90116534D01*
X155162561Y-90335000D01*
X155733439Y-90335000D01*
X156260862Y-90116534D01*
X156664534Y-89712862D01*
X156718000Y-89583784D01*
X156771466Y-89712862D01*
X157175138Y-90116534D01*
X157702561Y-90335000D01*
X158273439Y-90335000D01*
X158800862Y-90116534D01*
X159204534Y-89712862D01*
X159258000Y-89583784D01*
X159311466Y-89712862D01*
X159715138Y-90116534D01*
X160242561Y-90335000D01*
X160813439Y-90335000D01*
X161340862Y-90116534D01*
X161744534Y-89712862D01*
X161963000Y-89185439D01*
X161963000Y-88614561D01*
X161744534Y-88087138D01*
X161340862Y-87683466D01*
X161211784Y-87630000D01*
X161340862Y-87576534D01*
X161744534Y-87172862D01*
X161963000Y-86645439D01*
X161963000Y-86074561D01*
X161950642Y-86044724D01*
X164023000Y-86044724D01*
X164023000Y-86675276D01*
X164264302Y-87257830D01*
X164710170Y-87703698D01*
X165292724Y-87945000D01*
X165923276Y-87945000D01*
X166505830Y-87703698D01*
X166951698Y-87257830D01*
X167193000Y-86675276D01*
X167193000Y-86044724D01*
X167833000Y-86044724D01*
X167833000Y-86675276D01*
X168074302Y-87257830D01*
X168520170Y-87703698D01*
X169102724Y-87945000D01*
X169733276Y-87945000D01*
X170315830Y-87703698D01*
X170761698Y-87257830D01*
X171003000Y-86675276D01*
X171003000Y-86044724D01*
X170761698Y-85462170D01*
X170315830Y-85016302D01*
X169733276Y-84775000D01*
X169102724Y-84775000D01*
X168520170Y-85016302D01*
X168074302Y-85462170D01*
X167833000Y-86044724D01*
X167193000Y-86044724D01*
X166951698Y-85462170D01*
X166505830Y-85016302D01*
X165923276Y-84775000D01*
X165292724Y-84775000D01*
X164710170Y-85016302D01*
X164264302Y-85462170D01*
X164023000Y-86044724D01*
X161950642Y-86044724D01*
X161744534Y-85547138D01*
X161340862Y-85143466D01*
X160813439Y-84925000D01*
X160242561Y-84925000D01*
X159715138Y-85143466D01*
X159311466Y-85547138D01*
X159258000Y-85676216D01*
X159204534Y-85547138D01*
X158800862Y-85143466D01*
X158273439Y-84925000D01*
X157702561Y-84925000D01*
X157175138Y-85143466D01*
X156771466Y-85547138D01*
X156718000Y-85676216D01*
X156664534Y-85547138D01*
X156260862Y-85143466D01*
X155733439Y-84925000D01*
X155162561Y-84925000D01*
X154635138Y-85143466D01*
X154231466Y-85547138D01*
X154178000Y-85676216D01*
X154124534Y-85547138D01*
X153720862Y-85143466D01*
X153193439Y-84925000D01*
X152622561Y-84925000D01*
X152095138Y-85143466D01*
X151691466Y-85547138D01*
X151638000Y-85676216D01*
X151584534Y-85547138D01*
X151180862Y-85143466D01*
X150653439Y-84925000D01*
X150082561Y-84925000D01*
X149555138Y-85143466D01*
X149151466Y-85547138D01*
X149098000Y-85676216D01*
X149044534Y-85547138D01*
X148640862Y-85143466D01*
X148113439Y-84925000D01*
X147542561Y-84925000D01*
X147015138Y-85143466D01*
X146611466Y-85547138D01*
X146558000Y-85676216D01*
X146504534Y-85547138D01*
X146100862Y-85143466D01*
X145573439Y-84925000D01*
X145002561Y-84925000D01*
X144475138Y-85143466D01*
X144071466Y-85547138D01*
X144024475Y-85660583D01*
X144001864Y-85605995D01*
X143755745Y-85531861D01*
X142927605Y-86360000D01*
X143755745Y-87188139D01*
X144001864Y-87114005D01*
X144022874Y-87055552D01*
X144071466Y-87172862D01*
X144475138Y-87576534D01*
X144604216Y-87630000D01*
X144475138Y-87683466D01*
X144071466Y-88087138D01*
X144018000Y-88216216D01*
X143964534Y-88087138D01*
X143560862Y-87683466D01*
X143447417Y-87636475D01*
X143502005Y-87613864D01*
X143576139Y-87367745D01*
X142748000Y-86539605D01*
X141919861Y-87367745D01*
X141993995Y-87613864D01*
X142052448Y-87634874D01*
X141935138Y-87683466D01*
X141531466Y-88087138D01*
X141313000Y-88614561D01*
X141313000Y-89185439D01*
X141531466Y-89712862D01*
X141935138Y-90116534D01*
X142064216Y-90170000D01*
X141935138Y-90223466D01*
X141531466Y-90627138D01*
X141313000Y-91154561D01*
X141313000Y-91725439D01*
X141531466Y-92252862D01*
X141935138Y-92656534D01*
X142064216Y-92710000D01*
X141935138Y-92763466D01*
X141531466Y-93167138D01*
X141313000Y-93694561D01*
X141313000Y-94265439D01*
X141531466Y-94792862D01*
X141886140Y-95147536D01*
X141852871Y-95197327D01*
X141169200Y-95880998D01*
X141169200Y-86650378D01*
X141318115Y-86501463D01*
X141328222Y-86713454D01*
X141494136Y-87114005D01*
X141740255Y-87188139D01*
X142568395Y-86360000D01*
X142554252Y-86345858D01*
X142733858Y-86166252D01*
X142748000Y-86180395D01*
X143576139Y-85352255D01*
X143502005Y-85106136D01*
X143443552Y-85085126D01*
X143560862Y-85036534D01*
X143964534Y-84632862D01*
X144183000Y-84105439D01*
X144183000Y-83534561D01*
X143964534Y-83007138D01*
X143560862Y-82603466D01*
X143431784Y-82550000D01*
X143560862Y-82496534D01*
X143964534Y-82092862D01*
X144183000Y-81565439D01*
X144183000Y-80994561D01*
X143964534Y-80467138D01*
X143560862Y-80063466D01*
X143431784Y-80010000D01*
X143560862Y-79956534D01*
X143964534Y-79552862D01*
X144018000Y-79423784D01*
X144071466Y-79552862D01*
X144475138Y-79956534D01*
X145002561Y-80175000D01*
X145573439Y-80175000D01*
X146100862Y-79956534D01*
X146504534Y-79552862D01*
X146558000Y-79423784D01*
X146611466Y-79552862D01*
X146611466Y-79552862D01*
G37*
X146611466Y-79552862D02*
X147015138Y-79956534D01*
X147542561Y-80175000D01*
X148113439Y-80175000D01*
X148166301Y-80153104D01*
X148761673Y-80748476D01*
X148804071Y-80811929D01*
X148867524Y-80854327D01*
X148867526Y-80854329D01*
X148952435Y-80911063D01*
X149055463Y-80979904D01*
X149277148Y-81024000D01*
X149277152Y-81024000D01*
X149351999Y-81038888D01*
X149426846Y-81024000D01*
X159451199Y-81024000D01*
X161969670Y-83542472D01*
X162012071Y-83605929D01*
X162075527Y-83648329D01*
X162263462Y-83773904D01*
X162311605Y-83783480D01*
X162485148Y-83818000D01*
X162485152Y-83818000D01*
X162560000Y-83832888D01*
X162634848Y-83818000D01*
X176723199Y-83818000D01*
X179082434Y-86177236D01*
X179042520Y-86193769D01*
X178751369Y-86484920D01*
X178593800Y-86865326D01*
X178593800Y-87277074D01*
X178751369Y-87657480D01*
X178868800Y-87774911D01*
X178868800Y-88139353D01*
X178853912Y-88214200D01*
X178868800Y-88289047D01*
X178868800Y-88289051D01*
X178912896Y-88510736D01*
X179080871Y-88762129D01*
X179144330Y-88804531D01*
X182272401Y-91932603D01*
X182272400Y-96368953D01*
X182257512Y-96443800D01*
X182272400Y-96518647D01*
X182272400Y-96518651D01*
X182316496Y-96740336D01*
X182484471Y-96991729D01*
X182547930Y-97034131D01*
X188792071Y-103278273D01*
X188834471Y-103341729D01*
X189085863Y-103509704D01*
X189307548Y-103553800D01*
X189307552Y-103553800D01*
X189382399Y-103568688D01*
X189457246Y-103553800D01*
X190810970Y-103553800D01*
X190832866Y-103606662D01*
X191236538Y-104010334D01*
X191763961Y-104228800D01*
X192308199Y-104228800D01*
X192293399Y-104243600D01*
X191286048Y-104243600D01*
X191211200Y-104228712D01*
X191136352Y-104243600D01*
X191136348Y-104243600D01*
X190972020Y-104276287D01*
X190914662Y-104287696D01*
X190745378Y-104400809D01*
X190663271Y-104455671D01*
X190620871Y-104519127D01*
X188923330Y-106216669D01*
X188859871Y-106259071D01*
X188691896Y-106510464D01*
X188647800Y-106732149D01*
X188647800Y-106732153D01*
X188632912Y-106807000D01*
X188647800Y-106881848D01*
X188647801Y-107508198D01*
X187975399Y-108180600D01*
X179549902Y-108180600D01*
X178208088Y-106838787D01*
X178272513Y-106514900D01*
X178161140Y-105954991D01*
X177843977Y-105480323D01*
X177369309Y-105163160D01*
X176950733Y-105079900D01*
X176668067Y-105079900D01*
X176249491Y-105163160D01*
X176165209Y-105219475D01*
X176165209Y-104089225D01*
X176249491Y-104145540D01*
X176668067Y-104228800D01*
X176950733Y-104228800D01*
X177369309Y-104145540D01*
X177843977Y-103828377D01*
X178161140Y-103353709D01*
X178272513Y-102793800D01*
X178161140Y-102233891D01*
X177843977Y-101759223D01*
X177369309Y-101442060D01*
X176950733Y-101358800D01*
X176668067Y-101358800D01*
X176249491Y-101442060D01*
X175774823Y-101759223D01*
X175457660Y-102233891D01*
X175438886Y-102328274D01*
X174530941Y-101420330D01*
X174488539Y-101356871D01*
X174237147Y-101188896D01*
X174015462Y-101144800D01*
X174015457Y-101144800D01*
X173940610Y-101129912D01*
X173865763Y-101144800D01*
X165516402Y-101144800D01*
X165250400Y-100878799D01*
X165250400Y-98612801D01*
X167832474Y-96030728D01*
X167895930Y-95988328D01*
X168063905Y-95736936D01*
X168108001Y-95515251D01*
X168108001Y-95515247D01*
X168122889Y-95440400D01*
X168117837Y-95415000D01*
X168433439Y-95415000D01*
X168960862Y-95196534D01*
X169364534Y-94792862D01*
X169418000Y-94663784D01*
X169471466Y-94792862D01*
X169875138Y-95196534D01*
X170402561Y-95415000D01*
X170973439Y-95415000D01*
X171500862Y-95196534D01*
X171904534Y-94792862D01*
X171958000Y-94663784D01*
X172011466Y-94792862D01*
X172415138Y-95196534D01*
X172942561Y-95415000D01*
X173513439Y-95415000D01*
X174040862Y-95196534D01*
X174444534Y-94792862D01*
X174498000Y-94663784D01*
X174551466Y-94792862D01*
X174955138Y-95196534D01*
X175482561Y-95415000D01*
X176053439Y-95415000D01*
X176580862Y-95196534D01*
X176984534Y-94792862D01*
X177203000Y-94265439D01*
X177203000Y-93694561D01*
X176984534Y-93167138D01*
X176580862Y-92763466D01*
X176053439Y-92545000D01*
X175482561Y-92545000D01*
X174955138Y-92763466D01*
X174551466Y-93167138D01*
X174498000Y-93296216D01*
X174444534Y-93167138D01*
X174040862Y-92763466D01*
X173911784Y-92710000D01*
X174040862Y-92656534D01*
X174444534Y-92252862D01*
X174663000Y-91725439D01*
X174663000Y-91154561D01*
X174444534Y-90627138D01*
X174040862Y-90223466D01*
X173513439Y-90005000D01*
X172942561Y-90005000D01*
X172415138Y-90223466D01*
X172011466Y-90627138D01*
X171793000Y-91154561D01*
X171793000Y-91725439D01*
X172011466Y-92252862D01*
X172415138Y-92656534D01*
X172544216Y-92710000D01*
X172415138Y-92763466D01*
X172011466Y-93167138D01*
X171958000Y-93296216D01*
X171904534Y-93167138D01*
X171500862Y-92763466D01*
X170973439Y-92545000D01*
X170402561Y-92545000D01*
X169875138Y-92763466D01*
X169471466Y-93167138D01*
X169418000Y-93296216D01*
X169364534Y-93167138D01*
X168960862Y-92763466D01*
X168831784Y-92710000D01*
X168960862Y-92656534D01*
X169364534Y-92252862D01*
X169583000Y-91725439D01*
X169583000Y-91154561D01*
X169364534Y-90627138D01*
X168960862Y-90223466D01*
X168433439Y-90005000D01*
X167862561Y-90005000D01*
X167335138Y-90223466D01*
X166931466Y-90627138D01*
X166878000Y-90756216D01*
X166824534Y-90627138D01*
X166420862Y-90223466D01*
X165893439Y-90005000D01*
X165322561Y-90005000D01*
X164795138Y-90223466D01*
X164391466Y-90627138D01*
X164338000Y-90756216D01*
X164284534Y-90627138D01*
X163880862Y-90223466D01*
X163353439Y-90005000D01*
X162782561Y-90005000D01*
X162255138Y-90223466D01*
X161851466Y-90627138D01*
X161633000Y-91154561D01*
X161633000Y-91725439D01*
X161851466Y-92252862D01*
X162255138Y-92656534D01*
X162384216Y-92710000D01*
X162255138Y-92763466D01*
X161851466Y-93167138D01*
X161798000Y-93296216D01*
X161744534Y-93167138D01*
X161340862Y-92763466D01*
X160813439Y-92545000D01*
X160242561Y-92545000D01*
X159715138Y-92763466D01*
X159311466Y-93167138D01*
X159258000Y-93296216D01*
X159204534Y-93167138D01*
X158800862Y-92763466D01*
X158273439Y-92545000D01*
X157702561Y-92545000D01*
X157175138Y-92763466D01*
X156771466Y-93167138D01*
X156718000Y-93296216D01*
X156664534Y-93167138D01*
X156260862Y-92763466D01*
X155733439Y-92545000D01*
X155162561Y-92545000D01*
X154635138Y-92763466D01*
X154231466Y-93167138D01*
X154178000Y-93296216D01*
X154124534Y-93167138D01*
X153720862Y-92763466D01*
X153193439Y-92545000D01*
X152622561Y-92545000D01*
X152095138Y-92763466D01*
X151691466Y-93167138D01*
X151638000Y-93296216D01*
X151584534Y-93167138D01*
X151180862Y-92763466D01*
X150653439Y-92545000D01*
X150082561Y-92545000D01*
X149555138Y-92763466D01*
X149151466Y-93167138D01*
X149098000Y-93296216D01*
X149044534Y-93167138D01*
X148640862Y-92763466D01*
X148113439Y-92545000D01*
X147542561Y-92545000D01*
X147015138Y-92763466D01*
X146611466Y-93167138D01*
X146558000Y-93296216D01*
X146504534Y-93167138D01*
X146100862Y-92763466D01*
X145573439Y-92545000D01*
X145002561Y-92545000D01*
X144475138Y-92763466D01*
X144071466Y-93167138D01*
X144018000Y-93296216D01*
X143964534Y-93167138D01*
X143560862Y-92763466D01*
X143431784Y-92710000D01*
X143560862Y-92656534D01*
X143964534Y-92252862D01*
X144183000Y-91725439D01*
X144183000Y-91154561D01*
X143964534Y-90627138D01*
X143560862Y-90223466D01*
X143431784Y-90170000D01*
X143560862Y-90116534D01*
X143964534Y-89712862D01*
X144018000Y-89583784D01*
X144071466Y-89712862D01*
X144475138Y-90116534D01*
X145002561Y-90335000D01*
X145573439Y-90335000D01*
X146100862Y-90116534D01*
X146504534Y-89712862D01*
X146558000Y-89583784D01*
X146611466Y-89712862D01*
X147015138Y-90116534D01*
X147542561Y-90335000D01*
X148113439Y-90335000D01*
X148640862Y-90116534D01*
X149044534Y-89712862D01*
X149098000Y-89583784D01*
X149151466Y-89712862D01*
X149555138Y-90116534D01*
X150082561Y-90335000D01*
X150653439Y-90335000D01*
X151180862Y-90116534D01*
X151584534Y-89712862D01*
X151638000Y-89583784D01*
X151691466Y-89712862D01*
X152095138Y-90116534D01*
X152622561Y-90335000D01*
X153193439Y-90335000D01*
X153720862Y-90116534D01*
X154124534Y-89712862D01*
X154178000Y-89583784D01*
X154231466Y-89712862D01*
X154635138Y-90116534D01*
X155162561Y-90335000D01*
X155733439Y-90335000D01*
X156260862Y-90116534D01*
X156664534Y-89712862D01*
X156718000Y-89583784D01*
X156771466Y-89712862D01*
X157175138Y-90116534D01*
X157702561Y-90335000D01*
X158273439Y-90335000D01*
X158800862Y-90116534D01*
X159204534Y-89712862D01*
X159258000Y-89583784D01*
X159311466Y-89712862D01*
X159715138Y-90116534D01*
X160242561Y-90335000D01*
X160813439Y-90335000D01*
X161340862Y-90116534D01*
X161744534Y-89712862D01*
X161963000Y-89185439D01*
X161963000Y-88614561D01*
X161744534Y-88087138D01*
X161340862Y-87683466D01*
X161211784Y-87630000D01*
X161340862Y-87576534D01*
X161744534Y-87172862D01*
X161963000Y-86645439D01*
X161963000Y-86074561D01*
X161950642Y-86044724D01*
X164023000Y-86044724D01*
X164023000Y-86675276D01*
X164264302Y-87257830D01*
X164710170Y-87703698D01*
X165292724Y-87945000D01*
X165923276Y-87945000D01*
X166505830Y-87703698D01*
X166951698Y-87257830D01*
X167193000Y-86675276D01*
X167193000Y-86044724D01*
X167833000Y-86044724D01*
X167833000Y-86675276D01*
X168074302Y-87257830D01*
X168520170Y-87703698D01*
X169102724Y-87945000D01*
X169733276Y-87945000D01*
X170315830Y-87703698D01*
X170761698Y-87257830D01*
X171003000Y-86675276D01*
X171003000Y-86044724D01*
X170761698Y-85462170D01*
X170315830Y-85016302D01*
X169733276Y-84775000D01*
X169102724Y-84775000D01*
X168520170Y-85016302D01*
X168074302Y-85462170D01*
X167833000Y-86044724D01*
X167193000Y-86044724D01*
X166951698Y-85462170D01*
X166505830Y-85016302D01*
X165923276Y-84775000D01*
X165292724Y-84775000D01*
X164710170Y-85016302D01*
X164264302Y-85462170D01*
X164023000Y-86044724D01*
X161950642Y-86044724D01*
X161744534Y-85547138D01*
X161340862Y-85143466D01*
X160813439Y-84925000D01*
X160242561Y-84925000D01*
X159715138Y-85143466D01*
X159311466Y-85547138D01*
X159258000Y-85676216D01*
X159204534Y-85547138D01*
X158800862Y-85143466D01*
X158273439Y-84925000D01*
X157702561Y-84925000D01*
X157175138Y-85143466D01*
X156771466Y-85547138D01*
X156718000Y-85676216D01*
X156664534Y-85547138D01*
X156260862Y-85143466D01*
X155733439Y-84925000D01*
X155162561Y-84925000D01*
X154635138Y-85143466D01*
X154231466Y-85547138D01*
X154178000Y-85676216D01*
X154124534Y-85547138D01*
X153720862Y-85143466D01*
X153193439Y-84925000D01*
X152622561Y-84925000D01*
X152095138Y-85143466D01*
X151691466Y-85547138D01*
X151638000Y-85676216D01*
X151584534Y-85547138D01*
X151180862Y-85143466D01*
X150653439Y-84925000D01*
X150082561Y-84925000D01*
X149555138Y-85143466D01*
X149151466Y-85547138D01*
X149098000Y-85676216D01*
X149044534Y-85547138D01*
X148640862Y-85143466D01*
X148113439Y-84925000D01*
X147542561Y-84925000D01*
X147015138Y-85143466D01*
X146611466Y-85547138D01*
X146558000Y-85676216D01*
X146504534Y-85547138D01*
X146100862Y-85143466D01*
X145573439Y-84925000D01*
X145002561Y-84925000D01*
X144475138Y-85143466D01*
X144071466Y-85547138D01*
X144024475Y-85660583D01*
X144001864Y-85605995D01*
X143755745Y-85531861D01*
X142927605Y-86360000D01*
X143755745Y-87188139D01*
X144001864Y-87114005D01*
X144022874Y-87055552D01*
X144071466Y-87172862D01*
X144475138Y-87576534D01*
X144604216Y-87630000D01*
X144475138Y-87683466D01*
X144071466Y-88087138D01*
X144018000Y-88216216D01*
X143964534Y-88087138D01*
X143560862Y-87683466D01*
X143447417Y-87636475D01*
X143502005Y-87613864D01*
X143576139Y-87367745D01*
X142748000Y-86539605D01*
X141919861Y-87367745D01*
X141993995Y-87613864D01*
X142052448Y-87634874D01*
X141935138Y-87683466D01*
X141531466Y-88087138D01*
X141313000Y-88614561D01*
X141313000Y-89185439D01*
X141531466Y-89712862D01*
X141935138Y-90116534D01*
X142064216Y-90170000D01*
X141935138Y-90223466D01*
X141531466Y-90627138D01*
X141313000Y-91154561D01*
X141313000Y-91725439D01*
X141531466Y-92252862D01*
X141935138Y-92656534D01*
X142064216Y-92710000D01*
X141935138Y-92763466D01*
X141531466Y-93167138D01*
X141313000Y-93694561D01*
X141313000Y-94265439D01*
X141531466Y-94792862D01*
X141886140Y-95147536D01*
X141852871Y-95197327D01*
X141169200Y-95880998D01*
X141169200Y-86650378D01*
X141318115Y-86501463D01*
X141328222Y-86713454D01*
X141494136Y-87114005D01*
X141740255Y-87188139D01*
X142568395Y-86360000D01*
X142554252Y-86345858D01*
X142733858Y-86166252D01*
X142748000Y-86180395D01*
X143576139Y-85352255D01*
X143502005Y-85106136D01*
X143443552Y-85085126D01*
X143560862Y-85036534D01*
X143964534Y-84632862D01*
X144183000Y-84105439D01*
X144183000Y-83534561D01*
X143964534Y-83007138D01*
X143560862Y-82603466D01*
X143431784Y-82550000D01*
X143560862Y-82496534D01*
X143964534Y-82092862D01*
X144183000Y-81565439D01*
X144183000Y-80994561D01*
X143964534Y-80467138D01*
X143560862Y-80063466D01*
X143431784Y-80010000D01*
X143560862Y-79956534D01*
X143964534Y-79552862D01*
X144018000Y-79423784D01*
X144071466Y-79552862D01*
X144475138Y-79956534D01*
X145002561Y-80175000D01*
X145573439Y-80175000D01*
X146100862Y-79956534D01*
X146504534Y-79552862D01*
X146558000Y-79423784D01*
X146611466Y-79552862D01*
G36*
X112692000Y-102616000D02*
X112712000Y-102616000D01*
X112712000Y-102870000D01*
X112692000Y-102870000D01*
X112692000Y-104419250D01*
X112850750Y-104578000D01*
X113191309Y-104578000D01*
X113424698Y-104481327D01*
X113603327Y-104302699D01*
X113661279Y-104162791D01*
X113666843Y-104190765D01*
X113807191Y-104400809D01*
X114005000Y-104532982D01*
X114005000Y-105622353D01*
X113990112Y-105697200D01*
X114005000Y-105772047D01*
X114005000Y-105772051D01*
X114049096Y-105993736D01*
X114217071Y-106245129D01*
X114280529Y-106287530D01*
X114319399Y-106326400D01*
X113903602Y-106326400D01*
X112355688Y-104778487D01*
X112347872Y-104509378D01*
X112438000Y-104419250D01*
X112438000Y-102870000D01*
X112418000Y-102870000D01*
X112418000Y-102616000D01*
X112438000Y-102616000D01*
X112438000Y-102596000D01*
X112692000Y-102596000D01*
X112692000Y-102616000D01*
X112692000Y-102616000D01*
G37*
X112692000Y-102616000D02*
X112712000Y-102616000D01*
X112712000Y-102870000D01*
X112692000Y-102870000D01*
X112692000Y-104419250D01*
X112850750Y-104578000D01*
X113191309Y-104578000D01*
X113424698Y-104481327D01*
X113603327Y-104302699D01*
X113661279Y-104162791D01*
X113666843Y-104190765D01*
X113807191Y-104400809D01*
X114005000Y-104532982D01*
X114005000Y-105622353D01*
X113990112Y-105697200D01*
X114005000Y-105772047D01*
X114005000Y-105772051D01*
X114049096Y-105993736D01*
X114217071Y-106245129D01*
X114280529Y-106287530D01*
X114319399Y-106326400D01*
X113903602Y-106326400D01*
X112355688Y-104778487D01*
X112347872Y-104509378D01*
X112438000Y-104419250D01*
X112438000Y-102870000D01*
X112418000Y-102870000D01*
X112418000Y-102616000D01*
X112438000Y-102616000D01*
X112438000Y-102596000D01*
X112692000Y-102596000D01*
X112692000Y-102616000D01*
G36*
X189065000Y-89884561D02*
X189065000Y-90455439D01*
X189283466Y-90982862D01*
X189687138Y-91386534D01*
X190214561Y-91605000D01*
X190785439Y-91605000D01*
X191312862Y-91386534D01*
X191644396Y-91055000D01*
X196737422Y-91055000D01*
X197235000Y-91552579D01*
X197235001Y-93797579D01*
X196871081Y-94161499D01*
X196849362Y-94213933D01*
X196615413Y-94140192D01*
X195759605Y-94996000D01*
X196615413Y-95851808D01*
X196849362Y-95778067D01*
X196871081Y-95830501D01*
X197285499Y-96244919D01*
X197826962Y-96469200D01*
X198413038Y-96469200D01*
X198954501Y-96244919D01*
X199368919Y-95830501D01*
X199390000Y-95779607D01*
X199411081Y-95830501D01*
X199825499Y-96244919D01*
X200366962Y-96469200D01*
X200953038Y-96469200D01*
X201494501Y-96244919D01*
X201908919Y-95830501D01*
X201930000Y-95779607D01*
X201951081Y-95830501D01*
X202365499Y-96244919D01*
X202906962Y-96469200D01*
X203493038Y-96469200D01*
X203543601Y-96448256D01*
X203543600Y-97611756D01*
X203509060Y-97634835D01*
X203438298Y-97564073D01*
X203204909Y-97467400D01*
X202839350Y-97467400D01*
X202680600Y-97626150D01*
X202680600Y-98450400D01*
X202700600Y-98450400D01*
X202700600Y-98704400D01*
X202680600Y-98704400D01*
X202680600Y-99528650D01*
X202839350Y-99687400D01*
X203204909Y-99687400D01*
X203438298Y-99590727D01*
X203509060Y-99519965D01*
X203677448Y-99632478D01*
X204016100Y-99699840D01*
X204591100Y-99699840D01*
X204929752Y-99632478D01*
X205157000Y-99480635D01*
X205157000Y-100946500D01*
X205028600Y-100920960D01*
X204028600Y-100920960D01*
X203780835Y-100970243D01*
X203570791Y-101110591D01*
X203430443Y-101320635D01*
X203424879Y-101348609D01*
X203366927Y-101208701D01*
X203188298Y-101030073D01*
X202954909Y-100933400D01*
X202614350Y-100933400D01*
X202455600Y-101092150D01*
X202455600Y-102641400D01*
X202475600Y-102641400D01*
X202475600Y-102895400D01*
X202455600Y-102895400D01*
X202455600Y-104444650D01*
X202614350Y-104603400D01*
X202954909Y-104603400D01*
X203188298Y-104506727D01*
X203366927Y-104328099D01*
X203424879Y-104188191D01*
X203430443Y-104216165D01*
X203477383Y-104286415D01*
X202008899Y-105754900D01*
X193287830Y-105754900D01*
X193265934Y-105702038D01*
X193131729Y-105567833D01*
X193156129Y-105551529D01*
X193198531Y-105488070D01*
X194134073Y-104552529D01*
X194197529Y-104510129D01*
X194365504Y-104258737D01*
X194409600Y-104037052D01*
X194409600Y-104037048D01*
X194424488Y-103962201D01*
X194409600Y-103887354D01*
X194409600Y-103054150D01*
X201193600Y-103054150D01*
X201193600Y-104094710D01*
X201290273Y-104328099D01*
X201468902Y-104506727D01*
X201702291Y-104603400D01*
X202042850Y-104603400D01*
X202201600Y-104444650D01*
X202201600Y-102895400D01*
X201352350Y-102895400D01*
X201193600Y-103054150D01*
X194409600Y-103054150D01*
X194409600Y-102081248D01*
X194424488Y-102006400D01*
X194409600Y-101931552D01*
X194409600Y-101931548D01*
X194365504Y-101709863D01*
X194365504Y-101709862D01*
X194239929Y-101521927D01*
X194197529Y-101458471D01*
X194173014Y-101442090D01*
X201193600Y-101442090D01*
X201193600Y-102482650D01*
X201352350Y-102641400D01*
X202201600Y-102641400D01*
X202201600Y-101092150D01*
X202042850Y-100933400D01*
X201702291Y-100933400D01*
X201468902Y-101030073D01*
X201290273Y-101208701D01*
X201193600Y-101442090D01*
X194173014Y-101442090D01*
X194134073Y-101416071D01*
X193503331Y-100785330D01*
X193460929Y-100721871D01*
X193209537Y-100553896D01*
X192987852Y-100509800D01*
X192987847Y-100509800D01*
X192913000Y-100494912D01*
X192838153Y-100509800D01*
X189062202Y-100509800D01*
X187415552Y-98863150D01*
X201393600Y-98863150D01*
X201393600Y-99178710D01*
X201490273Y-99412099D01*
X201668902Y-99590727D01*
X201902291Y-99687400D01*
X202267850Y-99687400D01*
X202426600Y-99528650D01*
X202426600Y-98704400D01*
X201552350Y-98704400D01*
X201393600Y-98863150D01*
X187415552Y-98863150D01*
X186528492Y-97976090D01*
X201393600Y-97976090D01*
X201393600Y-98291650D01*
X201552350Y-98450400D01*
X202426600Y-98450400D01*
X202426600Y-97626150D01*
X202267850Y-97467400D01*
X201902291Y-97467400D01*
X201668902Y-97564073D01*
X201490273Y-97742701D01*
X201393600Y-97976090D01*
X186528492Y-97976090D01*
X184947100Y-96394699D01*
X185126962Y-96469200D01*
X185713038Y-96469200D01*
X186254501Y-96244919D01*
X186668919Y-95830501D01*
X186690000Y-95779607D01*
X186711081Y-95830501D01*
X187125499Y-96244919D01*
X187666962Y-96469200D01*
X188253038Y-96469200D01*
X188794501Y-96244919D01*
X189208919Y-95830501D01*
X189230000Y-95779607D01*
X189251081Y-95830501D01*
X189665499Y-96244919D01*
X190206962Y-96469200D01*
X190793038Y-96469200D01*
X191334501Y-96244919D01*
X191548007Y-96031413D01*
X192184192Y-96031413D01*
X192263017Y-96281490D01*
X192814097Y-96480977D01*
X193399569Y-96454389D01*
X193816983Y-96281490D01*
X193895808Y-96031413D01*
X194724192Y-96031413D01*
X194803017Y-96281490D01*
X195354097Y-96480977D01*
X195939569Y-96454389D01*
X196356983Y-96281490D01*
X196435808Y-96031413D01*
X195580000Y-95175605D01*
X194724192Y-96031413D01*
X193895808Y-96031413D01*
X193040000Y-95175605D01*
X192184192Y-96031413D01*
X191548007Y-96031413D01*
X191748919Y-95830501D01*
X191770638Y-95778067D01*
X192004587Y-95851808D01*
X192860395Y-94996000D01*
X193219605Y-94996000D01*
X194075413Y-95851808D01*
X194310000Y-95777865D01*
X194544587Y-95851808D01*
X195400395Y-94996000D01*
X194544587Y-94140192D01*
X194310000Y-94214135D01*
X194075413Y-94140192D01*
X193219605Y-94996000D01*
X192860395Y-94996000D01*
X192004587Y-94140192D01*
X191770638Y-94213933D01*
X191748919Y-94161499D01*
X191548007Y-93960587D01*
X192184192Y-93960587D01*
X193040000Y-94816395D01*
X193895808Y-93960587D01*
X194724192Y-93960587D01*
X195580000Y-94816395D01*
X196435808Y-93960587D01*
X196356983Y-93710510D01*
X195805903Y-93511023D01*
X195220431Y-93537611D01*
X194803017Y-93710510D01*
X194724192Y-93960587D01*
X193895808Y-93960587D01*
X193816983Y-93710510D01*
X193265903Y-93511023D01*
X192680431Y-93537611D01*
X192263017Y-93710510D01*
X192184192Y-93960587D01*
X191548007Y-93960587D01*
X191334501Y-93747081D01*
X190793038Y-93522800D01*
X190206962Y-93522800D01*
X189665499Y-93747081D01*
X189251081Y-94161499D01*
X189230000Y-94212393D01*
X189208919Y-94161499D01*
X188794501Y-93747081D01*
X188720000Y-93716222D01*
X188720000Y-91006846D01*
X188734888Y-90931999D01*
X188720000Y-90857152D01*
X188720000Y-90857148D01*
X188675904Y-90635463D01*
X188601634Y-90524310D01*
X188550329Y-90447526D01*
X188550327Y-90447524D01*
X188507929Y-90384071D01*
X188444476Y-90341673D01*
X187762802Y-89660000D01*
X189158016Y-89660000D01*
X189065000Y-89884561D01*
X189065000Y-89884561D01*
G37*
X189065000Y-89884561D02*
X189065000Y-90455439D01*
X189283466Y-90982862D01*
X189687138Y-91386534D01*
X190214561Y-91605000D01*
X190785439Y-91605000D01*
X191312862Y-91386534D01*
X191644396Y-91055000D01*
X196737422Y-91055000D01*
X197235000Y-91552579D01*
X197235001Y-93797579D01*
X196871081Y-94161499D01*
X196849362Y-94213933D01*
X196615413Y-94140192D01*
X195759605Y-94996000D01*
X196615413Y-95851808D01*
X196849362Y-95778067D01*
X196871081Y-95830501D01*
X197285499Y-96244919D01*
X197826962Y-96469200D01*
X198413038Y-96469200D01*
X198954501Y-96244919D01*
X199368919Y-95830501D01*
X199390000Y-95779607D01*
X199411081Y-95830501D01*
X199825499Y-96244919D01*
X200366962Y-96469200D01*
X200953038Y-96469200D01*
X201494501Y-96244919D01*
X201908919Y-95830501D01*
X201930000Y-95779607D01*
X201951081Y-95830501D01*
X202365499Y-96244919D01*
X202906962Y-96469200D01*
X203493038Y-96469200D01*
X203543601Y-96448256D01*
X203543600Y-97611756D01*
X203509060Y-97634835D01*
X203438298Y-97564073D01*
X203204909Y-97467400D01*
X202839350Y-97467400D01*
X202680600Y-97626150D01*
X202680600Y-98450400D01*
X202700600Y-98450400D01*
X202700600Y-98704400D01*
X202680600Y-98704400D01*
X202680600Y-99528650D01*
X202839350Y-99687400D01*
X203204909Y-99687400D01*
X203438298Y-99590727D01*
X203509060Y-99519965D01*
X203677448Y-99632478D01*
X204016100Y-99699840D01*
X204591100Y-99699840D01*
X204929752Y-99632478D01*
X205157000Y-99480635D01*
X205157000Y-100946500D01*
X205028600Y-100920960D01*
X204028600Y-100920960D01*
X203780835Y-100970243D01*
X203570791Y-101110591D01*
X203430443Y-101320635D01*
X203424879Y-101348609D01*
X203366927Y-101208701D01*
X203188298Y-101030073D01*
X202954909Y-100933400D01*
X202614350Y-100933400D01*
X202455600Y-101092150D01*
X202455600Y-102641400D01*
X202475600Y-102641400D01*
X202475600Y-102895400D01*
X202455600Y-102895400D01*
X202455600Y-104444650D01*
X202614350Y-104603400D01*
X202954909Y-104603400D01*
X203188298Y-104506727D01*
X203366927Y-104328099D01*
X203424879Y-104188191D01*
X203430443Y-104216165D01*
X203477383Y-104286415D01*
X202008899Y-105754900D01*
X193287830Y-105754900D01*
X193265934Y-105702038D01*
X193131729Y-105567833D01*
X193156129Y-105551529D01*
X193198531Y-105488070D01*
X194134073Y-104552529D01*
X194197529Y-104510129D01*
X194365504Y-104258737D01*
X194409600Y-104037052D01*
X194409600Y-104037048D01*
X194424488Y-103962201D01*
X194409600Y-103887354D01*
X194409600Y-103054150D01*
X201193600Y-103054150D01*
X201193600Y-104094710D01*
X201290273Y-104328099D01*
X201468902Y-104506727D01*
X201702291Y-104603400D01*
X202042850Y-104603400D01*
X202201600Y-104444650D01*
X202201600Y-102895400D01*
X201352350Y-102895400D01*
X201193600Y-103054150D01*
X194409600Y-103054150D01*
X194409600Y-102081248D01*
X194424488Y-102006400D01*
X194409600Y-101931552D01*
X194409600Y-101931548D01*
X194365504Y-101709863D01*
X194365504Y-101709862D01*
X194239929Y-101521927D01*
X194197529Y-101458471D01*
X194173014Y-101442090D01*
X201193600Y-101442090D01*
X201193600Y-102482650D01*
X201352350Y-102641400D01*
X202201600Y-102641400D01*
X202201600Y-101092150D01*
X202042850Y-100933400D01*
X201702291Y-100933400D01*
X201468902Y-101030073D01*
X201290273Y-101208701D01*
X201193600Y-101442090D01*
X194173014Y-101442090D01*
X194134073Y-101416071D01*
X193503331Y-100785330D01*
X193460929Y-100721871D01*
X193209537Y-100553896D01*
X192987852Y-100509800D01*
X192987847Y-100509800D01*
X192913000Y-100494912D01*
X192838153Y-100509800D01*
X189062202Y-100509800D01*
X187415552Y-98863150D01*
X201393600Y-98863150D01*
X201393600Y-99178710D01*
X201490273Y-99412099D01*
X201668902Y-99590727D01*
X201902291Y-99687400D01*
X202267850Y-99687400D01*
X202426600Y-99528650D01*
X202426600Y-98704400D01*
X201552350Y-98704400D01*
X201393600Y-98863150D01*
X187415552Y-98863150D01*
X186528492Y-97976090D01*
X201393600Y-97976090D01*
X201393600Y-98291650D01*
X201552350Y-98450400D01*
X202426600Y-98450400D01*
X202426600Y-97626150D01*
X202267850Y-97467400D01*
X201902291Y-97467400D01*
X201668902Y-97564073D01*
X201490273Y-97742701D01*
X201393600Y-97976090D01*
X186528492Y-97976090D01*
X184947100Y-96394699D01*
X185126962Y-96469200D01*
X185713038Y-96469200D01*
X186254501Y-96244919D01*
X186668919Y-95830501D01*
X186690000Y-95779607D01*
X186711081Y-95830501D01*
X187125499Y-96244919D01*
X187666962Y-96469200D01*
X188253038Y-96469200D01*
X188794501Y-96244919D01*
X189208919Y-95830501D01*
X189230000Y-95779607D01*
X189251081Y-95830501D01*
X189665499Y-96244919D01*
X190206962Y-96469200D01*
X190793038Y-96469200D01*
X191334501Y-96244919D01*
X191548007Y-96031413D01*
X192184192Y-96031413D01*
X192263017Y-96281490D01*
X192814097Y-96480977D01*
X193399569Y-96454389D01*
X193816983Y-96281490D01*
X193895808Y-96031413D01*
X194724192Y-96031413D01*
X194803017Y-96281490D01*
X195354097Y-96480977D01*
X195939569Y-96454389D01*
X196356983Y-96281490D01*
X196435808Y-96031413D01*
X195580000Y-95175605D01*
X194724192Y-96031413D01*
X193895808Y-96031413D01*
X193040000Y-95175605D01*
X192184192Y-96031413D01*
X191548007Y-96031413D01*
X191748919Y-95830501D01*
X191770638Y-95778067D01*
X192004587Y-95851808D01*
X192860395Y-94996000D01*
X193219605Y-94996000D01*
X194075413Y-95851808D01*
X194310000Y-95777865D01*
X194544587Y-95851808D01*
X195400395Y-94996000D01*
X194544587Y-94140192D01*
X194310000Y-94214135D01*
X194075413Y-94140192D01*
X193219605Y-94996000D01*
X192860395Y-94996000D01*
X192004587Y-94140192D01*
X191770638Y-94213933D01*
X191748919Y-94161499D01*
X191548007Y-93960587D01*
X192184192Y-93960587D01*
X193040000Y-94816395D01*
X193895808Y-93960587D01*
X194724192Y-93960587D01*
X195580000Y-94816395D01*
X196435808Y-93960587D01*
X196356983Y-93710510D01*
X195805903Y-93511023D01*
X195220431Y-93537611D01*
X194803017Y-93710510D01*
X194724192Y-93960587D01*
X193895808Y-93960587D01*
X193816983Y-93710510D01*
X193265903Y-93511023D01*
X192680431Y-93537611D01*
X192263017Y-93710510D01*
X192184192Y-93960587D01*
X191548007Y-93960587D01*
X191334501Y-93747081D01*
X190793038Y-93522800D01*
X190206962Y-93522800D01*
X189665499Y-93747081D01*
X189251081Y-94161499D01*
X189230000Y-94212393D01*
X189208919Y-94161499D01*
X188794501Y-93747081D01*
X188720000Y-93716222D01*
X188720000Y-91006846D01*
X188734888Y-90931999D01*
X188720000Y-90857152D01*
X188720000Y-90857148D01*
X188675904Y-90635463D01*
X188601634Y-90524310D01*
X188550329Y-90447526D01*
X188550327Y-90447524D01*
X188507929Y-90384071D01*
X188444476Y-90341673D01*
X187762802Y-89660000D01*
X189158016Y-89660000D01*
X189065000Y-89884561D01*
G36*
X141531466Y-79552862D02*
X141935138Y-79956534D01*
X142064216Y-80010000D01*
X141935138Y-80063466D01*
X141531466Y-80467138D01*
X141313000Y-80994561D01*
X141313000Y-81565439D01*
X141531466Y-82092862D01*
X141935138Y-82496534D01*
X142064216Y-82550000D01*
X141935138Y-82603466D01*
X141531466Y-83007138D01*
X141313000Y-83534561D01*
X141313000Y-84003421D01*
X139720047Y-85596375D01*
X139646151Y-85645751D01*
X139450548Y-85938491D01*
X139399200Y-86196636D01*
X139399200Y-86196639D01*
X139381863Y-86283800D01*
X139399200Y-86370961D01*
X139399201Y-101532278D01*
X139249623Y-101632223D01*
X139160274Y-101765944D01*
X139152830Y-101764463D01*
X139065669Y-101781800D01*
X139065665Y-101781800D01*
X138807520Y-101833148D01*
X138588675Y-101979376D01*
X138588674Y-101979377D01*
X138514781Y-102028751D01*
X138465407Y-102102644D01*
X136957452Y-103610600D01*
X126129796Y-103610600D01*
X126260734Y-103479662D01*
X126479200Y-102952239D01*
X126479200Y-102381361D01*
X126260734Y-101853938D01*
X125857062Y-101450266D01*
X125329639Y-101231800D01*
X124758761Y-101231800D01*
X124705898Y-101253697D01*
X124415331Y-100963130D01*
X124415329Y-100963127D01*
X123754931Y-100302730D01*
X123712529Y-100239271D01*
X123461137Y-100071296D01*
X123239452Y-100027200D01*
X123239447Y-100027200D01*
X123164600Y-100012312D01*
X123089753Y-100027200D01*
X112913002Y-100027200D01*
X112901000Y-100015199D01*
X112901000Y-94377581D01*
X113077305Y-94553886D01*
X113623436Y-94780100D01*
X114214564Y-94780100D01*
X114760695Y-94553886D01*
X115178686Y-94135895D01*
X115404900Y-93589764D01*
X115404900Y-92998636D01*
X115310727Y-92771279D01*
X116370100Y-92771279D01*
X116370100Y-93817121D01*
X116770326Y-94783352D01*
X117509848Y-95522874D01*
X118476079Y-95923100D01*
X119521921Y-95923100D01*
X120488152Y-95522874D01*
X121227674Y-94783352D01*
X121627900Y-93817121D01*
X121627900Y-92998636D01*
X122593100Y-92998636D01*
X122593100Y-93589764D01*
X122819314Y-94135895D01*
X123237305Y-94553886D01*
X123783436Y-94780100D01*
X124374564Y-94780100D01*
X124920695Y-94553886D01*
X125338686Y-94135895D01*
X125564900Y-93589764D01*
X125564900Y-92998636D01*
X125338686Y-92452505D01*
X124920695Y-92034514D01*
X124374564Y-91808300D01*
X123783436Y-91808300D01*
X123237305Y-92034514D01*
X122819314Y-92452505D01*
X122593100Y-92998636D01*
X121627900Y-92998636D01*
X121627900Y-92771279D01*
X121227674Y-91805048D01*
X120660716Y-91238090D01*
X130028924Y-91238090D01*
X130198755Y-91648124D01*
X130589042Y-92076383D01*
X131113508Y-92322686D01*
X131343400Y-92202019D01*
X131343400Y-91008200D01*
X131597400Y-91008200D01*
X131597400Y-92202019D01*
X131827292Y-92322686D01*
X132351758Y-92076383D01*
X132742045Y-91648124D01*
X132911876Y-91238090D01*
X132901142Y-91217750D01*
X134328800Y-91217750D01*
X134328800Y-91908310D01*
X134425473Y-92141699D01*
X134604102Y-92320327D01*
X134837491Y-92417000D01*
X135528050Y-92417000D01*
X135686800Y-92258250D01*
X135686800Y-91059000D01*
X135940800Y-91059000D01*
X135940800Y-92258250D01*
X136099550Y-92417000D01*
X136790109Y-92417000D01*
X137023498Y-92320327D01*
X137202127Y-92141699D01*
X137298800Y-91908310D01*
X137298800Y-91217750D01*
X137140050Y-91059000D01*
X135940800Y-91059000D01*
X135686800Y-91059000D01*
X134487550Y-91059000D01*
X134328800Y-91217750D01*
X132901142Y-91217750D01*
X132790555Y-91008200D01*
X131597400Y-91008200D01*
X131343400Y-91008200D01*
X130150245Y-91008200D01*
X130028924Y-91238090D01*
X120660716Y-91238090D01*
X120488152Y-91065526D01*
X119521921Y-90665300D01*
X118476079Y-90665300D01*
X117509848Y-91065526D01*
X116770326Y-91805048D01*
X116370100Y-92771279D01*
X115310727Y-92771279D01*
X115211697Y-92532200D01*
X115542666Y-92532200D01*
X116196156Y-92261516D01*
X116696316Y-91761356D01*
X116967000Y-91107866D01*
X116967000Y-90400534D01*
X116696316Y-89747044D01*
X116419435Y-89470163D01*
X120462642Y-89470163D01*
X120578806Y-89751858D01*
X121240333Y-90002262D01*
X121947329Y-89980449D01*
X122499194Y-89751858D01*
X122615358Y-89470163D01*
X121539000Y-88393805D01*
X120462642Y-89470163D01*
X116419435Y-89470163D01*
X116196156Y-89246884D01*
X115542666Y-88976200D01*
X114835334Y-88976200D01*
X114181844Y-89246884D01*
X113681684Y-89747044D01*
X113666852Y-89782851D01*
X113104200Y-89220199D01*
X113104200Y-87915533D01*
X119750938Y-87915533D01*
X119772751Y-88622529D01*
X120001342Y-89174394D01*
X120283037Y-89290558D01*
X121359395Y-88214200D01*
X121718605Y-88214200D01*
X122794963Y-89290558D01*
X123076658Y-89174394D01*
X123327062Y-88512867D01*
X123305249Y-87805871D01*
X123174908Y-87491200D01*
X129972960Y-87491200D01*
X129972960Y-89191200D01*
X130022243Y-89438965D01*
X130162591Y-89649009D01*
X130372635Y-89789357D01*
X130476108Y-89809939D01*
X130198755Y-90114276D01*
X130028924Y-90524310D01*
X130150245Y-90754200D01*
X131343400Y-90754200D01*
X131343400Y-90734200D01*
X131597400Y-90734200D01*
X131597400Y-90754200D01*
X132790555Y-90754200D01*
X132911876Y-90524310D01*
X132742045Y-90114276D01*
X132464692Y-89809939D01*
X132568165Y-89789357D01*
X132778209Y-89649009D01*
X132918557Y-89438965D01*
X132967840Y-89191200D01*
X132967840Y-87491200D01*
X132957736Y-87440400D01*
X134316360Y-87440400D01*
X134316360Y-89140400D01*
X134365643Y-89388165D01*
X134505991Y-89598209D01*
X134532112Y-89615663D01*
X134425473Y-89722301D01*
X134328800Y-89955690D01*
X134328800Y-90646250D01*
X134487550Y-90805000D01*
X135686800Y-90805000D01*
X135686800Y-90785000D01*
X135940800Y-90785000D01*
X135940800Y-90805000D01*
X137140050Y-90805000D01*
X137298800Y-90646250D01*
X137298800Y-89955690D01*
X137202127Y-89722301D01*
X137095488Y-89615663D01*
X137121609Y-89598209D01*
X137261957Y-89388165D01*
X137311240Y-89140400D01*
X137311240Y-87440400D01*
X137261957Y-87192635D01*
X137121609Y-86982591D01*
X136911565Y-86842243D01*
X136663800Y-86792960D01*
X134963800Y-86792960D01*
X134716035Y-86842243D01*
X134505991Y-86982591D01*
X134365643Y-87192635D01*
X134316360Y-87440400D01*
X132957736Y-87440400D01*
X132918557Y-87243435D01*
X132778209Y-87033391D01*
X132568165Y-86893043D01*
X132320400Y-86843760D01*
X130620400Y-86843760D01*
X130372635Y-86893043D01*
X130162591Y-87033391D01*
X130022243Y-87243435D01*
X129972960Y-87491200D01*
X123174908Y-87491200D01*
X123076658Y-87254006D01*
X122794963Y-87137842D01*
X121718605Y-88214200D01*
X121359395Y-88214200D01*
X120283037Y-87137842D01*
X120001342Y-87254006D01*
X119750938Y-87915533D01*
X113104200Y-87915533D01*
X113104200Y-87055801D01*
X113294002Y-86866000D01*
X120500678Y-86866000D01*
X120462642Y-86958237D01*
X121539000Y-88034595D01*
X122615358Y-86958237D01*
X122577322Y-86866000D01*
X127941153Y-86866000D01*
X128016000Y-86880888D01*
X128090847Y-86866000D01*
X128090852Y-86866000D01*
X128312537Y-86821904D01*
X128563929Y-86653929D01*
X128606331Y-86590470D01*
X133834473Y-81362329D01*
X133897929Y-81319929D01*
X134065904Y-81068537D01*
X134110000Y-80846852D01*
X134110000Y-80846848D01*
X134124888Y-80772001D01*
X134110000Y-80697154D01*
X134110000Y-79562802D01*
X134172802Y-79500000D01*
X141509570Y-79500000D01*
X141531466Y-79552862D01*
X141531466Y-79552862D01*
G37*
X141531466Y-79552862D02*
X141935138Y-79956534D01*
X142064216Y-80010000D01*
X141935138Y-80063466D01*
X141531466Y-80467138D01*
X141313000Y-80994561D01*
X141313000Y-81565439D01*
X141531466Y-82092862D01*
X141935138Y-82496534D01*
X142064216Y-82550000D01*
X141935138Y-82603466D01*
X141531466Y-83007138D01*
X141313000Y-83534561D01*
X141313000Y-84003421D01*
X139720047Y-85596375D01*
X139646151Y-85645751D01*
X139450548Y-85938491D01*
X139399200Y-86196636D01*
X139399200Y-86196639D01*
X139381863Y-86283800D01*
X139399200Y-86370961D01*
X139399201Y-101532278D01*
X139249623Y-101632223D01*
X139160274Y-101765944D01*
X139152830Y-101764463D01*
X139065669Y-101781800D01*
X139065665Y-101781800D01*
X138807520Y-101833148D01*
X138588675Y-101979376D01*
X138588674Y-101979377D01*
X138514781Y-102028751D01*
X138465407Y-102102644D01*
X136957452Y-103610600D01*
X126129796Y-103610600D01*
X126260734Y-103479662D01*
X126479200Y-102952239D01*
X126479200Y-102381361D01*
X126260734Y-101853938D01*
X125857062Y-101450266D01*
X125329639Y-101231800D01*
X124758761Y-101231800D01*
X124705898Y-101253697D01*
X124415331Y-100963130D01*
X124415329Y-100963127D01*
X123754931Y-100302730D01*
X123712529Y-100239271D01*
X123461137Y-100071296D01*
X123239452Y-100027200D01*
X123239447Y-100027200D01*
X123164600Y-100012312D01*
X123089753Y-100027200D01*
X112913002Y-100027200D01*
X112901000Y-100015199D01*
X112901000Y-94377581D01*
X113077305Y-94553886D01*
X113623436Y-94780100D01*
X114214564Y-94780100D01*
X114760695Y-94553886D01*
X115178686Y-94135895D01*
X115404900Y-93589764D01*
X115404900Y-92998636D01*
X115310727Y-92771279D01*
X116370100Y-92771279D01*
X116370100Y-93817121D01*
X116770326Y-94783352D01*
X117509848Y-95522874D01*
X118476079Y-95923100D01*
X119521921Y-95923100D01*
X120488152Y-95522874D01*
X121227674Y-94783352D01*
X121627900Y-93817121D01*
X121627900Y-92998636D01*
X122593100Y-92998636D01*
X122593100Y-93589764D01*
X122819314Y-94135895D01*
X123237305Y-94553886D01*
X123783436Y-94780100D01*
X124374564Y-94780100D01*
X124920695Y-94553886D01*
X125338686Y-94135895D01*
X125564900Y-93589764D01*
X125564900Y-92998636D01*
X125338686Y-92452505D01*
X124920695Y-92034514D01*
X124374564Y-91808300D01*
X123783436Y-91808300D01*
X123237305Y-92034514D01*
X122819314Y-92452505D01*
X122593100Y-92998636D01*
X121627900Y-92998636D01*
X121627900Y-92771279D01*
X121227674Y-91805048D01*
X120660716Y-91238090D01*
X130028924Y-91238090D01*
X130198755Y-91648124D01*
X130589042Y-92076383D01*
X131113508Y-92322686D01*
X131343400Y-92202019D01*
X131343400Y-91008200D01*
X131597400Y-91008200D01*
X131597400Y-92202019D01*
X131827292Y-92322686D01*
X132351758Y-92076383D01*
X132742045Y-91648124D01*
X132911876Y-91238090D01*
X132901142Y-91217750D01*
X134328800Y-91217750D01*
X134328800Y-91908310D01*
X134425473Y-92141699D01*
X134604102Y-92320327D01*
X134837491Y-92417000D01*
X135528050Y-92417000D01*
X135686800Y-92258250D01*
X135686800Y-91059000D01*
X135940800Y-91059000D01*
X135940800Y-92258250D01*
X136099550Y-92417000D01*
X136790109Y-92417000D01*
X137023498Y-92320327D01*
X137202127Y-92141699D01*
X137298800Y-91908310D01*
X137298800Y-91217750D01*
X137140050Y-91059000D01*
X135940800Y-91059000D01*
X135686800Y-91059000D01*
X134487550Y-91059000D01*
X134328800Y-91217750D01*
X132901142Y-91217750D01*
X132790555Y-91008200D01*
X131597400Y-91008200D01*
X131343400Y-91008200D01*
X130150245Y-91008200D01*
X130028924Y-91238090D01*
X120660716Y-91238090D01*
X120488152Y-91065526D01*
X119521921Y-90665300D01*
X118476079Y-90665300D01*
X117509848Y-91065526D01*
X116770326Y-91805048D01*
X116370100Y-92771279D01*
X115310727Y-92771279D01*
X115211697Y-92532200D01*
X115542666Y-92532200D01*
X116196156Y-92261516D01*
X116696316Y-91761356D01*
X116967000Y-91107866D01*
X116967000Y-90400534D01*
X116696316Y-89747044D01*
X116419435Y-89470163D01*
X120462642Y-89470163D01*
X120578806Y-89751858D01*
X121240333Y-90002262D01*
X121947329Y-89980449D01*
X122499194Y-89751858D01*
X122615358Y-89470163D01*
X121539000Y-88393805D01*
X120462642Y-89470163D01*
X116419435Y-89470163D01*
X116196156Y-89246884D01*
X115542666Y-88976200D01*
X114835334Y-88976200D01*
X114181844Y-89246884D01*
X113681684Y-89747044D01*
X113666852Y-89782851D01*
X113104200Y-89220199D01*
X113104200Y-87915533D01*
X119750938Y-87915533D01*
X119772751Y-88622529D01*
X120001342Y-89174394D01*
X120283037Y-89290558D01*
X121359395Y-88214200D01*
X121718605Y-88214200D01*
X122794963Y-89290558D01*
X123076658Y-89174394D01*
X123327062Y-88512867D01*
X123305249Y-87805871D01*
X123174908Y-87491200D01*
X129972960Y-87491200D01*
X129972960Y-89191200D01*
X130022243Y-89438965D01*
X130162591Y-89649009D01*
X130372635Y-89789357D01*
X130476108Y-89809939D01*
X130198755Y-90114276D01*
X130028924Y-90524310D01*
X130150245Y-90754200D01*
X131343400Y-90754200D01*
X131343400Y-90734200D01*
X131597400Y-90734200D01*
X131597400Y-90754200D01*
X132790555Y-90754200D01*
X132911876Y-90524310D01*
X132742045Y-90114276D01*
X132464692Y-89809939D01*
X132568165Y-89789357D01*
X132778209Y-89649009D01*
X132918557Y-89438965D01*
X132967840Y-89191200D01*
X132967840Y-87491200D01*
X132957736Y-87440400D01*
X134316360Y-87440400D01*
X134316360Y-89140400D01*
X134365643Y-89388165D01*
X134505991Y-89598209D01*
X134532112Y-89615663D01*
X134425473Y-89722301D01*
X134328800Y-89955690D01*
X134328800Y-90646250D01*
X134487550Y-90805000D01*
X135686800Y-90805000D01*
X135686800Y-90785000D01*
X135940800Y-90785000D01*
X135940800Y-90805000D01*
X137140050Y-90805000D01*
X137298800Y-90646250D01*
X137298800Y-89955690D01*
X137202127Y-89722301D01*
X137095488Y-89615663D01*
X137121609Y-89598209D01*
X137261957Y-89388165D01*
X137311240Y-89140400D01*
X137311240Y-87440400D01*
X137261957Y-87192635D01*
X137121609Y-86982591D01*
X136911565Y-86842243D01*
X136663800Y-86792960D01*
X134963800Y-86792960D01*
X134716035Y-86842243D01*
X134505991Y-86982591D01*
X134365643Y-87192635D01*
X134316360Y-87440400D01*
X132957736Y-87440400D01*
X132918557Y-87243435D01*
X132778209Y-87033391D01*
X132568165Y-86893043D01*
X132320400Y-86843760D01*
X130620400Y-86843760D01*
X130372635Y-86893043D01*
X130162591Y-87033391D01*
X130022243Y-87243435D01*
X129972960Y-87491200D01*
X123174908Y-87491200D01*
X123076658Y-87254006D01*
X122794963Y-87137842D01*
X121718605Y-88214200D01*
X121359395Y-88214200D01*
X120283037Y-87137842D01*
X120001342Y-87254006D01*
X119750938Y-87915533D01*
X113104200Y-87915533D01*
X113104200Y-87055801D01*
X113294002Y-86866000D01*
X120500678Y-86866000D01*
X120462642Y-86958237D01*
X121539000Y-88034595D01*
X122615358Y-86958237D01*
X122577322Y-86866000D01*
X127941153Y-86866000D01*
X128016000Y-86880888D01*
X128090847Y-86866000D01*
X128090852Y-86866000D01*
X128312537Y-86821904D01*
X128563929Y-86653929D01*
X128606331Y-86590470D01*
X133834473Y-81362329D01*
X133897929Y-81319929D01*
X134065904Y-81068537D01*
X134110000Y-80846852D01*
X134110000Y-80846848D01*
X134124888Y-80772001D01*
X134110000Y-80697154D01*
X134110000Y-79562802D01*
X134172802Y-79500000D01*
X141509570Y-79500000D01*
X141531466Y-79552862D01*
G36*
X193233748Y-87361858D02*
X193219605Y-87376000D01*
X193233748Y-87390143D01*
X193054143Y-87569748D01*
X193040000Y-87555605D01*
X193025858Y-87569748D01*
X192846253Y-87390143D01*
X192860395Y-87376000D01*
X192846253Y-87361858D01*
X193025858Y-87182253D01*
X193040000Y-87196395D01*
X193054143Y-87182253D01*
X193233748Y-87361858D01*
X193233748Y-87361858D01*
G37*
X193233748Y-87361858D02*
X193219605Y-87376000D01*
X193233748Y-87390143D01*
X193054143Y-87569748D01*
X193040000Y-87555605D01*
X193025858Y-87569748D01*
X192846253Y-87390143D01*
X192860395Y-87376000D01*
X192846253Y-87361858D01*
X193025858Y-87182253D01*
X193040000Y-87196395D01*
X193054143Y-87182253D01*
X193233748Y-87361858D01*
G36*
X195773748Y-87361858D02*
X195759605Y-87376000D01*
X195773748Y-87390143D01*
X195594143Y-87569748D01*
X195580000Y-87555605D01*
X195565858Y-87569748D01*
X195386253Y-87390143D01*
X195400395Y-87376000D01*
X195386253Y-87361858D01*
X195565858Y-87182253D01*
X195580000Y-87196395D01*
X195594143Y-87182253D01*
X195773748Y-87361858D01*
X195773748Y-87361858D01*
G37*
X195773748Y-87361858D02*
X195759605Y-87376000D01*
X195773748Y-87390143D01*
X195594143Y-87569748D01*
X195580000Y-87555605D01*
X195565858Y-87569748D01*
X195386253Y-87390143D01*
X195400395Y-87376000D01*
X195386253Y-87361858D01*
X195565858Y-87182253D01*
X195580000Y-87196395D01*
X195594143Y-87182253D01*
X195773748Y-87361858D01*
G36*
X190044001Y-84512069D02*
X190030091Y-84582000D01*
X190030489Y-84584000D01*
X188403212Y-84584000D01*
X181182651Y-77363439D01*
X185042800Y-77363439D01*
X185042800Y-78050561D01*
X185305750Y-78685380D01*
X185791620Y-79171250D01*
X186426439Y-79434200D01*
X187113561Y-79434200D01*
X187748380Y-79171250D01*
X188234250Y-78685380D01*
X188497200Y-78050561D01*
X188497200Y-77363439D01*
X188234250Y-76728620D01*
X187748380Y-76242750D01*
X187113561Y-75979800D01*
X186426439Y-75979800D01*
X185791620Y-76242750D01*
X185305750Y-76728620D01*
X185042800Y-77363439D01*
X181182651Y-77363439D01*
X179534741Y-75715530D01*
X179492339Y-75652071D01*
X179240947Y-75484096D01*
X179019262Y-75440000D01*
X179019257Y-75440000D01*
X178944410Y-75425112D01*
X178869563Y-75440000D01*
X165682846Y-75440000D01*
X165607999Y-75425112D01*
X165533152Y-75440000D01*
X165533148Y-75440000D01*
X165311463Y-75484096D01*
X165248902Y-75525898D01*
X165123526Y-75609671D01*
X165123524Y-75609673D01*
X165060071Y-75652071D01*
X165017673Y-75715524D01*
X163406302Y-77326897D01*
X163353439Y-77305000D01*
X162782561Y-77305000D01*
X162255138Y-77523466D01*
X161851466Y-77927138D01*
X161798000Y-78056216D01*
X161744534Y-77927138D01*
X161340862Y-77523466D01*
X160813439Y-77305000D01*
X160242561Y-77305000D01*
X159715138Y-77523466D01*
X159311466Y-77927138D01*
X159258000Y-78056216D01*
X159204534Y-77927138D01*
X158974414Y-77697018D01*
X161520473Y-75150959D01*
X161583929Y-75108559D01*
X161751904Y-74857167D01*
X161796000Y-74635482D01*
X161796000Y-74635477D01*
X161810888Y-74560630D01*
X161796000Y-74485783D01*
X161796000Y-70039211D01*
X165035212Y-66800000D01*
X167693563Y-66800000D01*
X167768410Y-66814888D01*
X167843257Y-66800000D01*
X167843262Y-66800000D01*
X168064947Y-66755904D01*
X168316339Y-66587929D01*
X168358741Y-66524470D01*
X173458473Y-61424739D01*
X173521929Y-61382339D01*
X173689904Y-61130947D01*
X173734000Y-60909262D01*
X173734000Y-60909257D01*
X173748888Y-60834410D01*
X173734000Y-60759563D01*
X173734000Y-60206178D01*
X174044625Y-59998625D01*
X174244000Y-59700239D01*
X174443375Y-59998625D01*
X174934582Y-60326839D01*
X175367744Y-60413000D01*
X175660256Y-60413000D01*
X176093418Y-60326839D01*
X176584625Y-59998625D01*
X176784000Y-59700239D01*
X176983375Y-59998625D01*
X177474582Y-60326839D01*
X177907744Y-60413000D01*
X178200256Y-60413000D01*
X178633418Y-60326839D01*
X179124625Y-59998625D01*
X179324000Y-59700239D01*
X179523375Y-59998625D01*
X180014582Y-60326839D01*
X180447744Y-60413000D01*
X180740256Y-60413000D01*
X181173418Y-60326839D01*
X181664625Y-59998625D01*
X181992839Y-59507418D01*
X182021478Y-59363439D01*
X185042800Y-59363439D01*
X185042800Y-60050561D01*
X185305750Y-60685380D01*
X185791620Y-61171250D01*
X186426439Y-61434200D01*
X187113561Y-61434200D01*
X187748380Y-61171250D01*
X188234250Y-60685380D01*
X188497200Y-60050561D01*
X188497200Y-59363439D01*
X188234250Y-58728620D01*
X187748380Y-58242750D01*
X187113561Y-57979800D01*
X186426439Y-57979800D01*
X185791620Y-58242750D01*
X185305750Y-58728620D01*
X185042800Y-59363439D01*
X182021478Y-59363439D01*
X182108092Y-58928000D01*
X181992839Y-58348582D01*
X181664625Y-57857375D01*
X181173418Y-57529161D01*
X180740256Y-57443000D01*
X180447744Y-57443000D01*
X180014582Y-57529161D01*
X179523375Y-57857375D01*
X179324000Y-58155761D01*
X179124625Y-57857375D01*
X178633418Y-57529161D01*
X178200256Y-57443000D01*
X177907744Y-57443000D01*
X177474582Y-57529161D01*
X176983375Y-57857375D01*
X176784000Y-58155761D01*
X176584625Y-57857375D01*
X176093418Y-57529161D01*
X175660256Y-57443000D01*
X175367744Y-57443000D01*
X174934582Y-57529161D01*
X174443375Y-57857375D01*
X174244000Y-58155761D01*
X174044625Y-57857375D01*
X173553418Y-57529161D01*
X173120256Y-57443000D01*
X172827744Y-57443000D01*
X172394582Y-57529161D01*
X171903375Y-57857375D01*
X171704000Y-58155761D01*
X171504625Y-57857375D01*
X171013418Y-57529161D01*
X170580256Y-57443000D01*
X170287744Y-57443000D01*
X169854582Y-57529161D01*
X169363375Y-57857375D01*
X169348904Y-57879033D01*
X169282327Y-57718302D01*
X169103699Y-57539673D01*
X168870310Y-57443000D01*
X168179750Y-57443000D01*
X168021000Y-57601750D01*
X168021000Y-58801000D01*
X168041000Y-58801000D01*
X168041000Y-59055000D01*
X168021000Y-59055000D01*
X168021000Y-60254250D01*
X168179750Y-60413000D01*
X168604857Y-60413000D01*
X168484600Y-60703326D01*
X168484600Y-60891583D01*
X168478126Y-60901272D01*
X165343999Y-64035400D01*
X159551446Y-64035400D01*
X159476599Y-64020512D01*
X159401752Y-64035400D01*
X159401748Y-64035400D01*
X159180063Y-64079496D01*
X159180061Y-64079497D01*
X159180062Y-64079497D01*
X158992126Y-64205071D01*
X158992124Y-64205073D01*
X158928671Y-64247471D01*
X158886273Y-64310925D01*
X158755217Y-64441980D01*
X158723881Y-64429000D01*
X158168119Y-64429000D01*
X157654663Y-64641680D01*
X157261680Y-65034663D01*
X157049000Y-65548119D01*
X157049000Y-66103881D01*
X157261680Y-66617337D01*
X157654663Y-67010320D01*
X158168119Y-67223000D01*
X158723881Y-67223000D01*
X159237337Y-67010320D01*
X159630320Y-66617337D01*
X159843000Y-66103881D01*
X159843000Y-65555400D01*
X163493798Y-65555400D01*
X160043528Y-69005671D01*
X159980072Y-69048071D01*
X159937672Y-69111527D01*
X159937671Y-69111528D01*
X159812097Y-69299463D01*
X159753112Y-69596000D01*
X159768001Y-69670852D01*
X159768001Y-70214611D01*
X159718397Y-70094857D01*
X159476213Y-70025392D01*
X158675605Y-70826000D01*
X159476213Y-71626608D01*
X159718397Y-71557143D01*
X159768000Y-71418107D01*
X159768000Y-72075198D01*
X154963528Y-76879671D01*
X154900072Y-76922071D01*
X154857672Y-76985527D01*
X154857671Y-76985528D01*
X154732097Y-77173463D01*
X154673112Y-77470000D01*
X154680047Y-77504864D01*
X154635138Y-77523466D01*
X154231466Y-77927138D01*
X154178000Y-78056216D01*
X154124534Y-77927138D01*
X153720862Y-77523466D01*
X153193439Y-77305000D01*
X152622561Y-77305000D01*
X152569698Y-77326897D01*
X151016321Y-75773520D01*
X150973919Y-75710061D01*
X150722527Y-75542086D01*
X150500842Y-75497990D01*
X150500837Y-75497990D01*
X150425990Y-75483102D01*
X150351143Y-75497990D01*
X142741202Y-75497990D01*
X140460000Y-73216789D01*
X140460000Y-71806213D01*
X157695392Y-71806213D01*
X157764857Y-72048397D01*
X158288302Y-72235144D01*
X158843368Y-72207362D01*
X159227143Y-72048397D01*
X159296608Y-71806213D01*
X158496000Y-71005605D01*
X157695392Y-71806213D01*
X140460000Y-71806213D01*
X140460000Y-70618302D01*
X157086856Y-70618302D01*
X157114638Y-71173368D01*
X157273603Y-71557143D01*
X157515787Y-71626608D01*
X158316395Y-70826000D01*
X157515787Y-70025392D01*
X157273603Y-70094857D01*
X157086856Y-70618302D01*
X140460000Y-70618302D01*
X140460000Y-69845787D01*
X157695392Y-69845787D01*
X158496000Y-70646395D01*
X159296608Y-69845787D01*
X159227143Y-69603603D01*
X158703698Y-69416856D01*
X158148632Y-69444638D01*
X157764857Y-69603603D01*
X157695392Y-69845787D01*
X140460000Y-69845787D01*
X140460000Y-61274801D01*
X141365592Y-60369209D01*
X141585744Y-60413000D01*
X141878256Y-60413000D01*
X142311418Y-60326839D01*
X142802625Y-59998625D01*
X143002000Y-59700239D01*
X143201375Y-59998625D01*
X143692582Y-60326839D01*
X144125744Y-60413000D01*
X144418256Y-60413000D01*
X144490960Y-60398538D01*
X145362577Y-61270156D01*
X145411951Y-61344049D01*
X145485844Y-61393423D01*
X145485845Y-61393424D01*
X145638582Y-61495480D01*
X145704690Y-61539652D01*
X145962835Y-61591000D01*
X145962839Y-61591000D01*
X146050000Y-61608337D01*
X146137161Y-61591000D01*
X156630839Y-61591000D01*
X156718000Y-61608337D01*
X156805161Y-61591000D01*
X156805165Y-61591000D01*
X157063310Y-61539652D01*
X157356049Y-61344049D01*
X157405425Y-61270153D01*
X158277040Y-60398538D01*
X158349744Y-60413000D01*
X158642256Y-60413000D01*
X159075418Y-60326839D01*
X159566625Y-59998625D01*
X159581096Y-59976967D01*
X159647673Y-60137698D01*
X159826301Y-60316327D01*
X160059690Y-60413000D01*
X160750250Y-60413000D01*
X160909000Y-60254250D01*
X160909000Y-59055000D01*
X161163000Y-59055000D01*
X161163000Y-60254250D01*
X161321750Y-60413000D01*
X162012310Y-60413000D01*
X162245699Y-60316327D01*
X162424327Y-60137698D01*
X162521000Y-59904309D01*
X162521000Y-59213750D01*
X166409000Y-59213750D01*
X166409000Y-59904309D01*
X166505673Y-60137698D01*
X166684301Y-60316327D01*
X166917690Y-60413000D01*
X167608250Y-60413000D01*
X167767000Y-60254250D01*
X167767000Y-59055000D01*
X166567750Y-59055000D01*
X166409000Y-59213750D01*
X162521000Y-59213750D01*
X162362250Y-59055000D01*
X161163000Y-59055000D01*
X160909000Y-59055000D01*
X160889000Y-59055000D01*
X160889000Y-58801000D01*
X160909000Y-58801000D01*
X160909000Y-57601750D01*
X161163000Y-57601750D01*
X161163000Y-58801000D01*
X162362250Y-58801000D01*
X162521000Y-58642250D01*
X162521000Y-57951691D01*
X166409000Y-57951691D01*
X166409000Y-58642250D01*
X166567750Y-58801000D01*
X167767000Y-58801000D01*
X167767000Y-57601750D01*
X167608250Y-57443000D01*
X166917690Y-57443000D01*
X166684301Y-57539673D01*
X166505673Y-57718302D01*
X166409000Y-57951691D01*
X162521000Y-57951691D01*
X162424327Y-57718302D01*
X162245699Y-57539673D01*
X162012310Y-57443000D01*
X161321750Y-57443000D01*
X161163000Y-57601750D01*
X160909000Y-57601750D01*
X160750250Y-57443000D01*
X160059690Y-57443000D01*
X159826301Y-57539673D01*
X159647673Y-57718302D01*
X159581096Y-57879033D01*
X159566625Y-57857375D01*
X159075418Y-57529161D01*
X158642256Y-57443000D01*
X158349744Y-57443000D01*
X157916582Y-57529161D01*
X157425375Y-57857375D01*
X157226000Y-58155761D01*
X157026625Y-57857375D01*
X156967496Y-57817867D01*
X156985786Y-57725919D01*
X156966000Y-57626448D01*
X156966000Y-57626443D01*
X156907399Y-57331837D01*
X156857411Y-57257024D01*
X156740518Y-57082081D01*
X156740516Y-57082079D01*
X156684169Y-56997750D01*
X156599840Y-56941403D01*
X155232436Y-55574000D01*
X190044000Y-55574000D01*
X190044001Y-84512069D01*
X190044001Y-84512069D01*
G37*
X190044001Y-84512069D02*
X190030091Y-84582000D01*
X190030489Y-84584000D01*
X188403212Y-84584000D01*
X181182651Y-77363439D01*
X185042800Y-77363439D01*
X185042800Y-78050561D01*
X185305750Y-78685380D01*
X185791620Y-79171250D01*
X186426439Y-79434200D01*
X187113561Y-79434200D01*
X187748380Y-79171250D01*
X188234250Y-78685380D01*
X188497200Y-78050561D01*
X188497200Y-77363439D01*
X188234250Y-76728620D01*
X187748380Y-76242750D01*
X187113561Y-75979800D01*
X186426439Y-75979800D01*
X185791620Y-76242750D01*
X185305750Y-76728620D01*
X185042800Y-77363439D01*
X181182651Y-77363439D01*
X179534741Y-75715530D01*
X179492339Y-75652071D01*
X179240947Y-75484096D01*
X179019262Y-75440000D01*
X179019257Y-75440000D01*
X178944410Y-75425112D01*
X178869563Y-75440000D01*
X165682846Y-75440000D01*
X165607999Y-75425112D01*
X165533152Y-75440000D01*
X165533148Y-75440000D01*
X165311463Y-75484096D01*
X165248902Y-75525898D01*
X165123526Y-75609671D01*
X165123524Y-75609673D01*
X165060071Y-75652071D01*
X165017673Y-75715524D01*
X163406302Y-77326897D01*
X163353439Y-77305000D01*
X162782561Y-77305000D01*
X162255138Y-77523466D01*
X161851466Y-77927138D01*
X161798000Y-78056216D01*
X161744534Y-77927138D01*
X161340862Y-77523466D01*
X160813439Y-77305000D01*
X160242561Y-77305000D01*
X159715138Y-77523466D01*
X159311466Y-77927138D01*
X159258000Y-78056216D01*
X159204534Y-77927138D01*
X158974414Y-77697018D01*
X161520473Y-75150959D01*
X161583929Y-75108559D01*
X161751904Y-74857167D01*
X161796000Y-74635482D01*
X161796000Y-74635477D01*
X161810888Y-74560630D01*
X161796000Y-74485783D01*
X161796000Y-70039211D01*
X165035212Y-66800000D01*
X167693563Y-66800000D01*
X167768410Y-66814888D01*
X167843257Y-66800000D01*
X167843262Y-66800000D01*
X168064947Y-66755904D01*
X168316339Y-66587929D01*
X168358741Y-66524470D01*
X173458473Y-61424739D01*
X173521929Y-61382339D01*
X173689904Y-61130947D01*
X173734000Y-60909262D01*
X173734000Y-60909257D01*
X173748888Y-60834410D01*
X173734000Y-60759563D01*
X173734000Y-60206178D01*
X174044625Y-59998625D01*
X174244000Y-59700239D01*
X174443375Y-59998625D01*
X174934582Y-60326839D01*
X175367744Y-60413000D01*
X175660256Y-60413000D01*
X176093418Y-60326839D01*
X176584625Y-59998625D01*
X176784000Y-59700239D01*
X176983375Y-59998625D01*
X177474582Y-60326839D01*
X177907744Y-60413000D01*
X178200256Y-60413000D01*
X178633418Y-60326839D01*
X179124625Y-59998625D01*
X179324000Y-59700239D01*
X179523375Y-59998625D01*
X180014582Y-60326839D01*
X180447744Y-60413000D01*
X180740256Y-60413000D01*
X181173418Y-60326839D01*
X181664625Y-59998625D01*
X181992839Y-59507418D01*
X182021478Y-59363439D01*
X185042800Y-59363439D01*
X185042800Y-60050561D01*
X185305750Y-60685380D01*
X185791620Y-61171250D01*
X186426439Y-61434200D01*
X187113561Y-61434200D01*
X187748380Y-61171250D01*
X188234250Y-60685380D01*
X188497200Y-60050561D01*
X188497200Y-59363439D01*
X188234250Y-58728620D01*
X187748380Y-58242750D01*
X187113561Y-57979800D01*
X186426439Y-57979800D01*
X185791620Y-58242750D01*
X185305750Y-58728620D01*
X185042800Y-59363439D01*
X182021478Y-59363439D01*
X182108092Y-58928000D01*
X181992839Y-58348582D01*
X181664625Y-57857375D01*
X181173418Y-57529161D01*
X180740256Y-57443000D01*
X180447744Y-57443000D01*
X180014582Y-57529161D01*
X179523375Y-57857375D01*
X179324000Y-58155761D01*
X179124625Y-57857375D01*
X178633418Y-57529161D01*
X178200256Y-57443000D01*
X177907744Y-57443000D01*
X177474582Y-57529161D01*
X176983375Y-57857375D01*
X176784000Y-58155761D01*
X176584625Y-57857375D01*
X176093418Y-57529161D01*
X175660256Y-57443000D01*
X175367744Y-57443000D01*
X174934582Y-57529161D01*
X174443375Y-57857375D01*
X174244000Y-58155761D01*
X174044625Y-57857375D01*
X173553418Y-57529161D01*
X173120256Y-57443000D01*
X172827744Y-57443000D01*
X172394582Y-57529161D01*
X171903375Y-57857375D01*
X171704000Y-58155761D01*
X171504625Y-57857375D01*
X171013418Y-57529161D01*
X170580256Y-57443000D01*
X170287744Y-57443000D01*
X169854582Y-57529161D01*
X169363375Y-57857375D01*
X169348904Y-57879033D01*
X169282327Y-57718302D01*
X169103699Y-57539673D01*
X168870310Y-57443000D01*
X168179750Y-57443000D01*
X168021000Y-57601750D01*
X168021000Y-58801000D01*
X168041000Y-58801000D01*
X168041000Y-59055000D01*
X168021000Y-59055000D01*
X168021000Y-60254250D01*
X168179750Y-60413000D01*
X168604857Y-60413000D01*
X168484600Y-60703326D01*
X168484600Y-60891583D01*
X168478126Y-60901272D01*
X165343999Y-64035400D01*
X159551446Y-64035400D01*
X159476599Y-64020512D01*
X159401752Y-64035400D01*
X159401748Y-64035400D01*
X159180063Y-64079496D01*
X159180061Y-64079497D01*
X159180062Y-64079497D01*
X158992126Y-64205071D01*
X158992124Y-64205073D01*
X158928671Y-64247471D01*
X158886273Y-64310925D01*
X158755217Y-64441980D01*
X158723881Y-64429000D01*
X158168119Y-64429000D01*
X157654663Y-64641680D01*
X157261680Y-65034663D01*
X157049000Y-65548119D01*
X157049000Y-66103881D01*
X157261680Y-66617337D01*
X157654663Y-67010320D01*
X158168119Y-67223000D01*
X158723881Y-67223000D01*
X159237337Y-67010320D01*
X159630320Y-66617337D01*
X159843000Y-66103881D01*
X159843000Y-65555400D01*
X163493798Y-65555400D01*
X160043528Y-69005671D01*
X159980072Y-69048071D01*
X159937672Y-69111527D01*
X159937671Y-69111528D01*
X159812097Y-69299463D01*
X159753112Y-69596000D01*
X159768001Y-69670852D01*
X159768001Y-70214611D01*
X159718397Y-70094857D01*
X159476213Y-70025392D01*
X158675605Y-70826000D01*
X159476213Y-71626608D01*
X159718397Y-71557143D01*
X159768000Y-71418107D01*
X159768000Y-72075198D01*
X154963528Y-76879671D01*
X154900072Y-76922071D01*
X154857672Y-76985527D01*
X154857671Y-76985528D01*
X154732097Y-77173463D01*
X154673112Y-77470000D01*
X154680047Y-77504864D01*
X154635138Y-77523466D01*
X154231466Y-77927138D01*
X154178000Y-78056216D01*
X154124534Y-77927138D01*
X153720862Y-77523466D01*
X153193439Y-77305000D01*
X152622561Y-77305000D01*
X152569698Y-77326897D01*
X151016321Y-75773520D01*
X150973919Y-75710061D01*
X150722527Y-75542086D01*
X150500842Y-75497990D01*
X150500837Y-75497990D01*
X150425990Y-75483102D01*
X150351143Y-75497990D01*
X142741202Y-75497990D01*
X140460000Y-73216789D01*
X140460000Y-71806213D01*
X157695392Y-71806213D01*
X157764857Y-72048397D01*
X158288302Y-72235144D01*
X158843368Y-72207362D01*
X159227143Y-72048397D01*
X159296608Y-71806213D01*
X158496000Y-71005605D01*
X157695392Y-71806213D01*
X140460000Y-71806213D01*
X140460000Y-70618302D01*
X157086856Y-70618302D01*
X157114638Y-71173368D01*
X157273603Y-71557143D01*
X157515787Y-71626608D01*
X158316395Y-70826000D01*
X157515787Y-70025392D01*
X157273603Y-70094857D01*
X157086856Y-70618302D01*
X140460000Y-70618302D01*
X140460000Y-69845787D01*
X157695392Y-69845787D01*
X158496000Y-70646395D01*
X159296608Y-69845787D01*
X159227143Y-69603603D01*
X158703698Y-69416856D01*
X158148632Y-69444638D01*
X157764857Y-69603603D01*
X157695392Y-69845787D01*
X140460000Y-69845787D01*
X140460000Y-61274801D01*
X141365592Y-60369209D01*
X141585744Y-60413000D01*
X141878256Y-60413000D01*
X142311418Y-60326839D01*
X142802625Y-59998625D01*
X143002000Y-59700239D01*
X143201375Y-59998625D01*
X143692582Y-60326839D01*
X144125744Y-60413000D01*
X144418256Y-60413000D01*
X144490960Y-60398538D01*
X145362577Y-61270156D01*
X145411951Y-61344049D01*
X145485844Y-61393423D01*
X145485845Y-61393424D01*
X145638582Y-61495480D01*
X145704690Y-61539652D01*
X145962835Y-61591000D01*
X145962839Y-61591000D01*
X146050000Y-61608337D01*
X146137161Y-61591000D01*
X156630839Y-61591000D01*
X156718000Y-61608337D01*
X156805161Y-61591000D01*
X156805165Y-61591000D01*
X157063310Y-61539652D01*
X157356049Y-61344049D01*
X157405425Y-61270153D01*
X158277040Y-60398538D01*
X158349744Y-60413000D01*
X158642256Y-60413000D01*
X159075418Y-60326839D01*
X159566625Y-59998625D01*
X159581096Y-59976967D01*
X159647673Y-60137698D01*
X159826301Y-60316327D01*
X160059690Y-60413000D01*
X160750250Y-60413000D01*
X160909000Y-60254250D01*
X160909000Y-59055000D01*
X161163000Y-59055000D01*
X161163000Y-60254250D01*
X161321750Y-60413000D01*
X162012310Y-60413000D01*
X162245699Y-60316327D01*
X162424327Y-60137698D01*
X162521000Y-59904309D01*
X162521000Y-59213750D01*
X166409000Y-59213750D01*
X166409000Y-59904309D01*
X166505673Y-60137698D01*
X166684301Y-60316327D01*
X166917690Y-60413000D01*
X167608250Y-60413000D01*
X167767000Y-60254250D01*
X167767000Y-59055000D01*
X166567750Y-59055000D01*
X166409000Y-59213750D01*
X162521000Y-59213750D01*
X162362250Y-59055000D01*
X161163000Y-59055000D01*
X160909000Y-59055000D01*
X160889000Y-59055000D01*
X160889000Y-58801000D01*
X160909000Y-58801000D01*
X160909000Y-57601750D01*
X161163000Y-57601750D01*
X161163000Y-58801000D01*
X162362250Y-58801000D01*
X162521000Y-58642250D01*
X162521000Y-57951691D01*
X166409000Y-57951691D01*
X166409000Y-58642250D01*
X166567750Y-58801000D01*
X167767000Y-58801000D01*
X167767000Y-57601750D01*
X167608250Y-57443000D01*
X166917690Y-57443000D01*
X166684301Y-57539673D01*
X166505673Y-57718302D01*
X166409000Y-57951691D01*
X162521000Y-57951691D01*
X162424327Y-57718302D01*
X162245699Y-57539673D01*
X162012310Y-57443000D01*
X161321750Y-57443000D01*
X161163000Y-57601750D01*
X160909000Y-57601750D01*
X160750250Y-57443000D01*
X160059690Y-57443000D01*
X159826301Y-57539673D01*
X159647673Y-57718302D01*
X159581096Y-57879033D01*
X159566625Y-57857375D01*
X159075418Y-57529161D01*
X158642256Y-57443000D01*
X158349744Y-57443000D01*
X157916582Y-57529161D01*
X157425375Y-57857375D01*
X157226000Y-58155761D01*
X157026625Y-57857375D01*
X156967496Y-57817867D01*
X156985786Y-57725919D01*
X156966000Y-57626448D01*
X156966000Y-57626443D01*
X156907399Y-57331837D01*
X156857411Y-57257024D01*
X156740518Y-57082081D01*
X156740516Y-57082079D01*
X156684169Y-56997750D01*
X156599840Y-56941403D01*
X155232436Y-55574000D01*
X190044000Y-55574000D01*
X190044001Y-84512069D01*
G36*
X154794742Y-57993017D02*
X154557161Y-58348582D01*
X154441908Y-58928000D01*
X154557161Y-59507418D01*
X154766690Y-59821000D01*
X150541310Y-59821000D01*
X150750839Y-59507418D01*
X150866092Y-58928000D01*
X150750839Y-58348582D01*
X150422625Y-57857375D01*
X149931418Y-57529161D01*
X149498256Y-57443000D01*
X149205744Y-57443000D01*
X148772582Y-57529161D01*
X148281375Y-57857375D01*
X148082000Y-58155761D01*
X147882625Y-57857375D01*
X147391418Y-57529161D01*
X146958256Y-57443000D01*
X146665744Y-57443000D01*
X146232582Y-57529161D01*
X145741375Y-57857375D01*
X145542000Y-58155761D01*
X145342625Y-57857375D01*
X144851418Y-57529161D01*
X144418256Y-57443000D01*
X144125744Y-57443000D01*
X143692582Y-57529161D01*
X143201375Y-57857375D01*
X143002000Y-58155761D01*
X142802625Y-57857375D01*
X142311418Y-57529161D01*
X141878256Y-57443000D01*
X141585744Y-57443000D01*
X141152582Y-57529161D01*
X140661375Y-57857375D01*
X140462000Y-58155761D01*
X140262625Y-57857375D01*
X139771418Y-57529161D01*
X139338256Y-57443000D01*
X139045744Y-57443000D01*
X138612582Y-57529161D01*
X138121375Y-57857375D01*
X138106904Y-57879033D01*
X138040327Y-57718302D01*
X137861699Y-57539673D01*
X137628310Y-57443000D01*
X136937750Y-57443000D01*
X136779000Y-57601750D01*
X136779000Y-58801000D01*
X136799000Y-58801000D01*
X136799000Y-59055000D01*
X136779000Y-59055000D01*
X136779000Y-60254250D01*
X136937750Y-60413000D01*
X137628310Y-60413000D01*
X137861699Y-60316327D01*
X138040327Y-60137698D01*
X138106904Y-59976967D01*
X138121375Y-59998625D01*
X138432001Y-60206179D01*
X138432000Y-73585153D01*
X138417112Y-73660000D01*
X138432000Y-73734847D01*
X138432000Y-73734851D01*
X138476096Y-73956536D01*
X138644071Y-74207929D01*
X138707530Y-74250331D01*
X141167198Y-76710000D01*
X134186846Y-76710000D01*
X134111999Y-76695112D01*
X134037152Y-76710000D01*
X134037148Y-76710000D01*
X133815463Y-76754096D01*
X133752902Y-76795898D01*
X133627526Y-76879671D01*
X133627524Y-76879673D01*
X133564071Y-76922071D01*
X133521673Y-76985524D01*
X132103530Y-78403669D01*
X132040071Y-78446071D01*
X131872096Y-78697464D01*
X131828000Y-78919149D01*
X131828000Y-78919153D01*
X131813112Y-78994000D01*
X131828000Y-79068847D01*
X131828001Y-80203196D01*
X127701199Y-84330000D01*
X126948000Y-84330000D01*
X126948000Y-79553273D01*
X127222561Y-79667000D01*
X127793439Y-79667000D01*
X128320862Y-79448534D01*
X128724534Y-79044862D01*
X128879093Y-78671723D01*
X128884750Y-78685380D01*
X129370620Y-79171250D01*
X130005439Y-79434200D01*
X130692561Y-79434200D01*
X131327380Y-79171250D01*
X131813250Y-78685380D01*
X132076200Y-78050561D01*
X132076200Y-77363439D01*
X131813250Y-76728620D01*
X131327380Y-76242750D01*
X130692561Y-75979800D01*
X130005439Y-75979800D01*
X129370620Y-76242750D01*
X128884750Y-76728620D01*
X128635576Y-77330180D01*
X128518000Y-77212604D01*
X128518000Y-59363439D01*
X128621800Y-59363439D01*
X128621800Y-60050561D01*
X128884750Y-60685380D01*
X129370620Y-61171250D01*
X130005439Y-61434200D01*
X130692561Y-61434200D01*
X131327380Y-61171250D01*
X131813250Y-60685380D01*
X132076200Y-60050561D01*
X132076200Y-59363439D01*
X132014197Y-59213750D01*
X135167000Y-59213750D01*
X135167000Y-59904309D01*
X135263673Y-60137698D01*
X135442301Y-60316327D01*
X135675690Y-60413000D01*
X136366250Y-60413000D01*
X136525000Y-60254250D01*
X136525000Y-59055000D01*
X135325750Y-59055000D01*
X135167000Y-59213750D01*
X132014197Y-59213750D01*
X131813250Y-58728620D01*
X131327380Y-58242750D01*
X130692561Y-57979800D01*
X130005439Y-57979800D01*
X129370620Y-58242750D01*
X128884750Y-58728620D01*
X128621800Y-59363439D01*
X128518000Y-59363439D01*
X128518000Y-57951691D01*
X135167000Y-57951691D01*
X135167000Y-58642250D01*
X135325750Y-58801000D01*
X136525000Y-58801000D01*
X136525000Y-57601750D01*
X136366250Y-57443000D01*
X135675690Y-57443000D01*
X135442301Y-57539673D01*
X135263673Y-57718302D01*
X135167000Y-57951691D01*
X128518000Y-57951691D01*
X128518000Y-57314355D01*
X129196355Y-56636000D01*
X153437726Y-56636000D01*
X154794742Y-57993017D01*
X154794742Y-57993017D01*
G37*
X154794742Y-57993017D02*
X154557161Y-58348582D01*
X154441908Y-58928000D01*
X154557161Y-59507418D01*
X154766690Y-59821000D01*
X150541310Y-59821000D01*
X150750839Y-59507418D01*
X150866092Y-58928000D01*
X150750839Y-58348582D01*
X150422625Y-57857375D01*
X149931418Y-57529161D01*
X149498256Y-57443000D01*
X149205744Y-57443000D01*
X148772582Y-57529161D01*
X148281375Y-57857375D01*
X148082000Y-58155761D01*
X147882625Y-57857375D01*
X147391418Y-57529161D01*
X146958256Y-57443000D01*
X146665744Y-57443000D01*
X146232582Y-57529161D01*
X145741375Y-57857375D01*
X145542000Y-58155761D01*
X145342625Y-57857375D01*
X144851418Y-57529161D01*
X144418256Y-57443000D01*
X144125744Y-57443000D01*
X143692582Y-57529161D01*
X143201375Y-57857375D01*
X143002000Y-58155761D01*
X142802625Y-57857375D01*
X142311418Y-57529161D01*
X141878256Y-57443000D01*
X141585744Y-57443000D01*
X141152582Y-57529161D01*
X140661375Y-57857375D01*
X140462000Y-58155761D01*
X140262625Y-57857375D01*
X139771418Y-57529161D01*
X139338256Y-57443000D01*
X139045744Y-57443000D01*
X138612582Y-57529161D01*
X138121375Y-57857375D01*
X138106904Y-57879033D01*
X138040327Y-57718302D01*
X137861699Y-57539673D01*
X137628310Y-57443000D01*
X136937750Y-57443000D01*
X136779000Y-57601750D01*
X136779000Y-58801000D01*
X136799000Y-58801000D01*
X136799000Y-59055000D01*
X136779000Y-59055000D01*
X136779000Y-60254250D01*
X136937750Y-60413000D01*
X137628310Y-60413000D01*
X137861699Y-60316327D01*
X138040327Y-60137698D01*
X138106904Y-59976967D01*
X138121375Y-59998625D01*
X138432001Y-60206179D01*
X138432000Y-73585153D01*
X138417112Y-73660000D01*
X138432000Y-73734847D01*
X138432000Y-73734851D01*
X138476096Y-73956536D01*
X138644071Y-74207929D01*
X138707530Y-74250331D01*
X141167198Y-76710000D01*
X134186846Y-76710000D01*
X134111999Y-76695112D01*
X134037152Y-76710000D01*
X134037148Y-76710000D01*
X133815463Y-76754096D01*
X133752902Y-76795898D01*
X133627526Y-76879671D01*
X133627524Y-76879673D01*
X133564071Y-76922071D01*
X133521673Y-76985524D01*
X132103530Y-78403669D01*
X132040071Y-78446071D01*
X131872096Y-78697464D01*
X131828000Y-78919149D01*
X131828000Y-78919153D01*
X131813112Y-78994000D01*
X131828000Y-79068847D01*
X131828001Y-80203196D01*
X127701199Y-84330000D01*
X126948000Y-84330000D01*
X126948000Y-79553273D01*
X127222561Y-79667000D01*
X127793439Y-79667000D01*
X128320862Y-79448534D01*
X128724534Y-79044862D01*
X128879093Y-78671723D01*
X128884750Y-78685380D01*
X129370620Y-79171250D01*
X130005439Y-79434200D01*
X130692561Y-79434200D01*
X131327380Y-79171250D01*
X131813250Y-78685380D01*
X132076200Y-78050561D01*
X132076200Y-77363439D01*
X131813250Y-76728620D01*
X131327380Y-76242750D01*
X130692561Y-75979800D01*
X130005439Y-75979800D01*
X129370620Y-76242750D01*
X128884750Y-76728620D01*
X128635576Y-77330180D01*
X128518000Y-77212604D01*
X128518000Y-59363439D01*
X128621800Y-59363439D01*
X128621800Y-60050561D01*
X128884750Y-60685380D01*
X129370620Y-61171250D01*
X130005439Y-61434200D01*
X130692561Y-61434200D01*
X131327380Y-61171250D01*
X131813250Y-60685380D01*
X132076200Y-60050561D01*
X132076200Y-59363439D01*
X132014197Y-59213750D01*
X135167000Y-59213750D01*
X135167000Y-59904309D01*
X135263673Y-60137698D01*
X135442301Y-60316327D01*
X135675690Y-60413000D01*
X136366250Y-60413000D01*
X136525000Y-60254250D01*
X136525000Y-59055000D01*
X135325750Y-59055000D01*
X135167000Y-59213750D01*
X132014197Y-59213750D01*
X131813250Y-58728620D01*
X131327380Y-58242750D01*
X130692561Y-57979800D01*
X130005439Y-57979800D01*
X129370620Y-58242750D01*
X128884750Y-58728620D01*
X128621800Y-59363439D01*
X128518000Y-59363439D01*
X128518000Y-57951691D01*
X135167000Y-57951691D01*
X135167000Y-58642250D01*
X135325750Y-58801000D01*
X136525000Y-58801000D01*
X136525000Y-57601750D01*
X136366250Y-57443000D01*
X135675690Y-57443000D01*
X135442301Y-57539673D01*
X135263673Y-57718302D01*
X135167000Y-57951691D01*
X128518000Y-57951691D01*
X128518000Y-57314355D01*
X129196355Y-56636000D01*
X153437726Y-56636000D01*
X154794742Y-57993017D01*
G36*
X180518896Y-80501697D02*
X180289138Y-80596866D01*
X179885466Y-81000538D01*
X179667000Y-81527961D01*
X179667000Y-81564198D01*
X177882331Y-79779530D01*
X177839929Y-79716071D01*
X177588537Y-79548096D01*
X177366852Y-79504000D01*
X177366847Y-79504000D01*
X177292000Y-79489112D01*
X177217153Y-79504000D01*
X177203000Y-79504000D01*
X177203000Y-79025750D01*
X177044250Y-78867000D01*
X175895000Y-78867000D01*
X175895000Y-78887000D01*
X175641000Y-78887000D01*
X175641000Y-78867000D01*
X175621000Y-78867000D01*
X175621000Y-78613000D01*
X175641000Y-78613000D01*
X175641000Y-78593000D01*
X175895000Y-78593000D01*
X175895000Y-78613000D01*
X177044250Y-78613000D01*
X177203000Y-78454250D01*
X177203000Y-77976000D01*
X177993199Y-77976000D01*
X180518896Y-80501697D01*
X180518896Y-80501697D01*
G37*
X180518896Y-80501697D02*
X180289138Y-80596866D01*
X179885466Y-81000538D01*
X179667000Y-81527961D01*
X179667000Y-81564198D01*
X177882331Y-79779530D01*
X177839929Y-79716071D01*
X177588537Y-79548096D01*
X177366852Y-79504000D01*
X177366847Y-79504000D01*
X177292000Y-79489112D01*
X177217153Y-79504000D01*
X177203000Y-79504000D01*
X177203000Y-79025750D01*
X177044250Y-78867000D01*
X175895000Y-78867000D01*
X175895000Y-78887000D01*
X175641000Y-78887000D01*
X175641000Y-78867000D01*
X175621000Y-78867000D01*
X175621000Y-78613000D01*
X175641000Y-78613000D01*
X175641000Y-78593000D01*
X175895000Y-78593000D01*
X175895000Y-78613000D01*
X177044250Y-78613000D01*
X177203000Y-78454250D01*
X177203000Y-77976000D01*
X177993199Y-77976000D01*
X180518896Y-80501697D01*
G04 #@! TD*
M02*
