G04 #@! TF.GenerationSoftware,KiCad,Pcbnew,(5.0.0-3-g5ebb6b6)*
G04 #@! TF.CreationDate,2019-09-06T01:44:35-07:00*
G04 #@! TF.ProjectId,mouse,6D6F7573652E6B696361645F70636200,rev?*
G04 #@! TF.SameCoordinates,Original*
G04 #@! TF.FileFunction,Legend,Bot*
G04 #@! TF.FilePolarity,Positive*
%FSLAX46Y46*%
G04 Gerber Fmt 4.6, Leading zero omitted, Abs format (unit mm)*
G04 Created by KiCad (PCBNEW (5.0.0-3-g5ebb6b6)) date Friday, September 06, 2019 at 01:44:36 AM*
%MOMM*%
%LPD*%
G01*
G04 APERTURE LIST*
%ADD10C,0.150000*%
%ADD11C,0.120000*%
G04 APERTURE END LIST*
D10*
G04 #@! TO.C,M3*
X158559500Y-143827500D02*
X165309500Y-143827500D01*
X158559500Y-143827500D02*
X151809500Y-143827500D01*
X158559500Y-143827500D02*
X158559500Y-149927500D01*
X158559500Y-143827500D02*
X158559500Y-137727500D01*
X158559500Y-149927500D02*
X148959500Y-149927500D01*
X158559500Y-149927500D02*
X168159500Y-149927500D01*
X158559500Y-137727500D02*
X168159500Y-137727500D01*
X158559500Y-137727500D02*
X148959500Y-137727500D01*
X168159500Y-137727500D02*
X168159500Y-149927500D01*
X148959500Y-137727500D02*
X148959500Y-149927500D01*
G04 #@! TO.C,BZ1*
X163031416Y-68326000D02*
G75*
G03X163031416Y-68326000I-4535416J0D01*
G01*
G04 #@! TO.C,D4*
X201704000Y-103254000D02*
X201704000Y-100454000D01*
X203454000Y-100454000D02*
X201704000Y-100454000D01*
X203454000Y-100454000D02*
X205204000Y-100454000D01*
X205204000Y-103254000D02*
X205204000Y-100454000D01*
X203454000Y-103254000D02*
X201704000Y-103254000D01*
X203454000Y-103254000D02*
X205204000Y-103254000D01*
G04 #@! TO.C,D5*
X113665000Y-104143000D02*
X115415000Y-104143000D01*
X113665000Y-104143000D02*
X111915000Y-104143000D01*
X115415000Y-104143000D02*
X115415000Y-101343000D01*
X113665000Y-101343000D02*
X115415000Y-101343000D01*
X113665000Y-101343000D02*
X111915000Y-101343000D01*
X111915000Y-104143000D02*
X111915000Y-101343000D01*
D11*
G04 #@! TO.C,R8*
X205840000Y-99060000D02*
G75*
G03X205840000Y-99060000I-1370000J0D01*
G01*
X203100000Y-99060000D02*
X203030000Y-99060000D01*
G04 #@! TO.C,R9*
X113438000Y-98806000D02*
X113368000Y-98806000D01*
X116178000Y-98806000D02*
G75*
G03X116178000Y-98806000I-1370000J0D01*
G01*
G04 #@! TO.C,R11*
X114273000Y-86614000D02*
G75*
G03X114273000Y-86614000I-1370000J0D01*
G01*
X112903000Y-87984000D02*
X112903000Y-88054000D01*
G04 #@! TO.C,M3*
D10*
X163559619Y-148896342D02*
X163607238Y-148943961D01*
X163750095Y-148991580D01*
X163845333Y-148991580D01*
X163988190Y-148943961D01*
X164083428Y-148848723D01*
X164131047Y-148753485D01*
X164178666Y-148563009D01*
X164178666Y-148420152D01*
X164131047Y-148229676D01*
X164083428Y-148134438D01*
X163988190Y-148039200D01*
X163845333Y-147991580D01*
X163750095Y-147991580D01*
X163607238Y-148039200D01*
X163559619Y-148086819D01*
X163178666Y-148705866D02*
X162702476Y-148705866D01*
X163273904Y-148991580D02*
X162940571Y-147991580D01*
X162607238Y-148991580D01*
X162321523Y-148943961D02*
X162178666Y-148991580D01*
X161940571Y-148991580D01*
X161845333Y-148943961D01*
X161797714Y-148896342D01*
X161750095Y-148801104D01*
X161750095Y-148705866D01*
X161797714Y-148610628D01*
X161845333Y-148563009D01*
X161940571Y-148515390D01*
X162131047Y-148467771D01*
X162226285Y-148420152D01*
X162273904Y-148372533D01*
X162321523Y-148277295D01*
X162321523Y-148182057D01*
X162273904Y-148086819D01*
X162226285Y-148039200D01*
X162131047Y-147991580D01*
X161892952Y-147991580D01*
X161750095Y-148039200D01*
X161464380Y-147991580D02*
X160892952Y-147991580D01*
X161178666Y-148991580D02*
X161178666Y-147991580D01*
X160559619Y-148467771D02*
X160226285Y-148467771D01*
X160083428Y-148991580D02*
X160559619Y-148991580D01*
X160559619Y-147991580D01*
X160083428Y-147991580D01*
X159083428Y-148991580D02*
X159416761Y-148515390D01*
X159654857Y-148991580D02*
X159654857Y-147991580D01*
X159273904Y-147991580D01*
X159178666Y-148039200D01*
X159131047Y-148086819D01*
X159083428Y-148182057D01*
X159083428Y-148324914D01*
X159131047Y-148420152D01*
X159178666Y-148467771D01*
X159273904Y-148515390D01*
X159654857Y-148515390D01*
X158892952Y-149086819D02*
X158131047Y-149086819D01*
X157559619Y-148467771D02*
X157416761Y-148515390D01*
X157369142Y-148563009D01*
X157321523Y-148658247D01*
X157321523Y-148801104D01*
X157369142Y-148896342D01*
X157416761Y-148943961D01*
X157512000Y-148991580D01*
X157892952Y-148991580D01*
X157892952Y-147991580D01*
X157559619Y-147991580D01*
X157464380Y-148039200D01*
X157416761Y-148086819D01*
X157369142Y-148182057D01*
X157369142Y-148277295D01*
X157416761Y-148372533D01*
X157464380Y-148420152D01*
X157559619Y-148467771D01*
X157892952Y-148467771D01*
X156940571Y-148705866D02*
X156464380Y-148705866D01*
X157035809Y-148991580D02*
X156702476Y-147991580D01*
X156369142Y-148991580D01*
X155559619Y-148991580D02*
X156035809Y-148991580D01*
X156035809Y-147991580D01*
X154750095Y-148991580D02*
X155226285Y-148991580D01*
X155226285Y-147991580D01*
G04 #@! TO.C,BZ1*
X152874571Y-67345047D02*
X152922190Y-67487904D01*
X152969809Y-67535523D01*
X153065047Y-67583142D01*
X153207904Y-67583142D01*
X153303142Y-67535523D01*
X153350761Y-67487904D01*
X153398380Y-67392666D01*
X153398380Y-67011714D01*
X152398380Y-67011714D01*
X152398380Y-67345047D01*
X152446000Y-67440285D01*
X152493619Y-67487904D01*
X152588857Y-67535523D01*
X152684095Y-67535523D01*
X152779333Y-67487904D01*
X152826952Y-67440285D01*
X152874571Y-67345047D01*
X152874571Y-67011714D01*
X152398380Y-67916476D02*
X152398380Y-68583142D01*
X153398380Y-67916476D01*
X153398380Y-68583142D01*
X153398380Y-69487904D02*
X153398380Y-68916476D01*
X153398380Y-69202190D02*
X152398380Y-69202190D01*
X152541238Y-69106952D01*
X152636476Y-69011714D01*
X152684095Y-68916476D01*
X157217428Y-70495047D02*
X157217428Y-71256952D01*
X157267428Y-65445047D02*
X157267428Y-66206952D01*
X157648380Y-65826000D02*
X156886476Y-65826000D01*
G04 #@! TO.C,D4*
X204192095Y-104719380D02*
X204192095Y-103719380D01*
X203954000Y-103719380D01*
X203811142Y-103767000D01*
X203715904Y-103862238D01*
X203668285Y-103957476D01*
X203620666Y-104147952D01*
X203620666Y-104290809D01*
X203668285Y-104481285D01*
X203715904Y-104576523D01*
X203811142Y-104671761D01*
X203954000Y-104719380D01*
X204192095Y-104719380D01*
X202763523Y-104052714D02*
X202763523Y-104719380D01*
X203001619Y-103671761D02*
X203239714Y-104386047D01*
X202620666Y-104386047D01*
G04 #@! TO.C,D5*
X117374895Y-103271580D02*
X117374895Y-102271580D01*
X117136800Y-102271580D01*
X116993942Y-102319200D01*
X116898704Y-102414438D01*
X116851085Y-102509676D01*
X116803466Y-102700152D01*
X116803466Y-102843009D01*
X116851085Y-103033485D01*
X116898704Y-103128723D01*
X116993942Y-103223961D01*
X117136800Y-103271580D01*
X117374895Y-103271580D01*
X115898704Y-102271580D02*
X116374895Y-102271580D01*
X116422514Y-102747771D01*
X116374895Y-102700152D01*
X116279657Y-102652533D01*
X116041561Y-102652533D01*
X115946323Y-102700152D01*
X115898704Y-102747771D01*
X115851085Y-102843009D01*
X115851085Y-103081104D01*
X115898704Y-103176342D01*
X115946323Y-103223961D01*
X116041561Y-103271580D01*
X116279657Y-103271580D01*
X116374895Y-103223961D01*
X116422514Y-103176342D01*
G04 #@! TO.C,R8*
X200064666Y-99512380D02*
X200398000Y-99036190D01*
X200636095Y-99512380D02*
X200636095Y-98512380D01*
X200255142Y-98512380D01*
X200159904Y-98560000D01*
X200112285Y-98607619D01*
X200064666Y-98702857D01*
X200064666Y-98845714D01*
X200112285Y-98940952D01*
X200159904Y-98988571D01*
X200255142Y-99036190D01*
X200636095Y-99036190D01*
X199493238Y-98940952D02*
X199588476Y-98893333D01*
X199636095Y-98845714D01*
X199683714Y-98750476D01*
X199683714Y-98702857D01*
X199636095Y-98607619D01*
X199588476Y-98560000D01*
X199493238Y-98512380D01*
X199302761Y-98512380D01*
X199207523Y-98560000D01*
X199159904Y-98607619D01*
X199112285Y-98702857D01*
X199112285Y-98750476D01*
X199159904Y-98845714D01*
X199207523Y-98893333D01*
X199302761Y-98940952D01*
X199493238Y-98940952D01*
X199588476Y-98988571D01*
X199636095Y-99036190D01*
X199683714Y-99131428D01*
X199683714Y-99321904D01*
X199636095Y-99417142D01*
X199588476Y-99464761D01*
X199493238Y-99512380D01*
X199302761Y-99512380D01*
X199207523Y-99464761D01*
X199159904Y-99417142D01*
X199112285Y-99321904D01*
X199112285Y-99131428D01*
X199159904Y-99036190D01*
X199207523Y-98988571D01*
X199302761Y-98940952D01*
G04 #@! TO.C,R9*
X113704666Y-96870780D02*
X114038000Y-96394590D01*
X114276095Y-96870780D02*
X114276095Y-95870780D01*
X113895142Y-95870780D01*
X113799904Y-95918400D01*
X113752285Y-95966019D01*
X113704666Y-96061257D01*
X113704666Y-96204114D01*
X113752285Y-96299352D01*
X113799904Y-96346971D01*
X113895142Y-96394590D01*
X114276095Y-96394590D01*
X113228476Y-96870780D02*
X113038000Y-96870780D01*
X112942761Y-96823161D01*
X112895142Y-96775542D01*
X112799904Y-96632685D01*
X112752285Y-96442209D01*
X112752285Y-96061257D01*
X112799904Y-95966019D01*
X112847523Y-95918400D01*
X112942761Y-95870780D01*
X113133238Y-95870780D01*
X113228476Y-95918400D01*
X113276095Y-95966019D01*
X113323714Y-96061257D01*
X113323714Y-96299352D01*
X113276095Y-96394590D01*
X113228476Y-96442209D01*
X113133238Y-96489828D01*
X112942761Y-96489828D01*
X112847523Y-96442209D01*
X112799904Y-96394590D01*
X112752285Y-96299352D01*
G04 #@! TO.C,R11*
X113571257Y-91485980D02*
X113904590Y-91009790D01*
X114142685Y-91485980D02*
X114142685Y-90485980D01*
X113761733Y-90485980D01*
X113666495Y-90533600D01*
X113618876Y-90581219D01*
X113571257Y-90676457D01*
X113571257Y-90819314D01*
X113618876Y-90914552D01*
X113666495Y-90962171D01*
X113761733Y-91009790D01*
X114142685Y-91009790D01*
X112618876Y-91485980D02*
X113190304Y-91485980D01*
X112904590Y-91485980D02*
X112904590Y-90485980D01*
X112999828Y-90628838D01*
X113095066Y-90724076D01*
X113190304Y-90771695D01*
X111666495Y-91485980D02*
X112237923Y-91485980D01*
X111952209Y-91485980D02*
X111952209Y-90485980D01*
X112047447Y-90628838D01*
X112142685Y-90724076D01*
X112237923Y-90771695D01*
G04 #@! TD*
M02*
