G04 #@! TF.GenerationSoftware,KiCad,Pcbnew,(5.0.0-3-g5ebb6b6)*
G04 #@! TF.CreationDate,2020-04-02T13:12:42-07:00*
G04 #@! TF.ProjectId,mouse_v2,6D6F7573655F76322E6B696361645F70,rev?*
G04 #@! TF.SameCoordinates,Original*
G04 #@! TF.FileFunction,Paste,Bot*
G04 #@! TF.FilePolarity,Positive*
%FSLAX46Y46*%
G04 Gerber Fmt 4.6, Leading zero omitted, Abs format (unit mm)*
G04 Created by KiCad (PCBNEW (5.0.0-3-g5ebb6b6)) date Thursday, April 02, 2020 at 01:12:42 PM*
%MOMM*%
%LPD*%
G01*
G04 APERTURE LIST*
%ADD10R,1.500000X1.000000*%
%ADD11R,1.000000X1.500000*%
%ADD12C,0.100000*%
%ADD13C,1.425000*%
G04 APERTURE END LIST*
D10*
G04 #@! TO.C,D6*
X198494480Y-117139520D03*
X198494480Y-113939520D03*
X203394480Y-117139520D03*
X203394480Y-113939520D03*
G04 #@! TD*
G04 #@! TO.C,D7*
X206066560Y-67289880D03*
X206066560Y-70489880D03*
X201166560Y-67289880D03*
X201166560Y-70489880D03*
G04 #@! TD*
D11*
G04 #@! TO.C,D10*
X117243660Y-69597440D03*
X114043660Y-69597440D03*
X117243660Y-64697440D03*
X114043660Y-64697440D03*
G04 #@! TD*
D10*
G04 #@! TO.C,D11*
X117044300Y-118053920D03*
X117044300Y-114853920D03*
X121944300Y-118053920D03*
X121944300Y-114853920D03*
G04 #@! TD*
D12*
G04 #@! TO.C,C1*
G36*
X205372624Y-110817624D02*
X205396893Y-110821224D01*
X205420691Y-110827185D01*
X205443791Y-110835450D01*
X205465969Y-110845940D01*
X205487013Y-110858553D01*
X205506718Y-110873167D01*
X205524897Y-110889643D01*
X205541373Y-110907822D01*
X205555987Y-110927527D01*
X205568600Y-110948571D01*
X205579090Y-110970749D01*
X205587355Y-110993849D01*
X205593316Y-111017647D01*
X205596916Y-111041916D01*
X205598120Y-111066420D01*
X205598120Y-112316420D01*
X205596916Y-112340924D01*
X205593316Y-112365193D01*
X205587355Y-112388991D01*
X205579090Y-112412091D01*
X205568600Y-112434269D01*
X205555987Y-112455313D01*
X205541373Y-112475018D01*
X205524897Y-112493197D01*
X205506718Y-112509673D01*
X205487013Y-112524287D01*
X205465969Y-112536900D01*
X205443791Y-112547390D01*
X205420691Y-112555655D01*
X205396893Y-112561616D01*
X205372624Y-112565216D01*
X205348120Y-112566420D01*
X204423120Y-112566420D01*
X204398616Y-112565216D01*
X204374347Y-112561616D01*
X204350549Y-112555655D01*
X204327449Y-112547390D01*
X204305271Y-112536900D01*
X204284227Y-112524287D01*
X204264522Y-112509673D01*
X204246343Y-112493197D01*
X204229867Y-112475018D01*
X204215253Y-112455313D01*
X204202640Y-112434269D01*
X204192150Y-112412091D01*
X204183885Y-112388991D01*
X204177924Y-112365193D01*
X204174324Y-112340924D01*
X204173120Y-112316420D01*
X204173120Y-111066420D01*
X204174324Y-111041916D01*
X204177924Y-111017647D01*
X204183885Y-110993849D01*
X204192150Y-110970749D01*
X204202640Y-110948571D01*
X204215253Y-110927527D01*
X204229867Y-110907822D01*
X204246343Y-110889643D01*
X204264522Y-110873167D01*
X204284227Y-110858553D01*
X204305271Y-110845940D01*
X204327449Y-110835450D01*
X204350549Y-110827185D01*
X204374347Y-110821224D01*
X204398616Y-110817624D01*
X204423120Y-110816420D01*
X205348120Y-110816420D01*
X205372624Y-110817624D01*
X205372624Y-110817624D01*
G37*
D13*
X204885620Y-111691420D03*
D12*
G36*
X202397624Y-110817624D02*
X202421893Y-110821224D01*
X202445691Y-110827185D01*
X202468791Y-110835450D01*
X202490969Y-110845940D01*
X202512013Y-110858553D01*
X202531718Y-110873167D01*
X202549897Y-110889643D01*
X202566373Y-110907822D01*
X202580987Y-110927527D01*
X202593600Y-110948571D01*
X202604090Y-110970749D01*
X202612355Y-110993849D01*
X202618316Y-111017647D01*
X202621916Y-111041916D01*
X202623120Y-111066420D01*
X202623120Y-112316420D01*
X202621916Y-112340924D01*
X202618316Y-112365193D01*
X202612355Y-112388991D01*
X202604090Y-112412091D01*
X202593600Y-112434269D01*
X202580987Y-112455313D01*
X202566373Y-112475018D01*
X202549897Y-112493197D01*
X202531718Y-112509673D01*
X202512013Y-112524287D01*
X202490969Y-112536900D01*
X202468791Y-112547390D01*
X202445691Y-112555655D01*
X202421893Y-112561616D01*
X202397624Y-112565216D01*
X202373120Y-112566420D01*
X201448120Y-112566420D01*
X201423616Y-112565216D01*
X201399347Y-112561616D01*
X201375549Y-112555655D01*
X201352449Y-112547390D01*
X201330271Y-112536900D01*
X201309227Y-112524287D01*
X201289522Y-112509673D01*
X201271343Y-112493197D01*
X201254867Y-112475018D01*
X201240253Y-112455313D01*
X201227640Y-112434269D01*
X201217150Y-112412091D01*
X201208885Y-112388991D01*
X201202924Y-112365193D01*
X201199324Y-112340924D01*
X201198120Y-112316420D01*
X201198120Y-111066420D01*
X201199324Y-111041916D01*
X201202924Y-111017647D01*
X201208885Y-110993849D01*
X201217150Y-110970749D01*
X201227640Y-110948571D01*
X201240253Y-110927527D01*
X201254867Y-110907822D01*
X201271343Y-110889643D01*
X201289522Y-110873167D01*
X201309227Y-110858553D01*
X201330271Y-110845940D01*
X201352449Y-110835450D01*
X201375549Y-110827185D01*
X201399347Y-110821224D01*
X201423616Y-110817624D01*
X201448120Y-110816420D01*
X202373120Y-110816420D01*
X202397624Y-110817624D01*
X202397624Y-110817624D01*
G37*
D13*
X201910620Y-111691420D03*
G04 #@! TD*
D12*
G04 #@! TO.C,C2*
G36*
X158462244Y-76117024D02*
X158486513Y-76120624D01*
X158510311Y-76126585D01*
X158533411Y-76134850D01*
X158555589Y-76145340D01*
X158576633Y-76157953D01*
X158596338Y-76172567D01*
X158614517Y-76189043D01*
X158630993Y-76207222D01*
X158645607Y-76226927D01*
X158658220Y-76247971D01*
X158668710Y-76270149D01*
X158676975Y-76293249D01*
X158682936Y-76317047D01*
X158686536Y-76341316D01*
X158687740Y-76365820D01*
X158687740Y-77290820D01*
X158686536Y-77315324D01*
X158682936Y-77339593D01*
X158676975Y-77363391D01*
X158668710Y-77386491D01*
X158658220Y-77408669D01*
X158645607Y-77429713D01*
X158630993Y-77449418D01*
X158614517Y-77467597D01*
X158596338Y-77484073D01*
X158576633Y-77498687D01*
X158555589Y-77511300D01*
X158533411Y-77521790D01*
X158510311Y-77530055D01*
X158486513Y-77536016D01*
X158462244Y-77539616D01*
X158437740Y-77540820D01*
X157187740Y-77540820D01*
X157163236Y-77539616D01*
X157138967Y-77536016D01*
X157115169Y-77530055D01*
X157092069Y-77521790D01*
X157069891Y-77511300D01*
X157048847Y-77498687D01*
X157029142Y-77484073D01*
X157010963Y-77467597D01*
X156994487Y-77449418D01*
X156979873Y-77429713D01*
X156967260Y-77408669D01*
X156956770Y-77386491D01*
X156948505Y-77363391D01*
X156942544Y-77339593D01*
X156938944Y-77315324D01*
X156937740Y-77290820D01*
X156937740Y-76365820D01*
X156938944Y-76341316D01*
X156942544Y-76317047D01*
X156948505Y-76293249D01*
X156956770Y-76270149D01*
X156967260Y-76247971D01*
X156979873Y-76226927D01*
X156994487Y-76207222D01*
X157010963Y-76189043D01*
X157029142Y-76172567D01*
X157048847Y-76157953D01*
X157069891Y-76145340D01*
X157092069Y-76134850D01*
X157115169Y-76126585D01*
X157138967Y-76120624D01*
X157163236Y-76117024D01*
X157187740Y-76115820D01*
X158437740Y-76115820D01*
X158462244Y-76117024D01*
X158462244Y-76117024D01*
G37*
D13*
X157812740Y-76828320D03*
D12*
G36*
X158462244Y-79092024D02*
X158486513Y-79095624D01*
X158510311Y-79101585D01*
X158533411Y-79109850D01*
X158555589Y-79120340D01*
X158576633Y-79132953D01*
X158596338Y-79147567D01*
X158614517Y-79164043D01*
X158630993Y-79182222D01*
X158645607Y-79201927D01*
X158658220Y-79222971D01*
X158668710Y-79245149D01*
X158676975Y-79268249D01*
X158682936Y-79292047D01*
X158686536Y-79316316D01*
X158687740Y-79340820D01*
X158687740Y-80265820D01*
X158686536Y-80290324D01*
X158682936Y-80314593D01*
X158676975Y-80338391D01*
X158668710Y-80361491D01*
X158658220Y-80383669D01*
X158645607Y-80404713D01*
X158630993Y-80424418D01*
X158614517Y-80442597D01*
X158596338Y-80459073D01*
X158576633Y-80473687D01*
X158555589Y-80486300D01*
X158533411Y-80496790D01*
X158510311Y-80505055D01*
X158486513Y-80511016D01*
X158462244Y-80514616D01*
X158437740Y-80515820D01*
X157187740Y-80515820D01*
X157163236Y-80514616D01*
X157138967Y-80511016D01*
X157115169Y-80505055D01*
X157092069Y-80496790D01*
X157069891Y-80486300D01*
X157048847Y-80473687D01*
X157029142Y-80459073D01*
X157010963Y-80442597D01*
X156994487Y-80424418D01*
X156979873Y-80404713D01*
X156967260Y-80383669D01*
X156956770Y-80361491D01*
X156948505Y-80338391D01*
X156942544Y-80314593D01*
X156938944Y-80290324D01*
X156937740Y-80265820D01*
X156937740Y-79340820D01*
X156938944Y-79316316D01*
X156942544Y-79292047D01*
X156948505Y-79268249D01*
X156956770Y-79245149D01*
X156967260Y-79222971D01*
X156979873Y-79201927D01*
X156994487Y-79182222D01*
X157010963Y-79164043D01*
X157029142Y-79147567D01*
X157048847Y-79132953D01*
X157069891Y-79120340D01*
X157092069Y-79109850D01*
X157115169Y-79101585D01*
X157138967Y-79095624D01*
X157163236Y-79092024D01*
X157187740Y-79090820D01*
X158437740Y-79090820D01*
X158462244Y-79092024D01*
X158462244Y-79092024D01*
G37*
D13*
X157812740Y-79803320D03*
G04 #@! TD*
D12*
G04 #@! TO.C,C3*
G36*
X137982224Y-68891384D02*
X138006493Y-68894984D01*
X138030291Y-68900945D01*
X138053391Y-68909210D01*
X138075569Y-68919700D01*
X138096613Y-68932313D01*
X138116318Y-68946927D01*
X138134497Y-68963403D01*
X138150973Y-68981582D01*
X138165587Y-69001287D01*
X138178200Y-69022331D01*
X138188690Y-69044509D01*
X138196955Y-69067609D01*
X138202916Y-69091407D01*
X138206516Y-69115676D01*
X138207720Y-69140180D01*
X138207720Y-70065180D01*
X138206516Y-70089684D01*
X138202916Y-70113953D01*
X138196955Y-70137751D01*
X138188690Y-70160851D01*
X138178200Y-70183029D01*
X138165587Y-70204073D01*
X138150973Y-70223778D01*
X138134497Y-70241957D01*
X138116318Y-70258433D01*
X138096613Y-70273047D01*
X138075569Y-70285660D01*
X138053391Y-70296150D01*
X138030291Y-70304415D01*
X138006493Y-70310376D01*
X137982224Y-70313976D01*
X137957720Y-70315180D01*
X136707720Y-70315180D01*
X136683216Y-70313976D01*
X136658947Y-70310376D01*
X136635149Y-70304415D01*
X136612049Y-70296150D01*
X136589871Y-70285660D01*
X136568827Y-70273047D01*
X136549122Y-70258433D01*
X136530943Y-70241957D01*
X136514467Y-70223778D01*
X136499853Y-70204073D01*
X136487240Y-70183029D01*
X136476750Y-70160851D01*
X136468485Y-70137751D01*
X136462524Y-70113953D01*
X136458924Y-70089684D01*
X136457720Y-70065180D01*
X136457720Y-69140180D01*
X136458924Y-69115676D01*
X136462524Y-69091407D01*
X136468485Y-69067609D01*
X136476750Y-69044509D01*
X136487240Y-69022331D01*
X136499853Y-69001287D01*
X136514467Y-68981582D01*
X136530943Y-68963403D01*
X136549122Y-68946927D01*
X136568827Y-68932313D01*
X136589871Y-68919700D01*
X136612049Y-68909210D01*
X136635149Y-68900945D01*
X136658947Y-68894984D01*
X136683216Y-68891384D01*
X136707720Y-68890180D01*
X137957720Y-68890180D01*
X137982224Y-68891384D01*
X137982224Y-68891384D01*
G37*
D13*
X137332720Y-69602680D03*
D12*
G36*
X137982224Y-65916384D02*
X138006493Y-65919984D01*
X138030291Y-65925945D01*
X138053391Y-65934210D01*
X138075569Y-65944700D01*
X138096613Y-65957313D01*
X138116318Y-65971927D01*
X138134497Y-65988403D01*
X138150973Y-66006582D01*
X138165587Y-66026287D01*
X138178200Y-66047331D01*
X138188690Y-66069509D01*
X138196955Y-66092609D01*
X138202916Y-66116407D01*
X138206516Y-66140676D01*
X138207720Y-66165180D01*
X138207720Y-67090180D01*
X138206516Y-67114684D01*
X138202916Y-67138953D01*
X138196955Y-67162751D01*
X138188690Y-67185851D01*
X138178200Y-67208029D01*
X138165587Y-67229073D01*
X138150973Y-67248778D01*
X138134497Y-67266957D01*
X138116318Y-67283433D01*
X138096613Y-67298047D01*
X138075569Y-67310660D01*
X138053391Y-67321150D01*
X138030291Y-67329415D01*
X138006493Y-67335376D01*
X137982224Y-67338976D01*
X137957720Y-67340180D01*
X136707720Y-67340180D01*
X136683216Y-67338976D01*
X136658947Y-67335376D01*
X136635149Y-67329415D01*
X136612049Y-67321150D01*
X136589871Y-67310660D01*
X136568827Y-67298047D01*
X136549122Y-67283433D01*
X136530943Y-67266957D01*
X136514467Y-67248778D01*
X136499853Y-67229073D01*
X136487240Y-67208029D01*
X136476750Y-67185851D01*
X136468485Y-67162751D01*
X136462524Y-67138953D01*
X136458924Y-67114684D01*
X136457720Y-67090180D01*
X136457720Y-66165180D01*
X136458924Y-66140676D01*
X136462524Y-66116407D01*
X136468485Y-66092609D01*
X136476750Y-66069509D01*
X136487240Y-66047331D01*
X136499853Y-66026287D01*
X136514467Y-66006582D01*
X136530943Y-65988403D01*
X136549122Y-65971927D01*
X136568827Y-65957313D01*
X136589871Y-65944700D01*
X136612049Y-65934210D01*
X136635149Y-65925945D01*
X136658947Y-65919984D01*
X136683216Y-65916384D01*
X136707720Y-65915180D01*
X137957720Y-65915180D01*
X137982224Y-65916384D01*
X137982224Y-65916384D01*
G37*
D13*
X137332720Y-66627680D03*
G04 #@! TD*
D12*
G04 #@! TO.C,C4*
G36*
X206732404Y-61077684D02*
X206756673Y-61081284D01*
X206780471Y-61087245D01*
X206803571Y-61095510D01*
X206825749Y-61106000D01*
X206846793Y-61118613D01*
X206866498Y-61133227D01*
X206884677Y-61149703D01*
X206901153Y-61167882D01*
X206915767Y-61187587D01*
X206928380Y-61208631D01*
X206938870Y-61230809D01*
X206947135Y-61253909D01*
X206953096Y-61277707D01*
X206956696Y-61301976D01*
X206957900Y-61326480D01*
X206957900Y-62251480D01*
X206956696Y-62275984D01*
X206953096Y-62300253D01*
X206947135Y-62324051D01*
X206938870Y-62347151D01*
X206928380Y-62369329D01*
X206915767Y-62390373D01*
X206901153Y-62410078D01*
X206884677Y-62428257D01*
X206866498Y-62444733D01*
X206846793Y-62459347D01*
X206825749Y-62471960D01*
X206803571Y-62482450D01*
X206780471Y-62490715D01*
X206756673Y-62496676D01*
X206732404Y-62500276D01*
X206707900Y-62501480D01*
X205457900Y-62501480D01*
X205433396Y-62500276D01*
X205409127Y-62496676D01*
X205385329Y-62490715D01*
X205362229Y-62482450D01*
X205340051Y-62471960D01*
X205319007Y-62459347D01*
X205299302Y-62444733D01*
X205281123Y-62428257D01*
X205264647Y-62410078D01*
X205250033Y-62390373D01*
X205237420Y-62369329D01*
X205226930Y-62347151D01*
X205218665Y-62324051D01*
X205212704Y-62300253D01*
X205209104Y-62275984D01*
X205207900Y-62251480D01*
X205207900Y-61326480D01*
X205209104Y-61301976D01*
X205212704Y-61277707D01*
X205218665Y-61253909D01*
X205226930Y-61230809D01*
X205237420Y-61208631D01*
X205250033Y-61187587D01*
X205264647Y-61167882D01*
X205281123Y-61149703D01*
X205299302Y-61133227D01*
X205319007Y-61118613D01*
X205340051Y-61106000D01*
X205362229Y-61095510D01*
X205385329Y-61087245D01*
X205409127Y-61081284D01*
X205433396Y-61077684D01*
X205457900Y-61076480D01*
X206707900Y-61076480D01*
X206732404Y-61077684D01*
X206732404Y-61077684D01*
G37*
D13*
X206082900Y-61788980D03*
D12*
G36*
X206732404Y-64052684D02*
X206756673Y-64056284D01*
X206780471Y-64062245D01*
X206803571Y-64070510D01*
X206825749Y-64081000D01*
X206846793Y-64093613D01*
X206866498Y-64108227D01*
X206884677Y-64124703D01*
X206901153Y-64142882D01*
X206915767Y-64162587D01*
X206928380Y-64183631D01*
X206938870Y-64205809D01*
X206947135Y-64228909D01*
X206953096Y-64252707D01*
X206956696Y-64276976D01*
X206957900Y-64301480D01*
X206957900Y-65226480D01*
X206956696Y-65250984D01*
X206953096Y-65275253D01*
X206947135Y-65299051D01*
X206938870Y-65322151D01*
X206928380Y-65344329D01*
X206915767Y-65365373D01*
X206901153Y-65385078D01*
X206884677Y-65403257D01*
X206866498Y-65419733D01*
X206846793Y-65434347D01*
X206825749Y-65446960D01*
X206803571Y-65457450D01*
X206780471Y-65465715D01*
X206756673Y-65471676D01*
X206732404Y-65475276D01*
X206707900Y-65476480D01*
X205457900Y-65476480D01*
X205433396Y-65475276D01*
X205409127Y-65471676D01*
X205385329Y-65465715D01*
X205362229Y-65457450D01*
X205340051Y-65446960D01*
X205319007Y-65434347D01*
X205299302Y-65419733D01*
X205281123Y-65403257D01*
X205264647Y-65385078D01*
X205250033Y-65365373D01*
X205237420Y-65344329D01*
X205226930Y-65322151D01*
X205218665Y-65299051D01*
X205212704Y-65275253D01*
X205209104Y-65250984D01*
X205207900Y-65226480D01*
X205207900Y-64301480D01*
X205209104Y-64276976D01*
X205212704Y-64252707D01*
X205218665Y-64228909D01*
X205226930Y-64205809D01*
X205237420Y-64183631D01*
X205250033Y-64162587D01*
X205264647Y-64142882D01*
X205281123Y-64124703D01*
X205299302Y-64108227D01*
X205319007Y-64093613D01*
X205340051Y-64081000D01*
X205362229Y-64070510D01*
X205385329Y-64062245D01*
X205409127Y-64056284D01*
X205433396Y-64052684D01*
X205457900Y-64051480D01*
X206707900Y-64051480D01*
X206732404Y-64052684D01*
X206732404Y-64052684D01*
G37*
D13*
X206082900Y-64763980D03*
G04 #@! TD*
D12*
G04 #@! TO.C,C7*
G36*
X114462824Y-59801724D02*
X114487093Y-59805324D01*
X114510891Y-59811285D01*
X114533991Y-59819550D01*
X114556169Y-59830040D01*
X114577213Y-59842653D01*
X114596918Y-59857267D01*
X114615097Y-59873743D01*
X114631573Y-59891922D01*
X114646187Y-59911627D01*
X114658800Y-59932671D01*
X114669290Y-59954849D01*
X114677555Y-59977949D01*
X114683516Y-60001747D01*
X114687116Y-60026016D01*
X114688320Y-60050520D01*
X114688320Y-61300520D01*
X114687116Y-61325024D01*
X114683516Y-61349293D01*
X114677555Y-61373091D01*
X114669290Y-61396191D01*
X114658800Y-61418369D01*
X114646187Y-61439413D01*
X114631573Y-61459118D01*
X114615097Y-61477297D01*
X114596918Y-61493773D01*
X114577213Y-61508387D01*
X114556169Y-61521000D01*
X114533991Y-61531490D01*
X114510891Y-61539755D01*
X114487093Y-61545716D01*
X114462824Y-61549316D01*
X114438320Y-61550520D01*
X113513320Y-61550520D01*
X113488816Y-61549316D01*
X113464547Y-61545716D01*
X113440749Y-61539755D01*
X113417649Y-61531490D01*
X113395471Y-61521000D01*
X113374427Y-61508387D01*
X113354722Y-61493773D01*
X113336543Y-61477297D01*
X113320067Y-61459118D01*
X113305453Y-61439413D01*
X113292840Y-61418369D01*
X113282350Y-61396191D01*
X113274085Y-61373091D01*
X113268124Y-61349293D01*
X113264524Y-61325024D01*
X113263320Y-61300520D01*
X113263320Y-60050520D01*
X113264524Y-60026016D01*
X113268124Y-60001747D01*
X113274085Y-59977949D01*
X113282350Y-59954849D01*
X113292840Y-59932671D01*
X113305453Y-59911627D01*
X113320067Y-59891922D01*
X113336543Y-59873743D01*
X113354722Y-59857267D01*
X113374427Y-59842653D01*
X113395471Y-59830040D01*
X113417649Y-59819550D01*
X113440749Y-59811285D01*
X113464547Y-59805324D01*
X113488816Y-59801724D01*
X113513320Y-59800520D01*
X114438320Y-59800520D01*
X114462824Y-59801724D01*
X114462824Y-59801724D01*
G37*
D13*
X113975820Y-60675520D03*
D12*
G36*
X117437824Y-59801724D02*
X117462093Y-59805324D01*
X117485891Y-59811285D01*
X117508991Y-59819550D01*
X117531169Y-59830040D01*
X117552213Y-59842653D01*
X117571918Y-59857267D01*
X117590097Y-59873743D01*
X117606573Y-59891922D01*
X117621187Y-59911627D01*
X117633800Y-59932671D01*
X117644290Y-59954849D01*
X117652555Y-59977949D01*
X117658516Y-60001747D01*
X117662116Y-60026016D01*
X117663320Y-60050520D01*
X117663320Y-61300520D01*
X117662116Y-61325024D01*
X117658516Y-61349293D01*
X117652555Y-61373091D01*
X117644290Y-61396191D01*
X117633800Y-61418369D01*
X117621187Y-61439413D01*
X117606573Y-61459118D01*
X117590097Y-61477297D01*
X117571918Y-61493773D01*
X117552213Y-61508387D01*
X117531169Y-61521000D01*
X117508991Y-61531490D01*
X117485891Y-61539755D01*
X117462093Y-61545716D01*
X117437824Y-61549316D01*
X117413320Y-61550520D01*
X116488320Y-61550520D01*
X116463816Y-61549316D01*
X116439547Y-61545716D01*
X116415749Y-61539755D01*
X116392649Y-61531490D01*
X116370471Y-61521000D01*
X116349427Y-61508387D01*
X116329722Y-61493773D01*
X116311543Y-61477297D01*
X116295067Y-61459118D01*
X116280453Y-61439413D01*
X116267840Y-61418369D01*
X116257350Y-61396191D01*
X116249085Y-61373091D01*
X116243124Y-61349293D01*
X116239524Y-61325024D01*
X116238320Y-61300520D01*
X116238320Y-60050520D01*
X116239524Y-60026016D01*
X116243124Y-60001747D01*
X116249085Y-59977949D01*
X116257350Y-59954849D01*
X116267840Y-59932671D01*
X116280453Y-59911627D01*
X116295067Y-59891922D01*
X116311543Y-59873743D01*
X116329722Y-59857267D01*
X116349427Y-59842653D01*
X116370471Y-59830040D01*
X116392649Y-59819550D01*
X116415749Y-59811285D01*
X116439547Y-59805324D01*
X116463816Y-59801724D01*
X116488320Y-59800520D01*
X117413320Y-59800520D01*
X117437824Y-59801724D01*
X117437824Y-59801724D01*
G37*
D13*
X116950820Y-60675520D03*
G04 #@! TD*
D12*
G04 #@! TO.C,C8*
G36*
X118727484Y-119339324D02*
X118751753Y-119342924D01*
X118775551Y-119348885D01*
X118798651Y-119357150D01*
X118820829Y-119367640D01*
X118841873Y-119380253D01*
X118861578Y-119394867D01*
X118879757Y-119411343D01*
X118896233Y-119429522D01*
X118910847Y-119449227D01*
X118923460Y-119470271D01*
X118933950Y-119492449D01*
X118942215Y-119515549D01*
X118948176Y-119539347D01*
X118951776Y-119563616D01*
X118952980Y-119588120D01*
X118952980Y-120838120D01*
X118951776Y-120862624D01*
X118948176Y-120886893D01*
X118942215Y-120910691D01*
X118933950Y-120933791D01*
X118923460Y-120955969D01*
X118910847Y-120977013D01*
X118896233Y-120996718D01*
X118879757Y-121014897D01*
X118861578Y-121031373D01*
X118841873Y-121045987D01*
X118820829Y-121058600D01*
X118798651Y-121069090D01*
X118775551Y-121077355D01*
X118751753Y-121083316D01*
X118727484Y-121086916D01*
X118702980Y-121088120D01*
X117777980Y-121088120D01*
X117753476Y-121086916D01*
X117729207Y-121083316D01*
X117705409Y-121077355D01*
X117682309Y-121069090D01*
X117660131Y-121058600D01*
X117639087Y-121045987D01*
X117619382Y-121031373D01*
X117601203Y-121014897D01*
X117584727Y-120996718D01*
X117570113Y-120977013D01*
X117557500Y-120955969D01*
X117547010Y-120933791D01*
X117538745Y-120910691D01*
X117532784Y-120886893D01*
X117529184Y-120862624D01*
X117527980Y-120838120D01*
X117527980Y-119588120D01*
X117529184Y-119563616D01*
X117532784Y-119539347D01*
X117538745Y-119515549D01*
X117547010Y-119492449D01*
X117557500Y-119470271D01*
X117570113Y-119449227D01*
X117584727Y-119429522D01*
X117601203Y-119411343D01*
X117619382Y-119394867D01*
X117639087Y-119380253D01*
X117660131Y-119367640D01*
X117682309Y-119357150D01*
X117705409Y-119348885D01*
X117729207Y-119342924D01*
X117753476Y-119339324D01*
X117777980Y-119338120D01*
X118702980Y-119338120D01*
X118727484Y-119339324D01*
X118727484Y-119339324D01*
G37*
D13*
X118240480Y-120213120D03*
D12*
G36*
X121702484Y-119339324D02*
X121726753Y-119342924D01*
X121750551Y-119348885D01*
X121773651Y-119357150D01*
X121795829Y-119367640D01*
X121816873Y-119380253D01*
X121836578Y-119394867D01*
X121854757Y-119411343D01*
X121871233Y-119429522D01*
X121885847Y-119449227D01*
X121898460Y-119470271D01*
X121908950Y-119492449D01*
X121917215Y-119515549D01*
X121923176Y-119539347D01*
X121926776Y-119563616D01*
X121927980Y-119588120D01*
X121927980Y-120838120D01*
X121926776Y-120862624D01*
X121923176Y-120886893D01*
X121917215Y-120910691D01*
X121908950Y-120933791D01*
X121898460Y-120955969D01*
X121885847Y-120977013D01*
X121871233Y-120996718D01*
X121854757Y-121014897D01*
X121836578Y-121031373D01*
X121816873Y-121045987D01*
X121795829Y-121058600D01*
X121773651Y-121069090D01*
X121750551Y-121077355D01*
X121726753Y-121083316D01*
X121702484Y-121086916D01*
X121677980Y-121088120D01*
X120752980Y-121088120D01*
X120728476Y-121086916D01*
X120704207Y-121083316D01*
X120680409Y-121077355D01*
X120657309Y-121069090D01*
X120635131Y-121058600D01*
X120614087Y-121045987D01*
X120594382Y-121031373D01*
X120576203Y-121014897D01*
X120559727Y-120996718D01*
X120545113Y-120977013D01*
X120532500Y-120955969D01*
X120522010Y-120933791D01*
X120513745Y-120910691D01*
X120507784Y-120886893D01*
X120504184Y-120862624D01*
X120502980Y-120838120D01*
X120502980Y-119588120D01*
X120504184Y-119563616D01*
X120507784Y-119539347D01*
X120513745Y-119515549D01*
X120522010Y-119492449D01*
X120532500Y-119470271D01*
X120545113Y-119449227D01*
X120559727Y-119429522D01*
X120576203Y-119411343D01*
X120594382Y-119394867D01*
X120614087Y-119380253D01*
X120635131Y-119367640D01*
X120657309Y-119357150D01*
X120680409Y-119348885D01*
X120704207Y-119342924D01*
X120728476Y-119339324D01*
X120752980Y-119338120D01*
X121677980Y-119338120D01*
X121702484Y-119339324D01*
X121702484Y-119339324D01*
G37*
D13*
X121215480Y-120213120D03*
G04 #@! TD*
D12*
G04 #@! TO.C,C10*
G36*
X172938704Y-58427584D02*
X172962973Y-58431184D01*
X172986771Y-58437145D01*
X173009871Y-58445410D01*
X173032049Y-58455900D01*
X173053093Y-58468513D01*
X173072798Y-58483127D01*
X173090977Y-58499603D01*
X173107453Y-58517782D01*
X173122067Y-58537487D01*
X173134680Y-58558531D01*
X173145170Y-58580709D01*
X173153435Y-58603809D01*
X173159396Y-58627607D01*
X173162996Y-58651876D01*
X173164200Y-58676380D01*
X173164200Y-59926380D01*
X173162996Y-59950884D01*
X173159396Y-59975153D01*
X173153435Y-59998951D01*
X173145170Y-60022051D01*
X173134680Y-60044229D01*
X173122067Y-60065273D01*
X173107453Y-60084978D01*
X173090977Y-60103157D01*
X173072798Y-60119633D01*
X173053093Y-60134247D01*
X173032049Y-60146860D01*
X173009871Y-60157350D01*
X172986771Y-60165615D01*
X172962973Y-60171576D01*
X172938704Y-60175176D01*
X172914200Y-60176380D01*
X171989200Y-60176380D01*
X171964696Y-60175176D01*
X171940427Y-60171576D01*
X171916629Y-60165615D01*
X171893529Y-60157350D01*
X171871351Y-60146860D01*
X171850307Y-60134247D01*
X171830602Y-60119633D01*
X171812423Y-60103157D01*
X171795947Y-60084978D01*
X171781333Y-60065273D01*
X171768720Y-60044229D01*
X171758230Y-60022051D01*
X171749965Y-59998951D01*
X171744004Y-59975153D01*
X171740404Y-59950884D01*
X171739200Y-59926380D01*
X171739200Y-58676380D01*
X171740404Y-58651876D01*
X171744004Y-58627607D01*
X171749965Y-58603809D01*
X171758230Y-58580709D01*
X171768720Y-58558531D01*
X171781333Y-58537487D01*
X171795947Y-58517782D01*
X171812423Y-58499603D01*
X171830602Y-58483127D01*
X171850307Y-58468513D01*
X171871351Y-58455900D01*
X171893529Y-58445410D01*
X171916629Y-58437145D01*
X171940427Y-58431184D01*
X171964696Y-58427584D01*
X171989200Y-58426380D01*
X172914200Y-58426380D01*
X172938704Y-58427584D01*
X172938704Y-58427584D01*
G37*
D13*
X172451700Y-59301380D03*
D12*
G36*
X175913704Y-58427584D02*
X175937973Y-58431184D01*
X175961771Y-58437145D01*
X175984871Y-58445410D01*
X176007049Y-58455900D01*
X176028093Y-58468513D01*
X176047798Y-58483127D01*
X176065977Y-58499603D01*
X176082453Y-58517782D01*
X176097067Y-58537487D01*
X176109680Y-58558531D01*
X176120170Y-58580709D01*
X176128435Y-58603809D01*
X176134396Y-58627607D01*
X176137996Y-58651876D01*
X176139200Y-58676380D01*
X176139200Y-59926380D01*
X176137996Y-59950884D01*
X176134396Y-59975153D01*
X176128435Y-59998951D01*
X176120170Y-60022051D01*
X176109680Y-60044229D01*
X176097067Y-60065273D01*
X176082453Y-60084978D01*
X176065977Y-60103157D01*
X176047798Y-60119633D01*
X176028093Y-60134247D01*
X176007049Y-60146860D01*
X175984871Y-60157350D01*
X175961771Y-60165615D01*
X175937973Y-60171576D01*
X175913704Y-60175176D01*
X175889200Y-60176380D01*
X174964200Y-60176380D01*
X174939696Y-60175176D01*
X174915427Y-60171576D01*
X174891629Y-60165615D01*
X174868529Y-60157350D01*
X174846351Y-60146860D01*
X174825307Y-60134247D01*
X174805602Y-60119633D01*
X174787423Y-60103157D01*
X174770947Y-60084978D01*
X174756333Y-60065273D01*
X174743720Y-60044229D01*
X174733230Y-60022051D01*
X174724965Y-59998951D01*
X174719004Y-59975153D01*
X174715404Y-59950884D01*
X174714200Y-59926380D01*
X174714200Y-58676380D01*
X174715404Y-58651876D01*
X174719004Y-58627607D01*
X174724965Y-58603809D01*
X174733230Y-58580709D01*
X174743720Y-58558531D01*
X174756333Y-58537487D01*
X174770947Y-58517782D01*
X174787423Y-58499603D01*
X174805602Y-58483127D01*
X174825307Y-58468513D01*
X174846351Y-58455900D01*
X174868529Y-58445410D01*
X174891629Y-58437145D01*
X174915427Y-58431184D01*
X174939696Y-58427584D01*
X174964200Y-58426380D01*
X175889200Y-58426380D01*
X175913704Y-58427584D01*
X175913704Y-58427584D01*
G37*
D13*
X175426700Y-59301380D03*
G04 #@! TD*
D12*
G04 #@! TO.C,C11*
G36*
X146679184Y-144560524D02*
X146703453Y-144564124D01*
X146727251Y-144570085D01*
X146750351Y-144578350D01*
X146772529Y-144588840D01*
X146793573Y-144601453D01*
X146813278Y-144616067D01*
X146831457Y-144632543D01*
X146847933Y-144650722D01*
X146862547Y-144670427D01*
X146875160Y-144691471D01*
X146885650Y-144713649D01*
X146893915Y-144736749D01*
X146899876Y-144760547D01*
X146903476Y-144784816D01*
X146904680Y-144809320D01*
X146904680Y-145734320D01*
X146903476Y-145758824D01*
X146899876Y-145783093D01*
X146893915Y-145806891D01*
X146885650Y-145829991D01*
X146875160Y-145852169D01*
X146862547Y-145873213D01*
X146847933Y-145892918D01*
X146831457Y-145911097D01*
X146813278Y-145927573D01*
X146793573Y-145942187D01*
X146772529Y-145954800D01*
X146750351Y-145965290D01*
X146727251Y-145973555D01*
X146703453Y-145979516D01*
X146679184Y-145983116D01*
X146654680Y-145984320D01*
X145404680Y-145984320D01*
X145380176Y-145983116D01*
X145355907Y-145979516D01*
X145332109Y-145973555D01*
X145309009Y-145965290D01*
X145286831Y-145954800D01*
X145265787Y-145942187D01*
X145246082Y-145927573D01*
X145227903Y-145911097D01*
X145211427Y-145892918D01*
X145196813Y-145873213D01*
X145184200Y-145852169D01*
X145173710Y-145829991D01*
X145165445Y-145806891D01*
X145159484Y-145783093D01*
X145155884Y-145758824D01*
X145154680Y-145734320D01*
X145154680Y-144809320D01*
X145155884Y-144784816D01*
X145159484Y-144760547D01*
X145165445Y-144736749D01*
X145173710Y-144713649D01*
X145184200Y-144691471D01*
X145196813Y-144670427D01*
X145211427Y-144650722D01*
X145227903Y-144632543D01*
X145246082Y-144616067D01*
X145265787Y-144601453D01*
X145286831Y-144588840D01*
X145309009Y-144578350D01*
X145332109Y-144570085D01*
X145355907Y-144564124D01*
X145380176Y-144560524D01*
X145404680Y-144559320D01*
X146654680Y-144559320D01*
X146679184Y-144560524D01*
X146679184Y-144560524D01*
G37*
D13*
X146029680Y-145271820D03*
D12*
G36*
X146679184Y-141585524D02*
X146703453Y-141589124D01*
X146727251Y-141595085D01*
X146750351Y-141603350D01*
X146772529Y-141613840D01*
X146793573Y-141626453D01*
X146813278Y-141641067D01*
X146831457Y-141657543D01*
X146847933Y-141675722D01*
X146862547Y-141695427D01*
X146875160Y-141716471D01*
X146885650Y-141738649D01*
X146893915Y-141761749D01*
X146899876Y-141785547D01*
X146903476Y-141809816D01*
X146904680Y-141834320D01*
X146904680Y-142759320D01*
X146903476Y-142783824D01*
X146899876Y-142808093D01*
X146893915Y-142831891D01*
X146885650Y-142854991D01*
X146875160Y-142877169D01*
X146862547Y-142898213D01*
X146847933Y-142917918D01*
X146831457Y-142936097D01*
X146813278Y-142952573D01*
X146793573Y-142967187D01*
X146772529Y-142979800D01*
X146750351Y-142990290D01*
X146727251Y-142998555D01*
X146703453Y-143004516D01*
X146679184Y-143008116D01*
X146654680Y-143009320D01*
X145404680Y-143009320D01*
X145380176Y-143008116D01*
X145355907Y-143004516D01*
X145332109Y-142998555D01*
X145309009Y-142990290D01*
X145286831Y-142979800D01*
X145265787Y-142967187D01*
X145246082Y-142952573D01*
X145227903Y-142936097D01*
X145211427Y-142917918D01*
X145196813Y-142898213D01*
X145184200Y-142877169D01*
X145173710Y-142854991D01*
X145165445Y-142831891D01*
X145159484Y-142808093D01*
X145155884Y-142783824D01*
X145154680Y-142759320D01*
X145154680Y-141834320D01*
X145155884Y-141809816D01*
X145159484Y-141785547D01*
X145165445Y-141761749D01*
X145173710Y-141738649D01*
X145184200Y-141716471D01*
X145196813Y-141695427D01*
X145211427Y-141675722D01*
X145227903Y-141657543D01*
X145246082Y-141641067D01*
X145265787Y-141626453D01*
X145286831Y-141613840D01*
X145309009Y-141603350D01*
X145332109Y-141595085D01*
X145355907Y-141589124D01*
X145380176Y-141585524D01*
X145404680Y-141584320D01*
X146654680Y-141584320D01*
X146679184Y-141585524D01*
X146679184Y-141585524D01*
G37*
D13*
X146029680Y-142296820D03*
G04 #@! TD*
D12*
G04 #@! TO.C,C12*
G36*
X183672744Y-138851604D02*
X183697013Y-138855204D01*
X183720811Y-138861165D01*
X183743911Y-138869430D01*
X183766089Y-138879920D01*
X183787133Y-138892533D01*
X183806838Y-138907147D01*
X183825017Y-138923623D01*
X183841493Y-138941802D01*
X183856107Y-138961507D01*
X183868720Y-138982551D01*
X183879210Y-139004729D01*
X183887475Y-139027829D01*
X183893436Y-139051627D01*
X183897036Y-139075896D01*
X183898240Y-139100400D01*
X183898240Y-140350400D01*
X183897036Y-140374904D01*
X183893436Y-140399173D01*
X183887475Y-140422971D01*
X183879210Y-140446071D01*
X183868720Y-140468249D01*
X183856107Y-140489293D01*
X183841493Y-140508998D01*
X183825017Y-140527177D01*
X183806838Y-140543653D01*
X183787133Y-140558267D01*
X183766089Y-140570880D01*
X183743911Y-140581370D01*
X183720811Y-140589635D01*
X183697013Y-140595596D01*
X183672744Y-140599196D01*
X183648240Y-140600400D01*
X182723240Y-140600400D01*
X182698736Y-140599196D01*
X182674467Y-140595596D01*
X182650669Y-140589635D01*
X182627569Y-140581370D01*
X182605391Y-140570880D01*
X182584347Y-140558267D01*
X182564642Y-140543653D01*
X182546463Y-140527177D01*
X182529987Y-140508998D01*
X182515373Y-140489293D01*
X182502760Y-140468249D01*
X182492270Y-140446071D01*
X182484005Y-140422971D01*
X182478044Y-140399173D01*
X182474444Y-140374904D01*
X182473240Y-140350400D01*
X182473240Y-139100400D01*
X182474444Y-139075896D01*
X182478044Y-139051627D01*
X182484005Y-139027829D01*
X182492270Y-139004729D01*
X182502760Y-138982551D01*
X182515373Y-138961507D01*
X182529987Y-138941802D01*
X182546463Y-138923623D01*
X182564642Y-138907147D01*
X182584347Y-138892533D01*
X182605391Y-138879920D01*
X182627569Y-138869430D01*
X182650669Y-138861165D01*
X182674467Y-138855204D01*
X182698736Y-138851604D01*
X182723240Y-138850400D01*
X183648240Y-138850400D01*
X183672744Y-138851604D01*
X183672744Y-138851604D01*
G37*
D13*
X183185740Y-139725400D03*
D12*
G36*
X186647744Y-138851604D02*
X186672013Y-138855204D01*
X186695811Y-138861165D01*
X186718911Y-138869430D01*
X186741089Y-138879920D01*
X186762133Y-138892533D01*
X186781838Y-138907147D01*
X186800017Y-138923623D01*
X186816493Y-138941802D01*
X186831107Y-138961507D01*
X186843720Y-138982551D01*
X186854210Y-139004729D01*
X186862475Y-139027829D01*
X186868436Y-139051627D01*
X186872036Y-139075896D01*
X186873240Y-139100400D01*
X186873240Y-140350400D01*
X186872036Y-140374904D01*
X186868436Y-140399173D01*
X186862475Y-140422971D01*
X186854210Y-140446071D01*
X186843720Y-140468249D01*
X186831107Y-140489293D01*
X186816493Y-140508998D01*
X186800017Y-140527177D01*
X186781838Y-140543653D01*
X186762133Y-140558267D01*
X186741089Y-140570880D01*
X186718911Y-140581370D01*
X186695811Y-140589635D01*
X186672013Y-140595596D01*
X186647744Y-140599196D01*
X186623240Y-140600400D01*
X185698240Y-140600400D01*
X185673736Y-140599196D01*
X185649467Y-140595596D01*
X185625669Y-140589635D01*
X185602569Y-140581370D01*
X185580391Y-140570880D01*
X185559347Y-140558267D01*
X185539642Y-140543653D01*
X185521463Y-140527177D01*
X185504987Y-140508998D01*
X185490373Y-140489293D01*
X185477760Y-140468249D01*
X185467270Y-140446071D01*
X185459005Y-140422971D01*
X185453044Y-140399173D01*
X185449444Y-140374904D01*
X185448240Y-140350400D01*
X185448240Y-139100400D01*
X185449444Y-139075896D01*
X185453044Y-139051627D01*
X185459005Y-139027829D01*
X185467270Y-139004729D01*
X185477760Y-138982551D01*
X185490373Y-138961507D01*
X185504987Y-138941802D01*
X185521463Y-138923623D01*
X185539642Y-138907147D01*
X185559347Y-138892533D01*
X185580391Y-138879920D01*
X185602569Y-138869430D01*
X185625669Y-138861165D01*
X185649467Y-138855204D01*
X185673736Y-138851604D01*
X185698240Y-138850400D01*
X186623240Y-138850400D01*
X186647744Y-138851604D01*
X186647744Y-138851604D01*
G37*
D13*
X186160740Y-139725400D03*
G04 #@! TD*
D11*
G04 #@! TO.C,D4*
X143225320Y-142142380D03*
X140025320Y-142142380D03*
X143225320Y-137242380D03*
X140025320Y-137242380D03*
G04 #@! TD*
G04 #@! TO.C,D5*
X178163420Y-136945200D03*
X181363420Y-136945200D03*
X178163420Y-141845200D03*
X181363420Y-141845200D03*
G04 #@! TD*
D12*
G04 #@! TO.C,R20*
G36*
X137215144Y-58387824D02*
X137239413Y-58391424D01*
X137263211Y-58397385D01*
X137286311Y-58405650D01*
X137308489Y-58416140D01*
X137329533Y-58428753D01*
X137349238Y-58443367D01*
X137367417Y-58459843D01*
X137383893Y-58478022D01*
X137398507Y-58497727D01*
X137411120Y-58518771D01*
X137421610Y-58540949D01*
X137429875Y-58564049D01*
X137435836Y-58587847D01*
X137439436Y-58612116D01*
X137440640Y-58636620D01*
X137440640Y-59561620D01*
X137439436Y-59586124D01*
X137435836Y-59610393D01*
X137429875Y-59634191D01*
X137421610Y-59657291D01*
X137411120Y-59679469D01*
X137398507Y-59700513D01*
X137383893Y-59720218D01*
X137367417Y-59738397D01*
X137349238Y-59754873D01*
X137329533Y-59769487D01*
X137308489Y-59782100D01*
X137286311Y-59792590D01*
X137263211Y-59800855D01*
X137239413Y-59806816D01*
X137215144Y-59810416D01*
X137190640Y-59811620D01*
X135940640Y-59811620D01*
X135916136Y-59810416D01*
X135891867Y-59806816D01*
X135868069Y-59800855D01*
X135844969Y-59792590D01*
X135822791Y-59782100D01*
X135801747Y-59769487D01*
X135782042Y-59754873D01*
X135763863Y-59738397D01*
X135747387Y-59720218D01*
X135732773Y-59700513D01*
X135720160Y-59679469D01*
X135709670Y-59657291D01*
X135701405Y-59634191D01*
X135695444Y-59610393D01*
X135691844Y-59586124D01*
X135690640Y-59561620D01*
X135690640Y-58636620D01*
X135691844Y-58612116D01*
X135695444Y-58587847D01*
X135701405Y-58564049D01*
X135709670Y-58540949D01*
X135720160Y-58518771D01*
X135732773Y-58497727D01*
X135747387Y-58478022D01*
X135763863Y-58459843D01*
X135782042Y-58443367D01*
X135801747Y-58428753D01*
X135822791Y-58416140D01*
X135844969Y-58405650D01*
X135868069Y-58397385D01*
X135891867Y-58391424D01*
X135916136Y-58387824D01*
X135940640Y-58386620D01*
X137190640Y-58386620D01*
X137215144Y-58387824D01*
X137215144Y-58387824D01*
G37*
D13*
X136565640Y-59099120D03*
D12*
G36*
X137215144Y-61362824D02*
X137239413Y-61366424D01*
X137263211Y-61372385D01*
X137286311Y-61380650D01*
X137308489Y-61391140D01*
X137329533Y-61403753D01*
X137349238Y-61418367D01*
X137367417Y-61434843D01*
X137383893Y-61453022D01*
X137398507Y-61472727D01*
X137411120Y-61493771D01*
X137421610Y-61515949D01*
X137429875Y-61539049D01*
X137435836Y-61562847D01*
X137439436Y-61587116D01*
X137440640Y-61611620D01*
X137440640Y-62536620D01*
X137439436Y-62561124D01*
X137435836Y-62585393D01*
X137429875Y-62609191D01*
X137421610Y-62632291D01*
X137411120Y-62654469D01*
X137398507Y-62675513D01*
X137383893Y-62695218D01*
X137367417Y-62713397D01*
X137349238Y-62729873D01*
X137329533Y-62744487D01*
X137308489Y-62757100D01*
X137286311Y-62767590D01*
X137263211Y-62775855D01*
X137239413Y-62781816D01*
X137215144Y-62785416D01*
X137190640Y-62786620D01*
X135940640Y-62786620D01*
X135916136Y-62785416D01*
X135891867Y-62781816D01*
X135868069Y-62775855D01*
X135844969Y-62767590D01*
X135822791Y-62757100D01*
X135801747Y-62744487D01*
X135782042Y-62729873D01*
X135763863Y-62713397D01*
X135747387Y-62695218D01*
X135732773Y-62675513D01*
X135720160Y-62654469D01*
X135709670Y-62632291D01*
X135701405Y-62609191D01*
X135695444Y-62585393D01*
X135691844Y-62561124D01*
X135690640Y-62536620D01*
X135690640Y-61611620D01*
X135691844Y-61587116D01*
X135695444Y-61562847D01*
X135701405Y-61539049D01*
X135709670Y-61515949D01*
X135720160Y-61493771D01*
X135732773Y-61472727D01*
X135747387Y-61453022D01*
X135763863Y-61434843D01*
X135782042Y-61418367D01*
X135801747Y-61403753D01*
X135822791Y-61391140D01*
X135844969Y-61380650D01*
X135868069Y-61372385D01*
X135891867Y-61366424D01*
X135916136Y-61362824D01*
X135940640Y-61361620D01*
X137190640Y-61361620D01*
X137215144Y-61362824D01*
X137215144Y-61362824D01*
G37*
D13*
X136565640Y-62074120D03*
G04 #@! TD*
D12*
G04 #@! TO.C,R1*
G36*
X186707044Y-112370444D02*
X186731313Y-112374044D01*
X186755111Y-112380005D01*
X186778211Y-112388270D01*
X186800389Y-112398760D01*
X186821433Y-112411373D01*
X186841138Y-112425987D01*
X186859317Y-112442463D01*
X186875793Y-112460642D01*
X186890407Y-112480347D01*
X186903020Y-112501391D01*
X186913510Y-112523569D01*
X186921775Y-112546669D01*
X186927736Y-112570467D01*
X186931336Y-112594736D01*
X186932540Y-112619240D01*
X186932540Y-113544240D01*
X186931336Y-113568744D01*
X186927736Y-113593013D01*
X186921775Y-113616811D01*
X186913510Y-113639911D01*
X186903020Y-113662089D01*
X186890407Y-113683133D01*
X186875793Y-113702838D01*
X186859317Y-113721017D01*
X186841138Y-113737493D01*
X186821433Y-113752107D01*
X186800389Y-113764720D01*
X186778211Y-113775210D01*
X186755111Y-113783475D01*
X186731313Y-113789436D01*
X186707044Y-113793036D01*
X186682540Y-113794240D01*
X185432540Y-113794240D01*
X185408036Y-113793036D01*
X185383767Y-113789436D01*
X185359969Y-113783475D01*
X185336869Y-113775210D01*
X185314691Y-113764720D01*
X185293647Y-113752107D01*
X185273942Y-113737493D01*
X185255763Y-113721017D01*
X185239287Y-113702838D01*
X185224673Y-113683133D01*
X185212060Y-113662089D01*
X185201570Y-113639911D01*
X185193305Y-113616811D01*
X185187344Y-113593013D01*
X185183744Y-113568744D01*
X185182540Y-113544240D01*
X185182540Y-112619240D01*
X185183744Y-112594736D01*
X185187344Y-112570467D01*
X185193305Y-112546669D01*
X185201570Y-112523569D01*
X185212060Y-112501391D01*
X185224673Y-112480347D01*
X185239287Y-112460642D01*
X185255763Y-112442463D01*
X185273942Y-112425987D01*
X185293647Y-112411373D01*
X185314691Y-112398760D01*
X185336869Y-112388270D01*
X185359969Y-112380005D01*
X185383767Y-112374044D01*
X185408036Y-112370444D01*
X185432540Y-112369240D01*
X186682540Y-112369240D01*
X186707044Y-112370444D01*
X186707044Y-112370444D01*
G37*
D13*
X186057540Y-113081740D03*
D12*
G36*
X186707044Y-115345444D02*
X186731313Y-115349044D01*
X186755111Y-115355005D01*
X186778211Y-115363270D01*
X186800389Y-115373760D01*
X186821433Y-115386373D01*
X186841138Y-115400987D01*
X186859317Y-115417463D01*
X186875793Y-115435642D01*
X186890407Y-115455347D01*
X186903020Y-115476391D01*
X186913510Y-115498569D01*
X186921775Y-115521669D01*
X186927736Y-115545467D01*
X186931336Y-115569736D01*
X186932540Y-115594240D01*
X186932540Y-116519240D01*
X186931336Y-116543744D01*
X186927736Y-116568013D01*
X186921775Y-116591811D01*
X186913510Y-116614911D01*
X186903020Y-116637089D01*
X186890407Y-116658133D01*
X186875793Y-116677838D01*
X186859317Y-116696017D01*
X186841138Y-116712493D01*
X186821433Y-116727107D01*
X186800389Y-116739720D01*
X186778211Y-116750210D01*
X186755111Y-116758475D01*
X186731313Y-116764436D01*
X186707044Y-116768036D01*
X186682540Y-116769240D01*
X185432540Y-116769240D01*
X185408036Y-116768036D01*
X185383767Y-116764436D01*
X185359969Y-116758475D01*
X185336869Y-116750210D01*
X185314691Y-116739720D01*
X185293647Y-116727107D01*
X185273942Y-116712493D01*
X185255763Y-116696017D01*
X185239287Y-116677838D01*
X185224673Y-116658133D01*
X185212060Y-116637089D01*
X185201570Y-116614911D01*
X185193305Y-116591811D01*
X185187344Y-116568013D01*
X185183744Y-116543744D01*
X185182540Y-116519240D01*
X185182540Y-115594240D01*
X185183744Y-115569736D01*
X185187344Y-115545467D01*
X185193305Y-115521669D01*
X185201570Y-115498569D01*
X185212060Y-115476391D01*
X185224673Y-115455347D01*
X185239287Y-115435642D01*
X185255763Y-115417463D01*
X185273942Y-115400987D01*
X185293647Y-115386373D01*
X185314691Y-115373760D01*
X185336869Y-115363270D01*
X185359969Y-115355005D01*
X185383767Y-115349044D01*
X185408036Y-115345444D01*
X185432540Y-115344240D01*
X186682540Y-115344240D01*
X186707044Y-115345444D01*
X186707044Y-115345444D01*
G37*
D13*
X186057540Y-116056740D03*
G04 #@! TD*
D12*
G04 #@! TO.C,R2*
G36*
X175609784Y-130877544D02*
X175634053Y-130881144D01*
X175657851Y-130887105D01*
X175680951Y-130895370D01*
X175703129Y-130905860D01*
X175724173Y-130918473D01*
X175743878Y-130933087D01*
X175762057Y-130949563D01*
X175778533Y-130967742D01*
X175793147Y-130987447D01*
X175805760Y-131008491D01*
X175816250Y-131030669D01*
X175824515Y-131053769D01*
X175830476Y-131077567D01*
X175834076Y-131101836D01*
X175835280Y-131126340D01*
X175835280Y-132051340D01*
X175834076Y-132075844D01*
X175830476Y-132100113D01*
X175824515Y-132123911D01*
X175816250Y-132147011D01*
X175805760Y-132169189D01*
X175793147Y-132190233D01*
X175778533Y-132209938D01*
X175762057Y-132228117D01*
X175743878Y-132244593D01*
X175724173Y-132259207D01*
X175703129Y-132271820D01*
X175680951Y-132282310D01*
X175657851Y-132290575D01*
X175634053Y-132296536D01*
X175609784Y-132300136D01*
X175585280Y-132301340D01*
X174335280Y-132301340D01*
X174310776Y-132300136D01*
X174286507Y-132296536D01*
X174262709Y-132290575D01*
X174239609Y-132282310D01*
X174217431Y-132271820D01*
X174196387Y-132259207D01*
X174176682Y-132244593D01*
X174158503Y-132228117D01*
X174142027Y-132209938D01*
X174127413Y-132190233D01*
X174114800Y-132169189D01*
X174104310Y-132147011D01*
X174096045Y-132123911D01*
X174090084Y-132100113D01*
X174086484Y-132075844D01*
X174085280Y-132051340D01*
X174085280Y-131126340D01*
X174086484Y-131101836D01*
X174090084Y-131077567D01*
X174096045Y-131053769D01*
X174104310Y-131030669D01*
X174114800Y-131008491D01*
X174127413Y-130987447D01*
X174142027Y-130967742D01*
X174158503Y-130949563D01*
X174176682Y-130933087D01*
X174196387Y-130918473D01*
X174217431Y-130905860D01*
X174239609Y-130895370D01*
X174262709Y-130887105D01*
X174286507Y-130881144D01*
X174310776Y-130877544D01*
X174335280Y-130876340D01*
X175585280Y-130876340D01*
X175609784Y-130877544D01*
X175609784Y-130877544D01*
G37*
D13*
X174960280Y-131588840D03*
D12*
G36*
X175609784Y-127902544D02*
X175634053Y-127906144D01*
X175657851Y-127912105D01*
X175680951Y-127920370D01*
X175703129Y-127930860D01*
X175724173Y-127943473D01*
X175743878Y-127958087D01*
X175762057Y-127974563D01*
X175778533Y-127992742D01*
X175793147Y-128012447D01*
X175805760Y-128033491D01*
X175816250Y-128055669D01*
X175824515Y-128078769D01*
X175830476Y-128102567D01*
X175834076Y-128126836D01*
X175835280Y-128151340D01*
X175835280Y-129076340D01*
X175834076Y-129100844D01*
X175830476Y-129125113D01*
X175824515Y-129148911D01*
X175816250Y-129172011D01*
X175805760Y-129194189D01*
X175793147Y-129215233D01*
X175778533Y-129234938D01*
X175762057Y-129253117D01*
X175743878Y-129269593D01*
X175724173Y-129284207D01*
X175703129Y-129296820D01*
X175680951Y-129307310D01*
X175657851Y-129315575D01*
X175634053Y-129321536D01*
X175609784Y-129325136D01*
X175585280Y-129326340D01*
X174335280Y-129326340D01*
X174310776Y-129325136D01*
X174286507Y-129321536D01*
X174262709Y-129315575D01*
X174239609Y-129307310D01*
X174217431Y-129296820D01*
X174196387Y-129284207D01*
X174176682Y-129269593D01*
X174158503Y-129253117D01*
X174142027Y-129234938D01*
X174127413Y-129215233D01*
X174114800Y-129194189D01*
X174104310Y-129172011D01*
X174096045Y-129148911D01*
X174090084Y-129125113D01*
X174086484Y-129100844D01*
X174085280Y-129076340D01*
X174085280Y-128151340D01*
X174086484Y-128126836D01*
X174090084Y-128102567D01*
X174096045Y-128078769D01*
X174104310Y-128055669D01*
X174114800Y-128033491D01*
X174127413Y-128012447D01*
X174142027Y-127992742D01*
X174158503Y-127974563D01*
X174176682Y-127958087D01*
X174196387Y-127943473D01*
X174217431Y-127930860D01*
X174239609Y-127920370D01*
X174262709Y-127912105D01*
X174286507Y-127906144D01*
X174310776Y-127902544D01*
X174335280Y-127901340D01*
X175585280Y-127901340D01*
X175609784Y-127902544D01*
X175609784Y-127902544D01*
G37*
D13*
X174960280Y-128613840D03*
G04 #@! TD*
D12*
G04 #@! TO.C,R3*
G36*
X134819924Y-115406404D02*
X134844193Y-115410004D01*
X134867991Y-115415965D01*
X134891091Y-115424230D01*
X134913269Y-115434720D01*
X134934313Y-115447333D01*
X134954018Y-115461947D01*
X134972197Y-115478423D01*
X134988673Y-115496602D01*
X135003287Y-115516307D01*
X135015900Y-115537351D01*
X135026390Y-115559529D01*
X135034655Y-115582629D01*
X135040616Y-115606427D01*
X135044216Y-115630696D01*
X135045420Y-115655200D01*
X135045420Y-116580200D01*
X135044216Y-116604704D01*
X135040616Y-116628973D01*
X135034655Y-116652771D01*
X135026390Y-116675871D01*
X135015900Y-116698049D01*
X135003287Y-116719093D01*
X134988673Y-116738798D01*
X134972197Y-116756977D01*
X134954018Y-116773453D01*
X134934313Y-116788067D01*
X134913269Y-116800680D01*
X134891091Y-116811170D01*
X134867991Y-116819435D01*
X134844193Y-116825396D01*
X134819924Y-116828996D01*
X134795420Y-116830200D01*
X133545420Y-116830200D01*
X133520916Y-116828996D01*
X133496647Y-116825396D01*
X133472849Y-116819435D01*
X133449749Y-116811170D01*
X133427571Y-116800680D01*
X133406527Y-116788067D01*
X133386822Y-116773453D01*
X133368643Y-116756977D01*
X133352167Y-116738798D01*
X133337553Y-116719093D01*
X133324940Y-116698049D01*
X133314450Y-116675871D01*
X133306185Y-116652771D01*
X133300224Y-116628973D01*
X133296624Y-116604704D01*
X133295420Y-116580200D01*
X133295420Y-115655200D01*
X133296624Y-115630696D01*
X133300224Y-115606427D01*
X133306185Y-115582629D01*
X133314450Y-115559529D01*
X133324940Y-115537351D01*
X133337553Y-115516307D01*
X133352167Y-115496602D01*
X133368643Y-115478423D01*
X133386822Y-115461947D01*
X133406527Y-115447333D01*
X133427571Y-115434720D01*
X133449749Y-115424230D01*
X133472849Y-115415965D01*
X133496647Y-115410004D01*
X133520916Y-115406404D01*
X133545420Y-115405200D01*
X134795420Y-115405200D01*
X134819924Y-115406404D01*
X134819924Y-115406404D01*
G37*
D13*
X134170420Y-116117700D03*
D12*
G36*
X134819924Y-112431404D02*
X134844193Y-112435004D01*
X134867991Y-112440965D01*
X134891091Y-112449230D01*
X134913269Y-112459720D01*
X134934313Y-112472333D01*
X134954018Y-112486947D01*
X134972197Y-112503423D01*
X134988673Y-112521602D01*
X135003287Y-112541307D01*
X135015900Y-112562351D01*
X135026390Y-112584529D01*
X135034655Y-112607629D01*
X135040616Y-112631427D01*
X135044216Y-112655696D01*
X135045420Y-112680200D01*
X135045420Y-113605200D01*
X135044216Y-113629704D01*
X135040616Y-113653973D01*
X135034655Y-113677771D01*
X135026390Y-113700871D01*
X135015900Y-113723049D01*
X135003287Y-113744093D01*
X134988673Y-113763798D01*
X134972197Y-113781977D01*
X134954018Y-113798453D01*
X134934313Y-113813067D01*
X134913269Y-113825680D01*
X134891091Y-113836170D01*
X134867991Y-113844435D01*
X134844193Y-113850396D01*
X134819924Y-113853996D01*
X134795420Y-113855200D01*
X133545420Y-113855200D01*
X133520916Y-113853996D01*
X133496647Y-113850396D01*
X133472849Y-113844435D01*
X133449749Y-113836170D01*
X133427571Y-113825680D01*
X133406527Y-113813067D01*
X133386822Y-113798453D01*
X133368643Y-113781977D01*
X133352167Y-113763798D01*
X133337553Y-113744093D01*
X133324940Y-113723049D01*
X133314450Y-113700871D01*
X133306185Y-113677771D01*
X133300224Y-113653973D01*
X133296624Y-113629704D01*
X133295420Y-113605200D01*
X133295420Y-112680200D01*
X133296624Y-112655696D01*
X133300224Y-112631427D01*
X133306185Y-112607629D01*
X133314450Y-112584529D01*
X133324940Y-112562351D01*
X133337553Y-112541307D01*
X133352167Y-112521602D01*
X133368643Y-112503423D01*
X133386822Y-112486947D01*
X133406527Y-112472333D01*
X133427571Y-112459720D01*
X133449749Y-112449230D01*
X133472849Y-112440965D01*
X133496647Y-112435004D01*
X133520916Y-112431404D01*
X133545420Y-112430200D01*
X134795420Y-112430200D01*
X134819924Y-112431404D01*
X134819924Y-112431404D01*
G37*
D13*
X134170420Y-113142700D03*
G04 #@! TD*
D12*
G04 #@! TO.C,R4*
G36*
X145886704Y-131012164D02*
X145910973Y-131015764D01*
X145934771Y-131021725D01*
X145957871Y-131029990D01*
X145980049Y-131040480D01*
X146001093Y-131053093D01*
X146020798Y-131067707D01*
X146038977Y-131084183D01*
X146055453Y-131102362D01*
X146070067Y-131122067D01*
X146082680Y-131143111D01*
X146093170Y-131165289D01*
X146101435Y-131188389D01*
X146107396Y-131212187D01*
X146110996Y-131236456D01*
X146112200Y-131260960D01*
X146112200Y-132185960D01*
X146110996Y-132210464D01*
X146107396Y-132234733D01*
X146101435Y-132258531D01*
X146093170Y-132281631D01*
X146082680Y-132303809D01*
X146070067Y-132324853D01*
X146055453Y-132344558D01*
X146038977Y-132362737D01*
X146020798Y-132379213D01*
X146001093Y-132393827D01*
X145980049Y-132406440D01*
X145957871Y-132416930D01*
X145934771Y-132425195D01*
X145910973Y-132431156D01*
X145886704Y-132434756D01*
X145862200Y-132435960D01*
X144612200Y-132435960D01*
X144587696Y-132434756D01*
X144563427Y-132431156D01*
X144539629Y-132425195D01*
X144516529Y-132416930D01*
X144494351Y-132406440D01*
X144473307Y-132393827D01*
X144453602Y-132379213D01*
X144435423Y-132362737D01*
X144418947Y-132344558D01*
X144404333Y-132324853D01*
X144391720Y-132303809D01*
X144381230Y-132281631D01*
X144372965Y-132258531D01*
X144367004Y-132234733D01*
X144363404Y-132210464D01*
X144362200Y-132185960D01*
X144362200Y-131260960D01*
X144363404Y-131236456D01*
X144367004Y-131212187D01*
X144372965Y-131188389D01*
X144381230Y-131165289D01*
X144391720Y-131143111D01*
X144404333Y-131122067D01*
X144418947Y-131102362D01*
X144435423Y-131084183D01*
X144453602Y-131067707D01*
X144473307Y-131053093D01*
X144494351Y-131040480D01*
X144516529Y-131029990D01*
X144539629Y-131021725D01*
X144563427Y-131015764D01*
X144587696Y-131012164D01*
X144612200Y-131010960D01*
X145862200Y-131010960D01*
X145886704Y-131012164D01*
X145886704Y-131012164D01*
G37*
D13*
X145237200Y-131723460D03*
D12*
G36*
X145886704Y-128037164D02*
X145910973Y-128040764D01*
X145934771Y-128046725D01*
X145957871Y-128054990D01*
X145980049Y-128065480D01*
X146001093Y-128078093D01*
X146020798Y-128092707D01*
X146038977Y-128109183D01*
X146055453Y-128127362D01*
X146070067Y-128147067D01*
X146082680Y-128168111D01*
X146093170Y-128190289D01*
X146101435Y-128213389D01*
X146107396Y-128237187D01*
X146110996Y-128261456D01*
X146112200Y-128285960D01*
X146112200Y-129210960D01*
X146110996Y-129235464D01*
X146107396Y-129259733D01*
X146101435Y-129283531D01*
X146093170Y-129306631D01*
X146082680Y-129328809D01*
X146070067Y-129349853D01*
X146055453Y-129369558D01*
X146038977Y-129387737D01*
X146020798Y-129404213D01*
X146001093Y-129418827D01*
X145980049Y-129431440D01*
X145957871Y-129441930D01*
X145934771Y-129450195D01*
X145910973Y-129456156D01*
X145886704Y-129459756D01*
X145862200Y-129460960D01*
X144612200Y-129460960D01*
X144587696Y-129459756D01*
X144563427Y-129456156D01*
X144539629Y-129450195D01*
X144516529Y-129441930D01*
X144494351Y-129431440D01*
X144473307Y-129418827D01*
X144453602Y-129404213D01*
X144435423Y-129387737D01*
X144418947Y-129369558D01*
X144404333Y-129349853D01*
X144391720Y-129328809D01*
X144381230Y-129306631D01*
X144372965Y-129283531D01*
X144367004Y-129259733D01*
X144363404Y-129235464D01*
X144362200Y-129210960D01*
X144362200Y-128285960D01*
X144363404Y-128261456D01*
X144367004Y-128237187D01*
X144372965Y-128213389D01*
X144381230Y-128190289D01*
X144391720Y-128168111D01*
X144404333Y-128147067D01*
X144418947Y-128127362D01*
X144435423Y-128109183D01*
X144453602Y-128092707D01*
X144473307Y-128078093D01*
X144494351Y-128065480D01*
X144516529Y-128054990D01*
X144539629Y-128046725D01*
X144563427Y-128040764D01*
X144587696Y-128037164D01*
X144612200Y-128035960D01*
X145862200Y-128035960D01*
X145886704Y-128037164D01*
X145886704Y-128037164D01*
G37*
D13*
X145237200Y-128748460D03*
G04 #@! TD*
M02*
