M48
;DRILL file {KiCad (5.0.0-3-g5ebb6b6)} date Monday, January 06, 2020 at 03:53:41 PM
;FORMAT={-:-/ absolute / inch / decimal}
FMAT,2
INCH,TZ
T1C0.0157
T2C0.0197
T3C0.0295
T4C0.0300
T5C0.0315
T6C0.0354
T7C0.0394
T8C0.0433
T9C0.0440
T10C0.0590
%
G90
G05
M72
T1
X4.432Y-4.04
X4.5183Y-4.045
X6.674Y-2.398
X6.72Y-3.2
X7.072Y-3.428
X7.546Y-3.825
X7.55Y-3.775
X7.551Y-3.627
X7.551Y-3.676
X7.552Y-3.584
X7.598Y-3.842
X7.6Y-3.673
X7.601Y-3.806
X7.603Y-3.626
X7.605Y-3.584
X7.647Y-3.825
X7.65Y-3.676
X7.65Y-3.774
X7.653Y-3.626
X7.657Y-3.584
X7.698Y-3.584
X7.7Y-3.624
X7.701Y-3.804
X7.701Y-3.841
X7.702Y-3.673
X7.743Y-3.585
X7.751Y-3.776
X7.753Y-3.823
X7.754Y-3.625
X7.754Y-3.671
T2
X6.52Y-3.4
X6.67Y-3.4
T3
X7.1545Y-4.4075
X7.2045Y-4.4575
X7.2545Y-4.4075
X5.232Y-4.397
X5.282Y-4.447
X5.332Y-4.397
X6.4495Y-4.203
X6.4995Y-4.253
X6.5495Y-4.203
X5.9345Y-4.1975
X5.9845Y-4.2475
X6.0345Y-4.1975
T4
X6.238Y-2.5916
X6.24Y-2.7884
T5
X4.692Y-4.129
X5.02Y-3.08
X7.13Y-3.221
X7.341Y-3.18
X7.5Y-3.55
X7.687Y-4.028
X7.689Y-3.958
X7.69Y-4.095
X7.756Y-3.959
X7.759Y-4.022
X7.76Y-4.091
X7.384Y-4.3925
X7.384Y-4.9925
X7.238Y-4.5575
X7.238Y-5.1575
X7.092Y-4.6385
X7.092Y-5.2385
X5.1005Y-4.384
X5.1005Y-4.984
X5.2465Y-4.5475
X5.2465Y-5.1475
X6.961Y-4.047
X7.561Y-4.047
X4.923Y-4.042
X5.523Y-4.042
X4.923Y-4.1885
X5.523Y-4.1885
X7.5295Y-4.308
X7.5295Y-4.908
X6.3895Y-4.433
X6.3895Y-5.033
X5.657Y-4.102
X5.657Y-4.702
X4.954Y-4.302
X4.954Y-4.902
X5.9475Y-4.348
X5.9475Y-4.948
X5.8025Y-4.1845
X5.8025Y-4.7845
X6.683Y-4.186
X6.683Y-4.786
X6.5365Y-4.352
X6.5365Y-4.952
X6.096Y-4.4315
X6.096Y-5.0315
X6.961Y-4.1935
X7.561Y-4.1935
X6.8295Y-4.1035
X6.8295Y-4.7035
X5.392Y-4.6285
X5.392Y-5.2285
T6
X6.694Y-5.5815
X6.7386Y-5.492
X4.66Y-4.3125
X4.76Y-4.3125
X6.7815Y-5.404
X6.8261Y-5.3145
X7.9199Y-4.3156
X8.0199Y-4.3156
X5.6574Y-5.317
X5.702Y-5.4065
X5.747Y-5.494
X5.7916Y-5.5835
X4.4625Y-4.3129
X4.5625Y-4.3129
X7.7225Y-4.315
X7.8225Y-4.315
T7
X6.14Y-2.32
X6.24Y-2.32
X6.34Y-2.32
X6.221Y-3.898
X5.347Y-3.58
X6.122Y-3.898
X5.347Y-3.476
X6.61Y-2.32
X6.71Y-2.32
X6.81Y-2.32
X6.91Y-2.32
X7.01Y-2.32
X7.11Y-2.32
X5.38Y-2.32
X5.48Y-2.32
X5.58Y-2.32
X5.68Y-2.32
X5.78Y-2.32
X5.88Y-2.32
X5.176Y-3.478
X5.176Y-3.578
T8
X5.62Y-3.1
X5.62Y-3.2
X5.62Y-3.3
X5.62Y-3.4
X5.62Y-3.5
X5.62Y-3.6
X5.62Y-3.7
X5.72Y-3.1
X5.72Y-3.4
X5.72Y-3.5
X5.72Y-3.7
X5.82Y-3.1
X5.82Y-3.4
X5.82Y-3.5
X5.82Y-3.7
X5.92Y-3.1
X5.92Y-3.4
X5.92Y-3.5
X5.92Y-3.7
X6.02Y-3.1
X6.02Y-3.4
X6.02Y-3.5
X6.02Y-3.7
X6.12Y-3.1
X6.12Y-3.4
X6.12Y-3.5
X6.12Y-3.7
X6.22Y-3.1
X6.22Y-3.4
X6.22Y-3.5
X6.22Y-3.7
X6.32Y-3.1
X6.32Y-3.4
X6.32Y-3.5
X6.32Y-3.7
X6.42Y-3.1
X6.42Y-3.6
X6.42Y-3.7
X6.52Y-3.1
X6.52Y-3.6
X6.52Y-3.7
X6.62Y-3.1
X6.62Y-3.6
X6.62Y-3.7
X6.72Y-3.1
X6.72Y-3.7
X6.82Y-3.1
X6.82Y-3.6
X6.82Y-3.7
X6.92Y-3.1
X6.92Y-3.7
T9
X7.3Y-3.44
X7.3Y-3.74
X7.4Y-3.44
X7.4Y-3.74
X7.5Y-3.44
X7.5Y-3.74
X7.6Y-3.44
X7.6Y-3.74
X7.7Y-3.44
X7.7Y-3.74
X7.8Y-3.44
X7.8Y-3.74
X7.9Y-3.44
X7.9Y-3.74
X8.Y-3.44
X8.Y-3.74
T10
X4.535Y-3.573
X4.785Y-3.473
T0
M30
