G04 #@! TF.GenerationSoftware,KiCad,Pcbnew,(5.0.0-3-g5ebb6b6)*
G04 #@! TF.CreationDate,2020-04-02T13:12:42-07:00*
G04 #@! TF.ProjectId,mouse_v2,6D6F7573655F76322E6B696361645F70,rev?*
G04 #@! TF.SameCoordinates,Original*
G04 #@! TF.FileFunction,Legend,Bot*
G04 #@! TF.FilePolarity,Positive*
%FSLAX46Y46*%
G04 Gerber Fmt 4.6, Leading zero omitted, Abs format (unit mm)*
G04 Created by KiCad (PCBNEW (5.0.0-3-g5ebb6b6)) date Thursday, April 02, 2020 at 01:12:42 PM*
%MOMM*%
%LPD*%
G01*
G04 APERTURE LIST*
%ADD10C,0.100000*%
%ADD11C,0.300000*%
%ADD12C,0.150000*%
%ADD13C,0.120000*%
G04 APERTURE END LIST*
D10*
X172412612Y-61122251D02*
X171650707Y-61122251D01*
X172031660Y-60741299D02*
X172031660Y-61503203D01*
X176314052Y-61068911D02*
X175552147Y-61068911D01*
X155699768Y-77015292D02*
X155699768Y-76253387D01*
X156080720Y-76634340D02*
X155318816Y-76634340D01*
X155788668Y-80276652D02*
X155788668Y-79514747D01*
X135308031Y-69336967D02*
X135308031Y-70098872D01*
X134998507Y-66479728D02*
X135760412Y-66479728D01*
X135379460Y-66860680D02*
X135379460Y-66098776D01*
D11*
X174552242Y-56170948D02*
X174909385Y-55170948D01*
X175266528Y-56170948D01*
X175695100Y-56670948D02*
X176623671Y-56670948D01*
X176123671Y-56099520D01*
X176337957Y-56099520D01*
X176480814Y-56028091D01*
X176552242Y-55956662D01*
X176623671Y-55813805D01*
X176623671Y-55456662D01*
X176552242Y-55313805D01*
X176480814Y-55242377D01*
X176337957Y-55170948D01*
X175909385Y-55170948D01*
X175766528Y-55242377D01*
X175695100Y-55313805D01*
X177266528Y-55313805D02*
X177337957Y-55242377D01*
X177266528Y-55170948D01*
X177195100Y-55242377D01*
X177266528Y-55313805D01*
X177266528Y-55170948D01*
X178266528Y-56670948D02*
X178409385Y-56670948D01*
X178552242Y-56599520D01*
X178623671Y-56528091D01*
X178695100Y-56385234D01*
X178766528Y-56099520D01*
X178766528Y-55742377D01*
X178695100Y-55456662D01*
X178623671Y-55313805D01*
X178552242Y-55242377D01*
X178409385Y-55170948D01*
X178266528Y-55170948D01*
X178123671Y-55242377D01*
X178052242Y-55313805D01*
X177980814Y-55456662D01*
X177909385Y-55742377D01*
X177909385Y-56099520D01*
X177980814Y-56385234D01*
X178052242Y-56528091D01*
X178123671Y-56599520D01*
X178266528Y-56670948D01*
X160073354Y-56170948D02*
X160644782Y-56170948D01*
X160287640Y-55170948D02*
X160287640Y-56456662D01*
X160359068Y-56599520D01*
X160501925Y-56670948D01*
X160644782Y-56670948D01*
X161144782Y-55170948D02*
X161144782Y-56170948D01*
X161144782Y-56670948D02*
X161073354Y-56599520D01*
X161144782Y-56528091D01*
X161216211Y-56599520D01*
X161144782Y-56670948D01*
X161144782Y-56528091D01*
X161787640Y-55242377D02*
X161930497Y-55170948D01*
X162216211Y-55170948D01*
X162359068Y-55242377D01*
X162430497Y-55385234D01*
X162430497Y-55456662D01*
X162359068Y-55599520D01*
X162216211Y-55670948D01*
X162001925Y-55670948D01*
X161859068Y-55742377D01*
X161787640Y-55885234D01*
X161787640Y-55956662D01*
X161859068Y-56099520D01*
X162001925Y-56170948D01*
X162216211Y-56170948D01*
X162359068Y-56099520D01*
X163073354Y-55170948D02*
X163073354Y-56670948D01*
X163716211Y-55170948D02*
X163716211Y-55956662D01*
X163644782Y-56099520D01*
X163501925Y-56170948D01*
X163287640Y-56170948D01*
X163144782Y-56099520D01*
X163073354Y-56028091D01*
X164430497Y-55742377D02*
X165573354Y-55742377D01*
X166287640Y-55170948D02*
X166287640Y-56170948D01*
X166287640Y-56028091D02*
X166359068Y-56099520D01*
X166501925Y-56170948D01*
X166716211Y-56170948D01*
X166859068Y-56099520D01*
X166930497Y-55956662D01*
X166930497Y-55170948D01*
X166930497Y-55956662D02*
X167001925Y-56099520D01*
X167144782Y-56170948D01*
X167359068Y-56170948D01*
X167501925Y-56099520D01*
X167573354Y-55956662D01*
X167573354Y-55170948D01*
X168501925Y-55170948D02*
X168359068Y-55242377D01*
X168287640Y-55313805D01*
X168216211Y-55456662D01*
X168216211Y-55885234D01*
X168287640Y-56028091D01*
X168359068Y-56099520D01*
X168501925Y-56170948D01*
X168716211Y-56170948D01*
X168859068Y-56099520D01*
X168930497Y-56028091D01*
X169001925Y-55885234D01*
X169001925Y-55456662D01*
X168930497Y-55313805D01*
X168859068Y-55242377D01*
X168716211Y-55170948D01*
X168501925Y-55170948D01*
X170287640Y-56170948D02*
X170287640Y-55170948D01*
X169644782Y-56170948D02*
X169644782Y-55385234D01*
X169716211Y-55242377D01*
X169859068Y-55170948D01*
X170073354Y-55170948D01*
X170216211Y-55242377D01*
X170287640Y-55313805D01*
X170930497Y-55242377D02*
X171073354Y-55170948D01*
X171359068Y-55170948D01*
X171501925Y-55242377D01*
X171573354Y-55385234D01*
X171573354Y-55456662D01*
X171501925Y-55599520D01*
X171359068Y-55670948D01*
X171144782Y-55670948D01*
X171001925Y-55742377D01*
X170930497Y-55885234D01*
X170930497Y-55956662D01*
X171001925Y-56099520D01*
X171144782Y-56170948D01*
X171359068Y-56170948D01*
X171501925Y-56099520D01*
X172787640Y-55242377D02*
X172644782Y-55170948D01*
X172359068Y-55170948D01*
X172216211Y-55242377D01*
X172144782Y-55385234D01*
X172144782Y-55956662D01*
X172216211Y-56099520D01*
X172359068Y-56170948D01*
X172644782Y-56170948D01*
X172787640Y-56099520D01*
X172859068Y-55956662D01*
X172859068Y-55813805D01*
X172144782Y-55670948D01*
D12*
G04 #@! TO.C,M3*
X160032700Y-143624300D02*
X166782700Y-143624300D01*
X160032700Y-143624300D02*
X153282700Y-143624300D01*
X160032700Y-143624300D02*
X160032700Y-149724300D01*
X160032700Y-143624300D02*
X160032700Y-137524300D01*
X160032700Y-149724300D02*
X150432700Y-149724300D01*
X160032700Y-149724300D02*
X169632700Y-149724300D01*
X160032700Y-137524300D02*
X169632700Y-137524300D01*
X160032700Y-137524300D02*
X150432700Y-137524300D01*
X169632700Y-137524300D02*
X169632700Y-149724300D01*
X150432700Y-137524300D02*
X150432700Y-149724300D01*
D13*
G04 #@! TO.C,D6*
X204594480Y-112789520D02*
X197294480Y-112789520D01*
X204594480Y-118289520D02*
X197294480Y-118289520D01*
X197294480Y-118289520D02*
X197294480Y-117139520D01*
G04 #@! TO.C,D7*
X199966560Y-71639880D02*
X199966560Y-70489880D01*
X207266560Y-71639880D02*
X199966560Y-71639880D01*
X207266560Y-66139880D02*
X199966560Y-66139880D01*
G04 #@! TO.C,D10*
X112893660Y-63497440D02*
X112893660Y-70797440D01*
X118393660Y-63497440D02*
X118393660Y-70797440D01*
X118393660Y-70797440D02*
X117243660Y-70797440D01*
G04 #@! TO.C,D11*
X123144300Y-113703920D02*
X123144300Y-114853920D01*
X115844300Y-113703920D02*
X123144300Y-113703920D01*
X115844300Y-119203920D02*
X123144300Y-119203920D01*
G04 #@! TO.C,C1*
X204000184Y-110781420D02*
X202796056Y-110781420D01*
X204000184Y-112601420D02*
X202796056Y-112601420D01*
G04 #@! TO.C,C2*
X156902740Y-77713756D02*
X156902740Y-78917884D01*
X158722740Y-77713756D02*
X158722740Y-78917884D01*
G04 #@! TO.C,C3*
X138242720Y-67513116D02*
X138242720Y-68717244D01*
X136422720Y-67513116D02*
X136422720Y-68717244D01*
G04 #@! TO.C,C4*
X205172900Y-63878544D02*
X205172900Y-62674416D01*
X206992900Y-63878544D02*
X206992900Y-62674416D01*
G04 #@! TO.C,C7*
X114861256Y-61585520D02*
X116065384Y-61585520D01*
X114861256Y-59765520D02*
X116065384Y-59765520D01*
G04 #@! TO.C,C8*
X119125916Y-121123120D02*
X120330044Y-121123120D01*
X119125916Y-119303120D02*
X120330044Y-119303120D01*
G04 #@! TO.C,C10*
X173337136Y-60211380D02*
X174541264Y-60211380D01*
X173337136Y-58391380D02*
X174541264Y-58391380D01*
G04 #@! TO.C,C11*
X146939680Y-143182256D02*
X146939680Y-144386384D01*
X145119680Y-143182256D02*
X145119680Y-144386384D01*
G04 #@! TO.C,C12*
X184071176Y-140635400D02*
X185275304Y-140635400D01*
X184071176Y-138815400D02*
X185275304Y-138815400D01*
G04 #@! TO.C,D4*
X138875320Y-136042380D02*
X140025320Y-136042380D01*
X138875320Y-143342380D02*
X138875320Y-136042380D01*
X144375320Y-143342380D02*
X144375320Y-136042380D01*
G04 #@! TO.C,D5*
X182513420Y-143045200D02*
X182513420Y-135745200D01*
X177013420Y-143045200D02*
X177013420Y-135745200D01*
X177013420Y-135745200D02*
X178163420Y-135745200D01*
G04 #@! TO.C,R20*
X135655640Y-59984556D02*
X135655640Y-61188684D01*
X137475640Y-59984556D02*
X137475640Y-61188684D01*
G04 #@! TO.C,R1*
X185147540Y-115171304D02*
X185147540Y-113967176D01*
X186967540Y-115171304D02*
X186967540Y-113967176D01*
G04 #@! TO.C,R2*
X175870280Y-130703404D02*
X175870280Y-129499276D01*
X174050280Y-130703404D02*
X174050280Y-129499276D01*
G04 #@! TO.C,R3*
X135080420Y-114028136D02*
X135080420Y-115232264D01*
X133260420Y-114028136D02*
X133260420Y-115232264D01*
G04 #@! TO.C,R4*
X146147200Y-130838024D02*
X146147200Y-129633896D01*
X144327200Y-130838024D02*
X144327200Y-129633896D01*
G04 #@! TO.C,M3*
D12*
X165032819Y-148693142D02*
X165080438Y-148740761D01*
X165223295Y-148788380D01*
X165318533Y-148788380D01*
X165461390Y-148740761D01*
X165556628Y-148645523D01*
X165604247Y-148550285D01*
X165651866Y-148359809D01*
X165651866Y-148216952D01*
X165604247Y-148026476D01*
X165556628Y-147931238D01*
X165461390Y-147836000D01*
X165318533Y-147788380D01*
X165223295Y-147788380D01*
X165080438Y-147836000D01*
X165032819Y-147883619D01*
X164651866Y-148502666D02*
X164175676Y-148502666D01*
X164747104Y-148788380D02*
X164413771Y-147788380D01*
X164080438Y-148788380D01*
X163794723Y-148740761D02*
X163651866Y-148788380D01*
X163413771Y-148788380D01*
X163318533Y-148740761D01*
X163270914Y-148693142D01*
X163223295Y-148597904D01*
X163223295Y-148502666D01*
X163270914Y-148407428D01*
X163318533Y-148359809D01*
X163413771Y-148312190D01*
X163604247Y-148264571D01*
X163699485Y-148216952D01*
X163747104Y-148169333D01*
X163794723Y-148074095D01*
X163794723Y-147978857D01*
X163747104Y-147883619D01*
X163699485Y-147836000D01*
X163604247Y-147788380D01*
X163366152Y-147788380D01*
X163223295Y-147836000D01*
X162937580Y-147788380D02*
X162366152Y-147788380D01*
X162651866Y-148788380D02*
X162651866Y-147788380D01*
X162032819Y-148264571D02*
X161699485Y-148264571D01*
X161556628Y-148788380D02*
X162032819Y-148788380D01*
X162032819Y-147788380D01*
X161556628Y-147788380D01*
X160556628Y-148788380D02*
X160889961Y-148312190D01*
X161128057Y-148788380D02*
X161128057Y-147788380D01*
X160747104Y-147788380D01*
X160651866Y-147836000D01*
X160604247Y-147883619D01*
X160556628Y-147978857D01*
X160556628Y-148121714D01*
X160604247Y-148216952D01*
X160651866Y-148264571D01*
X160747104Y-148312190D01*
X161128057Y-148312190D01*
X160366152Y-148883619D02*
X159604247Y-148883619D01*
X159032819Y-148264571D02*
X158889961Y-148312190D01*
X158842342Y-148359809D01*
X158794723Y-148455047D01*
X158794723Y-148597904D01*
X158842342Y-148693142D01*
X158889961Y-148740761D01*
X158985200Y-148788380D01*
X159366152Y-148788380D01*
X159366152Y-147788380D01*
X159032819Y-147788380D01*
X158937580Y-147836000D01*
X158889961Y-147883619D01*
X158842342Y-147978857D01*
X158842342Y-148074095D01*
X158889961Y-148169333D01*
X158937580Y-148216952D01*
X159032819Y-148264571D01*
X159366152Y-148264571D01*
X158413771Y-148502666D02*
X157937580Y-148502666D01*
X158509009Y-148788380D02*
X158175676Y-147788380D01*
X157842342Y-148788380D01*
X157032819Y-148788380D02*
X157509009Y-148788380D01*
X157509009Y-147788380D01*
X156223295Y-148788380D02*
X156699485Y-148788380D01*
X156699485Y-147788380D01*
G04 #@! TO.C,D6*
X201669875Y-120086380D02*
X201669875Y-119086380D01*
X201431780Y-119086380D01*
X201288922Y-119134000D01*
X201193684Y-119229238D01*
X201146065Y-119324476D01*
X201098446Y-119514952D01*
X201098446Y-119657809D01*
X201146065Y-119848285D01*
X201193684Y-119943523D01*
X201288922Y-120038761D01*
X201431780Y-120086380D01*
X201669875Y-120086380D01*
X200241303Y-119086380D02*
X200431780Y-119086380D01*
X200527018Y-119134000D01*
X200574637Y-119181619D01*
X200669875Y-119324476D01*
X200717494Y-119514952D01*
X200717494Y-119895904D01*
X200669875Y-119991142D01*
X200622256Y-120038761D01*
X200527018Y-120086380D01*
X200336541Y-120086380D01*
X200241303Y-120038761D01*
X200193684Y-119991142D01*
X200146065Y-119895904D01*
X200146065Y-119657809D01*
X200193684Y-119562571D01*
X200241303Y-119514952D01*
X200336541Y-119467333D01*
X200527018Y-119467333D01*
X200622256Y-119514952D01*
X200669875Y-119562571D01*
X200717494Y-119657809D01*
X204808765Y-114391900D02*
X205380194Y-114391900D01*
X205094480Y-114391900D02*
X205094480Y-113391900D01*
X205189718Y-113534758D01*
X205284956Y-113629996D01*
X205380194Y-113677615D01*
G04 #@! TO.C,D7*
X204354655Y-65842260D02*
X204354655Y-64842260D01*
X204116560Y-64842260D01*
X203973702Y-64889880D01*
X203878464Y-64985118D01*
X203830845Y-65080356D01*
X203783226Y-65270832D01*
X203783226Y-65413689D01*
X203830845Y-65604165D01*
X203878464Y-65699403D01*
X203973702Y-65794641D01*
X204116560Y-65842260D01*
X204354655Y-65842260D01*
X203449893Y-64842260D02*
X202783226Y-64842260D01*
X203211798Y-65842260D01*
X204329065Y-67673480D02*
X204900494Y-67673480D01*
X204614780Y-67673480D02*
X204614780Y-66673480D01*
X204710018Y-66816338D01*
X204805256Y-66911576D01*
X204900494Y-66959195D01*
G04 #@! TO.C,D10*
X119829840Y-65930614D02*
X118829840Y-65930614D01*
X118829840Y-66168709D01*
X118877460Y-66311566D01*
X118972698Y-66406804D01*
X119067936Y-66454423D01*
X119258412Y-66502042D01*
X119401269Y-66502042D01*
X119591745Y-66454423D01*
X119686983Y-66406804D01*
X119782221Y-66311566D01*
X119829840Y-66168709D01*
X119829840Y-65930614D01*
X119829840Y-67454423D02*
X119829840Y-66882995D01*
X119829840Y-67168709D02*
X118829840Y-67168709D01*
X118972698Y-67073471D01*
X119067936Y-66978233D01*
X119115555Y-66882995D01*
X118829840Y-68073471D02*
X118829840Y-68168709D01*
X118877460Y-68263947D01*
X118925079Y-68311566D01*
X119020317Y-68359185D01*
X119210793Y-68406804D01*
X119448888Y-68406804D01*
X119639364Y-68359185D01*
X119734602Y-68311566D01*
X119782221Y-68263947D01*
X119829840Y-68168709D01*
X119829840Y-68073471D01*
X119782221Y-67978233D01*
X119734602Y-67930614D01*
X119639364Y-67882995D01*
X119448888Y-67835376D01*
X119210793Y-67835376D01*
X119020317Y-67882995D01*
X118925079Y-67930614D01*
X118877460Y-67978233D01*
X118829840Y-68073471D01*
X114496040Y-63283154D02*
X114496040Y-62711725D01*
X114496040Y-62997440D02*
X113496040Y-62997440D01*
X113638898Y-62902201D01*
X113734136Y-62806963D01*
X113781755Y-62711725D01*
G04 #@! TO.C,D11*
X120713665Y-113355380D02*
X120713665Y-112355380D01*
X120475570Y-112355380D01*
X120332713Y-112403000D01*
X120237475Y-112498238D01*
X120189856Y-112593476D01*
X120142237Y-112783952D01*
X120142237Y-112926809D01*
X120189856Y-113117285D01*
X120237475Y-113212523D01*
X120332713Y-113307761D01*
X120475570Y-113355380D01*
X120713665Y-113355380D01*
X119189856Y-113355380D02*
X119761284Y-113355380D01*
X119475570Y-113355380D02*
X119475570Y-112355380D01*
X119570808Y-112498238D01*
X119666046Y-112593476D01*
X119761284Y-112641095D01*
X118237475Y-113355380D02*
X118808903Y-113355380D01*
X118523189Y-113355380D02*
X118523189Y-112355380D01*
X118618427Y-112498238D01*
X118713665Y-112593476D01*
X118808903Y-112641095D01*
X118184965Y-118536980D02*
X118756394Y-118536980D01*
X118470680Y-118536980D02*
X118470680Y-117536980D01*
X118565918Y-117679838D01*
X118661156Y-117775076D01*
X118756394Y-117822695D01*
G04 #@! TO.C,C1*
X200605662Y-111504433D02*
X200653281Y-111456814D01*
X200700900Y-111313957D01*
X200700900Y-111218719D01*
X200653281Y-111075861D01*
X200558043Y-110980623D01*
X200462805Y-110933004D01*
X200272329Y-110885385D01*
X200129472Y-110885385D01*
X199938996Y-110933004D01*
X199843758Y-110980623D01*
X199748520Y-111075861D01*
X199700900Y-111218719D01*
X199700900Y-111313957D01*
X199748520Y-111456814D01*
X199796139Y-111504433D01*
X200700900Y-112456814D02*
X200700900Y-111885385D01*
X200700900Y-112171100D02*
X199700900Y-112171100D01*
X199843758Y-112075861D01*
X199938996Y-111980623D01*
X199986615Y-111885385D01*
G04 #@! TO.C,C2*
X156349882Y-78149153D02*
X156397501Y-78101534D01*
X156445120Y-77958677D01*
X156445120Y-77863439D01*
X156397501Y-77720581D01*
X156302263Y-77625343D01*
X156207025Y-77577724D01*
X156016549Y-77530105D01*
X155873692Y-77530105D01*
X155683216Y-77577724D01*
X155587978Y-77625343D01*
X155492740Y-77720581D01*
X155445120Y-77863439D01*
X155445120Y-77958677D01*
X155492740Y-78101534D01*
X155540359Y-78149153D01*
X155540359Y-78530105D02*
X155492740Y-78577724D01*
X155445120Y-78672962D01*
X155445120Y-78911058D01*
X155492740Y-79006296D01*
X155540359Y-79053915D01*
X155635597Y-79101534D01*
X155730835Y-79101534D01*
X155873692Y-79053915D01*
X156445120Y-78482486D01*
X156445120Y-79101534D01*
G04 #@! TO.C,C3*
X135869862Y-67948513D02*
X135917481Y-67900894D01*
X135965100Y-67758037D01*
X135965100Y-67662799D01*
X135917481Y-67519941D01*
X135822243Y-67424703D01*
X135727005Y-67377084D01*
X135536529Y-67329465D01*
X135393672Y-67329465D01*
X135203196Y-67377084D01*
X135107958Y-67424703D01*
X135012720Y-67519941D01*
X134965100Y-67662799D01*
X134965100Y-67758037D01*
X135012720Y-67900894D01*
X135060339Y-67948513D01*
X134965100Y-68281846D02*
X134965100Y-68900894D01*
X135346053Y-68567560D01*
X135346053Y-68710418D01*
X135393672Y-68805656D01*
X135441291Y-68853275D01*
X135536529Y-68900894D01*
X135774624Y-68900894D01*
X135869862Y-68853275D01*
X135917481Y-68805656D01*
X135965100Y-68710418D01*
X135965100Y-68424703D01*
X135917481Y-68329465D01*
X135869862Y-68281846D01*
G04 #@! TO.C,C4*
X204771262Y-63056473D02*
X204818881Y-63008854D01*
X204866500Y-62865997D01*
X204866500Y-62770759D01*
X204818881Y-62627901D01*
X204723643Y-62532663D01*
X204628405Y-62485044D01*
X204437929Y-62437425D01*
X204295072Y-62437425D01*
X204104596Y-62485044D01*
X204009358Y-62532663D01*
X203914120Y-62627901D01*
X203866500Y-62770759D01*
X203866500Y-62865997D01*
X203914120Y-63008854D01*
X203961739Y-63056473D01*
X204199834Y-63913616D02*
X204866500Y-63913616D01*
X203818881Y-63675520D02*
X204533167Y-63437425D01*
X204533167Y-64056473D01*
G04 #@! TO.C,C7*
X115629986Y-62852662D02*
X115677605Y-62900281D01*
X115820462Y-62947900D01*
X115915700Y-62947900D01*
X116058558Y-62900281D01*
X116153796Y-62805043D01*
X116201415Y-62709805D01*
X116249034Y-62519329D01*
X116249034Y-62376472D01*
X116201415Y-62185996D01*
X116153796Y-62090758D01*
X116058558Y-61995520D01*
X115915700Y-61947900D01*
X115820462Y-61947900D01*
X115677605Y-61995520D01*
X115629986Y-62043139D01*
X115296653Y-61947900D02*
X114629986Y-61947900D01*
X115058558Y-62947900D01*
G04 #@! TO.C,C8*
X119894646Y-122390262D02*
X119942265Y-122437881D01*
X120085122Y-122485500D01*
X120180360Y-122485500D01*
X120323218Y-122437881D01*
X120418456Y-122342643D01*
X120466075Y-122247405D01*
X120513694Y-122056929D01*
X120513694Y-121914072D01*
X120466075Y-121723596D01*
X120418456Y-121628358D01*
X120323218Y-121533120D01*
X120180360Y-121485500D01*
X120085122Y-121485500D01*
X119942265Y-121533120D01*
X119894646Y-121580739D01*
X119323218Y-121914072D02*
X119418456Y-121866453D01*
X119466075Y-121818834D01*
X119513694Y-121723596D01*
X119513694Y-121675977D01*
X119466075Y-121580739D01*
X119418456Y-121533120D01*
X119323218Y-121485500D01*
X119132741Y-121485500D01*
X119037503Y-121533120D01*
X118989884Y-121580739D01*
X118942265Y-121675977D01*
X118942265Y-121723596D01*
X118989884Y-121818834D01*
X119037503Y-121866453D01*
X119132741Y-121914072D01*
X119323218Y-121914072D01*
X119418456Y-121961691D01*
X119466075Y-122009310D01*
X119513694Y-122104548D01*
X119513694Y-122295024D01*
X119466075Y-122390262D01*
X119418456Y-122437881D01*
X119323218Y-122485500D01*
X119132741Y-122485500D01*
X119037503Y-122437881D01*
X118989884Y-122390262D01*
X118942265Y-122295024D01*
X118942265Y-122104548D01*
X118989884Y-122009310D01*
X119037503Y-121961691D01*
X119132741Y-121914072D01*
G04 #@! TO.C,C10*
X174582057Y-61478522D02*
X174629676Y-61526141D01*
X174772533Y-61573760D01*
X174867771Y-61573760D01*
X175010628Y-61526141D01*
X175105866Y-61430903D01*
X175153485Y-61335665D01*
X175201104Y-61145189D01*
X175201104Y-61002332D01*
X175153485Y-60811856D01*
X175105866Y-60716618D01*
X175010628Y-60621380D01*
X174867771Y-60573760D01*
X174772533Y-60573760D01*
X174629676Y-60621380D01*
X174582057Y-60668999D01*
X173629676Y-61573760D02*
X174201104Y-61573760D01*
X173915390Y-61573760D02*
X173915390Y-60573760D01*
X174010628Y-60716618D01*
X174105866Y-60811856D01*
X174201104Y-60859475D01*
X173010628Y-60573760D02*
X172915390Y-60573760D01*
X172820152Y-60621380D01*
X172772533Y-60668999D01*
X172724914Y-60764237D01*
X172677295Y-60954713D01*
X172677295Y-61192808D01*
X172724914Y-61383284D01*
X172772533Y-61478522D01*
X172820152Y-61526141D01*
X172915390Y-61573760D01*
X173010628Y-61573760D01*
X173105866Y-61526141D01*
X173153485Y-61478522D01*
X173201104Y-61383284D01*
X173248723Y-61192808D01*
X173248723Y-60954713D01*
X173201104Y-60764237D01*
X173153485Y-60668999D01*
X173105866Y-60621380D01*
X173010628Y-60573760D01*
G04 #@! TO.C,C11*
X148220702Y-143255762D02*
X148268321Y-143208143D01*
X148315940Y-143065286D01*
X148315940Y-142970048D01*
X148268321Y-142827191D01*
X148173083Y-142731953D01*
X148077845Y-142684334D01*
X147887369Y-142636715D01*
X147744512Y-142636715D01*
X147554036Y-142684334D01*
X147458798Y-142731953D01*
X147363560Y-142827191D01*
X147315940Y-142970048D01*
X147315940Y-143065286D01*
X147363560Y-143208143D01*
X147411179Y-143255762D01*
X148315940Y-144208143D02*
X148315940Y-143636715D01*
X148315940Y-143922429D02*
X147315940Y-143922429D01*
X147458798Y-143827191D01*
X147554036Y-143731953D01*
X147601655Y-143636715D01*
X148315940Y-145160524D02*
X148315940Y-144589096D01*
X148315940Y-144874810D02*
X147315940Y-144874810D01*
X147458798Y-144779572D01*
X147554036Y-144684334D01*
X147601655Y-144589096D01*
G04 #@! TO.C,C12*
X184769997Y-141891022D02*
X184817616Y-141938641D01*
X184960473Y-141986260D01*
X185055711Y-141986260D01*
X185198568Y-141938641D01*
X185293806Y-141843403D01*
X185341425Y-141748165D01*
X185389044Y-141557689D01*
X185389044Y-141414832D01*
X185341425Y-141224356D01*
X185293806Y-141129118D01*
X185198568Y-141033880D01*
X185055711Y-140986260D01*
X184960473Y-140986260D01*
X184817616Y-141033880D01*
X184769997Y-141081499D01*
X183817616Y-141986260D02*
X184389044Y-141986260D01*
X184103330Y-141986260D02*
X184103330Y-140986260D01*
X184198568Y-141129118D01*
X184293806Y-141224356D01*
X184389044Y-141271975D01*
X183436663Y-141081499D02*
X183389044Y-141033880D01*
X183293806Y-140986260D01*
X183055711Y-140986260D01*
X182960473Y-141033880D01*
X182912854Y-141081499D01*
X182865235Y-141176737D01*
X182865235Y-141271975D01*
X182912854Y-141414832D01*
X183484282Y-141986260D01*
X182865235Y-141986260D01*
G04 #@! TO.C,D4*
X145577700Y-138954284D02*
X144577700Y-138954284D01*
X144577700Y-139192380D01*
X144625320Y-139335237D01*
X144720558Y-139430475D01*
X144815796Y-139478094D01*
X145006272Y-139525713D01*
X145149129Y-139525713D01*
X145339605Y-139478094D01*
X145434843Y-139430475D01*
X145530081Y-139335237D01*
X145577700Y-139192380D01*
X145577700Y-138954284D01*
X144911034Y-140382856D02*
X145577700Y-140382856D01*
X144530081Y-140144760D02*
X145244367Y-139906665D01*
X145244367Y-140525713D01*
X143670280Y-143950654D02*
X143670280Y-143379225D01*
X143670280Y-143664940D02*
X142670280Y-143664940D01*
X142813138Y-143569701D01*
X142908376Y-143474463D01*
X142955995Y-143379225D01*
G04 #@! TO.C,D5*
X176718220Y-138657104D02*
X175718220Y-138657104D01*
X175718220Y-138895200D01*
X175765840Y-139038057D01*
X175861078Y-139133295D01*
X175956316Y-139180914D01*
X176146792Y-139228533D01*
X176289649Y-139228533D01*
X176480125Y-139180914D01*
X176575363Y-139133295D01*
X176670601Y-139038057D01*
X176718220Y-138895200D01*
X176718220Y-138657104D01*
X175718220Y-140133295D02*
X175718220Y-139657104D01*
X176194411Y-139609485D01*
X176146792Y-139657104D01*
X176099173Y-139752342D01*
X176099173Y-139990438D01*
X176146792Y-140085676D01*
X176194411Y-140133295D01*
X176289649Y-140180914D01*
X176527744Y-140180914D01*
X176622982Y-140133295D01*
X176670601Y-140085676D01*
X176718220Y-139990438D01*
X176718220Y-139752342D01*
X176670601Y-139657104D01*
X176622982Y-139609485D01*
X181815800Y-143830914D02*
X181815800Y-143259485D01*
X181815800Y-143545200D02*
X180815800Y-143545200D01*
X180958658Y-143449961D01*
X181053896Y-143354723D01*
X181101515Y-143259485D01*
G04 #@! TO.C,R20*
X135198020Y-59943762D02*
X134721830Y-59610429D01*
X135198020Y-59372334D02*
X134198020Y-59372334D01*
X134198020Y-59753286D01*
X134245640Y-59848524D01*
X134293259Y-59896143D01*
X134388497Y-59943762D01*
X134531354Y-59943762D01*
X134626592Y-59896143D01*
X134674211Y-59848524D01*
X134721830Y-59753286D01*
X134721830Y-59372334D01*
X134293259Y-60324715D02*
X134245640Y-60372334D01*
X134198020Y-60467572D01*
X134198020Y-60705667D01*
X134245640Y-60800905D01*
X134293259Y-60848524D01*
X134388497Y-60896143D01*
X134483735Y-60896143D01*
X134626592Y-60848524D01*
X135198020Y-60277096D01*
X135198020Y-60896143D01*
X134198020Y-61515191D02*
X134198020Y-61610429D01*
X134245640Y-61705667D01*
X134293259Y-61753286D01*
X134388497Y-61800905D01*
X134578973Y-61848524D01*
X134817068Y-61848524D01*
X135007544Y-61800905D01*
X135102782Y-61753286D01*
X135150401Y-61705667D01*
X135198020Y-61610429D01*
X135198020Y-61515191D01*
X135150401Y-61419953D01*
X135102782Y-61372334D01*
X135007544Y-61324715D01*
X134817068Y-61277096D01*
X134578973Y-61277096D01*
X134388497Y-61324715D01*
X134293259Y-61372334D01*
X134245640Y-61419953D01*
X134198020Y-61515191D01*
G04 #@! TO.C,R1*
X186244526Y-118313460D02*
X186577860Y-117837270D01*
X186815955Y-118313460D02*
X186815955Y-117313460D01*
X186435002Y-117313460D01*
X186339764Y-117361080D01*
X186292145Y-117408699D01*
X186244526Y-117503937D01*
X186244526Y-117646794D01*
X186292145Y-117742032D01*
X186339764Y-117789651D01*
X186435002Y-117837270D01*
X186815955Y-117837270D01*
X185292145Y-118313460D02*
X185863574Y-118313460D01*
X185577860Y-118313460D02*
X185577860Y-117313460D01*
X185673098Y-117456318D01*
X185768336Y-117551556D01*
X185863574Y-117599175D01*
G04 #@! TO.C,R2*
X175165046Y-127368560D02*
X175498380Y-126892370D01*
X175736475Y-127368560D02*
X175736475Y-126368560D01*
X175355522Y-126368560D01*
X175260284Y-126416180D01*
X175212665Y-126463799D01*
X175165046Y-126559037D01*
X175165046Y-126701894D01*
X175212665Y-126797132D01*
X175260284Y-126844751D01*
X175355522Y-126892370D01*
X175736475Y-126892370D01*
X174784094Y-126463799D02*
X174736475Y-126416180D01*
X174641237Y-126368560D01*
X174403141Y-126368560D01*
X174307903Y-126416180D01*
X174260284Y-126463799D01*
X174212665Y-126559037D01*
X174212665Y-126654275D01*
X174260284Y-126797132D01*
X174831713Y-127368560D01*
X174212665Y-127368560D01*
G04 #@! TO.C,R3*
X134337086Y-118374420D02*
X134670420Y-117898230D01*
X134908515Y-118374420D02*
X134908515Y-117374420D01*
X134527562Y-117374420D01*
X134432324Y-117422040D01*
X134384705Y-117469659D01*
X134337086Y-117564897D01*
X134337086Y-117707754D01*
X134384705Y-117802992D01*
X134432324Y-117850611D01*
X134527562Y-117898230D01*
X134908515Y-117898230D01*
X134003753Y-117374420D02*
X133384705Y-117374420D01*
X133718039Y-117755373D01*
X133575181Y-117755373D01*
X133479943Y-117802992D01*
X133432324Y-117850611D01*
X133384705Y-117945849D01*
X133384705Y-118183944D01*
X133432324Y-118279182D01*
X133479943Y-118326801D01*
X133575181Y-118374420D01*
X133860896Y-118374420D01*
X133956134Y-118326801D01*
X134003753Y-118279182D01*
G04 #@! TO.C,R4*
X145490226Y-127548900D02*
X145823560Y-127072710D01*
X146061655Y-127548900D02*
X146061655Y-126548900D01*
X145680702Y-126548900D01*
X145585464Y-126596520D01*
X145537845Y-126644139D01*
X145490226Y-126739377D01*
X145490226Y-126882234D01*
X145537845Y-126977472D01*
X145585464Y-127025091D01*
X145680702Y-127072710D01*
X146061655Y-127072710D01*
X144633083Y-126882234D02*
X144633083Y-127548900D01*
X144871179Y-126501281D02*
X145109274Y-127215567D01*
X144490226Y-127215567D01*
G04 #@! TD*
M02*
