G04 #@! TF.GenerationSoftware,KiCad,Pcbnew,(5.0.0-3-g5ebb6b6)*
G04 #@! TF.CreationDate,2020-01-06T15:53:35-08:00*
G04 #@! TF.ProjectId,mouse_v2,6D6F7573655F76322E6B696361645F70,rev?*
G04 #@! TF.SameCoordinates,Original*
G04 #@! TF.FileFunction,Paste,Bot*
G04 #@! TF.FilePolarity,Positive*
%FSLAX46Y46*%
G04 Gerber Fmt 4.6, Leading zero omitted, Abs format (unit mm)*
G04 Created by KiCad (PCBNEW (5.0.0-3-g5ebb6b6)) date Monday, January 06, 2020 at 03:53:35 PM*
%MOMM*%
%LPD*%
G01*
G04 APERTURE LIST*
%ADD10C,0.100000*%
%ADD11C,0.950000*%
%ADD12C,1.425000*%
G04 APERTURE END LIST*
D10*
G04 #@! TO.C,C2*
G36*
X186722179Y-82217944D02*
X186745234Y-82221363D01*
X186767843Y-82227027D01*
X186789787Y-82234879D01*
X186810857Y-82244844D01*
X186830848Y-82256826D01*
X186849568Y-82270710D01*
X186866838Y-82286362D01*
X186882490Y-82303632D01*
X186896374Y-82322352D01*
X186908356Y-82342343D01*
X186918321Y-82363413D01*
X186926173Y-82385357D01*
X186931837Y-82407966D01*
X186935256Y-82431021D01*
X186936400Y-82454300D01*
X186936400Y-83029300D01*
X186935256Y-83052579D01*
X186931837Y-83075634D01*
X186926173Y-83098243D01*
X186918321Y-83120187D01*
X186908356Y-83141257D01*
X186896374Y-83161248D01*
X186882490Y-83179968D01*
X186866838Y-83197238D01*
X186849568Y-83212890D01*
X186830848Y-83226774D01*
X186810857Y-83238756D01*
X186789787Y-83248721D01*
X186767843Y-83256573D01*
X186745234Y-83262237D01*
X186722179Y-83265656D01*
X186698900Y-83266800D01*
X186223900Y-83266800D01*
X186200621Y-83265656D01*
X186177566Y-83262237D01*
X186154957Y-83256573D01*
X186133013Y-83248721D01*
X186111943Y-83238756D01*
X186091952Y-83226774D01*
X186073232Y-83212890D01*
X186055962Y-83197238D01*
X186040310Y-83179968D01*
X186026426Y-83161248D01*
X186014444Y-83141257D01*
X186004479Y-83120187D01*
X185996627Y-83098243D01*
X185990963Y-83075634D01*
X185987544Y-83052579D01*
X185986400Y-83029300D01*
X185986400Y-82454300D01*
X185987544Y-82431021D01*
X185990963Y-82407966D01*
X185996627Y-82385357D01*
X186004479Y-82363413D01*
X186014444Y-82342343D01*
X186026426Y-82322352D01*
X186040310Y-82303632D01*
X186055962Y-82286362D01*
X186073232Y-82270710D01*
X186091952Y-82256826D01*
X186111943Y-82244844D01*
X186133013Y-82234879D01*
X186154957Y-82227027D01*
X186177566Y-82221363D01*
X186200621Y-82217944D01*
X186223900Y-82216800D01*
X186698900Y-82216800D01*
X186722179Y-82217944D01*
X186722179Y-82217944D01*
G37*
D11*
X186461400Y-82741800D03*
D10*
G36*
X186722179Y-83967944D02*
X186745234Y-83971363D01*
X186767843Y-83977027D01*
X186789787Y-83984879D01*
X186810857Y-83994844D01*
X186830848Y-84006826D01*
X186849568Y-84020710D01*
X186866838Y-84036362D01*
X186882490Y-84053632D01*
X186896374Y-84072352D01*
X186908356Y-84092343D01*
X186918321Y-84113413D01*
X186926173Y-84135357D01*
X186931837Y-84157966D01*
X186935256Y-84181021D01*
X186936400Y-84204300D01*
X186936400Y-84779300D01*
X186935256Y-84802579D01*
X186931837Y-84825634D01*
X186926173Y-84848243D01*
X186918321Y-84870187D01*
X186908356Y-84891257D01*
X186896374Y-84911248D01*
X186882490Y-84929968D01*
X186866838Y-84947238D01*
X186849568Y-84962890D01*
X186830848Y-84976774D01*
X186810857Y-84988756D01*
X186789787Y-84998721D01*
X186767843Y-85006573D01*
X186745234Y-85012237D01*
X186722179Y-85015656D01*
X186698900Y-85016800D01*
X186223900Y-85016800D01*
X186200621Y-85015656D01*
X186177566Y-85012237D01*
X186154957Y-85006573D01*
X186133013Y-84998721D01*
X186111943Y-84988756D01*
X186091952Y-84976774D01*
X186073232Y-84962890D01*
X186055962Y-84947238D01*
X186040310Y-84929968D01*
X186026426Y-84911248D01*
X186014444Y-84891257D01*
X186004479Y-84870187D01*
X185996627Y-84848243D01*
X185990963Y-84825634D01*
X185987544Y-84802579D01*
X185986400Y-84779300D01*
X185986400Y-84204300D01*
X185987544Y-84181021D01*
X185990963Y-84157966D01*
X185996627Y-84135357D01*
X186004479Y-84113413D01*
X186014444Y-84092343D01*
X186026426Y-84072352D01*
X186040310Y-84053632D01*
X186055962Y-84036362D01*
X186073232Y-84020710D01*
X186091952Y-84006826D01*
X186111943Y-83994844D01*
X186133013Y-83984879D01*
X186154957Y-83977027D01*
X186177566Y-83971363D01*
X186200621Y-83967944D01*
X186223900Y-83966800D01*
X186698900Y-83966800D01*
X186722179Y-83967944D01*
X186722179Y-83967944D01*
G37*
D11*
X186461400Y-84491800D03*
G04 #@! TD*
D10*
G04 #@! TO.C,CP1*
G36*
X160238704Y-60899004D02*
X160262973Y-60902604D01*
X160286771Y-60908565D01*
X160309871Y-60916830D01*
X160332049Y-60927320D01*
X160353093Y-60939933D01*
X160372798Y-60954547D01*
X160390977Y-60971023D01*
X160407453Y-60989202D01*
X160422067Y-61008907D01*
X160434680Y-61029951D01*
X160445170Y-61052129D01*
X160453435Y-61075229D01*
X160459396Y-61099027D01*
X160462996Y-61123296D01*
X160464200Y-61147800D01*
X160464200Y-62397800D01*
X160462996Y-62422304D01*
X160459396Y-62446573D01*
X160453435Y-62470371D01*
X160445170Y-62493471D01*
X160434680Y-62515649D01*
X160422067Y-62536693D01*
X160407453Y-62556398D01*
X160390977Y-62574577D01*
X160372798Y-62591053D01*
X160353093Y-62605667D01*
X160332049Y-62618280D01*
X160309871Y-62628770D01*
X160286771Y-62637035D01*
X160262973Y-62642996D01*
X160238704Y-62646596D01*
X160214200Y-62647800D01*
X159289200Y-62647800D01*
X159264696Y-62646596D01*
X159240427Y-62642996D01*
X159216629Y-62637035D01*
X159193529Y-62628770D01*
X159171351Y-62618280D01*
X159150307Y-62605667D01*
X159130602Y-62591053D01*
X159112423Y-62574577D01*
X159095947Y-62556398D01*
X159081333Y-62536693D01*
X159068720Y-62515649D01*
X159058230Y-62493471D01*
X159049965Y-62470371D01*
X159044004Y-62446573D01*
X159040404Y-62422304D01*
X159039200Y-62397800D01*
X159039200Y-61147800D01*
X159040404Y-61123296D01*
X159044004Y-61099027D01*
X159049965Y-61075229D01*
X159058230Y-61052129D01*
X159068720Y-61029951D01*
X159081333Y-61008907D01*
X159095947Y-60989202D01*
X159112423Y-60971023D01*
X159130602Y-60954547D01*
X159150307Y-60939933D01*
X159171351Y-60927320D01*
X159193529Y-60916830D01*
X159216629Y-60908565D01*
X159240427Y-60902604D01*
X159264696Y-60899004D01*
X159289200Y-60897800D01*
X160214200Y-60897800D01*
X160238704Y-60899004D01*
X160238704Y-60899004D01*
G37*
D12*
X159751700Y-61772800D03*
D10*
G36*
X163213704Y-60899004D02*
X163237973Y-60902604D01*
X163261771Y-60908565D01*
X163284871Y-60916830D01*
X163307049Y-60927320D01*
X163328093Y-60939933D01*
X163347798Y-60954547D01*
X163365977Y-60971023D01*
X163382453Y-60989202D01*
X163397067Y-61008907D01*
X163409680Y-61029951D01*
X163420170Y-61052129D01*
X163428435Y-61075229D01*
X163434396Y-61099027D01*
X163437996Y-61123296D01*
X163439200Y-61147800D01*
X163439200Y-62397800D01*
X163437996Y-62422304D01*
X163434396Y-62446573D01*
X163428435Y-62470371D01*
X163420170Y-62493471D01*
X163409680Y-62515649D01*
X163397067Y-62536693D01*
X163382453Y-62556398D01*
X163365977Y-62574577D01*
X163347798Y-62591053D01*
X163328093Y-62605667D01*
X163307049Y-62618280D01*
X163284871Y-62628770D01*
X163261771Y-62637035D01*
X163237973Y-62642996D01*
X163213704Y-62646596D01*
X163189200Y-62647800D01*
X162264200Y-62647800D01*
X162239696Y-62646596D01*
X162215427Y-62642996D01*
X162191629Y-62637035D01*
X162168529Y-62628770D01*
X162146351Y-62618280D01*
X162125307Y-62605667D01*
X162105602Y-62591053D01*
X162087423Y-62574577D01*
X162070947Y-62556398D01*
X162056333Y-62536693D01*
X162043720Y-62515649D01*
X162033230Y-62493471D01*
X162024965Y-62470371D01*
X162019004Y-62446573D01*
X162015404Y-62422304D01*
X162014200Y-62397800D01*
X162014200Y-61147800D01*
X162015404Y-61123296D01*
X162019004Y-61099027D01*
X162024965Y-61075229D01*
X162033230Y-61052129D01*
X162043720Y-61029951D01*
X162056333Y-61008907D01*
X162070947Y-60989202D01*
X162087423Y-60971023D01*
X162105602Y-60954547D01*
X162125307Y-60939933D01*
X162146351Y-60927320D01*
X162168529Y-60916830D01*
X162191629Y-60908565D01*
X162215427Y-60902604D01*
X162239696Y-60899004D01*
X162264200Y-60897800D01*
X163189200Y-60897800D01*
X163213704Y-60899004D01*
X163213704Y-60899004D01*
G37*
D12*
X162726700Y-61772800D03*
G04 #@! TD*
M02*
