M48
;DRILL file {KiCad (5.0.0-3-g5ebb6b6)} date Thursday, April 02, 2020 at 01:12:44 PM
;FORMAT={-:-/ absolute / inch / decimal}
FMAT,2
INCH,TZ
T1C0.0157
T2C0.0197
T3C0.0295
T4C0.0300
T5C0.0315
T6C0.0354
T7C0.0394
T8C0.0433
T9C0.0440
%
G90
G05
M72
T1
X4.6159Y-2.5471
X4.801Y-4.6478
X5.0187Y-4.6547
X5.1555Y-4.6349
X5.248Y-2.6665
X5.5694Y-5.6239
X5.6009Y-5.478
X5.718Y-5.0688
X5.7532Y-2.3987
X5.8141Y-4.2713
X5.8367Y-4.041
X6.006Y-2.3969
X6.0119Y-3.181
X6.0171Y-5.3466
X6.0478Y-3.1317
X6.1476Y-2.802
X6.3453Y-3.0353
X6.3858Y-3.7861
X6.5936Y-5.4638
X6.639Y-3.5927
X6.65Y-3.9427
X6.7328Y-4.0114
X6.8882Y-5.0635
X6.8882Y-5.1807
X6.8946Y-5.7058
X6.9766Y-5.1456
X7.0116Y-5.5831
X7.1403Y-5.3915
X7.2195Y-4.8113
X7.2605Y-5.3459
X7.3239Y-4.452
X7.3398Y-3.038
X7.4433Y-2.9021
X7.4597Y-3.1514
X7.4628Y-2.8338
X7.4972Y-3.1382
X7.5844Y-2.3923
X7.6649Y-4.4526
X7.7274Y-2.6258
X7.7767Y-2.5308
X7.8134Y-4.6148
X7.9199Y-2.6492
X7.9492Y-4.3973
X8.114Y-2.433
X7.7157Y-2.4785
X7.7787Y-2.4785
X7.8102Y-2.4785
X7.8416Y-2.4785
X7.8731Y-2.4785
X7.9361Y-2.4785
T2
X6.56Y-4.522
X6.71Y-4.522
T3
X5.986Y-5.1933
X6.036Y-5.2433
X6.086Y-5.1933
X4.9581Y-4.2597
X5.0081Y-4.3097
X5.0581Y-4.2597
X6.5053Y-5.1928
X6.5553Y-5.2428
X6.6053Y-5.1928
X7.5029Y-4.2782
X7.5529Y-4.3282
X7.6029Y-4.2782
T4
X5.473Y-2.4784
X5.475Y-2.2816
X7.0698Y-2.251
X7.0698Y-2.523
X7.2548Y-2.251
X7.2548Y-2.523
X7.4418Y-2.251
X7.4418Y-2.523
T5
X4.709Y-2.6087
X4.7111Y-2.54
X4.7798Y-2.6108
X4.7818Y-2.54
X4.8505Y-2.6087
X4.9191Y-2.6066
X5.1087Y-4.3434
X5.1147Y-2.3611
X5.1147Y-2.4339
X5.1862Y-4.2696
X5.1862Y-4.3471
X5.2674Y-4.3453
X5.273Y-4.2678
X5.404Y-4.5335
X5.476Y-4.5298
X5.5498Y-4.5261
X5.8547Y-5.6929
X5.9265Y-3.2362
X6.1508Y-5.6437
X6.1528Y-5.5682
X6.2264Y-5.6398
X6.2304Y-5.5682
X6.3059Y-5.5662
X6.3079Y-5.6418
X6.5235Y-2.4633
X6.5309Y-2.3547
X6.6183Y-2.3559
X6.6235Y-2.4594
X6.6982Y-2.4594
X6.7007Y-2.3597
X6.775Y-3.1459
X6.7893Y-2.3347
X7.0403Y-5.2876
X7.0425Y-5.218
X7.1099Y-5.1419
X7.1143Y-5.2158
X7.1143Y-5.2876
X7.3326Y-5.2831
X7.3819Y-4.8154
X7.3977Y-5.217
X7.4036Y-5.2919
X7.4403Y-4.8785
X7.4497Y-4.7547
X7.4667Y-5.2436
X7.4736Y-5.1785
X7.4766Y-5.3087
X7.4941Y-4.944
X7.5104Y-4.8224
X7.5642Y-4.8902
X7.7886Y-4.0826
X6.6006Y-3.0724
X6.6793Y-3.0724
X6.7581Y-3.0724
X6.8368Y-3.0724
X6.9156Y-3.0724
X6.9943Y-3.0724
X5.614Y-3.067
X5.6927Y-3.067
X5.7715Y-3.067
X5.8502Y-3.067
X5.929Y-3.067
X6.0077Y-3.067
T6
X7.9779Y-4.3076
X8.0779Y-4.3076
X5.7154Y-5.309
X5.76Y-5.3985
X6.752Y-5.5735
X6.7966Y-5.484
X4.718Y-4.3045
X4.818Y-4.3045
X4.5205Y-4.3049
X4.6205Y-4.3049
X6.8395Y-5.396
X6.8841Y-5.3065
X5.805Y-5.486
X5.8496Y-5.5755
X7.7805Y-4.307
X7.8805Y-4.307
T7
X7.1789Y-2.7148
X7.1789Y-2.8148
X6.9076Y-4.3212
X6.9076Y-4.4212
X6.9076Y-4.5212
X6.9076Y-4.6212
X7.3169Y-2.7128
X7.3169Y-2.8128
X6.2441Y-4.9895
X6.3441Y-4.9895
T8
X5.66Y-4.222
X5.66Y-4.322
X5.66Y-4.422
X5.66Y-4.522
X5.66Y-4.622
X5.66Y-4.722
X5.66Y-4.822
X5.76Y-4.222
X5.76Y-4.522
X5.76Y-4.622
X5.76Y-4.822
X5.86Y-4.222
X5.86Y-4.522
X5.86Y-4.622
X5.86Y-4.822
X5.96Y-4.222
X5.96Y-4.522
X5.96Y-4.622
X5.96Y-4.822
X6.06Y-4.222
X6.06Y-4.522
X6.06Y-4.622
X6.06Y-4.822
X6.16Y-4.222
X6.16Y-4.522
X6.16Y-4.622
X6.16Y-4.822
X6.26Y-4.222
X6.26Y-4.522
X6.26Y-4.622
X6.26Y-4.822
X6.36Y-4.222
X6.36Y-4.522
X6.36Y-4.622
X6.36Y-4.822
X6.46Y-4.222
X6.46Y-4.722
X6.46Y-4.822
X6.56Y-4.222
X6.56Y-4.722
X6.56Y-4.822
X6.66Y-4.222
X6.66Y-4.722
X6.66Y-4.822
X6.76Y-4.222
X6.76Y-4.822
X6.86Y-4.222
X6.86Y-4.722
X6.86Y-4.822
X6.96Y-4.222
X6.96Y-4.822
T9
X5.5157Y-2.6218
X5.5157Y-2.9218
X5.6157Y-2.6218
X5.6157Y-2.9218
X5.7157Y-2.6218
X5.7157Y-2.9218
X5.8157Y-2.6218
X5.8157Y-2.9218
X5.9157Y-2.6218
X5.9157Y-2.9218
X6.0157Y-2.6218
X6.0157Y-2.9218
X6.1157Y-2.6218
X6.1157Y-2.9218
X6.2157Y-2.6218
X6.2157Y-2.9218
T2
X7.6487Y-2.3048G85X7.6487Y-2.2733
G05
X7.6487Y-2.5214G85X7.6487Y-2.4978
G05
X8.0031Y-2.3048G85X8.0031Y-2.2733
G05
X8.0031Y-2.5214G85X8.0031Y-2.4978
G05
T0
M30
