M48
;DRILL file {KiCad (5.0.0-3-g5ebb6b6)} date Wednesday, April 01, 2020 at 02:53:32 AM
;FORMAT={-:-/ absolute / inch / decimal}
FMAT,2
INCH,TZ
T1C0.0157
T2C0.0197
T3C0.0295
T4C0.0300
T5C0.0315
T6C0.0354
T7C0.0394
T8C0.0433
T9C0.0440
%
G90
G05
M72
T1
X4.6159Y-2.5471
X4.801Y-4.6478
X5.0187Y-4.6547
X5.1555Y-4.6349
X5.248Y-2.6665
X5.5694Y-5.6239
X5.6009Y-5.478
X5.7532Y-2.3987
X5.8141Y-4.2713
X5.8367Y-4.041
X6.006Y-2.3969
X6.0119Y-3.181
X6.0171Y-5.3466
X6.0478Y-3.1317
X6.1476Y-2.802
X6.3453Y-3.0353
X6.3858Y-3.7861
X6.5936Y-5.4638
X6.639Y-3.5927
X6.65Y-3.9427
X6.7328Y-4.0114
X6.8882Y-5.1807
X6.8946Y-5.7058
X7.0116Y-5.5831
X7.1403Y-5.3915
X7.2605Y-5.3459
X7.3398Y-3.038
X7.4433Y-2.9021
X7.4597Y-3.1514
X7.4628Y-2.8338
X7.4972Y-3.1382
X7.5844Y-2.3923
X7.6649Y-4.4526
X7.7274Y-2.6258
X7.7767Y-2.5308
X7.8134Y-4.6148
X7.9199Y-2.6492
X7.9492Y-4.3973
X8.114Y-2.433
X7.7157Y-2.4785
X7.7787Y-2.4785
X7.8102Y-2.4785
X7.8416Y-2.4785
X7.8731Y-2.4785
X7.9361Y-2.4785
T2
X6.56Y-4.522
X6.71Y-4.522
T3
X6.5053Y-5.1928
X6.5553Y-5.2428
X6.6053Y-5.1928
X5.986Y-5.1933
X6.036Y-5.2433
X6.086Y-5.1933
X7.5029Y-4.2782
X7.5529Y-4.3282
X7.6029Y-4.2782
X4.9581Y-4.2597
X5.0081Y-4.3097
X5.0581Y-4.2597
T4
X7.0698Y-2.251
X7.0698Y-2.523
X7.2548Y-2.251
X7.2548Y-2.523
X7.4418Y-2.251
X7.4418Y-2.523
X5.473Y-2.4784
X5.475Y-2.2816
T5
X4.709Y-2.6087
X4.7111Y-2.54
X4.7798Y-2.6108
X4.7818Y-2.54
X4.8505Y-2.6087
X4.9191Y-2.6066
X5.1147Y-2.3611
X5.1147Y-2.4339
X5.3401Y-5.3747
X5.341Y-5.3048
X5.3436Y-5.2366
X5.4073Y-5.3762
X5.4083Y-5.3083
X5.4127Y-5.2366
X5.4418Y-5.5274
X5.4782Y-5.3065
X5.4817Y-5.2366
X5.5171Y-3.9066
X5.5242Y-3.84
X5.5879Y-3.9088
X5.593Y-3.8398
X5.6566Y-3.9088
X5.6607Y-3.8398
X5.7339Y-3.9109
X5.7364Y-3.838
X5.8416Y-5.6887
X5.9083Y-5.7328
X5.9083Y-5.7328
X5.9083Y-5.7328
X5.9265Y-3.2362
X6.5235Y-2.4633
X6.5309Y-2.3547
X6.6183Y-2.3559
X6.6235Y-2.4594
X6.6982Y-2.4594
X6.7007Y-2.3597
X6.7893Y-2.3347
X6.8582Y-3.9054
X6.8653Y-3.8388
X6.929Y-3.9076
X6.9341Y-3.8386
X6.9977Y-3.9076
X7.0018Y-3.8386
X7.075Y-3.9097
X7.0775Y-3.8368
X7.4Y-5.2732
X7.4424Y-5.2085
X7.4759Y-5.2754
X7.513Y-5.2085
X7.6059Y-4.8725
X7.6111Y-4.802
X7.6162Y-4.7281
X7.685Y-4.7969
X7.685Y-4.8708
X7.6867Y-4.7281
X7.7886Y-4.0826
X6.6006Y-3.0724
X6.6793Y-3.0724
X6.7581Y-3.0724
X6.8368Y-3.0724
X6.9156Y-3.0724
X6.9943Y-3.0724
X5.614Y-3.067
X5.6927Y-3.067
X5.7715Y-3.067
X5.8502Y-3.067
X5.929Y-3.067
X6.0077Y-3.067
T6
X4.718Y-4.3045
X4.818Y-4.3045
X6.8395Y-5.396
X6.8841Y-5.3065
X5.805Y-5.486
X5.8496Y-5.5755
X7.9779Y-4.3076
X8.0779Y-4.3076
X7.7805Y-4.307
X7.8805Y-4.307
X5.7154Y-5.309
X5.76Y-5.3985
X6.752Y-5.5735
X6.7966Y-5.484
X4.5205Y-4.3049
X4.6205Y-4.3049
T7
X6.9076Y-4.3212
X6.9076Y-4.4212
X6.9076Y-4.5212
X6.9076Y-4.6212
X7.1789Y-2.7148
X7.1789Y-2.8148
X7.3169Y-2.7128
X7.3169Y-2.8128
X6.2441Y-4.9895
X6.3441Y-4.9895
T8
X5.66Y-4.222
X5.66Y-4.322
X5.66Y-4.422
X5.66Y-4.522
X5.66Y-4.622
X5.66Y-4.722
X5.66Y-4.822
X5.76Y-4.222
X5.76Y-4.522
X5.76Y-4.622
X5.76Y-4.822
X5.86Y-4.222
X5.86Y-4.522
X5.86Y-4.622
X5.86Y-4.822
X5.96Y-4.222
X5.96Y-4.522
X5.96Y-4.622
X5.96Y-4.822
X6.06Y-4.222
X6.06Y-4.522
X6.06Y-4.622
X6.06Y-4.822
X6.16Y-4.222
X6.16Y-4.522
X6.16Y-4.622
X6.16Y-4.822
X6.26Y-4.222
X6.26Y-4.522
X6.26Y-4.622
X6.26Y-4.822
X6.36Y-4.222
X6.36Y-4.522
X6.36Y-4.622
X6.36Y-4.822
X6.46Y-4.222
X6.46Y-4.722
X6.46Y-4.822
X6.56Y-4.222
X6.56Y-4.722
X6.56Y-4.822
X6.66Y-4.222
X6.66Y-4.722
X6.66Y-4.822
X6.76Y-4.222
X6.76Y-4.822
X6.86Y-4.222
X6.86Y-4.722
X6.86Y-4.822
X6.96Y-4.222
X6.96Y-4.822
T9
X5.5157Y-2.6218
X5.5157Y-2.9218
X5.6157Y-2.6218
X5.6157Y-2.9218
X5.7157Y-2.6218
X5.7157Y-2.9218
X5.8157Y-2.6218
X5.8157Y-2.9218
X5.9157Y-2.6218
X5.9157Y-2.9218
X6.0157Y-2.6218
X6.0157Y-2.9218
X6.1157Y-2.6218
X6.1157Y-2.9218
X6.2157Y-2.6218
X6.2157Y-2.9218
T2
X7.6487Y-2.3048G85X7.6487Y-2.2733
G05
X7.6487Y-2.5214G85X7.6487Y-2.4978
G05
X8.0031Y-2.3048G85X8.0031Y-2.2733
G05
X8.0031Y-2.5214G85X8.0031Y-2.4978
G05
T0
M30
