G04 #@! TF.GenerationSoftware,KiCad,Pcbnew,(5.0.0-3-g5ebb6b6)*
G04 #@! TF.CreationDate,2020-01-06T15:53:35-08:00*
G04 #@! TF.ProjectId,mouse_v2,6D6F7573655F76322E6B696361645F70,rev?*
G04 #@! TF.SameCoordinates,Original*
G04 #@! TF.FileFunction,Soldermask,Top*
G04 #@! TF.FilePolarity,Negative*
%FSLAX46Y46*%
G04 Gerber Fmt 4.6, Leading zero omitted, Abs format (unit mm)*
G04 Created by KiCad (PCBNEW (5.0.0-3-g5ebb6b6)) date Monday, January 06, 2020 at 03:53:35 PM*
%MOMM*%
%LPD*%
G01*
G04 APERTURE LIST*
%ADD10O,2.000000X2.000000*%
%ADD11C,2.000000*%
%ADD12R,2.200000X2.200000*%
%ADD13C,2.200000*%
%ADD14C,2.584400*%
%ADD15C,0.100000*%
%ADD16R,2.100000X2.100000*%
%ADD17O,2.100000X2.100000*%
%ADD18R,2.000000X2.000000*%
%ADD19C,2.300000*%
%ADD20R,2.076400X2.076400*%
%ADD21C,2.076400*%
%ADD22C,1.924000*%
%ADD23R,1.400000X2.800000*%
%ADD24C,2.686000*%
%ADD25C,4.387800*%
%ADD26C,2.101800*%
%ADD27R,1.700000X1.700000*%
%ADD28C,1.700000*%
%ADD29C,1.350000*%
G04 APERTURE END LIST*
D10*
G04 #@! TO.C,R20*
X176809400Y-102793800D03*
D11*
X192049400Y-102793800D03*
G04 #@! TD*
D12*
G04 #@! TO.C,Q2*
X113346989Y-109548045D03*
D13*
X115886989Y-109548045D03*
G04 #@! TD*
G04 #@! TO.C,D0*
X198691500Y-109601000D03*
D12*
X196151500Y-109601000D03*
G04 #@! TD*
D14*
G04 #@! TO.C,M3*
X165309500Y-143827500D03*
X151809500Y-143827500D03*
G04 #@! TD*
D13*
G04 #@! TO.C,Q1*
X173383442Y-134988467D03*
X172250100Y-137261600D03*
D15*
G36*
X172743710Y-138736845D02*
X170774855Y-137755210D01*
X171756490Y-135786355D01*
X173725345Y-136767990D01*
X172743710Y-138736845D01*
X172743710Y-138736845D01*
G37*
G04 #@! TD*
D16*
G04 #@! TO.C,BT1*
X131470400Y-88341200D03*
D17*
X131470400Y-90881200D03*
G04 #@! TD*
D13*
G04 #@! TO.C,D1*
X170027600Y-141770100D03*
D15*
G36*
X170521210Y-143245345D02*
X168552355Y-142263710D01*
X169533990Y-140294855D01*
X171502845Y-141276490D01*
X170521210Y-143245345D01*
X170521210Y-143245345D01*
G37*
D13*
X171160942Y-139496967D03*
G04 #@! TD*
G04 #@! TO.C,D2*
X120904000Y-109537500D03*
D12*
X118364000Y-109537500D03*
G04 #@! TD*
D13*
G04 #@! TO.C,D3*
X145973800Y-139547600D03*
D15*
G36*
X144498555Y-139053990D02*
X146467410Y-138072355D01*
X147449045Y-140041210D01*
X145480190Y-141022845D01*
X144498555Y-139053990D01*
X144498555Y-139053990D01*
G37*
D13*
X147107142Y-141820733D03*
G04 #@! TD*
D12*
G04 #@! TO.C,Q0*
X201164677Y-109616645D03*
D13*
X203704677Y-109616645D03*
G04 #@! TD*
G04 #@! TO.C,Q3*
X144830800Y-137325100D03*
X143697458Y-135051967D03*
D15*
G36*
X142222213Y-134558357D02*
X144191068Y-133576722D01*
X145172703Y-135545577D01*
X143203848Y-136527212D01*
X142222213Y-134558357D01*
X142222213Y-134558357D01*
G37*
G04 #@! TD*
D11*
G04 #@! TO.C,U1*
X142748000Y-86360000D03*
X142748000Y-88900000D03*
X142748000Y-91440000D03*
X142748000Y-93980000D03*
X142748000Y-83820000D03*
X142748000Y-81280000D03*
X142748000Y-78740000D03*
X145288000Y-93980000D03*
X147828000Y-93980000D03*
X150368000Y-93980000D03*
X152908000Y-93980000D03*
X155448000Y-93980000D03*
X157988000Y-93980000D03*
X160528000Y-93980000D03*
X163068000Y-93980000D03*
X165608000Y-93980000D03*
X168148000Y-93980000D03*
X170688000Y-93980000D03*
X173228000Y-93980000D03*
X175768000Y-93980000D03*
X173228000Y-91440000D03*
X168148000Y-91440000D03*
X165608000Y-91440000D03*
X163068000Y-91440000D03*
X145288000Y-78740000D03*
X147828000Y-78740000D03*
X150368000Y-78740000D03*
X152908000Y-78740000D03*
X155448000Y-78740000D03*
X157988000Y-78740000D03*
X160528000Y-78740000D03*
X163068000Y-78740000D03*
X165608000Y-78740000D03*
X168148000Y-78740000D03*
X170688000Y-78740000D03*
X173228000Y-78740000D03*
D18*
X175768000Y-78740000D03*
D11*
X160528000Y-86360000D03*
X157988000Y-86360000D03*
X155448000Y-86360000D03*
X152908000Y-86360000D03*
X150368000Y-86360000D03*
X147828000Y-86360000D03*
X145288000Y-86360000D03*
X145288000Y-88900000D03*
X147828000Y-88900000D03*
X150368000Y-88900000D03*
X152908000Y-88900000D03*
X155448000Y-88900000D03*
X157988000Y-88900000D03*
X160528000Y-88900000D03*
D19*
X165608000Y-86360000D03*
X169418000Y-86360000D03*
G04 #@! TD*
D20*
G04 #@! TO.C,U2*
X203200000Y-87376000D03*
D21*
X200660000Y-87376000D03*
X198120000Y-87376000D03*
X195580000Y-87376000D03*
X193040000Y-87376000D03*
X190500000Y-87376000D03*
X187960000Y-87376000D03*
X185420000Y-87376000D03*
X185420000Y-94996000D03*
X187960000Y-94996000D03*
X190500000Y-94996000D03*
X193040000Y-94996000D03*
X195580000Y-94996000D03*
X198120000Y-94996000D03*
X200660000Y-94996000D03*
X203200000Y-94996000D03*
G04 #@! TD*
D16*
G04 #@! TO.C,U3*
X161036000Y-58928000D03*
D17*
X158496000Y-58928000D03*
X155956000Y-58928000D03*
G04 #@! TD*
D14*
G04 #@! TO.C,M1*
X130349000Y-77707000D03*
X130349000Y-59707000D03*
G04 #@! TD*
G04 #@! TO.C,M2*
X186770000Y-59707000D03*
X186770000Y-77707000D03*
G04 #@! TD*
D22*
G04 #@! TO.C,BZ1*
X158496000Y-70826000D03*
X158446000Y-65826000D03*
G04 #@! TD*
D23*
G04 #@! TO.C,D4*
X204528600Y-102768400D03*
X202328600Y-102768400D03*
G04 #@! TD*
G04 #@! TO.C,D5*
X112565000Y-102743000D03*
X114765000Y-102743000D03*
G04 #@! TD*
D24*
G04 #@! TO.C,SW1*
X121539000Y-88214200D03*
D25*
X118999000Y-93294200D03*
D24*
X115189000Y-90754200D03*
D26*
X124079000Y-93294200D03*
X113919000Y-93294200D03*
G04 #@! TD*
D17*
G04 #@! TO.C,U4*
X180594000Y-58928000D03*
X178054000Y-58928000D03*
X175514000Y-58928000D03*
X172974000Y-58928000D03*
X170434000Y-58928000D03*
D16*
X167894000Y-58928000D03*
G04 #@! TD*
G04 #@! TO.C,U5*
X136652000Y-58928000D03*
D17*
X139192000Y-58928000D03*
X141732000Y-58928000D03*
X144272000Y-58928000D03*
X146812000Y-58928000D03*
X149352000Y-58928000D03*
G04 #@! TD*
D16*
G04 #@! TO.C,MH_SCL1*
X158013400Y-99009200D03*
G04 #@! TD*
G04 #@! TO.C,MH_SDA1*
X155498800Y-99009200D03*
G04 #@! TD*
D11*
G04 #@! TO.C,R1*
X191249300Y-124663200D03*
D10*
X191249300Y-109423200D03*
G04 #@! TD*
G04 #@! TO.C,R2*
X173469300Y-104228900D03*
D11*
X173469300Y-119468900D03*
G04 #@! TD*
G04 #@! TO.C,R3*
X125831600Y-124510800D03*
D10*
X125831600Y-109270800D03*
G04 #@! TD*
G04 #@! TO.C,R4*
X143687800Y-104190800D03*
D11*
X143687800Y-119430800D03*
G04 #@! TD*
D10*
G04 #@! TO.C,R5*
X187553600Y-111569500D03*
D11*
X187553600Y-126809500D03*
G04 #@! TD*
G04 #@! TO.C,R6*
X162293300Y-127838200D03*
D10*
X162293300Y-112598200D03*
G04 #@! TD*
D11*
G04 #@! TO.C,R7*
X136956800Y-132803900D03*
D10*
X136956800Y-117563900D03*
G04 #@! TD*
D11*
G04 #@! TO.C,R8*
X151066500Y-125679200D03*
D10*
X151066500Y-110439200D03*
G04 #@! TD*
D11*
G04 #@! TO.C,R9*
X183845200Y-131000500D03*
D10*
X183845200Y-115760500D03*
G04 #@! TD*
D11*
G04 #@! TO.C,R10*
X169748200Y-121564400D03*
D10*
X169748200Y-106324400D03*
G04 #@! TD*
D11*
G04 #@! TO.C,R11*
X129552700Y-126593600D03*
D10*
X129552700Y-111353600D03*
G04 #@! TD*
G04 #@! TO.C,R12*
X147383500Y-106286300D03*
D11*
X147383500Y-121526300D03*
G04 #@! TD*
G04 #@! TO.C,R13*
X180136800Y-133057900D03*
D10*
X180136800Y-117817900D03*
G04 #@! TD*
G04 #@! TO.C,R14*
X166027100Y-110540800D03*
D11*
X166027100Y-125780800D03*
G04 #@! TD*
D10*
G04 #@! TO.C,R15*
X133261100Y-115506500D03*
D11*
X133261100Y-130746500D03*
G04 #@! TD*
D10*
G04 #@! TO.C,R16*
X154838400Y-112560100D03*
D11*
X154838400Y-127800100D03*
G04 #@! TD*
G04 #@! TO.C,R17*
X125044200Y-102666800D03*
D10*
X140284200Y-102666800D03*
G04 #@! TD*
G04 #@! TO.C,R18*
X176809400Y-106514900D03*
D11*
X192049400Y-106514900D03*
G04 #@! TD*
D10*
G04 #@! TO.C,R19*
X140284200Y-106387900D03*
D11*
X125044200Y-106387900D03*
G04 #@! TD*
D27*
G04 #@! TO.C,T0*
X184264300Y-111950500D03*
D28*
X181724300Y-111950500D03*
X182994300Y-113220500D03*
G04 #@! TD*
G04 #@! TO.C,T1*
X165087300Y-108026200D03*
X163817300Y-106756200D03*
D27*
X166357300Y-106756200D03*
G04 #@! TD*
D28*
G04 #@! TO.C,T2*
X134162800Y-112953800D03*
X132892800Y-111683800D03*
D27*
X135432800Y-111683800D03*
G04 #@! TD*
G04 #@! TO.C,T3*
X153276300Y-106616500D03*
D28*
X150736300Y-106616500D03*
X152006300Y-107886500D03*
G04 #@! TD*
D15*
G04 #@! TO.C,C3*
G36*
X204724181Y-97904025D02*
X204756943Y-97908885D01*
X204789071Y-97916933D01*
X204820256Y-97928091D01*
X204850196Y-97942252D01*
X204878605Y-97959279D01*
X204905208Y-97979009D01*
X204929749Y-98001251D01*
X204951991Y-98025792D01*
X204971721Y-98052395D01*
X204988748Y-98080804D01*
X205002909Y-98110744D01*
X205014067Y-98141929D01*
X205022115Y-98174057D01*
X205026975Y-98206819D01*
X205028600Y-98239900D01*
X205028600Y-98914900D01*
X205026975Y-98947981D01*
X205022115Y-98980743D01*
X205014067Y-99012871D01*
X205002909Y-99044056D01*
X204988748Y-99073996D01*
X204971721Y-99102405D01*
X204951991Y-99129008D01*
X204929749Y-99153549D01*
X204905208Y-99175791D01*
X204878605Y-99195521D01*
X204850196Y-99212548D01*
X204820256Y-99226709D01*
X204789071Y-99237867D01*
X204756943Y-99245915D01*
X204724181Y-99250775D01*
X204691100Y-99252400D01*
X203916100Y-99252400D01*
X203883019Y-99250775D01*
X203850257Y-99245915D01*
X203818129Y-99237867D01*
X203786944Y-99226709D01*
X203757004Y-99212548D01*
X203728595Y-99195521D01*
X203701992Y-99175791D01*
X203677451Y-99153549D01*
X203655209Y-99129008D01*
X203635479Y-99102405D01*
X203618452Y-99073996D01*
X203604291Y-99044056D01*
X203593133Y-99012871D01*
X203585085Y-98980743D01*
X203580225Y-98947981D01*
X203578600Y-98914900D01*
X203578600Y-98239900D01*
X203580225Y-98206819D01*
X203585085Y-98174057D01*
X203593133Y-98141929D01*
X203604291Y-98110744D01*
X203618452Y-98080804D01*
X203635479Y-98052395D01*
X203655209Y-98025792D01*
X203677451Y-98001251D01*
X203701992Y-97979009D01*
X203728595Y-97959279D01*
X203757004Y-97942252D01*
X203786944Y-97928091D01*
X203818129Y-97916933D01*
X203850257Y-97908885D01*
X203883019Y-97904025D01*
X203916100Y-97902400D01*
X204691100Y-97902400D01*
X204724181Y-97904025D01*
X204724181Y-97904025D01*
G37*
D29*
X204303600Y-98577400D03*
D15*
G36*
X202974181Y-97904025D02*
X203006943Y-97908885D01*
X203039071Y-97916933D01*
X203070256Y-97928091D01*
X203100196Y-97942252D01*
X203128605Y-97959279D01*
X203155208Y-97979009D01*
X203179749Y-98001251D01*
X203201991Y-98025792D01*
X203221721Y-98052395D01*
X203238748Y-98080804D01*
X203252909Y-98110744D01*
X203264067Y-98141929D01*
X203272115Y-98174057D01*
X203276975Y-98206819D01*
X203278600Y-98239900D01*
X203278600Y-98914900D01*
X203276975Y-98947981D01*
X203272115Y-98980743D01*
X203264067Y-99012871D01*
X203252909Y-99044056D01*
X203238748Y-99073996D01*
X203221721Y-99102405D01*
X203201991Y-99129008D01*
X203179749Y-99153549D01*
X203155208Y-99175791D01*
X203128605Y-99195521D01*
X203100196Y-99212548D01*
X203070256Y-99226709D01*
X203039071Y-99237867D01*
X203006943Y-99245915D01*
X202974181Y-99250775D01*
X202941100Y-99252400D01*
X202166100Y-99252400D01*
X202133019Y-99250775D01*
X202100257Y-99245915D01*
X202068129Y-99237867D01*
X202036944Y-99226709D01*
X202007004Y-99212548D01*
X201978595Y-99195521D01*
X201951992Y-99175791D01*
X201927451Y-99153549D01*
X201905209Y-99129008D01*
X201885479Y-99102405D01*
X201868452Y-99073996D01*
X201854291Y-99044056D01*
X201843133Y-99012871D01*
X201835085Y-98980743D01*
X201830225Y-98947981D01*
X201828600Y-98914900D01*
X201828600Y-98239900D01*
X201830225Y-98206819D01*
X201835085Y-98174057D01*
X201843133Y-98141929D01*
X201854291Y-98110744D01*
X201868452Y-98080804D01*
X201885479Y-98052395D01*
X201905209Y-98025792D01*
X201927451Y-98001251D01*
X201951992Y-97979009D01*
X201978595Y-97959279D01*
X202007004Y-97942252D01*
X202036944Y-97928091D01*
X202068129Y-97916933D01*
X202100257Y-97908885D01*
X202133019Y-97904025D01*
X202166100Y-97902400D01*
X202941100Y-97902400D01*
X202974181Y-97904025D01*
X202974181Y-97904025D01*
G37*
D29*
X202553600Y-98577400D03*
G04 #@! TD*
D16*
G04 #@! TO.C,GND*
X135813800Y-90932000D03*
G04 #@! TD*
G04 #@! TO.C,BT*
X135813800Y-88290400D03*
G04 #@! TD*
M02*
