G04 #@! TF.GenerationSoftware,KiCad,Pcbnew,(5.0.0-3-g5ebb6b6)*
G04 #@! TF.CreationDate,2019-09-08T00:47:12-07:00*
G04 #@! TF.ProjectId,mouse,6D6F7573652E6B696361645F70636200,rev?*
G04 #@! TF.SameCoordinates,Original*
G04 #@! TF.FileFunction,Soldermask,Bot*
G04 #@! TF.FilePolarity,Negative*
%FSLAX46Y46*%
G04 Gerber Fmt 4.6, Leading zero omitted, Abs format (unit mm)*
G04 Created by KiCad (PCBNEW (5.0.0-3-g5ebb6b6)) date Sunday, September 08, 2019 at 12:47:12 AM*
%MOMM*%
%LPD*%
G01*
G04 APERTURE LIST*
%ADD10R,2.100000X2.100000*%
%ADD11O,2.100000X2.100000*%
%ADD12C,2.200000*%
%ADD13R,2.200000X2.200000*%
%ADD14C,0.100000*%
%ADD15C,2.000000*%
%ADD16O,2.000000X2.000000*%
%ADD17R,2.000000X2.000000*%
%ADD18C,2.300000*%
%ADD19R,2.076400X2.076400*%
%ADD20C,2.076400*%
%ADD21C,2.584400*%
%ADD22C,1.924000*%
%ADD23R,1.400000X2.800000*%
%ADD24C,2.686000*%
%ADD25C,4.387800*%
%ADD26C,2.101800*%
G04 APERTURE END LIST*
D10*
G04 #@! TO.C,BT1*
X129032000Y-88138000D03*
D11*
X129032000Y-90678000D03*
G04 #@! TD*
D12*
G04 #@! TO.C,D0*
X198691500Y-109601000D03*
D13*
X196151500Y-109601000D03*
G04 #@! TD*
D12*
G04 #@! TO.C,D1*
X163322000Y-140525500D03*
D14*
G36*
X163815610Y-142000745D02*
X161846755Y-141019110D01*
X162828390Y-139050255D01*
X164797245Y-140031890D01*
X163815610Y-142000745D01*
X163815610Y-142000745D01*
G37*
D12*
X164455342Y-138252367D03*
G04 #@! TD*
G04 #@! TO.C,D2*
X120904000Y-109537500D03*
D13*
X118364000Y-109537500D03*
G04 #@! TD*
D12*
G04 #@! TO.C,D3*
X152527000Y-138303000D03*
D14*
G36*
X151051755Y-137809390D02*
X153020610Y-136827755D01*
X154002245Y-138796610D01*
X152033390Y-139778245D01*
X151051755Y-137809390D01*
X151051755Y-137809390D01*
G37*
D12*
X153660342Y-140576133D03*
G04 #@! TD*
D13*
G04 #@! TO.C,Q0*
X201164677Y-109616645D03*
D12*
X203704677Y-109616645D03*
G04 #@! TD*
G04 #@! TO.C,Q1*
X166677842Y-133743867D03*
X165544500Y-136017000D03*
D14*
G36*
X166038110Y-137492245D02*
X164069255Y-136510610D01*
X165050890Y-134541755D01*
X167019745Y-135523390D01*
X166038110Y-137492245D01*
X166038110Y-137492245D01*
G37*
G04 #@! TD*
D13*
G04 #@! TO.C,Q2*
X113346989Y-109548045D03*
D12*
X115886989Y-109548045D03*
G04 #@! TD*
G04 #@! TO.C,Q3*
X151384000Y-136080500D03*
X150250658Y-133807367D03*
D14*
G36*
X148775413Y-133313757D02*
X150744268Y-132332122D01*
X151725903Y-134300977D01*
X149757048Y-135282612D01*
X148775413Y-133313757D01*
X148775413Y-133313757D01*
G37*
G04 #@! TD*
D15*
G04 #@! TO.C,R0*
X197358000Y-106743500D03*
D16*
X197358000Y-104203500D03*
G04 #@! TD*
G04 #@! TO.C,R1*
X160528000Y-145288000D03*
D15*
X160528000Y-142748000D03*
G04 #@! TD*
D16*
G04 #@! TO.C,R2*
X119570500Y-104203500D03*
D15*
X119570500Y-106743500D03*
G04 #@! TD*
G04 #@! TO.C,R3*
X156527500Y-142684500D03*
D16*
X156527500Y-145224500D03*
G04 #@! TD*
D15*
G04 #@! TO.C,R4*
X201866500Y-106807000D03*
D16*
X204406500Y-106807000D03*
G04 #@! TD*
G04 #@! TO.C,R5*
X160274000Y-136334500D03*
D15*
X160274000Y-133794500D03*
G04 #@! TD*
G04 #@! TO.C,R6*
X112903000Y-105918000D03*
D16*
X115443000Y-105918000D03*
G04 #@! TD*
G04 #@! TO.C,R7*
X156781500Y-136334500D03*
D15*
X156781500Y-133794500D03*
G04 #@! TD*
G04 #@! TO.C,U1*
X142748000Y-86360000D03*
X142748000Y-88900000D03*
X142748000Y-91440000D03*
X142748000Y-93980000D03*
X142748000Y-83820000D03*
X142748000Y-81280000D03*
X142748000Y-78740000D03*
X145288000Y-93980000D03*
X147828000Y-93980000D03*
X150368000Y-93980000D03*
X152908000Y-93980000D03*
X155448000Y-93980000D03*
X157988000Y-93980000D03*
X160528000Y-93980000D03*
X163068000Y-93980000D03*
X165608000Y-93980000D03*
X168148000Y-93980000D03*
X170688000Y-93980000D03*
X173228000Y-93980000D03*
X175768000Y-93980000D03*
X173228000Y-91440000D03*
X168148000Y-91440000D03*
X165608000Y-91440000D03*
X163068000Y-91440000D03*
X145288000Y-78740000D03*
X147828000Y-78740000D03*
X150368000Y-78740000D03*
X152908000Y-78740000D03*
X155448000Y-78740000D03*
X157988000Y-78740000D03*
X160528000Y-78740000D03*
X163068000Y-78740000D03*
X165608000Y-78740000D03*
X168148000Y-78740000D03*
X170688000Y-78740000D03*
X173228000Y-78740000D03*
D17*
X175768000Y-78740000D03*
D15*
X160528000Y-86360000D03*
X157988000Y-86360000D03*
X155448000Y-86360000D03*
X152908000Y-86360000D03*
X150368000Y-86360000D03*
X147828000Y-86360000D03*
X145288000Y-86360000D03*
X145288000Y-88900000D03*
X147828000Y-88900000D03*
X150368000Y-88900000D03*
X152908000Y-88900000D03*
X155448000Y-88900000D03*
X157988000Y-88900000D03*
X160528000Y-88900000D03*
D18*
X165608000Y-86360000D03*
X169418000Y-86360000D03*
G04 #@! TD*
D19*
G04 #@! TO.C,U2*
X203200000Y-87376000D03*
D20*
X200660000Y-87376000D03*
X198120000Y-87376000D03*
X195580000Y-87376000D03*
X193040000Y-87376000D03*
X190500000Y-87376000D03*
X187960000Y-87376000D03*
X185420000Y-87376000D03*
X185420000Y-94996000D03*
X187960000Y-94996000D03*
X190500000Y-94996000D03*
X193040000Y-94996000D03*
X195580000Y-94996000D03*
X198120000Y-94996000D03*
X200660000Y-94996000D03*
X203200000Y-94996000D03*
G04 #@! TD*
D10*
G04 #@! TO.C,U3*
X161036000Y-58928000D03*
D11*
X158496000Y-58928000D03*
X155956000Y-58928000D03*
G04 #@! TD*
D21*
G04 #@! TO.C,M1*
X130349000Y-77707000D03*
X130349000Y-59707000D03*
G04 #@! TD*
G04 #@! TO.C,M2*
X186770000Y-59707000D03*
X186770000Y-77707000D03*
G04 #@! TD*
G04 #@! TO.C,M3*
X165309500Y-143827500D03*
X151809500Y-143827500D03*
G04 #@! TD*
D22*
G04 #@! TO.C,BZ1*
X158496000Y-70826000D03*
X158446000Y-65826000D03*
G04 #@! TD*
D23*
G04 #@! TO.C,D4*
X204554000Y-101854000D03*
X202354000Y-101854000D03*
G04 #@! TD*
G04 #@! TO.C,D5*
X112565000Y-102743000D03*
X114765000Y-102743000D03*
G04 #@! TD*
D15*
G04 #@! TO.C,R8*
X204470000Y-98298000D03*
D16*
X201930000Y-98298000D03*
G04 #@! TD*
G04 #@! TO.C,R9*
X112268000Y-98806000D03*
D15*
X114808000Y-98806000D03*
G04 #@! TD*
D16*
G04 #@! TO.C,R10*
X157226000Y-62230000D03*
D15*
X159766000Y-62230000D03*
G04 #@! TD*
G04 #@! TO.C,R11*
X112903000Y-86614000D03*
D16*
X112903000Y-89154000D03*
G04 #@! TD*
D24*
G04 #@! TO.C,SW1*
X116586000Y-87884000D03*
D25*
X119126000Y-92964000D03*
D24*
X122936000Y-90424000D03*
D26*
X114046000Y-92964000D03*
X124206000Y-92964000D03*
G04 #@! TD*
D11*
G04 #@! TO.C,U4*
X180594000Y-58928000D03*
X178054000Y-58928000D03*
X175514000Y-58928000D03*
X172974000Y-58928000D03*
X170434000Y-58928000D03*
D10*
X167894000Y-58928000D03*
G04 #@! TD*
G04 #@! TO.C,U5*
X136652000Y-58928000D03*
D11*
X139192000Y-58928000D03*
X141732000Y-58928000D03*
X144272000Y-58928000D03*
X146812000Y-58928000D03*
X149352000Y-58928000D03*
G04 #@! TD*
D10*
G04 #@! TO.C,GND*
X132588000Y-90678000D03*
G04 #@! TD*
G04 #@! TO.C,SCL*
X157988000Y-100203000D03*
G04 #@! TD*
G04 #@! TO.C,SDA*
X155575000Y-100203000D03*
G04 #@! TD*
G04 #@! TO.C,BAT*
X132588000Y-88138000D03*
G04 #@! TD*
M02*
