G04 #@! TF.GenerationSoftware,KiCad,Pcbnew,(5.0.0-3-g5ebb6b6)*
G04 #@! TF.CreationDate,2020-04-01T02:53:29-07:00*
G04 #@! TF.ProjectId,mouse_v2,6D6F7573655F76322E6B696361645F70,rev?*
G04 #@! TF.SameCoordinates,Original*
G04 #@! TF.FileFunction,Legend,Top*
G04 #@! TF.FilePolarity,Positive*
%FSLAX46Y46*%
G04 Gerber Fmt 4.6, Leading zero omitted, Abs format (unit mm)*
G04 Created by KiCad (PCBNEW (5.0.0-3-g5ebb6b6)) date Wednesday, April 01, 2020 at 02:53:29 AM*
%MOMM*%
%LPD*%
G01*
G04 APERTURE LIST*
%ADD10C,0.100000*%
%ADD11C,0.120000*%
%ADD12C,0.150000*%
%ADD13C,0.152400*%
G04 APERTURE END LIST*
D10*
X177302468Y-68691712D02*
X177302468Y-67929807D01*
X176999947Y-71839128D02*
X177761852Y-71839128D01*
X177380900Y-72220080D02*
X177380900Y-71458176D01*
X177157451Y-76139960D02*
X177086022Y-76104245D01*
X176978880Y-76104245D01*
X176871737Y-76139960D01*
X176800308Y-76211388D01*
X176764594Y-76282817D01*
X176728880Y-76425674D01*
X176728880Y-76532817D01*
X176764594Y-76675674D01*
X176800308Y-76747102D01*
X176871737Y-76818531D01*
X176978880Y-76854245D01*
X177050308Y-76854245D01*
X177157451Y-76818531D01*
X177193165Y-76782817D01*
X177193165Y-76532817D01*
X177050308Y-76532817D01*
X177514594Y-76854245D02*
X177514594Y-76104245D01*
X177943165Y-76854245D01*
X177943165Y-76104245D01*
X178300308Y-76854245D02*
X178300308Y-76104245D01*
X178478880Y-76104245D01*
X178586022Y-76139960D01*
X178657451Y-76211388D01*
X178693165Y-76282817D01*
X178728880Y-76425674D01*
X178728880Y-76532817D01*
X178693165Y-76675674D01*
X178657451Y-76747102D01*
X178586022Y-76818531D01*
X178478880Y-76854245D01*
X178300308Y-76854245D01*
X142240071Y-75987560D02*
X142168642Y-75951845D01*
X142061500Y-75951845D01*
X141954357Y-75987560D01*
X141882928Y-76058988D01*
X141847214Y-76130417D01*
X141811500Y-76273274D01*
X141811500Y-76380417D01*
X141847214Y-76523274D01*
X141882928Y-76594702D01*
X141954357Y-76666131D01*
X142061500Y-76701845D01*
X142132928Y-76701845D01*
X142240071Y-76666131D01*
X142275785Y-76630417D01*
X142275785Y-76380417D01*
X142132928Y-76380417D01*
X142597214Y-76701845D02*
X142597214Y-75951845D01*
X143025785Y-76701845D01*
X143025785Y-75951845D01*
X143382928Y-76701845D02*
X143382928Y-75951845D01*
X143561500Y-75951845D01*
X143668642Y-75987560D01*
X143740071Y-76058988D01*
X143775785Y-76130417D01*
X143811500Y-76273274D01*
X143811500Y-76380417D01*
X143775785Y-76523274D01*
X143740071Y-76594702D01*
X143668642Y-76666131D01*
X143561500Y-76701845D01*
X143382928Y-76701845D01*
X196367447Y-111196428D02*
X197129352Y-111196428D01*
X122707447Y-111145628D02*
X123469352Y-111145628D01*
X123088400Y-111526580D02*
X123088400Y-110764676D01*
X118821247Y-111120228D02*
X119583152Y-111120228D01*
X200355247Y-111247228D02*
X201117152Y-111247228D01*
X200736200Y-111628180D02*
X200736200Y-110866276D01*
X205435247Y-111247228D02*
X206197152Y-111247228D01*
X201498247Y-111247228D02*
X202260152Y-111247228D01*
X201879200Y-111628180D02*
X201879200Y-110866276D01*
X146908295Y-142718343D02*
X147248256Y-143400198D01*
X146737348Y-143229251D02*
X147419203Y-142889291D01*
X145104895Y-139340143D02*
X145444856Y-140021998D01*
X175026943Y-140174398D02*
X175366904Y-139492543D01*
X175537851Y-140003451D02*
X174855996Y-139663491D01*
X173325143Y-143654198D02*
X173665104Y-142972343D01*
X177058943Y-135653198D02*
X177398904Y-134971343D01*
X175509543Y-139132998D02*
X175849504Y-138451143D01*
X176020451Y-138962051D02*
X175338596Y-138622091D01*
X144622295Y-138247943D02*
X144962256Y-138929798D01*
X142717295Y-134971343D02*
X143057256Y-135653198D01*
X142546348Y-135482251D02*
X143228203Y-135142291D01*
X117551247Y-111120228D02*
X118313152Y-111120228D01*
X113741247Y-111120228D02*
X114503152Y-111120228D01*
X114122200Y-111501180D02*
X114122200Y-110739276D01*
D11*
G04 #@! TO.C,Q2*
X117650189Y-116954845D02*
G75*
G02X114530189Y-116954845I-1560000J0D01*
G01*
X114530189Y-113094845D02*
X114530189Y-116954845D01*
X117650189Y-113094845D02*
X117650189Y-116954845D01*
X114530189Y-113094845D02*
X117650189Y-113094845D01*
X118050189Y-113094845D02*
X118050189Y-114214845D01*
X118050189Y-114214845D02*
X117650189Y-114214845D01*
X117650189Y-114214845D02*
X117650189Y-113094845D01*
X117650189Y-113094845D02*
X118050189Y-113094845D01*
X114820189Y-110424845D02*
X114820189Y-113094845D01*
X114820189Y-113094845D02*
X114820189Y-113094845D01*
X114820189Y-113094845D02*
X114820189Y-110424845D01*
X114820189Y-110424845D02*
X114820189Y-110424845D01*
X117360189Y-110424845D02*
X117360189Y-113094845D01*
X117360189Y-113094845D02*
X117360189Y-113094845D01*
X117360189Y-113094845D02*
X117360189Y-110424845D01*
X117360189Y-110424845D02*
X117360189Y-110424845D01*
G04 #@! TO.C,D0*
X200164700Y-110477800D02*
X200164700Y-110477800D01*
X200164700Y-113147800D02*
X200164700Y-110477800D01*
X200164700Y-113147800D02*
X200164700Y-113147800D01*
X200164700Y-110477800D02*
X200164700Y-113147800D01*
X197624700Y-110477800D02*
X197624700Y-110477800D01*
X197624700Y-113147800D02*
X197624700Y-110477800D01*
X197624700Y-113147800D02*
X197624700Y-113147800D01*
X197624700Y-110477800D02*
X197624700Y-113147800D01*
X200454700Y-113147800D02*
X200854700Y-113147800D01*
X200454700Y-114267800D02*
X200454700Y-113147800D01*
X200854700Y-114267800D02*
X200454700Y-114267800D01*
X200854700Y-113147800D02*
X200854700Y-114267800D01*
X197334700Y-113147800D02*
X200454700Y-113147800D01*
X200454700Y-113147800D02*
X200454700Y-117007800D01*
X197334700Y-113147800D02*
X197334700Y-117007800D01*
X200454700Y-117007800D02*
G75*
G02X197334700Y-117007800I-1560000J0D01*
G01*
G04 #@! TO.C,Q1*
X175823172Y-135267159D02*
X175823172Y-135267159D01*
X178212647Y-136458509D02*
X175823172Y-135267159D01*
X178212647Y-136458509D02*
X178212647Y-136458509D01*
X175823172Y-135267159D02*
X178212647Y-136458509D01*
X174689829Y-137540294D02*
X174689829Y-137540294D01*
X177079304Y-138731642D02*
X174689829Y-137540294D01*
X177079304Y-138731642D02*
X177079304Y-138731642D01*
X174689829Y-137540294D02*
X177079304Y-138731642D01*
X178342044Y-136198978D02*
X178520523Y-135841004D01*
X179344370Y-136698719D02*
X178342044Y-136198978D01*
X179522849Y-136340745D02*
X179344370Y-136698719D01*
X178520523Y-135841004D02*
X179522849Y-136340745D01*
X176949906Y-138991173D02*
X178342044Y-136198978D01*
X178342044Y-136198978D02*
X181796490Y-137921301D01*
X176949906Y-138991173D02*
X180404353Y-140713496D01*
X181796491Y-137921302D02*
G75*
G02X180404353Y-140713496I-696069J-1396097D01*
G01*
G04 #@! TO.C,BT1*
X187179260Y-70175120D02*
X184519260Y-70175120D01*
X187179260Y-70175120D02*
X187179260Y-67575120D01*
X187179260Y-67575120D02*
X184519260Y-67575120D01*
X184519260Y-70175120D02*
X184519260Y-67575120D01*
X184519260Y-72775120D02*
X184519260Y-71445120D01*
X185849260Y-72775120D02*
X184519260Y-72775120D01*
G04 #@! TO.C,D1*
X179573991Y-142429802D02*
G75*
G02X178181853Y-145221996I-696069J-1396097D01*
G01*
X174727406Y-143499673D02*
X178181853Y-145221996D01*
X176119544Y-140707478D02*
X179573990Y-142429801D01*
X174727406Y-143499673D02*
X176119544Y-140707478D01*
X176298023Y-140349504D02*
X177300349Y-140849245D01*
X177300349Y-140849245D02*
X177121870Y-141207219D01*
X177121870Y-141207219D02*
X176119544Y-140707478D01*
X176119544Y-140707478D02*
X176298023Y-140349504D01*
X172467329Y-142048794D02*
X174856804Y-143240142D01*
X174856804Y-143240142D02*
X174856804Y-143240142D01*
X174856804Y-143240142D02*
X172467329Y-142048794D01*
X172467329Y-142048794D02*
X172467329Y-142048794D01*
X173600672Y-139775659D02*
X175990147Y-140967009D01*
X175990147Y-140967009D02*
X175990147Y-140967009D01*
X175990147Y-140967009D02*
X173600672Y-139775659D01*
X173600672Y-139775659D02*
X173600672Y-139775659D01*
G04 #@! TO.C,D2*
X122377200Y-110414300D02*
X122377200Y-110414300D01*
X122377200Y-113084300D02*
X122377200Y-110414300D01*
X122377200Y-113084300D02*
X122377200Y-113084300D01*
X122377200Y-110414300D02*
X122377200Y-113084300D01*
X119837200Y-110414300D02*
X119837200Y-110414300D01*
X119837200Y-113084300D02*
X119837200Y-110414300D01*
X119837200Y-113084300D02*
X119837200Y-113084300D01*
X119837200Y-110414300D02*
X119837200Y-113084300D01*
X122667200Y-113084300D02*
X123067200Y-113084300D01*
X122667200Y-114204300D02*
X122667200Y-113084300D01*
X123067200Y-114204300D02*
X122667200Y-114204300D01*
X123067200Y-113084300D02*
X123067200Y-114204300D01*
X119547200Y-113084300D02*
X122667200Y-113084300D01*
X122667200Y-113084300D02*
X122667200Y-116944300D01*
X119547200Y-113084300D02*
X119547200Y-116944300D01*
X122667200Y-116944300D02*
G75*
G02X119547200Y-116944300I-1560000J0D01*
G01*
G04 #@! TO.C,D3*
X141899290Y-145272630D02*
G75*
G02X140507152Y-142480434I-696069J1396098D01*
G01*
X143961599Y-140758111D02*
X140507152Y-142480434D01*
X145353736Y-143550306D02*
X141899289Y-145272630D01*
X143961599Y-140758111D02*
X145353736Y-143550306D01*
X145532215Y-143908280D02*
X144529889Y-144408021D01*
X144529889Y-144408021D02*
X144351409Y-144050048D01*
X144351409Y-144050048D02*
X145353736Y-143550306D01*
X145353736Y-143550306D02*
X145532215Y-143908280D01*
X146480471Y-139826294D02*
X144090996Y-141017642D01*
X144090996Y-141017642D02*
X144090996Y-141017642D01*
X144090996Y-141017642D02*
X146480471Y-139826294D01*
X146480471Y-139826294D02*
X146480471Y-139826294D01*
X147613813Y-142099427D02*
X145224339Y-143290775D01*
X145224339Y-143290775D02*
X145224339Y-143290775D01*
X145224339Y-143290775D02*
X147613813Y-142099427D01*
X147613813Y-142099427D02*
X147613813Y-142099427D01*
G04 #@! TO.C,Q0*
X205467877Y-117023445D02*
G75*
G02X202347877Y-117023445I-1560000J0D01*
G01*
X202347877Y-113163445D02*
X202347877Y-117023445D01*
X205467877Y-113163445D02*
X205467877Y-117023445D01*
X202347877Y-113163445D02*
X205467877Y-113163445D01*
X205867877Y-113163445D02*
X205867877Y-114283445D01*
X205867877Y-114283445D02*
X205467877Y-114283445D01*
X205467877Y-114283445D02*
X205467877Y-113163445D01*
X205467877Y-113163445D02*
X205867877Y-113163445D01*
X202637877Y-110493445D02*
X202637877Y-113163445D01*
X202637877Y-113163445D02*
X202637877Y-113163445D01*
X202637877Y-113163445D02*
X202637877Y-110493445D01*
X202637877Y-110493445D02*
X202637877Y-110493445D01*
X205177877Y-110493445D02*
X205177877Y-113163445D01*
X205177877Y-113163445D02*
X205177877Y-113163445D01*
X205177877Y-113163445D02*
X205177877Y-110493445D01*
X205177877Y-110493445D02*
X205177877Y-110493445D01*
G04 #@! TO.C,Q3*
X145337471Y-137603794D02*
X145337471Y-137603794D01*
X142947997Y-138795142D02*
X145337471Y-137603794D01*
X142947997Y-138795142D02*
X142947997Y-138795142D01*
X145337471Y-137603794D02*
X142947997Y-138795142D01*
X144204129Y-135330661D02*
X144204129Y-135330661D01*
X141814654Y-136522009D02*
X144204129Y-135330661D01*
X141814654Y-136522009D02*
X141814654Y-136522009D01*
X144204129Y-135330661D02*
X141814654Y-136522009D01*
X143077393Y-139054673D02*
X143255873Y-139412647D01*
X142075067Y-139554415D02*
X143077393Y-139054673D01*
X142253547Y-139912388D02*
X142075067Y-139554415D01*
X143255873Y-139412647D02*
X142253547Y-139912388D01*
X141685258Y-136262477D02*
X143077393Y-139054673D01*
X143077393Y-139054673D02*
X139622947Y-140776997D01*
X141685258Y-136262477D02*
X138230809Y-137984802D01*
X139622949Y-140776996D02*
G75*
G02X138230809Y-137984802I-696070J1396097D01*
G01*
D12*
G04 #@! TO.C,U1*
X178054000Y-111048800D02*
X179324000Y-111048800D01*
X179324000Y-111048800D02*
X179324000Y-118668800D01*
X179324000Y-118668800D02*
X178054000Y-118668800D01*
X166624000Y-109778800D02*
X162814000Y-109778800D01*
X162814000Y-109778800D02*
X162814000Y-112318800D01*
X162814000Y-112318800D02*
X166624000Y-112318800D01*
X166624000Y-112318800D02*
X166624000Y-109778800D01*
X172974000Y-111048800D02*
X172974000Y-118668800D01*
X172974000Y-118668800D02*
X178054000Y-118668800D01*
X172974000Y-111048800D02*
X178054000Y-111048800D01*
X171704000Y-109778800D02*
X169164000Y-109778800D01*
X169164000Y-109778800D02*
X169164000Y-112318800D01*
X169164000Y-112318800D02*
X171704000Y-112318800D01*
X171704000Y-112318800D02*
X171704000Y-109778800D01*
X145034000Y-117398800D02*
X145034000Y-112318800D01*
X145034000Y-112318800D02*
X147574000Y-112318800D01*
X147574000Y-112318800D02*
X147574000Y-117398800D01*
X147574000Y-117398800D02*
X145034000Y-117398800D01*
X151384000Y-109778800D02*
X151384000Y-119938800D01*
X160274000Y-119938800D02*
X160274000Y-109778800D01*
X151384000Y-119938800D02*
X160274000Y-119938800D01*
X151384000Y-109778800D02*
X160274000Y-109778800D01*
X178054000Y-123748800D02*
X142494000Y-123748800D01*
X142494000Y-123748800D02*
X142494000Y-105968800D01*
X142494000Y-105968800D02*
X178054000Y-105968800D01*
X178054000Y-105968800D02*
X178054000Y-123748800D01*
D13*
G04 #@! TO.C,U2*
X158843980Y-73324720D02*
X158843980Y-67482720D01*
X139133580Y-67482720D02*
X139133580Y-70098920D01*
X139133580Y-70098920D02*
X139133580Y-70708520D01*
X139133580Y-70708520D02*
X139133580Y-72892920D01*
D10*
X139133580Y-70098920D02*
G75*
G02X139133580Y-70708520I0J-304800D01*
G01*
D12*
G04 #@! TO.C,M1*
X127623000Y-94774400D02*
X139123000Y-94774400D01*
X127623000Y-79774400D02*
X139123000Y-79774400D01*
X139123000Y-87274400D02*
X139123000Y-79774400D01*
X139123000Y-87274400D02*
X139123000Y-94774400D01*
X127623000Y-100574400D02*
X136123000Y-100574400D01*
X127623000Y-73974400D02*
X136123000Y-73974400D01*
X127623000Y-87274400D02*
X127623000Y-73974400D01*
X127623000Y-87274400D02*
X127623000Y-100574400D01*
X136123000Y-81274400D02*
X136123000Y-73974400D01*
X136123000Y-93274400D02*
X136123000Y-100574400D01*
X112623000Y-73274400D02*
X112623000Y-101274400D01*
X126423000Y-101274400D02*
X112623000Y-101274400D01*
X126423000Y-73274400D02*
X112623000Y-73274400D01*
X126423000Y-87274400D02*
X126423000Y-101274400D01*
X126423000Y-87274400D02*
X126423000Y-73274400D01*
X117623000Y-85774400D02*
X117623000Y-88774400D01*
X127623000Y-88774400D02*
X117623000Y-88774400D01*
X127623000Y-85774400D02*
X117623000Y-85774400D01*
X127623000Y-93274400D02*
X127623000Y-88774400D01*
X127623000Y-81274400D02*
X127623000Y-85774400D01*
X158623000Y-93274400D02*
X127623000Y-93274400D01*
X158623000Y-81274400D02*
X127623000Y-81274400D01*
X158623000Y-87274400D02*
X158623000Y-81274400D01*
X158623000Y-87274400D02*
X158623000Y-93274400D01*
G04 #@! TO.C,M2*
X192544000Y-79774400D02*
X181044000Y-79774400D01*
X192544000Y-94774400D02*
X181044000Y-94774400D01*
X181044000Y-87274400D02*
X181044000Y-94774400D01*
X181044000Y-87274400D02*
X181044000Y-79774400D01*
X192544000Y-73974400D02*
X184044000Y-73974400D01*
X192544000Y-100574400D02*
X184044000Y-100574400D01*
X192544000Y-87274400D02*
X192544000Y-100574400D01*
X192544000Y-87274400D02*
X192544000Y-73974400D01*
X184044000Y-93274400D02*
X184044000Y-100574400D01*
X184044000Y-81274400D02*
X184044000Y-73974400D01*
X207544000Y-101274400D02*
X207544000Y-73274400D01*
X193744000Y-73274400D02*
X207544000Y-73274400D01*
X193744000Y-101274400D02*
X207544000Y-101274400D01*
X193744000Y-87274400D02*
X193744000Y-73274400D01*
X193744000Y-87274400D02*
X193744000Y-101274400D01*
X202544000Y-88774400D02*
X202544000Y-85774400D01*
X192544000Y-85774400D02*
X202544000Y-85774400D01*
X192544000Y-88774400D02*
X202544000Y-88774400D01*
X192544000Y-81274400D02*
X192544000Y-85774400D01*
X192544000Y-93274400D02*
X192544000Y-88774400D01*
X161544000Y-81274400D02*
X192544000Y-81274400D01*
X161544000Y-93274400D02*
X192544000Y-93274400D01*
X161544000Y-87274400D02*
X161544000Y-93274400D01*
X161544000Y-87274400D02*
X161544000Y-81274400D01*
G04 #@! TO.C,BZ1*
X143549616Y-60452000D02*
G75*
G03X143549616Y-60452000I-4535416J0D01*
G01*
D11*
G04 #@! TO.C,T0*
X190005182Y-106827802D02*
G75*
G03X191843660Y-111266280I1838478J-1838478D01*
G01*
X193682138Y-106827802D02*
G75*
G02X191843660Y-111266280I-1838478J-1838478D01*
G01*
X193643660Y-106816280D02*
X190043660Y-106816280D01*
G04 #@! TO.C,T1*
X168304620Y-130047120D02*
X164704620Y-130047120D01*
X168343098Y-130058642D02*
G75*
G02X166504620Y-134497120I-1838478J-1838478D01*
G01*
X164666142Y-130058642D02*
G75*
G03X166504620Y-134497120I1838478J-1838478D01*
G01*
G04 #@! TO.C,T2*
X129005740Y-106346380D02*
X125405740Y-106346380D01*
X129044218Y-106357902D02*
G75*
G02X127205740Y-110796380I-1838478J-1838478D01*
G01*
X125367262Y-106357902D02*
G75*
G03X127205740Y-110796380I1838478J-1838478D01*
G01*
G04 #@! TO.C,T3*
X151475922Y-130071342D02*
G75*
G03X153314400Y-134509820I1838478J-1838478D01*
G01*
X155152878Y-130071342D02*
G75*
G02X153314400Y-134509820I-1838478J-1838478D01*
G01*
X155114400Y-130059820D02*
X151514400Y-130059820D01*
G04 #@! TO.C,J2*
X162470140Y-126733300D02*
X162470140Y-128063300D01*
X162470140Y-128063300D02*
X161140140Y-128063300D01*
X159870140Y-128063300D02*
X157270140Y-128063300D01*
X157270140Y-125403300D02*
X157270140Y-128063300D01*
X159870140Y-125403300D02*
X157270140Y-125403300D01*
X159870140Y-125403300D02*
X159870140Y-128063300D01*
G04 #@! TO.C,J4*
X181014060Y-70225920D02*
X183674060Y-70225920D01*
X181014060Y-70225920D02*
X181014060Y-72825920D01*
X181014060Y-72825920D02*
X183674060Y-72825920D01*
X183674060Y-70225920D02*
X183674060Y-72825920D01*
X183674060Y-67625920D02*
X183674060Y-68955920D01*
X182344060Y-67625920D02*
X183674060Y-67625920D01*
G04 #@! TO.C,D8*
X151402600Y-62080160D02*
X151402600Y-54780160D01*
X156902600Y-62080160D02*
X156902600Y-54780160D01*
X156902600Y-54780160D02*
X155752600Y-54780160D01*
G04 #@! TO.C,D9*
X150481480Y-54825880D02*
X149331480Y-54825880D01*
X150481480Y-62125880D02*
X150481480Y-54825880D01*
X144981480Y-62125880D02*
X144981480Y-54825880D01*
G04 #@! TO.C,U4*
X178715240Y-78038960D02*
X178715240Y-79098960D01*
X178715240Y-79098960D02*
X177655240Y-79098960D01*
X176655240Y-79098960D02*
X166595240Y-79098960D01*
X166595240Y-76978960D02*
X166595240Y-79098960D01*
X176655240Y-76978960D02*
X166595240Y-76978960D01*
X176655240Y-76978960D02*
X176655240Y-79098960D01*
G04 #@! TO.C,U5*
X143595600Y-78961800D02*
X143595600Y-76841800D01*
X143595600Y-78961800D02*
X153655600Y-78961800D01*
X153655600Y-78961800D02*
X153655600Y-76841800D01*
X143595600Y-76841800D02*
X153655600Y-76841800D01*
X141535600Y-76841800D02*
X142595600Y-76841800D01*
X141535600Y-77901800D02*
X141535600Y-76841800D01*
G04 #@! TO.C,C5*
X153479416Y-64006140D02*
X154683544Y-64006140D01*
X153479416Y-62186140D02*
X154683544Y-62186140D01*
G04 #@! TO.C,C6*
X147172596Y-64112820D02*
X148376724Y-64112820D01*
X147172596Y-62292820D02*
X148376724Y-62292820D01*
G04 #@! TO.C,R18*
X158890380Y-132031824D02*
X158890380Y-130827696D01*
X157070380Y-132031824D02*
X157070380Y-130827696D01*
G04 #@! TO.C,R21*
X160913400Y-131970864D02*
X160913400Y-130766736D01*
X162733400Y-131970864D02*
X162733400Y-130766736D01*
G04 #@! TO.C,C9*
X176413840Y-70655264D02*
X176413840Y-69451136D01*
X174593840Y-70655264D02*
X174593840Y-69451136D01*
G04 #@! TO.C,U3*
X163036900Y-67294420D02*
X163036900Y-68794420D01*
X163036900Y-68794420D02*
X164846900Y-68794420D01*
X164846900Y-68794420D02*
X164846900Y-73919420D01*
X173436900Y-67294420D02*
X173436900Y-68794420D01*
X173436900Y-68794420D02*
X171626900Y-68794420D01*
X171626900Y-68794420D02*
X171626900Y-69894420D01*
G04 #@! TO.C,R17*
X123657444Y-58334320D02*
X122453316Y-58334320D01*
X123657444Y-56514320D02*
X122453316Y-56514320D01*
G04 #@! TO.C,R19*
X130370664Y-56417800D02*
X129166536Y-56417800D01*
X130370664Y-58237800D02*
X129166536Y-58237800D01*
D12*
G04 #@! TO.C,SW1*
X119632520Y-65488820D02*
X119632520Y-62088820D01*
X119632520Y-62088820D02*
X120482520Y-62088820D01*
X119632520Y-65488820D02*
X119632520Y-68888820D01*
X119632520Y-68888820D02*
X120432520Y-68888820D01*
X121632520Y-68888820D02*
X124432520Y-68888820D01*
X126432520Y-65488820D02*
X126432520Y-62088820D01*
X126432520Y-62088820D02*
X125632520Y-62088820D01*
X126432520Y-65488820D02*
X126432520Y-68888820D01*
X126432520Y-68888820D02*
X125632520Y-68888820D01*
X121632520Y-62088820D02*
X124432520Y-62088820D01*
G04 #@! TO.C,SW2*
X128495600Y-62106600D02*
X131295600Y-62106600D01*
X133295600Y-68906600D02*
X132495600Y-68906600D01*
X133295600Y-65506600D02*
X133295600Y-68906600D01*
X133295600Y-62106600D02*
X132495600Y-62106600D01*
X133295600Y-65506600D02*
X133295600Y-62106600D01*
X128495600Y-68906600D02*
X131295600Y-68906600D01*
X126495600Y-68906600D02*
X127295600Y-68906600D01*
X126495600Y-65506600D02*
X126495600Y-68906600D01*
X126495600Y-62106600D02*
X127345600Y-62106600D01*
X126495600Y-65506600D02*
X126495600Y-62106600D01*
D11*
G04 #@! TO.C,R1*
X186967540Y-115171304D02*
X186967540Y-113967176D01*
X185147540Y-115171304D02*
X185147540Y-113967176D01*
G04 #@! TO.C,R2*
X174050280Y-130703404D02*
X174050280Y-129499276D01*
X175870280Y-130703404D02*
X175870280Y-129499276D01*
G04 #@! TO.C,R3*
X130039700Y-114045916D02*
X130039700Y-115250044D01*
X131859700Y-114045916D02*
X131859700Y-115250044D01*
G04 #@! TO.C,R4*
X144327200Y-130838024D02*
X144327200Y-129633896D01*
X146147200Y-130838024D02*
X146147200Y-129633896D01*
G04 #@! TO.C,R5*
X193778460Y-115186544D02*
X193778460Y-113982416D01*
X195598460Y-115186544D02*
X195598460Y-113982416D01*
G04 #@! TO.C,R6*
X162803160Y-137858584D02*
X162803160Y-136654456D01*
X164623160Y-137858584D02*
X164623160Y-136654456D01*
G04 #@! TO.C,R7*
X125667180Y-115321164D02*
X125667180Y-114117036D01*
X123847180Y-115321164D02*
X123847180Y-114117036D01*
G04 #@! TO.C,R8*
X153744340Y-137894144D02*
X153744340Y-136690016D01*
X151924340Y-137894144D02*
X151924340Y-136690016D01*
G04 #@! TO.C,R9*
X187936460Y-113977336D02*
X187936460Y-115181464D01*
X189756460Y-113977336D02*
X189756460Y-115181464D01*
G04 #@! TO.C,R10*
X170286000Y-134688664D02*
X170286000Y-133484536D01*
X172106000Y-134688664D02*
X172106000Y-133484536D01*
G04 #@! TO.C,R11*
X126910420Y-114045916D02*
X126910420Y-115250044D01*
X128730420Y-114045916D02*
X128730420Y-115250044D01*
G04 #@! TO.C,R12*
X147921300Y-134650564D02*
X147921300Y-133446436D01*
X149741300Y-134650564D02*
X149741300Y-133446436D01*
G04 #@! TO.C,R13*
X190788880Y-115204324D02*
X190788880Y-114000196D01*
X192608880Y-115204324D02*
X192608880Y-114000196D01*
G04 #@! TO.C,R14*
X168387440Y-137894144D02*
X168387440Y-136690016D01*
X166567440Y-137894144D02*
X166567440Y-136690016D01*
G04 #@! TO.C,R15*
X132874340Y-115288144D02*
X132874340Y-114084016D01*
X134694340Y-115288144D02*
X134694340Y-114084016D01*
G04 #@! TO.C,R16*
X157300340Y-137927164D02*
X157300340Y-136723036D01*
X155480340Y-137927164D02*
X155480340Y-136723036D01*
D12*
G04 #@! TO.C,J1*
X203602860Y-56992960D02*
X203602860Y-54492960D01*
X193952860Y-56992960D02*
X193952860Y-54492960D01*
X194977860Y-59242960D02*
X193952860Y-59242960D01*
X194977860Y-56992960D02*
X194977860Y-59242960D01*
X202577860Y-59242960D02*
X203602860Y-59242960D01*
X202577860Y-56992960D02*
X202577860Y-59242960D01*
X193952860Y-61542960D02*
X203602860Y-61542960D01*
X193952860Y-57392960D02*
X193952860Y-57017960D01*
X203602860Y-57392960D02*
X203602860Y-56992960D01*
X203602860Y-63117960D02*
X203602860Y-58967960D01*
X193952860Y-63042960D02*
X193952860Y-58917960D01*
X203602860Y-64942960D02*
X203602860Y-64467960D01*
X198777860Y-64942960D02*
X203602860Y-64942960D01*
X193952860Y-64942960D02*
X193952860Y-64467960D01*
X198777860Y-64942960D02*
X193952860Y-64942960D01*
X193952860Y-54492960D02*
X203577860Y-54492960D01*
X203602860Y-56992960D02*
X193952860Y-56992960D01*
D11*
G04 #@! TO.C,J3*
X176783040Y-108428480D02*
X174123040Y-108428480D01*
X176783040Y-116108480D02*
X176783040Y-108428480D01*
X174123040Y-116108480D02*
X174123040Y-108428480D01*
X176783040Y-116108480D02*
X174123040Y-116108480D01*
X176783040Y-117378480D02*
X176783040Y-118708480D01*
X176783040Y-118708480D02*
X175453040Y-118708480D01*
D12*
G04 #@! TO.C,S1*
X176021920Y-60629800D02*
X176021920Y-65704800D01*
X176021920Y-65704800D02*
X192521920Y-65704800D01*
X192521920Y-65704800D02*
X192521920Y-55554800D01*
X192496920Y-55554800D02*
X176021920Y-55554800D01*
X176021920Y-55554800D02*
X176021920Y-60629800D01*
G04 #@! TO.C,Q2*
X117049561Y-120130819D02*
X116954323Y-120083200D01*
X116859085Y-119987961D01*
X116716228Y-119845104D01*
X116620990Y-119797485D01*
X116525752Y-119797485D01*
X116573371Y-120035580D02*
X116478133Y-119987961D01*
X116382895Y-119892723D01*
X116335276Y-119702247D01*
X116335276Y-119368914D01*
X116382895Y-119178438D01*
X116478133Y-119083200D01*
X116573371Y-119035580D01*
X116763847Y-119035580D01*
X116859085Y-119083200D01*
X116954323Y-119178438D01*
X117001942Y-119368914D01*
X117001942Y-119702247D01*
X116954323Y-119892723D01*
X116859085Y-119987961D01*
X116763847Y-120035580D01*
X116573371Y-120035580D01*
X117382895Y-119130819D02*
X117430514Y-119083200D01*
X117525752Y-119035580D01*
X117763847Y-119035580D01*
X117859085Y-119083200D01*
X117906704Y-119130819D01*
X117954323Y-119226057D01*
X117954323Y-119321295D01*
X117906704Y-119464152D01*
X117335276Y-120035580D01*
X117954323Y-120035580D01*
G04 #@! TO.C,D0*
X196873904Y-120187980D02*
X196873904Y-119187980D01*
X197112000Y-119187980D01*
X197254857Y-119235600D01*
X197350095Y-119330838D01*
X197397714Y-119426076D01*
X197445333Y-119616552D01*
X197445333Y-119759409D01*
X197397714Y-119949885D01*
X197350095Y-120045123D01*
X197254857Y-120140361D01*
X197112000Y-120187980D01*
X196873904Y-120187980D01*
X198064380Y-119187980D02*
X198159619Y-119187980D01*
X198254857Y-119235600D01*
X198302476Y-119283219D01*
X198350095Y-119378457D01*
X198397714Y-119568933D01*
X198397714Y-119807028D01*
X198350095Y-119997504D01*
X198302476Y-120092742D01*
X198254857Y-120140361D01*
X198159619Y-120187980D01*
X198064380Y-120187980D01*
X197969142Y-120140361D01*
X197921523Y-120092742D01*
X197873904Y-119997504D01*
X197826285Y-119807028D01*
X197826285Y-119568933D01*
X197873904Y-119378457D01*
X197921523Y-119283219D01*
X197969142Y-119235600D01*
X198064380Y-119187980D01*
G04 #@! TO.C,Q1*
X179586241Y-135562888D02*
X179522257Y-135477777D01*
X179479520Y-135350050D01*
X179415415Y-135158459D01*
X179351431Y-135073348D01*
X179266199Y-135030853D01*
X179202577Y-135265181D02*
X179138593Y-135180070D01*
X179095856Y-135052343D01*
X179138230Y-134860632D01*
X179286963Y-134562320D01*
X179414569Y-134413104D01*
X179542295Y-134370367D01*
X179648775Y-134370246D01*
X179819239Y-134455236D01*
X179883223Y-134540347D01*
X179925960Y-134668074D01*
X179883586Y-134859785D01*
X179734853Y-135158097D01*
X179607247Y-135307313D01*
X179479520Y-135350050D01*
X179373041Y-135350171D01*
X179202577Y-135265181D01*
X180438439Y-135881359D02*
X179927048Y-135626388D01*
X180182743Y-135753873D02*
X180628941Y-134858939D01*
X180479967Y-134944292D01*
X180352240Y-134987029D01*
X180245760Y-134987150D01*
G04 #@! TO.C,BT1*
X188502705Y-70050351D02*
X188645562Y-70097970D01*
X188693181Y-70145589D01*
X188740800Y-70240827D01*
X188740800Y-70383684D01*
X188693181Y-70478922D01*
X188645562Y-70526541D01*
X188550324Y-70574160D01*
X188169372Y-70574160D01*
X188169372Y-69574160D01*
X188502705Y-69574160D01*
X188597943Y-69621780D01*
X188645562Y-69669399D01*
X188693181Y-69764637D01*
X188693181Y-69859875D01*
X188645562Y-69955113D01*
X188597943Y-70002732D01*
X188502705Y-70050351D01*
X188169372Y-70050351D01*
X189026515Y-69574160D02*
X189597943Y-69574160D01*
X189312229Y-70574160D02*
X189312229Y-69574160D01*
X190455086Y-70574160D02*
X189883658Y-70574160D01*
X190169372Y-70574160D02*
X190169372Y-69574160D01*
X190074134Y-69717018D01*
X189978896Y-69812256D01*
X189883658Y-69859875D01*
G04 #@! TO.C,D1*
X170128514Y-140054398D02*
X169233580Y-139608200D01*
X169339817Y-139395120D01*
X169446176Y-139288520D01*
X169573903Y-139245783D01*
X169680382Y-139245662D01*
X169872093Y-139288036D01*
X169999941Y-139351779D01*
X170149157Y-139479385D01*
X170213142Y-139564496D01*
X170255878Y-139692223D01*
X170234752Y-139841318D01*
X170128514Y-140054398D01*
X170808435Y-138690688D02*
X170553465Y-139202079D01*
X170680950Y-138946384D02*
X169786015Y-138500186D01*
X169871368Y-138649160D01*
X169914105Y-138776887D01*
X169914226Y-138883367D01*
G04 #@! TO.C,D2*
X121791504Y-120035580D02*
X121791504Y-119035580D01*
X122029600Y-119035580D01*
X122172457Y-119083200D01*
X122267695Y-119178438D01*
X122315314Y-119273676D01*
X122362933Y-119464152D01*
X122362933Y-119607009D01*
X122315314Y-119797485D01*
X122267695Y-119892723D01*
X122172457Y-119987961D01*
X122029600Y-120035580D01*
X121791504Y-120035580D01*
X122743885Y-119130819D02*
X122791504Y-119083200D01*
X122886742Y-119035580D01*
X123124838Y-119035580D01*
X123220076Y-119083200D01*
X123267695Y-119130819D01*
X123315314Y-119226057D01*
X123315314Y-119321295D01*
X123267695Y-119464152D01*
X122696266Y-120035580D01*
X123315314Y-120035580D01*
G04 #@! TO.C,D3*
X149024212Y-139266704D02*
X149919146Y-138820506D01*
X150025384Y-139033586D01*
X150046510Y-139182681D01*
X150003774Y-139310408D01*
X149939789Y-139395519D01*
X149790573Y-139523125D01*
X149662725Y-139586868D01*
X149471014Y-139629242D01*
X149364535Y-139629121D01*
X149236808Y-139586384D01*
X149130449Y-139479784D01*
X149024212Y-139266704D01*
X150322849Y-139630209D02*
X150599067Y-140184216D01*
X150109407Y-140055884D01*
X150173149Y-140183732D01*
X150173028Y-140290212D01*
X150151660Y-140354075D01*
X150087676Y-140439186D01*
X149874596Y-140545424D01*
X149768117Y-140545303D01*
X149704253Y-140523934D01*
X149619142Y-140459950D01*
X149491657Y-140204254D01*
X149491778Y-140097775D01*
X149513146Y-140033912D01*
G04 #@! TO.C,Q0*
X202545961Y-120181619D02*
X202450723Y-120134000D01*
X202355485Y-120038761D01*
X202212628Y-119895904D01*
X202117390Y-119848285D01*
X202022152Y-119848285D01*
X202069771Y-120086380D02*
X201974533Y-120038761D01*
X201879295Y-119943523D01*
X201831676Y-119753047D01*
X201831676Y-119419714D01*
X201879295Y-119229238D01*
X201974533Y-119134000D01*
X202069771Y-119086380D01*
X202260247Y-119086380D01*
X202355485Y-119134000D01*
X202450723Y-119229238D01*
X202498342Y-119419714D01*
X202498342Y-119753047D01*
X202450723Y-119943523D01*
X202355485Y-120038761D01*
X202260247Y-120086380D01*
X202069771Y-120086380D01*
X203117390Y-119086380D02*
X203212628Y-119086380D01*
X203307866Y-119134000D01*
X203355485Y-119181619D01*
X203403104Y-119276857D01*
X203450723Y-119467333D01*
X203450723Y-119705428D01*
X203403104Y-119895904D01*
X203355485Y-119991142D01*
X203307866Y-120038761D01*
X203212628Y-120086380D01*
X203117390Y-120086380D01*
X203022152Y-120038761D01*
X202974533Y-119991142D01*
X202926914Y-119895904D01*
X202879295Y-119705428D01*
X202879295Y-119467333D01*
X202926914Y-119276857D01*
X202974533Y-119181619D01*
X203022152Y-119134000D01*
X203117390Y-119086380D01*
G04 #@! TO.C,Q3*
X140326474Y-135734237D02*
X140219995Y-135734116D01*
X140092268Y-135691379D01*
X139900678Y-135627274D01*
X139794198Y-135627153D01*
X139708966Y-135669648D01*
X139857820Y-135861480D02*
X139751340Y-135861359D01*
X139623614Y-135818622D01*
X139496008Y-135669406D01*
X139347275Y-135371095D01*
X139304901Y-135179383D01*
X139347638Y-135051657D01*
X139411622Y-134966546D01*
X139582086Y-134881556D01*
X139688565Y-134881676D01*
X139816292Y-134924413D01*
X139943898Y-135073629D01*
X140092631Y-135371941D01*
X140135005Y-135563652D01*
X140092268Y-135691379D01*
X140028284Y-135776490D01*
X139857820Y-135861480D01*
X140093477Y-134626585D02*
X140647484Y-134350368D01*
X140519152Y-134840028D01*
X140647000Y-134776285D01*
X140753480Y-134776406D01*
X140817343Y-134797774D01*
X140902454Y-134861759D01*
X141008692Y-135074838D01*
X141008571Y-135181318D01*
X140987202Y-135245181D01*
X140923218Y-135330292D01*
X140667522Y-135457777D01*
X140561043Y-135457656D01*
X140497180Y-135436288D01*
G04 #@! TO.C,U1*
X159593375Y-104331520D02*
X159593375Y-105141044D01*
X159640994Y-105236282D01*
X159688613Y-105283901D01*
X159783851Y-105331520D01*
X159974327Y-105331520D01*
X160069565Y-105283901D01*
X160117184Y-105236282D01*
X160164803Y-105141044D01*
X160164803Y-104331520D01*
X161164803Y-105331520D02*
X160593375Y-105331520D01*
X160879089Y-105331520D02*
X160879089Y-104331520D01*
X160783851Y-104474378D01*
X160688613Y-104569616D01*
X160593375Y-104617235D01*
X169886380Y-118874990D02*
X169886380Y-118303561D01*
X170886380Y-118589276D02*
X169886380Y-118589276D01*
X169886380Y-118065466D02*
X169886380Y-117446419D01*
X170267333Y-117779752D01*
X170267333Y-117636895D01*
X170314952Y-117541657D01*
X170362571Y-117494038D01*
X170457809Y-117446419D01*
X170695904Y-117446419D01*
X170791142Y-117494038D01*
X170838761Y-117541657D01*
X170886380Y-117636895D01*
X170886380Y-117922609D01*
X170838761Y-118017847D01*
X170791142Y-118065466D01*
X170791142Y-117017847D02*
X170838761Y-116970228D01*
X170886380Y-117017847D01*
X170838761Y-117065466D01*
X170791142Y-117017847D01*
X170886380Y-117017847D01*
X169981619Y-116589276D02*
X169934000Y-116541657D01*
X169886380Y-116446419D01*
X169886380Y-116208323D01*
X169934000Y-116113085D01*
X169981619Y-116065466D01*
X170076857Y-116017847D01*
X170172095Y-116017847D01*
X170314952Y-116065466D01*
X170886380Y-116636895D01*
X170886380Y-116017847D01*
X166076380Y-118874990D02*
X166076380Y-118303561D01*
X167076380Y-118589276D02*
X166076380Y-118589276D01*
X166076380Y-118065466D02*
X166076380Y-117446419D01*
X166457333Y-117779752D01*
X166457333Y-117636895D01*
X166504952Y-117541657D01*
X166552571Y-117494038D01*
X166647809Y-117446419D01*
X166885904Y-117446419D01*
X166981142Y-117494038D01*
X167028761Y-117541657D01*
X167076380Y-117636895D01*
X167076380Y-117922609D01*
X167028761Y-118017847D01*
X166981142Y-118065466D01*
X166981142Y-117017847D02*
X167028761Y-116970228D01*
X167076380Y-117017847D01*
X167028761Y-117065466D01*
X166981142Y-117017847D01*
X167076380Y-117017847D01*
X167076380Y-116017847D02*
X167076380Y-116589276D01*
X167076380Y-116303561D02*
X166076380Y-116303561D01*
X166219238Y-116398800D01*
X166314476Y-116494038D01*
X166362095Y-116589276D01*
G04 #@! TO.C,U2*
X159436820Y-71099584D02*
X160246344Y-71099584D01*
X160341582Y-71051965D01*
X160389201Y-71004346D01*
X160436820Y-70909108D01*
X160436820Y-70718632D01*
X160389201Y-70623394D01*
X160341582Y-70575775D01*
X160246344Y-70528156D01*
X159436820Y-70528156D01*
X159532059Y-70099584D02*
X159484440Y-70051965D01*
X159436820Y-69956727D01*
X159436820Y-69718632D01*
X159484440Y-69623394D01*
X159532059Y-69575775D01*
X159627297Y-69528156D01*
X159722535Y-69528156D01*
X159865392Y-69575775D01*
X160436820Y-70147203D01*
X160436820Y-69528156D01*
G04 #@! TO.C,M1*
X147259776Y-87914740D02*
X147259776Y-86914740D01*
X147593109Y-87629026D01*
X147926442Y-86914740D01*
X147926442Y-87914740D01*
X148926442Y-87914740D02*
X148355014Y-87914740D01*
X148640728Y-87914740D02*
X148640728Y-86914740D01*
X148545490Y-87057598D01*
X148450252Y-87152836D01*
X148355014Y-87200455D01*
G04 #@! TO.C,M2*
X173015376Y-87686140D02*
X173015376Y-86686140D01*
X173348709Y-87400426D01*
X173682042Y-86686140D01*
X173682042Y-87686140D01*
X174110614Y-86781379D02*
X174158233Y-86733760D01*
X174253471Y-86686140D01*
X174491566Y-86686140D01*
X174586804Y-86733760D01*
X174634423Y-86781379D01*
X174682042Y-86876617D01*
X174682042Y-86971855D01*
X174634423Y-87114712D01*
X174062995Y-87686140D01*
X174682042Y-87686140D01*
G04 #@! TO.C,BZ1*
X133707831Y-60931632D02*
X133755450Y-60788775D01*
X133803069Y-60741156D01*
X133898307Y-60693537D01*
X134041164Y-60693537D01*
X134136402Y-60741156D01*
X134184021Y-60788775D01*
X134231640Y-60884013D01*
X134231640Y-61264965D01*
X133231640Y-61264965D01*
X133231640Y-60931632D01*
X133279260Y-60836394D01*
X133326879Y-60788775D01*
X133422117Y-60741156D01*
X133517355Y-60741156D01*
X133612593Y-60788775D01*
X133660212Y-60836394D01*
X133707831Y-60931632D01*
X133707831Y-61264965D01*
X133231640Y-60360203D02*
X133231640Y-59693537D01*
X134231640Y-60360203D01*
X134231640Y-59693537D01*
X134231640Y-58788775D02*
X134231640Y-59360203D01*
X134231640Y-59074489D02*
X133231640Y-59074489D01*
X133374498Y-59169727D01*
X133469736Y-59264965D01*
X133517355Y-59360203D01*
X140435628Y-63382952D02*
X140435628Y-62621047D01*
X140385628Y-58332952D02*
X140385628Y-57571047D01*
X140766580Y-57952000D02*
X140004676Y-57952000D01*
G04 #@! TO.C,T0*
X191112235Y-105436420D02*
X191683663Y-105436420D01*
X191397949Y-106436420D02*
X191397949Y-105436420D01*
X192207473Y-105436420D02*
X192302711Y-105436420D01*
X192397949Y-105484040D01*
X192445568Y-105531659D01*
X192493187Y-105626897D01*
X192540806Y-105817373D01*
X192540806Y-106055468D01*
X192493187Y-106245944D01*
X192445568Y-106341182D01*
X192397949Y-106388801D01*
X192302711Y-106436420D01*
X192207473Y-106436420D01*
X192112235Y-106388801D01*
X192064616Y-106341182D01*
X192016997Y-106245944D01*
X191969378Y-106055468D01*
X191969378Y-105817373D01*
X192016997Y-105626897D01*
X192064616Y-105531659D01*
X192112235Y-105484040D01*
X192207473Y-105436420D01*
G04 #@! TO.C,T1*
X165818915Y-128667260D02*
X166390343Y-128667260D01*
X166104629Y-129667260D02*
X166104629Y-128667260D01*
X167247486Y-129667260D02*
X166676058Y-129667260D01*
X166961772Y-129667260D02*
X166961772Y-128667260D01*
X166866534Y-128810118D01*
X166771296Y-128905356D01*
X166676058Y-128952975D01*
G04 #@! TO.C,T2*
X126339695Y-104991920D02*
X126911123Y-104991920D01*
X126625409Y-105991920D02*
X126625409Y-104991920D01*
X127196838Y-105087159D02*
X127244457Y-105039540D01*
X127339695Y-104991920D01*
X127577790Y-104991920D01*
X127673028Y-105039540D01*
X127720647Y-105087159D01*
X127768266Y-105182397D01*
X127768266Y-105277635D01*
X127720647Y-105420492D01*
X127149219Y-105991920D01*
X127768266Y-105991920D01*
G04 #@! TO.C,T3*
X152443275Y-128575820D02*
X153014703Y-128575820D01*
X152728989Y-129575820D02*
X152728989Y-128575820D01*
X153252799Y-128575820D02*
X153871846Y-128575820D01*
X153538513Y-128956773D01*
X153681370Y-128956773D01*
X153776608Y-129004392D01*
X153824227Y-129052011D01*
X153871846Y-129147249D01*
X153871846Y-129385344D01*
X153824227Y-129480582D01*
X153776608Y-129528201D01*
X153681370Y-129575820D01*
X153395656Y-129575820D01*
X153300418Y-129528201D01*
X153252799Y-129480582D01*
G04 #@! TO.C,J2*
X163362520Y-127066633D02*
X164076806Y-127066633D01*
X164219663Y-127114252D01*
X164314901Y-127209490D01*
X164362520Y-127352347D01*
X164362520Y-127447585D01*
X163457759Y-126638061D02*
X163410140Y-126590442D01*
X163362520Y-126495204D01*
X163362520Y-126257109D01*
X163410140Y-126161871D01*
X163457759Y-126114252D01*
X163552997Y-126066633D01*
X163648235Y-126066633D01*
X163791092Y-126114252D01*
X164362520Y-126685680D01*
X164362520Y-126066633D01*
G04 #@! TO.C,J4*
X182025966Y-73506080D02*
X182025966Y-74220366D01*
X181978347Y-74363223D01*
X181883109Y-74458461D01*
X181740252Y-74506080D01*
X181645014Y-74506080D01*
X182930728Y-73839414D02*
X182930728Y-74506080D01*
X182692633Y-73458461D02*
X182454538Y-74172747D01*
X183073585Y-74172747D01*
G04 #@! TO.C,D8*
X158191460Y-59132695D02*
X157191460Y-59132695D01*
X157191460Y-58894600D01*
X157239080Y-58751742D01*
X157334318Y-58656504D01*
X157429556Y-58608885D01*
X157620032Y-58561266D01*
X157762889Y-58561266D01*
X157953365Y-58608885D01*
X158048603Y-58656504D01*
X158143841Y-58751742D01*
X158191460Y-58894600D01*
X158191460Y-59132695D01*
X157620032Y-57989838D02*
X157572413Y-58085076D01*
X157524794Y-58132695D01*
X157429556Y-58180314D01*
X157381937Y-58180314D01*
X157286699Y-58132695D01*
X157239080Y-58085076D01*
X157191460Y-57989838D01*
X157191460Y-57799361D01*
X157239080Y-57704123D01*
X157286699Y-57656504D01*
X157381937Y-57608885D01*
X157429556Y-57608885D01*
X157524794Y-57656504D01*
X157572413Y-57704123D01*
X157620032Y-57799361D01*
X157620032Y-57989838D01*
X157667651Y-58085076D01*
X157715270Y-58132695D01*
X157810508Y-58180314D01*
X158000984Y-58180314D01*
X158096222Y-58132695D01*
X158143841Y-58085076D01*
X158191460Y-57989838D01*
X158191460Y-57799361D01*
X158143841Y-57704123D01*
X158096222Y-57656504D01*
X158000984Y-57608885D01*
X157810508Y-57608885D01*
X157715270Y-57656504D01*
X157667651Y-57704123D01*
X157620032Y-57799361D01*
X152951440Y-59114725D02*
X152951440Y-59686154D01*
X152951440Y-59400440D02*
X151951440Y-59400440D01*
X152094298Y-59495678D01*
X152189536Y-59590916D01*
X152237155Y-59686154D01*
G04 #@! TO.C,D9*
X144683860Y-59213975D02*
X143683860Y-59213975D01*
X143683860Y-58975880D01*
X143731480Y-58833022D01*
X143826718Y-58737784D01*
X143921956Y-58690165D01*
X144112432Y-58642546D01*
X144255289Y-58642546D01*
X144445765Y-58690165D01*
X144541003Y-58737784D01*
X144636241Y-58833022D01*
X144683860Y-58975880D01*
X144683860Y-59213975D01*
X144683860Y-58166356D02*
X144683860Y-57975880D01*
X144636241Y-57880641D01*
X144588622Y-57833022D01*
X144445765Y-57737784D01*
X144255289Y-57690165D01*
X143874337Y-57690165D01*
X143779099Y-57737784D01*
X143731480Y-57785403D01*
X143683860Y-57880641D01*
X143683860Y-58071118D01*
X143731480Y-58166356D01*
X143779099Y-58213975D01*
X143874337Y-58261594D01*
X144112432Y-58261594D01*
X144207670Y-58213975D01*
X144255289Y-58166356D01*
X144302908Y-58071118D01*
X144302908Y-57880641D01*
X144255289Y-57785403D01*
X144207670Y-57737784D01*
X144112432Y-57690165D01*
X146484600Y-59142665D02*
X146484600Y-59714094D01*
X146484600Y-59428380D02*
X145484600Y-59428380D01*
X145627458Y-59523618D01*
X145722696Y-59618856D01*
X145770315Y-59714094D01*
G04 #@! TO.C,U4*
X179607620Y-78800864D02*
X180417144Y-78800864D01*
X180512382Y-78753245D01*
X180560001Y-78705626D01*
X180607620Y-78610388D01*
X180607620Y-78419912D01*
X180560001Y-78324674D01*
X180512382Y-78277055D01*
X180417144Y-78229436D01*
X179607620Y-78229436D01*
X179940954Y-77324674D02*
X180607620Y-77324674D01*
X179560001Y-77562769D02*
X180274287Y-77800864D01*
X180274287Y-77181817D01*
G04 #@! TO.C,U5*
X139547980Y-78663704D02*
X140357504Y-78663704D01*
X140452742Y-78616085D01*
X140500361Y-78568466D01*
X140547980Y-78473228D01*
X140547980Y-78282752D01*
X140500361Y-78187514D01*
X140452742Y-78139895D01*
X140357504Y-78092276D01*
X139547980Y-78092276D01*
X139547980Y-77139895D02*
X139547980Y-77616085D01*
X140024171Y-77663704D01*
X139976552Y-77616085D01*
X139928933Y-77520847D01*
X139928933Y-77282752D01*
X139976552Y-77187514D01*
X140024171Y-77139895D01*
X140119409Y-77092276D01*
X140357504Y-77092276D01*
X140452742Y-77139895D01*
X140500361Y-77187514D01*
X140547980Y-77282752D01*
X140547980Y-77520847D01*
X140500361Y-77616085D01*
X140452742Y-77663704D01*
G04 #@! TO.C,C5*
X153927513Y-65195722D02*
X153879894Y-65243341D01*
X153737037Y-65290960D01*
X153641799Y-65290960D01*
X153498941Y-65243341D01*
X153403703Y-65148103D01*
X153356084Y-65052865D01*
X153308465Y-64862389D01*
X153308465Y-64719532D01*
X153356084Y-64529056D01*
X153403703Y-64433818D01*
X153498941Y-64338580D01*
X153641799Y-64290960D01*
X153737037Y-64290960D01*
X153879894Y-64338580D01*
X153927513Y-64386199D01*
X154832275Y-64290960D02*
X154356084Y-64290960D01*
X154308465Y-64767151D01*
X154356084Y-64719532D01*
X154451322Y-64671913D01*
X154689418Y-64671913D01*
X154784656Y-64719532D01*
X154832275Y-64767151D01*
X154879894Y-64862389D01*
X154879894Y-65100484D01*
X154832275Y-65195722D01*
X154784656Y-65243341D01*
X154689418Y-65290960D01*
X154451322Y-65290960D01*
X154356084Y-65243341D01*
X154308465Y-65195722D01*
G04 #@! TO.C,C6*
X147648633Y-65325262D02*
X147601014Y-65372881D01*
X147458157Y-65420500D01*
X147362919Y-65420500D01*
X147220061Y-65372881D01*
X147124823Y-65277643D01*
X147077204Y-65182405D01*
X147029585Y-64991929D01*
X147029585Y-64849072D01*
X147077204Y-64658596D01*
X147124823Y-64563358D01*
X147220061Y-64468120D01*
X147362919Y-64420500D01*
X147458157Y-64420500D01*
X147601014Y-64468120D01*
X147648633Y-64515739D01*
X148505776Y-64420500D02*
X148315300Y-64420500D01*
X148220061Y-64468120D01*
X148172442Y-64515739D01*
X148077204Y-64658596D01*
X148029585Y-64849072D01*
X148029585Y-65230024D01*
X148077204Y-65325262D01*
X148124823Y-65372881D01*
X148220061Y-65420500D01*
X148410538Y-65420500D01*
X148505776Y-65372881D01*
X148553395Y-65325262D01*
X148601014Y-65230024D01*
X148601014Y-64991929D01*
X148553395Y-64896691D01*
X148505776Y-64849072D01*
X148410538Y-64801453D01*
X148220061Y-64801453D01*
X148124823Y-64849072D01*
X148077204Y-64896691D01*
X148029585Y-64991929D01*
G04 #@! TO.C,R18*
X157495697Y-134756085D02*
X157245697Y-134398942D01*
X157067125Y-134756085D02*
X157067125Y-134006085D01*
X157352840Y-134006085D01*
X157424268Y-134041800D01*
X157459982Y-134077514D01*
X157495697Y-134148942D01*
X157495697Y-134256085D01*
X157459982Y-134327514D01*
X157424268Y-134363228D01*
X157352840Y-134398942D01*
X157067125Y-134398942D01*
X158209982Y-134756085D02*
X157781411Y-134756085D01*
X157995697Y-134756085D02*
X157995697Y-134006085D01*
X157924268Y-134113228D01*
X157852840Y-134184657D01*
X157781411Y-134220371D01*
X158638554Y-134327514D02*
X158567125Y-134291800D01*
X158531411Y-134256085D01*
X158495697Y-134184657D01*
X158495697Y-134148942D01*
X158531411Y-134077514D01*
X158567125Y-134041800D01*
X158638554Y-134006085D01*
X158781411Y-134006085D01*
X158852840Y-134041800D01*
X158888554Y-134077514D01*
X158924268Y-134148942D01*
X158924268Y-134184657D01*
X158888554Y-134256085D01*
X158852840Y-134291800D01*
X158781411Y-134327514D01*
X158638554Y-134327514D01*
X158567125Y-134363228D01*
X158531411Y-134398942D01*
X158495697Y-134470371D01*
X158495697Y-134613228D01*
X158531411Y-134684657D01*
X158567125Y-134720371D01*
X158638554Y-134756085D01*
X158781411Y-134756085D01*
X158852840Y-134720371D01*
X158888554Y-134684657D01*
X158924268Y-134613228D01*
X158924268Y-134470371D01*
X158888554Y-134398942D01*
X158852840Y-134363228D01*
X158781411Y-134327514D01*
G04 #@! TO.C,R21*
X161341257Y-134697665D02*
X161091257Y-134340522D01*
X160912685Y-134697665D02*
X160912685Y-133947665D01*
X161198400Y-133947665D01*
X161269828Y-133983380D01*
X161305542Y-134019094D01*
X161341257Y-134090522D01*
X161341257Y-134197665D01*
X161305542Y-134269094D01*
X161269828Y-134304808D01*
X161198400Y-134340522D01*
X160912685Y-134340522D01*
X161626971Y-134019094D02*
X161662685Y-133983380D01*
X161734114Y-133947665D01*
X161912685Y-133947665D01*
X161984114Y-133983380D01*
X162019828Y-134019094D01*
X162055542Y-134090522D01*
X162055542Y-134161951D01*
X162019828Y-134269094D01*
X161591257Y-134697665D01*
X162055542Y-134697665D01*
X162769828Y-134697665D02*
X162341257Y-134697665D01*
X162555542Y-134697665D02*
X162555542Y-133947665D01*
X162484114Y-134054808D01*
X162412685Y-134126237D01*
X162341257Y-134161951D01*
G04 #@! TO.C,C9*
X177799002Y-70222406D02*
X177846621Y-70270025D01*
X177894240Y-70412882D01*
X177894240Y-70508120D01*
X177846621Y-70650978D01*
X177751383Y-70746216D01*
X177656145Y-70793835D01*
X177465669Y-70841454D01*
X177322812Y-70841454D01*
X177132336Y-70793835D01*
X177037098Y-70746216D01*
X176941860Y-70650978D01*
X176894240Y-70508120D01*
X176894240Y-70412882D01*
X176941860Y-70270025D01*
X176989479Y-70222406D01*
X177894240Y-69746216D02*
X177894240Y-69555740D01*
X177846621Y-69460501D01*
X177799002Y-69412882D01*
X177656145Y-69317644D01*
X177465669Y-69270025D01*
X177084717Y-69270025D01*
X176989479Y-69317644D01*
X176941860Y-69365263D01*
X176894240Y-69460501D01*
X176894240Y-69650978D01*
X176941860Y-69746216D01*
X176989479Y-69793835D01*
X177084717Y-69841454D01*
X177322812Y-69841454D01*
X177418050Y-69793835D01*
X177465669Y-69746216D01*
X177513288Y-69650978D01*
X177513288Y-69460501D01*
X177465669Y-69365263D01*
X177418050Y-69317644D01*
X177322812Y-69270025D01*
G04 #@! TO.C,U3*
X167520715Y-74311260D02*
X167520715Y-75120784D01*
X167568334Y-75216022D01*
X167615953Y-75263641D01*
X167711191Y-75311260D01*
X167901667Y-75311260D01*
X167996905Y-75263641D01*
X168044524Y-75216022D01*
X168092143Y-75120784D01*
X168092143Y-74311260D01*
X168473096Y-74311260D02*
X169092143Y-74311260D01*
X168758810Y-74692213D01*
X168901667Y-74692213D01*
X168996905Y-74739832D01*
X169044524Y-74787451D01*
X169092143Y-74882689D01*
X169092143Y-75120784D01*
X169044524Y-75216022D01*
X168996905Y-75263641D01*
X168901667Y-75311260D01*
X168615953Y-75311260D01*
X168520715Y-75263641D01*
X168473096Y-75216022D01*
G04 #@! TO.C,MH1*
X184076506Y-122421800D02*
X184076506Y-121421800D01*
X184409840Y-122136086D01*
X184743173Y-121421800D01*
X184743173Y-122421800D01*
X185219363Y-122421800D02*
X185219363Y-121421800D01*
X185219363Y-121897991D02*
X185790792Y-121897991D01*
X185790792Y-122421800D02*
X185790792Y-121421800D01*
X186790792Y-122421800D02*
X186219363Y-122421800D01*
X186505078Y-122421800D02*
X186505078Y-121421800D01*
X186409840Y-121564658D01*
X186314601Y-121659896D01*
X186219363Y-121707515D01*
G04 #@! TO.C,MH2*
X133327306Y-122388780D02*
X133327306Y-121388780D01*
X133660640Y-122103066D01*
X133993973Y-121388780D01*
X133993973Y-122388780D01*
X134470163Y-122388780D02*
X134470163Y-121388780D01*
X134470163Y-121864971D02*
X135041592Y-121864971D01*
X135041592Y-122388780D02*
X135041592Y-121388780D01*
X135470163Y-121484019D02*
X135517782Y-121436400D01*
X135613020Y-121388780D01*
X135851116Y-121388780D01*
X135946354Y-121436400D01*
X135993973Y-121484019D01*
X136041592Y-121579257D01*
X136041592Y-121674495D01*
X135993973Y-121817352D01*
X135422544Y-122388780D01*
X136041592Y-122388780D01*
G04 #@! TO.C,R17*
X122437922Y-55997100D02*
X122104589Y-55520910D01*
X121866494Y-55997100D02*
X121866494Y-54997100D01*
X122247446Y-54997100D01*
X122342684Y-55044720D01*
X122390303Y-55092339D01*
X122437922Y-55187577D01*
X122437922Y-55330434D01*
X122390303Y-55425672D01*
X122342684Y-55473291D01*
X122247446Y-55520910D01*
X121866494Y-55520910D01*
X123390303Y-55997100D02*
X122818875Y-55997100D01*
X123104589Y-55997100D02*
X123104589Y-54997100D01*
X123009351Y-55139958D01*
X122914113Y-55235196D01*
X122818875Y-55282815D01*
X123723637Y-54997100D02*
X124390303Y-54997100D01*
X123961732Y-55997100D01*
G04 #@! TO.C,R19*
X129092722Y-56022500D02*
X128759389Y-55546310D01*
X128521294Y-56022500D02*
X128521294Y-55022500D01*
X128902246Y-55022500D01*
X128997484Y-55070120D01*
X129045103Y-55117739D01*
X129092722Y-55212977D01*
X129092722Y-55355834D01*
X129045103Y-55451072D01*
X128997484Y-55498691D01*
X128902246Y-55546310D01*
X128521294Y-55546310D01*
X130045103Y-56022500D02*
X129473675Y-56022500D01*
X129759389Y-56022500D02*
X129759389Y-55022500D01*
X129664151Y-55165358D01*
X129568913Y-55260596D01*
X129473675Y-55308215D01*
X130521294Y-56022500D02*
X130711770Y-56022500D01*
X130807008Y-55974881D01*
X130854627Y-55927262D01*
X130949865Y-55784405D01*
X130997484Y-55593929D01*
X130997484Y-55212977D01*
X130949865Y-55117739D01*
X130902246Y-55070120D01*
X130807008Y-55022500D01*
X130616532Y-55022500D01*
X130521294Y-55070120D01*
X130473675Y-55117739D01*
X130426056Y-55212977D01*
X130426056Y-55451072D01*
X130473675Y-55546310D01*
X130521294Y-55593929D01*
X130616532Y-55641548D01*
X130807008Y-55641548D01*
X130902246Y-55593929D01*
X130949865Y-55546310D01*
X130997484Y-55451072D01*
G04 #@! TO.C,SW1*
X119327561Y-66804373D02*
X119375180Y-66661516D01*
X119375180Y-66423420D01*
X119327561Y-66328182D01*
X119279942Y-66280563D01*
X119184704Y-66232944D01*
X119089466Y-66232944D01*
X118994228Y-66280563D01*
X118946609Y-66328182D01*
X118898990Y-66423420D01*
X118851371Y-66613897D01*
X118803752Y-66709135D01*
X118756133Y-66756754D01*
X118660895Y-66804373D01*
X118565657Y-66804373D01*
X118470419Y-66756754D01*
X118422800Y-66709135D01*
X118375180Y-66613897D01*
X118375180Y-66375801D01*
X118422800Y-66232944D01*
X118375180Y-65899611D02*
X119375180Y-65661516D01*
X118660895Y-65471040D01*
X119375180Y-65280563D01*
X118375180Y-65042468D01*
X119375180Y-64137706D02*
X119375180Y-64709135D01*
X119375180Y-64423420D02*
X118375180Y-64423420D01*
X118518038Y-64518659D01*
X118613276Y-64613897D01*
X118660895Y-64709135D01*
G04 #@! TO.C,SW2*
X134681861Y-66791673D02*
X134729480Y-66648816D01*
X134729480Y-66410720D01*
X134681861Y-66315482D01*
X134634242Y-66267863D01*
X134539004Y-66220244D01*
X134443766Y-66220244D01*
X134348528Y-66267863D01*
X134300909Y-66315482D01*
X134253290Y-66410720D01*
X134205671Y-66601197D01*
X134158052Y-66696435D01*
X134110433Y-66744054D01*
X134015195Y-66791673D01*
X133919957Y-66791673D01*
X133824719Y-66744054D01*
X133777100Y-66696435D01*
X133729480Y-66601197D01*
X133729480Y-66363101D01*
X133777100Y-66220244D01*
X133729480Y-65886911D02*
X134729480Y-65648816D01*
X134015195Y-65458340D01*
X134729480Y-65267863D01*
X133729480Y-65029768D01*
X133824719Y-64696435D02*
X133777100Y-64648816D01*
X133729480Y-64553578D01*
X133729480Y-64315482D01*
X133777100Y-64220244D01*
X133824719Y-64172625D01*
X133919957Y-64125006D01*
X134015195Y-64125006D01*
X134158052Y-64172625D01*
X134729480Y-64744054D01*
X134729480Y-64125006D01*
G04 #@! TO.C,R1*
X185870553Y-118313460D02*
X185537220Y-117837270D01*
X185299124Y-118313460D02*
X185299124Y-117313460D01*
X185680077Y-117313460D01*
X185775315Y-117361080D01*
X185822934Y-117408699D01*
X185870553Y-117503937D01*
X185870553Y-117646794D01*
X185822934Y-117742032D01*
X185775315Y-117789651D01*
X185680077Y-117837270D01*
X185299124Y-117837270D01*
X186822934Y-118313460D02*
X186251505Y-118313460D01*
X186537220Y-118313460D02*
X186537220Y-117313460D01*
X186441981Y-117456318D01*
X186346743Y-117551556D01*
X186251505Y-117599175D01*
G04 #@! TO.C,R2*
X174755513Y-127368560D02*
X174422180Y-126892370D01*
X174184084Y-127368560D02*
X174184084Y-126368560D01*
X174565037Y-126368560D01*
X174660275Y-126416180D01*
X174707894Y-126463799D01*
X174755513Y-126559037D01*
X174755513Y-126701894D01*
X174707894Y-126797132D01*
X174660275Y-126844751D01*
X174565037Y-126892370D01*
X174184084Y-126892370D01*
X175136465Y-126463799D02*
X175184084Y-126416180D01*
X175279322Y-126368560D01*
X175517418Y-126368560D01*
X175612656Y-126416180D01*
X175660275Y-126463799D01*
X175707894Y-126559037D01*
X175707894Y-126654275D01*
X175660275Y-126797132D01*
X175088846Y-127368560D01*
X175707894Y-127368560D01*
G04 #@! TO.C,R3*
X130783033Y-118392200D02*
X130449700Y-117916010D01*
X130211604Y-118392200D02*
X130211604Y-117392200D01*
X130592557Y-117392200D01*
X130687795Y-117439820D01*
X130735414Y-117487439D01*
X130783033Y-117582677D01*
X130783033Y-117725534D01*
X130735414Y-117820772D01*
X130687795Y-117868391D01*
X130592557Y-117916010D01*
X130211604Y-117916010D01*
X131116366Y-117392200D02*
X131735414Y-117392200D01*
X131402080Y-117773153D01*
X131544938Y-117773153D01*
X131640176Y-117820772D01*
X131687795Y-117868391D01*
X131735414Y-117963629D01*
X131735414Y-118201724D01*
X131687795Y-118296962D01*
X131640176Y-118344581D01*
X131544938Y-118392200D01*
X131259223Y-118392200D01*
X131163985Y-118344581D01*
X131116366Y-118296962D01*
G04 #@! TO.C,R4*
X144984173Y-127548900D02*
X144650840Y-127072710D01*
X144412744Y-127548900D02*
X144412744Y-126548900D01*
X144793697Y-126548900D01*
X144888935Y-126596520D01*
X144936554Y-126644139D01*
X144984173Y-126739377D01*
X144984173Y-126882234D01*
X144936554Y-126977472D01*
X144888935Y-127025091D01*
X144793697Y-127072710D01*
X144412744Y-127072710D01*
X145841316Y-126882234D02*
X145841316Y-127548900D01*
X145603220Y-126501281D02*
X145365125Y-127215567D01*
X145984173Y-127215567D01*
G04 #@! TO.C,R5*
X194526873Y-118260120D02*
X194193540Y-117783930D01*
X193955444Y-118260120D02*
X193955444Y-117260120D01*
X194336397Y-117260120D01*
X194431635Y-117307740D01*
X194479254Y-117355359D01*
X194526873Y-117450597D01*
X194526873Y-117593454D01*
X194479254Y-117688692D01*
X194431635Y-117736311D01*
X194336397Y-117783930D01*
X193955444Y-117783930D01*
X195431635Y-117260120D02*
X194955444Y-117260120D01*
X194907825Y-117736311D01*
X194955444Y-117688692D01*
X195050682Y-117641073D01*
X195288778Y-117641073D01*
X195384016Y-117688692D01*
X195431635Y-117736311D01*
X195479254Y-117831549D01*
X195479254Y-118069644D01*
X195431635Y-118164882D01*
X195384016Y-118212501D01*
X195288778Y-118260120D01*
X195050682Y-118260120D01*
X194955444Y-118212501D01*
X194907825Y-118164882D01*
G04 #@! TO.C,R6*
X163622693Y-140919460D02*
X163289360Y-140443270D01*
X163051264Y-140919460D02*
X163051264Y-139919460D01*
X163432217Y-139919460D01*
X163527455Y-139967080D01*
X163575074Y-140014699D01*
X163622693Y-140109937D01*
X163622693Y-140252794D01*
X163575074Y-140348032D01*
X163527455Y-140395651D01*
X163432217Y-140443270D01*
X163051264Y-140443270D01*
X164479836Y-139919460D02*
X164289360Y-139919460D01*
X164194121Y-139967080D01*
X164146502Y-140014699D01*
X164051264Y-140157556D01*
X164003645Y-140348032D01*
X164003645Y-140728984D01*
X164051264Y-140824222D01*
X164098883Y-140871841D01*
X164194121Y-140919460D01*
X164384598Y-140919460D01*
X164479836Y-140871841D01*
X164527455Y-140824222D01*
X164575074Y-140728984D01*
X164575074Y-140490889D01*
X164527455Y-140395651D01*
X164479836Y-140348032D01*
X164384598Y-140300413D01*
X164194121Y-140300413D01*
X164098883Y-140348032D01*
X164051264Y-140395651D01*
X164003645Y-140490889D01*
G04 #@! TO.C,R7*
X124605753Y-118321080D02*
X124272420Y-117844890D01*
X124034324Y-118321080D02*
X124034324Y-117321080D01*
X124415277Y-117321080D01*
X124510515Y-117368700D01*
X124558134Y-117416319D01*
X124605753Y-117511557D01*
X124605753Y-117654414D01*
X124558134Y-117749652D01*
X124510515Y-117797271D01*
X124415277Y-117844890D01*
X124034324Y-117844890D01*
X124939086Y-117321080D02*
X125605753Y-117321080D01*
X125177181Y-118321080D01*
G04 #@! TO.C,R8*
X152693073Y-140919460D02*
X152359740Y-140443270D01*
X152121644Y-140919460D02*
X152121644Y-139919460D01*
X152502597Y-139919460D01*
X152597835Y-139967080D01*
X152645454Y-140014699D01*
X152693073Y-140109937D01*
X152693073Y-140252794D01*
X152645454Y-140348032D01*
X152597835Y-140395651D01*
X152502597Y-140443270D01*
X152121644Y-140443270D01*
X153264501Y-140348032D02*
X153169263Y-140300413D01*
X153121644Y-140252794D01*
X153074025Y-140157556D01*
X153074025Y-140109937D01*
X153121644Y-140014699D01*
X153169263Y-139967080D01*
X153264501Y-139919460D01*
X153454978Y-139919460D01*
X153550216Y-139967080D01*
X153597835Y-140014699D01*
X153645454Y-140109937D01*
X153645454Y-140157556D01*
X153597835Y-140252794D01*
X153550216Y-140300413D01*
X153454978Y-140348032D01*
X153264501Y-140348032D01*
X153169263Y-140395651D01*
X153121644Y-140443270D01*
X153074025Y-140538508D01*
X153074025Y-140728984D01*
X153121644Y-140824222D01*
X153169263Y-140871841D01*
X153264501Y-140919460D01*
X153454978Y-140919460D01*
X153550216Y-140871841D01*
X153597835Y-140824222D01*
X153645454Y-140728984D01*
X153645454Y-140538508D01*
X153597835Y-140443270D01*
X153550216Y-140395651D01*
X153454978Y-140348032D01*
G04 #@! TO.C,R9*
X188684873Y-118288060D02*
X188351540Y-117811870D01*
X188113444Y-118288060D02*
X188113444Y-117288060D01*
X188494397Y-117288060D01*
X188589635Y-117335680D01*
X188637254Y-117383299D01*
X188684873Y-117478537D01*
X188684873Y-117621394D01*
X188637254Y-117716632D01*
X188589635Y-117764251D01*
X188494397Y-117811870D01*
X188113444Y-117811870D01*
X189161063Y-118288060D02*
X189351540Y-118288060D01*
X189446778Y-118240441D01*
X189494397Y-118192822D01*
X189589635Y-118049965D01*
X189637254Y-117859489D01*
X189637254Y-117478537D01*
X189589635Y-117383299D01*
X189542016Y-117335680D01*
X189446778Y-117288060D01*
X189256301Y-117288060D01*
X189161063Y-117335680D01*
X189113444Y-117383299D01*
X189065825Y-117478537D01*
X189065825Y-117716632D01*
X189113444Y-117811870D01*
X189161063Y-117859489D01*
X189256301Y-117907108D01*
X189446778Y-117907108D01*
X189542016Y-117859489D01*
X189589635Y-117811870D01*
X189637254Y-117716632D01*
G04 #@! TO.C,R10*
X170542982Y-131422400D02*
X170209649Y-130946210D01*
X169971554Y-131422400D02*
X169971554Y-130422400D01*
X170352506Y-130422400D01*
X170447744Y-130470020D01*
X170495363Y-130517639D01*
X170542982Y-130612877D01*
X170542982Y-130755734D01*
X170495363Y-130850972D01*
X170447744Y-130898591D01*
X170352506Y-130946210D01*
X169971554Y-130946210D01*
X171495363Y-131422400D02*
X170923935Y-131422400D01*
X171209649Y-131422400D02*
X171209649Y-130422400D01*
X171114411Y-130565258D01*
X171019173Y-130660496D01*
X170923935Y-130708115D01*
X172114411Y-130422400D02*
X172209649Y-130422400D01*
X172304887Y-130470020D01*
X172352506Y-130517639D01*
X172400125Y-130612877D01*
X172447744Y-130803353D01*
X172447744Y-131041448D01*
X172400125Y-131231924D01*
X172352506Y-131327162D01*
X172304887Y-131374781D01*
X172209649Y-131422400D01*
X172114411Y-131422400D01*
X172019173Y-131374781D01*
X171971554Y-131327162D01*
X171923935Y-131231924D01*
X171876316Y-131041448D01*
X171876316Y-130803353D01*
X171923935Y-130612877D01*
X171971554Y-130517639D01*
X172019173Y-130470020D01*
X172114411Y-130422400D01*
G04 #@! TO.C,R11*
X127289322Y-118249960D02*
X126955989Y-117773770D01*
X126717894Y-118249960D02*
X126717894Y-117249960D01*
X127098846Y-117249960D01*
X127194084Y-117297580D01*
X127241703Y-117345199D01*
X127289322Y-117440437D01*
X127289322Y-117583294D01*
X127241703Y-117678532D01*
X127194084Y-117726151D01*
X127098846Y-117773770D01*
X126717894Y-117773770D01*
X128241703Y-118249960D02*
X127670275Y-118249960D01*
X127955989Y-118249960D02*
X127955989Y-117249960D01*
X127860751Y-117392818D01*
X127765513Y-117488056D01*
X127670275Y-117535675D01*
X129194084Y-118249960D02*
X128622656Y-118249960D01*
X128908370Y-118249960D02*
X128908370Y-117249960D01*
X128813132Y-117392818D01*
X128717894Y-117488056D01*
X128622656Y-117535675D01*
G04 #@! TO.C,R12*
X148147802Y-131242060D02*
X147814469Y-130765870D01*
X147576374Y-131242060D02*
X147576374Y-130242060D01*
X147957326Y-130242060D01*
X148052564Y-130289680D01*
X148100183Y-130337299D01*
X148147802Y-130432537D01*
X148147802Y-130575394D01*
X148100183Y-130670632D01*
X148052564Y-130718251D01*
X147957326Y-130765870D01*
X147576374Y-130765870D01*
X149100183Y-131242060D02*
X148528755Y-131242060D01*
X148814469Y-131242060D02*
X148814469Y-130242060D01*
X148719231Y-130384918D01*
X148623993Y-130480156D01*
X148528755Y-130527775D01*
X149481136Y-130337299D02*
X149528755Y-130289680D01*
X149623993Y-130242060D01*
X149862088Y-130242060D01*
X149957326Y-130289680D01*
X150004945Y-130337299D01*
X150052564Y-130432537D01*
X150052564Y-130527775D01*
X150004945Y-130670632D01*
X149433517Y-131242060D01*
X150052564Y-131242060D01*
G04 #@! TO.C,R13*
X191076342Y-118338860D02*
X190743009Y-117862670D01*
X190504914Y-118338860D02*
X190504914Y-117338860D01*
X190885866Y-117338860D01*
X190981104Y-117386480D01*
X191028723Y-117434099D01*
X191076342Y-117529337D01*
X191076342Y-117672194D01*
X191028723Y-117767432D01*
X190981104Y-117815051D01*
X190885866Y-117862670D01*
X190504914Y-117862670D01*
X192028723Y-118338860D02*
X191457295Y-118338860D01*
X191743009Y-118338860D02*
X191743009Y-117338860D01*
X191647771Y-117481718D01*
X191552533Y-117576956D01*
X191457295Y-117624575D01*
X192362057Y-117338860D02*
X192981104Y-117338860D01*
X192647771Y-117719813D01*
X192790628Y-117719813D01*
X192885866Y-117767432D01*
X192933485Y-117815051D01*
X192981104Y-117910289D01*
X192981104Y-118148384D01*
X192933485Y-118243622D01*
X192885866Y-118291241D01*
X192790628Y-118338860D01*
X192504914Y-118338860D01*
X192409676Y-118291241D01*
X192362057Y-118243622D01*
G04 #@! TO.C,R14*
X166826962Y-140972800D02*
X166493629Y-140496610D01*
X166255534Y-140972800D02*
X166255534Y-139972800D01*
X166636486Y-139972800D01*
X166731724Y-140020420D01*
X166779343Y-140068039D01*
X166826962Y-140163277D01*
X166826962Y-140306134D01*
X166779343Y-140401372D01*
X166731724Y-140448991D01*
X166636486Y-140496610D01*
X166255534Y-140496610D01*
X167779343Y-140972800D02*
X167207915Y-140972800D01*
X167493629Y-140972800D02*
X167493629Y-139972800D01*
X167398391Y-140115658D01*
X167303153Y-140210896D01*
X167207915Y-140258515D01*
X168636486Y-140306134D02*
X168636486Y-140972800D01*
X168398391Y-139925181D02*
X168160296Y-140639467D01*
X168779343Y-140639467D01*
G04 #@! TO.C,R15*
X133207522Y-118321080D02*
X132874189Y-117844890D01*
X132636094Y-118321080D02*
X132636094Y-117321080D01*
X133017046Y-117321080D01*
X133112284Y-117368700D01*
X133159903Y-117416319D01*
X133207522Y-117511557D01*
X133207522Y-117654414D01*
X133159903Y-117749652D01*
X133112284Y-117797271D01*
X133017046Y-117844890D01*
X132636094Y-117844890D01*
X134159903Y-118321080D02*
X133588475Y-118321080D01*
X133874189Y-118321080D02*
X133874189Y-117321080D01*
X133778951Y-117463938D01*
X133683713Y-117559176D01*
X133588475Y-117606795D01*
X135064665Y-117321080D02*
X134588475Y-117321080D01*
X134540856Y-117797271D01*
X134588475Y-117749652D01*
X134683713Y-117702033D01*
X134921808Y-117702033D01*
X135017046Y-117749652D01*
X135064665Y-117797271D01*
X135112284Y-117892509D01*
X135112284Y-118130604D01*
X135064665Y-118225842D01*
X135017046Y-118273461D01*
X134921808Y-118321080D01*
X134683713Y-118321080D01*
X134588475Y-118273461D01*
X134540856Y-118225842D01*
G04 #@! TO.C,R16*
X155788122Y-140972800D02*
X155454789Y-140496610D01*
X155216694Y-140972800D02*
X155216694Y-139972800D01*
X155597646Y-139972800D01*
X155692884Y-140020420D01*
X155740503Y-140068039D01*
X155788122Y-140163277D01*
X155788122Y-140306134D01*
X155740503Y-140401372D01*
X155692884Y-140448991D01*
X155597646Y-140496610D01*
X155216694Y-140496610D01*
X156740503Y-140972800D02*
X156169075Y-140972800D01*
X156454789Y-140972800D02*
X156454789Y-139972800D01*
X156359551Y-140115658D01*
X156264313Y-140210896D01*
X156169075Y-140258515D01*
X157597646Y-139972800D02*
X157407170Y-139972800D01*
X157311932Y-140020420D01*
X157264313Y-140068039D01*
X157169075Y-140210896D01*
X157121456Y-140401372D01*
X157121456Y-140782324D01*
X157169075Y-140877562D01*
X157216694Y-140925181D01*
X157311932Y-140972800D01*
X157502408Y-140972800D01*
X157597646Y-140925181D01*
X157645265Y-140877562D01*
X157692884Y-140782324D01*
X157692884Y-140544229D01*
X157645265Y-140448991D01*
X157597646Y-140401372D01*
X157502408Y-140353753D01*
X157311932Y-140353753D01*
X157216694Y-140401372D01*
X157169075Y-140448991D01*
X157121456Y-140544229D01*
G04 #@! TO.C,J1*
X198436906Y-55223160D02*
X198436906Y-55937446D01*
X198389287Y-56080303D01*
X198294049Y-56175541D01*
X198151192Y-56223160D01*
X198055954Y-56223160D01*
X199436906Y-56223160D02*
X198865478Y-56223160D01*
X199151192Y-56223160D02*
X199151192Y-55223160D01*
X199055954Y-55366018D01*
X198960716Y-55461256D01*
X198865478Y-55508875D01*
G04 #@! TO.C,J3*
X176445586Y-119436900D02*
X176445586Y-120151186D01*
X176397967Y-120294043D01*
X176302729Y-120389281D01*
X176159872Y-120436900D01*
X176064634Y-120436900D01*
X176826539Y-119436900D02*
X177445586Y-119436900D01*
X177112253Y-119817853D01*
X177255110Y-119817853D01*
X177350348Y-119865472D01*
X177397967Y-119913091D01*
X177445586Y-120008329D01*
X177445586Y-120246424D01*
X177397967Y-120341662D01*
X177350348Y-120389281D01*
X177255110Y-120436900D01*
X176969396Y-120436900D01*
X176874158Y-120389281D01*
X176826539Y-120341662D01*
G04 #@! TO.C,MH3*
X158684126Y-60083960D02*
X158684126Y-59083960D01*
X159017460Y-59798246D01*
X159350793Y-59083960D01*
X159350793Y-60083960D01*
X159826983Y-60083960D02*
X159826983Y-59083960D01*
X159826983Y-59560151D02*
X160398412Y-59560151D01*
X160398412Y-60083960D02*
X160398412Y-59083960D01*
X160779364Y-59083960D02*
X161398412Y-59083960D01*
X161065079Y-59464913D01*
X161207936Y-59464913D01*
X161303174Y-59512532D01*
X161350793Y-59560151D01*
X161398412Y-59655389D01*
X161398412Y-59893484D01*
X161350793Y-59988722D01*
X161303174Y-60036341D01*
X161207936Y-60083960D01*
X160922221Y-60083960D01*
X160826983Y-60036341D01*
X160779364Y-59988722D01*
G04 #@! TO.C,S1*
X183510015Y-61100601D02*
X183652872Y-61148220D01*
X183890967Y-61148220D01*
X183986205Y-61100601D01*
X184033824Y-61052982D01*
X184081443Y-60957744D01*
X184081443Y-60862506D01*
X184033824Y-60767268D01*
X183986205Y-60719649D01*
X183890967Y-60672030D01*
X183700491Y-60624411D01*
X183605253Y-60576792D01*
X183557634Y-60529173D01*
X183510015Y-60433935D01*
X183510015Y-60338697D01*
X183557634Y-60243459D01*
X183605253Y-60195840D01*
X183700491Y-60148220D01*
X183938586Y-60148220D01*
X184081443Y-60195840D01*
X185033824Y-61148220D02*
X184462396Y-61148220D01*
X184748110Y-61148220D02*
X184748110Y-60148220D01*
X184652872Y-60291078D01*
X184557634Y-60386316D01*
X184462396Y-60433935D01*
G04 #@! TD*
M02*
