G04 #@! TF.GenerationSoftware,KiCad,Pcbnew,(5.0.0-3-g5ebb6b6)*
G04 #@! TF.CreationDate,2019-09-06T01:44:35-07:00*
G04 #@! TF.ProjectId,mouse,6D6F7573652E6B696361645F70636200,rev?*
G04 #@! TF.SameCoordinates,Original*
G04 #@! TF.FileFunction,Copper,L1,Top,Signal*
G04 #@! TF.FilePolarity,Positive*
%FSLAX46Y46*%
G04 Gerber Fmt 4.6, Leading zero omitted, Abs format (unit mm)*
G04 Created by KiCad (PCBNEW (5.0.0-3-g5ebb6b6)) date Friday, September 06, 2019 at 01:44:35 AM*
%MOMM*%
%LPD*%
G01*
G04 APERTURE LIST*
G04 #@! TA.AperFunction,ComponentPad*
%ADD10R,1.700000X1.700000*%
G04 #@! TD*
G04 #@! TA.AperFunction,ComponentPad*
%ADD11O,1.700000X1.700000*%
G04 #@! TD*
G04 #@! TA.AperFunction,ComponentPad*
%ADD12C,1.800000*%
G04 #@! TD*
G04 #@! TA.AperFunction,ComponentPad*
%ADD13R,1.800000X1.800000*%
G04 #@! TD*
G04 #@! TA.AperFunction,Conductor*
%ADD14C,0.100000*%
G04 #@! TD*
G04 #@! TA.AperFunction,ComponentPad*
%ADD15C,1.600000*%
G04 #@! TD*
G04 #@! TA.AperFunction,ComponentPad*
%ADD16O,1.600000X1.600000*%
G04 #@! TD*
G04 #@! TA.AperFunction,ComponentPad*
%ADD17R,1.600000X1.600000*%
G04 #@! TD*
G04 #@! TA.AperFunction,ComponentPad*
%ADD18C,1.900000*%
G04 #@! TD*
G04 #@! TA.AperFunction,ComponentPad*
%ADD19R,1.676400X1.676400*%
G04 #@! TD*
G04 #@! TA.AperFunction,ComponentPad*
%ADD20C,1.676400*%
G04 #@! TD*
G04 #@! TA.AperFunction,ComponentPad*
%ADD21C,1.524000*%
G04 #@! TD*
G04 #@! TA.AperFunction,ComponentPad*
%ADD22C,2.286000*%
G04 #@! TD*
G04 #@! TA.AperFunction,ViaPad*
%ADD23C,1.600000*%
G04 #@! TD*
G04 #@! TA.AperFunction,ViaPad*
%ADD24C,0.800000*%
G04 #@! TD*
G04 #@! TA.AperFunction,Conductor*
%ADD25C,0.750000*%
G04 #@! TD*
G04 #@! TA.AperFunction,Conductor*
%ADD26C,0.250000*%
G04 #@! TD*
G04 #@! TA.AperFunction,Conductor*
%ADD27C,0.500000*%
G04 #@! TD*
G04 #@! TA.AperFunction,Conductor*
%ADD28C,0.254000*%
G04 #@! TD*
G04 APERTURE END LIST*
D10*
G04 #@! TO.P,BT1,1*
G04 #@! TO.N,/vBatt*
X129032000Y-88138000D03*
D11*
G04 #@! TO.P,BT1,2*
G04 #@! TO.N,/GND*
X129032000Y-90678000D03*
G04 #@! TD*
D12*
G04 #@! TO.P,D0,2*
G04 #@! TO.N,Net-(D0-Pad2)*
X198691500Y-109601000D03*
D13*
G04 #@! TO.P,D0,1*
G04 #@! TO.N,/GND*
X196151500Y-109601000D03*
G04 #@! TD*
D12*
G04 #@! TO.P,D1,1*
G04 #@! TO.N,/GND*
X163322000Y-140525500D03*
D14*
G04 #@! TD*
G04 #@! TO.N,/GND*
G04 #@! TO.C,D1*
G36*
X163725863Y-141732519D02*
X162114981Y-140929363D01*
X162918137Y-139318481D01*
X164529019Y-140121637D01*
X163725863Y-141732519D01*
X163725863Y-141732519D01*
G37*
D12*
G04 #@! TO.P,D1,2*
G04 #@! TO.N,Net-(D1-Pad2)*
X164455342Y-138252367D03*
G04 #@! TD*
G04 #@! TO.P,D2,2*
G04 #@! TO.N,Net-(D2-Pad2)*
X120904000Y-109537500D03*
D13*
G04 #@! TO.P,D2,1*
G04 #@! TO.N,/GND*
X118364000Y-109537500D03*
G04 #@! TD*
D12*
G04 #@! TO.P,D3,1*
G04 #@! TO.N,/GND*
X152527000Y-138303000D03*
D14*
G04 #@! TD*
G04 #@! TO.N,/GND*
G04 #@! TO.C,D3*
G36*
X151319981Y-137899137D02*
X152930863Y-137095981D01*
X153734019Y-138706863D01*
X152123137Y-139510019D01*
X151319981Y-137899137D01*
X151319981Y-137899137D01*
G37*
D12*
G04 #@! TO.P,D3,2*
G04 #@! TO.N,Net-(D3-Pad2)*
X153660342Y-140576133D03*
G04 #@! TD*
D13*
G04 #@! TO.P,Q0,1*
G04 #@! TO.N,/3.3v*
X201164677Y-109616645D03*
D12*
G04 #@! TO.P,Q0,2*
G04 #@! TO.N,/Reciever_0*
X203704677Y-109616645D03*
G04 #@! TD*
G04 #@! TO.P,Q1,2*
G04 #@! TO.N,/Reciever_1*
X166677842Y-133743867D03*
G04 #@! TO.P,Q1,1*
G04 #@! TO.N,/3.3v*
X165544500Y-136017000D03*
D14*
G04 #@! TD*
G04 #@! TO.N,/3.3v*
G04 #@! TO.C,Q1*
G36*
X165948363Y-137224019D02*
X164337481Y-136420863D01*
X165140637Y-134809981D01*
X166751519Y-135613137D01*
X165948363Y-137224019D01*
X165948363Y-137224019D01*
G37*
D13*
G04 #@! TO.P,Q2,1*
G04 #@! TO.N,/3.3v*
X113346989Y-109548045D03*
D12*
G04 #@! TO.P,Q2,2*
G04 #@! TO.N,/Reciever_2*
X115886989Y-109548045D03*
G04 #@! TD*
G04 #@! TO.P,Q3,2*
G04 #@! TO.N,/Reciever_3*
X151384000Y-136080500D03*
G04 #@! TO.P,Q3,1*
G04 #@! TO.N,/3.3v*
X150250658Y-133807367D03*
D14*
G04 #@! TD*
G04 #@! TO.N,/3.3v*
G04 #@! TO.C,Q3*
G36*
X149043639Y-133403504D02*
X150654521Y-132600348D01*
X151457677Y-134211230D01*
X149846795Y-135014386D01*
X149043639Y-133403504D01*
X149043639Y-133403504D01*
G37*
D15*
G04 #@! TO.P,R0,1*
G04 #@! TO.N,Net-(D0-Pad2)*
X197358000Y-106743500D03*
D16*
G04 #@! TO.P,R0,2*
G04 #@! TO.N,/Emitter_0*
X197358000Y-104203500D03*
G04 #@! TD*
G04 #@! TO.P,R1,2*
G04 #@! TO.N,/Emitter_1*
X160528000Y-145288000D03*
D15*
G04 #@! TO.P,R1,1*
G04 #@! TO.N,Net-(D1-Pad2)*
X160528000Y-142748000D03*
G04 #@! TD*
D16*
G04 #@! TO.P,R2,2*
G04 #@! TO.N,/Emitter_2*
X119570500Y-104203500D03*
D15*
G04 #@! TO.P,R2,1*
G04 #@! TO.N,Net-(D2-Pad2)*
X119570500Y-106743500D03*
G04 #@! TD*
G04 #@! TO.P,R3,1*
G04 #@! TO.N,Net-(D3-Pad2)*
X156527500Y-142684500D03*
D16*
G04 #@! TO.P,R3,2*
G04 #@! TO.N,/Emitter_3*
X156527500Y-145224500D03*
G04 #@! TD*
D15*
G04 #@! TO.P,R4,1*
G04 #@! TO.N,/GND*
X201866500Y-106807000D03*
D16*
G04 #@! TO.P,R4,2*
G04 #@! TO.N,/Reciever_0*
X204406500Y-106807000D03*
G04 #@! TD*
G04 #@! TO.P,R5,2*
G04 #@! TO.N,/Reciever_1*
X160274000Y-136334500D03*
D15*
G04 #@! TO.P,R5,1*
G04 #@! TO.N,/GND*
X160274000Y-133794500D03*
G04 #@! TD*
G04 #@! TO.P,R6,1*
G04 #@! TO.N,/GND*
X112903000Y-105918000D03*
D16*
G04 #@! TO.P,R6,2*
G04 #@! TO.N,/Reciever_2*
X115443000Y-105918000D03*
G04 #@! TD*
G04 #@! TO.P,R7,2*
G04 #@! TO.N,/Reciever_3*
X156781500Y-136334500D03*
D15*
G04 #@! TO.P,R7,1*
G04 #@! TO.N,/GND*
X156781500Y-133794500D03*
G04 #@! TD*
G04 #@! TO.P,U1,17*
G04 #@! TO.N,/GND*
X142748000Y-86360000D03*
G04 #@! TO.P,U1,18*
G04 #@! TO.N,Net-(U1-Pad18)*
X142748000Y-88900000D03*
G04 #@! TO.P,U1,19*
G04 #@! TO.N,Net-(U1-Pad19)*
X142748000Y-91440000D03*
G04 #@! TO.P,U1,20*
G04 #@! TO.N,/Reciever_2*
X142748000Y-93980000D03*
G04 #@! TO.P,U1,16*
G04 #@! TO.N,/3.3v*
X142748000Y-83820000D03*
G04 #@! TO.P,U1,15*
G04 #@! TO.N,Net-(U1-Pad15)*
X142748000Y-81280000D03*
G04 #@! TO.P,U1,14*
G04 #@! TO.N,/PUSH_SW*
X142748000Y-78740000D03*
G04 #@! TO.P,U1,21*
G04 #@! TO.N,/Reciever_3*
X145288000Y-93980000D03*
G04 #@! TO.P,U1,22*
G04 #@! TO.N,/Reciever_1*
X147828000Y-93980000D03*
G04 #@! TO.P,U1,23*
G04 #@! TO.N,/Reciever_0*
X150368000Y-93980000D03*
G04 #@! TO.P,U1,24*
G04 #@! TO.N,/Buzzer*
X152908000Y-93980000D03*
G04 #@! TO.P,U1,25*
G04 #@! TO.N,/i2c_SDA*
X155448000Y-93980000D03*
G04 #@! TO.P,U1,26*
G04 #@! TO.N,/i2c_SCL*
X157988000Y-93980000D03*
G04 #@! TO.P,U1,27*
G04 #@! TO.N,/Emitter_2*
X160528000Y-93980000D03*
G04 #@! TO.P,U1,28*
G04 #@! TO.N,/Emitter_3*
X163068000Y-93980000D03*
G04 #@! TO.P,U1,29*
G04 #@! TO.N,/Emitter_1*
X165608000Y-93980000D03*
G04 #@! TO.P,U1,30*
G04 #@! TO.N,/Emitter_0*
X168148000Y-93980000D03*
G04 #@! TO.P,U1,31*
G04 #@! TO.N,Net-(U1-Pad31)*
X170688000Y-93980000D03*
G04 #@! TO.P,U1,32*
G04 #@! TO.N,Net-(U1-Pad32)*
X173228000Y-93980000D03*
G04 #@! TO.P,U1,33*
G04 #@! TO.N,/5v*
X175768000Y-93980000D03*
G04 #@! TO.P,U1,34*
G04 #@! TO.N,Net-(U1-Pad34)*
X173228000Y-91440000D03*
G04 #@! TO.P,U1,35*
G04 #@! TO.N,Net-(U1-Pad35)*
X168148000Y-91440000D03*
G04 #@! TO.P,U1,36*
G04 #@! TO.N,Net-(U1-Pad36)*
X165608000Y-91440000D03*
G04 #@! TO.P,U1,37*
G04 #@! TO.N,Net-(U1-Pad37)*
X163068000Y-91440000D03*
G04 #@! TO.P,U1,13*
G04 #@! TO.N,/STATUS_LED_1*
X145288000Y-78740000D03*
G04 #@! TO.P,U1,12*
G04 #@! TO.N,/STATUS_LED_0*
X147828000Y-78740000D03*
G04 #@! TO.P,U1,11*
G04 #@! TO.N,/M1_encoder_B*
X150368000Y-78740000D03*
G04 #@! TO.P,U1,10*
G04 #@! TO.N,/M1_encoder_A*
X152908000Y-78740000D03*
G04 #@! TO.P,U1,9*
G04 #@! TO.N,/M2_encoder_B*
X155448000Y-78740000D03*
G04 #@! TO.P,U1,8*
G04 #@! TO.N,/M2_encoder_A*
X157988000Y-78740000D03*
G04 #@! TO.P,U1,7*
G04 #@! TO.N,/M2_speed*
X160528000Y-78740000D03*
G04 #@! TO.P,U1,6*
G04 #@! TO.N,/M1_speed*
X163068000Y-78740000D03*
G04 #@! TO.P,U1,5*
G04 #@! TO.N,/M2_backward*
X165608000Y-78740000D03*
G04 #@! TO.P,U1,4*
G04 #@! TO.N,/M2_forward*
X168148000Y-78740000D03*
G04 #@! TO.P,U1,3*
G04 #@! TO.N,/M1_forward*
X170688000Y-78740000D03*
G04 #@! TO.P,U1,2*
G04 #@! TO.N,/M1_backward*
X173228000Y-78740000D03*
D17*
G04 #@! TO.P,U1,1*
G04 #@! TO.N,/GND*
X175768000Y-78740000D03*
D15*
G04 #@! TO.P,U1,38*
G04 #@! TO.N,Net-(U1-Pad38)*
X160528000Y-86360000D03*
G04 #@! TO.P,U1,39*
G04 #@! TO.N,Net-(U1-Pad39)*
X157988000Y-86360000D03*
G04 #@! TO.P,U1,40*
G04 #@! TO.N,Net-(U1-Pad40)*
X155448000Y-86360000D03*
G04 #@! TO.P,U1,41*
G04 #@! TO.N,Net-(U1-Pad41)*
X152908000Y-86360000D03*
G04 #@! TO.P,U1,42*
G04 #@! TO.N,Net-(U1-Pad42)*
X150368000Y-86360000D03*
G04 #@! TO.P,U1,43*
G04 #@! TO.N,Net-(U1-Pad43)*
X147828000Y-86360000D03*
G04 #@! TO.P,U1,44*
G04 #@! TO.N,Net-(U1-Pad44)*
X145288000Y-86360000D03*
G04 #@! TO.P,U1,45*
G04 #@! TO.N,Net-(U1-Pad45)*
X145288000Y-88900000D03*
G04 #@! TO.P,U1,46*
G04 #@! TO.N,Net-(U1-Pad46)*
X147828000Y-88900000D03*
G04 #@! TO.P,U1,47*
G04 #@! TO.N,Net-(U1-Pad47)*
X150368000Y-88900000D03*
G04 #@! TO.P,U1,48*
G04 #@! TO.N,Net-(U1-Pad48)*
X152908000Y-88900000D03*
G04 #@! TO.P,U1,49*
G04 #@! TO.N,Net-(U1-Pad49)*
X155448000Y-88900000D03*
G04 #@! TO.P,U1,50*
G04 #@! TO.N,Net-(U1-Pad50)*
X157988000Y-88900000D03*
G04 #@! TO.P,U1,51*
G04 #@! TO.N,Net-(U1-Pad51)*
X160528000Y-88900000D03*
D18*
G04 #@! TO.P,U1,52*
G04 #@! TO.N,Net-(U1-Pad52)*
X165608000Y-86360000D03*
X169418000Y-86360000D03*
G04 #@! TD*
D19*
G04 #@! TO.P,U2,1*
G04 #@! TO.N,/M1_speed*
X203200000Y-87376000D03*
D20*
G04 #@! TO.P,U2,2*
G04 #@! TO.N,/M1_forward*
X200660000Y-87376000D03*
G04 #@! TO.P,U2,3*
G04 #@! TO.N,/OUT1*
X198120000Y-87376000D03*
G04 #@! TO.P,U2,4*
G04 #@! TO.N,/GND*
X195580000Y-87376000D03*
G04 #@! TO.P,U2,5*
X193040000Y-87376000D03*
G04 #@! TO.P,U2,6*
G04 #@! TO.N,/OUT2*
X190500000Y-87376000D03*
G04 #@! TO.P,U2,7*
G04 #@! TO.N,/M1_backward*
X187960000Y-87376000D03*
G04 #@! TO.P,U2,8*
G04 #@! TO.N,/5v*
X185420000Y-87376000D03*
G04 #@! TO.P,U2,9*
G04 #@! TO.N,/M2_speed*
X185420000Y-94996000D03*
G04 #@! TO.P,U2,10*
G04 #@! TO.N,/M2_forward*
X187960000Y-94996000D03*
G04 #@! TO.P,U2,11*
G04 #@! TO.N,/OUT3*
X190500000Y-94996000D03*
G04 #@! TO.P,U2,12*
G04 #@! TO.N,/GND*
X193040000Y-94996000D03*
G04 #@! TO.P,U2,13*
X195580000Y-94996000D03*
G04 #@! TO.P,U2,14*
G04 #@! TO.N,/OUT4*
X198120000Y-94996000D03*
G04 #@! TO.P,U2,15*
G04 #@! TO.N,/M2_backward*
X200660000Y-94996000D03*
G04 #@! TO.P,U2,16*
G04 #@! TO.N,/5v*
X203200000Y-94996000D03*
G04 #@! TD*
D10*
G04 #@! TO.P,U3,1*
G04 #@! TO.N,/GND*
X161036000Y-58928000D03*
D11*
G04 #@! TO.P,U3,2*
G04 #@! TO.N,/5v*
X158496000Y-58928000D03*
G04 #@! TO.P,U3,3*
G04 #@! TO.N,/vBatt*
X155956000Y-58928000D03*
G04 #@! TD*
D21*
G04 #@! TO.P,BZ1,2*
G04 #@! TO.N,/GND*
X158496000Y-70826000D03*
G04 #@! TO.P,BZ1,1*
G04 #@! TO.N,Net-(BZ1-Pad1)*
X158446000Y-65826000D03*
G04 #@! TD*
D10*
G04 #@! TO.P,GND,1*
G04 #@! TO.N,/GND*
X132029200Y-90728800D03*
G04 #@! TD*
G04 #@! TO.P,SCL,1*
G04 #@! TO.N,/i2c_SCL*
X158038800Y-100076000D03*
G04 #@! TD*
G04 #@! TO.P,SDA,1*
G04 #@! TO.N,/i2c_SDA*
X155397200Y-100076000D03*
G04 #@! TD*
G04 #@! TO.P,BT,1*
G04 #@! TO.N,/vBatt*
X131978400Y-88138000D03*
G04 #@! TD*
D15*
G04 #@! TO.P,R8,1*
G04 #@! TO.N,Net-(D4-Pad2)*
X204470000Y-99060000D03*
D16*
G04 #@! TO.P,R8,2*
G04 #@! TO.N,/STATUS_LED_0*
X201930000Y-99060000D03*
G04 #@! TD*
G04 #@! TO.P,R9,2*
G04 #@! TO.N,/STATUS_LED_1*
X112268000Y-98806000D03*
D15*
G04 #@! TO.P,R9,1*
G04 #@! TO.N,Net-(D5-Pad2)*
X114808000Y-98806000D03*
G04 #@! TD*
D16*
G04 #@! TO.P,R10,2*
G04 #@! TO.N,/Buzzer*
X157226000Y-62230000D03*
D15*
G04 #@! TO.P,R10,1*
G04 #@! TO.N,Net-(BZ1-Pad1)*
X159766000Y-62230000D03*
G04 #@! TD*
G04 #@! TO.P,R11,1*
G04 #@! TO.N,/PUSH_SW*
X112903000Y-86614000D03*
D16*
G04 #@! TO.P,R11,2*
G04 #@! TO.N,/GND*
X112903000Y-89154000D03*
G04 #@! TD*
D22*
G04 #@! TO.P,SW1,1*
G04 #@! TO.N,/3.3v*
X116586000Y-87884000D03*
G04 #@! TO.P,SW1,2*
G04 #@! TO.N,/PUSH_SW*
X122936000Y-90424000D03*
G04 #@! TD*
D11*
G04 #@! TO.P,U4,6*
G04 #@! TO.N,/OUT4*
X180594000Y-58928000D03*
G04 #@! TO.P,U4,5*
G04 #@! TO.N,/OUT3*
X178054000Y-58928000D03*
G04 #@! TO.P,U4,4*
G04 #@! TO.N,/5v*
X175514000Y-58928000D03*
G04 #@! TO.P,U4,3*
G04 #@! TO.N,/M2_encoder_A*
X172974000Y-58928000D03*
G04 #@! TO.P,U4,2*
G04 #@! TO.N,/M2_encoder_B*
X170434000Y-58928000D03*
D10*
G04 #@! TO.P,U4,1*
G04 #@! TO.N,/GND*
X167894000Y-58928000D03*
G04 #@! TD*
G04 #@! TO.P,U5,1*
G04 #@! TO.N,/GND*
X136652000Y-58928000D03*
D11*
G04 #@! TO.P,U5,2*
G04 #@! TO.N,/M1_encoder_B*
X139192000Y-58928000D03*
G04 #@! TO.P,U5,3*
G04 #@! TO.N,/M1_encoder_A*
X141732000Y-58928000D03*
G04 #@! TO.P,U5,4*
G04 #@! TO.N,/5v*
X144272000Y-58928000D03*
G04 #@! TO.P,U5,5*
G04 #@! TO.N,/OUT1*
X146812000Y-58928000D03*
G04 #@! TO.P,U5,6*
G04 #@! TO.N,/OUT2*
X149352000Y-58928000D03*
G04 #@! TD*
D23*
G04 #@! TO.N,/vBatt*
X127508000Y-78232000D03*
G04 #@! TO.N,/GND*
X136194800Y-100736400D03*
X130810000Y-100736400D03*
X172262800Y-96672400D03*
X126339600Y-100838000D03*
D24*
G04 #@! TO.N,/3.3v*
X154241500Y-133032500D03*
D23*
X198437500Y-101092000D03*
X190436500Y-101731500D03*
D24*
G04 #@! TO.N,/Reciever_0*
X192684400Y-113995200D03*
X165760400Y-129895600D03*
D23*
G04 #@! TO.N,/5v*
X178054000Y-78994000D03*
D24*
G04 #@! TO.N,/M2_forward*
X170688000Y-81280000D03*
D23*
G04 #@! TO.N,/OUT4*
X190500000Y-90170000D03*
D24*
G04 #@! TO.N,/STATUS_LED_0*
X183642000Y-95250000D03*
X175006000Y-96012000D03*
G04 #@! TO.N,/Buzzer*
X154178000Y-81407000D03*
X155194000Y-75565000D03*
G04 #@! TD*
D25*
G04 #@! TO.N,/vBatt*
X155956000Y-57725919D02*
X153856081Y-55626000D01*
X155956000Y-58928000D02*
X155956000Y-57725919D01*
X153856081Y-55626000D02*
X128778000Y-55626000D01*
X127508000Y-56896000D02*
X128778000Y-55626000D01*
X127508000Y-78232000D02*
X127508000Y-56896000D01*
D26*
G04 #@! TO.N,Net-(D2-Pad2)*
X120904000Y-108077000D02*
X119570500Y-106743500D01*
X120904000Y-109537500D02*
X120904000Y-108077000D01*
G04 #@! TO.N,/3.3v*
X120142000Y-87884000D02*
X116586000Y-87884000D01*
X120904000Y-88646000D02*
X120142000Y-87884000D01*
X128270000Y-86614000D02*
X124460000Y-86614000D01*
X123952000Y-87122000D02*
X123952000Y-88646000D01*
X121920000Y-92964000D02*
X121920000Y-91948000D01*
X121920000Y-91948000D02*
X120904000Y-90932000D01*
X124714000Y-94488000D02*
X123444000Y-94488000D01*
X125730000Y-93472000D02*
X124714000Y-94488000D01*
X142748000Y-83820000D02*
X131064000Y-83820000D01*
X125730000Y-90424000D02*
X125730000Y-93472000D01*
X124460000Y-86614000D02*
X123952000Y-87122000D01*
X123444000Y-94488000D02*
X121920000Y-92964000D01*
X123952000Y-88646000D02*
X125730000Y-90424000D01*
X120904000Y-90932000D02*
X120904000Y-88646000D01*
X131064000Y-83820000D02*
X128270000Y-86614000D01*
X165544500Y-136017000D02*
X163004500Y-136017000D01*
X163004500Y-136017000D02*
X160972500Y-138049000D01*
X160972500Y-138049000D02*
X159385000Y-138049000D01*
X159385000Y-138049000D02*
X158559500Y-137223500D01*
X158559500Y-137223500D02*
X158559500Y-132905500D01*
X158559500Y-132905500D02*
X157861000Y-132207000D01*
X155067000Y-132207000D02*
X154241500Y-133032500D01*
X157861000Y-132207000D02*
X155067000Y-132207000D01*
X113346989Y-110698045D02*
X113346989Y-109548045D01*
X114027944Y-111379000D02*
X113346989Y-110698045D01*
X120967500Y-111379000D02*
X114027944Y-111379000D01*
X121983500Y-112395000D02*
X120967500Y-111379000D01*
X127571500Y-124079000D02*
X123952000Y-120459500D01*
X121983500Y-114109500D02*
X121983500Y-112395000D01*
X123952000Y-116078000D02*
X121983500Y-114109500D01*
X127571500Y-126682500D02*
X127571500Y-124079000D01*
X132080000Y-131191000D02*
X127571500Y-126682500D01*
X148739951Y-131191000D02*
X132080000Y-131191000D01*
X150250658Y-132701707D02*
X148739951Y-131191000D01*
X123952000Y-120459500D02*
X123952000Y-116078000D01*
X150250658Y-133807367D02*
X150250658Y-132701707D01*
D27*
X198437500Y-101092000D02*
X192341500Y-101092000D01*
X191702000Y-101731500D02*
X190436500Y-101731500D01*
X192341500Y-101092000D02*
X191702000Y-101731500D01*
D26*
G04 #@! TO.N,/Reciever_0*
X150368000Y-93980000D02*
X150368000Y-97917000D01*
X150368000Y-97917000D02*
X148717000Y-99568000D01*
X148717000Y-99568000D02*
X127508000Y-99568000D01*
X124334749Y-99568000D02*
X123952000Y-99950749D01*
X127508000Y-99568000D02*
X124334749Y-99568000D01*
X123952000Y-99950749D02*
X123952000Y-101155500D01*
X123952000Y-101155500D02*
X123952000Y-101346000D01*
X201688322Y-111633000D02*
X203704677Y-109616645D01*
X195199000Y-111633000D02*
X201688322Y-111633000D01*
X129286000Y-123698000D02*
X129286000Y-126238000D01*
X125539500Y-119951500D02*
X129286000Y-123698000D01*
X125539500Y-115543106D02*
X125539500Y-119951500D01*
X123952000Y-101155500D02*
X123952000Y-101663500D01*
X123455020Y-108656700D02*
X123455020Y-113422020D01*
X129286000Y-126238000D02*
X132636161Y-129588161D01*
X123170990Y-108372670D02*
X123455020Y-108656700D01*
X123952000Y-101663500D02*
X123170990Y-102444510D01*
X125517224Y-115484224D02*
X125539500Y-115543106D01*
X123455020Y-113422020D02*
X125517224Y-115484224D01*
X123170990Y-102444510D02*
X123170990Y-108372670D01*
X195046600Y-111633000D02*
X192684400Y-113995200D01*
X195199000Y-111633000D02*
X195046600Y-111633000D01*
X164887276Y-129588161D02*
X132636161Y-129588161D01*
X165194715Y-129895600D02*
X164887276Y-129588161D01*
X165760400Y-129895600D02*
X165194715Y-129895600D01*
G04 #@! TO.N,/Reciever_1*
X162972146Y-130038171D02*
X166677842Y-133743867D01*
X132449761Y-130038171D02*
X162972146Y-130038171D01*
X128778000Y-123826410D02*
X128778000Y-126366410D01*
X123005010Y-113670510D02*
X125031500Y-115697000D01*
X128778000Y-126366410D02*
X132449761Y-130038171D01*
X123444000Y-99822339D02*
X123444000Y-101092000D01*
X123005010Y-108843100D02*
X123005010Y-113670510D01*
X123444000Y-101092000D02*
X122682000Y-101854000D01*
X122682000Y-101854000D02*
X122682000Y-108520090D01*
X125031500Y-120079910D02*
X128778000Y-123826410D01*
X147066000Y-99060000D02*
X124206339Y-99060000D01*
X147828000Y-98298000D02*
X147066000Y-99060000D01*
X122682000Y-108520090D02*
X123005010Y-108843100D01*
X124206339Y-99060000D02*
X123444000Y-99822339D01*
X125031500Y-115697000D02*
X125031500Y-120079910D01*
X147828000Y-93980000D02*
X147828000Y-98298000D01*
X166677842Y-133743867D02*
X163499633Y-133743867D01*
X163499633Y-133743867D02*
X162242500Y-135001000D01*
X161607500Y-135001000D02*
X160274000Y-136334500D01*
X162242500Y-135001000D02*
X161607500Y-135001000D01*
G04 #@! TO.N,/Reciever_2*
X115633500Y-109294556D02*
X115886989Y-109548045D01*
X116522500Y-101346000D02*
X115443000Y-102425500D01*
X115443000Y-102425500D02*
X115443000Y-105918000D01*
X122428000Y-99565519D02*
X122428000Y-100520500D01*
X142367000Y-97917000D02*
X124076519Y-97917000D01*
X121602500Y-101346000D02*
X116522500Y-101346000D01*
X122428000Y-100520500D02*
X121602500Y-101346000D01*
X142748000Y-97536000D02*
X142367000Y-97917000D01*
X124076519Y-97917000D02*
X122428000Y-99565519D01*
X142748000Y-93980000D02*
X142748000Y-97536000D01*
X115443000Y-109104056D02*
X115886989Y-109548045D01*
X115443000Y-105918000D02*
X115443000Y-109104056D01*
G04 #@! TO.N,/Reciever_3*
X152654000Y-131889500D02*
X152654000Y-134810500D01*
X151320500Y-130556000D02*
X152654000Y-131889500D01*
X132331180Y-130556000D02*
X151320500Y-130556000D01*
X128270000Y-126494820D02*
X132331180Y-130556000D01*
X128270000Y-123954820D02*
X128270000Y-126494820D01*
X124523500Y-115887500D02*
X124523500Y-120208320D01*
X122555000Y-113919000D02*
X124523500Y-115887500D01*
X122555000Y-109029500D02*
X122555000Y-113919000D01*
X124077929Y-98552000D02*
X122936000Y-99693929D01*
X122174000Y-101600000D02*
X122174000Y-108648500D01*
X122936000Y-100838000D02*
X122174000Y-101600000D01*
X145288000Y-98171000D02*
X144907000Y-98552000D01*
X122936000Y-99693929D02*
X122936000Y-100838000D01*
X122174000Y-108648500D02*
X122555000Y-109029500D01*
X152654000Y-134810500D02*
X151384000Y-136080500D01*
X124523500Y-120208320D02*
X128270000Y-123954820D01*
X144907000Y-98552000D02*
X124077929Y-98552000D01*
X145288000Y-93980000D02*
X145288000Y-98171000D01*
X156527500Y-136080500D02*
X156781500Y-136334500D01*
X151384000Y-136080500D02*
X156527500Y-136080500D01*
G04 #@! TO.N,/M2_speed*
X160528000Y-79871370D02*
X162952630Y-82296000D01*
X160528000Y-78740000D02*
X160528000Y-79871370D01*
X162952630Y-82296000D02*
X177292000Y-82296000D01*
X177292000Y-82296000D02*
X182880000Y-87884000D01*
X182880000Y-88912430D02*
X184391570Y-90424000D01*
X182880000Y-87884000D02*
X182880000Y-88912430D01*
X184391570Y-90424000D02*
X184404000Y-90424000D01*
X185420000Y-91440000D02*
X185420000Y-94996000D01*
X184404000Y-90424000D02*
X185420000Y-91440000D01*
G04 #@! TO.N,/M1_speed*
X163068000Y-78740000D02*
X165608000Y-76200000D01*
X178944410Y-76200000D02*
X188088410Y-85344000D01*
X165608000Y-76200000D02*
X178944410Y-76200000D01*
X199264410Y-85344000D02*
X199772410Y-85852000D01*
X188088410Y-85344000D02*
X199264410Y-85344000D01*
X203200000Y-86287800D02*
X203200000Y-87376000D01*
X202764200Y-85852000D02*
X203200000Y-86287800D01*
X199772410Y-85852000D02*
X202764200Y-85852000D01*
D27*
G04 #@! TO.N,/5v*
X185420000Y-87376000D02*
X185420000Y-86106000D01*
X185420000Y-86106000D02*
X178816000Y-79502000D01*
X178308000Y-78994000D02*
X178054000Y-78994000D01*
X178816000Y-79502000D02*
X178308000Y-78994000D01*
X176567999Y-94779999D02*
X175768000Y-93980000D01*
X178375010Y-96587010D02*
X176567999Y-94779999D01*
X201608990Y-96587010D02*
X178375010Y-96587010D01*
X203200000Y-94996000D02*
X201608990Y-96587010D01*
X158496000Y-58928000D02*
X156718000Y-60706000D01*
X146050000Y-60706000D02*
X144272000Y-58928000D01*
X156718000Y-60706000D02*
X146050000Y-60706000D01*
D26*
G04 #@! TO.N,/M1_forward*
X199136000Y-85852000D02*
X200660000Y-87376000D01*
X187960000Y-85852000D02*
X199136000Y-85852000D01*
X178873991Y-76765991D02*
X187960000Y-85852000D01*
X172662009Y-76765991D02*
X178873991Y-76765991D01*
X170688000Y-78740000D02*
X172662009Y-76765991D01*
G04 #@! TO.N,/M1_backward*
X187960000Y-86868000D02*
X187960000Y-87376000D01*
X178308000Y-77216000D02*
X187960000Y-86868000D01*
X174752000Y-77216000D02*
X178308000Y-77216000D01*
X173228000Y-78740000D02*
X174752000Y-77216000D01*
G04 #@! TO.N,/M2_forward*
X187960000Y-90932000D02*
X187960000Y-94996000D01*
X186436000Y-89408000D02*
X187960000Y-90932000D01*
X184011980Y-89408000D02*
X186436000Y-89408000D01*
X183445990Y-87433990D02*
X183445990Y-88842010D01*
X183445990Y-88842010D02*
X184011980Y-89408000D01*
X177292000Y-81280000D02*
X183445990Y-87433990D01*
X170688000Y-81280000D02*
X177292000Y-81280000D01*
D27*
G04 #@! TO.N,/OUT4*
X190500000Y-90170000D02*
X197104000Y-90170000D01*
X198120000Y-91186000D02*
X198120000Y-94996000D01*
X197104000Y-90170000D02*
X198120000Y-91186000D01*
D26*
G04 #@! TO.N,/M2_backward*
X200660000Y-91948000D02*
X200660000Y-94996000D01*
X197612000Y-88900000D02*
X200660000Y-91948000D01*
X165608000Y-78740000D02*
X167132000Y-80264000D01*
X183896000Y-86868000D02*
X183896000Y-88392000D01*
X183896000Y-88392000D02*
X184404000Y-88900000D01*
X177292000Y-80264000D02*
X183896000Y-86868000D01*
X184404000Y-88900000D02*
X197612000Y-88900000D01*
X167132000Y-80264000D02*
X177292000Y-80264000D01*
G04 #@! TO.N,/M2_encoder_B*
X164592000Y-65532000D02*
X167640000Y-65532000D01*
X167640000Y-65532000D02*
X170434000Y-62738000D01*
X170434000Y-62738000D02*
X170434000Y-58928000D01*
X155448000Y-78740000D02*
X155448000Y-77470000D01*
X155448000Y-77470000D02*
X160528000Y-72390000D01*
X160528000Y-69596000D02*
X164592000Y-65532000D01*
X160528000Y-72390000D02*
X160528000Y-69596000D01*
G04 #@! TO.N,/M2_encoder_A*
X172974000Y-60834410D02*
X172974000Y-58928000D01*
X167768410Y-66040000D02*
X172974000Y-60834410D01*
X164720410Y-66040000D02*
X167768410Y-66040000D01*
X161036000Y-74560630D02*
X161036000Y-69724410D01*
X161036000Y-69724410D02*
X164720410Y-66040000D01*
X157988000Y-77608630D02*
X161036000Y-74560630D01*
X157988000Y-78740000D02*
X157988000Y-77608630D01*
G04 #@! TO.N,/M1_encoder_A*
X150425990Y-76257990D02*
X142426400Y-76257990D01*
X152908000Y-78740000D02*
X150425990Y-76257990D01*
X142426400Y-76257990D02*
X139700000Y-73531590D01*
X139700000Y-60960000D02*
X141732000Y-58928000D01*
X139700000Y-73531590D02*
X139700000Y-60960000D01*
G04 #@! TO.N,/M1_encoder_B*
X150368000Y-78740000D02*
X148336000Y-76708000D01*
X148336000Y-76708000D02*
X142240000Y-76708000D01*
X139192000Y-73660000D02*
X139192000Y-58928000D01*
X142240000Y-76708000D02*
X139192000Y-73660000D01*
G04 #@! TO.N,Net-(BZ1-Pad1)*
X159766000Y-64506000D02*
X159766000Y-62230000D01*
X158446000Y-65826000D02*
X159766000Y-64506000D01*
G04 #@! TO.N,/STATUS_LED_0*
X182118000Y-88138000D02*
X177038000Y-83058000D01*
X177038000Y-83058000D02*
X162560000Y-83058000D01*
X183642000Y-91186000D02*
X182118000Y-89662000D01*
X182118000Y-89662000D02*
X182118000Y-88138000D01*
X162560000Y-83058000D02*
X159766000Y-80264000D01*
X159766000Y-80264000D02*
X149352000Y-80264000D01*
X149352000Y-80264000D02*
X147828000Y-78740000D01*
X183642000Y-91186000D02*
X183642000Y-95250000D01*
X201130001Y-98260001D02*
X196558001Y-98260001D01*
X201930000Y-99060000D02*
X201130001Y-98260001D01*
X196558001Y-98260001D02*
X195834000Y-97536000D01*
X195834000Y-97536000D02*
X187706000Y-97536000D01*
X187706000Y-97536000D02*
X175768000Y-97536000D01*
X175768000Y-97536000D02*
X175006000Y-96774000D01*
X175006000Y-96774000D02*
X175006000Y-96012000D01*
G04 #@! TO.N,/STATUS_LED_1*
X112268000Y-97674630D02*
X112268000Y-98806000D01*
X111525010Y-86086990D02*
X111525010Y-96931640D01*
X112522000Y-85090000D02*
X111525010Y-86086990D01*
X128016000Y-85090000D02*
X112522000Y-85090000D01*
X132588000Y-80518000D02*
X128016000Y-85090000D01*
X134112000Y-77470000D02*
X132588000Y-78994000D01*
X111525010Y-96931640D02*
X112268000Y-97674630D01*
X144018000Y-77470000D02*
X134112000Y-77470000D01*
X132588000Y-78994000D02*
X132588000Y-80518000D01*
X145288000Y-78740000D02*
X144018000Y-77470000D01*
G04 #@! TO.N,/Buzzer*
X152908000Y-93980000D02*
X152908000Y-92646500D01*
X152908000Y-92646500D02*
X154178000Y-91376500D01*
X154178000Y-91376500D02*
X154178000Y-81407000D01*
X157226000Y-73533000D02*
X157226000Y-62230000D01*
X155194000Y-75565000D02*
X157226000Y-73533000D01*
G04 #@! TO.N,/PUSH_SW*
X122936000Y-87376000D02*
X122936000Y-90424000D01*
X128016000Y-86106000D02*
X124206000Y-86106000D01*
X133350000Y-80772000D02*
X128016000Y-86106000D01*
X124206000Y-86106000D02*
X122936000Y-87376000D01*
X133350000Y-79248000D02*
X133350000Y-80772000D01*
X133858000Y-78740000D02*
X133350000Y-79248000D01*
X142748000Y-78740000D02*
X133858000Y-78740000D01*
X122936000Y-87376000D02*
X122682000Y-87376000D01*
X113702999Y-85814001D02*
X112903000Y-86614000D01*
X121120001Y-85814001D02*
X113702999Y-85814001D01*
X122682000Y-87376000D02*
X121120001Y-85814001D01*
G04 #@! TD*
D28*
G04 #@! TO.N,/GND*
G36*
X174551466Y-94792862D02*
X174754502Y-94995898D01*
X174419720Y-95134569D01*
X174128569Y-95425720D01*
X173971000Y-95806126D01*
X173971000Y-96217874D01*
X174128569Y-96598280D01*
X174243253Y-96712964D01*
X174231112Y-96774000D01*
X174246000Y-96848847D01*
X174246000Y-96848851D01*
X174290096Y-97070536D01*
X174458071Y-97321929D01*
X174521530Y-97364331D01*
X175177670Y-98020472D01*
X175220071Y-98083929D01*
X175283527Y-98126329D01*
X175471462Y-98251904D01*
X175489355Y-98255463D01*
X175693148Y-98296000D01*
X175693152Y-98296000D01*
X175768000Y-98310888D01*
X175842848Y-98296000D01*
X195519199Y-98296000D01*
X195967671Y-98744473D01*
X196010072Y-98807930D01*
X196261464Y-98975905D01*
X196483149Y-99020001D01*
X196483153Y-99020001D01*
X196558000Y-99034889D01*
X196632847Y-99020001D01*
X200474843Y-99020001D01*
X200466887Y-99060000D01*
X200578260Y-99619909D01*
X200895423Y-100094577D01*
X201370091Y-100411740D01*
X201788667Y-100495000D01*
X202071333Y-100495000D01*
X202489909Y-100411740D01*
X202964577Y-100094577D01*
X203199606Y-99742832D01*
X203253466Y-99872862D01*
X203657138Y-100276534D01*
X204184561Y-100495000D01*
X204755439Y-100495000D01*
X205157000Y-100328668D01*
X205157000Y-102586399D01*
X205156733Y-102591748D01*
X205064261Y-105297720D01*
X205044937Y-105507731D01*
X204966409Y-105455260D01*
X204547833Y-105372000D01*
X204265167Y-105372000D01*
X203846591Y-105455260D01*
X203371923Y-105772423D01*
X203144889Y-106112203D01*
X203120364Y-106052995D01*
X202874245Y-105978861D01*
X202046105Y-106807000D01*
X202874245Y-107635139D01*
X203120364Y-107561005D01*
X203142780Y-107498641D01*
X203371923Y-107841577D01*
X203731210Y-108081645D01*
X203399347Y-108081645D01*
X202835170Y-108315335D01*
X202665952Y-108484553D01*
X202662834Y-108468880D01*
X202522486Y-108258836D01*
X202377095Y-108161688D01*
X202620505Y-108060864D01*
X202694639Y-107814745D01*
X201866500Y-106986605D01*
X201038361Y-107814745D01*
X201112495Y-108060864D01*
X201135701Y-108069205D01*
X200264677Y-108069205D01*
X200016912Y-108118488D01*
X199806868Y-108258836D01*
X199692026Y-108430709D01*
X199561007Y-108299690D01*
X198996830Y-108066000D01*
X198386170Y-108066000D01*
X197821993Y-108299690D01*
X197645639Y-108476044D01*
X197589827Y-108341301D01*
X197427025Y-108178500D01*
X197643439Y-108178500D01*
X198170862Y-107960034D01*
X198574534Y-107556362D01*
X198793000Y-107028939D01*
X198793000Y-106590223D01*
X200419535Y-106590223D01*
X200446722Y-107160454D01*
X200612636Y-107561005D01*
X200858755Y-107635139D01*
X201686895Y-106807000D01*
X200858755Y-105978861D01*
X200612636Y-106052995D01*
X200419535Y-106590223D01*
X198793000Y-106590223D01*
X198793000Y-106458061D01*
X198574534Y-105930638D01*
X198443151Y-105799255D01*
X201038361Y-105799255D01*
X201866500Y-106627395D01*
X202694639Y-105799255D01*
X202620505Y-105553136D01*
X202083277Y-105360035D01*
X201513046Y-105387222D01*
X201112495Y-105553136D01*
X201038361Y-105799255D01*
X198443151Y-105799255D01*
X198170862Y-105526966D01*
X198040832Y-105473106D01*
X198392577Y-105238077D01*
X198709740Y-104763409D01*
X198821113Y-104203500D01*
X198709740Y-103643591D01*
X198392577Y-103168923D01*
X197917909Y-102851760D01*
X197499333Y-102768500D01*
X197216667Y-102768500D01*
X196798091Y-102851760D01*
X196323423Y-103168923D01*
X196006260Y-103643591D01*
X195894887Y-104203500D01*
X196006260Y-104763409D01*
X196323423Y-105238077D01*
X196675168Y-105473106D01*
X196545138Y-105526966D01*
X196141466Y-105930638D01*
X195923000Y-106458061D01*
X195923000Y-107028939D01*
X196141466Y-107556362D01*
X196545138Y-107960034D01*
X196800962Y-108066000D01*
X196437250Y-108066000D01*
X196278500Y-108224750D01*
X196278500Y-109474000D01*
X196298500Y-109474000D01*
X196298500Y-109728000D01*
X196278500Y-109728000D01*
X196278500Y-109748000D01*
X196024500Y-109748000D01*
X196024500Y-109728000D01*
X194775250Y-109728000D01*
X194616500Y-109886750D01*
X194616500Y-110627310D01*
X194713173Y-110860699D01*
X194766334Y-110913860D01*
X194750063Y-110917096D01*
X194498671Y-111085071D01*
X194456271Y-111148527D01*
X192669093Y-112935706D01*
X192901709Y-112179576D01*
X192905739Y-112164744D01*
X192910143Y-112149970D01*
X192914487Y-112132544D01*
X193447257Y-109878770D01*
X193450295Y-109863705D01*
X193453711Y-109848669D01*
X193456891Y-109830993D01*
X193667123Y-108574690D01*
X194616500Y-108574690D01*
X194616500Y-109315250D01*
X194775250Y-109474000D01*
X196024500Y-109474000D01*
X196024500Y-108224750D01*
X195865750Y-108066000D01*
X195125191Y-108066000D01*
X194891802Y-108162673D01*
X194713173Y-108341301D01*
X194616500Y-108574690D01*
X193667123Y-108574690D01*
X193839123Y-107546864D01*
X193841159Y-107531606D01*
X193843567Y-107516401D01*
X193845569Y-107498554D01*
X194075582Y-105194116D01*
X194076601Y-105178773D01*
X194077998Y-105163426D01*
X194078812Y-105145485D01*
X194153116Y-102905637D01*
X194170309Y-102819200D01*
X194150537Y-102719800D01*
X194145920Y-102685190D01*
X194136286Y-102637414D01*
X194128310Y-102608055D01*
X194115205Y-102542172D01*
X194092398Y-102508039D01*
X194088753Y-102499368D01*
X194066931Y-102455788D01*
X194042267Y-102413752D01*
X194014873Y-102373441D01*
X193984867Y-102335035D01*
X193952381Y-102298702D01*
X193917559Y-102264602D01*
X193880553Y-102232884D01*
X193841528Y-102203689D01*
X193800652Y-102177144D01*
X193758107Y-102153367D01*
X193714081Y-102132461D01*
X193668765Y-102114520D01*
X193622360Y-102099621D01*
X193575069Y-102087829D01*
X193527102Y-102079199D01*
X193478668Y-102073766D01*
X193429979Y-102071555D01*
X193381253Y-102072576D01*
X193332699Y-102076823D01*
X193284535Y-102084280D01*
X193236971Y-102094911D01*
X193190216Y-102108673D01*
X193188784Y-102109200D01*
X192575878Y-102109200D01*
X192708079Y-101977000D01*
X197293104Y-101977000D01*
X197624638Y-102308534D01*
X198152061Y-102527000D01*
X198722939Y-102527000D01*
X199250362Y-102308534D01*
X199654034Y-101904862D01*
X199872500Y-101377439D01*
X199872500Y-100806561D01*
X199654034Y-100279138D01*
X199250362Y-99875466D01*
X198722939Y-99657000D01*
X198152061Y-99657000D01*
X197624638Y-99875466D01*
X197293104Y-100207000D01*
X192428661Y-100207000D01*
X192341500Y-100189663D01*
X192254339Y-100207000D01*
X192254335Y-100207000D01*
X191996190Y-100258348D01*
X191777345Y-100404576D01*
X191777344Y-100404577D01*
X191703451Y-100453951D01*
X191654077Y-100527844D01*
X191458159Y-100723763D01*
X191249362Y-100514966D01*
X190721939Y-100296500D01*
X190151061Y-100296500D01*
X189623638Y-100514966D01*
X189219966Y-100918638D01*
X189001500Y-101446061D01*
X189001500Y-102016939D01*
X189039716Y-102109200D01*
X171274251Y-102109200D01*
X171212795Y-102095486D01*
X171134384Y-102109200D01*
X171126074Y-102109200D01*
X171065554Y-102121238D01*
X170934564Y-102144148D01*
X170927353Y-102148728D01*
X170918972Y-102150395D01*
X170808379Y-102224291D01*
X170696133Y-102295581D01*
X170691223Y-102302572D01*
X170684119Y-102307319D01*
X170610221Y-102417914D01*
X170533803Y-102526730D01*
X170531943Y-102535067D01*
X170527195Y-102542172D01*
X170501246Y-102672627D01*
X170472286Y-102802405D01*
X170473758Y-102810820D01*
X170472091Y-102819200D01*
X170498038Y-102949646D01*
X170508665Y-103010406D01*
X170511665Y-103018151D01*
X170527195Y-103096228D01*
X170562180Y-103148587D01*
X180707527Y-129344783D01*
X180716045Y-129375686D01*
X180732080Y-129421710D01*
X180751132Y-129466571D01*
X180766376Y-129496737D01*
X180769971Y-129506019D01*
X180780868Y-129523177D01*
X180797931Y-129552017D01*
X180815169Y-129577183D01*
X180883180Y-129684266D01*
X181114329Y-129846596D01*
X181390004Y-129908114D01*
X181668236Y-129859451D01*
X181720213Y-129826439D01*
X181741224Y-129816993D01*
X181784253Y-129794104D01*
X181825671Y-129768414D01*
X181865295Y-129740036D01*
X181896075Y-129714746D01*
X181906666Y-129708019D01*
X181911004Y-129701842D01*
X181916296Y-129697075D01*
X183430280Y-128299536D01*
X183440265Y-128289686D01*
X183450558Y-128280088D01*
X183463123Y-128267257D01*
X185063130Y-126592945D01*
X185073374Y-126581487D01*
X185083928Y-126570249D01*
X185095615Y-126556613D01*
X186581142Y-124779943D01*
X186590614Y-124767819D01*
X186600391Y-124755917D01*
X186611149Y-124741536D01*
X187975662Y-122870321D01*
X187984312Y-122857593D01*
X187993275Y-122845073D01*
X188003056Y-122830011D01*
X189240557Y-120872478D01*
X189248337Y-120859217D01*
X189256459Y-120846118D01*
X189265221Y-120830441D01*
X190370267Y-118795198D01*
X190377152Y-118781448D01*
X190384387Y-118767842D01*
X190392090Y-118751618D01*
X191359824Y-116647614D01*
X191365783Y-116633439D01*
X191372100Y-116619383D01*
X191378711Y-116602684D01*
X192055593Y-114830104D01*
X192098120Y-114872631D01*
X192478526Y-115030200D01*
X192890274Y-115030200D01*
X193270680Y-114872631D01*
X193561831Y-114581480D01*
X193719400Y-114201074D01*
X193719400Y-114035001D01*
X195361402Y-112393000D01*
X201613475Y-112393000D01*
X201688322Y-112407888D01*
X201763169Y-112393000D01*
X201763174Y-112393000D01*
X201984859Y-112348904D01*
X202236251Y-112180929D01*
X202278653Y-112117470D01*
X203289838Y-111106285D01*
X203399347Y-111151645D01*
X204010007Y-111151645D01*
X204337306Y-111016073D01*
X203866094Y-113260440D01*
X203163502Y-115854060D01*
X202312781Y-118402919D01*
X201316741Y-120898601D01*
X200178702Y-123332782D01*
X198902412Y-125697450D01*
X197492138Y-127984697D01*
X195952529Y-130186987D01*
X194288699Y-132296997D01*
X192506169Y-134307733D01*
X190610858Y-136212515D01*
X188609020Y-138005055D01*
X186507341Y-139679372D01*
X184312753Y-141229939D01*
X182032536Y-142651613D01*
X179674279Y-143939661D01*
X177245791Y-145089822D01*
X174755111Y-146098286D01*
X172210522Y-146961701D01*
X169620436Y-147677211D01*
X166993461Y-148242438D01*
X164338303Y-148655508D01*
X161663784Y-148915051D01*
X158978747Y-149020209D01*
X156292117Y-148970629D01*
X153612788Y-148766479D01*
X150949649Y-148408433D01*
X148311558Y-147897685D01*
X145707225Y-147235919D01*
X143145297Y-146425334D01*
X140634290Y-145468621D01*
X138182520Y-144368952D01*
X136479324Y-143483939D01*
X150082300Y-143483939D01*
X150082300Y-144171061D01*
X150345250Y-144805880D01*
X150831120Y-145291750D01*
X151465939Y-145554700D01*
X152153061Y-145554700D01*
X152787880Y-145291750D01*
X152855130Y-145224500D01*
X155064387Y-145224500D01*
X155175760Y-145784409D01*
X155492923Y-146259077D01*
X155967591Y-146576240D01*
X156386167Y-146659500D01*
X156668833Y-146659500D01*
X157087409Y-146576240D01*
X157562077Y-146259077D01*
X157879240Y-145784409D01*
X157977982Y-145288000D01*
X159064887Y-145288000D01*
X159176260Y-145847909D01*
X159493423Y-146322577D01*
X159968091Y-146639740D01*
X160386667Y-146723000D01*
X160669333Y-146723000D01*
X161087909Y-146639740D01*
X161562577Y-146322577D01*
X161879740Y-145847909D01*
X161991113Y-145288000D01*
X161879740Y-144728091D01*
X161562577Y-144253423D01*
X161210832Y-144018394D01*
X161340862Y-143964534D01*
X161744534Y-143560862D01*
X161776396Y-143483939D01*
X163582300Y-143483939D01*
X163582300Y-144171061D01*
X163845250Y-144805880D01*
X164331120Y-145291750D01*
X164965939Y-145554700D01*
X165653061Y-145554700D01*
X166287880Y-145291750D01*
X166773750Y-144805880D01*
X167036700Y-144171061D01*
X167036700Y-143483939D01*
X166773750Y-142849120D01*
X166287880Y-142363250D01*
X165653061Y-142100300D01*
X164965939Y-142100300D01*
X164331120Y-142363250D01*
X163845250Y-142849120D01*
X163582300Y-143483939D01*
X161776396Y-143483939D01*
X161963000Y-143033439D01*
X161963000Y-142462561D01*
X161744534Y-141935138D01*
X161623217Y-141813821D01*
X162821577Y-141813821D01*
X162892814Y-142026725D01*
X163329489Y-142244443D01*
X163555566Y-142357162D01*
X163807570Y-142374783D01*
X164047134Y-142294625D01*
X164237787Y-142128893D01*
X164568223Y-141466141D01*
X164496986Y-141253236D01*
X163378990Y-140695824D01*
X162821577Y-141813821D01*
X161623217Y-141813821D01*
X161340862Y-141531466D01*
X160813439Y-141313000D01*
X160242561Y-141313000D01*
X159715138Y-141531466D01*
X159311466Y-141935138D01*
X159093000Y-142462561D01*
X159093000Y-143033439D01*
X159311466Y-143560862D01*
X159715138Y-143964534D01*
X159845168Y-144018394D01*
X159493423Y-144253423D01*
X159176260Y-144728091D01*
X159064887Y-145288000D01*
X157977982Y-145288000D01*
X157990613Y-145224500D01*
X157879240Y-144664591D01*
X157562077Y-144189923D01*
X157210332Y-143954894D01*
X157340362Y-143901034D01*
X157744034Y-143497362D01*
X157962500Y-142969939D01*
X157962500Y-142399061D01*
X157744034Y-141871638D01*
X157340362Y-141467966D01*
X156812939Y-141249500D01*
X156242061Y-141249500D01*
X155714638Y-141467966D01*
X155310966Y-141871638D01*
X155092500Y-142399061D01*
X155092500Y-142969939D01*
X155310966Y-143497362D01*
X155714638Y-143901034D01*
X155844668Y-143954894D01*
X155492923Y-144189923D01*
X155175760Y-144664591D01*
X155064387Y-145224500D01*
X152855130Y-145224500D01*
X153273750Y-144805880D01*
X153536700Y-144171061D01*
X153536700Y-143483939D01*
X153273750Y-142849120D01*
X152787880Y-142363250D01*
X152153061Y-142100300D01*
X151465939Y-142100300D01*
X150831120Y-142363250D01*
X150345250Y-142849120D01*
X150082300Y-143483939D01*
X136479324Y-143483939D01*
X135798124Y-143129975D01*
X133488978Y-141755786D01*
X131262783Y-140250960D01*
X129943224Y-139243641D01*
X151280777Y-139243641D01*
X151611213Y-139906393D01*
X151801866Y-140072125D01*
X152041430Y-140152283D01*
X152178402Y-140142705D01*
X152125342Y-140270803D01*
X152125342Y-140881463D01*
X152359032Y-141445640D01*
X152790835Y-141877443D01*
X153355012Y-142111133D01*
X153965672Y-142111133D01*
X154529849Y-141877443D01*
X154961652Y-141445640D01*
X155141657Y-141011069D01*
X161472717Y-141011069D01*
X161552874Y-141250633D01*
X161718606Y-141441287D01*
X161944684Y-141554005D01*
X162381359Y-141771723D01*
X162594264Y-141700486D01*
X163151676Y-140582490D01*
X162033679Y-140025077D01*
X161820775Y-140096314D01*
X161490339Y-140759066D01*
X161472717Y-141011069D01*
X155141657Y-141011069D01*
X155195342Y-140881463D01*
X155195342Y-140270803D01*
X154961652Y-139706626D01*
X154529849Y-139274823D01*
X154200332Y-139138332D01*
X154296126Y-139028133D01*
X154376283Y-138788569D01*
X154358661Y-138536566D01*
X154028225Y-137873814D01*
X153815321Y-137802577D01*
X152697324Y-138359990D01*
X152706248Y-138377888D01*
X152478934Y-138491223D01*
X152470010Y-138473324D01*
X151352014Y-139030736D01*
X151280777Y-139243641D01*
X129943224Y-139243641D01*
X129126904Y-138620483D01*
X127088412Y-136869750D01*
X125154089Y-135004586D01*
X123330333Y-133031158D01*
X121623214Y-130956040D01*
X120038363Y-128786072D01*
X118581061Y-126528486D01*
X117256125Y-124190748D01*
X116067958Y-121780617D01*
X115020500Y-119306094D01*
X114117217Y-116775364D01*
X113361112Y-114196836D01*
X112754696Y-111579078D01*
X112671662Y-111095485D01*
X112698507Y-111095485D01*
X112799060Y-111245974D01*
X112862519Y-111288376D01*
X113437614Y-111863472D01*
X113480015Y-111926929D01*
X113543471Y-111969329D01*
X113731406Y-112094904D01*
X113749294Y-112098462D01*
X113953092Y-112139000D01*
X113953096Y-112139000D01*
X114027944Y-112153888D01*
X114102792Y-112139000D01*
X120652699Y-112139000D01*
X121223501Y-112709803D01*
X121223500Y-114034653D01*
X121208612Y-114109500D01*
X121223500Y-114184347D01*
X121223500Y-114184351D01*
X121267596Y-114406036D01*
X121435571Y-114657429D01*
X121499030Y-114699831D01*
X123192001Y-116392804D01*
X123192000Y-120384653D01*
X123177112Y-120459500D01*
X123192000Y-120534347D01*
X123192000Y-120534351D01*
X123236096Y-120756036D01*
X123404071Y-121007429D01*
X123467530Y-121049831D01*
X126811501Y-124393803D01*
X126811500Y-126607653D01*
X126796612Y-126682500D01*
X126811500Y-126757347D01*
X126811500Y-126757351D01*
X126855596Y-126979036D01*
X127023571Y-127230429D01*
X127087030Y-127272831D01*
X131489670Y-131675472D01*
X131532071Y-131738929D01*
X131595527Y-131781329D01*
X131783462Y-131906904D01*
X131801355Y-131910463D01*
X132005148Y-131951000D01*
X132005152Y-131951000D01*
X132080000Y-131965888D01*
X132154848Y-131951000D01*
X148425150Y-131951000D01*
X149117418Y-132643270D01*
X148754753Y-132824088D01*
X148555010Y-132978745D01*
X148429656Y-133198068D01*
X148397776Y-133448667D01*
X148464223Y-133692390D01*
X149267379Y-135303272D01*
X149422036Y-135503015D01*
X149641359Y-135628369D01*
X149891958Y-135660249D01*
X149897193Y-135658822D01*
X149849000Y-135775170D01*
X149849000Y-136385830D01*
X150082690Y-136950007D01*
X150514493Y-137381810D01*
X150818750Y-137507837D01*
X150757874Y-137577867D01*
X150677717Y-137817431D01*
X150695339Y-138069434D01*
X151025775Y-138732186D01*
X151238679Y-138803423D01*
X152356676Y-138246010D01*
X152347752Y-138228112D01*
X152575066Y-138114777D01*
X152583990Y-138132676D01*
X153701986Y-137575264D01*
X153773223Y-137362359D01*
X153513034Y-136840500D01*
X155419037Y-136840500D01*
X155429760Y-136894409D01*
X155746923Y-137369077D01*
X156221591Y-137686240D01*
X156640167Y-137769500D01*
X156922833Y-137769500D01*
X157341409Y-137686240D01*
X157813863Y-137370557D01*
X157843596Y-137520036D01*
X158011571Y-137771429D01*
X158075029Y-137813831D01*
X158794673Y-138533475D01*
X158837071Y-138596929D01*
X158900524Y-138639327D01*
X158900526Y-138639329D01*
X158970460Y-138686057D01*
X159088463Y-138764904D01*
X159310148Y-138809000D01*
X159310152Y-138809000D01*
X159384999Y-138823888D01*
X159459846Y-138809000D01*
X160897653Y-138809000D01*
X160972500Y-138823888D01*
X161047347Y-138809000D01*
X161047352Y-138809000D01*
X161269037Y-138764904D01*
X161520429Y-138596929D01*
X161562831Y-138533470D01*
X163319302Y-136777000D01*
X163809631Y-136777000D01*
X163847230Y-136842784D01*
X163585835Y-136951057D01*
X163154032Y-137382860D01*
X162920342Y-137947037D01*
X162920342Y-138557697D01*
X162973402Y-138685795D01*
X162836430Y-138676217D01*
X162596866Y-138756375D01*
X162406213Y-138922107D01*
X162075777Y-139584859D01*
X162147014Y-139797764D01*
X163265010Y-140355176D01*
X163273934Y-140337277D01*
X163501248Y-140450612D01*
X163492324Y-140468510D01*
X164610321Y-141025923D01*
X164823225Y-140954686D01*
X165153661Y-140291934D01*
X165171283Y-140039931D01*
X165091126Y-139800367D01*
X164995332Y-139690168D01*
X165324849Y-139553677D01*
X165756652Y-139121874D01*
X165990342Y-138557697D01*
X165990342Y-137947037D01*
X165955621Y-137863213D01*
X166153799Y-137838002D01*
X166373122Y-137712648D01*
X166527779Y-137512905D01*
X167330935Y-135902023D01*
X167397382Y-135658300D01*
X167365502Y-135407701D01*
X167240148Y-135188378D01*
X167226724Y-135177984D01*
X167547349Y-135045177D01*
X167979152Y-134613374D01*
X168212842Y-134049197D01*
X168212842Y-133438537D01*
X167979152Y-132874360D01*
X167547349Y-132442557D01*
X166983172Y-132208867D01*
X166372512Y-132208867D01*
X166263004Y-132254227D01*
X164356937Y-130348161D01*
X164572474Y-130348161D01*
X164604385Y-130380072D01*
X164646786Y-130443529D01*
X164898178Y-130611504D01*
X165041003Y-130639914D01*
X165174120Y-130773031D01*
X165554526Y-130930600D01*
X165966274Y-130930600D01*
X166346680Y-130773031D01*
X166637831Y-130481880D01*
X166795400Y-130101474D01*
X166795400Y-129894400D01*
X177467749Y-129894400D01*
X177529204Y-129908114D01*
X177607614Y-129894400D01*
X177615926Y-129894400D01*
X177676471Y-129882357D01*
X177807436Y-129859451D01*
X177814645Y-129854873D01*
X177823028Y-129853205D01*
X177933645Y-129779293D01*
X178045866Y-129708019D01*
X178050775Y-129701029D01*
X178057881Y-129696281D01*
X178131788Y-129585672D01*
X178208197Y-129476870D01*
X178210057Y-129468533D01*
X178214805Y-129461428D01*
X178240754Y-129330973D01*
X178269714Y-129201195D01*
X178268242Y-129192780D01*
X178269909Y-129184400D01*
X178243963Y-129053959D01*
X178233335Y-128993193D01*
X178230335Y-128985446D01*
X178214805Y-128907372D01*
X178179821Y-128855014D01*
X168019536Y-102620250D01*
X168004005Y-102542172D01*
X167930104Y-102431572D01*
X167858819Y-102319333D01*
X167851828Y-102314423D01*
X167847081Y-102307319D01*
X167736486Y-102233421D01*
X167627670Y-102157003D01*
X167619333Y-102155143D01*
X167612228Y-102150395D01*
X167481771Y-102124446D01*
X167351995Y-102095486D01*
X167273584Y-102109200D01*
X149667614Y-102109200D01*
X149589204Y-102095486D01*
X149459439Y-102124444D01*
X149328972Y-102150395D01*
X149321865Y-102155144D01*
X149313529Y-102157004D01*
X149204723Y-102233416D01*
X149094119Y-102307319D01*
X149089372Y-102314424D01*
X149082380Y-102319334D01*
X149011080Y-102431595D01*
X148937195Y-102542172D01*
X148921666Y-102620244D01*
X138771780Y-128828161D01*
X136560964Y-128828161D01*
X146507867Y-103015947D01*
X146545166Y-102800557D01*
X146481005Y-102515283D01*
X146312558Y-102276277D01*
X146065469Y-102119926D01*
X145777356Y-102070034D01*
X145603700Y-102109091D01*
X124576338Y-102097075D01*
X124667904Y-101960037D01*
X124712000Y-101738352D01*
X124712000Y-101738347D01*
X124726888Y-101663500D01*
X124712000Y-101588653D01*
X124712000Y-100328000D01*
X148642153Y-100328000D01*
X148717000Y-100342888D01*
X148791847Y-100328000D01*
X148791852Y-100328000D01*
X149013537Y-100283904D01*
X149264929Y-100115929D01*
X149307331Y-100052470D01*
X150133801Y-99226000D01*
X153899760Y-99226000D01*
X153899760Y-100926000D01*
X153949043Y-101173765D01*
X154089391Y-101383809D01*
X154299435Y-101524157D01*
X154547200Y-101573440D01*
X156247200Y-101573440D01*
X156494965Y-101524157D01*
X156705009Y-101383809D01*
X156718000Y-101364367D01*
X156730991Y-101383809D01*
X156941035Y-101524157D01*
X157188800Y-101573440D01*
X158888800Y-101573440D01*
X159136565Y-101524157D01*
X159346609Y-101383809D01*
X159486957Y-101173765D01*
X159536240Y-100926000D01*
X159536240Y-99226000D01*
X159486957Y-98978235D01*
X159346609Y-98768191D01*
X159136565Y-98627843D01*
X158888800Y-98578560D01*
X157188800Y-98578560D01*
X156941035Y-98627843D01*
X156730991Y-98768191D01*
X156718000Y-98787633D01*
X156705009Y-98768191D01*
X156494965Y-98627843D01*
X156247200Y-98578560D01*
X154547200Y-98578560D01*
X154299435Y-98627843D01*
X154089391Y-98768191D01*
X153949043Y-98978235D01*
X153899760Y-99226000D01*
X150133801Y-99226000D01*
X150852473Y-98507329D01*
X150915929Y-98464929D01*
X151083904Y-98213537D01*
X151128000Y-97991852D01*
X151128000Y-97991848D01*
X151142888Y-97917000D01*
X151128000Y-97842152D01*
X151128000Y-95218430D01*
X151180862Y-95196534D01*
X151584534Y-94792862D01*
X151638000Y-94663784D01*
X151691466Y-94792862D01*
X152095138Y-95196534D01*
X152622561Y-95415000D01*
X153193439Y-95415000D01*
X153720862Y-95196534D01*
X154124534Y-94792862D01*
X154178000Y-94663784D01*
X154231466Y-94792862D01*
X154635138Y-95196534D01*
X155162561Y-95415000D01*
X155733439Y-95415000D01*
X156260862Y-95196534D01*
X156664534Y-94792862D01*
X156718000Y-94663784D01*
X156771466Y-94792862D01*
X157175138Y-95196534D01*
X157702561Y-95415000D01*
X158273439Y-95415000D01*
X158800862Y-95196534D01*
X159204534Y-94792862D01*
X159258000Y-94663784D01*
X159311466Y-94792862D01*
X159715138Y-95196534D01*
X160242561Y-95415000D01*
X160813439Y-95415000D01*
X161340862Y-95196534D01*
X161744534Y-94792862D01*
X161798000Y-94663784D01*
X161851466Y-94792862D01*
X162255138Y-95196534D01*
X162782561Y-95415000D01*
X163353439Y-95415000D01*
X163880862Y-95196534D01*
X164284534Y-94792862D01*
X164338000Y-94663784D01*
X164391466Y-94792862D01*
X164795138Y-95196534D01*
X165322561Y-95415000D01*
X165893439Y-95415000D01*
X166420862Y-95196534D01*
X166824534Y-94792862D01*
X166878000Y-94663784D01*
X166931466Y-94792862D01*
X167335138Y-95196534D01*
X167862561Y-95415000D01*
X168433439Y-95415000D01*
X168960862Y-95196534D01*
X169364534Y-94792862D01*
X169418000Y-94663784D01*
X169471466Y-94792862D01*
X169875138Y-95196534D01*
X170402561Y-95415000D01*
X170973439Y-95415000D01*
X171500862Y-95196534D01*
X171904534Y-94792862D01*
X171958000Y-94663784D01*
X172011466Y-94792862D01*
X172415138Y-95196534D01*
X172942561Y-95415000D01*
X173513439Y-95415000D01*
X174040862Y-95196534D01*
X174444534Y-94792862D01*
X174498000Y-94663784D01*
X174551466Y-94792862D01*
X174551466Y-94792862D01*
G37*
X174551466Y-94792862D02*
X174754502Y-94995898D01*
X174419720Y-95134569D01*
X174128569Y-95425720D01*
X173971000Y-95806126D01*
X173971000Y-96217874D01*
X174128569Y-96598280D01*
X174243253Y-96712964D01*
X174231112Y-96774000D01*
X174246000Y-96848847D01*
X174246000Y-96848851D01*
X174290096Y-97070536D01*
X174458071Y-97321929D01*
X174521530Y-97364331D01*
X175177670Y-98020472D01*
X175220071Y-98083929D01*
X175283527Y-98126329D01*
X175471462Y-98251904D01*
X175489355Y-98255463D01*
X175693148Y-98296000D01*
X175693152Y-98296000D01*
X175768000Y-98310888D01*
X175842848Y-98296000D01*
X195519199Y-98296000D01*
X195967671Y-98744473D01*
X196010072Y-98807930D01*
X196261464Y-98975905D01*
X196483149Y-99020001D01*
X196483153Y-99020001D01*
X196558000Y-99034889D01*
X196632847Y-99020001D01*
X200474843Y-99020001D01*
X200466887Y-99060000D01*
X200578260Y-99619909D01*
X200895423Y-100094577D01*
X201370091Y-100411740D01*
X201788667Y-100495000D01*
X202071333Y-100495000D01*
X202489909Y-100411740D01*
X202964577Y-100094577D01*
X203199606Y-99742832D01*
X203253466Y-99872862D01*
X203657138Y-100276534D01*
X204184561Y-100495000D01*
X204755439Y-100495000D01*
X205157000Y-100328668D01*
X205157000Y-102586399D01*
X205156733Y-102591748D01*
X205064261Y-105297720D01*
X205044937Y-105507731D01*
X204966409Y-105455260D01*
X204547833Y-105372000D01*
X204265167Y-105372000D01*
X203846591Y-105455260D01*
X203371923Y-105772423D01*
X203144889Y-106112203D01*
X203120364Y-106052995D01*
X202874245Y-105978861D01*
X202046105Y-106807000D01*
X202874245Y-107635139D01*
X203120364Y-107561005D01*
X203142780Y-107498641D01*
X203371923Y-107841577D01*
X203731210Y-108081645D01*
X203399347Y-108081645D01*
X202835170Y-108315335D01*
X202665952Y-108484553D01*
X202662834Y-108468880D01*
X202522486Y-108258836D01*
X202377095Y-108161688D01*
X202620505Y-108060864D01*
X202694639Y-107814745D01*
X201866500Y-106986605D01*
X201038361Y-107814745D01*
X201112495Y-108060864D01*
X201135701Y-108069205D01*
X200264677Y-108069205D01*
X200016912Y-108118488D01*
X199806868Y-108258836D01*
X199692026Y-108430709D01*
X199561007Y-108299690D01*
X198996830Y-108066000D01*
X198386170Y-108066000D01*
X197821993Y-108299690D01*
X197645639Y-108476044D01*
X197589827Y-108341301D01*
X197427025Y-108178500D01*
X197643439Y-108178500D01*
X198170862Y-107960034D01*
X198574534Y-107556362D01*
X198793000Y-107028939D01*
X198793000Y-106590223D01*
X200419535Y-106590223D01*
X200446722Y-107160454D01*
X200612636Y-107561005D01*
X200858755Y-107635139D01*
X201686895Y-106807000D01*
X200858755Y-105978861D01*
X200612636Y-106052995D01*
X200419535Y-106590223D01*
X198793000Y-106590223D01*
X198793000Y-106458061D01*
X198574534Y-105930638D01*
X198443151Y-105799255D01*
X201038361Y-105799255D01*
X201866500Y-106627395D01*
X202694639Y-105799255D01*
X202620505Y-105553136D01*
X202083277Y-105360035D01*
X201513046Y-105387222D01*
X201112495Y-105553136D01*
X201038361Y-105799255D01*
X198443151Y-105799255D01*
X198170862Y-105526966D01*
X198040832Y-105473106D01*
X198392577Y-105238077D01*
X198709740Y-104763409D01*
X198821113Y-104203500D01*
X198709740Y-103643591D01*
X198392577Y-103168923D01*
X197917909Y-102851760D01*
X197499333Y-102768500D01*
X197216667Y-102768500D01*
X196798091Y-102851760D01*
X196323423Y-103168923D01*
X196006260Y-103643591D01*
X195894887Y-104203500D01*
X196006260Y-104763409D01*
X196323423Y-105238077D01*
X196675168Y-105473106D01*
X196545138Y-105526966D01*
X196141466Y-105930638D01*
X195923000Y-106458061D01*
X195923000Y-107028939D01*
X196141466Y-107556362D01*
X196545138Y-107960034D01*
X196800962Y-108066000D01*
X196437250Y-108066000D01*
X196278500Y-108224750D01*
X196278500Y-109474000D01*
X196298500Y-109474000D01*
X196298500Y-109728000D01*
X196278500Y-109728000D01*
X196278500Y-109748000D01*
X196024500Y-109748000D01*
X196024500Y-109728000D01*
X194775250Y-109728000D01*
X194616500Y-109886750D01*
X194616500Y-110627310D01*
X194713173Y-110860699D01*
X194766334Y-110913860D01*
X194750063Y-110917096D01*
X194498671Y-111085071D01*
X194456271Y-111148527D01*
X192669093Y-112935706D01*
X192901709Y-112179576D01*
X192905739Y-112164744D01*
X192910143Y-112149970D01*
X192914487Y-112132544D01*
X193447257Y-109878770D01*
X193450295Y-109863705D01*
X193453711Y-109848669D01*
X193456891Y-109830993D01*
X193667123Y-108574690D01*
X194616500Y-108574690D01*
X194616500Y-109315250D01*
X194775250Y-109474000D01*
X196024500Y-109474000D01*
X196024500Y-108224750D01*
X195865750Y-108066000D01*
X195125191Y-108066000D01*
X194891802Y-108162673D01*
X194713173Y-108341301D01*
X194616500Y-108574690D01*
X193667123Y-108574690D01*
X193839123Y-107546864D01*
X193841159Y-107531606D01*
X193843567Y-107516401D01*
X193845569Y-107498554D01*
X194075582Y-105194116D01*
X194076601Y-105178773D01*
X194077998Y-105163426D01*
X194078812Y-105145485D01*
X194153116Y-102905637D01*
X194170309Y-102819200D01*
X194150537Y-102719800D01*
X194145920Y-102685190D01*
X194136286Y-102637414D01*
X194128310Y-102608055D01*
X194115205Y-102542172D01*
X194092398Y-102508039D01*
X194088753Y-102499368D01*
X194066931Y-102455788D01*
X194042267Y-102413752D01*
X194014873Y-102373441D01*
X193984867Y-102335035D01*
X193952381Y-102298702D01*
X193917559Y-102264602D01*
X193880553Y-102232884D01*
X193841528Y-102203689D01*
X193800652Y-102177144D01*
X193758107Y-102153367D01*
X193714081Y-102132461D01*
X193668765Y-102114520D01*
X193622360Y-102099621D01*
X193575069Y-102087829D01*
X193527102Y-102079199D01*
X193478668Y-102073766D01*
X193429979Y-102071555D01*
X193381253Y-102072576D01*
X193332699Y-102076823D01*
X193284535Y-102084280D01*
X193236971Y-102094911D01*
X193190216Y-102108673D01*
X193188784Y-102109200D01*
X192575878Y-102109200D01*
X192708079Y-101977000D01*
X197293104Y-101977000D01*
X197624638Y-102308534D01*
X198152061Y-102527000D01*
X198722939Y-102527000D01*
X199250362Y-102308534D01*
X199654034Y-101904862D01*
X199872500Y-101377439D01*
X199872500Y-100806561D01*
X199654034Y-100279138D01*
X199250362Y-99875466D01*
X198722939Y-99657000D01*
X198152061Y-99657000D01*
X197624638Y-99875466D01*
X197293104Y-100207000D01*
X192428661Y-100207000D01*
X192341500Y-100189663D01*
X192254339Y-100207000D01*
X192254335Y-100207000D01*
X191996190Y-100258348D01*
X191777345Y-100404576D01*
X191777344Y-100404577D01*
X191703451Y-100453951D01*
X191654077Y-100527844D01*
X191458159Y-100723763D01*
X191249362Y-100514966D01*
X190721939Y-100296500D01*
X190151061Y-100296500D01*
X189623638Y-100514966D01*
X189219966Y-100918638D01*
X189001500Y-101446061D01*
X189001500Y-102016939D01*
X189039716Y-102109200D01*
X171274251Y-102109200D01*
X171212795Y-102095486D01*
X171134384Y-102109200D01*
X171126074Y-102109200D01*
X171065554Y-102121238D01*
X170934564Y-102144148D01*
X170927353Y-102148728D01*
X170918972Y-102150395D01*
X170808379Y-102224291D01*
X170696133Y-102295581D01*
X170691223Y-102302572D01*
X170684119Y-102307319D01*
X170610221Y-102417914D01*
X170533803Y-102526730D01*
X170531943Y-102535067D01*
X170527195Y-102542172D01*
X170501246Y-102672627D01*
X170472286Y-102802405D01*
X170473758Y-102810820D01*
X170472091Y-102819200D01*
X170498038Y-102949646D01*
X170508665Y-103010406D01*
X170511665Y-103018151D01*
X170527195Y-103096228D01*
X170562180Y-103148587D01*
X180707527Y-129344783D01*
X180716045Y-129375686D01*
X180732080Y-129421710D01*
X180751132Y-129466571D01*
X180766376Y-129496737D01*
X180769971Y-129506019D01*
X180780868Y-129523177D01*
X180797931Y-129552017D01*
X180815169Y-129577183D01*
X180883180Y-129684266D01*
X181114329Y-129846596D01*
X181390004Y-129908114D01*
X181668236Y-129859451D01*
X181720213Y-129826439D01*
X181741224Y-129816993D01*
X181784253Y-129794104D01*
X181825671Y-129768414D01*
X181865295Y-129740036D01*
X181896075Y-129714746D01*
X181906666Y-129708019D01*
X181911004Y-129701842D01*
X181916296Y-129697075D01*
X183430280Y-128299536D01*
X183440265Y-128289686D01*
X183450558Y-128280088D01*
X183463123Y-128267257D01*
X185063130Y-126592945D01*
X185073374Y-126581487D01*
X185083928Y-126570249D01*
X185095615Y-126556613D01*
X186581142Y-124779943D01*
X186590614Y-124767819D01*
X186600391Y-124755917D01*
X186611149Y-124741536D01*
X187975662Y-122870321D01*
X187984312Y-122857593D01*
X187993275Y-122845073D01*
X188003056Y-122830011D01*
X189240557Y-120872478D01*
X189248337Y-120859217D01*
X189256459Y-120846118D01*
X189265221Y-120830441D01*
X190370267Y-118795198D01*
X190377152Y-118781448D01*
X190384387Y-118767842D01*
X190392090Y-118751618D01*
X191359824Y-116647614D01*
X191365783Y-116633439D01*
X191372100Y-116619383D01*
X191378711Y-116602684D01*
X192055593Y-114830104D01*
X192098120Y-114872631D01*
X192478526Y-115030200D01*
X192890274Y-115030200D01*
X193270680Y-114872631D01*
X193561831Y-114581480D01*
X193719400Y-114201074D01*
X193719400Y-114035001D01*
X195361402Y-112393000D01*
X201613475Y-112393000D01*
X201688322Y-112407888D01*
X201763169Y-112393000D01*
X201763174Y-112393000D01*
X201984859Y-112348904D01*
X202236251Y-112180929D01*
X202278653Y-112117470D01*
X203289838Y-111106285D01*
X203399347Y-111151645D01*
X204010007Y-111151645D01*
X204337306Y-111016073D01*
X203866094Y-113260440D01*
X203163502Y-115854060D01*
X202312781Y-118402919D01*
X201316741Y-120898601D01*
X200178702Y-123332782D01*
X198902412Y-125697450D01*
X197492138Y-127984697D01*
X195952529Y-130186987D01*
X194288699Y-132296997D01*
X192506169Y-134307733D01*
X190610858Y-136212515D01*
X188609020Y-138005055D01*
X186507341Y-139679372D01*
X184312753Y-141229939D01*
X182032536Y-142651613D01*
X179674279Y-143939661D01*
X177245791Y-145089822D01*
X174755111Y-146098286D01*
X172210522Y-146961701D01*
X169620436Y-147677211D01*
X166993461Y-148242438D01*
X164338303Y-148655508D01*
X161663784Y-148915051D01*
X158978747Y-149020209D01*
X156292117Y-148970629D01*
X153612788Y-148766479D01*
X150949649Y-148408433D01*
X148311558Y-147897685D01*
X145707225Y-147235919D01*
X143145297Y-146425334D01*
X140634290Y-145468621D01*
X138182520Y-144368952D01*
X136479324Y-143483939D01*
X150082300Y-143483939D01*
X150082300Y-144171061D01*
X150345250Y-144805880D01*
X150831120Y-145291750D01*
X151465939Y-145554700D01*
X152153061Y-145554700D01*
X152787880Y-145291750D01*
X152855130Y-145224500D01*
X155064387Y-145224500D01*
X155175760Y-145784409D01*
X155492923Y-146259077D01*
X155967591Y-146576240D01*
X156386167Y-146659500D01*
X156668833Y-146659500D01*
X157087409Y-146576240D01*
X157562077Y-146259077D01*
X157879240Y-145784409D01*
X157977982Y-145288000D01*
X159064887Y-145288000D01*
X159176260Y-145847909D01*
X159493423Y-146322577D01*
X159968091Y-146639740D01*
X160386667Y-146723000D01*
X160669333Y-146723000D01*
X161087909Y-146639740D01*
X161562577Y-146322577D01*
X161879740Y-145847909D01*
X161991113Y-145288000D01*
X161879740Y-144728091D01*
X161562577Y-144253423D01*
X161210832Y-144018394D01*
X161340862Y-143964534D01*
X161744534Y-143560862D01*
X161776396Y-143483939D01*
X163582300Y-143483939D01*
X163582300Y-144171061D01*
X163845250Y-144805880D01*
X164331120Y-145291750D01*
X164965939Y-145554700D01*
X165653061Y-145554700D01*
X166287880Y-145291750D01*
X166773750Y-144805880D01*
X167036700Y-144171061D01*
X167036700Y-143483939D01*
X166773750Y-142849120D01*
X166287880Y-142363250D01*
X165653061Y-142100300D01*
X164965939Y-142100300D01*
X164331120Y-142363250D01*
X163845250Y-142849120D01*
X163582300Y-143483939D01*
X161776396Y-143483939D01*
X161963000Y-143033439D01*
X161963000Y-142462561D01*
X161744534Y-141935138D01*
X161623217Y-141813821D01*
X162821577Y-141813821D01*
X162892814Y-142026725D01*
X163329489Y-142244443D01*
X163555566Y-142357162D01*
X163807570Y-142374783D01*
X164047134Y-142294625D01*
X164237787Y-142128893D01*
X164568223Y-141466141D01*
X164496986Y-141253236D01*
X163378990Y-140695824D01*
X162821577Y-141813821D01*
X161623217Y-141813821D01*
X161340862Y-141531466D01*
X160813439Y-141313000D01*
X160242561Y-141313000D01*
X159715138Y-141531466D01*
X159311466Y-141935138D01*
X159093000Y-142462561D01*
X159093000Y-143033439D01*
X159311466Y-143560862D01*
X159715138Y-143964534D01*
X159845168Y-144018394D01*
X159493423Y-144253423D01*
X159176260Y-144728091D01*
X159064887Y-145288000D01*
X157977982Y-145288000D01*
X157990613Y-145224500D01*
X157879240Y-144664591D01*
X157562077Y-144189923D01*
X157210332Y-143954894D01*
X157340362Y-143901034D01*
X157744034Y-143497362D01*
X157962500Y-142969939D01*
X157962500Y-142399061D01*
X157744034Y-141871638D01*
X157340362Y-141467966D01*
X156812939Y-141249500D01*
X156242061Y-141249500D01*
X155714638Y-141467966D01*
X155310966Y-141871638D01*
X155092500Y-142399061D01*
X155092500Y-142969939D01*
X155310966Y-143497362D01*
X155714638Y-143901034D01*
X155844668Y-143954894D01*
X155492923Y-144189923D01*
X155175760Y-144664591D01*
X155064387Y-145224500D01*
X152855130Y-145224500D01*
X153273750Y-144805880D01*
X153536700Y-144171061D01*
X153536700Y-143483939D01*
X153273750Y-142849120D01*
X152787880Y-142363250D01*
X152153061Y-142100300D01*
X151465939Y-142100300D01*
X150831120Y-142363250D01*
X150345250Y-142849120D01*
X150082300Y-143483939D01*
X136479324Y-143483939D01*
X135798124Y-143129975D01*
X133488978Y-141755786D01*
X131262783Y-140250960D01*
X129943224Y-139243641D01*
X151280777Y-139243641D01*
X151611213Y-139906393D01*
X151801866Y-140072125D01*
X152041430Y-140152283D01*
X152178402Y-140142705D01*
X152125342Y-140270803D01*
X152125342Y-140881463D01*
X152359032Y-141445640D01*
X152790835Y-141877443D01*
X153355012Y-142111133D01*
X153965672Y-142111133D01*
X154529849Y-141877443D01*
X154961652Y-141445640D01*
X155141657Y-141011069D01*
X161472717Y-141011069D01*
X161552874Y-141250633D01*
X161718606Y-141441287D01*
X161944684Y-141554005D01*
X162381359Y-141771723D01*
X162594264Y-141700486D01*
X163151676Y-140582490D01*
X162033679Y-140025077D01*
X161820775Y-140096314D01*
X161490339Y-140759066D01*
X161472717Y-141011069D01*
X155141657Y-141011069D01*
X155195342Y-140881463D01*
X155195342Y-140270803D01*
X154961652Y-139706626D01*
X154529849Y-139274823D01*
X154200332Y-139138332D01*
X154296126Y-139028133D01*
X154376283Y-138788569D01*
X154358661Y-138536566D01*
X154028225Y-137873814D01*
X153815321Y-137802577D01*
X152697324Y-138359990D01*
X152706248Y-138377888D01*
X152478934Y-138491223D01*
X152470010Y-138473324D01*
X151352014Y-139030736D01*
X151280777Y-139243641D01*
X129943224Y-139243641D01*
X129126904Y-138620483D01*
X127088412Y-136869750D01*
X125154089Y-135004586D01*
X123330333Y-133031158D01*
X121623214Y-130956040D01*
X120038363Y-128786072D01*
X118581061Y-126528486D01*
X117256125Y-124190748D01*
X116067958Y-121780617D01*
X115020500Y-119306094D01*
X114117217Y-116775364D01*
X113361112Y-114196836D01*
X112754696Y-111579078D01*
X112671662Y-111095485D01*
X112698507Y-111095485D01*
X112799060Y-111245974D01*
X112862519Y-111288376D01*
X113437614Y-111863472D01*
X113480015Y-111926929D01*
X113543471Y-111969329D01*
X113731406Y-112094904D01*
X113749294Y-112098462D01*
X113953092Y-112139000D01*
X113953096Y-112139000D01*
X114027944Y-112153888D01*
X114102792Y-112139000D01*
X120652699Y-112139000D01*
X121223501Y-112709803D01*
X121223500Y-114034653D01*
X121208612Y-114109500D01*
X121223500Y-114184347D01*
X121223500Y-114184351D01*
X121267596Y-114406036D01*
X121435571Y-114657429D01*
X121499030Y-114699831D01*
X123192001Y-116392804D01*
X123192000Y-120384653D01*
X123177112Y-120459500D01*
X123192000Y-120534347D01*
X123192000Y-120534351D01*
X123236096Y-120756036D01*
X123404071Y-121007429D01*
X123467530Y-121049831D01*
X126811501Y-124393803D01*
X126811500Y-126607653D01*
X126796612Y-126682500D01*
X126811500Y-126757347D01*
X126811500Y-126757351D01*
X126855596Y-126979036D01*
X127023571Y-127230429D01*
X127087030Y-127272831D01*
X131489670Y-131675472D01*
X131532071Y-131738929D01*
X131595527Y-131781329D01*
X131783462Y-131906904D01*
X131801355Y-131910463D01*
X132005148Y-131951000D01*
X132005152Y-131951000D01*
X132080000Y-131965888D01*
X132154848Y-131951000D01*
X148425150Y-131951000D01*
X149117418Y-132643270D01*
X148754753Y-132824088D01*
X148555010Y-132978745D01*
X148429656Y-133198068D01*
X148397776Y-133448667D01*
X148464223Y-133692390D01*
X149267379Y-135303272D01*
X149422036Y-135503015D01*
X149641359Y-135628369D01*
X149891958Y-135660249D01*
X149897193Y-135658822D01*
X149849000Y-135775170D01*
X149849000Y-136385830D01*
X150082690Y-136950007D01*
X150514493Y-137381810D01*
X150818750Y-137507837D01*
X150757874Y-137577867D01*
X150677717Y-137817431D01*
X150695339Y-138069434D01*
X151025775Y-138732186D01*
X151238679Y-138803423D01*
X152356676Y-138246010D01*
X152347752Y-138228112D01*
X152575066Y-138114777D01*
X152583990Y-138132676D01*
X153701986Y-137575264D01*
X153773223Y-137362359D01*
X153513034Y-136840500D01*
X155419037Y-136840500D01*
X155429760Y-136894409D01*
X155746923Y-137369077D01*
X156221591Y-137686240D01*
X156640167Y-137769500D01*
X156922833Y-137769500D01*
X157341409Y-137686240D01*
X157813863Y-137370557D01*
X157843596Y-137520036D01*
X158011571Y-137771429D01*
X158075029Y-137813831D01*
X158794673Y-138533475D01*
X158837071Y-138596929D01*
X158900524Y-138639327D01*
X158900526Y-138639329D01*
X158970460Y-138686057D01*
X159088463Y-138764904D01*
X159310148Y-138809000D01*
X159310152Y-138809000D01*
X159384999Y-138823888D01*
X159459846Y-138809000D01*
X160897653Y-138809000D01*
X160972500Y-138823888D01*
X161047347Y-138809000D01*
X161047352Y-138809000D01*
X161269037Y-138764904D01*
X161520429Y-138596929D01*
X161562831Y-138533470D01*
X163319302Y-136777000D01*
X163809631Y-136777000D01*
X163847230Y-136842784D01*
X163585835Y-136951057D01*
X163154032Y-137382860D01*
X162920342Y-137947037D01*
X162920342Y-138557697D01*
X162973402Y-138685795D01*
X162836430Y-138676217D01*
X162596866Y-138756375D01*
X162406213Y-138922107D01*
X162075777Y-139584859D01*
X162147014Y-139797764D01*
X163265010Y-140355176D01*
X163273934Y-140337277D01*
X163501248Y-140450612D01*
X163492324Y-140468510D01*
X164610321Y-141025923D01*
X164823225Y-140954686D01*
X165153661Y-140291934D01*
X165171283Y-140039931D01*
X165091126Y-139800367D01*
X164995332Y-139690168D01*
X165324849Y-139553677D01*
X165756652Y-139121874D01*
X165990342Y-138557697D01*
X165990342Y-137947037D01*
X165955621Y-137863213D01*
X166153799Y-137838002D01*
X166373122Y-137712648D01*
X166527779Y-137512905D01*
X167330935Y-135902023D01*
X167397382Y-135658300D01*
X167365502Y-135407701D01*
X167240148Y-135188378D01*
X167226724Y-135177984D01*
X167547349Y-135045177D01*
X167979152Y-134613374D01*
X168212842Y-134049197D01*
X168212842Y-133438537D01*
X167979152Y-132874360D01*
X167547349Y-132442557D01*
X166983172Y-132208867D01*
X166372512Y-132208867D01*
X166263004Y-132254227D01*
X164356937Y-130348161D01*
X164572474Y-130348161D01*
X164604385Y-130380072D01*
X164646786Y-130443529D01*
X164898178Y-130611504D01*
X165041003Y-130639914D01*
X165174120Y-130773031D01*
X165554526Y-130930600D01*
X165966274Y-130930600D01*
X166346680Y-130773031D01*
X166637831Y-130481880D01*
X166795400Y-130101474D01*
X166795400Y-129894400D01*
X177467749Y-129894400D01*
X177529204Y-129908114D01*
X177607614Y-129894400D01*
X177615926Y-129894400D01*
X177676471Y-129882357D01*
X177807436Y-129859451D01*
X177814645Y-129854873D01*
X177823028Y-129853205D01*
X177933645Y-129779293D01*
X178045866Y-129708019D01*
X178050775Y-129701029D01*
X178057881Y-129696281D01*
X178131788Y-129585672D01*
X178208197Y-129476870D01*
X178210057Y-129468533D01*
X178214805Y-129461428D01*
X178240754Y-129330973D01*
X178269714Y-129201195D01*
X178268242Y-129192780D01*
X178269909Y-129184400D01*
X178243963Y-129053959D01*
X178233335Y-128993193D01*
X178230335Y-128985446D01*
X178214805Y-128907372D01*
X178179821Y-128855014D01*
X168019536Y-102620250D01*
X168004005Y-102542172D01*
X167930104Y-102431572D01*
X167858819Y-102319333D01*
X167851828Y-102314423D01*
X167847081Y-102307319D01*
X167736486Y-102233421D01*
X167627670Y-102157003D01*
X167619333Y-102155143D01*
X167612228Y-102150395D01*
X167481771Y-102124446D01*
X167351995Y-102095486D01*
X167273584Y-102109200D01*
X149667614Y-102109200D01*
X149589204Y-102095486D01*
X149459439Y-102124444D01*
X149328972Y-102150395D01*
X149321865Y-102155144D01*
X149313529Y-102157004D01*
X149204723Y-102233416D01*
X149094119Y-102307319D01*
X149089372Y-102314424D01*
X149082380Y-102319334D01*
X149011080Y-102431595D01*
X148937195Y-102542172D01*
X148921666Y-102620244D01*
X138771780Y-128828161D01*
X136560964Y-128828161D01*
X146507867Y-103015947D01*
X146545166Y-102800557D01*
X146481005Y-102515283D01*
X146312558Y-102276277D01*
X146065469Y-102119926D01*
X145777356Y-102070034D01*
X145603700Y-102109091D01*
X124576338Y-102097075D01*
X124667904Y-101960037D01*
X124712000Y-101738352D01*
X124712000Y-101738347D01*
X124726888Y-101663500D01*
X124712000Y-101588653D01*
X124712000Y-100328000D01*
X148642153Y-100328000D01*
X148717000Y-100342888D01*
X148791847Y-100328000D01*
X148791852Y-100328000D01*
X149013537Y-100283904D01*
X149264929Y-100115929D01*
X149307331Y-100052470D01*
X150133801Y-99226000D01*
X153899760Y-99226000D01*
X153899760Y-100926000D01*
X153949043Y-101173765D01*
X154089391Y-101383809D01*
X154299435Y-101524157D01*
X154547200Y-101573440D01*
X156247200Y-101573440D01*
X156494965Y-101524157D01*
X156705009Y-101383809D01*
X156718000Y-101364367D01*
X156730991Y-101383809D01*
X156941035Y-101524157D01*
X157188800Y-101573440D01*
X158888800Y-101573440D01*
X159136565Y-101524157D01*
X159346609Y-101383809D01*
X159486957Y-101173765D01*
X159536240Y-100926000D01*
X159536240Y-99226000D01*
X159486957Y-98978235D01*
X159346609Y-98768191D01*
X159136565Y-98627843D01*
X158888800Y-98578560D01*
X157188800Y-98578560D01*
X156941035Y-98627843D01*
X156730991Y-98768191D01*
X156718000Y-98787633D01*
X156705009Y-98768191D01*
X156494965Y-98627843D01*
X156247200Y-98578560D01*
X154547200Y-98578560D01*
X154299435Y-98627843D01*
X154089391Y-98768191D01*
X153949043Y-98978235D01*
X153899760Y-99226000D01*
X150133801Y-99226000D01*
X150852473Y-98507329D01*
X150915929Y-98464929D01*
X151083904Y-98213537D01*
X151128000Y-97991852D01*
X151128000Y-97991848D01*
X151142888Y-97917000D01*
X151128000Y-97842152D01*
X151128000Y-95218430D01*
X151180862Y-95196534D01*
X151584534Y-94792862D01*
X151638000Y-94663784D01*
X151691466Y-94792862D01*
X152095138Y-95196534D01*
X152622561Y-95415000D01*
X153193439Y-95415000D01*
X153720862Y-95196534D01*
X154124534Y-94792862D01*
X154178000Y-94663784D01*
X154231466Y-94792862D01*
X154635138Y-95196534D01*
X155162561Y-95415000D01*
X155733439Y-95415000D01*
X156260862Y-95196534D01*
X156664534Y-94792862D01*
X156718000Y-94663784D01*
X156771466Y-94792862D01*
X157175138Y-95196534D01*
X157702561Y-95415000D01*
X158273439Y-95415000D01*
X158800862Y-95196534D01*
X159204534Y-94792862D01*
X159258000Y-94663784D01*
X159311466Y-94792862D01*
X159715138Y-95196534D01*
X160242561Y-95415000D01*
X160813439Y-95415000D01*
X161340862Y-95196534D01*
X161744534Y-94792862D01*
X161798000Y-94663784D01*
X161851466Y-94792862D01*
X162255138Y-95196534D01*
X162782561Y-95415000D01*
X163353439Y-95415000D01*
X163880862Y-95196534D01*
X164284534Y-94792862D01*
X164338000Y-94663784D01*
X164391466Y-94792862D01*
X164795138Y-95196534D01*
X165322561Y-95415000D01*
X165893439Y-95415000D01*
X166420862Y-95196534D01*
X166824534Y-94792862D01*
X166878000Y-94663784D01*
X166931466Y-94792862D01*
X167335138Y-95196534D01*
X167862561Y-95415000D01*
X168433439Y-95415000D01*
X168960862Y-95196534D01*
X169364534Y-94792862D01*
X169418000Y-94663784D01*
X169471466Y-94792862D01*
X169875138Y-95196534D01*
X170402561Y-95415000D01*
X170973439Y-95415000D01*
X171500862Y-95196534D01*
X171904534Y-94792862D01*
X171958000Y-94663784D01*
X172011466Y-94792862D01*
X172415138Y-95196534D01*
X172942561Y-95415000D01*
X173513439Y-95415000D01*
X174040862Y-95196534D01*
X174444534Y-94792862D01*
X174498000Y-94663784D01*
X174551466Y-94792862D01*
G36*
X155527636Y-133040495D02*
X155334535Y-133577723D01*
X155361722Y-134147954D01*
X155527636Y-134548505D01*
X155773755Y-134622639D01*
X156601895Y-133794500D01*
X156587752Y-133780358D01*
X156767358Y-133600752D01*
X156781500Y-133614895D01*
X156795642Y-133600752D01*
X156975248Y-133780358D01*
X156961105Y-133794500D01*
X156975248Y-133808642D01*
X156795642Y-133988248D01*
X156781500Y-133974105D01*
X155953361Y-134802245D01*
X156027495Y-135048364D01*
X156089859Y-135070780D01*
X155746923Y-135299923D01*
X155733174Y-135320500D01*
X153227272Y-135320500D01*
X153369904Y-135107037D01*
X153414000Y-134885352D01*
X153414000Y-134885348D01*
X153428888Y-134810501D01*
X153414000Y-134735654D01*
X153414000Y-133668711D01*
X153655220Y-133909931D01*
X154035626Y-134067500D01*
X154447374Y-134067500D01*
X154827780Y-133909931D01*
X155118931Y-133618780D01*
X155276500Y-133238374D01*
X155276500Y-133072302D01*
X155381802Y-132967000D01*
X155771634Y-132967000D01*
X155527636Y-133040495D01*
X155527636Y-133040495D01*
G37*
X155527636Y-133040495D02*
X155334535Y-133577723D01*
X155361722Y-134147954D01*
X155527636Y-134548505D01*
X155773755Y-134622639D01*
X156601895Y-133794500D01*
X156587752Y-133780358D01*
X156767358Y-133600752D01*
X156781500Y-133614895D01*
X156795642Y-133600752D01*
X156975248Y-133780358D01*
X156961105Y-133794500D01*
X156975248Y-133808642D01*
X156795642Y-133988248D01*
X156781500Y-133974105D01*
X155953361Y-134802245D01*
X156027495Y-135048364D01*
X156089859Y-135070780D01*
X155746923Y-135299923D01*
X155733174Y-135320500D01*
X153227272Y-135320500D01*
X153369904Y-135107037D01*
X153414000Y-134885352D01*
X153414000Y-134885348D01*
X153428888Y-134810501D01*
X153414000Y-134735654D01*
X153414000Y-133668711D01*
X153655220Y-133909931D01*
X154035626Y-134067500D01*
X154447374Y-134067500D01*
X154827780Y-133909931D01*
X155118931Y-133618780D01*
X155276500Y-133238374D01*
X155276500Y-133072302D01*
X155381802Y-132967000D01*
X155771634Y-132967000D01*
X155527636Y-133040495D01*
G36*
X164843040Y-132983867D02*
X163574481Y-132983867D01*
X163499633Y-132968979D01*
X163424785Y-132983867D01*
X163424781Y-132983867D01*
X163203096Y-133027963D01*
X162951704Y-133195938D01*
X162909304Y-133259394D01*
X161927699Y-134241000D01*
X161682348Y-134241000D01*
X161641326Y-134232840D01*
X161720965Y-134011277D01*
X161693778Y-133441046D01*
X161527864Y-133040495D01*
X161281745Y-132966361D01*
X160453605Y-133794500D01*
X160467748Y-133808642D01*
X160288142Y-133988248D01*
X160274000Y-133974105D01*
X160259858Y-133988248D01*
X160080252Y-133808642D01*
X160094395Y-133794500D01*
X160080252Y-133780358D01*
X160259858Y-133600752D01*
X160274000Y-133614895D01*
X161102139Y-132786755D01*
X161028005Y-132540636D01*
X160490777Y-132347535D01*
X159920546Y-132374722D01*
X159519995Y-132540636D01*
X159445861Y-132786753D01*
X159330986Y-132671878D01*
X159295064Y-132707800D01*
X159275404Y-132608963D01*
X159107429Y-132357571D01*
X159043973Y-132315171D01*
X158451331Y-131722530D01*
X158408929Y-131659071D01*
X158157537Y-131491096D01*
X157935852Y-131447000D01*
X157935847Y-131447000D01*
X157861000Y-131432112D01*
X157786153Y-131447000D01*
X155141846Y-131447000D01*
X155066999Y-131432112D01*
X154992152Y-131447000D01*
X154992148Y-131447000D01*
X154770463Y-131491096D01*
X154770461Y-131491097D01*
X154770462Y-131491097D01*
X154582526Y-131616671D01*
X154582524Y-131616673D01*
X154519071Y-131659071D01*
X154476673Y-131722525D01*
X154201698Y-131997500D01*
X154035626Y-131997500D01*
X153655220Y-132155069D01*
X153414000Y-132396289D01*
X153414000Y-131964348D01*
X153428888Y-131889500D01*
X153414000Y-131814652D01*
X153414000Y-131814648D01*
X153369904Y-131592963D01*
X153369904Y-131592962D01*
X153244329Y-131405027D01*
X153201929Y-131341571D01*
X153138473Y-131299171D01*
X152637473Y-130798171D01*
X162657345Y-130798171D01*
X164843040Y-132983867D01*
X164843040Y-132983867D01*
G37*
X164843040Y-132983867D02*
X163574481Y-132983867D01*
X163499633Y-132968979D01*
X163424785Y-132983867D01*
X163424781Y-132983867D01*
X163203096Y-133027963D01*
X162951704Y-133195938D01*
X162909304Y-133259394D01*
X161927699Y-134241000D01*
X161682348Y-134241000D01*
X161641326Y-134232840D01*
X161720965Y-134011277D01*
X161693778Y-133441046D01*
X161527864Y-133040495D01*
X161281745Y-132966361D01*
X160453605Y-133794500D01*
X160467748Y-133808642D01*
X160288142Y-133988248D01*
X160274000Y-133974105D01*
X160259858Y-133988248D01*
X160080252Y-133808642D01*
X160094395Y-133794500D01*
X160080252Y-133780358D01*
X160259858Y-133600752D01*
X160274000Y-133614895D01*
X161102139Y-132786755D01*
X161028005Y-132540636D01*
X160490777Y-132347535D01*
X159920546Y-132374722D01*
X159519995Y-132540636D01*
X159445861Y-132786753D01*
X159330986Y-132671878D01*
X159295064Y-132707800D01*
X159275404Y-132608963D01*
X159107429Y-132357571D01*
X159043973Y-132315171D01*
X158451331Y-131722530D01*
X158408929Y-131659071D01*
X158157537Y-131491096D01*
X157935852Y-131447000D01*
X157935847Y-131447000D01*
X157861000Y-131432112D01*
X157786153Y-131447000D01*
X155141846Y-131447000D01*
X155066999Y-131432112D01*
X154992152Y-131447000D01*
X154992148Y-131447000D01*
X154770463Y-131491096D01*
X154770461Y-131491097D01*
X154770462Y-131491097D01*
X154582526Y-131616671D01*
X154582524Y-131616673D01*
X154519071Y-131659071D01*
X154476673Y-131722525D01*
X154201698Y-131997500D01*
X154035626Y-131997500D01*
X153655220Y-132155069D01*
X153414000Y-132396289D01*
X153414000Y-131964348D01*
X153428888Y-131889500D01*
X153414000Y-131814652D01*
X153414000Y-131814648D01*
X153369904Y-131592963D01*
X153369904Y-131592962D01*
X153244329Y-131405027D01*
X153201929Y-131341571D01*
X153138473Y-131299171D01*
X152637473Y-130798171D01*
X162657345Y-130798171D01*
X164843040Y-132983867D01*
G36*
X121414001Y-107503728D02*
X121388473Y-107486671D01*
X120983603Y-107081802D01*
X121005500Y-107028939D01*
X121005500Y-106458061D01*
X120787034Y-105930638D01*
X120383362Y-105526966D01*
X120253332Y-105473106D01*
X120605077Y-105238077D01*
X120922240Y-104763409D01*
X121033613Y-104203500D01*
X120922240Y-103643591D01*
X120605077Y-103168923D01*
X120130409Y-102851760D01*
X119711833Y-102768500D01*
X119429167Y-102768500D01*
X119010591Y-102851760D01*
X118535923Y-103168923D01*
X118218760Y-103643591D01*
X118107387Y-104203500D01*
X118218760Y-104763409D01*
X118535923Y-105238077D01*
X118887668Y-105473106D01*
X118757638Y-105526966D01*
X118353966Y-105930638D01*
X118135500Y-106458061D01*
X118135500Y-107028939D01*
X118353966Y-107556362D01*
X118757638Y-107960034D01*
X118860160Y-108002500D01*
X118649750Y-108002500D01*
X118491000Y-108161250D01*
X118491000Y-109410500D01*
X118511000Y-109410500D01*
X118511000Y-109664500D01*
X118491000Y-109664500D01*
X118491000Y-109684500D01*
X118237000Y-109684500D01*
X118237000Y-109664500D01*
X118217000Y-109664500D01*
X118217000Y-109410500D01*
X118237000Y-109410500D01*
X118237000Y-108161250D01*
X118078250Y-108002500D01*
X117337691Y-108002500D01*
X117104302Y-108099173D01*
X116925673Y-108277801D01*
X116885221Y-108375460D01*
X116756496Y-108246735D01*
X116203000Y-108017469D01*
X116203000Y-107136043D01*
X116477577Y-106952577D01*
X116794740Y-106477909D01*
X116906113Y-105918000D01*
X116794740Y-105358091D01*
X116477577Y-104883423D01*
X116203000Y-104699957D01*
X116203000Y-102740301D01*
X116837302Y-102106000D01*
X121414000Y-102106000D01*
X121414001Y-107503728D01*
X121414001Y-107503728D01*
G37*
X121414001Y-107503728D02*
X121388473Y-107486671D01*
X120983603Y-107081802D01*
X121005500Y-107028939D01*
X121005500Y-106458061D01*
X120787034Y-105930638D01*
X120383362Y-105526966D01*
X120253332Y-105473106D01*
X120605077Y-105238077D01*
X120922240Y-104763409D01*
X121033613Y-104203500D01*
X120922240Y-103643591D01*
X120605077Y-103168923D01*
X120130409Y-102851760D01*
X119711833Y-102768500D01*
X119429167Y-102768500D01*
X119010591Y-102851760D01*
X118535923Y-103168923D01*
X118218760Y-103643591D01*
X118107387Y-104203500D01*
X118218760Y-104763409D01*
X118535923Y-105238077D01*
X118887668Y-105473106D01*
X118757638Y-105526966D01*
X118353966Y-105930638D01*
X118135500Y-106458061D01*
X118135500Y-107028939D01*
X118353966Y-107556362D01*
X118757638Y-107960034D01*
X118860160Y-108002500D01*
X118649750Y-108002500D01*
X118491000Y-108161250D01*
X118491000Y-109410500D01*
X118511000Y-109410500D01*
X118511000Y-109664500D01*
X118491000Y-109664500D01*
X118491000Y-109684500D01*
X118237000Y-109684500D01*
X118237000Y-109664500D01*
X118217000Y-109664500D01*
X118217000Y-109410500D01*
X118237000Y-109410500D01*
X118237000Y-108161250D01*
X118078250Y-108002500D01*
X117337691Y-108002500D01*
X117104302Y-108099173D01*
X116925673Y-108277801D01*
X116885221Y-108375460D01*
X116756496Y-108246735D01*
X116203000Y-108017469D01*
X116203000Y-107136043D01*
X116477577Y-106952577D01*
X116794740Y-106477909D01*
X116906113Y-105918000D01*
X116794740Y-105358091D01*
X116477577Y-104883423D01*
X116203000Y-104699957D01*
X116203000Y-102740301D01*
X116837302Y-102106000D01*
X121414000Y-102106000D01*
X121414001Y-107503728D01*
G36*
X146611466Y-79552862D02*
X147015138Y-79956534D01*
X147542561Y-80175000D01*
X148113439Y-80175000D01*
X148166301Y-80153104D01*
X148761673Y-80748476D01*
X148804071Y-80811929D01*
X148867524Y-80854327D01*
X148867526Y-80854329D01*
X148992902Y-80938102D01*
X149055463Y-80979904D01*
X149277148Y-81024000D01*
X149277152Y-81024000D01*
X149351999Y-81038888D01*
X149426846Y-81024000D01*
X153216368Y-81024000D01*
X153143000Y-81201126D01*
X153143000Y-81612874D01*
X153300569Y-81993280D01*
X153418001Y-82110712D01*
X153418001Y-85018017D01*
X153193439Y-84925000D01*
X152622561Y-84925000D01*
X152095138Y-85143466D01*
X151691466Y-85547138D01*
X151638000Y-85676216D01*
X151584534Y-85547138D01*
X151180862Y-85143466D01*
X150653439Y-84925000D01*
X150082561Y-84925000D01*
X149555138Y-85143466D01*
X149151466Y-85547138D01*
X149098000Y-85676216D01*
X149044534Y-85547138D01*
X148640862Y-85143466D01*
X148113439Y-84925000D01*
X147542561Y-84925000D01*
X147015138Y-85143466D01*
X146611466Y-85547138D01*
X146558000Y-85676216D01*
X146504534Y-85547138D01*
X146100862Y-85143466D01*
X145573439Y-84925000D01*
X145002561Y-84925000D01*
X144475138Y-85143466D01*
X144071466Y-85547138D01*
X144024475Y-85660583D01*
X144001864Y-85605995D01*
X143755745Y-85531861D01*
X142927605Y-86360000D01*
X143755745Y-87188139D01*
X144001864Y-87114005D01*
X144022874Y-87055552D01*
X144071466Y-87172862D01*
X144475138Y-87576534D01*
X144604216Y-87630000D01*
X144475138Y-87683466D01*
X144071466Y-88087138D01*
X144018000Y-88216216D01*
X143964534Y-88087138D01*
X143560862Y-87683466D01*
X143447417Y-87636475D01*
X143502005Y-87613864D01*
X143576139Y-87367745D01*
X142748000Y-86539605D01*
X141919861Y-87367745D01*
X141993995Y-87613864D01*
X142052448Y-87634874D01*
X141935138Y-87683466D01*
X141531466Y-88087138D01*
X141313000Y-88614561D01*
X141313000Y-89185439D01*
X141531466Y-89712862D01*
X141935138Y-90116534D01*
X142064216Y-90170000D01*
X141935138Y-90223466D01*
X141531466Y-90627138D01*
X141313000Y-91154561D01*
X141313000Y-91725439D01*
X141531466Y-92252862D01*
X141935138Y-92656534D01*
X142064216Y-92710000D01*
X141935138Y-92763466D01*
X141531466Y-93167138D01*
X141313000Y-93694561D01*
X141313000Y-94265439D01*
X141531466Y-94792862D01*
X141935138Y-95196534D01*
X141988000Y-95218430D01*
X141988001Y-97157000D01*
X124151366Y-97157000D01*
X124076519Y-97142112D01*
X124001672Y-97157000D01*
X124001667Y-97157000D01*
X123779982Y-97201096D01*
X123528590Y-97369071D01*
X123486190Y-97432527D01*
X121943530Y-98975188D01*
X121880071Y-99017590D01*
X121712096Y-99268983D01*
X121668000Y-99490668D01*
X121668000Y-99490672D01*
X121653112Y-99565519D01*
X121668000Y-99640367D01*
X121668001Y-100205697D01*
X121287698Y-100586000D01*
X116597348Y-100586000D01*
X116522500Y-100571112D01*
X116447652Y-100586000D01*
X116447648Y-100586000D01*
X116225963Y-100630096D01*
X115974571Y-100798071D01*
X115932171Y-100861527D01*
X114958530Y-101835169D01*
X114895071Y-101877571D01*
X114727096Y-102128964D01*
X114683000Y-102350649D01*
X114683000Y-102350653D01*
X114668112Y-102425500D01*
X114683000Y-102500347D01*
X114683001Y-104699956D01*
X114408423Y-104883423D01*
X114181389Y-105223203D01*
X114156864Y-105163995D01*
X113910745Y-105089861D01*
X113082605Y-105918000D01*
X113910745Y-106746139D01*
X114156864Y-106672005D01*
X114179280Y-106609641D01*
X114408423Y-106952577D01*
X114683000Y-107136044D01*
X114683001Y-108175671D01*
X114494754Y-108049888D01*
X114246989Y-108000605D01*
X112446989Y-108000605D01*
X112200474Y-108049639D01*
X112073691Y-106926917D01*
X112074861Y-106925747D01*
X112148995Y-107171864D01*
X112686223Y-107364965D01*
X113256454Y-107337778D01*
X113657005Y-107171864D01*
X113731139Y-106925745D01*
X112903000Y-106097605D01*
X112888858Y-106111748D01*
X112709252Y-105932142D01*
X112723395Y-105918000D01*
X112709252Y-105903858D01*
X112888858Y-105724252D01*
X112903000Y-105738395D01*
X113731139Y-104910255D01*
X113657005Y-104664136D01*
X113119777Y-104471035D01*
X112549546Y-104498222D01*
X112148995Y-104664136D01*
X112074861Y-104910253D01*
X111959986Y-104795378D01*
X111920183Y-104835181D01*
X111850824Y-103571980D01*
X111835000Y-102357357D01*
X111835000Y-100182984D01*
X112126667Y-100241000D01*
X112409333Y-100241000D01*
X112827909Y-100157740D01*
X113302577Y-99840577D01*
X113537606Y-99488832D01*
X113591466Y-99618862D01*
X113995138Y-100022534D01*
X114522561Y-100241000D01*
X115093439Y-100241000D01*
X115620862Y-100022534D01*
X116024534Y-99618862D01*
X116243000Y-99091439D01*
X116243000Y-98520561D01*
X116024534Y-97993138D01*
X115620862Y-97589466D01*
X115093439Y-97371000D01*
X114522561Y-97371000D01*
X113995138Y-97589466D01*
X113591466Y-97993138D01*
X113537606Y-98123168D01*
X113302577Y-97771423D01*
X113025288Y-97586145D01*
X112983904Y-97378093D01*
X112815929Y-97126701D01*
X112752473Y-97084301D01*
X112285010Y-96616839D01*
X112285010Y-92668436D01*
X112560100Y-92668436D01*
X112560100Y-93259564D01*
X112786314Y-93805695D01*
X113204305Y-94223686D01*
X113750436Y-94449900D01*
X114341564Y-94449900D01*
X114887695Y-94223686D01*
X115305686Y-93805695D01*
X115531900Y-93259564D01*
X115531900Y-92668436D01*
X115305686Y-92122305D01*
X114887695Y-91704314D01*
X114341564Y-91478100D01*
X113750436Y-91478100D01*
X113204305Y-91704314D01*
X112786314Y-92122305D01*
X112560100Y-92668436D01*
X112285010Y-92668436D01*
X112285010Y-90434508D01*
X112553961Y-90545904D01*
X112776000Y-90423915D01*
X112776000Y-89281000D01*
X113030000Y-89281000D01*
X113030000Y-90423915D01*
X113252039Y-90545904D01*
X113640423Y-90385041D01*
X114055389Y-90009134D01*
X114294914Y-89503041D01*
X114173629Y-89281000D01*
X113030000Y-89281000D01*
X112776000Y-89281000D01*
X112756000Y-89281000D01*
X112756000Y-89027000D01*
X112776000Y-89027000D01*
X112776000Y-89007000D01*
X113030000Y-89007000D01*
X113030000Y-89027000D01*
X114173629Y-89027000D01*
X114294914Y-88804959D01*
X114055389Y-88298866D01*
X113640423Y-87922959D01*
X113566573Y-87892372D01*
X113715862Y-87830534D01*
X114119534Y-87426862D01*
X114338000Y-86899439D01*
X114338000Y-86574001D01*
X115381527Y-86574001D01*
X115078684Y-86876844D01*
X114808000Y-87530334D01*
X114808000Y-88237666D01*
X115078684Y-88891156D01*
X115578844Y-89391316D01*
X116232334Y-89662000D01*
X116939666Y-89662000D01*
X117593156Y-89391316D01*
X118093316Y-88891156D01*
X118195691Y-88644000D01*
X119827199Y-88644000D01*
X120144001Y-88960803D01*
X120144000Y-90540169D01*
X119648921Y-90335100D01*
X118603079Y-90335100D01*
X117636848Y-90735326D01*
X116897326Y-91474848D01*
X116497100Y-92441079D01*
X116497100Y-93486921D01*
X116897326Y-94453152D01*
X117636848Y-95192674D01*
X118603079Y-95592900D01*
X119648921Y-95592900D01*
X120615152Y-95192674D01*
X121354674Y-94453152D01*
X121641615Y-93760416D01*
X122853673Y-94972476D01*
X122896071Y-95035929D01*
X122959524Y-95078327D01*
X122959526Y-95078329D01*
X123029836Y-95125308D01*
X123147463Y-95203904D01*
X123369148Y-95248000D01*
X123369152Y-95248000D01*
X123443999Y-95262888D01*
X123518846Y-95248000D01*
X124639153Y-95248000D01*
X124714000Y-95262888D01*
X124788847Y-95248000D01*
X124788852Y-95248000D01*
X125010537Y-95203904D01*
X125261929Y-95035929D01*
X125304331Y-94972470D01*
X126214473Y-94062329D01*
X126277929Y-94019929D01*
X126445904Y-93768537D01*
X126490000Y-93546852D01*
X126490000Y-93546847D01*
X126504888Y-93472000D01*
X126490000Y-93397153D01*
X126490000Y-91034890D01*
X127590524Y-91034890D01*
X127760355Y-91444924D01*
X128150642Y-91873183D01*
X128675108Y-92119486D01*
X128905000Y-91998819D01*
X128905000Y-90805000D01*
X129159000Y-90805000D01*
X129159000Y-91998819D01*
X129388892Y-92119486D01*
X129913358Y-91873183D01*
X130303645Y-91444924D01*
X130473476Y-91034890D01*
X130462742Y-91014550D01*
X130544200Y-91014550D01*
X130544200Y-91705110D01*
X130640873Y-91938499D01*
X130819502Y-92117127D01*
X131052891Y-92213800D01*
X131743450Y-92213800D01*
X131902200Y-92055050D01*
X131902200Y-90855800D01*
X132156200Y-90855800D01*
X132156200Y-92055050D01*
X132314950Y-92213800D01*
X133005509Y-92213800D01*
X133238898Y-92117127D01*
X133417527Y-91938499D01*
X133514200Y-91705110D01*
X133514200Y-91014550D01*
X133355450Y-90855800D01*
X132156200Y-90855800D01*
X131902200Y-90855800D01*
X130702950Y-90855800D01*
X130544200Y-91014550D01*
X130462742Y-91014550D01*
X130352155Y-90805000D01*
X129159000Y-90805000D01*
X128905000Y-90805000D01*
X127711845Y-90805000D01*
X127590524Y-91034890D01*
X126490000Y-91034890D01*
X126490000Y-90498848D01*
X126504888Y-90424000D01*
X126490000Y-90349152D01*
X126490000Y-90349148D01*
X126445904Y-90127463D01*
X126445904Y-90127462D01*
X126320329Y-89939527D01*
X126277929Y-89876071D01*
X126214473Y-89833671D01*
X124712000Y-88331199D01*
X124712000Y-87436802D01*
X124774802Y-87374000D01*
X127534560Y-87374000D01*
X127534560Y-88988000D01*
X127583843Y-89235765D01*
X127724191Y-89445809D01*
X127934235Y-89586157D01*
X128037708Y-89606739D01*
X127760355Y-89911076D01*
X127590524Y-90321110D01*
X127711845Y-90551000D01*
X128905000Y-90551000D01*
X128905000Y-90531000D01*
X129159000Y-90531000D01*
X129159000Y-90551000D01*
X130352155Y-90551000D01*
X130473476Y-90321110D01*
X130303645Y-89911076D01*
X130026292Y-89606739D01*
X130129765Y-89586157D01*
X130339809Y-89445809D01*
X130480157Y-89235765D01*
X130505200Y-89109864D01*
X130530243Y-89235765D01*
X130670591Y-89445809D01*
X130696712Y-89463263D01*
X130640873Y-89519101D01*
X130544200Y-89752490D01*
X130544200Y-90443050D01*
X130702950Y-90601800D01*
X131902200Y-90601800D01*
X131902200Y-90581800D01*
X132156200Y-90581800D01*
X132156200Y-90601800D01*
X133355450Y-90601800D01*
X133514200Y-90443050D01*
X133514200Y-89752490D01*
X133417527Y-89519101D01*
X133309451Y-89411025D01*
X133426557Y-89235765D01*
X133475840Y-88988000D01*
X133475840Y-87288000D01*
X133426557Y-87040235D01*
X133286209Y-86830191D01*
X133076165Y-86689843D01*
X132828400Y-86640560D01*
X131128400Y-86640560D01*
X130880635Y-86689843D01*
X130670591Y-86830191D01*
X130530243Y-87040235D01*
X130505200Y-87166136D01*
X130480157Y-87040235D01*
X130339809Y-86830191D01*
X130129765Y-86689843D01*
X129882000Y-86640560D01*
X129318241Y-86640560D01*
X129815578Y-86143223D01*
X141301035Y-86143223D01*
X141328222Y-86713454D01*
X141494136Y-87114005D01*
X141740255Y-87188139D01*
X142568395Y-86360000D01*
X141740255Y-85531861D01*
X141494136Y-85605995D01*
X141301035Y-86143223D01*
X129815578Y-86143223D01*
X131378802Y-84580000D01*
X141509570Y-84580000D01*
X141531466Y-84632862D01*
X141935138Y-85036534D01*
X142048583Y-85083525D01*
X141993995Y-85106136D01*
X141919861Y-85352255D01*
X142748000Y-86180395D01*
X143576139Y-85352255D01*
X143502005Y-85106136D01*
X143443552Y-85085126D01*
X143560862Y-85036534D01*
X143964534Y-84632862D01*
X144183000Y-84105439D01*
X144183000Y-83534561D01*
X143964534Y-83007138D01*
X143560862Y-82603466D01*
X143431784Y-82550000D01*
X143560862Y-82496534D01*
X143964534Y-82092862D01*
X144183000Y-81565439D01*
X144183000Y-80994561D01*
X143964534Y-80467138D01*
X143560862Y-80063466D01*
X143431784Y-80010000D01*
X143560862Y-79956534D01*
X143964534Y-79552862D01*
X144018000Y-79423784D01*
X144071466Y-79552862D01*
X144475138Y-79956534D01*
X145002561Y-80175000D01*
X145573439Y-80175000D01*
X146100862Y-79956534D01*
X146504534Y-79552862D01*
X146558000Y-79423784D01*
X146611466Y-79552862D01*
X146611466Y-79552862D01*
G37*
X146611466Y-79552862D02*
X147015138Y-79956534D01*
X147542561Y-80175000D01*
X148113439Y-80175000D01*
X148166301Y-80153104D01*
X148761673Y-80748476D01*
X148804071Y-80811929D01*
X148867524Y-80854327D01*
X148867526Y-80854329D01*
X148992902Y-80938102D01*
X149055463Y-80979904D01*
X149277148Y-81024000D01*
X149277152Y-81024000D01*
X149351999Y-81038888D01*
X149426846Y-81024000D01*
X153216368Y-81024000D01*
X153143000Y-81201126D01*
X153143000Y-81612874D01*
X153300569Y-81993280D01*
X153418001Y-82110712D01*
X153418001Y-85018017D01*
X153193439Y-84925000D01*
X152622561Y-84925000D01*
X152095138Y-85143466D01*
X151691466Y-85547138D01*
X151638000Y-85676216D01*
X151584534Y-85547138D01*
X151180862Y-85143466D01*
X150653439Y-84925000D01*
X150082561Y-84925000D01*
X149555138Y-85143466D01*
X149151466Y-85547138D01*
X149098000Y-85676216D01*
X149044534Y-85547138D01*
X148640862Y-85143466D01*
X148113439Y-84925000D01*
X147542561Y-84925000D01*
X147015138Y-85143466D01*
X146611466Y-85547138D01*
X146558000Y-85676216D01*
X146504534Y-85547138D01*
X146100862Y-85143466D01*
X145573439Y-84925000D01*
X145002561Y-84925000D01*
X144475138Y-85143466D01*
X144071466Y-85547138D01*
X144024475Y-85660583D01*
X144001864Y-85605995D01*
X143755745Y-85531861D01*
X142927605Y-86360000D01*
X143755745Y-87188139D01*
X144001864Y-87114005D01*
X144022874Y-87055552D01*
X144071466Y-87172862D01*
X144475138Y-87576534D01*
X144604216Y-87630000D01*
X144475138Y-87683466D01*
X144071466Y-88087138D01*
X144018000Y-88216216D01*
X143964534Y-88087138D01*
X143560862Y-87683466D01*
X143447417Y-87636475D01*
X143502005Y-87613864D01*
X143576139Y-87367745D01*
X142748000Y-86539605D01*
X141919861Y-87367745D01*
X141993995Y-87613864D01*
X142052448Y-87634874D01*
X141935138Y-87683466D01*
X141531466Y-88087138D01*
X141313000Y-88614561D01*
X141313000Y-89185439D01*
X141531466Y-89712862D01*
X141935138Y-90116534D01*
X142064216Y-90170000D01*
X141935138Y-90223466D01*
X141531466Y-90627138D01*
X141313000Y-91154561D01*
X141313000Y-91725439D01*
X141531466Y-92252862D01*
X141935138Y-92656534D01*
X142064216Y-92710000D01*
X141935138Y-92763466D01*
X141531466Y-93167138D01*
X141313000Y-93694561D01*
X141313000Y-94265439D01*
X141531466Y-94792862D01*
X141935138Y-95196534D01*
X141988000Y-95218430D01*
X141988001Y-97157000D01*
X124151366Y-97157000D01*
X124076519Y-97142112D01*
X124001672Y-97157000D01*
X124001667Y-97157000D01*
X123779982Y-97201096D01*
X123528590Y-97369071D01*
X123486190Y-97432527D01*
X121943530Y-98975188D01*
X121880071Y-99017590D01*
X121712096Y-99268983D01*
X121668000Y-99490668D01*
X121668000Y-99490672D01*
X121653112Y-99565519D01*
X121668000Y-99640367D01*
X121668001Y-100205697D01*
X121287698Y-100586000D01*
X116597348Y-100586000D01*
X116522500Y-100571112D01*
X116447652Y-100586000D01*
X116447648Y-100586000D01*
X116225963Y-100630096D01*
X115974571Y-100798071D01*
X115932171Y-100861527D01*
X114958530Y-101835169D01*
X114895071Y-101877571D01*
X114727096Y-102128964D01*
X114683000Y-102350649D01*
X114683000Y-102350653D01*
X114668112Y-102425500D01*
X114683000Y-102500347D01*
X114683001Y-104699956D01*
X114408423Y-104883423D01*
X114181389Y-105223203D01*
X114156864Y-105163995D01*
X113910745Y-105089861D01*
X113082605Y-105918000D01*
X113910745Y-106746139D01*
X114156864Y-106672005D01*
X114179280Y-106609641D01*
X114408423Y-106952577D01*
X114683000Y-107136044D01*
X114683001Y-108175671D01*
X114494754Y-108049888D01*
X114246989Y-108000605D01*
X112446989Y-108000605D01*
X112200474Y-108049639D01*
X112073691Y-106926917D01*
X112074861Y-106925747D01*
X112148995Y-107171864D01*
X112686223Y-107364965D01*
X113256454Y-107337778D01*
X113657005Y-107171864D01*
X113731139Y-106925745D01*
X112903000Y-106097605D01*
X112888858Y-106111748D01*
X112709252Y-105932142D01*
X112723395Y-105918000D01*
X112709252Y-105903858D01*
X112888858Y-105724252D01*
X112903000Y-105738395D01*
X113731139Y-104910255D01*
X113657005Y-104664136D01*
X113119777Y-104471035D01*
X112549546Y-104498222D01*
X112148995Y-104664136D01*
X112074861Y-104910253D01*
X111959986Y-104795378D01*
X111920183Y-104835181D01*
X111850824Y-103571980D01*
X111835000Y-102357357D01*
X111835000Y-100182984D01*
X112126667Y-100241000D01*
X112409333Y-100241000D01*
X112827909Y-100157740D01*
X113302577Y-99840577D01*
X113537606Y-99488832D01*
X113591466Y-99618862D01*
X113995138Y-100022534D01*
X114522561Y-100241000D01*
X115093439Y-100241000D01*
X115620862Y-100022534D01*
X116024534Y-99618862D01*
X116243000Y-99091439D01*
X116243000Y-98520561D01*
X116024534Y-97993138D01*
X115620862Y-97589466D01*
X115093439Y-97371000D01*
X114522561Y-97371000D01*
X113995138Y-97589466D01*
X113591466Y-97993138D01*
X113537606Y-98123168D01*
X113302577Y-97771423D01*
X113025288Y-97586145D01*
X112983904Y-97378093D01*
X112815929Y-97126701D01*
X112752473Y-97084301D01*
X112285010Y-96616839D01*
X112285010Y-92668436D01*
X112560100Y-92668436D01*
X112560100Y-93259564D01*
X112786314Y-93805695D01*
X113204305Y-94223686D01*
X113750436Y-94449900D01*
X114341564Y-94449900D01*
X114887695Y-94223686D01*
X115305686Y-93805695D01*
X115531900Y-93259564D01*
X115531900Y-92668436D01*
X115305686Y-92122305D01*
X114887695Y-91704314D01*
X114341564Y-91478100D01*
X113750436Y-91478100D01*
X113204305Y-91704314D01*
X112786314Y-92122305D01*
X112560100Y-92668436D01*
X112285010Y-92668436D01*
X112285010Y-90434508D01*
X112553961Y-90545904D01*
X112776000Y-90423915D01*
X112776000Y-89281000D01*
X113030000Y-89281000D01*
X113030000Y-90423915D01*
X113252039Y-90545904D01*
X113640423Y-90385041D01*
X114055389Y-90009134D01*
X114294914Y-89503041D01*
X114173629Y-89281000D01*
X113030000Y-89281000D01*
X112776000Y-89281000D01*
X112756000Y-89281000D01*
X112756000Y-89027000D01*
X112776000Y-89027000D01*
X112776000Y-89007000D01*
X113030000Y-89007000D01*
X113030000Y-89027000D01*
X114173629Y-89027000D01*
X114294914Y-88804959D01*
X114055389Y-88298866D01*
X113640423Y-87922959D01*
X113566573Y-87892372D01*
X113715862Y-87830534D01*
X114119534Y-87426862D01*
X114338000Y-86899439D01*
X114338000Y-86574001D01*
X115381527Y-86574001D01*
X115078684Y-86876844D01*
X114808000Y-87530334D01*
X114808000Y-88237666D01*
X115078684Y-88891156D01*
X115578844Y-89391316D01*
X116232334Y-89662000D01*
X116939666Y-89662000D01*
X117593156Y-89391316D01*
X118093316Y-88891156D01*
X118195691Y-88644000D01*
X119827199Y-88644000D01*
X120144001Y-88960803D01*
X120144000Y-90540169D01*
X119648921Y-90335100D01*
X118603079Y-90335100D01*
X117636848Y-90735326D01*
X116897326Y-91474848D01*
X116497100Y-92441079D01*
X116497100Y-93486921D01*
X116897326Y-94453152D01*
X117636848Y-95192674D01*
X118603079Y-95592900D01*
X119648921Y-95592900D01*
X120615152Y-95192674D01*
X121354674Y-94453152D01*
X121641615Y-93760416D01*
X122853673Y-94972476D01*
X122896071Y-95035929D01*
X122959524Y-95078327D01*
X122959526Y-95078329D01*
X123029836Y-95125308D01*
X123147463Y-95203904D01*
X123369148Y-95248000D01*
X123369152Y-95248000D01*
X123443999Y-95262888D01*
X123518846Y-95248000D01*
X124639153Y-95248000D01*
X124714000Y-95262888D01*
X124788847Y-95248000D01*
X124788852Y-95248000D01*
X125010537Y-95203904D01*
X125261929Y-95035929D01*
X125304331Y-94972470D01*
X126214473Y-94062329D01*
X126277929Y-94019929D01*
X126445904Y-93768537D01*
X126490000Y-93546852D01*
X126490000Y-93546847D01*
X126504888Y-93472000D01*
X126490000Y-93397153D01*
X126490000Y-91034890D01*
X127590524Y-91034890D01*
X127760355Y-91444924D01*
X128150642Y-91873183D01*
X128675108Y-92119486D01*
X128905000Y-91998819D01*
X128905000Y-90805000D01*
X129159000Y-90805000D01*
X129159000Y-91998819D01*
X129388892Y-92119486D01*
X129913358Y-91873183D01*
X130303645Y-91444924D01*
X130473476Y-91034890D01*
X130462742Y-91014550D01*
X130544200Y-91014550D01*
X130544200Y-91705110D01*
X130640873Y-91938499D01*
X130819502Y-92117127D01*
X131052891Y-92213800D01*
X131743450Y-92213800D01*
X131902200Y-92055050D01*
X131902200Y-90855800D01*
X132156200Y-90855800D01*
X132156200Y-92055050D01*
X132314950Y-92213800D01*
X133005509Y-92213800D01*
X133238898Y-92117127D01*
X133417527Y-91938499D01*
X133514200Y-91705110D01*
X133514200Y-91014550D01*
X133355450Y-90855800D01*
X132156200Y-90855800D01*
X131902200Y-90855800D01*
X130702950Y-90855800D01*
X130544200Y-91014550D01*
X130462742Y-91014550D01*
X130352155Y-90805000D01*
X129159000Y-90805000D01*
X128905000Y-90805000D01*
X127711845Y-90805000D01*
X127590524Y-91034890D01*
X126490000Y-91034890D01*
X126490000Y-90498848D01*
X126504888Y-90424000D01*
X126490000Y-90349152D01*
X126490000Y-90349148D01*
X126445904Y-90127463D01*
X126445904Y-90127462D01*
X126320329Y-89939527D01*
X126277929Y-89876071D01*
X126214473Y-89833671D01*
X124712000Y-88331199D01*
X124712000Y-87436802D01*
X124774802Y-87374000D01*
X127534560Y-87374000D01*
X127534560Y-88988000D01*
X127583843Y-89235765D01*
X127724191Y-89445809D01*
X127934235Y-89586157D01*
X128037708Y-89606739D01*
X127760355Y-89911076D01*
X127590524Y-90321110D01*
X127711845Y-90551000D01*
X128905000Y-90551000D01*
X128905000Y-90531000D01*
X129159000Y-90531000D01*
X129159000Y-90551000D01*
X130352155Y-90551000D01*
X130473476Y-90321110D01*
X130303645Y-89911076D01*
X130026292Y-89606739D01*
X130129765Y-89586157D01*
X130339809Y-89445809D01*
X130480157Y-89235765D01*
X130505200Y-89109864D01*
X130530243Y-89235765D01*
X130670591Y-89445809D01*
X130696712Y-89463263D01*
X130640873Y-89519101D01*
X130544200Y-89752490D01*
X130544200Y-90443050D01*
X130702950Y-90601800D01*
X131902200Y-90601800D01*
X131902200Y-90581800D01*
X132156200Y-90581800D01*
X132156200Y-90601800D01*
X133355450Y-90601800D01*
X133514200Y-90443050D01*
X133514200Y-89752490D01*
X133417527Y-89519101D01*
X133309451Y-89411025D01*
X133426557Y-89235765D01*
X133475840Y-88988000D01*
X133475840Y-87288000D01*
X133426557Y-87040235D01*
X133286209Y-86830191D01*
X133076165Y-86689843D01*
X132828400Y-86640560D01*
X131128400Y-86640560D01*
X130880635Y-86689843D01*
X130670591Y-86830191D01*
X130530243Y-87040235D01*
X130505200Y-87166136D01*
X130480157Y-87040235D01*
X130339809Y-86830191D01*
X130129765Y-86689843D01*
X129882000Y-86640560D01*
X129318241Y-86640560D01*
X129815578Y-86143223D01*
X141301035Y-86143223D01*
X141328222Y-86713454D01*
X141494136Y-87114005D01*
X141740255Y-87188139D01*
X142568395Y-86360000D01*
X141740255Y-85531861D01*
X141494136Y-85605995D01*
X141301035Y-86143223D01*
X129815578Y-86143223D01*
X131378802Y-84580000D01*
X141509570Y-84580000D01*
X141531466Y-84632862D01*
X141935138Y-85036534D01*
X142048583Y-85083525D01*
X141993995Y-85106136D01*
X141919861Y-85352255D01*
X142748000Y-86180395D01*
X143576139Y-85352255D01*
X143502005Y-85106136D01*
X143443552Y-85085126D01*
X143560862Y-85036534D01*
X143964534Y-84632862D01*
X144183000Y-84105439D01*
X144183000Y-83534561D01*
X143964534Y-83007138D01*
X143560862Y-82603466D01*
X143431784Y-82550000D01*
X143560862Y-82496534D01*
X143964534Y-82092862D01*
X144183000Y-81565439D01*
X144183000Y-80994561D01*
X143964534Y-80467138D01*
X143560862Y-80063466D01*
X143431784Y-80010000D01*
X143560862Y-79956534D01*
X143964534Y-79552862D01*
X144018000Y-79423784D01*
X144071466Y-79552862D01*
X144475138Y-79956534D01*
X145002561Y-80175000D01*
X145573439Y-80175000D01*
X146100862Y-79956534D01*
X146504534Y-79552862D01*
X146558000Y-79423784D01*
X146611466Y-79552862D01*
G36*
X189065000Y-89884561D02*
X189065000Y-90455439D01*
X189283466Y-90982862D01*
X189687138Y-91386534D01*
X190214561Y-91605000D01*
X190785439Y-91605000D01*
X191312862Y-91386534D01*
X191644396Y-91055000D01*
X196737422Y-91055000D01*
X197235000Y-91552579D01*
X197235001Y-93797579D01*
X196871081Y-94161499D01*
X196849362Y-94213933D01*
X196615413Y-94140192D01*
X195759605Y-94996000D01*
X195773748Y-95010143D01*
X195594143Y-95189748D01*
X195580000Y-95175605D01*
X195565858Y-95189748D01*
X195386253Y-95010143D01*
X195400395Y-94996000D01*
X194544587Y-94140192D01*
X194310000Y-94214135D01*
X194075413Y-94140192D01*
X193219605Y-94996000D01*
X193233748Y-95010143D01*
X193054143Y-95189748D01*
X193040000Y-95175605D01*
X193025858Y-95189748D01*
X192846253Y-95010143D01*
X192860395Y-94996000D01*
X192004587Y-94140192D01*
X191770638Y-94213933D01*
X191748919Y-94161499D01*
X191548007Y-93960587D01*
X192184192Y-93960587D01*
X193040000Y-94816395D01*
X193895808Y-93960587D01*
X194724192Y-93960587D01*
X195580000Y-94816395D01*
X196435808Y-93960587D01*
X196356983Y-93710510D01*
X195805903Y-93511023D01*
X195220431Y-93537611D01*
X194803017Y-93710510D01*
X194724192Y-93960587D01*
X193895808Y-93960587D01*
X193816983Y-93710510D01*
X193265903Y-93511023D01*
X192680431Y-93537611D01*
X192263017Y-93710510D01*
X192184192Y-93960587D01*
X191548007Y-93960587D01*
X191334501Y-93747081D01*
X190793038Y-93522800D01*
X190206962Y-93522800D01*
X189665499Y-93747081D01*
X189251081Y-94161499D01*
X189230000Y-94212393D01*
X189208919Y-94161499D01*
X188794501Y-93747081D01*
X188720000Y-93716222D01*
X188720000Y-91006846D01*
X188734888Y-90931999D01*
X188720000Y-90857152D01*
X188720000Y-90857148D01*
X188675904Y-90635463D01*
X188616063Y-90545904D01*
X188550329Y-90447526D01*
X188550327Y-90447524D01*
X188507929Y-90384071D01*
X188444476Y-90341673D01*
X187762802Y-89660000D01*
X189158016Y-89660000D01*
X189065000Y-89884561D01*
X189065000Y-89884561D01*
G37*
X189065000Y-89884561D02*
X189065000Y-90455439D01*
X189283466Y-90982862D01*
X189687138Y-91386534D01*
X190214561Y-91605000D01*
X190785439Y-91605000D01*
X191312862Y-91386534D01*
X191644396Y-91055000D01*
X196737422Y-91055000D01*
X197235000Y-91552579D01*
X197235001Y-93797579D01*
X196871081Y-94161499D01*
X196849362Y-94213933D01*
X196615413Y-94140192D01*
X195759605Y-94996000D01*
X195773748Y-95010143D01*
X195594143Y-95189748D01*
X195580000Y-95175605D01*
X195565858Y-95189748D01*
X195386253Y-95010143D01*
X195400395Y-94996000D01*
X194544587Y-94140192D01*
X194310000Y-94214135D01*
X194075413Y-94140192D01*
X193219605Y-94996000D01*
X193233748Y-95010143D01*
X193054143Y-95189748D01*
X193040000Y-95175605D01*
X193025858Y-95189748D01*
X192846253Y-95010143D01*
X192860395Y-94996000D01*
X192004587Y-94140192D01*
X191770638Y-94213933D01*
X191748919Y-94161499D01*
X191548007Y-93960587D01*
X192184192Y-93960587D01*
X193040000Y-94816395D01*
X193895808Y-93960587D01*
X194724192Y-93960587D01*
X195580000Y-94816395D01*
X196435808Y-93960587D01*
X196356983Y-93710510D01*
X195805903Y-93511023D01*
X195220431Y-93537611D01*
X194803017Y-93710510D01*
X194724192Y-93960587D01*
X193895808Y-93960587D01*
X193816983Y-93710510D01*
X193265903Y-93511023D01*
X192680431Y-93537611D01*
X192263017Y-93710510D01*
X192184192Y-93960587D01*
X191548007Y-93960587D01*
X191334501Y-93747081D01*
X190793038Y-93522800D01*
X190206962Y-93522800D01*
X189665499Y-93747081D01*
X189251081Y-94161499D01*
X189230000Y-94212393D01*
X189208919Y-94161499D01*
X188794501Y-93747081D01*
X188720000Y-93716222D01*
X188720000Y-91006846D01*
X188734888Y-90931999D01*
X188720000Y-90857152D01*
X188720000Y-90857148D01*
X188675904Y-90635463D01*
X188616063Y-90545904D01*
X188550329Y-90447526D01*
X188550327Y-90447524D01*
X188507929Y-90384071D01*
X188444476Y-90341673D01*
X187762802Y-89660000D01*
X189158016Y-89660000D01*
X189065000Y-89884561D01*
G36*
X193233748Y-87361858D02*
X193219605Y-87376000D01*
X193233748Y-87390143D01*
X193054143Y-87569748D01*
X193040000Y-87555605D01*
X193025858Y-87569748D01*
X192846253Y-87390143D01*
X192860395Y-87376000D01*
X192846253Y-87361858D01*
X193025858Y-87182253D01*
X193040000Y-87196395D01*
X193054143Y-87182253D01*
X193233748Y-87361858D01*
X193233748Y-87361858D01*
G37*
X193233748Y-87361858D02*
X193219605Y-87376000D01*
X193233748Y-87390143D01*
X193054143Y-87569748D01*
X193040000Y-87555605D01*
X193025858Y-87569748D01*
X192846253Y-87390143D01*
X192860395Y-87376000D01*
X192846253Y-87361858D01*
X193025858Y-87182253D01*
X193040000Y-87196395D01*
X193054143Y-87182253D01*
X193233748Y-87361858D01*
G36*
X195773748Y-87361858D02*
X195759605Y-87376000D01*
X195773748Y-87390143D01*
X195594143Y-87569748D01*
X195580000Y-87555605D01*
X195565858Y-87569748D01*
X195386253Y-87390143D01*
X195400395Y-87376000D01*
X195386253Y-87361858D01*
X195565858Y-87182253D01*
X195580000Y-87196395D01*
X195594143Y-87182253D01*
X195773748Y-87361858D01*
X195773748Y-87361858D01*
G37*
X195773748Y-87361858D02*
X195759605Y-87376000D01*
X195773748Y-87390143D01*
X195594143Y-87569748D01*
X195580000Y-87555605D01*
X195565858Y-87569748D01*
X195386253Y-87390143D01*
X195400395Y-87376000D01*
X195386253Y-87361858D01*
X195565858Y-87182253D01*
X195580000Y-87196395D01*
X195594143Y-87182253D01*
X195773748Y-87361858D01*
G36*
X190044001Y-84512069D02*
X190030091Y-84582000D01*
X190030489Y-84584000D01*
X188403212Y-84584000D01*
X182198651Y-78379439D01*
X185042800Y-78379439D01*
X185042800Y-79066561D01*
X185305750Y-79701380D01*
X185791620Y-80187250D01*
X186426439Y-80450200D01*
X187113561Y-80450200D01*
X187748380Y-80187250D01*
X188234250Y-79701380D01*
X188497200Y-79066561D01*
X188497200Y-78379439D01*
X188234250Y-77744620D01*
X187748380Y-77258750D01*
X187113561Y-76995800D01*
X186426439Y-76995800D01*
X185791620Y-77258750D01*
X185305750Y-77744620D01*
X185042800Y-78379439D01*
X182198651Y-78379439D01*
X179534741Y-75715530D01*
X179492339Y-75652071D01*
X179240947Y-75484096D01*
X179019262Y-75440000D01*
X179019257Y-75440000D01*
X178944410Y-75425112D01*
X178869563Y-75440000D01*
X165682846Y-75440000D01*
X165607999Y-75425112D01*
X165533152Y-75440000D01*
X165533148Y-75440000D01*
X165311463Y-75484096D01*
X165248902Y-75525898D01*
X165123526Y-75609671D01*
X165123524Y-75609673D01*
X165060071Y-75652071D01*
X165017673Y-75715524D01*
X163406302Y-77326897D01*
X163353439Y-77305000D01*
X162782561Y-77305000D01*
X162255138Y-77523466D01*
X161851466Y-77927138D01*
X161798000Y-78056216D01*
X161744534Y-77927138D01*
X161340862Y-77523466D01*
X160813439Y-77305000D01*
X160242561Y-77305000D01*
X159715138Y-77523466D01*
X159311466Y-77927138D01*
X159258000Y-78056216D01*
X159204534Y-77927138D01*
X158974414Y-77697018D01*
X161520473Y-75150959D01*
X161583929Y-75108559D01*
X161751904Y-74857167D01*
X161796000Y-74635482D01*
X161796000Y-74635477D01*
X161810888Y-74560630D01*
X161796000Y-74485783D01*
X161796000Y-70039211D01*
X165035212Y-66800000D01*
X167693563Y-66800000D01*
X167768410Y-66814888D01*
X167843257Y-66800000D01*
X167843262Y-66800000D01*
X168064947Y-66755904D01*
X168316339Y-66587929D01*
X168358741Y-66524470D01*
X173458473Y-61424739D01*
X173521929Y-61382339D01*
X173689904Y-61130947D01*
X173734000Y-60909262D01*
X173734000Y-60909257D01*
X173748888Y-60834410D01*
X173734000Y-60759563D01*
X173734000Y-60206178D01*
X174044625Y-59998625D01*
X174244000Y-59700239D01*
X174443375Y-59998625D01*
X174934582Y-60326839D01*
X175367744Y-60413000D01*
X175660256Y-60413000D01*
X176093418Y-60326839D01*
X176584625Y-59998625D01*
X176784000Y-59700239D01*
X176983375Y-59998625D01*
X177474582Y-60326839D01*
X177907744Y-60413000D01*
X178200256Y-60413000D01*
X178633418Y-60326839D01*
X179124625Y-59998625D01*
X179324000Y-59700239D01*
X179523375Y-59998625D01*
X180014582Y-60326839D01*
X180447744Y-60413000D01*
X180740256Y-60413000D01*
X180908979Y-60379439D01*
X185042800Y-60379439D01*
X185042800Y-61066561D01*
X185305750Y-61701380D01*
X185791620Y-62187250D01*
X186426439Y-62450200D01*
X187113561Y-62450200D01*
X187748380Y-62187250D01*
X188234250Y-61701380D01*
X188497200Y-61066561D01*
X188497200Y-60379439D01*
X188234250Y-59744620D01*
X187748380Y-59258750D01*
X187113561Y-58995800D01*
X186426439Y-58995800D01*
X185791620Y-59258750D01*
X185305750Y-59744620D01*
X185042800Y-60379439D01*
X180908979Y-60379439D01*
X181173418Y-60326839D01*
X181664625Y-59998625D01*
X181992839Y-59507418D01*
X182108092Y-58928000D01*
X181992839Y-58348582D01*
X181664625Y-57857375D01*
X181173418Y-57529161D01*
X180740256Y-57443000D01*
X180447744Y-57443000D01*
X180014582Y-57529161D01*
X179523375Y-57857375D01*
X179324000Y-58155761D01*
X179124625Y-57857375D01*
X178633418Y-57529161D01*
X178200256Y-57443000D01*
X177907744Y-57443000D01*
X177474582Y-57529161D01*
X176983375Y-57857375D01*
X176784000Y-58155761D01*
X176584625Y-57857375D01*
X176093418Y-57529161D01*
X175660256Y-57443000D01*
X175367744Y-57443000D01*
X174934582Y-57529161D01*
X174443375Y-57857375D01*
X174244000Y-58155761D01*
X174044625Y-57857375D01*
X173553418Y-57529161D01*
X173120256Y-57443000D01*
X172827744Y-57443000D01*
X172394582Y-57529161D01*
X171903375Y-57857375D01*
X171704000Y-58155761D01*
X171504625Y-57857375D01*
X171013418Y-57529161D01*
X170580256Y-57443000D01*
X170287744Y-57443000D01*
X169854582Y-57529161D01*
X169363375Y-57857375D01*
X169348904Y-57879033D01*
X169282327Y-57718302D01*
X169103699Y-57539673D01*
X168870310Y-57443000D01*
X168179750Y-57443000D01*
X168021000Y-57601750D01*
X168021000Y-58801000D01*
X168041000Y-58801000D01*
X168041000Y-59055000D01*
X168021000Y-59055000D01*
X168021000Y-60254250D01*
X168179750Y-60413000D01*
X168870310Y-60413000D01*
X169103699Y-60316327D01*
X169282327Y-60137698D01*
X169348904Y-59976967D01*
X169363375Y-59998625D01*
X169674001Y-60206178D01*
X169674000Y-62423198D01*
X167325199Y-64772000D01*
X164666847Y-64772000D01*
X164592000Y-64757112D01*
X164517153Y-64772000D01*
X164517148Y-64772000D01*
X164295463Y-64816096D01*
X164044071Y-64984071D01*
X164001671Y-65047527D01*
X160043528Y-69005671D01*
X159980072Y-69048071D01*
X159937672Y-69111527D01*
X159937671Y-69111528D01*
X159812097Y-69299463D01*
X159753112Y-69596000D01*
X159768001Y-69670852D01*
X159768001Y-70214611D01*
X159718397Y-70094857D01*
X159476213Y-70025392D01*
X158675605Y-70826000D01*
X159476213Y-71626608D01*
X159718397Y-71557143D01*
X159768000Y-71418107D01*
X159768000Y-72075198D01*
X157797408Y-74045791D01*
X157941904Y-73829537D01*
X157986000Y-73607852D01*
X157986000Y-73607847D01*
X158000888Y-73533000D01*
X157986000Y-73458153D01*
X157986000Y-72127293D01*
X158288302Y-72235144D01*
X158843368Y-72207362D01*
X159227143Y-72048397D01*
X159296608Y-71806213D01*
X158496000Y-71005605D01*
X158481858Y-71019748D01*
X158302253Y-70840143D01*
X158316395Y-70826000D01*
X158302253Y-70811858D01*
X158481858Y-70632253D01*
X158496000Y-70646395D01*
X159296608Y-69845787D01*
X159227143Y-69603603D01*
X158703698Y-69416856D01*
X158148632Y-69444638D01*
X157986000Y-69512002D01*
X157986000Y-67147564D01*
X158168119Y-67223000D01*
X158723881Y-67223000D01*
X159237337Y-67010320D01*
X159630320Y-66617337D01*
X159843000Y-66103881D01*
X159843000Y-65548119D01*
X159830020Y-65516782D01*
X160250473Y-65096329D01*
X160313929Y-65053929D01*
X160481904Y-64802537D01*
X160526000Y-64580852D01*
X160526000Y-64580847D01*
X160540888Y-64506000D01*
X160526000Y-64431153D01*
X160526000Y-63468430D01*
X160578862Y-63446534D01*
X160982534Y-63042862D01*
X161201000Y-62515439D01*
X161201000Y-61944561D01*
X160982534Y-61417138D01*
X160578862Y-61013466D01*
X160051439Y-60795000D01*
X159480561Y-60795000D01*
X158953138Y-61013466D01*
X158549466Y-61417138D01*
X158495606Y-61547168D01*
X158260577Y-61195423D01*
X157792748Y-60882830D01*
X158277040Y-60398538D01*
X158349744Y-60413000D01*
X158642256Y-60413000D01*
X159075418Y-60326839D01*
X159566625Y-59998625D01*
X159581096Y-59976967D01*
X159647673Y-60137698D01*
X159826301Y-60316327D01*
X160059690Y-60413000D01*
X160750250Y-60413000D01*
X160909000Y-60254250D01*
X160909000Y-59055000D01*
X161163000Y-59055000D01*
X161163000Y-60254250D01*
X161321750Y-60413000D01*
X162012310Y-60413000D01*
X162245699Y-60316327D01*
X162424327Y-60137698D01*
X162521000Y-59904309D01*
X162521000Y-59213750D01*
X166409000Y-59213750D01*
X166409000Y-59904309D01*
X166505673Y-60137698D01*
X166684301Y-60316327D01*
X166917690Y-60413000D01*
X167608250Y-60413000D01*
X167767000Y-60254250D01*
X167767000Y-59055000D01*
X166567750Y-59055000D01*
X166409000Y-59213750D01*
X162521000Y-59213750D01*
X162362250Y-59055000D01*
X161163000Y-59055000D01*
X160909000Y-59055000D01*
X160889000Y-59055000D01*
X160889000Y-58801000D01*
X160909000Y-58801000D01*
X160909000Y-57601750D01*
X161163000Y-57601750D01*
X161163000Y-58801000D01*
X162362250Y-58801000D01*
X162521000Y-58642250D01*
X162521000Y-57951691D01*
X166409000Y-57951691D01*
X166409000Y-58642250D01*
X166567750Y-58801000D01*
X167767000Y-58801000D01*
X167767000Y-57601750D01*
X167608250Y-57443000D01*
X166917690Y-57443000D01*
X166684301Y-57539673D01*
X166505673Y-57718302D01*
X166409000Y-57951691D01*
X162521000Y-57951691D01*
X162424327Y-57718302D01*
X162245699Y-57539673D01*
X162012310Y-57443000D01*
X161321750Y-57443000D01*
X161163000Y-57601750D01*
X160909000Y-57601750D01*
X160750250Y-57443000D01*
X160059690Y-57443000D01*
X159826301Y-57539673D01*
X159647673Y-57718302D01*
X159581096Y-57879033D01*
X159566625Y-57857375D01*
X159075418Y-57529161D01*
X158642256Y-57443000D01*
X158349744Y-57443000D01*
X157916582Y-57529161D01*
X157425375Y-57857375D01*
X157226000Y-58155761D01*
X157026625Y-57857375D01*
X156967496Y-57817867D01*
X156985786Y-57725919D01*
X156966000Y-57626448D01*
X156966000Y-57626443D01*
X156907399Y-57331837D01*
X156857411Y-57257024D01*
X156740518Y-57082081D01*
X156740516Y-57082079D01*
X156684169Y-56997750D01*
X156599840Y-56941403D01*
X155232436Y-55574000D01*
X190044000Y-55574000D01*
X190044001Y-84512069D01*
X190044001Y-84512069D01*
G37*
X190044001Y-84512069D02*
X190030091Y-84582000D01*
X190030489Y-84584000D01*
X188403212Y-84584000D01*
X182198651Y-78379439D01*
X185042800Y-78379439D01*
X185042800Y-79066561D01*
X185305750Y-79701380D01*
X185791620Y-80187250D01*
X186426439Y-80450200D01*
X187113561Y-80450200D01*
X187748380Y-80187250D01*
X188234250Y-79701380D01*
X188497200Y-79066561D01*
X188497200Y-78379439D01*
X188234250Y-77744620D01*
X187748380Y-77258750D01*
X187113561Y-76995800D01*
X186426439Y-76995800D01*
X185791620Y-77258750D01*
X185305750Y-77744620D01*
X185042800Y-78379439D01*
X182198651Y-78379439D01*
X179534741Y-75715530D01*
X179492339Y-75652071D01*
X179240947Y-75484096D01*
X179019262Y-75440000D01*
X179019257Y-75440000D01*
X178944410Y-75425112D01*
X178869563Y-75440000D01*
X165682846Y-75440000D01*
X165607999Y-75425112D01*
X165533152Y-75440000D01*
X165533148Y-75440000D01*
X165311463Y-75484096D01*
X165248902Y-75525898D01*
X165123526Y-75609671D01*
X165123524Y-75609673D01*
X165060071Y-75652071D01*
X165017673Y-75715524D01*
X163406302Y-77326897D01*
X163353439Y-77305000D01*
X162782561Y-77305000D01*
X162255138Y-77523466D01*
X161851466Y-77927138D01*
X161798000Y-78056216D01*
X161744534Y-77927138D01*
X161340862Y-77523466D01*
X160813439Y-77305000D01*
X160242561Y-77305000D01*
X159715138Y-77523466D01*
X159311466Y-77927138D01*
X159258000Y-78056216D01*
X159204534Y-77927138D01*
X158974414Y-77697018D01*
X161520473Y-75150959D01*
X161583929Y-75108559D01*
X161751904Y-74857167D01*
X161796000Y-74635482D01*
X161796000Y-74635477D01*
X161810888Y-74560630D01*
X161796000Y-74485783D01*
X161796000Y-70039211D01*
X165035212Y-66800000D01*
X167693563Y-66800000D01*
X167768410Y-66814888D01*
X167843257Y-66800000D01*
X167843262Y-66800000D01*
X168064947Y-66755904D01*
X168316339Y-66587929D01*
X168358741Y-66524470D01*
X173458473Y-61424739D01*
X173521929Y-61382339D01*
X173689904Y-61130947D01*
X173734000Y-60909262D01*
X173734000Y-60909257D01*
X173748888Y-60834410D01*
X173734000Y-60759563D01*
X173734000Y-60206178D01*
X174044625Y-59998625D01*
X174244000Y-59700239D01*
X174443375Y-59998625D01*
X174934582Y-60326839D01*
X175367744Y-60413000D01*
X175660256Y-60413000D01*
X176093418Y-60326839D01*
X176584625Y-59998625D01*
X176784000Y-59700239D01*
X176983375Y-59998625D01*
X177474582Y-60326839D01*
X177907744Y-60413000D01*
X178200256Y-60413000D01*
X178633418Y-60326839D01*
X179124625Y-59998625D01*
X179324000Y-59700239D01*
X179523375Y-59998625D01*
X180014582Y-60326839D01*
X180447744Y-60413000D01*
X180740256Y-60413000D01*
X180908979Y-60379439D01*
X185042800Y-60379439D01*
X185042800Y-61066561D01*
X185305750Y-61701380D01*
X185791620Y-62187250D01*
X186426439Y-62450200D01*
X187113561Y-62450200D01*
X187748380Y-62187250D01*
X188234250Y-61701380D01*
X188497200Y-61066561D01*
X188497200Y-60379439D01*
X188234250Y-59744620D01*
X187748380Y-59258750D01*
X187113561Y-58995800D01*
X186426439Y-58995800D01*
X185791620Y-59258750D01*
X185305750Y-59744620D01*
X185042800Y-60379439D01*
X180908979Y-60379439D01*
X181173418Y-60326839D01*
X181664625Y-59998625D01*
X181992839Y-59507418D01*
X182108092Y-58928000D01*
X181992839Y-58348582D01*
X181664625Y-57857375D01*
X181173418Y-57529161D01*
X180740256Y-57443000D01*
X180447744Y-57443000D01*
X180014582Y-57529161D01*
X179523375Y-57857375D01*
X179324000Y-58155761D01*
X179124625Y-57857375D01*
X178633418Y-57529161D01*
X178200256Y-57443000D01*
X177907744Y-57443000D01*
X177474582Y-57529161D01*
X176983375Y-57857375D01*
X176784000Y-58155761D01*
X176584625Y-57857375D01*
X176093418Y-57529161D01*
X175660256Y-57443000D01*
X175367744Y-57443000D01*
X174934582Y-57529161D01*
X174443375Y-57857375D01*
X174244000Y-58155761D01*
X174044625Y-57857375D01*
X173553418Y-57529161D01*
X173120256Y-57443000D01*
X172827744Y-57443000D01*
X172394582Y-57529161D01*
X171903375Y-57857375D01*
X171704000Y-58155761D01*
X171504625Y-57857375D01*
X171013418Y-57529161D01*
X170580256Y-57443000D01*
X170287744Y-57443000D01*
X169854582Y-57529161D01*
X169363375Y-57857375D01*
X169348904Y-57879033D01*
X169282327Y-57718302D01*
X169103699Y-57539673D01*
X168870310Y-57443000D01*
X168179750Y-57443000D01*
X168021000Y-57601750D01*
X168021000Y-58801000D01*
X168041000Y-58801000D01*
X168041000Y-59055000D01*
X168021000Y-59055000D01*
X168021000Y-60254250D01*
X168179750Y-60413000D01*
X168870310Y-60413000D01*
X169103699Y-60316327D01*
X169282327Y-60137698D01*
X169348904Y-59976967D01*
X169363375Y-59998625D01*
X169674001Y-60206178D01*
X169674000Y-62423198D01*
X167325199Y-64772000D01*
X164666847Y-64772000D01*
X164592000Y-64757112D01*
X164517153Y-64772000D01*
X164517148Y-64772000D01*
X164295463Y-64816096D01*
X164044071Y-64984071D01*
X164001671Y-65047527D01*
X160043528Y-69005671D01*
X159980072Y-69048071D01*
X159937672Y-69111527D01*
X159937671Y-69111528D01*
X159812097Y-69299463D01*
X159753112Y-69596000D01*
X159768001Y-69670852D01*
X159768001Y-70214611D01*
X159718397Y-70094857D01*
X159476213Y-70025392D01*
X158675605Y-70826000D01*
X159476213Y-71626608D01*
X159718397Y-71557143D01*
X159768000Y-71418107D01*
X159768000Y-72075198D01*
X157797408Y-74045791D01*
X157941904Y-73829537D01*
X157986000Y-73607852D01*
X157986000Y-73607847D01*
X158000888Y-73533000D01*
X157986000Y-73458153D01*
X157986000Y-72127293D01*
X158288302Y-72235144D01*
X158843368Y-72207362D01*
X159227143Y-72048397D01*
X159296608Y-71806213D01*
X158496000Y-71005605D01*
X158481858Y-71019748D01*
X158302253Y-70840143D01*
X158316395Y-70826000D01*
X158302253Y-70811858D01*
X158481858Y-70632253D01*
X158496000Y-70646395D01*
X159296608Y-69845787D01*
X159227143Y-69603603D01*
X158703698Y-69416856D01*
X158148632Y-69444638D01*
X157986000Y-69512002D01*
X157986000Y-67147564D01*
X158168119Y-67223000D01*
X158723881Y-67223000D01*
X159237337Y-67010320D01*
X159630320Y-66617337D01*
X159843000Y-66103881D01*
X159843000Y-65548119D01*
X159830020Y-65516782D01*
X160250473Y-65096329D01*
X160313929Y-65053929D01*
X160481904Y-64802537D01*
X160526000Y-64580852D01*
X160526000Y-64580847D01*
X160540888Y-64506000D01*
X160526000Y-64431153D01*
X160526000Y-63468430D01*
X160578862Y-63446534D01*
X160982534Y-63042862D01*
X161201000Y-62515439D01*
X161201000Y-61944561D01*
X160982534Y-61417138D01*
X160578862Y-61013466D01*
X160051439Y-60795000D01*
X159480561Y-60795000D01*
X158953138Y-61013466D01*
X158549466Y-61417138D01*
X158495606Y-61547168D01*
X158260577Y-61195423D01*
X157792748Y-60882830D01*
X158277040Y-60398538D01*
X158349744Y-60413000D01*
X158642256Y-60413000D01*
X159075418Y-60326839D01*
X159566625Y-59998625D01*
X159581096Y-59976967D01*
X159647673Y-60137698D01*
X159826301Y-60316327D01*
X160059690Y-60413000D01*
X160750250Y-60413000D01*
X160909000Y-60254250D01*
X160909000Y-59055000D01*
X161163000Y-59055000D01*
X161163000Y-60254250D01*
X161321750Y-60413000D01*
X162012310Y-60413000D01*
X162245699Y-60316327D01*
X162424327Y-60137698D01*
X162521000Y-59904309D01*
X162521000Y-59213750D01*
X166409000Y-59213750D01*
X166409000Y-59904309D01*
X166505673Y-60137698D01*
X166684301Y-60316327D01*
X166917690Y-60413000D01*
X167608250Y-60413000D01*
X167767000Y-60254250D01*
X167767000Y-59055000D01*
X166567750Y-59055000D01*
X166409000Y-59213750D01*
X162521000Y-59213750D01*
X162362250Y-59055000D01*
X161163000Y-59055000D01*
X160909000Y-59055000D01*
X160889000Y-59055000D01*
X160889000Y-58801000D01*
X160909000Y-58801000D01*
X160909000Y-57601750D01*
X161163000Y-57601750D01*
X161163000Y-58801000D01*
X162362250Y-58801000D01*
X162521000Y-58642250D01*
X162521000Y-57951691D01*
X166409000Y-57951691D01*
X166409000Y-58642250D01*
X166567750Y-58801000D01*
X167767000Y-58801000D01*
X167767000Y-57601750D01*
X167608250Y-57443000D01*
X166917690Y-57443000D01*
X166684301Y-57539673D01*
X166505673Y-57718302D01*
X166409000Y-57951691D01*
X162521000Y-57951691D01*
X162424327Y-57718302D01*
X162245699Y-57539673D01*
X162012310Y-57443000D01*
X161321750Y-57443000D01*
X161163000Y-57601750D01*
X160909000Y-57601750D01*
X160750250Y-57443000D01*
X160059690Y-57443000D01*
X159826301Y-57539673D01*
X159647673Y-57718302D01*
X159581096Y-57879033D01*
X159566625Y-57857375D01*
X159075418Y-57529161D01*
X158642256Y-57443000D01*
X158349744Y-57443000D01*
X157916582Y-57529161D01*
X157425375Y-57857375D01*
X157226000Y-58155761D01*
X157026625Y-57857375D01*
X156967496Y-57817867D01*
X156985786Y-57725919D01*
X156966000Y-57626448D01*
X156966000Y-57626443D01*
X156907399Y-57331837D01*
X156857411Y-57257024D01*
X156740518Y-57082081D01*
X156740516Y-57082079D01*
X156684169Y-56997750D01*
X156599840Y-56941403D01*
X155232436Y-55574000D01*
X190044000Y-55574000D01*
X190044001Y-84512069D01*
G36*
X175895000Y-78613000D02*
X175915000Y-78613000D01*
X175915000Y-78867000D01*
X175895000Y-78867000D01*
X175895000Y-78887000D01*
X175641000Y-78887000D01*
X175641000Y-78867000D01*
X175621000Y-78867000D01*
X175621000Y-78613000D01*
X175641000Y-78613000D01*
X175641000Y-78593000D01*
X175895000Y-78593000D01*
X175895000Y-78613000D01*
X175895000Y-78613000D01*
G37*
X175895000Y-78613000D02*
X175915000Y-78613000D01*
X175915000Y-78867000D01*
X175895000Y-78867000D01*
X175895000Y-78887000D01*
X175641000Y-78887000D01*
X175641000Y-78867000D01*
X175621000Y-78867000D01*
X175621000Y-78613000D01*
X175641000Y-78613000D01*
X175641000Y-78593000D01*
X175895000Y-78593000D01*
X175895000Y-78613000D01*
G36*
X154794742Y-57993017D02*
X154557161Y-58348582D01*
X154441908Y-58928000D01*
X154557161Y-59507418D01*
X154766690Y-59821000D01*
X150541310Y-59821000D01*
X150750839Y-59507418D01*
X150866092Y-58928000D01*
X150750839Y-58348582D01*
X150422625Y-57857375D01*
X149931418Y-57529161D01*
X149498256Y-57443000D01*
X149205744Y-57443000D01*
X148772582Y-57529161D01*
X148281375Y-57857375D01*
X148082000Y-58155761D01*
X147882625Y-57857375D01*
X147391418Y-57529161D01*
X146958256Y-57443000D01*
X146665744Y-57443000D01*
X146232582Y-57529161D01*
X145741375Y-57857375D01*
X145542000Y-58155761D01*
X145342625Y-57857375D01*
X144851418Y-57529161D01*
X144418256Y-57443000D01*
X144125744Y-57443000D01*
X143692582Y-57529161D01*
X143201375Y-57857375D01*
X143002000Y-58155761D01*
X142802625Y-57857375D01*
X142311418Y-57529161D01*
X141878256Y-57443000D01*
X141585744Y-57443000D01*
X141152582Y-57529161D01*
X140661375Y-57857375D01*
X140462000Y-58155761D01*
X140262625Y-57857375D01*
X139771418Y-57529161D01*
X139338256Y-57443000D01*
X139045744Y-57443000D01*
X138612582Y-57529161D01*
X138121375Y-57857375D01*
X138106904Y-57879033D01*
X138040327Y-57718302D01*
X137861699Y-57539673D01*
X137628310Y-57443000D01*
X136937750Y-57443000D01*
X136779000Y-57601750D01*
X136779000Y-58801000D01*
X136799000Y-58801000D01*
X136799000Y-59055000D01*
X136779000Y-59055000D01*
X136779000Y-60254250D01*
X136937750Y-60413000D01*
X137628310Y-60413000D01*
X137861699Y-60316327D01*
X138040327Y-60137698D01*
X138106904Y-59976967D01*
X138121375Y-59998625D01*
X138432001Y-60206179D01*
X138432000Y-73585153D01*
X138417112Y-73660000D01*
X138432000Y-73734847D01*
X138432000Y-73734851D01*
X138476096Y-73956536D01*
X138644071Y-74207929D01*
X138707530Y-74250331D01*
X141167198Y-76710000D01*
X134186846Y-76710000D01*
X134111999Y-76695112D01*
X134037152Y-76710000D01*
X134037148Y-76710000D01*
X133815463Y-76754096D01*
X133752902Y-76795898D01*
X133627526Y-76879671D01*
X133627524Y-76879673D01*
X133564071Y-76922071D01*
X133521673Y-76985524D01*
X132103530Y-78403669D01*
X132088900Y-78413444D01*
X132088900Y-78379439D01*
X131825950Y-77744620D01*
X131340080Y-77258750D01*
X130705261Y-76995800D01*
X130018139Y-76995800D01*
X129383320Y-77258750D01*
X128897450Y-77744620D01*
X128878402Y-77790607D01*
X128724534Y-77419138D01*
X128518000Y-77212604D01*
X128518000Y-60379439D01*
X128634500Y-60379439D01*
X128634500Y-61066561D01*
X128897450Y-61701380D01*
X129383320Y-62187250D01*
X130018139Y-62450200D01*
X130705261Y-62450200D01*
X131340080Y-62187250D01*
X131825950Y-61701380D01*
X132088900Y-61066561D01*
X132088900Y-60379439D01*
X131825950Y-59744620D01*
X131340080Y-59258750D01*
X131231441Y-59213750D01*
X135167000Y-59213750D01*
X135167000Y-59904309D01*
X135263673Y-60137698D01*
X135442301Y-60316327D01*
X135675690Y-60413000D01*
X136366250Y-60413000D01*
X136525000Y-60254250D01*
X136525000Y-59055000D01*
X135325750Y-59055000D01*
X135167000Y-59213750D01*
X131231441Y-59213750D01*
X130705261Y-58995800D01*
X130018139Y-58995800D01*
X129383320Y-59258750D01*
X128897450Y-59744620D01*
X128634500Y-60379439D01*
X128518000Y-60379439D01*
X128518000Y-57951691D01*
X135167000Y-57951691D01*
X135167000Y-58642250D01*
X135325750Y-58801000D01*
X136525000Y-58801000D01*
X136525000Y-57601750D01*
X136366250Y-57443000D01*
X135675690Y-57443000D01*
X135442301Y-57539673D01*
X135263673Y-57718302D01*
X135167000Y-57951691D01*
X128518000Y-57951691D01*
X128518000Y-57314355D01*
X129196355Y-56636000D01*
X153437726Y-56636000D01*
X154794742Y-57993017D01*
X154794742Y-57993017D01*
G37*
X154794742Y-57993017D02*
X154557161Y-58348582D01*
X154441908Y-58928000D01*
X154557161Y-59507418D01*
X154766690Y-59821000D01*
X150541310Y-59821000D01*
X150750839Y-59507418D01*
X150866092Y-58928000D01*
X150750839Y-58348582D01*
X150422625Y-57857375D01*
X149931418Y-57529161D01*
X149498256Y-57443000D01*
X149205744Y-57443000D01*
X148772582Y-57529161D01*
X148281375Y-57857375D01*
X148082000Y-58155761D01*
X147882625Y-57857375D01*
X147391418Y-57529161D01*
X146958256Y-57443000D01*
X146665744Y-57443000D01*
X146232582Y-57529161D01*
X145741375Y-57857375D01*
X145542000Y-58155761D01*
X145342625Y-57857375D01*
X144851418Y-57529161D01*
X144418256Y-57443000D01*
X144125744Y-57443000D01*
X143692582Y-57529161D01*
X143201375Y-57857375D01*
X143002000Y-58155761D01*
X142802625Y-57857375D01*
X142311418Y-57529161D01*
X141878256Y-57443000D01*
X141585744Y-57443000D01*
X141152582Y-57529161D01*
X140661375Y-57857375D01*
X140462000Y-58155761D01*
X140262625Y-57857375D01*
X139771418Y-57529161D01*
X139338256Y-57443000D01*
X139045744Y-57443000D01*
X138612582Y-57529161D01*
X138121375Y-57857375D01*
X138106904Y-57879033D01*
X138040327Y-57718302D01*
X137861699Y-57539673D01*
X137628310Y-57443000D01*
X136937750Y-57443000D01*
X136779000Y-57601750D01*
X136779000Y-58801000D01*
X136799000Y-58801000D01*
X136799000Y-59055000D01*
X136779000Y-59055000D01*
X136779000Y-60254250D01*
X136937750Y-60413000D01*
X137628310Y-60413000D01*
X137861699Y-60316327D01*
X138040327Y-60137698D01*
X138106904Y-59976967D01*
X138121375Y-59998625D01*
X138432001Y-60206179D01*
X138432000Y-73585153D01*
X138417112Y-73660000D01*
X138432000Y-73734847D01*
X138432000Y-73734851D01*
X138476096Y-73956536D01*
X138644071Y-74207929D01*
X138707530Y-74250331D01*
X141167198Y-76710000D01*
X134186846Y-76710000D01*
X134111999Y-76695112D01*
X134037152Y-76710000D01*
X134037148Y-76710000D01*
X133815463Y-76754096D01*
X133752902Y-76795898D01*
X133627526Y-76879671D01*
X133627524Y-76879673D01*
X133564071Y-76922071D01*
X133521673Y-76985524D01*
X132103530Y-78403669D01*
X132088900Y-78413444D01*
X132088900Y-78379439D01*
X131825950Y-77744620D01*
X131340080Y-77258750D01*
X130705261Y-76995800D01*
X130018139Y-76995800D01*
X129383320Y-77258750D01*
X128897450Y-77744620D01*
X128878402Y-77790607D01*
X128724534Y-77419138D01*
X128518000Y-77212604D01*
X128518000Y-60379439D01*
X128634500Y-60379439D01*
X128634500Y-61066561D01*
X128897450Y-61701380D01*
X129383320Y-62187250D01*
X130018139Y-62450200D01*
X130705261Y-62450200D01*
X131340080Y-62187250D01*
X131825950Y-61701380D01*
X132088900Y-61066561D01*
X132088900Y-60379439D01*
X131825950Y-59744620D01*
X131340080Y-59258750D01*
X131231441Y-59213750D01*
X135167000Y-59213750D01*
X135167000Y-59904309D01*
X135263673Y-60137698D01*
X135442301Y-60316327D01*
X135675690Y-60413000D01*
X136366250Y-60413000D01*
X136525000Y-60254250D01*
X136525000Y-59055000D01*
X135325750Y-59055000D01*
X135167000Y-59213750D01*
X131231441Y-59213750D01*
X130705261Y-58995800D01*
X130018139Y-58995800D01*
X129383320Y-59258750D01*
X128897450Y-59744620D01*
X128634500Y-60379439D01*
X128518000Y-60379439D01*
X128518000Y-57951691D01*
X135167000Y-57951691D01*
X135167000Y-58642250D01*
X135325750Y-58801000D01*
X136525000Y-58801000D01*
X136525000Y-57601750D01*
X136366250Y-57443000D01*
X135675690Y-57443000D01*
X135442301Y-57539673D01*
X135263673Y-57718302D01*
X135167000Y-57951691D01*
X128518000Y-57951691D01*
X128518000Y-57314355D01*
X129196355Y-56636000D01*
X153437726Y-56636000D01*
X154794742Y-57993017D01*
G04 #@! TD*
M02*
