G04 #@! TF.GenerationSoftware,KiCad,Pcbnew,(5.0.0-3-g5ebb6b6)*
G04 #@! TF.CreationDate,2020-04-01T02:53:29-07:00*
G04 #@! TF.ProjectId,mouse_v2,6D6F7573655F76322E6B696361645F70,rev?*
G04 #@! TF.SameCoordinates,Original*
G04 #@! TF.FileFunction,Soldermask,Bot*
G04 #@! TF.FilePolarity,Negative*
%FSLAX46Y46*%
G04 Gerber Fmt 4.6, Leading zero omitted, Abs format (unit mm)*
G04 Created by KiCad (PCBNEW (5.0.0-3-g5ebb6b6)) date Wednesday, April 01, 2020 at 02:53:29 AM*
%MOMM*%
%LPD*%
G01*
G04 APERTURE LIST*
%ADD10R,2.200000X2.200000*%
%ADD11C,2.200000*%
%ADD12C,2.584400*%
%ADD13C,0.100000*%
%ADD14R,2.100000X2.100000*%
%ADD15O,2.100000X2.100000*%
%ADD16C,2.000000*%
%ADD17R,2.000000X2.000000*%
%ADD18C,2.300000*%
%ADD19R,2.076400X2.076400*%
%ADD20C,2.076400*%
%ADD21C,1.924000*%
%ADD22R,1.700000X1.700000*%
%ADD23C,1.700000*%
%ADD24R,1.900000X1.400000*%
%ADD25R,1.400000X1.900000*%
%ADD26O,1.750000X1.750000*%
%ADD27R,1.750000X1.750000*%
%ADD28C,1.825000*%
%ADD29C,3.600000*%
%ADD30O,1.400000X2.000000*%
%ADD31C,1.050000*%
%ADD32O,1.350000X1.050000*%
%ADD33O,1.400000X2.200000*%
G04 APERTURE END LIST*
D10*
G04 #@! TO.C,Q2*
X114820189Y-109344845D03*
D11*
X117360189Y-109344845D03*
G04 #@! TD*
G04 #@! TO.C,D0*
X200164700Y-109397800D03*
D10*
X197624700Y-109397800D03*
G04 #@! TD*
D12*
G04 #@! TO.C,M3*
X166782700Y-143624300D03*
X153282700Y-143624300D03*
G04 #@! TD*
D11*
G04 #@! TO.C,Q1*
X174856642Y-134785267D03*
X173723300Y-137058400D03*
D13*
G36*
X174216910Y-138533645D02*
X172248055Y-137552010D01*
X173229690Y-135583155D01*
X175198545Y-136564790D01*
X174216910Y-138533645D01*
X174216910Y-138533645D01*
G37*
G04 #@! TD*
D14*
G04 #@! TO.C,BT1*
X185849260Y-71445120D03*
D15*
X185849260Y-68905120D03*
G04 #@! TD*
D11*
G04 #@! TO.C,D1*
X171500800Y-141566900D03*
D13*
G36*
X171994410Y-143042145D02*
X170025555Y-142060510D01*
X171007190Y-140091655D01*
X172976045Y-141073290D01*
X171994410Y-143042145D01*
X171994410Y-143042145D01*
G37*
D11*
X172634142Y-139293767D03*
G04 #@! TD*
G04 #@! TO.C,D2*
X122377200Y-109334300D03*
D10*
X119837200Y-109334300D03*
G04 #@! TD*
D11*
G04 #@! TO.C,D3*
X147447000Y-139344400D03*
D13*
G36*
X145971755Y-138850790D02*
X147940610Y-137869155D01*
X148922245Y-139838010D01*
X146953390Y-140819645D01*
X145971755Y-138850790D01*
X145971755Y-138850790D01*
G37*
D11*
X148580342Y-141617533D03*
G04 #@! TD*
D10*
G04 #@! TO.C,Q0*
X202637877Y-109413445D03*
D11*
X205177877Y-109413445D03*
G04 #@! TD*
G04 #@! TO.C,Q3*
X146304000Y-137121900D03*
X145170658Y-134848767D03*
D13*
G36*
X143695413Y-134355157D02*
X145664268Y-133373522D01*
X146645903Y-135342377D01*
X144677048Y-136324012D01*
X143695413Y-134355157D01*
X143695413Y-134355157D01*
G37*
G04 #@! TD*
D16*
G04 #@! TO.C,U1*
X143764000Y-114858800D03*
X143764000Y-117398800D03*
X143764000Y-119938800D03*
X143764000Y-122478800D03*
X143764000Y-112318800D03*
X143764000Y-109778800D03*
X143764000Y-107238800D03*
X146304000Y-122478800D03*
X148844000Y-122478800D03*
X151384000Y-122478800D03*
X153924000Y-122478800D03*
X156464000Y-122478800D03*
X159004000Y-122478800D03*
X161544000Y-122478800D03*
X164084000Y-122478800D03*
X166624000Y-122478800D03*
X169164000Y-122478800D03*
X171704000Y-122478800D03*
X174244000Y-122478800D03*
X176784000Y-122478800D03*
X174244000Y-119938800D03*
X169164000Y-119938800D03*
X166624000Y-119938800D03*
X164084000Y-119938800D03*
X146304000Y-107238800D03*
X148844000Y-107238800D03*
X151384000Y-107238800D03*
X153924000Y-107238800D03*
X156464000Y-107238800D03*
X159004000Y-107238800D03*
X161544000Y-107238800D03*
X164084000Y-107238800D03*
X166624000Y-107238800D03*
X169164000Y-107238800D03*
X171704000Y-107238800D03*
X174244000Y-107238800D03*
D17*
X176784000Y-107238800D03*
D16*
X161544000Y-114858800D03*
X159004000Y-114858800D03*
X156464000Y-114858800D03*
X153924000Y-114858800D03*
X151384000Y-114858800D03*
X148844000Y-114858800D03*
X146304000Y-114858800D03*
X146304000Y-117398800D03*
X148844000Y-117398800D03*
X151384000Y-117398800D03*
X153924000Y-117398800D03*
X156464000Y-117398800D03*
X159004000Y-117398800D03*
X161544000Y-117398800D03*
D18*
X166624000Y-114858800D03*
X170434000Y-114858800D03*
G04 #@! TD*
D19*
G04 #@! TO.C,U2*
X140098780Y-74213720D03*
D20*
X142638780Y-74213720D03*
X145178780Y-74213720D03*
X147718780Y-74213720D03*
X150258780Y-74213720D03*
X152798780Y-74213720D03*
X155338780Y-74213720D03*
X157878780Y-74213720D03*
X157878780Y-66593720D03*
X155338780Y-66593720D03*
X152798780Y-66593720D03*
X150258780Y-66593720D03*
X147718780Y-66593720D03*
X145178780Y-66593720D03*
X142638780Y-66593720D03*
X140098780Y-66593720D03*
G04 #@! TD*
D12*
G04 #@! TO.C,M1*
X131873000Y-96274400D03*
X131873000Y-78274400D03*
G04 #@! TD*
G04 #@! TO.C,M2*
X188294000Y-78274400D03*
X188294000Y-96274400D03*
G04 #@! TD*
D21*
G04 #@! TO.C,BZ1*
X139014200Y-62952000D03*
X139064200Y-57952000D03*
G04 #@! TD*
D22*
G04 #@! TO.C,T0*
X193113660Y-108666280D03*
D23*
X190573660Y-108666280D03*
X191843660Y-109936280D03*
G04 #@! TD*
G04 #@! TO.C,T1*
X166504620Y-133167120D03*
X165234620Y-131897120D03*
D22*
X167774620Y-131897120D03*
G04 #@! TD*
D23*
G04 #@! TO.C,T2*
X127205740Y-109466380D03*
X125935740Y-108196380D03*
D22*
X128475740Y-108196380D03*
G04 #@! TD*
G04 #@! TO.C,T3*
X154584400Y-131909820D03*
D23*
X152044400Y-131909820D03*
X153314400Y-133179820D03*
G04 #@! TD*
D15*
G04 #@! TO.C,J2*
X158600140Y-126733300D03*
D14*
X161140140Y-126733300D03*
G04 #@! TD*
G04 #@! TO.C,J4*
X182344060Y-68955920D03*
D15*
X182344060Y-71495920D03*
G04 #@! TD*
D24*
G04 #@! TO.C,D6*
X198494480Y-117139520D03*
X198494480Y-113939520D03*
X203394480Y-117139520D03*
X203394480Y-113939520D03*
G04 #@! TD*
G04 #@! TO.C,D7*
X206066560Y-67289880D03*
X206066560Y-70489880D03*
X201166560Y-67289880D03*
X201166560Y-70489880D03*
G04 #@! TD*
D25*
G04 #@! TO.C,D10*
X117243660Y-69597440D03*
X114043660Y-69597440D03*
X117243660Y-64697440D03*
X114043660Y-64697440D03*
G04 #@! TD*
D24*
G04 #@! TO.C,D11*
X117044300Y-118053920D03*
X117044300Y-114853920D03*
X121944300Y-118053920D03*
X121944300Y-114853920D03*
G04 #@! TD*
D26*
G04 #@! TO.C,U4*
X167655240Y-78038960D03*
X169655240Y-78038960D03*
X171655240Y-78038960D03*
X173655240Y-78038960D03*
X175655240Y-78038960D03*
D27*
X177655240Y-78038960D03*
G04 #@! TD*
G04 #@! TO.C,U5*
X142595600Y-77901800D03*
D26*
X144595600Y-77901800D03*
X146595600Y-77901800D03*
X148595600Y-77901800D03*
X150595600Y-77901800D03*
X152595600Y-77901800D03*
G04 #@! TD*
D13*
G04 #@! TO.C,C1*
G36*
X205509327Y-110617962D02*
X205540407Y-110622572D01*
X205570886Y-110630207D01*
X205600470Y-110640792D01*
X205628874Y-110654226D01*
X205655824Y-110670379D01*
X205681062Y-110689097D01*
X205704343Y-110710197D01*
X205725443Y-110733478D01*
X205744161Y-110758716D01*
X205760314Y-110785666D01*
X205773748Y-110814070D01*
X205784333Y-110843654D01*
X205791968Y-110874133D01*
X205796578Y-110905213D01*
X205798120Y-110936596D01*
X205798120Y-112446244D01*
X205796578Y-112477627D01*
X205791968Y-112508707D01*
X205784333Y-112539186D01*
X205773748Y-112568770D01*
X205760314Y-112597174D01*
X205744161Y-112624124D01*
X205725443Y-112649362D01*
X205704343Y-112672643D01*
X205681062Y-112693743D01*
X205655824Y-112712461D01*
X205628874Y-112728614D01*
X205600470Y-112742048D01*
X205570886Y-112752633D01*
X205540407Y-112760268D01*
X205509327Y-112764878D01*
X205477944Y-112766420D01*
X204293296Y-112766420D01*
X204261913Y-112764878D01*
X204230833Y-112760268D01*
X204200354Y-112752633D01*
X204170770Y-112742048D01*
X204142366Y-112728614D01*
X204115416Y-112712461D01*
X204090178Y-112693743D01*
X204066897Y-112672643D01*
X204045797Y-112649362D01*
X204027079Y-112624124D01*
X204010926Y-112597174D01*
X203997492Y-112568770D01*
X203986907Y-112539186D01*
X203979272Y-112508707D01*
X203974662Y-112477627D01*
X203973120Y-112446244D01*
X203973120Y-110936596D01*
X203974662Y-110905213D01*
X203979272Y-110874133D01*
X203986907Y-110843654D01*
X203997492Y-110814070D01*
X204010926Y-110785666D01*
X204027079Y-110758716D01*
X204045797Y-110733478D01*
X204066897Y-110710197D01*
X204090178Y-110689097D01*
X204115416Y-110670379D01*
X204142366Y-110654226D01*
X204170770Y-110640792D01*
X204200354Y-110630207D01*
X204230833Y-110622572D01*
X204261913Y-110617962D01*
X204293296Y-110616420D01*
X205477944Y-110616420D01*
X205509327Y-110617962D01*
X205509327Y-110617962D01*
G37*
D28*
X204885620Y-111691420D03*
D13*
G36*
X202534327Y-110617962D02*
X202565407Y-110622572D01*
X202595886Y-110630207D01*
X202625470Y-110640792D01*
X202653874Y-110654226D01*
X202680824Y-110670379D01*
X202706062Y-110689097D01*
X202729343Y-110710197D01*
X202750443Y-110733478D01*
X202769161Y-110758716D01*
X202785314Y-110785666D01*
X202798748Y-110814070D01*
X202809333Y-110843654D01*
X202816968Y-110874133D01*
X202821578Y-110905213D01*
X202823120Y-110936596D01*
X202823120Y-112446244D01*
X202821578Y-112477627D01*
X202816968Y-112508707D01*
X202809333Y-112539186D01*
X202798748Y-112568770D01*
X202785314Y-112597174D01*
X202769161Y-112624124D01*
X202750443Y-112649362D01*
X202729343Y-112672643D01*
X202706062Y-112693743D01*
X202680824Y-112712461D01*
X202653874Y-112728614D01*
X202625470Y-112742048D01*
X202595886Y-112752633D01*
X202565407Y-112760268D01*
X202534327Y-112764878D01*
X202502944Y-112766420D01*
X201318296Y-112766420D01*
X201286913Y-112764878D01*
X201255833Y-112760268D01*
X201225354Y-112752633D01*
X201195770Y-112742048D01*
X201167366Y-112728614D01*
X201140416Y-112712461D01*
X201115178Y-112693743D01*
X201091897Y-112672643D01*
X201070797Y-112649362D01*
X201052079Y-112624124D01*
X201035926Y-112597174D01*
X201022492Y-112568770D01*
X201011907Y-112539186D01*
X201004272Y-112508707D01*
X200999662Y-112477627D01*
X200998120Y-112446244D01*
X200998120Y-110936596D01*
X200999662Y-110905213D01*
X201004272Y-110874133D01*
X201011907Y-110843654D01*
X201022492Y-110814070D01*
X201035926Y-110785666D01*
X201052079Y-110758716D01*
X201070797Y-110733478D01*
X201091897Y-110710197D01*
X201115178Y-110689097D01*
X201140416Y-110670379D01*
X201167366Y-110654226D01*
X201195770Y-110640792D01*
X201225354Y-110630207D01*
X201255833Y-110622572D01*
X201286913Y-110617962D01*
X201318296Y-110616420D01*
X202502944Y-110616420D01*
X202534327Y-110617962D01*
X202534327Y-110617962D01*
G37*
D28*
X201910620Y-111691420D03*
G04 #@! TD*
D13*
G04 #@! TO.C,C2*
G36*
X158598947Y-75917362D02*
X158630027Y-75921972D01*
X158660506Y-75929607D01*
X158690090Y-75940192D01*
X158718494Y-75953626D01*
X158745444Y-75969779D01*
X158770682Y-75988497D01*
X158793963Y-76009597D01*
X158815063Y-76032878D01*
X158833781Y-76058116D01*
X158849934Y-76085066D01*
X158863368Y-76113470D01*
X158873953Y-76143054D01*
X158881588Y-76173533D01*
X158886198Y-76204613D01*
X158887740Y-76235996D01*
X158887740Y-77420644D01*
X158886198Y-77452027D01*
X158881588Y-77483107D01*
X158873953Y-77513586D01*
X158863368Y-77543170D01*
X158849934Y-77571574D01*
X158833781Y-77598524D01*
X158815063Y-77623762D01*
X158793963Y-77647043D01*
X158770682Y-77668143D01*
X158745444Y-77686861D01*
X158718494Y-77703014D01*
X158690090Y-77716448D01*
X158660506Y-77727033D01*
X158630027Y-77734668D01*
X158598947Y-77739278D01*
X158567564Y-77740820D01*
X157057916Y-77740820D01*
X157026533Y-77739278D01*
X156995453Y-77734668D01*
X156964974Y-77727033D01*
X156935390Y-77716448D01*
X156906986Y-77703014D01*
X156880036Y-77686861D01*
X156854798Y-77668143D01*
X156831517Y-77647043D01*
X156810417Y-77623762D01*
X156791699Y-77598524D01*
X156775546Y-77571574D01*
X156762112Y-77543170D01*
X156751527Y-77513586D01*
X156743892Y-77483107D01*
X156739282Y-77452027D01*
X156737740Y-77420644D01*
X156737740Y-76235996D01*
X156739282Y-76204613D01*
X156743892Y-76173533D01*
X156751527Y-76143054D01*
X156762112Y-76113470D01*
X156775546Y-76085066D01*
X156791699Y-76058116D01*
X156810417Y-76032878D01*
X156831517Y-76009597D01*
X156854798Y-75988497D01*
X156880036Y-75969779D01*
X156906986Y-75953626D01*
X156935390Y-75940192D01*
X156964974Y-75929607D01*
X156995453Y-75921972D01*
X157026533Y-75917362D01*
X157057916Y-75915820D01*
X158567564Y-75915820D01*
X158598947Y-75917362D01*
X158598947Y-75917362D01*
G37*
D28*
X157812740Y-76828320D03*
D13*
G36*
X158598947Y-78892362D02*
X158630027Y-78896972D01*
X158660506Y-78904607D01*
X158690090Y-78915192D01*
X158718494Y-78928626D01*
X158745444Y-78944779D01*
X158770682Y-78963497D01*
X158793963Y-78984597D01*
X158815063Y-79007878D01*
X158833781Y-79033116D01*
X158849934Y-79060066D01*
X158863368Y-79088470D01*
X158873953Y-79118054D01*
X158881588Y-79148533D01*
X158886198Y-79179613D01*
X158887740Y-79210996D01*
X158887740Y-80395644D01*
X158886198Y-80427027D01*
X158881588Y-80458107D01*
X158873953Y-80488586D01*
X158863368Y-80518170D01*
X158849934Y-80546574D01*
X158833781Y-80573524D01*
X158815063Y-80598762D01*
X158793963Y-80622043D01*
X158770682Y-80643143D01*
X158745444Y-80661861D01*
X158718494Y-80678014D01*
X158690090Y-80691448D01*
X158660506Y-80702033D01*
X158630027Y-80709668D01*
X158598947Y-80714278D01*
X158567564Y-80715820D01*
X157057916Y-80715820D01*
X157026533Y-80714278D01*
X156995453Y-80709668D01*
X156964974Y-80702033D01*
X156935390Y-80691448D01*
X156906986Y-80678014D01*
X156880036Y-80661861D01*
X156854798Y-80643143D01*
X156831517Y-80622043D01*
X156810417Y-80598762D01*
X156791699Y-80573524D01*
X156775546Y-80546574D01*
X156762112Y-80518170D01*
X156751527Y-80488586D01*
X156743892Y-80458107D01*
X156739282Y-80427027D01*
X156737740Y-80395644D01*
X156737740Y-79210996D01*
X156739282Y-79179613D01*
X156743892Y-79148533D01*
X156751527Y-79118054D01*
X156762112Y-79088470D01*
X156775546Y-79060066D01*
X156791699Y-79033116D01*
X156810417Y-79007878D01*
X156831517Y-78984597D01*
X156854798Y-78963497D01*
X156880036Y-78944779D01*
X156906986Y-78928626D01*
X156935390Y-78915192D01*
X156964974Y-78904607D01*
X156995453Y-78896972D01*
X157026533Y-78892362D01*
X157057916Y-78890820D01*
X158567564Y-78890820D01*
X158598947Y-78892362D01*
X158598947Y-78892362D01*
G37*
D28*
X157812740Y-79803320D03*
G04 #@! TD*
D13*
G04 #@! TO.C,C3*
G36*
X138118927Y-68691722D02*
X138150007Y-68696332D01*
X138180486Y-68703967D01*
X138210070Y-68714552D01*
X138238474Y-68727986D01*
X138265424Y-68744139D01*
X138290662Y-68762857D01*
X138313943Y-68783957D01*
X138335043Y-68807238D01*
X138353761Y-68832476D01*
X138369914Y-68859426D01*
X138383348Y-68887830D01*
X138393933Y-68917414D01*
X138401568Y-68947893D01*
X138406178Y-68978973D01*
X138407720Y-69010356D01*
X138407720Y-70195004D01*
X138406178Y-70226387D01*
X138401568Y-70257467D01*
X138393933Y-70287946D01*
X138383348Y-70317530D01*
X138369914Y-70345934D01*
X138353761Y-70372884D01*
X138335043Y-70398122D01*
X138313943Y-70421403D01*
X138290662Y-70442503D01*
X138265424Y-70461221D01*
X138238474Y-70477374D01*
X138210070Y-70490808D01*
X138180486Y-70501393D01*
X138150007Y-70509028D01*
X138118927Y-70513638D01*
X138087544Y-70515180D01*
X136577896Y-70515180D01*
X136546513Y-70513638D01*
X136515433Y-70509028D01*
X136484954Y-70501393D01*
X136455370Y-70490808D01*
X136426966Y-70477374D01*
X136400016Y-70461221D01*
X136374778Y-70442503D01*
X136351497Y-70421403D01*
X136330397Y-70398122D01*
X136311679Y-70372884D01*
X136295526Y-70345934D01*
X136282092Y-70317530D01*
X136271507Y-70287946D01*
X136263872Y-70257467D01*
X136259262Y-70226387D01*
X136257720Y-70195004D01*
X136257720Y-69010356D01*
X136259262Y-68978973D01*
X136263872Y-68947893D01*
X136271507Y-68917414D01*
X136282092Y-68887830D01*
X136295526Y-68859426D01*
X136311679Y-68832476D01*
X136330397Y-68807238D01*
X136351497Y-68783957D01*
X136374778Y-68762857D01*
X136400016Y-68744139D01*
X136426966Y-68727986D01*
X136455370Y-68714552D01*
X136484954Y-68703967D01*
X136515433Y-68696332D01*
X136546513Y-68691722D01*
X136577896Y-68690180D01*
X138087544Y-68690180D01*
X138118927Y-68691722D01*
X138118927Y-68691722D01*
G37*
D28*
X137332720Y-69602680D03*
D13*
G36*
X138118927Y-65716722D02*
X138150007Y-65721332D01*
X138180486Y-65728967D01*
X138210070Y-65739552D01*
X138238474Y-65752986D01*
X138265424Y-65769139D01*
X138290662Y-65787857D01*
X138313943Y-65808957D01*
X138335043Y-65832238D01*
X138353761Y-65857476D01*
X138369914Y-65884426D01*
X138383348Y-65912830D01*
X138393933Y-65942414D01*
X138401568Y-65972893D01*
X138406178Y-66003973D01*
X138407720Y-66035356D01*
X138407720Y-67220004D01*
X138406178Y-67251387D01*
X138401568Y-67282467D01*
X138393933Y-67312946D01*
X138383348Y-67342530D01*
X138369914Y-67370934D01*
X138353761Y-67397884D01*
X138335043Y-67423122D01*
X138313943Y-67446403D01*
X138290662Y-67467503D01*
X138265424Y-67486221D01*
X138238474Y-67502374D01*
X138210070Y-67515808D01*
X138180486Y-67526393D01*
X138150007Y-67534028D01*
X138118927Y-67538638D01*
X138087544Y-67540180D01*
X136577896Y-67540180D01*
X136546513Y-67538638D01*
X136515433Y-67534028D01*
X136484954Y-67526393D01*
X136455370Y-67515808D01*
X136426966Y-67502374D01*
X136400016Y-67486221D01*
X136374778Y-67467503D01*
X136351497Y-67446403D01*
X136330397Y-67423122D01*
X136311679Y-67397884D01*
X136295526Y-67370934D01*
X136282092Y-67342530D01*
X136271507Y-67312946D01*
X136263872Y-67282467D01*
X136259262Y-67251387D01*
X136257720Y-67220004D01*
X136257720Y-66035356D01*
X136259262Y-66003973D01*
X136263872Y-65972893D01*
X136271507Y-65942414D01*
X136282092Y-65912830D01*
X136295526Y-65884426D01*
X136311679Y-65857476D01*
X136330397Y-65832238D01*
X136351497Y-65808957D01*
X136374778Y-65787857D01*
X136400016Y-65769139D01*
X136426966Y-65752986D01*
X136455370Y-65739552D01*
X136484954Y-65728967D01*
X136515433Y-65721332D01*
X136546513Y-65716722D01*
X136577896Y-65715180D01*
X138087544Y-65715180D01*
X138118927Y-65716722D01*
X138118927Y-65716722D01*
G37*
D28*
X137332720Y-66627680D03*
G04 #@! TD*
D13*
G04 #@! TO.C,C4*
G36*
X206869107Y-60878022D02*
X206900187Y-60882632D01*
X206930666Y-60890267D01*
X206960250Y-60900852D01*
X206988654Y-60914286D01*
X207015604Y-60930439D01*
X207040842Y-60949157D01*
X207064123Y-60970257D01*
X207085223Y-60993538D01*
X207103941Y-61018776D01*
X207120094Y-61045726D01*
X207133528Y-61074130D01*
X207144113Y-61103714D01*
X207151748Y-61134193D01*
X207156358Y-61165273D01*
X207157900Y-61196656D01*
X207157900Y-62381304D01*
X207156358Y-62412687D01*
X207151748Y-62443767D01*
X207144113Y-62474246D01*
X207133528Y-62503830D01*
X207120094Y-62532234D01*
X207103941Y-62559184D01*
X207085223Y-62584422D01*
X207064123Y-62607703D01*
X207040842Y-62628803D01*
X207015604Y-62647521D01*
X206988654Y-62663674D01*
X206960250Y-62677108D01*
X206930666Y-62687693D01*
X206900187Y-62695328D01*
X206869107Y-62699938D01*
X206837724Y-62701480D01*
X205328076Y-62701480D01*
X205296693Y-62699938D01*
X205265613Y-62695328D01*
X205235134Y-62687693D01*
X205205550Y-62677108D01*
X205177146Y-62663674D01*
X205150196Y-62647521D01*
X205124958Y-62628803D01*
X205101677Y-62607703D01*
X205080577Y-62584422D01*
X205061859Y-62559184D01*
X205045706Y-62532234D01*
X205032272Y-62503830D01*
X205021687Y-62474246D01*
X205014052Y-62443767D01*
X205009442Y-62412687D01*
X205007900Y-62381304D01*
X205007900Y-61196656D01*
X205009442Y-61165273D01*
X205014052Y-61134193D01*
X205021687Y-61103714D01*
X205032272Y-61074130D01*
X205045706Y-61045726D01*
X205061859Y-61018776D01*
X205080577Y-60993538D01*
X205101677Y-60970257D01*
X205124958Y-60949157D01*
X205150196Y-60930439D01*
X205177146Y-60914286D01*
X205205550Y-60900852D01*
X205235134Y-60890267D01*
X205265613Y-60882632D01*
X205296693Y-60878022D01*
X205328076Y-60876480D01*
X206837724Y-60876480D01*
X206869107Y-60878022D01*
X206869107Y-60878022D01*
G37*
D28*
X206082900Y-61788980D03*
D13*
G36*
X206869107Y-63853022D02*
X206900187Y-63857632D01*
X206930666Y-63865267D01*
X206960250Y-63875852D01*
X206988654Y-63889286D01*
X207015604Y-63905439D01*
X207040842Y-63924157D01*
X207064123Y-63945257D01*
X207085223Y-63968538D01*
X207103941Y-63993776D01*
X207120094Y-64020726D01*
X207133528Y-64049130D01*
X207144113Y-64078714D01*
X207151748Y-64109193D01*
X207156358Y-64140273D01*
X207157900Y-64171656D01*
X207157900Y-65356304D01*
X207156358Y-65387687D01*
X207151748Y-65418767D01*
X207144113Y-65449246D01*
X207133528Y-65478830D01*
X207120094Y-65507234D01*
X207103941Y-65534184D01*
X207085223Y-65559422D01*
X207064123Y-65582703D01*
X207040842Y-65603803D01*
X207015604Y-65622521D01*
X206988654Y-65638674D01*
X206960250Y-65652108D01*
X206930666Y-65662693D01*
X206900187Y-65670328D01*
X206869107Y-65674938D01*
X206837724Y-65676480D01*
X205328076Y-65676480D01*
X205296693Y-65674938D01*
X205265613Y-65670328D01*
X205235134Y-65662693D01*
X205205550Y-65652108D01*
X205177146Y-65638674D01*
X205150196Y-65622521D01*
X205124958Y-65603803D01*
X205101677Y-65582703D01*
X205080577Y-65559422D01*
X205061859Y-65534184D01*
X205045706Y-65507234D01*
X205032272Y-65478830D01*
X205021687Y-65449246D01*
X205014052Y-65418767D01*
X205009442Y-65387687D01*
X205007900Y-65356304D01*
X205007900Y-64171656D01*
X205009442Y-64140273D01*
X205014052Y-64109193D01*
X205021687Y-64078714D01*
X205032272Y-64049130D01*
X205045706Y-64020726D01*
X205061859Y-63993776D01*
X205080577Y-63968538D01*
X205101677Y-63945257D01*
X205124958Y-63924157D01*
X205150196Y-63905439D01*
X205177146Y-63889286D01*
X205205550Y-63875852D01*
X205235134Y-63865267D01*
X205265613Y-63857632D01*
X205296693Y-63853022D01*
X205328076Y-63851480D01*
X206837724Y-63851480D01*
X206869107Y-63853022D01*
X206869107Y-63853022D01*
G37*
D28*
X206082900Y-64763980D03*
G04 #@! TD*
D13*
G04 #@! TO.C,C7*
G36*
X114599527Y-59602062D02*
X114630607Y-59606672D01*
X114661086Y-59614307D01*
X114690670Y-59624892D01*
X114719074Y-59638326D01*
X114746024Y-59654479D01*
X114771262Y-59673197D01*
X114794543Y-59694297D01*
X114815643Y-59717578D01*
X114834361Y-59742816D01*
X114850514Y-59769766D01*
X114863948Y-59798170D01*
X114874533Y-59827754D01*
X114882168Y-59858233D01*
X114886778Y-59889313D01*
X114888320Y-59920696D01*
X114888320Y-61430344D01*
X114886778Y-61461727D01*
X114882168Y-61492807D01*
X114874533Y-61523286D01*
X114863948Y-61552870D01*
X114850514Y-61581274D01*
X114834361Y-61608224D01*
X114815643Y-61633462D01*
X114794543Y-61656743D01*
X114771262Y-61677843D01*
X114746024Y-61696561D01*
X114719074Y-61712714D01*
X114690670Y-61726148D01*
X114661086Y-61736733D01*
X114630607Y-61744368D01*
X114599527Y-61748978D01*
X114568144Y-61750520D01*
X113383496Y-61750520D01*
X113352113Y-61748978D01*
X113321033Y-61744368D01*
X113290554Y-61736733D01*
X113260970Y-61726148D01*
X113232566Y-61712714D01*
X113205616Y-61696561D01*
X113180378Y-61677843D01*
X113157097Y-61656743D01*
X113135997Y-61633462D01*
X113117279Y-61608224D01*
X113101126Y-61581274D01*
X113087692Y-61552870D01*
X113077107Y-61523286D01*
X113069472Y-61492807D01*
X113064862Y-61461727D01*
X113063320Y-61430344D01*
X113063320Y-59920696D01*
X113064862Y-59889313D01*
X113069472Y-59858233D01*
X113077107Y-59827754D01*
X113087692Y-59798170D01*
X113101126Y-59769766D01*
X113117279Y-59742816D01*
X113135997Y-59717578D01*
X113157097Y-59694297D01*
X113180378Y-59673197D01*
X113205616Y-59654479D01*
X113232566Y-59638326D01*
X113260970Y-59624892D01*
X113290554Y-59614307D01*
X113321033Y-59606672D01*
X113352113Y-59602062D01*
X113383496Y-59600520D01*
X114568144Y-59600520D01*
X114599527Y-59602062D01*
X114599527Y-59602062D01*
G37*
D28*
X113975820Y-60675520D03*
D13*
G36*
X117574527Y-59602062D02*
X117605607Y-59606672D01*
X117636086Y-59614307D01*
X117665670Y-59624892D01*
X117694074Y-59638326D01*
X117721024Y-59654479D01*
X117746262Y-59673197D01*
X117769543Y-59694297D01*
X117790643Y-59717578D01*
X117809361Y-59742816D01*
X117825514Y-59769766D01*
X117838948Y-59798170D01*
X117849533Y-59827754D01*
X117857168Y-59858233D01*
X117861778Y-59889313D01*
X117863320Y-59920696D01*
X117863320Y-61430344D01*
X117861778Y-61461727D01*
X117857168Y-61492807D01*
X117849533Y-61523286D01*
X117838948Y-61552870D01*
X117825514Y-61581274D01*
X117809361Y-61608224D01*
X117790643Y-61633462D01*
X117769543Y-61656743D01*
X117746262Y-61677843D01*
X117721024Y-61696561D01*
X117694074Y-61712714D01*
X117665670Y-61726148D01*
X117636086Y-61736733D01*
X117605607Y-61744368D01*
X117574527Y-61748978D01*
X117543144Y-61750520D01*
X116358496Y-61750520D01*
X116327113Y-61748978D01*
X116296033Y-61744368D01*
X116265554Y-61736733D01*
X116235970Y-61726148D01*
X116207566Y-61712714D01*
X116180616Y-61696561D01*
X116155378Y-61677843D01*
X116132097Y-61656743D01*
X116110997Y-61633462D01*
X116092279Y-61608224D01*
X116076126Y-61581274D01*
X116062692Y-61552870D01*
X116052107Y-61523286D01*
X116044472Y-61492807D01*
X116039862Y-61461727D01*
X116038320Y-61430344D01*
X116038320Y-59920696D01*
X116039862Y-59889313D01*
X116044472Y-59858233D01*
X116052107Y-59827754D01*
X116062692Y-59798170D01*
X116076126Y-59769766D01*
X116092279Y-59742816D01*
X116110997Y-59717578D01*
X116132097Y-59694297D01*
X116155378Y-59673197D01*
X116180616Y-59654479D01*
X116207566Y-59638326D01*
X116235970Y-59624892D01*
X116265554Y-59614307D01*
X116296033Y-59606672D01*
X116327113Y-59602062D01*
X116358496Y-59600520D01*
X117543144Y-59600520D01*
X117574527Y-59602062D01*
X117574527Y-59602062D01*
G37*
D28*
X116950820Y-60675520D03*
G04 #@! TD*
D13*
G04 #@! TO.C,C8*
G36*
X118864187Y-119139662D02*
X118895267Y-119144272D01*
X118925746Y-119151907D01*
X118955330Y-119162492D01*
X118983734Y-119175926D01*
X119010684Y-119192079D01*
X119035922Y-119210797D01*
X119059203Y-119231897D01*
X119080303Y-119255178D01*
X119099021Y-119280416D01*
X119115174Y-119307366D01*
X119128608Y-119335770D01*
X119139193Y-119365354D01*
X119146828Y-119395833D01*
X119151438Y-119426913D01*
X119152980Y-119458296D01*
X119152980Y-120967944D01*
X119151438Y-120999327D01*
X119146828Y-121030407D01*
X119139193Y-121060886D01*
X119128608Y-121090470D01*
X119115174Y-121118874D01*
X119099021Y-121145824D01*
X119080303Y-121171062D01*
X119059203Y-121194343D01*
X119035922Y-121215443D01*
X119010684Y-121234161D01*
X118983734Y-121250314D01*
X118955330Y-121263748D01*
X118925746Y-121274333D01*
X118895267Y-121281968D01*
X118864187Y-121286578D01*
X118832804Y-121288120D01*
X117648156Y-121288120D01*
X117616773Y-121286578D01*
X117585693Y-121281968D01*
X117555214Y-121274333D01*
X117525630Y-121263748D01*
X117497226Y-121250314D01*
X117470276Y-121234161D01*
X117445038Y-121215443D01*
X117421757Y-121194343D01*
X117400657Y-121171062D01*
X117381939Y-121145824D01*
X117365786Y-121118874D01*
X117352352Y-121090470D01*
X117341767Y-121060886D01*
X117334132Y-121030407D01*
X117329522Y-120999327D01*
X117327980Y-120967944D01*
X117327980Y-119458296D01*
X117329522Y-119426913D01*
X117334132Y-119395833D01*
X117341767Y-119365354D01*
X117352352Y-119335770D01*
X117365786Y-119307366D01*
X117381939Y-119280416D01*
X117400657Y-119255178D01*
X117421757Y-119231897D01*
X117445038Y-119210797D01*
X117470276Y-119192079D01*
X117497226Y-119175926D01*
X117525630Y-119162492D01*
X117555214Y-119151907D01*
X117585693Y-119144272D01*
X117616773Y-119139662D01*
X117648156Y-119138120D01*
X118832804Y-119138120D01*
X118864187Y-119139662D01*
X118864187Y-119139662D01*
G37*
D28*
X118240480Y-120213120D03*
D13*
G36*
X121839187Y-119139662D02*
X121870267Y-119144272D01*
X121900746Y-119151907D01*
X121930330Y-119162492D01*
X121958734Y-119175926D01*
X121985684Y-119192079D01*
X122010922Y-119210797D01*
X122034203Y-119231897D01*
X122055303Y-119255178D01*
X122074021Y-119280416D01*
X122090174Y-119307366D01*
X122103608Y-119335770D01*
X122114193Y-119365354D01*
X122121828Y-119395833D01*
X122126438Y-119426913D01*
X122127980Y-119458296D01*
X122127980Y-120967944D01*
X122126438Y-120999327D01*
X122121828Y-121030407D01*
X122114193Y-121060886D01*
X122103608Y-121090470D01*
X122090174Y-121118874D01*
X122074021Y-121145824D01*
X122055303Y-121171062D01*
X122034203Y-121194343D01*
X122010922Y-121215443D01*
X121985684Y-121234161D01*
X121958734Y-121250314D01*
X121930330Y-121263748D01*
X121900746Y-121274333D01*
X121870267Y-121281968D01*
X121839187Y-121286578D01*
X121807804Y-121288120D01*
X120623156Y-121288120D01*
X120591773Y-121286578D01*
X120560693Y-121281968D01*
X120530214Y-121274333D01*
X120500630Y-121263748D01*
X120472226Y-121250314D01*
X120445276Y-121234161D01*
X120420038Y-121215443D01*
X120396757Y-121194343D01*
X120375657Y-121171062D01*
X120356939Y-121145824D01*
X120340786Y-121118874D01*
X120327352Y-121090470D01*
X120316767Y-121060886D01*
X120309132Y-121030407D01*
X120304522Y-120999327D01*
X120302980Y-120967944D01*
X120302980Y-119458296D01*
X120304522Y-119426913D01*
X120309132Y-119395833D01*
X120316767Y-119365354D01*
X120327352Y-119335770D01*
X120340786Y-119307366D01*
X120356939Y-119280416D01*
X120375657Y-119255178D01*
X120396757Y-119231897D01*
X120420038Y-119210797D01*
X120445276Y-119192079D01*
X120472226Y-119175926D01*
X120500630Y-119162492D01*
X120530214Y-119151907D01*
X120560693Y-119144272D01*
X120591773Y-119139662D01*
X120623156Y-119138120D01*
X121807804Y-119138120D01*
X121839187Y-119139662D01*
X121839187Y-119139662D01*
G37*
D28*
X121215480Y-120213120D03*
G04 #@! TD*
D13*
G04 #@! TO.C,C10*
G36*
X173075407Y-58227922D02*
X173106487Y-58232532D01*
X173136966Y-58240167D01*
X173166550Y-58250752D01*
X173194954Y-58264186D01*
X173221904Y-58280339D01*
X173247142Y-58299057D01*
X173270423Y-58320157D01*
X173291523Y-58343438D01*
X173310241Y-58368676D01*
X173326394Y-58395626D01*
X173339828Y-58424030D01*
X173350413Y-58453614D01*
X173358048Y-58484093D01*
X173362658Y-58515173D01*
X173364200Y-58546556D01*
X173364200Y-60056204D01*
X173362658Y-60087587D01*
X173358048Y-60118667D01*
X173350413Y-60149146D01*
X173339828Y-60178730D01*
X173326394Y-60207134D01*
X173310241Y-60234084D01*
X173291523Y-60259322D01*
X173270423Y-60282603D01*
X173247142Y-60303703D01*
X173221904Y-60322421D01*
X173194954Y-60338574D01*
X173166550Y-60352008D01*
X173136966Y-60362593D01*
X173106487Y-60370228D01*
X173075407Y-60374838D01*
X173044024Y-60376380D01*
X171859376Y-60376380D01*
X171827993Y-60374838D01*
X171796913Y-60370228D01*
X171766434Y-60362593D01*
X171736850Y-60352008D01*
X171708446Y-60338574D01*
X171681496Y-60322421D01*
X171656258Y-60303703D01*
X171632977Y-60282603D01*
X171611877Y-60259322D01*
X171593159Y-60234084D01*
X171577006Y-60207134D01*
X171563572Y-60178730D01*
X171552987Y-60149146D01*
X171545352Y-60118667D01*
X171540742Y-60087587D01*
X171539200Y-60056204D01*
X171539200Y-58546556D01*
X171540742Y-58515173D01*
X171545352Y-58484093D01*
X171552987Y-58453614D01*
X171563572Y-58424030D01*
X171577006Y-58395626D01*
X171593159Y-58368676D01*
X171611877Y-58343438D01*
X171632977Y-58320157D01*
X171656258Y-58299057D01*
X171681496Y-58280339D01*
X171708446Y-58264186D01*
X171736850Y-58250752D01*
X171766434Y-58240167D01*
X171796913Y-58232532D01*
X171827993Y-58227922D01*
X171859376Y-58226380D01*
X173044024Y-58226380D01*
X173075407Y-58227922D01*
X173075407Y-58227922D01*
G37*
D28*
X172451700Y-59301380D03*
D13*
G36*
X176050407Y-58227922D02*
X176081487Y-58232532D01*
X176111966Y-58240167D01*
X176141550Y-58250752D01*
X176169954Y-58264186D01*
X176196904Y-58280339D01*
X176222142Y-58299057D01*
X176245423Y-58320157D01*
X176266523Y-58343438D01*
X176285241Y-58368676D01*
X176301394Y-58395626D01*
X176314828Y-58424030D01*
X176325413Y-58453614D01*
X176333048Y-58484093D01*
X176337658Y-58515173D01*
X176339200Y-58546556D01*
X176339200Y-60056204D01*
X176337658Y-60087587D01*
X176333048Y-60118667D01*
X176325413Y-60149146D01*
X176314828Y-60178730D01*
X176301394Y-60207134D01*
X176285241Y-60234084D01*
X176266523Y-60259322D01*
X176245423Y-60282603D01*
X176222142Y-60303703D01*
X176196904Y-60322421D01*
X176169954Y-60338574D01*
X176141550Y-60352008D01*
X176111966Y-60362593D01*
X176081487Y-60370228D01*
X176050407Y-60374838D01*
X176019024Y-60376380D01*
X174834376Y-60376380D01*
X174802993Y-60374838D01*
X174771913Y-60370228D01*
X174741434Y-60362593D01*
X174711850Y-60352008D01*
X174683446Y-60338574D01*
X174656496Y-60322421D01*
X174631258Y-60303703D01*
X174607977Y-60282603D01*
X174586877Y-60259322D01*
X174568159Y-60234084D01*
X174552006Y-60207134D01*
X174538572Y-60178730D01*
X174527987Y-60149146D01*
X174520352Y-60118667D01*
X174515742Y-60087587D01*
X174514200Y-60056204D01*
X174514200Y-58546556D01*
X174515742Y-58515173D01*
X174520352Y-58484093D01*
X174527987Y-58453614D01*
X174538572Y-58424030D01*
X174552006Y-58395626D01*
X174568159Y-58368676D01*
X174586877Y-58343438D01*
X174607977Y-58320157D01*
X174631258Y-58299057D01*
X174656496Y-58280339D01*
X174683446Y-58264186D01*
X174711850Y-58250752D01*
X174741434Y-58240167D01*
X174771913Y-58232532D01*
X174802993Y-58227922D01*
X174834376Y-58226380D01*
X176019024Y-58226380D01*
X176050407Y-58227922D01*
X176050407Y-58227922D01*
G37*
D28*
X175426700Y-59301380D03*
G04 #@! TD*
D13*
G04 #@! TO.C,C11*
G36*
X146815887Y-144360862D02*
X146846967Y-144365472D01*
X146877446Y-144373107D01*
X146907030Y-144383692D01*
X146935434Y-144397126D01*
X146962384Y-144413279D01*
X146987622Y-144431997D01*
X147010903Y-144453097D01*
X147032003Y-144476378D01*
X147050721Y-144501616D01*
X147066874Y-144528566D01*
X147080308Y-144556970D01*
X147090893Y-144586554D01*
X147098528Y-144617033D01*
X147103138Y-144648113D01*
X147104680Y-144679496D01*
X147104680Y-145864144D01*
X147103138Y-145895527D01*
X147098528Y-145926607D01*
X147090893Y-145957086D01*
X147080308Y-145986670D01*
X147066874Y-146015074D01*
X147050721Y-146042024D01*
X147032003Y-146067262D01*
X147010903Y-146090543D01*
X146987622Y-146111643D01*
X146962384Y-146130361D01*
X146935434Y-146146514D01*
X146907030Y-146159948D01*
X146877446Y-146170533D01*
X146846967Y-146178168D01*
X146815887Y-146182778D01*
X146784504Y-146184320D01*
X145274856Y-146184320D01*
X145243473Y-146182778D01*
X145212393Y-146178168D01*
X145181914Y-146170533D01*
X145152330Y-146159948D01*
X145123926Y-146146514D01*
X145096976Y-146130361D01*
X145071738Y-146111643D01*
X145048457Y-146090543D01*
X145027357Y-146067262D01*
X145008639Y-146042024D01*
X144992486Y-146015074D01*
X144979052Y-145986670D01*
X144968467Y-145957086D01*
X144960832Y-145926607D01*
X144956222Y-145895527D01*
X144954680Y-145864144D01*
X144954680Y-144679496D01*
X144956222Y-144648113D01*
X144960832Y-144617033D01*
X144968467Y-144586554D01*
X144979052Y-144556970D01*
X144992486Y-144528566D01*
X145008639Y-144501616D01*
X145027357Y-144476378D01*
X145048457Y-144453097D01*
X145071738Y-144431997D01*
X145096976Y-144413279D01*
X145123926Y-144397126D01*
X145152330Y-144383692D01*
X145181914Y-144373107D01*
X145212393Y-144365472D01*
X145243473Y-144360862D01*
X145274856Y-144359320D01*
X146784504Y-144359320D01*
X146815887Y-144360862D01*
X146815887Y-144360862D01*
G37*
D28*
X146029680Y-145271820D03*
D13*
G36*
X146815887Y-141385862D02*
X146846967Y-141390472D01*
X146877446Y-141398107D01*
X146907030Y-141408692D01*
X146935434Y-141422126D01*
X146962384Y-141438279D01*
X146987622Y-141456997D01*
X147010903Y-141478097D01*
X147032003Y-141501378D01*
X147050721Y-141526616D01*
X147066874Y-141553566D01*
X147080308Y-141581970D01*
X147090893Y-141611554D01*
X147098528Y-141642033D01*
X147103138Y-141673113D01*
X147104680Y-141704496D01*
X147104680Y-142889144D01*
X147103138Y-142920527D01*
X147098528Y-142951607D01*
X147090893Y-142982086D01*
X147080308Y-143011670D01*
X147066874Y-143040074D01*
X147050721Y-143067024D01*
X147032003Y-143092262D01*
X147010903Y-143115543D01*
X146987622Y-143136643D01*
X146962384Y-143155361D01*
X146935434Y-143171514D01*
X146907030Y-143184948D01*
X146877446Y-143195533D01*
X146846967Y-143203168D01*
X146815887Y-143207778D01*
X146784504Y-143209320D01*
X145274856Y-143209320D01*
X145243473Y-143207778D01*
X145212393Y-143203168D01*
X145181914Y-143195533D01*
X145152330Y-143184948D01*
X145123926Y-143171514D01*
X145096976Y-143155361D01*
X145071738Y-143136643D01*
X145048457Y-143115543D01*
X145027357Y-143092262D01*
X145008639Y-143067024D01*
X144992486Y-143040074D01*
X144979052Y-143011670D01*
X144968467Y-142982086D01*
X144960832Y-142951607D01*
X144956222Y-142920527D01*
X144954680Y-142889144D01*
X144954680Y-141704496D01*
X144956222Y-141673113D01*
X144960832Y-141642033D01*
X144968467Y-141611554D01*
X144979052Y-141581970D01*
X144992486Y-141553566D01*
X145008639Y-141526616D01*
X145027357Y-141501378D01*
X145048457Y-141478097D01*
X145071738Y-141456997D01*
X145096976Y-141438279D01*
X145123926Y-141422126D01*
X145152330Y-141408692D01*
X145181914Y-141398107D01*
X145212393Y-141390472D01*
X145243473Y-141385862D01*
X145274856Y-141384320D01*
X146784504Y-141384320D01*
X146815887Y-141385862D01*
X146815887Y-141385862D01*
G37*
D28*
X146029680Y-142296820D03*
G04 #@! TD*
D13*
G04 #@! TO.C,C12*
G36*
X183809447Y-138651942D02*
X183840527Y-138656552D01*
X183871006Y-138664187D01*
X183900590Y-138674772D01*
X183928994Y-138688206D01*
X183955944Y-138704359D01*
X183981182Y-138723077D01*
X184004463Y-138744177D01*
X184025563Y-138767458D01*
X184044281Y-138792696D01*
X184060434Y-138819646D01*
X184073868Y-138848050D01*
X184084453Y-138877634D01*
X184092088Y-138908113D01*
X184096698Y-138939193D01*
X184098240Y-138970576D01*
X184098240Y-140480224D01*
X184096698Y-140511607D01*
X184092088Y-140542687D01*
X184084453Y-140573166D01*
X184073868Y-140602750D01*
X184060434Y-140631154D01*
X184044281Y-140658104D01*
X184025563Y-140683342D01*
X184004463Y-140706623D01*
X183981182Y-140727723D01*
X183955944Y-140746441D01*
X183928994Y-140762594D01*
X183900590Y-140776028D01*
X183871006Y-140786613D01*
X183840527Y-140794248D01*
X183809447Y-140798858D01*
X183778064Y-140800400D01*
X182593416Y-140800400D01*
X182562033Y-140798858D01*
X182530953Y-140794248D01*
X182500474Y-140786613D01*
X182470890Y-140776028D01*
X182442486Y-140762594D01*
X182415536Y-140746441D01*
X182390298Y-140727723D01*
X182367017Y-140706623D01*
X182345917Y-140683342D01*
X182327199Y-140658104D01*
X182311046Y-140631154D01*
X182297612Y-140602750D01*
X182287027Y-140573166D01*
X182279392Y-140542687D01*
X182274782Y-140511607D01*
X182273240Y-140480224D01*
X182273240Y-138970576D01*
X182274782Y-138939193D01*
X182279392Y-138908113D01*
X182287027Y-138877634D01*
X182297612Y-138848050D01*
X182311046Y-138819646D01*
X182327199Y-138792696D01*
X182345917Y-138767458D01*
X182367017Y-138744177D01*
X182390298Y-138723077D01*
X182415536Y-138704359D01*
X182442486Y-138688206D01*
X182470890Y-138674772D01*
X182500474Y-138664187D01*
X182530953Y-138656552D01*
X182562033Y-138651942D01*
X182593416Y-138650400D01*
X183778064Y-138650400D01*
X183809447Y-138651942D01*
X183809447Y-138651942D01*
G37*
D28*
X183185740Y-139725400D03*
D13*
G36*
X186784447Y-138651942D02*
X186815527Y-138656552D01*
X186846006Y-138664187D01*
X186875590Y-138674772D01*
X186903994Y-138688206D01*
X186930944Y-138704359D01*
X186956182Y-138723077D01*
X186979463Y-138744177D01*
X187000563Y-138767458D01*
X187019281Y-138792696D01*
X187035434Y-138819646D01*
X187048868Y-138848050D01*
X187059453Y-138877634D01*
X187067088Y-138908113D01*
X187071698Y-138939193D01*
X187073240Y-138970576D01*
X187073240Y-140480224D01*
X187071698Y-140511607D01*
X187067088Y-140542687D01*
X187059453Y-140573166D01*
X187048868Y-140602750D01*
X187035434Y-140631154D01*
X187019281Y-140658104D01*
X187000563Y-140683342D01*
X186979463Y-140706623D01*
X186956182Y-140727723D01*
X186930944Y-140746441D01*
X186903994Y-140762594D01*
X186875590Y-140776028D01*
X186846006Y-140786613D01*
X186815527Y-140794248D01*
X186784447Y-140798858D01*
X186753064Y-140800400D01*
X185568416Y-140800400D01*
X185537033Y-140798858D01*
X185505953Y-140794248D01*
X185475474Y-140786613D01*
X185445890Y-140776028D01*
X185417486Y-140762594D01*
X185390536Y-140746441D01*
X185365298Y-140727723D01*
X185342017Y-140706623D01*
X185320917Y-140683342D01*
X185302199Y-140658104D01*
X185286046Y-140631154D01*
X185272612Y-140602750D01*
X185262027Y-140573166D01*
X185254392Y-140542687D01*
X185249782Y-140511607D01*
X185248240Y-140480224D01*
X185248240Y-138970576D01*
X185249782Y-138939193D01*
X185254392Y-138908113D01*
X185262027Y-138877634D01*
X185272612Y-138848050D01*
X185286046Y-138819646D01*
X185302199Y-138792696D01*
X185320917Y-138767458D01*
X185342017Y-138744177D01*
X185365298Y-138723077D01*
X185390536Y-138704359D01*
X185417486Y-138688206D01*
X185445890Y-138674772D01*
X185475474Y-138664187D01*
X185505953Y-138656552D01*
X185537033Y-138651942D01*
X185568416Y-138650400D01*
X186753064Y-138650400D01*
X186784447Y-138651942D01*
X186784447Y-138651942D01*
G37*
D28*
X186160740Y-139725400D03*
G04 #@! TD*
D25*
G04 #@! TO.C,D4*
X143225320Y-142142380D03*
X140025320Y-142142380D03*
X143225320Y-137242380D03*
X140025320Y-137242380D03*
G04 #@! TD*
G04 #@! TO.C,D5*
X178163420Y-136945200D03*
X181363420Y-136945200D03*
X178163420Y-141845200D03*
X181363420Y-141845200D03*
G04 #@! TD*
D13*
G04 #@! TO.C,R20*
G36*
X137351847Y-58188162D02*
X137382927Y-58192772D01*
X137413406Y-58200407D01*
X137442990Y-58210992D01*
X137471394Y-58224426D01*
X137498344Y-58240579D01*
X137523582Y-58259297D01*
X137546863Y-58280397D01*
X137567963Y-58303678D01*
X137586681Y-58328916D01*
X137602834Y-58355866D01*
X137616268Y-58384270D01*
X137626853Y-58413854D01*
X137634488Y-58444333D01*
X137639098Y-58475413D01*
X137640640Y-58506796D01*
X137640640Y-59691444D01*
X137639098Y-59722827D01*
X137634488Y-59753907D01*
X137626853Y-59784386D01*
X137616268Y-59813970D01*
X137602834Y-59842374D01*
X137586681Y-59869324D01*
X137567963Y-59894562D01*
X137546863Y-59917843D01*
X137523582Y-59938943D01*
X137498344Y-59957661D01*
X137471394Y-59973814D01*
X137442990Y-59987248D01*
X137413406Y-59997833D01*
X137382927Y-60005468D01*
X137351847Y-60010078D01*
X137320464Y-60011620D01*
X135810816Y-60011620D01*
X135779433Y-60010078D01*
X135748353Y-60005468D01*
X135717874Y-59997833D01*
X135688290Y-59987248D01*
X135659886Y-59973814D01*
X135632936Y-59957661D01*
X135607698Y-59938943D01*
X135584417Y-59917843D01*
X135563317Y-59894562D01*
X135544599Y-59869324D01*
X135528446Y-59842374D01*
X135515012Y-59813970D01*
X135504427Y-59784386D01*
X135496792Y-59753907D01*
X135492182Y-59722827D01*
X135490640Y-59691444D01*
X135490640Y-58506796D01*
X135492182Y-58475413D01*
X135496792Y-58444333D01*
X135504427Y-58413854D01*
X135515012Y-58384270D01*
X135528446Y-58355866D01*
X135544599Y-58328916D01*
X135563317Y-58303678D01*
X135584417Y-58280397D01*
X135607698Y-58259297D01*
X135632936Y-58240579D01*
X135659886Y-58224426D01*
X135688290Y-58210992D01*
X135717874Y-58200407D01*
X135748353Y-58192772D01*
X135779433Y-58188162D01*
X135810816Y-58186620D01*
X137320464Y-58186620D01*
X137351847Y-58188162D01*
X137351847Y-58188162D01*
G37*
D28*
X136565640Y-59099120D03*
D13*
G36*
X137351847Y-61163162D02*
X137382927Y-61167772D01*
X137413406Y-61175407D01*
X137442990Y-61185992D01*
X137471394Y-61199426D01*
X137498344Y-61215579D01*
X137523582Y-61234297D01*
X137546863Y-61255397D01*
X137567963Y-61278678D01*
X137586681Y-61303916D01*
X137602834Y-61330866D01*
X137616268Y-61359270D01*
X137626853Y-61388854D01*
X137634488Y-61419333D01*
X137639098Y-61450413D01*
X137640640Y-61481796D01*
X137640640Y-62666444D01*
X137639098Y-62697827D01*
X137634488Y-62728907D01*
X137626853Y-62759386D01*
X137616268Y-62788970D01*
X137602834Y-62817374D01*
X137586681Y-62844324D01*
X137567963Y-62869562D01*
X137546863Y-62892843D01*
X137523582Y-62913943D01*
X137498344Y-62932661D01*
X137471394Y-62948814D01*
X137442990Y-62962248D01*
X137413406Y-62972833D01*
X137382927Y-62980468D01*
X137351847Y-62985078D01*
X137320464Y-62986620D01*
X135810816Y-62986620D01*
X135779433Y-62985078D01*
X135748353Y-62980468D01*
X135717874Y-62972833D01*
X135688290Y-62962248D01*
X135659886Y-62948814D01*
X135632936Y-62932661D01*
X135607698Y-62913943D01*
X135584417Y-62892843D01*
X135563317Y-62869562D01*
X135544599Y-62844324D01*
X135528446Y-62817374D01*
X135515012Y-62788970D01*
X135504427Y-62759386D01*
X135496792Y-62728907D01*
X135492182Y-62697827D01*
X135490640Y-62666444D01*
X135490640Y-61481796D01*
X135492182Y-61450413D01*
X135496792Y-61419333D01*
X135504427Y-61388854D01*
X135515012Y-61359270D01*
X135528446Y-61330866D01*
X135544599Y-61303916D01*
X135563317Y-61278678D01*
X135584417Y-61255397D01*
X135607698Y-61234297D01*
X135632936Y-61215579D01*
X135659886Y-61199426D01*
X135688290Y-61185992D01*
X135717874Y-61175407D01*
X135748353Y-61167772D01*
X135779433Y-61163162D01*
X135810816Y-61161620D01*
X137320464Y-61161620D01*
X137351847Y-61163162D01*
X137351847Y-61163162D01*
G37*
D28*
X136565640Y-62074120D03*
G04 #@! TD*
D29*
G04 #@! TO.C,MH1*
X185409840Y-126169420D03*
G04 #@! TD*
G04 #@! TO.C,MH2*
X134660640Y-126136400D03*
G04 #@! TD*
D30*
G04 #@! TO.C,J1*
X203277860Y-63742960D03*
X194277860Y-63742960D03*
D31*
X201577860Y-62952960D03*
X199977860Y-62952960D03*
X199177860Y-62952960D03*
X198377860Y-62952960D03*
X197577860Y-62952960D03*
X195977860Y-62952960D03*
X202502860Y-62242960D03*
D32*
X195052860Y-62242960D03*
D33*
X203277860Y-58142960D03*
X194277860Y-58142960D03*
G04 #@! TD*
D14*
G04 #@! TO.C,J3*
X175453040Y-117378480D03*
D15*
X175453040Y-114838480D03*
X175453040Y-112298480D03*
X175453040Y-109758480D03*
G04 #@! TD*
D29*
G04 #@! TO.C,MH3*
X159550100Y-62064900D03*
G04 #@! TD*
D21*
G04 #@! TO.C,S1*
X184271920Y-57174800D03*
X179571920Y-57174800D03*
X189021920Y-57174800D03*
X179571920Y-64084800D03*
X184271920Y-64084800D03*
X189021920Y-64084800D03*
G04 #@! TD*
M02*
